G04 Layer_Physical_Order=1*
G04 Layer_Color=255*
%FSLAX24Y24*%
%MOIN*%
G70*
G01*
G75*
%ADD10R,0.1850X0.1350*%
%ADD11R,0.0236X0.0571*%
%ADD12R,0.0571X0.0236*%
%ADD13R,0.0354X0.0315*%
%ADD14R,0.0315X0.0354*%
%ADD15R,0.0551X0.0591*%
%ADD16R,0.0472X0.0551*%
%ADD17R,0.0394X0.0138*%
%ADD18O,0.0079X0.0354*%
%ADD19O,0.0354X0.0079*%
%ADD20R,0.0886X0.0886*%
%ADD21O,0.0827X0.0118*%
%ADD22O,0.0118X0.0827*%
%ADD23R,0.0472X0.0315*%
G04:AMPARAMS|DCode=24|XSize=24mil|YSize=9mil|CornerRadius=4.5mil|HoleSize=0mil|Usage=FLASHONLY|Rotation=270.000|XOffset=0mil|YOffset=0mil|HoleType=Round|Shape=RoundedRectangle|*
%AMROUNDEDRECTD24*
21,1,0.0240,0.0000,0,0,270.0*
21,1,0.0150,0.0090,0,0,270.0*
1,1,0.0090,0.0000,-0.0075*
1,1,0.0090,0.0000,0.0075*
1,1,0.0090,0.0000,0.0075*
1,1,0.0090,0.0000,-0.0075*
%
%ADD24ROUNDEDRECTD24*%
G04:AMPARAMS|DCode=25|XSize=24mil|YSize=9mil|CornerRadius=4.5mil|HoleSize=0mil|Usage=FLASHONLY|Rotation=180.000|XOffset=0mil|YOffset=0mil|HoleType=Round|Shape=RoundedRectangle|*
%AMROUNDEDRECTD25*
21,1,0.0240,0.0000,0,0,180.0*
21,1,0.0150,0.0090,0,0,180.0*
1,1,0.0090,-0.0075,0.0000*
1,1,0.0090,0.0075,0.0000*
1,1,0.0090,0.0075,0.0000*
1,1,0.0090,-0.0075,0.0000*
%
%ADD25ROUNDEDRECTD25*%
%ADD26C,0.0200*%
%ADD27C,0.0250*%
%ADD28C,0.0060*%
%ADD29C,0.0400*%
%ADD30C,0.0120*%
%ADD31C,0.0080*%
%ADD32C,0.0100*%
%ADD33C,0.0080*%
%ADD34R,0.0394X0.0295*%
%ADD35R,0.0591X0.0591*%
%ADD36C,0.0591*%
%ADD37R,0.0591X0.0591*%
%ADD38C,0.0866*%
%ADD39C,0.0787*%
%ADD40C,0.0370*%
%ADD41C,0.0394*%
%ADD42R,0.0394X0.0394*%
%ADD43C,0.0340*%
%ADD44C,0.0320*%
G36*
X5840Y11489D02*
X5967Y11451D01*
X6084Y11389D01*
X6186Y11305D01*
X6270Y11202D01*
X6333Y11085D01*
X6371Y10959D01*
X6384Y10828D01*
X6384Y10827D01*
Y-5512D01*
X6384Y-5513D01*
X6371Y-5644D01*
X6333Y-5770D01*
X6270Y-5887D01*
X6186Y-5990D01*
X6084Y-6074D01*
X5967Y-6136D01*
X5840Y-6174D01*
X5710Y-6187D01*
X5709Y-6187D01*
X-5709D01*
X-5710Y-6187D01*
X-5840Y-6174D01*
X-5967Y-6136D01*
X-6084Y-6074D01*
X-6186Y-5990D01*
X-6270Y-5887D01*
X-6333Y-5770D01*
X-6371Y-5644D01*
X-6384Y-5513D01*
X-6384Y-5512D01*
Y10827D01*
X-6384Y10828D01*
X-6371Y10959D01*
X-6333Y11085D01*
X-6270Y11202D01*
X-6186Y11305D01*
X-6084Y11389D01*
X-5967Y11451D01*
X-5840Y11489D01*
X-5710Y11502D01*
X-5709Y11502D01*
X5709D01*
X5710Y11502D01*
X5840Y11489D01*
D02*
G37*
%LPC*%
G36*
X-5038Y-254D02*
X-5265D01*
Y-462D01*
X-5038D01*
Y-254D01*
D02*
G37*
G36*
X-5365D02*
X-5592D01*
Y-462D01*
X-5365D01*
Y-254D01*
D02*
G37*
G36*
X-4054Y1928D02*
X-4261D01*
Y1701D01*
X-4054D01*
Y1928D01*
D02*
G37*
G36*
X-4361D02*
X-4568D01*
Y1701D01*
X-4361D01*
Y1928D01*
D02*
G37*
G36*
X-5365Y-562D02*
X-5592D01*
Y-769D01*
X-5365D01*
Y-562D01*
D02*
G37*
G36*
X-4479Y-491D02*
X-4805D01*
Y-836D01*
X-4479D01*
Y-491D01*
D02*
G37*
G36*
X-6004Y-277D02*
X-6090Y-294D01*
X-6241D01*
Y-729D01*
X-6089D01*
X-6004Y-746D01*
X-5919Y-729D01*
X-5767D01*
Y-294D01*
X-5918D01*
X-6004Y-277D01*
D02*
G37*
G36*
X-5038Y-562D02*
X-5265D01*
Y-769D01*
X-5038D01*
Y-562D01*
D02*
G37*
G36*
X-4361Y2256D02*
X-4568D01*
Y2028D01*
X-4361D01*
Y2256D01*
D02*
G37*
G36*
X2738Y4911D02*
X2452D01*
Y4585D01*
X2738D01*
Y4911D01*
D02*
G37*
G36*
X1682Y4044D02*
X1396D01*
Y3719D01*
X1682D01*
Y4044D01*
D02*
G37*
G36*
X2293Y5659D02*
X2085D01*
Y5432D01*
X2293D01*
Y5659D01*
D02*
G37*
G36*
X2738Y5336D02*
X2452D01*
Y5011D01*
X2738D01*
Y5336D01*
D02*
G37*
G36*
X2049Y3296D02*
X1841D01*
Y3069D01*
X2049D01*
Y3296D01*
D02*
G37*
G36*
X1741D02*
X1534D01*
Y3069D01*
X1741D01*
Y3296D01*
D02*
G37*
G36*
X2049Y3624D02*
X1841D01*
Y3396D01*
X2049D01*
Y3624D01*
D02*
G37*
G36*
X1741D02*
X1534D01*
Y3396D01*
X1741D01*
Y3624D01*
D02*
G37*
G36*
X2738Y-1731D02*
X2511D01*
Y-1938D01*
X2738D01*
Y-1731D01*
D02*
G37*
G36*
X1505Y-5530D02*
X1298D01*
Y-5757D01*
X1505D01*
Y-5530D01*
D02*
G37*
G36*
X1813Y-5857D02*
X1605D01*
Y-6084D01*
X1813D01*
Y-5857D01*
D02*
G37*
G36*
X-3121Y-4578D02*
X-3328D01*
Y-4805D01*
X-3121D01*
Y-4578D01*
D02*
G37*
G36*
X1813Y-5530D02*
X1605D01*
Y-5757D01*
X1813D01*
Y-5530D01*
D02*
G37*
G36*
X-326Y-5857D02*
X-533D01*
Y-6084D01*
X-326D01*
Y-5857D01*
D02*
G37*
G36*
X5512Y-4501D02*
X5353Y-4517D01*
X5200Y-4563D01*
X5060Y-4638D01*
X4936Y-4739D01*
X4835Y-4863D01*
X4760Y-5003D01*
X4714Y-5156D01*
X4698Y-5315D01*
X4714Y-5474D01*
X4760Y-5626D01*
X4835Y-5767D01*
X4936Y-5890D01*
X5060Y-5992D01*
X5200Y-6067D01*
X5353Y-6113D01*
X5512Y-6129D01*
X5671Y-6113D01*
X5823Y-6067D01*
X5964Y-5992D01*
X6087Y-5890D01*
X6189Y-5767D01*
X6264Y-5626D01*
X6310Y-5474D01*
X6326Y-5315D01*
X6310Y-5156D01*
X6264Y-5003D01*
X6189Y-4863D01*
X6087Y-4739D01*
X5964Y-4638D01*
X5823Y-4563D01*
X5671Y-4517D01*
X5512Y-4501D01*
D02*
G37*
G36*
X1505Y-5857D02*
X1298D01*
Y-6084D01*
X1505D01*
Y-5857D01*
D02*
G37*
G36*
X-18Y-5857D02*
X-226D01*
Y-6084D01*
X-18D01*
Y-5857D01*
D02*
G37*
G36*
X-3121Y-4250D02*
X-3328D01*
Y-4478D01*
X-3121D01*
Y-4250D01*
D02*
G37*
G36*
X-3266Y-3396D02*
X-3592D01*
Y-3742D01*
X-3266D01*
Y-3396D01*
D02*
G37*
G36*
X-3692D02*
X-4017D01*
Y-3742D01*
X-3692D01*
Y-3396D01*
D02*
G37*
G36*
X2411Y-1731D02*
X2183D01*
Y-1938D01*
X2411D01*
Y-1731D01*
D02*
G37*
G36*
X-3692Y-2951D02*
X-4017D01*
Y-3296D01*
X-3692D01*
Y-2951D01*
D02*
G37*
G36*
X-904Y-4204D02*
X-1131D01*
Y-4411D01*
X-904D01*
Y-4204D01*
D02*
G37*
G36*
X-1231D02*
X-1458D01*
Y-4411D01*
X-1231D01*
Y-4204D01*
D02*
G37*
G36*
X-904Y-3896D02*
X-1131D01*
Y-4104D01*
X-904D01*
Y-3896D01*
D02*
G37*
G36*
X-1231D02*
X-1458D01*
Y-4104D01*
X-1231D01*
Y-3896D01*
D02*
G37*
G36*
X2600Y5659D02*
X2393D01*
Y5432D01*
X2600D01*
Y5659D01*
D02*
G37*
G36*
X-1625Y7411D02*
X-1852D01*
Y7203D01*
X-1625D01*
Y7411D01*
D02*
G37*
G36*
X-1987D02*
X-2214D01*
Y7203D01*
X-1987D01*
Y7411D01*
D02*
G37*
G36*
X2147Y7718D02*
X1920D01*
Y7511D01*
X2147D01*
Y7718D01*
D02*
G37*
G36*
X1458D02*
X1231D01*
Y7511D01*
X1458D01*
Y7718D01*
D02*
G37*
G36*
X1820D02*
X1593D01*
Y7511D01*
X1820D01*
Y7718D01*
D02*
G37*
G36*
X-609Y6859D02*
X-836D01*
Y6652D01*
X-609D01*
Y6859D01*
D02*
G37*
G36*
X809Y8021D02*
X512D01*
X215D01*
Y7902D01*
Y7865D01*
X512D01*
X809D01*
Y7902D01*
Y8021D01*
D02*
G37*
G36*
X-936Y7167D02*
X-1163D01*
Y6959D01*
X-936D01*
Y7167D01*
D02*
G37*
G36*
X-2314Y7411D02*
X-2541D01*
Y7203D01*
X-2314D01*
Y7411D01*
D02*
G37*
G36*
X-609Y7167D02*
X-836D01*
Y6959D01*
X-609D01*
Y7167D01*
D02*
G37*
G36*
X1458Y7411D02*
X1231D01*
Y7203D01*
X1458D01*
Y7411D01*
D02*
G37*
G36*
X-1987Y7718D02*
X-2214D01*
Y7511D01*
X-1987D01*
Y7718D01*
D02*
G37*
G36*
X1820Y7411D02*
X1593D01*
Y7203D01*
X1820D01*
Y7411D01*
D02*
G37*
G36*
X-2314Y7718D02*
X-2541D01*
Y7511D01*
X-2314D01*
Y7718D01*
D02*
G37*
G36*
X2147Y7411D02*
X1920D01*
Y7203D01*
X2147D01*
Y7411D01*
D02*
G37*
G36*
X-1298Y7718D02*
X-1525D01*
Y7511D01*
X-1298D01*
Y7718D01*
D02*
G37*
G36*
X1131D02*
X904D01*
Y7511D01*
X1131D01*
Y7718D01*
D02*
G37*
G36*
X-1298Y7411D02*
X-1525D01*
Y7203D01*
X-1298D01*
Y7411D01*
D02*
G37*
G36*
X-1625Y7718D02*
X-1852D01*
Y7511D01*
X-1625D01*
Y7718D01*
D02*
G37*
G36*
X1131Y7411D02*
X904D01*
Y7203D01*
X1131D01*
Y7411D01*
D02*
G37*
G36*
X809Y8240D02*
X562D01*
Y8121D01*
X809D01*
Y8240D01*
D02*
G37*
G36*
X462D02*
X215D01*
Y8121D01*
X462D01*
Y8240D01*
D02*
G37*
G36*
X5512Y11444D02*
X5353Y11428D01*
X5200Y11382D01*
X5060Y11307D01*
X4936Y11205D01*
X4835Y11082D01*
X4760Y10941D01*
X4714Y10789D01*
X4698Y10630D01*
X4714Y10471D01*
X4760Y10318D01*
X4835Y10178D01*
X4936Y10054D01*
X5060Y9953D01*
X5200Y9878D01*
X5353Y9832D01*
X5512Y9816D01*
X5671Y9832D01*
X5823Y9878D01*
X5964Y9953D01*
X6087Y10054D01*
X6189Y10178D01*
X6264Y10318D01*
X6310Y10471D01*
X6326Y10630D01*
X6310Y10789D01*
X6264Y10941D01*
X6189Y11082D01*
X6087Y11205D01*
X5964Y11307D01*
X5823Y11382D01*
X5671Y11428D01*
X5512Y11444D01*
D02*
G37*
G36*
X-1298Y6131D02*
X-1525D01*
Y5924D01*
X-1298D01*
Y6131D01*
D02*
G37*
G36*
X-1987Y6131D02*
X-2214D01*
Y5924D01*
X-1987D01*
Y6131D01*
D02*
G37*
G36*
X-5512Y11444D02*
X-5671Y11428D01*
X-5823Y11382D01*
X-5964Y11307D01*
X-6087Y11205D01*
X-6189Y11082D01*
X-6264Y10941D01*
X-6310Y10789D01*
X-6326Y10630D01*
X-6310Y10471D01*
X-6264Y10318D01*
X-6189Y10178D01*
X-6087Y10054D01*
X-5964Y9953D01*
X-5823Y9878D01*
X-5671Y9832D01*
X-5512Y9816D01*
X-5353Y9832D01*
X-5200Y9878D01*
X-5060Y9953D01*
X-4936Y10054D01*
X-4835Y10178D01*
X-4760Y10318D01*
X-4714Y10471D01*
X-4698Y10630D01*
X-4714Y10789D01*
X-4760Y10941D01*
X-4835Y11082D01*
X-4936Y11205D01*
X-5060Y11307D01*
X-5200Y11382D01*
X-5353Y11428D01*
X-5512Y11444D01*
D02*
G37*
G36*
X-1625Y6131D02*
X-1852D01*
Y5924D01*
X-1625D01*
Y6131D01*
D02*
G37*
G36*
X-2314Y6131D02*
X-2541D01*
Y5924D01*
X-2314D01*
Y6131D01*
D02*
G37*
G36*
X-1625Y6439D02*
X-1852D01*
Y6231D01*
X-1625D01*
Y6439D01*
D02*
G37*
G36*
X2600Y5986D02*
X2393D01*
Y5759D01*
X2600D01*
Y5986D01*
D02*
G37*
G36*
X0Y10399D02*
X-118Y10383D01*
X-229Y10337D01*
X-324Y10265D01*
X-396Y10170D01*
X-442Y10059D01*
X-458Y9941D01*
X-442Y9822D01*
X-396Y9712D01*
X-324Y9617D01*
X-262Y9570D01*
Y8672D01*
X-382Y8552D01*
X-424Y8497D01*
X-450Y8434D01*
X-459Y8366D01*
X-459Y8363D01*
Y8071D01*
X-454Y8059D01*
Y7937D01*
X-748D01*
X-795Y7928D01*
X-835Y7901D01*
X-972Y7764D01*
X-999Y7724D01*
X-1008Y7678D01*
X-1123D01*
Y7243D01*
X-649D01*
Y7678D01*
X-605Y7693D01*
X-454D01*
Y7430D01*
X-299D01*
Y7127D01*
X-395D01*
Y6653D01*
X-102D01*
Y6474D01*
X-152Y6448D01*
X-158Y6452D01*
X-197Y6460D01*
X-236Y6452D01*
X-268Y6430D01*
X-322D01*
X-355Y6452D01*
X-394Y6460D01*
X-432Y6452D01*
X-465Y6430D01*
X-487Y6397D01*
X-495Y6358D01*
Y6343D01*
X-835D01*
X-883Y6391D01*
X-923Y6418D01*
X-952Y6423D01*
X-1057Y6529D01*
X-1063Y6557D01*
X-1089Y6597D01*
X-1098Y6606D01*
X-1079Y6652D01*
X-936D01*
Y6859D01*
X-1163D01*
Y6736D01*
X-1209Y6717D01*
X-1338Y6845D01*
Y7127D01*
X-1812D01*
Y7032D01*
X-2027D01*
Y7127D01*
X-2501D01*
Y6692D01*
X-2027D01*
Y6787D01*
X-1812D01*
Y6692D01*
X-1530D01*
X-1327Y6489D01*
X-1348Y6439D01*
X-1525D01*
Y6231D01*
X-1298D01*
Y6352D01*
X-1248Y6373D01*
X-1092Y6218D01*
X-1053Y6191D01*
X-1024Y6186D01*
X-972Y6134D01*
X-933Y6107D01*
X-886Y6098D01*
X-682D01*
Y6004D01*
X-675Y5969D01*
X-655Y5939D01*
X-632Y5915D01*
Y5742D01*
X-669Y5712D01*
X-945D01*
X-984Y5704D01*
X-986Y5702D01*
X-1338D01*
Y5847D01*
X-1812D01*
Y5412D01*
X-1779D01*
X-1754Y5362D01*
X-1791Y5306D01*
X-1809Y5217D01*
X-1800Y5169D01*
X-1812Y5119D01*
X-1812D01*
X-1812Y5119D01*
Y5065D01*
X-2027D01*
Y5119D01*
X-2101D01*
Y5412D01*
X-2027D01*
Y5847D01*
X-2501D01*
Y5412D01*
X-2427D01*
Y5119D01*
X-2501D01*
Y4684D01*
X-2027D01*
Y4738D01*
X-1831D01*
X-1822Y4688D01*
X-1842Y4675D01*
X-1907Y4610D01*
X-1927Y4580D01*
X-1934Y4545D01*
Y2005D01*
X-1927Y1970D01*
X-1915Y1952D01*
X-1953Y1920D01*
X-2334Y2300D01*
Y3109D01*
X-2263D01*
Y3584D01*
X-2588D01*
X-3192Y4187D01*
Y4465D01*
X-3142Y4486D01*
X-2891Y4235D01*
X-2838Y4200D01*
X-2776Y4187D01*
X-2501D01*
Y4133D01*
X-2027D01*
Y4568D01*
X-2501D01*
Y4514D01*
X-2708D01*
X-2888Y4694D01*
Y6254D01*
X-2900Y6317D01*
X-2936Y6369D01*
X-3716Y7149D01*
X-3769Y7185D01*
X-3831Y7197D01*
X-5208D01*
X-5271Y7185D01*
X-5324Y7149D01*
X-5590Y6883D01*
X-5626Y6830D01*
X-5638Y6767D01*
Y3806D01*
X-5626Y3744D01*
X-5590Y3691D01*
X-5131Y3231D01*
X-5078Y3196D01*
X-5015Y3183D01*
X-4529D01*
Y3109D01*
X-4433D01*
Y2904D01*
X-4529D01*
Y2430D01*
X-4385D01*
X-4256Y2302D01*
X-4261Y2290D01*
Y2028D01*
X-4036D01*
X-4007Y2041D01*
X-3977Y2018D01*
Y1741D01*
X-3696D01*
X-2951Y996D01*
X-2911Y970D01*
X-2864Y960D01*
X-2756D01*
X-2737Y936D01*
X-2205D01*
X-1674D01*
X-1654Y961D01*
X-1377D01*
X-1347Y917D01*
X-1271Y866D01*
X-1181Y848D01*
X-1091Y866D01*
X-1015Y917D01*
X-986Y961D01*
X-756D01*
X2Y203D01*
X42Y177D01*
X65Y172D01*
X226Y11D01*
X266Y-15D01*
X312Y-25D01*
X800D01*
X847Y-15D01*
X886Y11D01*
X1540Y665D01*
X1567Y705D01*
X1576Y752D01*
Y1191D01*
X1642Y1257D01*
X1696Y1240D01*
X1701Y1217D01*
X1736Y1165D01*
X1754Y1153D01*
X1738Y1129D01*
X1729Y1083D01*
X1738Y1036D01*
X1748Y1021D01*
X1760Y984D01*
X1748Y947D01*
X1738Y932D01*
X1729Y886D01*
X1738Y839D01*
X1765Y800D01*
Y775D01*
X1738Y735D01*
X1729Y689D01*
X1738Y643D01*
X1765Y603D01*
Y578D01*
X1738Y539D01*
X1729Y492D01*
X1738Y446D01*
X1748Y430D01*
X1760Y394D01*
X1748Y357D01*
X1738Y342D01*
X1729Y295D01*
X1738Y249D01*
X1765Y209D01*
Y184D01*
X1738Y145D01*
X1729Y98D01*
X1738Y52D01*
X1748Y37D01*
X1760Y-0D01*
X1748Y-37D01*
X1738Y-52D01*
X1729Y-98D01*
X1738Y-145D01*
X1765Y-184D01*
Y-209D01*
X1738Y-249D01*
X1729Y-295D01*
X1738Y-342D01*
X1765Y-381D01*
Y-406D01*
X1738Y-446D01*
X1729Y-492D01*
X1738Y-539D01*
X1748Y-554D01*
X1760Y-591D01*
X1748Y-627D01*
X1738Y-643D01*
X1729Y-689D01*
X1738Y-735D01*
X1765Y-775D01*
Y-800D01*
X1738Y-839D01*
X1729Y-886D01*
X1738Y-932D01*
X1748Y-948D01*
X1760Y-984D01*
X1748Y-1021D01*
X1738Y-1036D01*
X1729Y-1083D01*
X1738Y-1129D01*
X1765Y-1169D01*
Y-1194D01*
X1738Y-1233D01*
X1729Y-1280D01*
X1738Y-1326D01*
X1765Y-1365D01*
Y-1391D01*
X1738Y-1430D01*
X1729Y-1476D01*
X1738Y-1523D01*
X1765Y-1562D01*
X1804Y-1589D01*
X1850Y-1598D01*
X2559D01*
X2605Y-1589D01*
X2636Y-1568D01*
X2912D01*
Y-1969D01*
X3384D01*
X3394Y-1983D01*
X3368Y-2033D01*
X2859D01*
X2824Y-2040D01*
X2794Y-2060D01*
X2784Y-2070D01*
X2738Y-2051D01*
Y-2038D01*
X2183D01*
Y-2246D01*
X2458D01*
X2478Y-2293D01*
X2454Y-2322D01*
X2223D01*
Y-2448D01*
X1849D01*
X1598Y-2196D01*
Y-1850D01*
X1589Y-1804D01*
X1562Y-1765D01*
X1523Y-1738D01*
X1476Y-1729D01*
X1430Y-1738D01*
X1406Y-1754D01*
X1394Y-1736D01*
X1342Y-1701D01*
X1291Y-1691D01*
X1274Y-1658D01*
X1271Y-1639D01*
X1296Y-1615D01*
X1322Y-1575D01*
X1332Y-1529D01*
Y-1338D01*
X1518Y-1152D01*
X1545Y-1112D01*
X1554Y-1065D01*
Y-825D01*
X1545Y-778D01*
X1518Y-738D01*
X1087Y-307D01*
X1047Y-281D01*
X1001Y-271D01*
X-567D01*
Y295D01*
X-576Y342D01*
X-602Y382D01*
X-799Y579D01*
X-839Y605D01*
X-886Y614D01*
X-1085D01*
X-1114Y658D01*
X-1190Y709D01*
X-1280Y727D01*
X-1369Y709D01*
X-1445Y658D01*
X-1496Y582D01*
X-1514Y492D01*
X-1496Y402D01*
X-1445Y326D01*
X-1369Y275D01*
X-1280Y258D01*
X-1190Y275D01*
X-1114Y326D01*
X-1085Y370D01*
X-936D01*
X-811Y245D01*
Y-394D01*
Y-763D01*
X-1701D01*
X-1734Y-713D01*
X-1729Y-689D01*
X-1738Y-643D01*
X-1748Y-627D01*
X-1760Y-591D01*
X-1748Y-554D01*
X-1738Y-539D01*
X-1729Y-492D01*
X-1738Y-446D01*
X-1765Y-406D01*
Y-381D01*
X-1738Y-342D01*
X-1729Y-295D01*
X-1738Y-249D01*
X-1765Y-209D01*
Y-184D01*
X-1738Y-145D01*
X-1729Y-98D01*
X-1738Y-52D01*
X-1748Y-37D01*
X-1760Y-0D01*
X-1748Y37D01*
X-1738Y52D01*
X-1729Y98D01*
X-1738Y145D01*
X-1765Y184D01*
Y209D01*
X-1738Y249D01*
X-1729Y295D01*
X-1738Y342D01*
X-1765Y381D01*
Y406D01*
X-1738Y446D01*
X-1729Y492D01*
X-1738Y539D01*
X-1765Y578D01*
Y603D01*
X-1738Y643D01*
X-1729Y689D01*
X-1738Y735D01*
X-1754Y759D01*
X-1736Y771D01*
X-1701Y824D01*
X-1698Y836D01*
X-2205D01*
X-2715D01*
X-2742Y791D01*
X-2911D01*
X-3461Y1342D01*
X-3494Y1364D01*
X-3533Y1372D01*
X-3542D01*
Y1507D01*
X-3977D01*
Y1033D01*
X-3542D01*
Y1069D01*
X-3496Y1088D01*
X-3318Y911D01*
X-3339Y861D01*
X-3592D01*
X-3631Y853D01*
X-3664Y831D01*
X-3667Y828D01*
X-3965D01*
X-3969Y844D01*
X-3989Y874D01*
X-4097Y983D01*
X-4094Y1033D01*
X-4094Y1033D01*
X-4094Y1033D01*
Y1507D01*
X-4529D01*
Y1033D01*
X-4403D01*
Y965D01*
X-4396Y929D01*
X-4376Y900D01*
X-4346Y880D01*
X-4336Y878D01*
X-4341Y828D01*
X-4529D01*
Y682D01*
X-4686D01*
X-5237Y1233D01*
X-5237Y1241D01*
X-5183Y1322D01*
X-5164Y1417D01*
X-5183Y1513D01*
X-5237Y1594D01*
X-5317Y1648D01*
X-5318Y1653D01*
Y1694D01*
X-5317Y1699D01*
X-5237Y1752D01*
X-5183Y1834D01*
X-5164Y1929D01*
X-5183Y2025D01*
X-5237Y2106D01*
X-5318Y2160D01*
X-5413Y2179D01*
X-5509Y2160D01*
X-5590Y2106D01*
X-5644Y2025D01*
X-5663Y1929D01*
X-5663Y1927D01*
X-5704Y1899D01*
X-5711Y1904D01*
X-5807Y1923D01*
X-5903Y1904D01*
X-5984Y1850D01*
X-6038Y1769D01*
X-6057Y1673D01*
X-6038Y1578D01*
X-6036Y1574D01*
X-6157Y1453D01*
X-6177Y1423D01*
X-6184Y1388D01*
Y1043D01*
X-6177Y1008D01*
X-6157Y978D01*
X-5990Y811D01*
X-5960Y792D01*
X-5925Y785D01*
X-5304D01*
X-4768Y248D01*
X-4738Y229D01*
X-4703Y222D01*
X-4112D01*
X-4077Y229D01*
X-4047Y248D01*
X-3989Y307D01*
X-3969Y337D01*
X-3965Y353D01*
X-3542D01*
Y657D01*
X-3319D01*
X-3082Y420D01*
X-3049Y398D01*
X-3010Y390D01*
X-2861D01*
X-2841Y340D01*
X-3188Y-7D01*
X-3542D01*
Y139D01*
X-3977D01*
Y-237D01*
X-4024Y-256D01*
X-4094Y-186D01*
Y139D01*
X-4529D01*
Y-336D01*
X-4204D01*
X-4109Y-430D01*
Y-491D01*
X-4379D01*
Y-886D01*
X-4429D01*
Y-936D01*
X-4805D01*
Y-1189D01*
X-5059D01*
X-5078Y-1170D01*
Y-846D01*
X-5552D01*
Y-874D01*
X-5767D01*
Y-846D01*
X-6241D01*
Y-1280D01*
X-6193D01*
Y-2736D01*
X-6178Y-2808D01*
X-6137Y-2870D01*
X-6076Y-2910D01*
X-6056Y-2914D01*
X-5947Y-3024D01*
X-5966Y-3070D01*
X-6162D01*
Y-3343D01*
X-6173Y-3396D01*
X-6162Y-3449D01*
Y-3761D01*
X-5886D01*
X-5072Y-4575D01*
X-5102Y-4616D01*
X-5200Y-4563D01*
X-5353Y-4517D01*
X-5512Y-4501D01*
X-5671Y-4517D01*
X-5823Y-4563D01*
X-5964Y-4638D01*
X-6087Y-4739D01*
X-6189Y-4863D01*
X-6264Y-5003D01*
X-6310Y-5156D01*
X-6326Y-5315D01*
X-6310Y-5474D01*
X-6264Y-5626D01*
X-6189Y-5767D01*
X-6087Y-5890D01*
X-5964Y-5992D01*
X-5823Y-6067D01*
X-5671Y-6113D01*
X-5512Y-6129D01*
X-5353Y-6113D01*
X-5200Y-6067D01*
X-5060Y-5992D01*
X-4936Y-5890D01*
X-4835Y-5767D01*
X-4760Y-5626D01*
X-4714Y-5474D01*
X-4698Y-5315D01*
X-4714Y-5156D01*
X-4760Y-5003D01*
X-4835Y-4863D01*
X-4925Y-4753D01*
X-4899Y-4707D01*
X-4852Y-4716D01*
X-3862D01*
Y-5307D01*
X-3927Y-5357D01*
X-3984Y-5431D01*
X-4019Y-5517D01*
X-4032Y-5610D01*
X-4019Y-5703D01*
X-3984Y-5789D01*
X-3927Y-5864D01*
X-3852Y-5921D01*
X-3766Y-5956D01*
X-3673Y-5969D01*
X-3580Y-5956D01*
X-3494Y-5921D01*
X-3420Y-5864D01*
X-3363Y-5789D01*
X-3327Y-5703D01*
X-3315Y-5610D01*
X-3327Y-5517D01*
X-3363Y-5431D01*
X-3420Y-5357D01*
X-3485Y-5307D01*
Y-4765D01*
X-3405D01*
Y-4290D01*
X-3840D01*
Y-4339D01*
X-4774D01*
X-5306Y-3807D01*
X-5287Y-3761D01*
X-5058D01*
Y-3070D01*
X-5414D01*
X-5414Y-3070D01*
Y-3070D01*
X-5458Y-3052D01*
X-5628Y-2882D01*
X-5609Y-2836D01*
X-5432D01*
Y-2698D01*
X-5335D01*
X-5262Y-2684D01*
X-5201Y-2643D01*
X-5127Y-2569D01*
X-5080Y-2588D01*
Y-2785D01*
X-5066Y-2858D01*
X-5025Y-2919D01*
X-4765Y-3179D01*
Y-3702D01*
X-4094D01*
Y-2991D01*
X-4419D01*
X-4703Y-2707D01*
Y-2245D01*
X-4546D01*
Y-1889D01*
X-4839D01*
X-4892Y-1878D01*
X-4945Y-1889D01*
X-5237D01*
Y-2146D01*
X-5382Y-2291D01*
X-5432Y-2270D01*
Y-2145D01*
X-5788D01*
X-5815Y-2106D01*
Y-1280D01*
X-5767D01*
Y-1252D01*
X-5552D01*
Y-1280D01*
X-5227D01*
X-5162Y-1346D01*
X-5132Y-1366D01*
X-5097Y-1373D01*
X-4112D01*
X-4077Y-1366D01*
X-4047Y-1346D01*
X-3952Y-1251D01*
X-3946Y-1241D01*
X-3805D01*
Y-1301D01*
X-4019Y-1515D01*
X-4312D01*
Y-1871D01*
X-3621D01*
Y-1578D01*
X-3526Y-1483D01*
X-3491Y-1431D01*
X-3479Y-1368D01*
Y-1293D01*
X-3429Y-1272D01*
X-3272Y-1429D01*
Y-1574D01*
X-3387D01*
Y-1855D01*
X-3533Y-2002D01*
X-3560Y-2042D01*
X-3569Y-2088D01*
Y-2550D01*
X-3560Y-2597D01*
X-3533Y-2636D01*
X-3268Y-2901D01*
X-3289Y-2951D01*
X-3307Y-2951D01*
X-3592D01*
Y-3296D01*
X-3266D01*
Y-2994D01*
X-3266Y-2974D01*
X-3216Y-2953D01*
X-2770Y-3399D01*
Y-4233D01*
X-2813Y-4250D01*
X-2820Y-4250D01*
X-3021D01*
Y-4528D01*
Y-4805D01*
X-2820D01*
X-2813Y-4805D01*
X-2770Y-4822D01*
Y-5266D01*
X-2852Y-5300D01*
X-2927Y-5357D01*
X-2984Y-5431D01*
X-3019Y-5517D01*
X-3032Y-5610D01*
X-3019Y-5703D01*
X-2984Y-5789D01*
X-2927Y-5864D01*
X-2852Y-5921D01*
X-2766Y-5956D01*
X-2673Y-5969D01*
X-2580Y-5956D01*
X-2494Y-5921D01*
X-2420Y-5864D01*
X-2363Y-5789D01*
X-2327Y-5703D01*
X-2315Y-5610D01*
X-2327Y-5517D01*
X-2363Y-5431D01*
X-2420Y-5357D01*
X-2494Y-5300D01*
X-2526Y-5287D01*
Y-3471D01*
X-1183D01*
X-1136Y-3461D01*
X-1124Y-3453D01*
X-1079Y-3483D01*
X-1084Y-3507D01*
X-1066Y-3596D01*
X-1015Y-3672D01*
X-939Y-3723D01*
X-849Y-3741D01*
X-762Y-3724D01*
X-514Y-3971D01*
X-532Y-4014D01*
X-548Y-4020D01*
X-666D01*
X-707Y-4029D01*
X-741Y-4052D01*
X-764Y-4087D01*
X-773Y-4128D01*
X-764Y-4169D01*
X-744Y-4208D01*
X-764Y-4247D01*
X-773Y-4288D01*
X-764Y-4329D01*
X-744Y-4368D01*
X-764Y-4407D01*
X-773Y-4448D01*
X-764Y-4489D01*
X-741Y-4523D01*
Y-4531D01*
X-764Y-4565D01*
X-773Y-4606D01*
X-764Y-4647D01*
X-743Y-4685D01*
X-764Y-4723D01*
X-773Y-4764D01*
X-764Y-4805D01*
X-743Y-4843D01*
X-764Y-4880D01*
X-773Y-4921D01*
X-764Y-4962D01*
X-741Y-4997D01*
X-707Y-5020D01*
X-666Y-5028D01*
X-549D01*
X-512Y-5040D01*
X-501Y-5076D01*
Y-5193D01*
X-543Y-5236D01*
X-744D01*
X-1012Y-4968D01*
X-993Y-4922D01*
X-944D01*
Y-4487D01*
X-1418D01*
Y-4922D01*
X-1273D01*
Y-4929D01*
X-1266Y-4964D01*
X-1246Y-4994D01*
X-1107Y-5133D01*
X-1123Y-5187D01*
X-1172Y-5197D01*
X-1248Y-5248D01*
X-1299Y-5324D01*
X-1317Y-5413D01*
X-1299Y-5503D01*
X-1248Y-5579D01*
X-1172Y-5630D01*
X-1083Y-5648D01*
X-993Y-5630D01*
X-917Y-5579D01*
X-891Y-5540D01*
X-533D01*
Y-5757D01*
X-276D01*
X-18D01*
Y-5634D01*
X31Y-5612D01*
X58Y-5634D01*
Y-6044D01*
X493D01*
Y-5570D01*
X267D01*
X176Y-5480D01*
X181Y-5436D01*
X227Y-5418D01*
X228Y-5419D01*
X258Y-5439D01*
X293Y-5446D01*
X808D01*
X882Y-5520D01*
X862Y-5570D01*
X786D01*
Y-6044D01*
X1221D01*
Y-5570D01*
X1096D01*
Y-5512D01*
X1089Y-5477D01*
X1069Y-5447D01*
X913Y-5291D01*
X913Y-5285D01*
X929Y-5241D01*
X2116D01*
X2165Y-5315D01*
X2242Y-5366D01*
X2331Y-5384D01*
X2421Y-5366D01*
X2490Y-5320D01*
X2538Y-5316D01*
X2538Y-5316D01*
X2538Y-5316D01*
X3052D01*
X3071Y-5362D01*
X2922Y-5511D01*
X2538D01*
Y-5946D01*
X3131D01*
Y-5562D01*
X3442Y-5250D01*
X3462Y-5221D01*
X3469Y-5186D01*
Y-3986D01*
X3519Y-3966D01*
X3549Y-3995D01*
X3579Y-4015D01*
X3614Y-4022D01*
X3658D01*
X3674Y-4044D01*
X3650Y-4094D01*
X3641D01*
Y-4568D01*
X4014D01*
Y-4881D01*
X3641D01*
Y-5316D01*
X4154D01*
X4173Y-5362D01*
X4025Y-5511D01*
X3641D01*
Y-5946D01*
X4233D01*
Y-5562D01*
X4474Y-5321D01*
X4494Y-5291D01*
X4501Y-5256D01*
Y-4568D01*
X4627D01*
Y-4119D01*
X5906D01*
X5941Y-4112D01*
X5970Y-4092D01*
X5990Y-4062D01*
X5997Y-4027D01*
Y-3997D01*
X6162D01*
Y-3483D01*
X5649D01*
Y-3553D01*
X5599Y-3570D01*
X5589Y-3557D01*
X5537Y-3518D01*
X5533Y-3491D01*
Y-3490D01*
X5537Y-3463D01*
X5589Y-3423D01*
X5630Y-3370D01*
X5656Y-3307D01*
X5665Y-3240D01*
X5656Y-3173D01*
X5630Y-3111D01*
X5589Y-3057D01*
X5537Y-3018D01*
X5533Y-2991D01*
Y-2990D01*
X5537Y-2963D01*
X5589Y-2923D01*
X5630Y-2870D01*
X5656Y-2807D01*
X5665Y-2740D01*
X5656Y-2673D01*
X5630Y-2611D01*
X5589Y-2557D01*
X5537Y-2518D01*
X5533Y-2491D01*
Y-2490D01*
X5537Y-2463D01*
X5589Y-2423D01*
X5628Y-2372D01*
X5655Y-2368D01*
X5656D01*
X5683Y-2372D01*
X5722Y-2423D01*
X5776Y-2465D01*
X5838Y-2490D01*
X5906Y-2499D01*
X5973Y-2490D01*
X6035Y-2465D01*
X6089Y-2423D01*
X6130Y-2370D01*
X6156Y-2307D01*
X6165Y-2240D01*
X6156Y-2173D01*
X6130Y-2111D01*
X6089Y-2057D01*
X6037Y-2018D01*
X6033Y-1991D01*
Y-1990D01*
X6037Y-1963D01*
X6089Y-1923D01*
X6130Y-1870D01*
X6156Y-1807D01*
X6165Y-1740D01*
X6156Y-1673D01*
X6130Y-1611D01*
X6089Y-1557D01*
X6035Y-1516D01*
X5973Y-1490D01*
X5906Y-1481D01*
X5838Y-1490D01*
X5776Y-1516D01*
X5722Y-1557D01*
X5683Y-1608D01*
X5656Y-1612D01*
X5655D01*
X5628Y-1608D01*
X5589Y-1557D01*
X5535Y-1516D01*
X5473Y-1490D01*
X5406Y-1481D01*
X5338Y-1490D01*
X5301Y-1506D01*
X4349Y-554D01*
X4319Y-534D01*
X4284Y-527D01*
X3073D01*
X3038Y-534D01*
X3008Y-554D01*
X2849Y-713D01*
X2829Y-743D01*
X2822Y-778D01*
Y-1143D01*
X2777Y-1188D01*
X2692D01*
X2665Y-1138D01*
X2671Y-1129D01*
X2680Y-1083D01*
X2671Y-1036D01*
X2661Y-1021D01*
X2649Y-984D01*
X2661Y-948D01*
X2671Y-932D01*
X2680Y-886D01*
X2671Y-839D01*
X2645Y-800D01*
Y-775D01*
X2671Y-735D01*
X2680Y-689D01*
X2671Y-643D01*
X2661Y-627D01*
X2649Y-591D01*
X2661Y-554D01*
X2671Y-539D01*
X2680Y-492D01*
X2671Y-446D01*
X2645Y-406D01*
Y-381D01*
X2671Y-342D01*
X2680Y-295D01*
X2671Y-249D01*
X2645Y-209D01*
Y-184D01*
X2671Y-145D01*
X2680Y-98D01*
X2671Y-52D01*
X2661Y-37D01*
X2649Y-0D01*
X2661Y37D01*
X2671Y52D01*
X2680Y98D01*
X2671Y145D01*
X2645Y184D01*
Y209D01*
X2671Y249D01*
X2680Y295D01*
X2671Y342D01*
X2661Y357D01*
X2660Y361D01*
X2672Y377D01*
X2736Y382D01*
X3031Y87D01*
X3014Y0D01*
X3031Y-90D01*
X3082Y-166D01*
X3158Y-217D01*
X3248Y-235D01*
X3338Y-217D01*
X3414Y-166D01*
X3465Y-90D01*
X3483Y0D01*
X3465Y90D01*
X3414Y166D01*
X3338Y217D01*
X3318Y221D01*
Y272D01*
X3338Y275D01*
X3414Y326D01*
X3465Y402D01*
X3483Y492D01*
X3465Y582D01*
X3414Y658D01*
X3379Y681D01*
X3395Y731D01*
X3710D01*
X3745Y738D01*
X3775Y758D01*
X5371Y2354D01*
X5391Y2384D01*
X5398Y2419D01*
Y4939D01*
X5391Y4974D01*
X5371Y5004D01*
X5351Y5025D01*
X5350Y5093D01*
X5470Y5213D01*
X5490Y5243D01*
X5497Y5278D01*
Y5943D01*
X5490Y5978D01*
X5470Y6008D01*
X5417Y6060D01*
X5387Y6080D01*
X5352Y6087D01*
X4405D01*
X4370Y6080D01*
X4340Y6060D01*
X4200Y5920D01*
X4199Y5921D01*
X4112Y5956D01*
X4020Y5969D01*
X3927Y5956D01*
X3841Y5921D01*
X3766Y5864D01*
X3709Y5789D01*
X3685Y5731D01*
X3635Y5741D01*
Y6096D01*
X3840Y6301D01*
X3841Y6300D01*
X3927Y6264D01*
X4020Y6252D01*
X4112Y6264D01*
X4199Y6300D01*
X4273Y6357D01*
X4330Y6431D01*
X4366Y6517D01*
X4366Y6518D01*
X4673D01*
X4674Y6517D01*
X4709Y6431D01*
X4766Y6357D01*
X4841Y6300D01*
X4927Y6264D01*
X5020Y6252D01*
X5112Y6264D01*
X5199Y6300D01*
X5273Y6357D01*
X5330Y6431D01*
X5366Y6517D01*
X5378Y6610D01*
X5366Y6703D01*
X5330Y6789D01*
X5273Y6864D01*
X5199Y6921D01*
X5112Y6956D01*
X5020Y6969D01*
X4927Y6956D01*
X4841Y6921D01*
X4766Y6864D01*
X4709Y6789D01*
X4674Y6703D01*
X4673Y6702D01*
X4366D01*
X4366Y6703D01*
X4330Y6789D01*
X4273Y6864D01*
X4199Y6921D01*
X4112Y6956D01*
X4020Y6969D01*
X3927Y6956D01*
X3841Y6921D01*
X3766Y6864D01*
X3709Y6789D01*
X3674Y6703D01*
X3661Y6610D01*
X3674Y6517D01*
X3709Y6431D01*
X3710Y6430D01*
X3478Y6199D01*
X3459Y6169D01*
X3452Y6134D01*
Y3778D01*
X2351Y2678D01*
X2264Y2695D01*
X2174Y2677D01*
X2098Y2626D01*
X2047Y2550D01*
X2029Y2461D01*
X2047Y2371D01*
X2066Y2342D01*
X2039Y2292D01*
X1598D01*
Y2559D01*
X1589Y2605D01*
X1562Y2645D01*
X1523Y2671D01*
X1476Y2680D01*
X1430Y2671D01*
X1415Y2661D01*
X1378Y2649D01*
X1341Y2661D01*
X1326Y2671D01*
X1280Y2680D01*
X1233Y2671D01*
X1218Y2661D01*
X1181Y2649D01*
X1144Y2661D01*
X1129Y2671D01*
X1083Y2680D01*
X1036Y2671D01*
X997Y2645D01*
X972D01*
X932Y2671D01*
X886Y2680D01*
X839Y2671D01*
X800Y2645D01*
X775D01*
X735Y2671D01*
X689Y2680D01*
X643Y2671D01*
X627Y2661D01*
X591Y2649D01*
X554Y2661D01*
X539Y2671D01*
X492Y2680D01*
X446Y2671D01*
X406Y2645D01*
X381D01*
X342Y2671D01*
X295Y2680D01*
X249Y2671D01*
X209Y2645D01*
X184D01*
X145Y2671D01*
X98Y2680D01*
X52Y2671D01*
X13Y2645D01*
X-13D01*
X-52Y2671D01*
X-98Y2680D01*
X-145Y2671D01*
X-184Y2645D01*
X-209D01*
X-249Y2671D01*
X-295Y2680D01*
X-342Y2671D01*
X-350Y2665D01*
X-400Y2692D01*
Y2808D01*
X-248D01*
X-243Y2803D01*
X-213Y2783D01*
X-178Y2776D01*
X921D01*
X956Y2783D01*
X986Y2803D01*
X1148Y2965D01*
X1167Y2995D01*
X1174Y3030D01*
Y5065D01*
X1170Y5086D01*
X1216Y5111D01*
X1269Y5058D01*
Y4693D01*
X1276Y4658D01*
X1295Y4629D01*
X1413Y4511D01*
X1396Y4470D01*
X1396D01*
Y4144D01*
X1732D01*
Y4094D01*
X1782D01*
Y3719D01*
X2069D01*
Y3727D01*
X2105Y3759D01*
X2251D01*
Y3584D01*
X2125D01*
Y3109D01*
X2560D01*
Y3584D01*
X2434D01*
Y3759D01*
X2698D01*
Y4430D01*
X2146D01*
X2143Y4442D01*
X2123Y4472D01*
X2071Y4525D01*
X2041Y4545D01*
X2006Y4552D01*
X1643D01*
X1625Y4575D01*
X1648Y4625D01*
X2015D01*
X2028Y4625D01*
X2065Y4593D01*
Y4585D01*
X2352D01*
Y4961D01*
Y5336D01*
X2065D01*
Y5328D01*
X2028Y5296D01*
X2015Y5296D01*
X1883D01*
Y5472D01*
X2009D01*
Y5946D01*
X1574D01*
Y5899D01*
X986D01*
X984Y5901D01*
X945Y5908D01*
X669D01*
X625Y5951D01*
Y6062D01*
X618Y6097D01*
X598Y6126D01*
X577Y6147D01*
X1122Y6692D01*
X1418D01*
Y6797D01*
X1633D01*
Y6692D01*
X2107D01*
Y7127D01*
X1633D01*
Y7022D01*
X1418D01*
Y7127D01*
X944D01*
Y6831D01*
X530Y6417D01*
X468Y6426D01*
X465Y6430D01*
X432Y6452D01*
X394Y6460D01*
X355Y6452D01*
X349Y6448D01*
X299Y6474D01*
Y6653D01*
X591D01*
Y7127D01*
X456D01*
Y7430D01*
X769D01*
Y7646D01*
X809D01*
Y7765D01*
X512D01*
X215D01*
Y7646D01*
X255D01*
Y7592D01*
X252Y7579D01*
Y7127D01*
X157D01*
Y6816D01*
X129Y6789D01*
X115Y6785D01*
X82Y6785D01*
X68Y6789D01*
X40Y6816D01*
Y7127D01*
X-95D01*
Y7430D01*
X60D01*
Y7686D01*
Y8059D01*
X65Y8071D01*
Y8257D01*
X185Y8378D01*
X185Y8378D01*
X227Y8432D01*
X253Y8495D01*
X262Y8563D01*
X262Y8563D01*
Y9570D01*
X324Y9617D01*
X396Y9712D01*
X442Y9822D01*
X458Y9941D01*
X442Y10059D01*
X396Y10170D01*
X324Y10265D01*
X229Y10337D01*
X118Y10383D01*
X0Y10399D01*
D02*
G37*
G36*
X-2314Y6439D02*
X-2541D01*
Y6231D01*
X-2314D01*
Y6439D01*
D02*
G37*
G36*
X-1987D02*
X-2214D01*
Y6231D01*
X-1987D01*
Y6439D01*
D02*
G37*
G36*
X2293Y5986D02*
X2085D01*
Y5759D01*
X2293D01*
Y5986D01*
D02*
G37*
%LPD*%
G36*
X1330Y-2711D02*
X1342Y-2709D01*
X1394Y-2674D01*
X1406Y-2655D01*
X1430Y-2671D01*
X1476Y-2680D01*
X1523Y-2671D01*
X1562Y-2645D01*
X1589Y-2606D01*
X1598Y-2559D01*
Y-2521D01*
X1644Y-2502D01*
X1746Y-2604D01*
X1776Y-2624D01*
X1811Y-2631D01*
X2223D01*
Y-2757D01*
X2698D01*
Y-2343D01*
X2704Y-2337D01*
X2738D01*
X2773Y-2330D01*
X2803Y-2311D01*
X2826Y-2287D01*
X2872Y-2306D01*
Y-2450D01*
X3209D01*
Y-2500D01*
X3259D01*
Y-2876D01*
X3545D01*
Y-2867D01*
X3582Y-2836D01*
X3767D01*
Y-3306D01*
X3654D01*
X3439Y-3091D01*
X3410Y-3071D01*
X3374Y-3064D01*
X2010D01*
X1975Y-3071D01*
X1961Y-3081D01*
X1911Y-3060D01*
Y-2774D01*
X1704D01*
Y-3051D01*
X1654D01*
Y-3101D01*
X1396D01*
Y-3137D01*
X1349Y-3157D01*
X1320Y-3134D01*
Y-2814D01*
X1174D01*
Y-2732D01*
X1191Y-2723D01*
X1224Y-2710D01*
X1230Y-2711D01*
Y-2205D01*
X1330D01*
Y-2711D01*
D02*
G37*
G36*
X-394Y5855D02*
X394D01*
X441Y5814D01*
Y4972D01*
X254D01*
X219Y4965D01*
X190Y4945D01*
X132Y4888D01*
X112Y4858D01*
X110Y4846D01*
X103Y4841D01*
X59Y4826D01*
X56Y4826D01*
X39Y4838D01*
X0Y4845D01*
X-39Y4838D01*
X-72Y4816D01*
X-125D01*
X-158Y4838D01*
X-179Y4842D01*
X-275Y4938D01*
X-305Y4958D01*
X-340Y4965D01*
X-447D01*
X-482Y4958D01*
X-512Y4938D01*
X-725Y4726D01*
X-896D01*
X-931Y4719D01*
X-961Y4699D01*
X-1248Y4412D01*
X-1273Y4417D01*
X-1298Y4430D01*
Y4519D01*
X-1259D01*
X-1224Y4526D01*
X-1194Y4546D01*
X-957Y4783D01*
X-807D01*
X-772Y4790D01*
X-742Y4810D01*
X-722Y4839D01*
X-715Y4874D01*
Y4918D01*
X-669D01*
X-631Y4926D01*
X-598Y4948D01*
X-576Y4981D01*
X-568Y5020D01*
X-576Y5058D01*
X-598Y5091D01*
X-631Y5113D01*
X-669Y5121D01*
X-945D01*
X-984Y5113D01*
X-1017Y5091D01*
X-1038Y5058D01*
X-1046Y5020D01*
X-1038Y4981D01*
X-1028Y4965D01*
X-1030Y4959D01*
X-1060Y4939D01*
X-1288Y4711D01*
X-1338Y4725D01*
Y4966D01*
X-1173Y5130D01*
X-1165Y5142D01*
X-1154Y5150D01*
X-1012Y5291D01*
X-994D01*
X-947Y5300D01*
X-930Y5312D01*
X-669D01*
X-631Y5320D01*
X-598Y5342D01*
X-576Y5375D01*
X-572Y5395D01*
X-475Y5492D01*
X-455Y5522D01*
X-448Y5557D01*
Y5819D01*
X-398Y5855D01*
X-394Y5855D01*
D02*
G37*
G36*
X762Y-3925D02*
X802Y-3952D01*
X849Y-3961D01*
X1668D01*
X1748Y-4041D01*
Y-4133D01*
X1633D01*
Y-4259D01*
X1594D01*
X1559Y-4266D01*
X1530Y-4286D01*
X1504Y-4311D01*
X1458Y-4292D01*
Y-4093D01*
X1231D01*
Y-4350D01*
Y-4608D01*
X1267D01*
X1287Y-4655D01*
X1264Y-4684D01*
X944D01*
Y-4830D01*
X813D01*
X779Y-4780D01*
X782Y-4764D01*
X774Y-4723D01*
X752Y-4685D01*
X774Y-4647D01*
X782Y-4606D01*
X774Y-4565D01*
X751Y-4531D01*
Y-4523D01*
X774Y-4489D01*
X782Y-4448D01*
X774Y-4407D01*
X753Y-4368D01*
X774Y-4329D01*
X782Y-4288D01*
X774Y-4247D01*
X751Y-4212D01*
X716Y-4189D01*
X675Y-4180D01*
X525D01*
X484Y-4189D01*
X449Y-4212D01*
X426Y-4247D01*
X418Y-4288D01*
X426Y-4329D01*
X447Y-4368D01*
X426Y-4407D01*
X418Y-4448D01*
X426Y-4489D01*
X449Y-4523D01*
Y-4531D01*
X426Y-4565D01*
X418Y-4606D01*
X426Y-4647D01*
X448Y-4685D01*
X426Y-4723D01*
X418Y-4764D01*
X426Y-4805D01*
X448Y-4843D01*
X426Y-4880D01*
X418Y-4921D01*
X371Y-4942D01*
X359Y-4944D01*
X320Y-4965D01*
X281Y-4944D01*
X240Y-4936D01*
X199Y-4944D01*
X160Y-4965D01*
X121Y-4944D01*
X80Y-4936D01*
X39Y-4944D01*
X1Y-4965D01*
X-38Y-4944D01*
X-79Y-4936D01*
X-120Y-4944D01*
X-157Y-4966D01*
X-195Y-4944D01*
X-236Y-4936D01*
X-277Y-4944D01*
X-315Y-4966D01*
X-353Y-4944D01*
X-394Y-4936D01*
X-408Y-4921D01*
X-417Y-4880D01*
X-438Y-4843D01*
X-417Y-4805D01*
X-408Y-4764D01*
X-417Y-4723D01*
X-438Y-4685D01*
X-417Y-4647D01*
X-408Y-4606D01*
X-417Y-4565D01*
X-440Y-4531D01*
Y-4523D01*
X-417Y-4489D01*
X-408Y-4448D01*
X-417Y-4407D01*
X-438Y-4368D01*
X-417Y-4329D01*
X-408Y-4288D01*
X-417Y-4247D01*
X-438Y-4208D01*
X-417Y-4169D01*
X-414Y-4157D01*
X-394Y-4110D01*
X-353Y-4101D01*
X-315Y-4080D01*
X-277Y-4101D01*
X-236Y-4110D01*
X-195Y-4101D01*
X-157Y-4080D01*
X-120Y-4101D01*
X-79Y-4110D01*
X-38Y-4101D01*
X-3Y-4078D01*
X4D01*
X39Y-4101D01*
X80Y-4110D01*
X121Y-4101D01*
X156Y-4078D01*
X179Y-4044D01*
X187Y-4003D01*
Y-3853D01*
X179Y-3812D01*
X156Y-3777D01*
X121Y-3754D01*
X80Y-3746D01*
X63Y-3749D01*
X21Y-3727D01*
X11Y-3712D01*
X6Y-3688D01*
X-14Y-3658D01*
X-24Y-3647D01*
Y-3270D01*
X-31Y-3238D01*
X-29Y-3235D01*
X-22Y-3203D01*
X25Y-3188D01*
X762Y-3925D01*
D02*
G37*
G36*
X4967Y3719D02*
X3421Y2172D01*
X2538D01*
X2519Y2219D01*
X3774Y3473D01*
X3794Y3503D01*
X3801Y3538D01*
Y3798D01*
X3871D01*
X3872Y3794D01*
X3892Y3764D01*
X3982Y3673D01*
X4012Y3653D01*
X4047Y3647D01*
X4673D01*
X4708Y3653D01*
X4738Y3673D01*
X4862Y3798D01*
X4967D01*
Y3719D01*
D02*
G37*
G36*
X-1525Y4093D02*
X-1425D01*
X-1398Y4043D01*
X-1400Y4041D01*
X-1407Y4006D01*
Y3867D01*
X-1541Y3733D01*
X-1561Y3703D01*
X-1568Y3668D01*
Y2636D01*
X-1589Y2605D01*
X-1598Y2559D01*
Y1956D01*
X-1644Y1937D01*
X-1750Y2043D01*
Y4093D01*
X-1625D01*
Y4350D01*
X-1525D01*
Y4093D01*
D02*
G37*
G36*
X5215Y2457D02*
X3672Y914D01*
X3525D01*
Y1052D01*
X3248D01*
Y1102D01*
X3198D01*
Y1360D01*
X3177D01*
X3156Y1409D01*
X3177Y1436D01*
X3485D01*
Y1871D01*
X3011D01*
Y1629D01*
X2981Y1599D01*
X1794D01*
X1775Y1645D01*
X2119Y1989D01*
X3459D01*
X3494Y1996D01*
X3523Y2016D01*
X5124Y3616D01*
X5144Y3646D01*
X5151Y3681D01*
Y3798D01*
X5215D01*
Y2457D01*
D02*
G37*
G36*
X5171Y-1635D02*
X5155Y-1673D01*
X5146Y-1740D01*
X5155Y-1807D01*
X5181Y-1870D01*
X5222Y-1923D01*
X5274Y-1963D01*
X5278Y-1990D01*
Y-1991D01*
X5274Y-2018D01*
X5222Y-2057D01*
X5181Y-2111D01*
X5155Y-2173D01*
X5146Y-2240D01*
X5155Y-2307D01*
X5181Y-2370D01*
X5222Y-2423D01*
X5274Y-2463D01*
X5278Y-2490D01*
Y-2491D01*
X5274Y-2518D01*
X5222Y-2557D01*
X5181Y-2611D01*
X5155Y-2673D01*
X5146Y-2740D01*
X5155Y-2807D01*
X5181Y-2870D01*
X5222Y-2923D01*
X5274Y-2963D01*
X5278Y-2990D01*
Y-2991D01*
X5274Y-3018D01*
X5222Y-3057D01*
X5181Y-3111D01*
X5155Y-3173D01*
X5146Y-3240D01*
X5155Y-3307D01*
X5181Y-3370D01*
X5222Y-3423D01*
X5274Y-3463D01*
X5278Y-3490D01*
Y-3491D01*
X5274Y-3518D01*
X5222Y-3557D01*
X5181Y-3611D01*
X5155Y-3673D01*
X5146Y-3740D01*
X5155Y-3807D01*
X5181Y-3870D01*
X5193Y-3885D01*
X5168Y-3935D01*
X4054D01*
X3946Y-3827D01*
X3965Y-3780D01*
X4076D01*
Y-3306D01*
X3950D01*
Y-2836D01*
X4174D01*
Y-2338D01*
X4220Y-2319D01*
X4318Y-2416D01*
Y-3306D01*
X4192D01*
Y-3780D01*
X4627D01*
Y-3306D01*
X4501D01*
Y-2378D01*
X4494Y-2343D01*
X4474Y-2313D01*
X4201Y-2040D01*
X4214Y-2009D01*
X4214D01*
Y-1684D01*
X3878D01*
Y-1634D01*
X3828D01*
Y-1258D01*
X3542D01*
Y-1267D01*
X3505Y-1298D01*
X3300D01*
Y-1123D01*
X3485D01*
Y-710D01*
X3561D01*
Y-836D01*
X3819D01*
X4076D01*
Y-710D01*
X4246D01*
X5171Y-1635D01*
D02*
G37*
G36*
X-4366Y6486D02*
X-4330Y6400D01*
X-4273Y6325D01*
X-4199Y6268D01*
X-4112Y6233D01*
X-4034Y6222D01*
X-3375Y5563D01*
Y4149D01*
X-3368Y4114D01*
X-3348Y4085D01*
X-2893Y3630D01*
X-2913Y3584D01*
X-3249D01*
Y3510D01*
X-3542D01*
Y3584D01*
X-3976D01*
X-3979Y3596D01*
X-3999Y3626D01*
X-4088Y3715D01*
X-4118Y3735D01*
X-4153Y3742D01*
X-4967D01*
X-4971Y3748D01*
X-4945Y3798D01*
X-4920D01*
Y4174D01*
X-4874Y4193D01*
X-4804Y4123D01*
Y3798D01*
X-4369D01*
Y4273D01*
X-4694D01*
X-4799Y4377D01*
Y4487D01*
X-4369D01*
Y4962D01*
X-4436D01*
X-4457Y5012D01*
X-4200Y5269D01*
X-4199Y5268D01*
X-4112Y5233D01*
X-4020Y5220D01*
X-3927Y5233D01*
X-3841Y5268D01*
X-3766Y5325D01*
X-3709Y5400D01*
X-3674Y5486D01*
X-3661Y5579D01*
X-3674Y5671D01*
X-3709Y5758D01*
X-3766Y5832D01*
X-3841Y5889D01*
X-3927Y5925D01*
X-4020Y5937D01*
X-4112Y5925D01*
X-4199Y5889D01*
X-4273Y5832D01*
X-4330Y5758D01*
X-4366Y5671D01*
X-4378Y5579D01*
X-4366Y5486D01*
X-4330Y5400D01*
X-4329Y5399D01*
X-4652Y5077D01*
X-4671Y5047D01*
X-4678Y5012D01*
Y4962D01*
X-4799D01*
Y5301D01*
X-4766Y5325D01*
X-4709Y5400D01*
X-4674Y5486D01*
X-4661Y5579D01*
X-4674Y5671D01*
X-4709Y5758D01*
X-4766Y5832D01*
X-4841Y5889D01*
X-4927Y5925D01*
X-5020Y5937D01*
X-5112Y5925D01*
X-5199Y5889D01*
X-5262Y5841D01*
X-5312Y5857D01*
Y6300D01*
X-5262Y6317D01*
X-5199Y6268D01*
X-5112Y6233D01*
X-5020Y6220D01*
X-4927Y6233D01*
X-4841Y6268D01*
X-4766Y6325D01*
X-4709Y6400D01*
X-4674Y6486D01*
X-4673Y6487D01*
X-4366D01*
X-4366Y6486D01*
D02*
G37*
G36*
X1101Y-667D02*
X1085Y-722D01*
X1052Y-728D01*
X976Y-779D01*
X925Y-855D01*
X911Y-928D01*
X325D01*
X290Y-935D01*
X260Y-955D01*
X-517Y-1731D01*
X-526Y-1730D01*
X-567Y-1701D01*
Y-886D01*
Y-516D01*
X950D01*
X1101Y-667D01*
D02*
G37*
G36*
X-2759Y-1083D02*
X-2752Y-1118D01*
X-2732Y-1148D01*
X-2702Y-1167D01*
X-2692Y-1192D01*
X-2709Y-1217D01*
X-2711Y-1230D01*
X-2205D01*
X-1698D01*
X-1701Y-1217D01*
X-1736Y-1165D01*
X-1754Y-1153D01*
X-1738Y-1129D01*
X-1729Y-1083D01*
X-1734Y-1058D01*
X-1701Y-1008D01*
X-811D01*
Y-1701D01*
X-861Y-1734D01*
X-886Y-1729D01*
X-932Y-1738D01*
X-972Y-1765D01*
X-997D01*
X-1036Y-1738D01*
X-1083Y-1729D01*
X-1129Y-1738D01*
X-1169Y-1765D01*
X-1194D01*
X-1233Y-1738D01*
X-1280Y-1729D01*
X-1326Y-1738D01*
X-1365Y-1765D01*
X-1391D01*
X-1430Y-1738D01*
X-1476Y-1729D01*
X-1523Y-1738D01*
X-1562Y-1765D01*
X-1589Y-1804D01*
X-1598Y-1850D01*
Y-2559D01*
X-1589Y-2606D01*
X-1562Y-2645D01*
X-1523Y-2671D01*
X-1476Y-2680D01*
X-1430Y-2671D01*
X-1391Y-2645D01*
X-1365D01*
X-1326Y-2671D01*
X-1280Y-2680D01*
X-1233Y-2671D01*
X-1194Y-2645D01*
X-1169D01*
X-1129Y-2671D01*
X-1083Y-2680D01*
X-1036Y-2671D01*
X-997Y-2645D01*
X-972D01*
X-932Y-2671D01*
X-886Y-2680D01*
X-861Y-2676D01*
X-811Y-2708D01*
Y-2814D01*
X-1221D01*
Y-3214D01*
X-1234Y-3226D01*
X-1298D01*
Y-3101D01*
X-1555D01*
X-1813D01*
Y-3226D01*
X-2597D01*
X-3177Y-2646D01*
X-3158Y-2600D01*
X-2872D01*
Y-2393D01*
X-3150D01*
Y-2343D01*
X-3200D01*
Y-2067D01*
X-3212Y-2038D01*
X-3189Y-2009D01*
X-2912D01*
Y-1574D01*
X-3027D01*
Y-1378D01*
X-3037Y-1331D01*
X-3063Y-1291D01*
X-3296Y-1058D01*
X-3283Y-1008D01*
X-2759D01*
Y-1083D01*
D02*
G37*
G36*
X-3249Y3109D02*
X-3123D01*
Y3045D01*
X-3116Y3010D01*
X-3096Y2980D01*
X-2637Y2521D01*
Y1817D01*
X-2630Y1782D01*
X-2610Y1752D01*
X-2502Y1644D01*
X-2521Y1598D01*
X-2559D01*
X-2606Y1589D01*
X-2645Y1562D01*
X-2671Y1523D01*
X-2680Y1476D01*
X-2680Y1475D01*
X-2726Y1451D01*
X-3252Y1976D01*
Y2528D01*
X-3261Y2574D01*
X-3287Y2614D01*
X-3427Y2754D01*
X-3467Y2780D01*
X-3514Y2790D01*
X-3542D01*
Y2904D01*
X-3867D01*
X-3972Y3009D01*
Y3109D01*
X-3542D01*
Y3183D01*
X-3249D01*
Y3109D01*
D02*
G37*
G36*
X452Y3926D02*
Y3601D01*
X864D01*
Y3525D01*
X739D01*
Y3268D01*
X689D01*
Y3218D01*
X412D01*
Y3080D01*
X277D01*
Y3218D01*
X-0D01*
Y3268D01*
X-50D01*
Y3525D01*
X-277D01*
Y3513D01*
X-323Y3494D01*
X-410Y3580D01*
X-439Y3600D01*
X-452Y3602D01*
Y3727D01*
X-237D01*
Y3601D01*
X237D01*
Y3926D01*
X262Y3951D01*
X282Y3981D01*
X289Y4016D01*
Y4021D01*
X300Y4029D01*
X339Y4040D01*
X452Y3926D01*
D02*
G37*
%LPC*%
G36*
X1131Y-4093D02*
X904D01*
Y-4300D01*
X1131D01*
Y-4093D01*
D02*
G37*
G36*
Y-4400D02*
X904D01*
Y-4608D01*
X1131D01*
Y-4400D01*
D02*
G37*
G36*
X400Y-3746D02*
X359Y-3754D01*
X324Y-3777D01*
X301Y-3812D01*
X293Y-3853D01*
Y-4003D01*
X301Y-4044D01*
X324Y-4078D01*
X359Y-4101D01*
X400Y-4110D01*
X441Y-4101D01*
X476Y-4078D01*
X499Y-4044D01*
X507Y-4003D01*
Y-3853D01*
X499Y-3812D01*
X476Y-3777D01*
X441Y-3754D01*
X400Y-3746D01*
D02*
G37*
G36*
X4076Y-936D02*
X3869D01*
Y-1163D01*
X4076D01*
Y-936D01*
D02*
G37*
G36*
X3525Y1360D02*
X3298D01*
Y1152D01*
X3525D01*
Y1360D01*
D02*
G37*
G36*
X-1698Y-1330D02*
X-2205D01*
X-2711D01*
X-2709Y-1342D01*
X-2685Y-1378D01*
X-2709Y-1414D01*
X-2711Y-1426D01*
X-2205D01*
X-1698D01*
X-1701Y-1414D01*
X-1725Y-1378D01*
X-1701Y-1342D01*
X-1698Y-1330D01*
D02*
G37*
G36*
X3769Y-936D02*
X3561D01*
Y-1163D01*
X3769D01*
Y-936D01*
D02*
G37*
G36*
X-3818Y4273D02*
Y4273D01*
X-4253D01*
Y3798D01*
X-3818D01*
Y3798D01*
X-3800Y3813D01*
X-3740Y3801D01*
X-3650Y3819D01*
X-3574Y3870D01*
X-3523Y3946D01*
X-3506Y4035D01*
X-3523Y4125D01*
X-3574Y4201D01*
X-3650Y4252D01*
X-3740Y4270D01*
X-3800Y4258D01*
X-3818Y4273D01*
D02*
G37*
G36*
Y4962D02*
Y4962D01*
X-4253D01*
Y4487D01*
X-3818D01*
Y4487D01*
X-3800Y4502D01*
X-3740Y4490D01*
X-3650Y4508D01*
X-3574Y4559D01*
X-3523Y4635D01*
X-3506Y4724D01*
X-3523Y4814D01*
X-3574Y4890D01*
X-3650Y4941D01*
X-3740Y4959D01*
X-3800Y4947D01*
X-3818Y4962D01*
D02*
G37*
G36*
X639Y3525D02*
X412D01*
Y3318D01*
X639D01*
Y3525D01*
D02*
G37*
G36*
X277D02*
X50D01*
Y3318D01*
X277D01*
Y3525D01*
D02*
G37*
G36*
X1604Y-2774D02*
X1396D01*
Y-3001D01*
X1604D01*
Y-2774D01*
D02*
G37*
G36*
X3159Y-2550D02*
X2872D01*
Y-2876D01*
X3159D01*
Y-2550D01*
D02*
G37*
G36*
X-1605Y-2774D02*
X-1813D01*
Y-3001D01*
X-1605D01*
Y-2774D01*
D02*
G37*
G36*
X-1298D02*
X-1505D01*
Y-3001D01*
X-1298D01*
Y-2774D01*
D02*
G37*
G36*
X-1698Y-1526D02*
X-2155D01*
Y-1639D01*
X-1850D01*
X-1788Y-1626D01*
X-1736Y-1591D01*
X-1701Y-1538D01*
X-1698Y-1526D01*
D02*
G37*
G36*
X4214Y-1258D02*
X3928D01*
Y-1584D01*
X4214D01*
Y-1258D01*
D02*
G37*
G36*
X-2872Y-2085D02*
X-3100D01*
Y-2293D01*
X-2872D01*
Y-2085D01*
D02*
G37*
G36*
X-2255Y-1526D02*
X-2711D01*
X-2709Y-1538D01*
X-2674Y-1591D01*
X-2621Y-1626D01*
X-2559Y-1639D01*
X-2255D01*
Y-1526D01*
D02*
G37*
%LPD*%
D10*
X-3346Y10433D02*
D03*
D11*
X-5984Y-3415D02*
D03*
X-5236D02*
D03*
X-5610Y-2490D02*
D03*
D12*
X-3967Y-2441D02*
D03*
Y-1693D02*
D03*
X-4892Y-2067D02*
D03*
D13*
X-1181Y-4705D02*
D03*
Y-4154D02*
D03*
X2461Y-2539D02*
D03*
Y-1988D02*
D03*
X1870Y-4902D02*
D03*
Y-4350D02*
D03*
X1181Y-4350D02*
D03*
Y-4902D02*
D03*
X-3150Y-1791D02*
D03*
Y-2343D02*
D03*
X-5315Y-1063D02*
D03*
Y-512D02*
D03*
X-6004Y-1063D02*
D03*
Y-512D02*
D03*
X3248Y1654D02*
D03*
Y1102D02*
D03*
X-1575Y6181D02*
D03*
Y5630D02*
D03*
X-1575Y4350D02*
D03*
Y4902D02*
D03*
X689Y3268D02*
D03*
Y3819D02*
D03*
X0Y3268D02*
D03*
Y3819D02*
D03*
X1870Y7461D02*
D03*
Y6909D02*
D03*
X1181Y7461D02*
D03*
Y6909D02*
D03*
X-1575Y7461D02*
D03*
Y6909D02*
D03*
X-2264Y7461D02*
D03*
Y6909D02*
D03*
X-886D02*
D03*
Y7461D02*
D03*
X-689Y3819D02*
D03*
Y3268D02*
D03*
X-2264Y4350D02*
D03*
Y4902D02*
D03*
X-2264Y5630D02*
D03*
Y6181D02*
D03*
D14*
X276Y-5807D02*
D03*
X-276D02*
D03*
X-4311Y-98D02*
D03*
X-3760D02*
D03*
X1004Y-5807D02*
D03*
X1555D02*
D03*
X1102Y-3051D02*
D03*
X1654D02*
D03*
X3130Y-3543D02*
D03*
X2579D02*
D03*
X3130Y-4331D02*
D03*
X2579D02*
D03*
X4409D02*
D03*
X3858D02*
D03*
X4409Y-3543D02*
D03*
X3858D02*
D03*
X-1004Y-3051D02*
D03*
X-1555D02*
D03*
X-3760Y3346D02*
D03*
X-4311D02*
D03*
X-3760Y2667D02*
D03*
X-4311D02*
D03*
X-3760Y1978D02*
D03*
X-4311D02*
D03*
X-3760Y1270D02*
D03*
X-4311D02*
D03*
X-3760Y591D02*
D03*
X-4311D02*
D03*
X-3622Y-4528D02*
D03*
X-3071D02*
D03*
X2343Y5709D02*
D03*
X1791D02*
D03*
X1791Y3346D02*
D03*
X2343D02*
D03*
X3268Y-886D02*
D03*
X3819D02*
D03*
X-3031Y3346D02*
D03*
X-2480D02*
D03*
X374Y6890D02*
D03*
X-177D02*
D03*
X-5138Y4035D02*
D03*
X-4587Y4035D02*
D03*
X-4035D02*
D03*
X-5138Y4724D02*
D03*
X-4587Y4724D02*
D03*
X-4035D02*
D03*
X5059Y4035D02*
D03*
X4508Y4035D02*
D03*
X3957D02*
D03*
X5059Y4724D02*
D03*
X4508Y4724D02*
D03*
X3957D02*
D03*
D15*
X-3642Y-3346D02*
D03*
X-4429D02*
D03*
X-4429Y-886D02*
D03*
X-3642D02*
D03*
D16*
X3878Y-2500D02*
D03*
Y-1634D02*
D03*
X3209D02*
D03*
Y-2500D02*
D03*
X1732Y4094D02*
D03*
Y4961D02*
D03*
X2402D02*
D03*
Y4094D02*
D03*
D17*
X-197Y8071D02*
D03*
Y7815D02*
D03*
Y7559D02*
D03*
X512D02*
D03*
Y7815D02*
D03*
Y8071D02*
D03*
D18*
X-394Y4606D02*
D03*
X-197D02*
D03*
X0D02*
D03*
X197D02*
D03*
X394D02*
D03*
Y6220D02*
D03*
X197D02*
D03*
X0D02*
D03*
X-197D02*
D03*
X-394D02*
D03*
D19*
X807Y5020D02*
D03*
Y5217D02*
D03*
Y5413D02*
D03*
Y5610D02*
D03*
Y5807D02*
D03*
X-807D02*
D03*
Y5610D02*
D03*
Y5413D02*
D03*
Y5217D02*
D03*
Y5020D02*
D03*
D20*
X0Y5413D02*
D03*
D21*
X-2205Y492D02*
D03*
Y689D02*
D03*
X2205Y1476D02*
D03*
Y1280D02*
D03*
Y1083D02*
D03*
Y886D02*
D03*
Y689D02*
D03*
Y492D02*
D03*
Y295D02*
D03*
Y98D02*
D03*
Y-98D02*
D03*
Y-295D02*
D03*
Y-492D02*
D03*
Y-689D02*
D03*
Y-886D02*
D03*
Y-1083D02*
D03*
Y-1280D02*
D03*
Y-1476D02*
D03*
X-2205D02*
D03*
Y-1280D02*
D03*
Y-1083D02*
D03*
Y-886D02*
D03*
Y-689D02*
D03*
Y-492D02*
D03*
Y-295D02*
D03*
Y-98D02*
D03*
Y98D02*
D03*
Y295D02*
D03*
Y886D02*
D03*
Y1083D02*
D03*
Y1280D02*
D03*
Y1476D02*
D03*
D22*
X-1476Y2205D02*
D03*
X-1280D02*
D03*
X-1083D02*
D03*
X-886D02*
D03*
X-689D02*
D03*
X-492D02*
D03*
X-295D02*
D03*
X-98D02*
D03*
X98D02*
D03*
X295D02*
D03*
X492D02*
D03*
X689D02*
D03*
X886D02*
D03*
X1083D02*
D03*
X1280D02*
D03*
X1476D02*
D03*
Y-2205D02*
D03*
X1280D02*
D03*
X1083D02*
D03*
X886D02*
D03*
X689D02*
D03*
X492D02*
D03*
X295D02*
D03*
X98D02*
D03*
X-98D02*
D03*
X-295D02*
D03*
X-492D02*
D03*
X-689D02*
D03*
X-886D02*
D03*
X-1083D02*
D03*
X-1280D02*
D03*
X-1476D02*
D03*
D23*
X2835Y-5728D02*
D03*
Y-5098D02*
D03*
X3937D02*
D03*
Y-5728D02*
D03*
D24*
X-394Y-3928D02*
D03*
X-236D02*
D03*
X-79D02*
D03*
X80D02*
D03*
X240D02*
D03*
X400D02*
D03*
Y-5118D02*
D03*
X240D02*
D03*
X80D02*
D03*
X-79D02*
D03*
X-236D02*
D03*
X-394D02*
D03*
D25*
X600Y-4128D02*
D03*
Y-4288D02*
D03*
Y-4448D02*
D03*
Y-4606D02*
D03*
Y-4764D02*
D03*
Y-4921D02*
D03*
X-591D02*
D03*
Y-4764D02*
D03*
Y-4606D02*
D03*
Y-4448D02*
D03*
Y-4288D02*
D03*
Y-4128D02*
D03*
D26*
X-6004Y-2736D02*
X-5325Y-3415D01*
X-5236D01*
X-5015Y3346D02*
X-4311D01*
X-5475Y3806D02*
X-5015Y3346D01*
X-5475Y3806D02*
Y6767D01*
X-2264Y4902D02*
X-1575D01*
X-5475Y6767D02*
X-5208Y7034D01*
X-3831D01*
X-3051Y6254D01*
Y4626D02*
Y6254D01*
Y4626D02*
X-2776Y4350D01*
X-2264D01*
X-2264Y5630D02*
X-2264Y5630D01*
Y4902D02*
Y5630D01*
X-5720Y266D02*
X-5315Y-140D01*
Y-512D02*
Y-140D01*
X-3642Y-1368D02*
Y-886D01*
X-3967Y-1693D02*
X-3642Y-1368D01*
X-6004Y-512D02*
Y-473D01*
X-6004Y-472D02*
X-6004Y-473D01*
X-6004Y-512D02*
Y-472D01*
X-3967Y-3022D02*
X-3642Y-3346D01*
X-3967Y-3022D02*
Y-2441D01*
X-5315Y-512D02*
X-4803D01*
X-4429Y-886D01*
X-3760Y3346D02*
X-3031D01*
X-3760Y3346D02*
X-3760Y3346D01*
D27*
X-6004Y-2736D02*
Y-1063D01*
X-5984Y-3396D02*
X-4852Y-4528D01*
X-3622D01*
X-5335Y-2510D02*
X-4892Y-2067D01*
X-5610Y-2510D02*
X-5335D01*
X-5315Y-1063D02*
X-5315Y-1063D01*
X-6004Y-1063D02*
X-5315D01*
X-3673Y-4579D02*
X-3622Y-4528D01*
X-3673Y-5610D02*
Y-4579D01*
X-4892Y-2785D02*
X-4429Y-3248D01*
X-4892Y-2785D02*
Y-2067D01*
D28*
X-5138Y3738D02*
Y4035D01*
Y3738D02*
X-5050Y3650D01*
X-4153D01*
X-4064Y3561D01*
Y2971D02*
Y3561D01*
Y2971D02*
X-3760Y2667D01*
X4016Y-4027D02*
X4106Y-4116D01*
X3800Y-3810D02*
X4016Y-4027D01*
X5906D01*
Y-3740D01*
X3858Y-4331D02*
Y-4078D01*
X3711Y-3930D02*
X3858Y-4078D01*
X3614Y-3930D02*
X3711D01*
X1791Y5020D02*
Y5709D01*
X1772D02*
X1791D01*
X1772D02*
X1772Y5709D01*
X1673Y5807D02*
X1772Y5709D01*
X807Y5807D02*
X1673D01*
X-4035Y4035D02*
X-3740D01*
X-4035Y4035D02*
X-4035Y4035D01*
X-4035Y4724D02*
X-3740D01*
X3543Y6134D02*
X4020Y6610D01*
X3543Y3740D02*
Y6134D01*
X2264Y2461D02*
X3543Y3740D01*
X3709Y4250D02*
X3957Y4497D01*
X3709Y3538D02*
Y4250D01*
X3957Y4497D02*
Y4724D01*
X2371Y2201D02*
X3709Y3538D01*
X4020Y6610D02*
X5020D01*
X-1575Y4902D02*
Y5217D01*
X-1260D02*
X-1240Y5236D01*
X-1220Y5217D01*
X-689Y3819D02*
Y4134D01*
X0Y4370D02*
Y4606D01*
X-31Y4339D02*
X0Y4370D01*
X-527Y4339D02*
X-31D01*
X-949Y4021D02*
Y4242D01*
X-581Y4394D02*
X-527Y4339D01*
X-1075Y3895D02*
X-949Y4021D01*
X-846Y4514D02*
X-486D01*
X-394Y4606D01*
X-1349Y4350D02*
X-946Y4754D01*
X-1575Y4350D02*
X-1349D01*
X-1259Y4610D02*
X-995Y4874D01*
X-807D01*
X-1777Y4610D02*
X-1259D01*
X-752Y4754D02*
X-540Y4966D01*
X-946Y4754D02*
X-752D01*
X-687Y4634D02*
X-447Y4873D01*
X-896Y4634D02*
X-687D01*
X-1189Y4341D02*
X-896Y4634D01*
X-1189Y4132D02*
Y4341D01*
X-1315Y4006D02*
X-1189Y4132D01*
X-1069Y4291D02*
X-846Y4514D01*
X-1069Y4071D02*
Y4291D01*
X-1195Y3945D02*
X-1069Y4071D01*
X-797Y4394D02*
X-581D01*
X-949Y4242D02*
X-797Y4394D01*
X-807Y4874D02*
Y5020D01*
X-1075Y3730D02*
Y3895D01*
X-1076Y3729D02*
X-1075Y3730D01*
X-1195Y3780D02*
Y3945D01*
X-1196Y3778D02*
X-1195Y3780D01*
X-1315Y3829D02*
Y4006D01*
X-1476Y3668D02*
X-1315Y3829D01*
X-994Y5413D02*
X-807D01*
X-540Y4966D02*
Y4972D01*
X-447Y4873D02*
X-340D01*
X-540Y4972D02*
X-295Y5217D01*
X-1201Y5807D02*
X-807D01*
X-1575Y6181D02*
X-1201Y5807D01*
X-1842Y4545D02*
X-1777Y4610D01*
X-1076Y2971D02*
Y3729D01*
X-1196Y2921D02*
Y3778D01*
Y2921D02*
X-1083Y2807D01*
X-1076Y2971D02*
X-886Y2780D01*
X-1476Y2205D02*
Y3668D01*
X-4091Y6409D02*
X-3283Y5601D01*
X-4311Y2530D02*
Y2530D01*
X-4091Y6409D02*
X-3921Y6579D01*
X956Y3073D02*
Y4871D01*
X1083Y3030D02*
Y5065D01*
X-1555Y5610D02*
X-807D01*
X197Y4016D02*
Y4606D01*
X0Y3819D02*
X197Y4016D01*
X-5020Y6579D02*
X-4020D01*
X-3921D01*
X-683Y5413D02*
X-540Y5557D01*
X-807Y5413D02*
X-683D01*
X-4587Y5012D02*
X-4020Y5579D01*
X-4587Y4724D02*
Y5012D01*
X-4890Y4339D02*
Y5449D01*
Y4339D02*
X-4587Y4035D01*
X-5138Y4035D02*
Y4724D01*
X-1083Y2205D02*
Y2807D01*
X-956Y3073D02*
Y3462D01*
X-886Y2205D02*
Y2780D01*
X1083Y1634D02*
Y2205D01*
X-5020Y5579D02*
X-4890Y5449D01*
X5405Y5278D02*
Y5943D01*
X4020Y5610D02*
X4405Y5996D01*
X5352D01*
X5405Y5943D01*
X5239Y5112D02*
X5405Y5278D01*
X4619Y5112D02*
X5239D01*
X3957Y3829D02*
Y4035D01*
Y3829D02*
X4047Y3738D01*
X4673D01*
X4812Y3877D02*
Y4939D01*
X4673Y3738D02*
X4812Y3877D01*
Y4939D02*
X4864Y4992D01*
X4508Y5000D02*
X4619Y5112D01*
X4508Y4724D02*
Y5000D01*
X4864Y4992D02*
X5254D01*
X4260Y4283D02*
Y4939D01*
Y4283D02*
X4508Y4035D01*
X5059Y4035D02*
Y4724D01*
X5254Y4992D02*
X5307Y4939D01*
X4260Y4939D02*
X4735Y5413D01*
X5020D01*
X931Y5217D02*
X1083Y5065D01*
X807Y5217D02*
X931D01*
X533Y4933D02*
Y5761D01*
X480Y4880D02*
X533Y4933D01*
X254Y4880D02*
X480D01*
X197Y4823D02*
X254Y4880D01*
X197Y4606D02*
Y4823D01*
X-1575Y5630D02*
X-1555Y5610D01*
X400Y-5149D02*
X1839D01*
X2331D01*
X3130Y-4803D02*
Y-4331D01*
X2835Y-5098D02*
X3130Y-4803D01*
X4409Y-5256D02*
Y-4331D01*
X3878Y-1634D02*
X3917Y-1673D01*
X4429D01*
Y-1496D01*
X3209Y-2500D02*
X3248Y-2539D01*
Y-2894D02*
Y-2539D01*
X4284Y-619D02*
X5406Y-1740D01*
X1594Y-4350D02*
X1870D01*
X1516Y-4429D02*
X1594Y-4350D01*
X1516Y-4567D02*
Y-4429D01*
X590Y-4138D02*
X600Y-4128D01*
X267Y-4138D02*
X590D01*
X240Y-4111D02*
X267Y-4138D01*
X240Y-4111D02*
Y-3928D01*
X-236Y-5256D02*
Y-5118D01*
X-308Y-5328D02*
X-236Y-5256D01*
X886Y2205D02*
X886Y2205D01*
X-1181Y-4154D02*
Y-3740D01*
X3937Y-5728D02*
X4409Y-5256D01*
X5406Y-3828D02*
Y-3740D01*
X533Y5761D02*
Y6062D01*
Y5761D02*
X683Y5610D01*
X807D01*
X1870Y-5118D02*
Y-4902D01*
X1839Y-5149D02*
X1870Y-5118D01*
X80Y-5513D02*
Y-5118D01*
Y-5513D02*
X276Y-5709D01*
X1004Y-5709D02*
Y-5512D01*
X846Y-5354D02*
X1004Y-5512D01*
X293Y-5354D02*
X846D01*
X240Y-5301D02*
X293Y-5354D01*
X240Y-5301D02*
Y-5118D01*
X400Y-5149D02*
Y-5118D01*
X1181Y-4902D02*
X1516Y-4567D01*
X1161Y-4921D02*
X1181Y-4902D01*
X600Y-4921D02*
X1161D01*
X807Y5020D02*
X956Y4871D01*
X1732Y4961D02*
X1791Y5020D01*
X2343Y4035D02*
X2402Y4094D01*
X394Y4114D02*
X689Y3819D01*
X394Y4114D02*
Y4606D01*
X-197D02*
Y4730D01*
X-4331Y1959D02*
X-4311Y1978D01*
X-3150Y-2343D02*
X-2579D01*
X-2559Y-2362D01*
X-2756Y-1949D02*
Y-1476D01*
X-2756Y-1476D01*
X-2756Y-1476D02*
Y-1280D01*
X-2667Y-1083D02*
Y-896D01*
X-2657Y-886D01*
X-5413Y1280D02*
Y1417D01*
X-6092Y1388D02*
X-5807Y1673D01*
X-4054Y372D02*
Y809D01*
X-4209Y965D02*
X-4054Y809D01*
X-4311Y965D02*
X-4209D01*
X-4311D02*
Y1270D01*
X486Y-2210D02*
X492Y-2205D01*
X1811Y-2539D02*
X2461D01*
X1476Y-2205D02*
X1811Y-2539D01*
X3209Y-945D02*
X3268Y-886D01*
X3209Y-1634D02*
Y-945D01*
X3051Y-1476D02*
X3209Y-1634D01*
X3642Y-2067D01*
X3502Y-2124D02*
X3878Y-2500D01*
X2859Y-2124D02*
X3502D01*
X2461Y-2539D02*
Y-2451D01*
X2666Y-2246D01*
X2738D01*
X2859Y-2124D01*
X3858Y-2520D02*
X3878Y-2500D01*
X-2667Y-1083D02*
X-2205D01*
X-2657Y-886D02*
X-2205D01*
X-3169Y-2244D02*
X-3150Y-2264D01*
X-2756Y-1280D02*
X-2205D01*
X-2756Y-1476D02*
X-2205D01*
X807Y5413D02*
X1043D01*
X1360Y5096D01*
X98Y-2205D02*
Y-1724D01*
X-2685Y1280D02*
X-2205D01*
X-2879Y886D02*
X-2205D01*
X2205Y-1280D02*
X2815D01*
X2913Y-1181D01*
Y-778D01*
X3073Y-619D01*
X4284D01*
X2205Y-1476D02*
X3051D01*
X-782Y-5328D02*
X-308D01*
X-1083Y-5413D02*
X-1048Y-5448D01*
X-226D01*
X-79Y-5301D01*
Y-5118D01*
X-139Y5946D02*
X394D01*
X-197Y6004D02*
X-139Y5946D01*
X-197Y6004D02*
Y6220D01*
X394Y5946D02*
Y6201D01*
Y6220D01*
Y6201D02*
X533Y6062D01*
X543Y-1280D02*
X886D01*
X98Y-1724D02*
X543Y-1280D01*
X-1181Y-3740D02*
X-1181Y-3740D01*
X-1181Y-4929D02*
Y-4705D01*
Y-4929D02*
X-782Y-5328D01*
X-849Y-3507D02*
Y-3507D01*
X-411Y-3945D02*
X-394Y-3928D01*
X240D02*
Y-3674D01*
X-236Y-3928D02*
Y-3701D01*
X-849Y-3507D02*
X-411Y-3945D01*
X-236Y-3150D02*
X-116Y-3270D01*
X-394Y-3543D02*
X-236Y-3701D01*
X144Y-3578D02*
X240Y-3674D01*
X855Y-2236D02*
X886Y-2205D01*
X2412Y-4331D02*
X2579D01*
X1280Y-2766D02*
Y-2205D01*
X1555Y-3051D02*
Y-3042D01*
X1280Y-2766D02*
X1555Y-3042D01*
X-79Y-3928D02*
Y-3723D01*
X-116Y-3685D02*
X-79Y-3723D01*
X-116Y-3685D02*
Y-3270D01*
X486Y-3237D02*
Y-2210D01*
X689Y-3269D02*
Y-2205D01*
X855Y-3266D02*
Y-2236D01*
X600Y-4128D02*
X1155D01*
X1181Y-4154D01*
X2020Y-3939D02*
X2412Y-4331D01*
X486Y-3237D02*
X928Y-3678D01*
X689Y-3269D02*
X978Y-3558D01*
X855Y-3266D02*
X1028Y-3438D01*
X3642Y-2067D02*
X4098D01*
X4409Y-2378D01*
Y-3543D02*
Y-2378D01*
X3858Y-3543D02*
Y-2520D01*
X2774Y-3810D02*
X2882Y-3702D01*
Y-3329D01*
X2935Y-3276D01*
X3325D01*
X3491Y-3442D01*
Y-3807D02*
Y-3442D01*
X2835Y-5728D02*
X3377Y-5186D01*
Y-3916D01*
X3130Y-3669D02*
Y-3543D01*
Y-3669D02*
X3377Y-3916D01*
X3491Y-3807D02*
X3614Y-3930D01*
X1102Y-3051D02*
X1370Y-3318D01*
X1848D01*
X2010Y-3156D01*
X3374D01*
X3611Y-3393D01*
Y-3758D02*
Y-3393D01*
Y-3758D02*
X3664Y-3810D01*
X3800D01*
X4106Y-4930D02*
Y-4116D01*
X3937Y-5098D02*
X4106Y-4930D01*
X1083Y-3169D02*
Y-2205D01*
X978Y-3558D02*
X1820D01*
X928Y-3678D02*
X1771D01*
X2020Y-3939D02*
Y-3928D01*
X1771Y-3678D02*
X2020Y-3928D01*
X1820Y-3558D02*
X2072Y-3810D01*
X2774D01*
X1975Y-3543D02*
X2579D01*
X1870Y-3438D02*
X1975Y-3543D01*
X1028Y-3438D02*
X1870D01*
X-5413Y1280D02*
X-4724Y591D01*
X-4311D01*
X-6092Y1043D02*
Y1388D01*
Y1043D02*
X-5925Y876D01*
X-5266D01*
X-4703Y313D01*
X-4112D01*
X-4054Y372D01*
X-5315Y-1063D02*
X-5097Y-1281D01*
X-4112D01*
X-4017Y-1186D01*
Y-392D01*
X-4311Y-98D02*
X-4017Y-392D01*
X-689Y3819D02*
X-0D01*
X0Y3819D01*
X-475Y3515D02*
X-295Y3336D01*
X-903Y3515D02*
X-475D01*
X-956Y3462D02*
X-903Y3515D01*
X934Y939D02*
Y1104D01*
X886Y1805D02*
Y2205D01*
X2342Y4094D02*
X2402D01*
X1360Y4693D02*
Y5096D01*
Y4693D02*
X1594Y4460D01*
X2343Y3346D02*
Y4035D01*
X1594Y4460D02*
X2006D01*
X2059Y4407D01*
Y4378D02*
Y4407D01*
Y4378D02*
X2342Y4094D01*
X1476Y2205D02*
X1480Y2201D01*
X2371D01*
X492Y1836D02*
Y2205D01*
X689Y1810D02*
Y2205D01*
X827Y1378D02*
X1083Y1634D01*
X407Y1326D02*
X886Y1805D01*
X2205Y886D02*
X2205Y886D01*
X-3283Y4149D02*
X-2480Y3346D01*
X-3283Y4149D02*
Y5601D01*
X934Y1104D02*
X1280Y1449D01*
Y2205D01*
X1194Y1194D02*
X2081Y2081D01*
X2981Y908D02*
X3034Y855D01*
X2981Y908D02*
Y908D01*
X2205Y1083D02*
X2806D01*
X2981Y908D01*
X3034Y855D02*
X3047D01*
X3079Y823D01*
X2205Y886D02*
X2729D01*
X3122Y492D02*
X3248D01*
X2729Y886D02*
X3122Y492D01*
X2205Y689D02*
X2657D01*
X2756Y492D02*
Y591D01*
Y492D02*
X3248Y0D01*
X2657Y689D02*
X2756Y591D01*
X-340Y4873D02*
X-197Y4730D01*
X-98Y5413D02*
X0D01*
X-295Y5217D02*
X-98Y5413D01*
X-807Y5217D02*
X-295D01*
X-1575Y4350D02*
X-1575Y4350D01*
X-1575Y3937D02*
Y4350D01*
X-295Y3101D02*
Y3336D01*
Y3101D02*
X-214Y3020D01*
X-41D01*
X0Y3268D02*
X79Y3346D01*
X177Y3248D01*
X335D01*
X-210Y2900D02*
X-178Y2868D01*
X921D01*
X1083Y3030D01*
X-41Y3020D02*
X-9Y2988D01*
X871D01*
X956Y3073D01*
X-1594Y6201D02*
X-1575Y6181D01*
X-1909Y6201D02*
X-1594D01*
X-394Y5946D02*
X-139D01*
X-394D02*
Y6220D01*
X-540Y5557D02*
Y5953D01*
X-591Y6004D02*
X-540Y5953D01*
X-591Y6004D02*
Y6220D01*
X0Y1443D02*
X258Y1701D01*
X357D01*
X492Y1836D01*
X299Y1573D02*
X451D01*
X689Y1810D01*
X407Y1313D02*
Y1326D01*
X260Y878D02*
X630Y508D01*
X260Y878D02*
Y1092D01*
X147Y1205D02*
X260Y1092D01*
X147Y1205D02*
Y1420D01*
X299Y1573D01*
X0Y984D02*
Y1443D01*
X-2205Y1280D02*
X-1352D01*
X-689Y2205D02*
Y2806D01*
X-956Y3073D02*
X-689Y2806D01*
X-492Y2900D02*
X-210D01*
X-689Y3268D02*
X-492Y3071D01*
Y2205D02*
Y2900D01*
Y3071D01*
X-2480Y3346D02*
X-2425Y3291D01*
X-3031Y3045D02*
Y3346D01*
X-2545Y1817D02*
X-2205Y1476D01*
X-1352Y1280D02*
X-1289Y1343D01*
X-1280Y1836D02*
Y2205D01*
X-1415Y1701D02*
X-1280Y1836D01*
X-1538Y1701D02*
X-1415D01*
X-1842Y2005D02*
X-1538Y1701D01*
X-1842Y2005D02*
Y4545D01*
X-2545Y1817D02*
Y2559D01*
X-3031Y3045D02*
X-2545Y2559D01*
X-3374Y1969D02*
X-2685Y1280D01*
X-3996Y1624D02*
X-3618D01*
X-2879Y886D01*
X-2559Y-2461D02*
Y-2362D01*
X-492Y-2205D02*
Y-1836D01*
X1067Y-1020D02*
X1142Y-945D01*
X-492Y-1836D02*
X325Y-1020D01*
X1067D01*
X738Y248D02*
X1194Y705D01*
Y1194D01*
X375Y248D02*
X738D01*
X-984Y1343D02*
X-929Y1287D01*
X-671D02*
X-108Y724D01*
X-102D01*
X-1289Y1343D02*
X-984D01*
X-929Y1287D02*
X-671D01*
X-102Y724D02*
X375Y248D01*
X-3150Y-98D02*
X-2756Y295D01*
X-3760Y-98D02*
X-3150D01*
X-2756Y295D02*
X-2205D01*
X3079Y823D02*
X3710D01*
X5307Y2419D01*
Y4939D01*
X2081Y2081D02*
X3459D01*
X5059Y3681D01*
Y4035D01*
X-1711Y1547D02*
X-681D01*
X-2425Y2262D02*
Y3291D01*
Y2262D02*
X-1711Y1547D01*
D29*
X-197Y8366D02*
X0Y8563D01*
Y9941D01*
D30*
X-2648Y-5585D02*
Y-3348D01*
X-2673Y-5610D02*
X-2648Y-5585D01*
X-1575Y4902D02*
X-1260Y5217D01*
X-1240Y5236D02*
X-1063Y5413D01*
X-994D01*
X-4311Y2530D02*
X-4311Y2530D01*
Y2667D01*
X-2264Y7461D02*
X-1575D01*
X-1024Y6909D02*
X-886D01*
X-1575Y7461D02*
X-1024Y6909D01*
X-886Y7461D02*
Y7677D01*
X-748Y7815D01*
X-197D01*
X-591Y6220D02*
X-394D01*
X3228Y1673D02*
X3248Y1654D01*
X-2864Y1083D02*
X-2205D01*
X-4311Y2530D02*
X-3760Y1978D01*
X-2205Y1083D02*
X-2204Y1084D01*
X3228Y1083D02*
X3248Y1102D01*
X1389Y-1575D02*
X1470Y-1655D01*
X2128D01*
X2461Y-1988D01*
X-1870Y-2461D02*
Y-1811D01*
X-2205Y-1476D02*
X-1870Y-1811D01*
X-2264Y6909D02*
X-1575D01*
X1612Y-1352D02*
Y-604D01*
X1183Y-175D02*
X1612Y-604D01*
X1432Y-1065D02*
Y-825D01*
X1209Y-1288D02*
X1432Y-1065D01*
X1389Y-1575D02*
X1612Y-1352D01*
X1209Y-1529D02*
Y-1288D01*
X1083Y-2205D02*
Y-1655D01*
X1209Y-1529D01*
X-3642Y-886D02*
X-2205D01*
X-2205Y-886D01*
X-689D01*
X-689Y-886D01*
Y-2205D02*
Y-886D01*
X-3150Y-1791D02*
Y-1378D01*
X-3642Y-886D02*
X-3150Y-1378D01*
X-1870Y-2736D02*
Y-2461D01*
Y-2736D02*
X-1555Y-3051D01*
X-3447Y-2088D02*
X-3150Y-1791D01*
X-3447Y-2550D02*
Y-2088D01*
Y-2550D02*
X-2648Y-3348D01*
X-1183D01*
X-1004Y-3169D01*
Y-3051D01*
X-689Y-2854D02*
X-136D01*
X849Y-3839D01*
X1719D01*
X1870Y-4350D02*
Y-3990D01*
X1719Y-3839D02*
X1870Y-3990D01*
X-689Y-2854D02*
Y-2205D01*
Y-2953D02*
Y-2854D01*
X-787Y-3051D02*
X-689Y-2953D01*
X-1004Y-3051D02*
X-787D01*
X-4311Y2667D02*
Y3346D01*
X3031Y1476D02*
X3228Y1673D01*
X2205Y1476D02*
X3031D01*
X3248Y1102D02*
X3268Y1083D01*
X3602D01*
X1183Y-175D02*
X1634Y276D01*
X1689Y1476D02*
X2205D01*
X1634Y276D02*
Y1119D01*
X1794Y1280D01*
X2205D01*
X1454Y1242D02*
X1689Y1476D01*
X3031Y1280D02*
X3228Y1083D01*
X2205Y1280D02*
X3031D01*
X-2204Y1084D02*
X-1100D01*
X-1100Y1083D02*
X-1100Y1084D01*
X-1083Y1100D01*
X-1575Y6909D02*
X-1176Y6510D01*
Y6474D02*
Y6510D01*
Y6474D02*
X-1006Y6304D01*
X-970D01*
X-886Y6220D01*
X-591D01*
X-2205Y886D02*
X-1394D01*
X-1301Y793D01*
X-1181Y1083D02*
X-1100D01*
X-3760Y2667D02*
X-3514D01*
X-3374Y2528D01*
Y1969D02*
Y2528D01*
X-3760Y1978D02*
X-2864Y1083D01*
X1001Y-394D02*
X1432Y-825D01*
X-886Y492D02*
X-689Y295D01*
X-1280Y492D02*
X-886D01*
X-689Y-394D02*
Y295D01*
Y-394D02*
X1001D01*
X-689Y-886D02*
Y-394D01*
X1153Y-204D02*
X1183Y-175D01*
X-1100Y1084D02*
X-705D01*
X88Y290D01*
X120D01*
X1454Y752D02*
Y1242D01*
X800Y98D02*
X1454Y752D01*
X120Y290D02*
X312Y98D01*
X800D01*
X-1301Y793D02*
X-793D01*
X204Y-204D01*
X1153D01*
D31*
X-177Y6890D02*
X0Y6713D01*
Y6220D02*
Y6713D01*
X197Y6713D02*
X374Y6890D01*
X197Y6220D02*
Y6713D01*
X354Y6949D02*
Y7579D01*
X-197Y6949D02*
Y7559D01*
X-3760Y591D02*
X-3592Y759D01*
X-2953Y689D02*
X-2205D01*
X-197Y6949D02*
X-197Y6949D01*
X335Y6929D02*
X354Y6949D01*
X-197D02*
X-157Y6909D01*
X-3592Y759D02*
X-3277D01*
X-3760Y1270D02*
X-3533D01*
X-2953Y689D01*
X-3277Y759D02*
X-3010Y492D01*
X-2205D01*
D32*
X394Y6220D02*
X492D01*
X1181Y6909D01*
X1870D01*
D33*
X1280Y-2205D02*
Y-1684D01*
X1389Y-1575D01*
D34*
X-197Y8219D02*
D03*
D35*
X5020Y5610D02*
D03*
X-5020Y7579D02*
D03*
D36*
X4020Y5610D02*
D03*
X5020Y6610D02*
D03*
X4020D02*
D03*
X5020Y7610D02*
D03*
X4020D02*
D03*
X-2673Y-5610D02*
D03*
X-3673D02*
D03*
X-5720Y266D02*
D03*
Y3081D02*
D03*
X-4020Y7579D02*
D03*
X-5020Y6579D02*
D03*
X-4020D02*
D03*
X-5020Y5579D02*
D03*
X-4020D02*
D03*
D37*
X-1673Y-5610D02*
D03*
D38*
X-1000Y8941D02*
D03*
X1000D02*
D03*
Y10941D02*
D03*
X-1000D02*
D03*
D39*
X0Y9941D02*
D03*
D40*
X-5807Y2185D02*
D03*
Y1673D02*
D03*
Y1161D02*
D03*
X-5413Y1417D02*
D03*
Y1929D02*
D03*
D41*
X5406Y-1740D02*
D03*
X5906D02*
D03*
X5406Y-2240D02*
D03*
X5906D02*
D03*
X5406Y-2740D02*
D03*
X5906D02*
D03*
X5406Y-3240D02*
D03*
X5906D02*
D03*
X5406Y-3740D02*
D03*
D42*
X5906D02*
D03*
D43*
X-3937Y-3937D02*
D03*
X3150Y2461D02*
D03*
X1772Y2953D02*
D03*
X4921D02*
D03*
X3445Y-5807D02*
D03*
X1969D02*
D03*
X4921Y-4429D02*
D03*
Y-2953D02*
D03*
X-1969Y-4921D02*
D03*
X-4528Y-1673D02*
D03*
Y6102D02*
D03*
X-4823Y1969D02*
D03*
X-4921Y0D02*
D03*
X-689Y8169D02*
D03*
X1476Y8071D02*
D03*
X-3740Y4035D02*
D03*
X-3740Y4724D02*
D03*
X-1575Y5217D02*
D03*
X-689Y4134D02*
D03*
X2331Y-5149D02*
D03*
X4429Y-1673D02*
D03*
X3248Y-2894D02*
D03*
X-1870Y-2461D02*
D03*
X-3642Y-3346D02*
D03*
X-4429Y-886D02*
D03*
X-6004Y-512D02*
D03*
X1870Y8071D02*
D03*
X1083D02*
D03*
X1142Y-945D02*
D03*
X-1083Y-5413D02*
D03*
X886Y-1280D02*
D03*
X-1181Y-3740D02*
D03*
X-849Y-3507D02*
D03*
X-394Y-3543D02*
D03*
X144Y-3578D02*
D03*
X1181Y-4154D02*
D03*
X-236Y5177D02*
D03*
X236D02*
D03*
X244Y5650D02*
D03*
X934Y939D02*
D03*
X630Y508D02*
D03*
X2264Y2461D02*
D03*
X827Y1378D02*
D03*
X3602Y1083D02*
D03*
X3248Y492D02*
D03*
Y0D02*
D03*
X-1575Y3937D02*
D03*
X335Y3248D02*
D03*
X1378Y4035D02*
D03*
X2953Y5709D02*
D03*
X-1909Y6201D02*
D03*
X-886Y6594D02*
D03*
X-236Y5650D02*
D03*
X-1240Y7874D02*
D03*
X-1929D02*
D03*
X-2618D02*
D03*
X2461Y8071D02*
D03*
Y7382D02*
D03*
X-2815Y2461D02*
D03*
X407Y1313D02*
D03*
X0Y984D02*
D03*
X-681Y1547D02*
D03*
X-2165Y2461D02*
D03*
Y3937D02*
D03*
X-2992Y7382D02*
D03*
X-1280Y492D02*
D03*
X-1181Y1083D02*
D03*
X-2559Y-2461D02*
D03*
X-1969Y-3937D02*
D03*
X-2953D02*
D03*
X-591Y-5807D02*
D03*
X-4331Y-5906D02*
D03*
X-6102Y-4331D02*
D03*
X-1378Y-394D02*
D03*
Y-1378D02*
D03*
X0Y-787D02*
D03*
Y0D02*
D03*
X-6142Y2657D02*
D03*
X-3346Y295D02*
D03*
X-5286Y2657D02*
D03*
X-6102Y3937D02*
D03*
Y5906D02*
D03*
Y7874D02*
D03*
X-5906Y8858D02*
D03*
X-4921D02*
D03*
X-2953Y9843D02*
D03*
X-1969D02*
D03*
X-2953Y10827D02*
D03*
X-1969D02*
D03*
X-3937D02*
D03*
Y9843D02*
D03*
X2953Y10827D02*
D03*
X1969Y10827D02*
D03*
X2953Y8858D02*
D03*
X3937Y9843D02*
D03*
Y10827D02*
D03*
Y8858D02*
D03*
X4921D02*
D03*
X5906D02*
D03*
X-1969D02*
D03*
X-2953D02*
D03*
X-3937D02*
D03*
X1969Y9843D02*
D03*
X2953D02*
D03*
X1969Y8858D02*
D03*
X5906Y7874D02*
D03*
Y5906D02*
D03*
Y3445D02*
D03*
Y1969D02*
D03*
Y0D02*
D03*
X4921D02*
D03*
X3937Y1969D02*
D03*
X3740Y2953D02*
D03*
X5906Y984D02*
D03*
X2953Y3937D02*
D03*
Y4921D02*
D03*
D44*
X-236Y-3150D02*
D03*
M02*
