G04 Layer_Color=8388736*
%FSLAX24Y24*%
%MOIN*%
G70*
G01*
G75*
G04:AMPARAMS|DCode=24|XSize=24mil|YSize=9mil|CornerRadius=4.5mil|HoleSize=0mil|Usage=FLASHONLY|Rotation=270.000|XOffset=0mil|YOffset=0mil|HoleType=Round|Shape=RoundedRectangle|*
%AMROUNDEDRECTD24*
21,1,0.0240,0.0000,0,0,270.0*
21,1,0.0150,0.0090,0,0,270.0*
1,1,0.0090,0.0000,-0.0075*
1,1,0.0090,0.0000,0.0075*
1,1,0.0090,0.0000,0.0075*
1,1,0.0090,0.0000,-0.0075*
%
%ADD24ROUNDEDRECTD24*%
G04:AMPARAMS|DCode=25|XSize=24mil|YSize=9mil|CornerRadius=4.5mil|HoleSize=0mil|Usage=FLASHONLY|Rotation=180.000|XOffset=0mil|YOffset=0mil|HoleType=Round|Shape=RoundedRectangle|*
%AMROUNDEDRECTD25*
21,1,0.0240,0.0000,0,0,180.0*
21,1,0.0150,0.0090,0,0,180.0*
1,1,0.0090,-0.0075,0.0000*
1,1,0.0090,0.0075,0.0000*
1,1,0.0090,0.0075,0.0000*
1,1,0.0090,-0.0075,0.0000*
%
%ADD25ROUNDEDRECTD25*%
%ADD36C,0.0591*%
%ADD40C,0.0370*%
%ADD41C,0.0394*%
%ADD42R,0.0394X0.0394*%
%ADD51R,0.1950X0.1450*%
%ADD52R,0.0336X0.0671*%
%ADD53R,0.0671X0.0336*%
%ADD54R,0.0454X0.0415*%
%ADD55R,0.0415X0.0454*%
%ADD56R,0.0651X0.0691*%
%ADD57R,0.0572X0.0651*%
%ADD58R,0.0514X0.0258*%
%ADD59O,0.0119X0.0394*%
%ADD60O,0.0394X0.0119*%
%ADD61R,0.0926X0.0926*%
%ADD62O,0.0927X0.0218*%
%ADD63O,0.0218X0.0927*%
%ADD64R,0.0572X0.0415*%
%ADD65R,0.0691X0.0691*%
%ADD66C,0.0691*%
%ADD67R,0.0691X0.0691*%
%ADD68C,0.1320*%
%ADD69C,0.0966*%
%ADD70C,0.0887*%
D24*
X-394Y-3928D02*
D03*
X-236D02*
D03*
X-79D02*
D03*
X80D02*
D03*
X240D02*
D03*
X400D02*
D03*
Y-5118D02*
D03*
X240D02*
D03*
X80D02*
D03*
X-79D02*
D03*
X-236D02*
D03*
X-394D02*
D03*
D25*
X600Y-4128D02*
D03*
Y-4288D02*
D03*
Y-4448D02*
D03*
Y-4606D02*
D03*
Y-4764D02*
D03*
Y-4921D02*
D03*
X-591D02*
D03*
Y-4764D02*
D03*
Y-4606D02*
D03*
Y-4448D02*
D03*
Y-4288D02*
D03*
Y-4128D02*
D03*
D36*
X-5720Y266D02*
D03*
Y3081D02*
D03*
D40*
X-5807Y2185D02*
D03*
Y1673D02*
D03*
Y1161D02*
D03*
X-5413Y1417D02*
D03*
Y1929D02*
D03*
D41*
X5406Y-1740D02*
D03*
X5906D02*
D03*
X5406Y-2240D02*
D03*
X5906D02*
D03*
X5406Y-2740D02*
D03*
X5906D02*
D03*
X5406Y-3240D02*
D03*
X5906D02*
D03*
X5406Y-3740D02*
D03*
D42*
X5906D02*
D03*
D51*
X-3346Y10433D02*
D03*
D52*
X-5984Y-3415D02*
D03*
X-5236D02*
D03*
X-5610Y-2490D02*
D03*
D53*
X-3967Y-2441D02*
D03*
Y-1693D02*
D03*
X-4892Y-2067D02*
D03*
D54*
X-1181Y-4705D02*
D03*
Y-4154D02*
D03*
X2461Y-2539D02*
D03*
Y-1988D02*
D03*
X1870Y-4902D02*
D03*
Y-4350D02*
D03*
X1181Y-4350D02*
D03*
Y-4902D02*
D03*
X-3150Y-1791D02*
D03*
Y-2343D02*
D03*
X-5315Y-1063D02*
D03*
Y-512D02*
D03*
X-6004Y-1063D02*
D03*
Y-512D02*
D03*
X3248Y1654D02*
D03*
Y1102D02*
D03*
X-1575Y6181D02*
D03*
Y5630D02*
D03*
X-1575Y4350D02*
D03*
Y4902D02*
D03*
X689Y3268D02*
D03*
Y3819D02*
D03*
X0Y3268D02*
D03*
Y3819D02*
D03*
X1870Y7461D02*
D03*
Y6909D02*
D03*
X1181Y7461D02*
D03*
Y6909D02*
D03*
X-1575Y7461D02*
D03*
Y6909D02*
D03*
X-2264Y7461D02*
D03*
Y6909D02*
D03*
X-886D02*
D03*
Y7461D02*
D03*
X-689Y3819D02*
D03*
Y3268D02*
D03*
X-2264Y4350D02*
D03*
Y4902D02*
D03*
X-2264Y5630D02*
D03*
Y6181D02*
D03*
D55*
X276Y-5807D02*
D03*
X-276D02*
D03*
X-4311Y-98D02*
D03*
X-3760D02*
D03*
X1004Y-5807D02*
D03*
X1555D02*
D03*
X1102Y-3051D02*
D03*
X1654D02*
D03*
X3130Y-3543D02*
D03*
X2579D02*
D03*
X3130Y-4331D02*
D03*
X2579D02*
D03*
X4409D02*
D03*
X3858D02*
D03*
X4409Y-3543D02*
D03*
X3858D02*
D03*
X-1004Y-3051D02*
D03*
X-1555D02*
D03*
X-3760Y3346D02*
D03*
X-4311D02*
D03*
X-3760Y2667D02*
D03*
X-4311D02*
D03*
X-3760Y1978D02*
D03*
X-4311D02*
D03*
X-3760Y1270D02*
D03*
X-4311D02*
D03*
X-3760Y591D02*
D03*
X-4311D02*
D03*
X-3622Y-4528D02*
D03*
X-3071D02*
D03*
X2343Y5709D02*
D03*
X1791D02*
D03*
X1791Y3346D02*
D03*
X2343D02*
D03*
X3268Y-886D02*
D03*
X3819D02*
D03*
X-3031Y3346D02*
D03*
X-2480D02*
D03*
X374Y6890D02*
D03*
X-177D02*
D03*
X-5138Y4035D02*
D03*
X-4587Y4035D02*
D03*
X-4035D02*
D03*
X-5138Y4724D02*
D03*
X-4587Y4724D02*
D03*
X-4035D02*
D03*
X5059Y4035D02*
D03*
X4508Y4035D02*
D03*
X3957D02*
D03*
X5059Y4724D02*
D03*
X4508Y4724D02*
D03*
X3957D02*
D03*
D56*
X-3642Y-3346D02*
D03*
X-4429D02*
D03*
X-4429Y-886D02*
D03*
X-3642D02*
D03*
D57*
X3878Y-2500D02*
D03*
Y-1634D02*
D03*
X3209D02*
D03*
Y-2500D02*
D03*
X1732Y4094D02*
D03*
Y4961D02*
D03*
X2402D02*
D03*
Y4094D02*
D03*
D58*
X-197Y8071D02*
D03*
Y7815D02*
D03*
Y7559D02*
D03*
X512D02*
D03*
Y7815D02*
D03*
Y8071D02*
D03*
D59*
X-394Y4606D02*
D03*
X-197D02*
D03*
X0D02*
D03*
X197D02*
D03*
X394D02*
D03*
Y6220D02*
D03*
X197D02*
D03*
X0D02*
D03*
X-197D02*
D03*
X-394D02*
D03*
D60*
X807Y5020D02*
D03*
Y5217D02*
D03*
Y5413D02*
D03*
Y5610D02*
D03*
Y5807D02*
D03*
X-807D02*
D03*
Y5610D02*
D03*
Y5413D02*
D03*
Y5217D02*
D03*
Y5020D02*
D03*
D61*
X0Y5413D02*
D03*
D62*
X-2205Y492D02*
D03*
Y689D02*
D03*
X2205Y1476D02*
D03*
Y1280D02*
D03*
Y1083D02*
D03*
Y886D02*
D03*
Y689D02*
D03*
Y492D02*
D03*
Y295D02*
D03*
Y98D02*
D03*
Y-98D02*
D03*
Y-295D02*
D03*
Y-492D02*
D03*
Y-689D02*
D03*
Y-886D02*
D03*
Y-1083D02*
D03*
Y-1280D02*
D03*
Y-1476D02*
D03*
X-2205D02*
D03*
Y-1280D02*
D03*
Y-1083D02*
D03*
Y-886D02*
D03*
Y-689D02*
D03*
Y-492D02*
D03*
Y-295D02*
D03*
Y-98D02*
D03*
Y98D02*
D03*
Y295D02*
D03*
Y886D02*
D03*
Y1083D02*
D03*
Y1280D02*
D03*
Y1476D02*
D03*
D63*
X-1476Y2205D02*
D03*
X-1280D02*
D03*
X-1083D02*
D03*
X-886D02*
D03*
X-689D02*
D03*
X-492D02*
D03*
X-295D02*
D03*
X-98D02*
D03*
X98D02*
D03*
X295D02*
D03*
X492D02*
D03*
X689D02*
D03*
X886D02*
D03*
X1083D02*
D03*
X1280D02*
D03*
X1476D02*
D03*
Y-2205D02*
D03*
X1280D02*
D03*
X1083D02*
D03*
X886D02*
D03*
X689D02*
D03*
X492D02*
D03*
X295D02*
D03*
X98D02*
D03*
X-98D02*
D03*
X-295D02*
D03*
X-492D02*
D03*
X-689D02*
D03*
X-886D02*
D03*
X-1083D02*
D03*
X-1280D02*
D03*
X-1476D02*
D03*
D64*
X2835Y-5728D02*
D03*
Y-5098D02*
D03*
X3937D02*
D03*
Y-5728D02*
D03*
D65*
X5020Y5610D02*
D03*
X-5020Y7579D02*
D03*
D66*
X4020Y5610D02*
D03*
X5020Y6610D02*
D03*
X4020D02*
D03*
X5020Y7610D02*
D03*
X4020D02*
D03*
X-2673Y-5610D02*
D03*
X-3673D02*
D03*
X-4020Y7579D02*
D03*
X-5020Y6579D02*
D03*
X-4020D02*
D03*
X-5020Y5579D02*
D03*
X-4020D02*
D03*
D67*
X-1673Y-5610D02*
D03*
D68*
X5512Y-5315D02*
D03*
X-5512D02*
D03*
Y10630D02*
D03*
X5512D02*
D03*
D69*
X-1000Y8941D02*
D03*
X1000D02*
D03*
Y10941D02*
D03*
X-1000D02*
D03*
D70*
X0Y9941D02*
D03*
M02*
