G04 Layer_Color=16711935*
%FSLAX24Y24*%
%MOIN*%
G70*
G01*
G75*
%ADD36C,0.0591*%
%ADD40C,0.0370*%
%ADD41C,0.0394*%
%ADD42R,0.0394X0.0394*%
%ADD65R,0.0691X0.0691*%
%ADD66C,0.0691*%
%ADD67R,0.0691X0.0691*%
%ADD68C,0.1320*%
%ADD70C,0.0887*%
%ADD71O,0.1202X0.0966*%
D36*
X-5720Y266D02*
D03*
Y3081D02*
D03*
D40*
X-5807Y2185D02*
D03*
Y1673D02*
D03*
Y1161D02*
D03*
X-5413Y1417D02*
D03*
Y1929D02*
D03*
D41*
X5406Y-1740D02*
D03*
X5906D02*
D03*
X5406Y-2240D02*
D03*
X5906D02*
D03*
X5406Y-2740D02*
D03*
X5906D02*
D03*
X5406Y-3240D02*
D03*
X5906D02*
D03*
X5406Y-3740D02*
D03*
D42*
X5906D02*
D03*
D65*
X5020Y5610D02*
D03*
X-5020Y7579D02*
D03*
D66*
X4020Y5610D02*
D03*
X5020Y6610D02*
D03*
X4020D02*
D03*
X5020Y7610D02*
D03*
X4020D02*
D03*
X-2673Y-5610D02*
D03*
X-3673D02*
D03*
X-4020Y7579D02*
D03*
X-5020Y6579D02*
D03*
X-4020D02*
D03*
X-5020Y5579D02*
D03*
X-4020D02*
D03*
D67*
X-1673Y-5610D02*
D03*
D68*
X5512Y-5315D02*
D03*
X-5512D02*
D03*
Y10630D02*
D03*
X5512D02*
D03*
D70*
X0Y9941D02*
D03*
D71*
X-1000Y8941D02*
D03*
X1000D02*
D03*
Y10941D02*
D03*
X-1000D02*
D03*
M02*
