G04 Layer_Physical_Order=2*
G04 Layer_Color=16711680*
%FSLAX24Y24*%
%MOIN*%
G70*
G01*
G75*
%ADD26C,0.0200*%
%ADD28C,0.0060*%
%ADD35R,0.0591X0.0591*%
%ADD36C,0.0591*%
%ADD37R,0.0591X0.0591*%
%ADD39C,0.0787*%
%ADD40C,0.0370*%
%ADD41C,0.0394*%
%ADD42R,0.0394X0.0394*%
%ADD43C,0.0340*%
%ADD44C,0.0320*%
%ADD45O,0.1102X0.0866*%
G36*
X5840Y11489D02*
X5967Y11451D01*
X6084Y11389D01*
X6186Y11305D01*
X6270Y11202D01*
X6333Y11085D01*
X6371Y10959D01*
X6384Y10828D01*
X6384Y10827D01*
Y-5512D01*
X6384Y-5513D01*
X6371Y-5644D01*
X6333Y-5770D01*
X6270Y-5887D01*
X6186Y-5990D01*
X6084Y-6074D01*
X5967Y-6136D01*
X5840Y-6174D01*
X5710Y-6187D01*
X5709Y-6187D01*
X-5709D01*
X-5710Y-6187D01*
X-5840Y-6174D01*
X-5967Y-6136D01*
X-6084Y-6074D01*
X-6186Y-5990D01*
X-6270Y-5887D01*
X-6333Y-5770D01*
X-6371Y-5644D01*
X-6384Y-5513D01*
X-6384Y-5512D01*
Y-427D01*
X-6338Y-396D01*
X-6334Y-396D01*
X-6301Y-445D01*
X-6238Y-509D01*
X-6239Y-512D01*
X-6221Y-601D01*
X-6170Y-678D01*
X-6094Y-728D01*
X-6004Y-746D01*
X-5914Y-728D01*
X-5838Y-678D01*
X-5787Y-601D01*
X-5770Y-512D01*
X-5787Y-422D01*
X-5838Y-346D01*
X-5914Y-295D01*
X-6004Y-277D01*
X-6023Y-233D01*
Y715D01*
X-5823Y915D01*
X-5807Y912D01*
X-5711Y931D01*
X-5630Y985D01*
X-5576Y1066D01*
X-5557Y1161D01*
X-5558Y1163D01*
X-5516Y1191D01*
X-5509Y1186D01*
X-5413Y1167D01*
X-5318Y1186D01*
X-5237Y1241D01*
X-5183Y1322D01*
X-5164Y1417D01*
X-5183Y1513D01*
X-5237Y1594D01*
X-5317Y1648D01*
X-5318Y1653D01*
Y1694D01*
X-5317Y1699D01*
X-5237Y1752D01*
X-5183Y1834D01*
X-5164Y1929D01*
X-5183Y2025D01*
X-5237Y2106D01*
X-5318Y2160D01*
X-5413Y2179D01*
X-5509Y2160D01*
X-5590Y2106D01*
X-5644Y2025D01*
X-5663Y1929D01*
X-5663Y1927D01*
X-5704Y1899D01*
X-5711Y1904D01*
X-5807Y1923D01*
X-5903Y1904D01*
X-5984Y1850D01*
X-6038Y1769D01*
X-6057Y1673D01*
X-6038Y1578D01*
X-5984Y1497D01*
X-5904Y1443D01*
X-5903Y1438D01*
Y1397D01*
X-5904Y1392D01*
X-5984Y1338D01*
X-6038Y1257D01*
X-6057Y1161D01*
X-6054Y1145D01*
X-6301Y898D01*
X-6334Y849D01*
X-6338Y849D01*
X-6384Y880D01*
Y10827D01*
X-6384Y10828D01*
X-6371Y10959D01*
X-6333Y11085D01*
X-6270Y11202D01*
X-6186Y11305D01*
X-6084Y11389D01*
X-5967Y11451D01*
X-5840Y11489D01*
X-5710Y11502D01*
X-5709Y11502D01*
X5709D01*
X5710Y11502D01*
X5840Y11489D01*
D02*
G37*
%LPC*%
G36*
X-3740Y4959D02*
X-3830Y4941D01*
X-3906Y4890D01*
X-3957Y4814D01*
X-3975Y4724D01*
X-3957Y4635D01*
X-3906Y4559D01*
X-3830Y4508D01*
X-3740Y4490D01*
X-3686Y4501D01*
X-3361Y4176D01*
X-3366Y4152D01*
X-3383Y4127D01*
X-3525D01*
X-3574Y4201D01*
X-3650Y4252D01*
X-3740Y4270D01*
X-3830Y4252D01*
X-3906Y4201D01*
X-3957Y4125D01*
X-3975Y4035D01*
X-3957Y3946D01*
X-3906Y3870D01*
X-3830Y3819D01*
X-3740Y3801D01*
X-3650Y3819D01*
X-3574Y3870D01*
X-3525Y3944D01*
X-3410D01*
X-1338Y1871D01*
Y1575D01*
X-1331Y1540D01*
X-1311Y1510D01*
X-1161Y1360D01*
X-1188Y1316D01*
X-1271Y1299D01*
X-1347Y1248D01*
X-1398Y1172D01*
X-1416Y1083D01*
X-1413Y1072D01*
X-1430Y1047D01*
X-1443Y984D01*
Y660D01*
X-1445Y658D01*
X-1496Y582D01*
X-1514Y492D01*
X-1496Y402D01*
X-1445Y326D01*
X-1369Y275D01*
X-1280Y258D01*
X-1190Y275D01*
X-1114Y326D01*
X-1063Y402D01*
X-1045Y492D01*
X-1063Y582D01*
X-1114Y658D01*
X-1116Y660D01*
Y861D01*
X-1091Y866D01*
X-1015Y917D01*
X-964Y993D01*
X-948Y1076D01*
X-920Y1093D01*
X-899Y1099D01*
X-874Y1083D01*
X-839Y1076D01*
X-641D01*
X-622Y1029D01*
X-914Y737D01*
X-934Y708D01*
X-941Y673D01*
Y-3291D01*
X-1015Y-3341D01*
X-1066Y-3417D01*
X-1084Y-3507D01*
X-1066Y-3596D01*
X-1015Y-3672D01*
X-939Y-3723D01*
X-849Y-3741D01*
X-759Y-3723D01*
X-683Y-3672D01*
X-660Y-3638D01*
X-642Y-3636D01*
X-604Y-3643D01*
X-560Y-3709D01*
X-483Y-3760D01*
X-394Y-3778D01*
X-304Y-3760D01*
X-228Y-3709D01*
X-177Y-3633D01*
X-159Y-3543D01*
X-177Y-3454D01*
X-201Y-3418D01*
X-178Y-3362D01*
X-150Y-3357D01*
X-78Y-3308D01*
X-29Y-3235D01*
X-12Y-3150D01*
X-29Y-3064D01*
X-78Y-2991D01*
X-150Y-2942D01*
X-236Y-2925D01*
X-315Y-2941D01*
X-499Y-2757D01*
Y356D01*
X-87Y767D01*
X0Y750D01*
X90Y768D01*
X166Y818D01*
X217Y895D01*
X223Y928D01*
X278Y945D01*
X348Y874D01*
X378Y854D01*
X403Y849D01*
X418Y821D01*
X422Y797D01*
X305Y680D01*
X285Y651D01*
X278Y615D01*
Y400D01*
X285Y365D01*
X305Y335D01*
X312Y328D01*
Y-3889D01*
X-995Y-5196D01*
X-1083Y-5179D01*
X-1172Y-5197D01*
X-1248Y-5248D01*
X-1299Y-5324D01*
X-1317Y-5413D01*
X-1299Y-5503D01*
X-1248Y-5579D01*
X-1172Y-5630D01*
X-1083Y-5648D01*
X-993Y-5630D01*
X-917Y-5579D01*
X-866Y-5503D01*
X-848Y-5413D01*
X-866Y-5326D01*
X469Y-3992D01*
X489Y-3962D01*
X496Y-3927D01*
Y-2126D01*
X519Y-2119D01*
X546Y-2118D01*
X561Y-2141D01*
X1704Y-3284D01*
Y-4613D01*
X1711Y-4648D01*
X1731Y-4678D01*
X2114Y-5062D01*
X2097Y-5149D01*
X2115Y-5239D01*
X2165Y-5315D01*
X2242Y-5366D01*
X2331Y-5384D01*
X2421Y-5366D01*
X2497Y-5315D01*
X2548Y-5239D01*
X2566Y-5149D01*
X2548Y-5059D01*
X2497Y-4983D01*
X2421Y-4932D01*
X2331Y-4915D01*
X2244Y-4932D01*
X1887Y-4575D01*
Y-3246D01*
X1880Y-3211D01*
X1860Y-3181D01*
X718Y-2038D01*
Y-1527D01*
X766Y-1500D01*
X794Y-1518D01*
Y-1601D01*
X801Y-1636D01*
X821Y-1666D01*
X2960Y-3805D01*
X2990Y-3825D01*
X3025Y-3832D01*
X5166D01*
X5181Y-3870D01*
X5222Y-3923D01*
X5276Y-3965D01*
X5338Y-3990D01*
X5406Y-3999D01*
X5473Y-3990D01*
X5535Y-3965D01*
X5589Y-3923D01*
X5599Y-3910D01*
X5649Y-3927D01*
Y-3997D01*
X6162D01*
Y-3483D01*
X5649D01*
Y-3553D01*
X5599Y-3570D01*
X5589Y-3557D01*
X5537Y-3518D01*
X5533Y-3491D01*
Y-3490D01*
X5537Y-3463D01*
X5589Y-3423D01*
X5630Y-3370D01*
X5656Y-3307D01*
X5665Y-3240D01*
X5656Y-3173D01*
X5630Y-3111D01*
X5589Y-3057D01*
X5537Y-3018D01*
X5533Y-2991D01*
Y-2990D01*
X5537Y-2963D01*
X5589Y-2923D01*
X5630Y-2870D01*
X5656Y-2807D01*
X5665Y-2740D01*
X5656Y-2673D01*
X5630Y-2611D01*
X5589Y-2557D01*
X5537Y-2518D01*
X5533Y-2491D01*
Y-2490D01*
X5537Y-2463D01*
X5589Y-2423D01*
X5628Y-2372D01*
X5655Y-2368D01*
X5656D01*
X5683Y-2372D01*
X5722Y-2423D01*
X5776Y-2465D01*
X5838Y-2490D01*
X5906Y-2499D01*
X5973Y-2490D01*
X6035Y-2465D01*
X6089Y-2423D01*
X6130Y-2370D01*
X6156Y-2307D01*
X6165Y-2240D01*
X6156Y-2173D01*
X6130Y-2111D01*
X6089Y-2057D01*
X6037Y-2018D01*
X6033Y-1991D01*
Y-1990D01*
X6037Y-1963D01*
X6089Y-1923D01*
X6130Y-1870D01*
X6156Y-1807D01*
X6165Y-1740D01*
X6156Y-1673D01*
X6130Y-1611D01*
X6089Y-1557D01*
X6035Y-1516D01*
X5973Y-1490D01*
X5906Y-1481D01*
X5838Y-1490D01*
X5776Y-1516D01*
X5722Y-1557D01*
X5683Y-1608D01*
X5656Y-1612D01*
X5655D01*
X5628Y-1608D01*
X5589Y-1557D01*
X5535Y-1516D01*
X5473Y-1490D01*
X5406Y-1481D01*
X5338Y-1490D01*
X5276Y-1516D01*
X5222Y-1557D01*
X5181Y-1611D01*
X5155Y-1673D01*
X5146Y-1740D01*
X5155Y-1807D01*
X5181Y-1870D01*
X5222Y-1923D01*
X5274Y-1963D01*
X5278Y-1990D01*
Y-1991D01*
X5274Y-2018D01*
X5222Y-2057D01*
X5181Y-2111D01*
X5155Y-2173D01*
X5146Y-2240D01*
X5155Y-2307D01*
X5181Y-2370D01*
X5222Y-2423D01*
X5274Y-2463D01*
X5278Y-2490D01*
Y-2491D01*
X5274Y-2518D01*
X5222Y-2557D01*
X5181Y-2611D01*
X5155Y-2673D01*
X5146Y-2740D01*
X5155Y-2807D01*
X5181Y-2870D01*
X5222Y-2923D01*
X5274Y-2963D01*
X5278Y-2990D01*
Y-2991D01*
X5274Y-3018D01*
X5222Y-3057D01*
X5181Y-3111D01*
X5155Y-3173D01*
X5146Y-3240D01*
X5155Y-3303D01*
X5154Y-3309D01*
X5120Y-3353D01*
X2938D01*
X1667Y-2082D01*
Y-1452D01*
X1660Y-1417D01*
X1640Y-1388D01*
X1330Y-1078D01*
X1358Y-1035D01*
X1376Y-945D01*
X1358Y-855D01*
X1308Y-779D01*
X1231Y-728D01*
X1142Y-710D01*
X1052Y-728D01*
X976Y-779D01*
X925Y-855D01*
X907Y-945D01*
X918Y-1001D01*
X886Y-1045D01*
X880Y-1046D01*
X796Y-1063D01*
X768Y-1082D01*
X718Y-1055D01*
Y291D01*
X720Y291D01*
X796Y342D01*
X847Y418D01*
X864Y508D01*
X856Y548D01*
X888Y587D01*
X1042D01*
X1077Y594D01*
X1107Y614D01*
X1259Y766D01*
X1279Y796D01*
X1286Y831D01*
Y1046D01*
X1279Y1081D01*
X1259Y1111D01*
X1089Y1281D01*
X1089Y1283D01*
X1145Y1298D01*
X2508Y-65D01*
X2537Y-85D01*
X2572Y-92D01*
X3033D01*
X3082Y-166D01*
X3158Y-217D01*
X3248Y-235D01*
X3338Y-217D01*
X3414Y-166D01*
X3465Y-90D01*
X3483Y0D01*
X3465Y90D01*
X3414Y166D01*
X3338Y217D01*
X3318Y221D01*
Y272D01*
X3338Y275D01*
X3414Y326D01*
X3465Y402D01*
X3483Y492D01*
X3465Y582D01*
X3414Y658D01*
X3338Y709D01*
X3248Y727D01*
X3158Y709D01*
X3082Y658D01*
X3033Y584D01*
X2302D01*
X1063Y1823D01*
X1033Y1843D01*
X998Y1850D01*
X-103D01*
X-138Y1843D01*
X-168Y1823D01*
X-387Y1603D01*
X-441Y1619D01*
X-448Y1651D01*
X270Y2369D01*
X2048D01*
X2098Y2295D01*
X2174Y2244D01*
X2264Y2226D01*
X2354Y2244D01*
X2430Y2295D01*
X2480Y2371D01*
X2498Y2461D01*
X2480Y2550D01*
X2430Y2626D01*
X2354Y2677D01*
X2264Y2695D01*
X2174Y2677D01*
X2098Y2626D01*
X2048Y2552D01*
X232D01*
X197Y2545D01*
X167Y2526D01*
X-594Y1765D01*
X-681Y1782D01*
X-771Y1764D01*
X-847Y1713D01*
X-898Y1637D01*
X-905Y1604D01*
X-954Y1589D01*
X-991Y1621D01*
Y2028D01*
X-998Y2063D01*
X-1018Y2093D01*
X-3538Y4613D01*
X-3523Y4635D01*
X-3506Y4724D01*
X-3523Y4814D01*
X-3574Y4890D01*
X-3650Y4941D01*
X-3740Y4959D01*
D02*
G37*
G36*
X-1575Y5451D02*
X-1665Y5433D01*
X-1741Y5382D01*
X-1791Y5306D01*
X-1809Y5217D01*
X-1791Y5127D01*
X-1741Y5051D01*
X-1738Y5049D01*
Y4675D01*
X-1726Y4613D01*
X-1690Y4560D01*
X-1395Y4265D01*
X-1342Y4229D01*
X-1280Y4217D01*
X-1003D01*
X-923Y4137D01*
X-923Y4134D01*
X-906Y4044D01*
X-855Y3968D01*
X-779Y3917D01*
X-689Y3899D01*
X-599Y3917D01*
X-523Y3968D01*
X-472Y4044D01*
X-454Y4134D01*
X-472Y4224D01*
X-523Y4300D01*
X-599Y4351D01*
X-689Y4368D01*
X-692Y4368D01*
X-820Y4495D01*
X-873Y4531D01*
X-935Y4543D01*
X-1212D01*
X-1412Y4743D01*
Y5049D01*
X-1409Y5051D01*
X-1358Y5127D01*
X-1340Y5217D01*
X-1358Y5306D01*
X-1409Y5382D01*
X-1485Y5433D01*
X-1575Y5451D01*
D02*
G37*
G36*
X-4020Y5937D02*
X-4112Y5925D01*
X-4199Y5889D01*
X-4273Y5832D01*
X-4330Y5758D01*
X-4366Y5671D01*
X-4378Y5579D01*
X-4366Y5486D01*
X-4330Y5400D01*
X-4273Y5325D01*
X-4199Y5268D01*
X-4112Y5233D01*
X-4020Y5220D01*
X-3927Y5233D01*
X-3841Y5268D01*
X-3766Y5325D01*
X-3709Y5400D01*
X-3674Y5486D01*
X-3661Y5579D01*
X-3674Y5671D01*
X-3709Y5758D01*
X-3766Y5832D01*
X-3841Y5889D01*
X-3927Y5925D01*
X-4020Y5937D01*
D02*
G37*
G36*
X-5020D02*
X-5112Y5925D01*
X-5199Y5889D01*
X-5273Y5832D01*
X-5330Y5758D01*
X-5366Y5671D01*
X-5378Y5579D01*
X-5366Y5486D01*
X-5330Y5400D01*
X-5273Y5325D01*
X-5199Y5268D01*
X-5112Y5233D01*
X-5020Y5220D01*
X-4927Y5233D01*
X-4841Y5268D01*
X-4766Y5325D01*
X-4709Y5400D01*
X-4674Y5486D01*
X-4661Y5579D01*
X-4674Y5671D01*
X-4709Y5758D01*
X-4766Y5832D01*
X-4841Y5889D01*
X-4927Y5925D01*
X-5020Y5937D01*
D02*
G37*
G36*
X5512Y-4501D02*
X5353Y-4517D01*
X5200Y-4563D01*
X5060Y-4638D01*
X4936Y-4739D01*
X4835Y-4863D01*
X4760Y-5003D01*
X4714Y-5156D01*
X4698Y-5315D01*
X4714Y-5474D01*
X4760Y-5626D01*
X4835Y-5767D01*
X4936Y-5890D01*
X5060Y-5992D01*
X5200Y-6067D01*
X5353Y-6113D01*
X5512Y-6129D01*
X5671Y-6113D01*
X5823Y-6067D01*
X5964Y-5992D01*
X6087Y-5890D01*
X6189Y-5767D01*
X6264Y-5626D01*
X6310Y-5474D01*
X6326Y-5315D01*
X6310Y-5156D01*
X6264Y-5003D01*
X6189Y-4863D01*
X6087Y-4739D01*
X5964Y-4638D01*
X5823Y-4563D01*
X5671Y-4517D01*
X5512Y-4501D01*
D02*
G37*
G36*
X-5512D02*
X-5671Y-4517D01*
X-5823Y-4563D01*
X-5964Y-4638D01*
X-6087Y-4739D01*
X-6189Y-4863D01*
X-6264Y-5003D01*
X-6310Y-5156D01*
X-6326Y-5315D01*
X-6310Y-5474D01*
X-6264Y-5626D01*
X-6189Y-5767D01*
X-6087Y-5890D01*
X-5964Y-5992D01*
X-5823Y-6067D01*
X-5671Y-6113D01*
X-5512Y-6129D01*
X-5353Y-6113D01*
X-5200Y-6067D01*
X-5060Y-5992D01*
X-4936Y-5890D01*
X-4835Y-5767D01*
X-4760Y-5626D01*
X-4714Y-5474D01*
X-4698Y-5315D01*
X-4714Y-5156D01*
X-4760Y-5003D01*
X-4835Y-4863D01*
X-4936Y-4739D01*
X-5060Y-4638D01*
X-5200Y-4563D01*
X-5353Y-4517D01*
X-5512Y-4501D01*
D02*
G37*
G36*
X-2673Y-5252D02*
X-2766Y-5264D01*
X-2852Y-5300D01*
X-2927Y-5357D01*
X-2984Y-5431D01*
X-3019Y-5517D01*
X-3032Y-5610D01*
X-3019Y-5703D01*
X-2984Y-5789D01*
X-2927Y-5864D01*
X-2852Y-5921D01*
X-2766Y-5956D01*
X-2673Y-5969D01*
X-2580Y-5956D01*
X-2494Y-5921D01*
X-2420Y-5864D01*
X-2363Y-5789D01*
X-2327Y-5703D01*
X-2315Y-5610D01*
X-2327Y-5517D01*
X-2363Y-5431D01*
X-2420Y-5357D01*
X-2494Y-5300D01*
X-2580Y-5264D01*
X-2673Y-5252D01*
D02*
G37*
G36*
X-3673D02*
X-3766Y-5264D01*
X-3852Y-5300D01*
X-3927Y-5357D01*
X-3984Y-5431D01*
X-4019Y-5517D01*
X-4032Y-5610D01*
X-4019Y-5703D01*
X-3984Y-5789D01*
X-3927Y-5864D01*
X-3852Y-5921D01*
X-3766Y-5956D01*
X-3673Y-5969D01*
X-3580Y-5956D01*
X-3494Y-5921D01*
X-3420Y-5864D01*
X-3363Y-5789D01*
X-3327Y-5703D01*
X-3315Y-5610D01*
X-3327Y-5517D01*
X-3363Y-5431D01*
X-3420Y-5357D01*
X-3494Y-5300D01*
X-3580Y-5264D01*
X-3673Y-5252D01*
D02*
G37*
G36*
X4020Y5969D02*
X3927Y5956D01*
X3841Y5921D01*
X3766Y5864D01*
X3709Y5789D01*
X3674Y5703D01*
X3661Y5610D01*
X3674Y5517D01*
X3709Y5431D01*
X3766Y5357D01*
X3841Y5300D01*
X3927Y5264D01*
X4020Y5252D01*
X4112Y5264D01*
X4199Y5300D01*
X4273Y5357D01*
X4330Y5431D01*
X4366Y5517D01*
X4378Y5610D01*
X4366Y5703D01*
X4330Y5789D01*
X4273Y5864D01*
X4199Y5921D01*
X4112Y5956D01*
X4020Y5969D01*
D02*
G37*
G36*
X0Y10399D02*
X-118Y10383D01*
X-229Y10337D01*
X-324Y10265D01*
X-396Y10170D01*
X-442Y10059D01*
X-458Y9941D01*
X-442Y9822D01*
X-396Y9712D01*
X-324Y9617D01*
X-229Y9545D01*
X-118Y9499D01*
X0Y9483D01*
X118Y9499D01*
X229Y9545D01*
X324Y9617D01*
X396Y9712D01*
X442Y9822D01*
X458Y9941D01*
X442Y10059D01*
X396Y10170D01*
X324Y10265D01*
X229Y10337D01*
X118Y10383D01*
X0Y10399D01*
D02*
G37*
G36*
X5020Y6969D02*
X4927Y6956D01*
X4841Y6921D01*
X4766Y6864D01*
X4709Y6789D01*
X4674Y6703D01*
X4661Y6610D01*
X4674Y6517D01*
X4709Y6431D01*
X4766Y6357D01*
X4841Y6300D01*
X4927Y6264D01*
X5020Y6252D01*
X5112Y6264D01*
X5199Y6300D01*
X5273Y6357D01*
X5330Y6431D01*
X5366Y6517D01*
X5378Y6610D01*
X5366Y6703D01*
X5330Y6789D01*
X5273Y6864D01*
X5199Y6921D01*
X5112Y6956D01*
X5020Y6969D01*
D02*
G37*
G36*
X5512Y11444D02*
X5353Y11428D01*
X5200Y11382D01*
X5060Y11307D01*
X4936Y11205D01*
X4835Y11082D01*
X4760Y10941D01*
X4714Y10789D01*
X4698Y10630D01*
X4714Y10471D01*
X4760Y10318D01*
X4835Y10178D01*
X4936Y10054D01*
X5060Y9953D01*
X5200Y9878D01*
X5353Y9832D01*
X5512Y9816D01*
X5671Y9832D01*
X5823Y9878D01*
X5964Y9953D01*
X6087Y10054D01*
X6189Y10178D01*
X6264Y10318D01*
X6310Y10471D01*
X6326Y10630D01*
X6310Y10789D01*
X6264Y10941D01*
X6189Y11082D01*
X6087Y11205D01*
X5964Y11307D01*
X5823Y11382D01*
X5671Y11428D01*
X5512Y11444D01*
D02*
G37*
G36*
X-5512D02*
X-5671Y11428D01*
X-5823Y11382D01*
X-5964Y11307D01*
X-6087Y11205D01*
X-6189Y11082D01*
X-6264Y10941D01*
X-6310Y10789D01*
X-6326Y10630D01*
X-6310Y10471D01*
X-6264Y10318D01*
X-6189Y10178D01*
X-6087Y10054D01*
X-5964Y9953D01*
X-5823Y9878D01*
X-5671Y9832D01*
X-5512Y9816D01*
X-5353Y9832D01*
X-5200Y9878D01*
X-5060Y9953D01*
X-4936Y10054D01*
X-4835Y10178D01*
X-4760Y10318D01*
X-4714Y10471D01*
X-4698Y10630D01*
X-4714Y10789D01*
X-4760Y10941D01*
X-4835Y11082D01*
X-4936Y11205D01*
X-5060Y11307D01*
X-5200Y11382D01*
X-5353Y11428D01*
X-5512Y11444D01*
D02*
G37*
G36*
X-5020Y6937D02*
X-5112Y6925D01*
X-5199Y6889D01*
X-5273Y6832D01*
X-5330Y6758D01*
X-5366Y6671D01*
X-5378Y6579D01*
X-5366Y6486D01*
X-5330Y6400D01*
X-5273Y6325D01*
X-5199Y6268D01*
X-5112Y6233D01*
X-5020Y6220D01*
X-4927Y6233D01*
X-4841Y6268D01*
X-4766Y6325D01*
X-4709Y6400D01*
X-4674Y6486D01*
X-4661Y6579D01*
X-4674Y6671D01*
X-4709Y6758D01*
X-4766Y6832D01*
X-4841Y6889D01*
X-4927Y6925D01*
X-5020Y6937D01*
D02*
G37*
G36*
X5375Y5966D02*
X4664D01*
Y5255D01*
X5375D01*
Y5966D01*
D02*
G37*
G36*
X4020Y6969D02*
X3927Y6956D01*
X3841Y6921D01*
X3766Y6864D01*
X3709Y6789D01*
X3674Y6703D01*
X3661Y6610D01*
X3674Y6517D01*
X3709Y6431D01*
X3766Y6357D01*
X3841Y6300D01*
X3927Y6264D01*
X4020Y6252D01*
X4112Y6264D01*
X4199Y6300D01*
X4273Y6357D01*
X4330Y6431D01*
X4366Y6517D01*
X4378Y6610D01*
X4366Y6703D01*
X4330Y6789D01*
X4273Y6864D01*
X4199Y6921D01*
X4112Y6956D01*
X4020Y6969D01*
D02*
G37*
G36*
X-4020Y6937D02*
X-4112Y6925D01*
X-4199Y6889D01*
X-4273Y6832D01*
X-4330Y6758D01*
X-4366Y6671D01*
X-4378Y6579D01*
X-4366Y6486D01*
X-4330Y6400D01*
X-4273Y6325D01*
X-4199Y6268D01*
X-4112Y6233D01*
X-4020Y6220D01*
X-3927Y6233D01*
X-3841Y6268D01*
X-3766Y6325D01*
X-3709Y6400D01*
X-3674Y6486D01*
X-3661Y6579D01*
X-3674Y6671D01*
X-3709Y6758D01*
X-3766Y6832D01*
X-3841Y6889D01*
X-3927Y6925D01*
X-4020Y6937D01*
D02*
G37*
%LPD*%
D26*
X-1280Y4380D02*
X-935D01*
X-1575Y4675D02*
Y5217D01*
Y4675D02*
Y4724D01*
Y4675D02*
X-1280Y4380D01*
X-935D02*
X-689Y4134D01*
X-6186Y783D02*
X-5807Y1161D01*
X-6186Y-330D02*
Y783D01*
Y-330D02*
X-6004Y-512D01*
X-1280Y492D02*
Y984D01*
X-1181Y1083D01*
D28*
X-1246Y1575D02*
Y1909D01*
X-3372Y4035D02*
X-1246Y1909D01*
X-3740Y4035D02*
X-3372D01*
X-3740Y4685D02*
X-1083Y2028D01*
X-3740Y4685D02*
Y4724D01*
X5201Y-3445D02*
X5406Y-3240D01*
X1575Y-2120D02*
Y-1452D01*
X2900Y-3445D02*
X5201D01*
X1575Y-2120D02*
X2900Y-3445D01*
X3025Y-3740D02*
X5406D01*
X1142Y-1019D02*
Y-945D01*
Y-1019D02*
X1575Y-1452D01*
X886Y-1601D02*
Y-1280D01*
Y-1601D02*
X3025Y-3740D01*
X626Y-2076D02*
X1795Y-3246D01*
Y-4613D02*
X2331Y-5149D01*
X1795Y-4613D02*
Y-3246D01*
X-1083Y-5413D02*
X404Y-3927D01*
X626Y-2076D02*
Y504D01*
X1194Y831D02*
Y1046D01*
X1042Y679D02*
X1194Y831D01*
X827Y679D02*
X1042D01*
X738Y768D02*
X827Y679D01*
X522Y768D02*
X738D01*
X626Y504D02*
X630Y508D01*
X863Y1378D02*
X1194Y1046D01*
X370Y615D02*
X522Y768D01*
X827Y1378D02*
X863D01*
X232Y2461D02*
X2264D01*
X413Y939D02*
X934D01*
X-108Y1244D02*
X108D01*
X-157Y1364D02*
X355D01*
X-53Y1638D02*
X934D01*
X-103Y1758D02*
X998D01*
X934Y1638D02*
X2572Y0D01*
X998Y1758D02*
X2264Y492D01*
X3248D01*
X2572Y0D02*
X3248D01*
X404Y-3927D02*
Y366D01*
X370Y400D02*
X404Y366D01*
X370Y400D02*
Y615D01*
X-574Y1287D02*
X-103Y1758D01*
X108Y1244D02*
X260Y1092D01*
Y1092D02*
Y1092D01*
Y1092D02*
X413Y939D01*
X355Y1364D02*
X407Y1313D01*
X-849Y673D02*
X-157Y1364D01*
X-524Y1167D02*
X-53Y1638D01*
X-681Y1547D02*
X232Y2461D01*
X-789Y1287D02*
X-574D01*
X-839Y1167D02*
X-524D01*
X-1083Y1581D02*
X-789Y1287D01*
X-1246Y1575D02*
X-839Y1167D01*
X-1083Y1581D02*
Y2028D01*
X-711Y641D02*
X-108Y1244D01*
X-591Y-2795D02*
X-236Y-3150D01*
X-394Y-3543D02*
Y-3346D01*
X-711Y-3029D02*
X-394Y-3346D01*
X-591Y394D02*
X0Y984D01*
X-849Y-3507D02*
Y673D01*
X-711Y-3029D02*
Y641D01*
X-591Y-2795D02*
Y394D01*
D35*
X5020Y5610D02*
D03*
X-5020Y7579D02*
D03*
D36*
X4020Y5610D02*
D03*
X5020Y6610D02*
D03*
X4020D02*
D03*
X5020Y7610D02*
D03*
X4020D02*
D03*
X-2673Y-5610D02*
D03*
X-3673D02*
D03*
X-5720Y266D02*
D03*
Y3081D02*
D03*
X-4020Y7579D02*
D03*
X-5020Y6579D02*
D03*
X-4020D02*
D03*
X-5020Y5579D02*
D03*
X-4020D02*
D03*
D37*
X-1673Y-5610D02*
D03*
D39*
X0Y9941D02*
D03*
D40*
X-5807Y2185D02*
D03*
Y1673D02*
D03*
Y1161D02*
D03*
X-5413Y1417D02*
D03*
Y1929D02*
D03*
D41*
X5406Y-1740D02*
D03*
X5906D02*
D03*
X5406Y-2240D02*
D03*
X5906D02*
D03*
X5406Y-2740D02*
D03*
X5906D02*
D03*
X5406Y-3240D02*
D03*
X5906D02*
D03*
X5406Y-3740D02*
D03*
D42*
X5906D02*
D03*
D43*
X-3937Y-3937D02*
D03*
X3150Y2461D02*
D03*
X1772Y2953D02*
D03*
X4921D02*
D03*
X3445Y-5807D02*
D03*
X1969D02*
D03*
X4921Y-4429D02*
D03*
Y-2953D02*
D03*
X-1969Y-4921D02*
D03*
X-4528Y-1673D02*
D03*
Y6102D02*
D03*
X-4823Y1969D02*
D03*
X-4921Y0D02*
D03*
X-689Y8169D02*
D03*
X1476Y8071D02*
D03*
X-3740Y4035D02*
D03*
X-3740Y4724D02*
D03*
X-1575Y5217D02*
D03*
X-689Y4134D02*
D03*
X2331Y-5149D02*
D03*
X4429Y-1673D02*
D03*
X3248Y-2894D02*
D03*
X-1870Y-2461D02*
D03*
X-3642Y-3346D02*
D03*
X-4429Y-886D02*
D03*
X-6004Y-512D02*
D03*
X1870Y8071D02*
D03*
X1083D02*
D03*
X1142Y-945D02*
D03*
X-1083Y-5413D02*
D03*
X886Y-1280D02*
D03*
X-1181Y-3740D02*
D03*
X-849Y-3507D02*
D03*
X-394Y-3543D02*
D03*
X144Y-3578D02*
D03*
X1181Y-4154D02*
D03*
X-236Y5177D02*
D03*
X236D02*
D03*
X244Y5650D02*
D03*
X934Y939D02*
D03*
X630Y508D02*
D03*
X2264Y2461D02*
D03*
X827Y1378D02*
D03*
X3602Y1083D02*
D03*
X3248Y492D02*
D03*
Y0D02*
D03*
X-1575Y3937D02*
D03*
X335Y3248D02*
D03*
X1378Y4035D02*
D03*
X2953Y5709D02*
D03*
X-1909Y6201D02*
D03*
X-886Y6594D02*
D03*
X-236Y5650D02*
D03*
X-1240Y7874D02*
D03*
X-1929D02*
D03*
X-2618D02*
D03*
X2461Y8071D02*
D03*
Y7382D02*
D03*
X-2815Y2461D02*
D03*
X407Y1313D02*
D03*
X0Y984D02*
D03*
X-681Y1547D02*
D03*
X-2165Y2461D02*
D03*
Y3937D02*
D03*
X-2992Y7382D02*
D03*
X-1280Y492D02*
D03*
X-1181Y1083D02*
D03*
X-2559Y-2461D02*
D03*
X-1969Y-3937D02*
D03*
X-2953D02*
D03*
X-591Y-5807D02*
D03*
X-4331Y-5906D02*
D03*
X-6102Y-4331D02*
D03*
X-1378Y-394D02*
D03*
Y-1378D02*
D03*
X0Y-787D02*
D03*
Y0D02*
D03*
X-6142Y2657D02*
D03*
X-3346Y295D02*
D03*
X-5286Y2657D02*
D03*
X-6102Y3937D02*
D03*
Y5906D02*
D03*
Y7874D02*
D03*
X-5906Y8858D02*
D03*
X-4921D02*
D03*
X-2953Y9843D02*
D03*
X-1969D02*
D03*
X-2953Y10827D02*
D03*
X-1969D02*
D03*
X-3937D02*
D03*
Y9843D02*
D03*
X2953Y10827D02*
D03*
X1969Y10827D02*
D03*
X2953Y8858D02*
D03*
X3937Y9843D02*
D03*
Y10827D02*
D03*
Y8858D02*
D03*
X4921D02*
D03*
X5906D02*
D03*
X-1969D02*
D03*
X-2953D02*
D03*
X-3937D02*
D03*
X1969Y9843D02*
D03*
X2953D02*
D03*
X1969Y8858D02*
D03*
X5906Y7874D02*
D03*
Y5906D02*
D03*
Y3445D02*
D03*
Y1969D02*
D03*
Y0D02*
D03*
X4921D02*
D03*
X3937Y1969D02*
D03*
X3740Y2953D02*
D03*
X5906Y984D02*
D03*
X2953Y3937D02*
D03*
Y4921D02*
D03*
D44*
X-236Y-3150D02*
D03*
D45*
X-1000Y8941D02*
D03*
X1000D02*
D03*
Y10941D02*
D03*
X-1000D02*
D03*
M02*
