G04 Layer_Physical_Order=1*
G04 Layer_Color=255*
%FSLAX24Y24*%
%MOIN*%
G70*
G01*
G75*
%ADD10R,0.0354X0.0315*%
%ADD11R,0.1850X0.1350*%
%ADD12R,0.0236X0.0571*%
%ADD13R,0.0571X0.0236*%
%ADD14R,0.0315X0.0354*%
%ADD15R,0.0551X0.0591*%
%ADD16R,0.0472X0.0551*%
%ADD17R,0.0394X0.0138*%
%ADD18O,0.0079X0.0354*%
%ADD19O,0.0354X0.0079*%
%ADD20R,0.0886X0.0886*%
%ADD21O,0.0827X0.0118*%
%ADD22O,0.0118X0.0827*%
%ADD23R,0.0472X0.0315*%
G04:AMPARAMS|DCode=24|XSize=24mil|YSize=9mil|CornerRadius=4.5mil|HoleSize=0mil|Usage=FLASHONLY|Rotation=270.000|XOffset=0mil|YOffset=0mil|HoleType=Round|Shape=RoundedRectangle|*
%AMROUNDEDRECTD24*
21,1,0.0240,0.0000,0,0,270.0*
21,1,0.0150,0.0090,0,0,270.0*
1,1,0.0090,0.0000,-0.0075*
1,1,0.0090,0.0000,0.0075*
1,1,0.0090,0.0000,0.0075*
1,1,0.0090,0.0000,-0.0075*
%
%ADD24ROUNDEDRECTD24*%
G04:AMPARAMS|DCode=25|XSize=24mil|YSize=9mil|CornerRadius=4.5mil|HoleSize=0mil|Usage=FLASHONLY|Rotation=180.000|XOffset=0mil|YOffset=0mil|HoleType=Round|Shape=RoundedRectangle|*
%AMROUNDEDRECTD25*
21,1,0.0240,0.0000,0,0,180.0*
21,1,0.0150,0.0090,0,0,180.0*
1,1,0.0090,-0.0075,0.0000*
1,1,0.0090,0.0075,0.0000*
1,1,0.0090,0.0075,0.0000*
1,1,0.0090,-0.0075,0.0000*
%
%ADD25ROUNDEDRECTD25*%
%ADD26C,0.0060*%
%ADD27C,0.0120*%
%ADD28C,0.0200*%
%ADD29C,0.0250*%
%ADD30C,0.0400*%
%ADD31C,0.0080*%
%ADD32C,0.0100*%
%ADD33C,0.0080*%
%ADD34R,0.0394X0.0295*%
%ADD35R,0.0591X0.0591*%
%ADD36C,0.0591*%
%ADD37R,0.0591X0.0591*%
%ADD38C,0.0866*%
%ADD39C,0.0787*%
%ADD40C,0.0370*%
%ADD41C,0.0394*%
%ADD42R,0.0394X0.0394*%
%ADD43C,0.0340*%
%ADD44C,0.0320*%
G36*
X5840Y11489D02*
X5967Y11451D01*
X6084Y11389D01*
X6186Y11305D01*
X6270Y11202D01*
X6333Y11085D01*
X6371Y10959D01*
X6384Y10828D01*
X6384Y10827D01*
Y-5512D01*
X6384Y-5513D01*
X6371Y-5644D01*
X6333Y-5770D01*
X6270Y-5887D01*
X6186Y-5990D01*
X6084Y-6074D01*
X5967Y-6136D01*
X5840Y-6174D01*
X5710Y-6187D01*
X5709Y-6187D01*
X-5709D01*
X-5710Y-6187D01*
X-5840Y-6174D01*
X-5967Y-6136D01*
X-6084Y-6074D01*
X-6186Y-5990D01*
X-6270Y-5887D01*
X-6333Y-5770D01*
X-6371Y-5644D01*
X-6384Y-5513D01*
X-6384Y-5512D01*
Y10827D01*
X-6384Y10828D01*
X-6371Y10959D01*
X-6333Y11085D01*
X-6270Y11202D01*
X-6186Y11305D01*
X-6084Y11389D01*
X-5967Y11451D01*
X-5840Y11489D01*
X-5710Y11502D01*
X-5709Y11502D01*
X5709D01*
X5710Y11502D01*
X5840Y11489D01*
D02*
G37*
%LPC*%
G36*
X-4479Y-491D02*
X-4681D01*
X-4587Y-573D01*
X-4568Y-585D01*
X-4553Y-593D01*
X-4540Y-597D01*
X-4531Y-597D01*
X-4524Y-593D01*
X-4702Y-811D01*
X-4699Y-803D01*
X-4700Y-793D01*
X-4704Y-780D01*
X-4713Y-764D01*
X-4725Y-745D01*
X-4741Y-724D01*
X-4785Y-673D01*
X-4805Y-653D01*
Y-836D01*
X-4625D01*
X-4644Y-814D01*
X-4669Y-787D01*
X-4528Y-646D01*
X-4514Y-659D01*
X-4479Y-689D01*
Y-491D01*
D02*
G37*
G36*
X2600Y5659D02*
X2393D01*
Y5432D01*
X2600D01*
Y5659D01*
D02*
G37*
G36*
X-4754Y-491D02*
X-4805D01*
Y-558D01*
X-4754Y-491D01*
D02*
G37*
G36*
X-3121Y-4578D02*
X-3328D01*
Y-4805D01*
X-3121D01*
Y-4578D01*
D02*
G37*
G36*
X-4054Y1928D02*
X-4261D01*
Y1701D01*
X-4054D01*
Y1928D01*
D02*
G37*
G36*
X2293Y5659D02*
X2085D01*
Y5432D01*
X2293D01*
Y5659D01*
D02*
G37*
G36*
X-5365Y-562D02*
X-5592D01*
Y-769D01*
X-5365D01*
Y-562D01*
D02*
G37*
G36*
X-4479Y-764D02*
X-4551Y-836D01*
X-4479D01*
Y-764D01*
D02*
G37*
G36*
X-5139Y-562D02*
X-5265D01*
Y-769D01*
X-5038D01*
Y-617D01*
X-5041Y-617D01*
X-5067Y-621D01*
X-5089Y-626D01*
X-5107Y-632D01*
X-5121Y-639D01*
X-5131Y-648D01*
X-5137Y-657D01*
X-5139Y-668D01*
Y-562D01*
D02*
G37*
G36*
X-3121Y-4250D02*
X-3328D01*
Y-4478D01*
X-3121D01*
Y-4250D01*
D02*
G37*
G36*
X-6004Y-277D02*
X-6090Y-294D01*
X-6241D01*
Y-729D01*
X-6089D01*
X-6004Y-746D01*
X-5919Y-729D01*
X-5767D01*
Y-294D01*
X-5918D01*
X-6004Y-277D01*
D02*
G37*
G36*
X2293Y5986D02*
X2085D01*
Y5759D01*
X2293D01*
Y5986D01*
D02*
G37*
G36*
X-1625Y6131D02*
X-1733D01*
X-1738Y6127D01*
X-1754Y6114D01*
X-1788Y6082D01*
Y6131D01*
X-1852D01*
Y5924D01*
X-1625D01*
Y6131D01*
D02*
G37*
G36*
X-5038Y-254D02*
X-5208D01*
X-5208Y-258D01*
X-5203Y-284D01*
X-5196Y-306D01*
X-5188Y-324D01*
X-5178Y-338D01*
X-5166Y-348D01*
X-5153Y-354D01*
X-5139Y-356D01*
X-5265D01*
Y-462D01*
X-5139D01*
Y-356D01*
X-5137Y-366D01*
X-5131Y-376D01*
X-5121Y-384D01*
X-5107Y-392D01*
X-5089Y-398D01*
X-5067Y-403D01*
X-5041Y-407D01*
X-5038Y-407D01*
Y-254D01*
D02*
G37*
G36*
X-2314Y6439D02*
X-2541D01*
Y6231D01*
X-2314D01*
Y6439D01*
D02*
G37*
G36*
X-1625Y6439D02*
X-1852D01*
Y6231D01*
X-1799D01*
X-1789Y6232D01*
X-1788Y6232D01*
Y6320D01*
X-1771Y6303D01*
X-1738Y6274D01*
X-1723Y6263D01*
X-1707Y6253D01*
X-1693Y6245D01*
X-1679Y6239D01*
X-1665Y6234D01*
X-1653Y6232D01*
X-1645Y6231D01*
X-1625D01*
Y6439D01*
D02*
G37*
G36*
X-1987Y6439D02*
X-2214D01*
Y6231D01*
X-1987D01*
Y6439D01*
D02*
G37*
G36*
X-1298Y6131D02*
X-1525D01*
Y5924D01*
X-1298D01*
Y6131D01*
D02*
G37*
G36*
X-4361Y1928D02*
X-4568D01*
Y1701D01*
X-4361D01*
Y1928D01*
D02*
G37*
G36*
X2600Y5986D02*
X2393D01*
Y5759D01*
X2600D01*
Y5986D01*
D02*
G37*
G36*
X-5421Y-254D02*
X-5592D01*
Y-462D01*
X-5365D01*
Y-356D01*
X-5491D01*
X-5476Y-354D01*
X-5464Y-348D01*
X-5452Y-338D01*
X-5442Y-324D01*
X-5434Y-306D01*
X-5427Y-284D01*
X-5422Y-258D01*
X-5421Y-254D01*
D02*
G37*
G36*
X-1987Y6131D02*
X-2214D01*
Y5924D01*
X-1987D01*
Y6131D01*
D02*
G37*
G36*
X-2314D02*
X-2541D01*
Y5924D01*
X-2314D01*
Y6131D01*
D02*
G37*
G36*
X-3200Y-2393D02*
X-3427D01*
Y-2600D01*
X-3200D01*
Y-2393D01*
D02*
G37*
G36*
X2411Y-1731D02*
X2183D01*
Y-1938D01*
X2411D01*
Y-1731D01*
D02*
G37*
G36*
X2738D02*
X2511D01*
Y-1938D01*
X2738D01*
Y-1731D01*
D02*
G37*
G36*
X1741Y3296D02*
X1534D01*
Y3069D01*
X1741D01*
Y3296D01*
D02*
G37*
G36*
X2049D02*
X1841D01*
Y3069D01*
X2049D01*
Y3296D01*
D02*
G37*
G36*
X-2872Y-2393D02*
X-2973D01*
X-2974Y-2397D01*
X-2975Y-2403D01*
Y-2393D01*
X-3100D01*
Y-2600D01*
X-2872D01*
Y-2393D01*
D02*
G37*
G36*
X1682Y4044D02*
X1396D01*
Y3719D01*
X1682D01*
Y4044D01*
D02*
G37*
G36*
X-3200Y-2085D02*
X-3427D01*
Y-2293D01*
X-3200D01*
Y-2085D01*
D02*
G37*
G36*
X-2872D02*
X-3100D01*
Y-2293D01*
X-2975D01*
Y-2283D01*
X-2974Y-2288D01*
X-2973Y-2293D01*
X-2872D01*
Y-2085D01*
D02*
G37*
G36*
X1741Y3624D02*
X1534D01*
Y3396D01*
X1741D01*
Y3624D01*
D02*
G37*
G36*
X2049D02*
X1841D01*
Y3396D01*
X2049D01*
Y3624D01*
D02*
G37*
G36*
X-1298Y-2774D02*
X-1505D01*
Y-3001D01*
X-1298D01*
Y-2774D01*
D02*
G37*
G36*
X-1698Y-1330D02*
X-2205D01*
X-2582D01*
Y-1334D01*
X-2589Y-1330D01*
X-2711D01*
X-2709Y-1342D01*
X-2685Y-1378D01*
X-2709Y-1414D01*
X-2711Y-1426D01*
X-2589D01*
X-2582Y-1422D01*
Y-1426D01*
X-2205D01*
X-1698D01*
X-1701Y-1414D01*
X-1725Y-1378D01*
X-1701Y-1342D01*
X-1698Y-1330D01*
D02*
G37*
G36*
X2738Y4911D02*
X2452D01*
Y4585D01*
X2738D01*
Y4911D01*
D02*
G37*
G36*
X-3266Y-3396D02*
X-3592D01*
Y-3742D01*
X-3266D01*
Y-3396D01*
D02*
G37*
G36*
X2738Y5336D02*
X2452D01*
Y5011D01*
X2738D01*
Y5336D01*
D02*
G37*
G36*
X-3692Y-3396D02*
X-4017D01*
Y-3742D01*
X-3692D01*
Y-3396D01*
D02*
G37*
G36*
X-2255Y-1526D02*
X-2582D01*
Y-1531D01*
X-2589Y-1526D01*
X-2711D01*
X-2709Y-1538D01*
X-2674Y-1591D01*
X-2621Y-1626D01*
X-2559Y-1639D01*
X-2255D01*
Y-1546D01*
X-2265Y-1542D01*
X-2282Y-1538D01*
X-2299Y-1535D01*
X-2315Y-1534D01*
X-2255D01*
Y-1526D01*
D02*
G37*
G36*
X-3692Y-2951D02*
X-4017D01*
Y-3296D01*
X-3837D01*
X-3856Y-3274D01*
X-3882Y-3248D01*
X-3740Y-3106D01*
X-3727Y-3120D01*
X-3692Y-3150D01*
Y-2951D01*
D02*
G37*
G36*
X-1605Y-2774D02*
X-1813D01*
Y-3001D01*
X-1605D01*
Y-2774D01*
D02*
G37*
G36*
X-1698Y-1526D02*
X-2155D01*
Y-1534D01*
X-1976D01*
X-1992Y-1535D01*
X-2004Y-1538D01*
X-2012Y-1542D01*
X-2017Y-1548D01*
X-2019Y-1556D01*
X-2017Y-1565D01*
X-2012Y-1576D01*
X-2004Y-1589D01*
X-1992Y-1604D01*
X-1976Y-1620D01*
X-2146D01*
X-2155Y-1612D01*
Y-1639D01*
X-1850D01*
X-1788Y-1626D01*
X-1736Y-1591D01*
X-1701Y-1538D01*
X-1698Y-1526D01*
D02*
G37*
G36*
X-3692Y-3225D02*
X-3763Y-3296D01*
X-3692D01*
Y-3225D01*
D02*
G37*
G36*
X-3266Y-2951D02*
X-3592D01*
Y-3296D01*
X-3266D01*
Y-2951D01*
D02*
G37*
G36*
X-2314Y7411D02*
X-2541D01*
Y7203D01*
X-2314D01*
Y7411D01*
D02*
G37*
G36*
X1505Y-5530D02*
X1298D01*
Y-5757D01*
X1505D01*
Y-5530D01*
D02*
G37*
G36*
X-2089Y7411D02*
X-2214D01*
Y7203D01*
X-1987D01*
Y7400D01*
X-1991Y7400D01*
X-2011Y7398D01*
X-2030Y7395D01*
X-2045Y7391D01*
X-2059Y7386D01*
X-2070Y7379D01*
X-2078Y7371D01*
X-2084Y7362D01*
X-2088Y7352D01*
X-2089Y7341D01*
Y7411D01*
D02*
G37*
G36*
X-1298Y7718D02*
X-1525D01*
Y7511D01*
X-1298D01*
Y7718D01*
D02*
G37*
G36*
X1131Y7411D02*
X904D01*
Y7203D01*
X1131D01*
Y7411D01*
D02*
G37*
G36*
X-936Y7167D02*
X-1163D01*
Y7068D01*
X-1147Y7117D01*
X-1137Y7108D01*
X-1117Y7091D01*
X-1108Y7084D01*
X-1100Y7079D01*
X-1091Y7074D01*
X-1083Y7070D01*
X-1076Y7068D01*
X-1069Y7066D01*
X-1062Y7066D01*
X-1061Y6959D01*
X-936D01*
Y7167D01*
D02*
G37*
G36*
X1458Y7718D02*
X1231D01*
Y7511D01*
X1458D01*
Y7718D01*
D02*
G37*
G36*
X1131D02*
X904D01*
Y7511D01*
X1131D01*
Y7718D01*
D02*
G37*
G36*
X1813Y-5530D02*
X1605D01*
Y-5757D01*
X1813D01*
Y-5530D01*
D02*
G37*
G36*
X-609Y7167D02*
X-836D01*
Y6959D01*
X-609D01*
Y7167D01*
D02*
G37*
G36*
X2147Y7411D02*
X1920D01*
Y7203D01*
X2147D01*
Y7411D01*
D02*
G37*
G36*
X1813Y-5857D02*
X1605D01*
Y-6084D01*
X1813D01*
Y-5857D01*
D02*
G37*
G36*
X-1298Y7411D02*
X-1408D01*
X-1408Y7409D01*
X-1401Y7393D01*
X-1391Y7375D01*
X-1377Y7355D01*
X-1360Y7334D01*
X-1314Y7285D01*
X-1419Y7219D01*
X-1442Y7242D01*
X-1485Y7279D01*
X-1504Y7292D01*
X-1522Y7302D01*
X-1525Y7303D01*
Y7203D01*
X-1298D01*
Y7411D01*
D02*
G37*
G36*
X-1454D02*
X-1525D01*
Y7355D01*
X-1454Y7411D01*
D02*
G37*
G36*
X-1625D02*
X-1750D01*
Y7341D01*
X-1751Y7352D01*
X-1754Y7362D01*
X-1760Y7371D01*
X-1769Y7379D01*
X-1780Y7386D01*
X-1793Y7391D01*
X-1809Y7395D01*
X-1827Y7398D01*
X-1848Y7400D01*
X-1852Y7400D01*
Y7203D01*
X-1625D01*
Y7411D01*
D02*
G37*
G36*
X1458D02*
X1231D01*
Y7203D01*
X1458D01*
Y7411D01*
D02*
G37*
G36*
X-1625Y7718D02*
X-1852D01*
Y7521D01*
X-1848Y7521D01*
X-1827Y7523D01*
X-1809Y7526D01*
X-1793Y7530D01*
X-1780Y7536D01*
X-1769Y7542D01*
X-1760Y7550D01*
X-1754Y7559D01*
X-1751Y7569D01*
X-1750Y7581D01*
Y7511D01*
X-1625D01*
Y7718D01*
D02*
G37*
G36*
X-2314D02*
X-2541D01*
Y7511D01*
X-2314D01*
Y7718D01*
D02*
G37*
G36*
X1505Y-5857D02*
X1298D01*
Y-6084D01*
X1505D01*
Y-5857D01*
D02*
G37*
G36*
X1820Y7411D02*
X1593D01*
Y7203D01*
X1820D01*
Y7411D01*
D02*
G37*
G36*
X-326Y-5857D02*
X-533D01*
Y-6084D01*
X-326D01*
Y-5857D01*
D02*
G37*
G36*
X809Y8021D02*
X512D01*
X215D01*
Y7902D01*
Y7865D01*
X512D01*
X809D01*
Y7902D01*
Y8021D01*
D02*
G37*
G36*
X-18Y-5857D02*
X-226D01*
Y-6084D01*
X-18D01*
Y-5857D01*
D02*
G37*
G36*
X0Y10399D02*
X-118Y10383D01*
X-229Y10337D01*
X-324Y10265D01*
X-396Y10170D01*
X-442Y10059D01*
X-458Y9941D01*
X-442Y9822D01*
X-396Y9712D01*
X-325Y9619D01*
X-324Y9617D01*
X-313Y9604D01*
X-304Y9591D01*
X-296Y9575D01*
X-289Y9556D01*
X-282Y9533D01*
X-276Y9506D01*
X-271Y9477D01*
X-266Y9405D01*
X-265Y9364D01*
X-262Y9358D01*
Y8672D01*
X-382Y8552D01*
X-424Y8497D01*
X-450Y8434D01*
X-459Y8366D01*
X-459Y8363D01*
Y8071D01*
X-454Y8059D01*
Y7942D01*
X-492Y7940D01*
X-513Y7940D01*
X-519Y7937D01*
X-748D01*
X-795Y7928D01*
X-835Y7901D01*
X-972Y7764D01*
X-999Y7724D01*
X-1006Y7689D01*
X-1010Y7678D01*
X-1123D01*
Y7243D01*
X-649D01*
Y7678D01*
X-605Y7693D01*
X-520D01*
X-514Y7690D01*
X-454Y7689D01*
Y7430D01*
X-303D01*
X-302Y7423D01*
X-302Y7410D01*
X-299Y7403D01*
Y7154D01*
X-302Y7147D01*
X-302Y7134D01*
X-303Y7127D01*
X-395D01*
Y6653D01*
X-102D01*
Y6474D01*
X-152Y6448D01*
X-158Y6452D01*
X-197Y6460D01*
X-236Y6452D01*
X-268Y6430D01*
X-322D01*
X-355Y6452D01*
X-394Y6460D01*
X-432Y6452D01*
X-465Y6430D01*
X-487Y6397D01*
X-495Y6358D01*
Y6352D01*
X-496Y6352D01*
X-505Y6349D01*
X-517Y6347D01*
X-533Y6346D01*
X-554Y6345D01*
X-560Y6343D01*
X-579D01*
X-583Y6345D01*
X-591Y6343D01*
X-598Y6345D01*
X-602Y6343D01*
X-835D01*
X-883Y6391D01*
X-923Y6418D01*
X-952Y6423D01*
X-1057Y6529D01*
X-1063Y6557D01*
X-1089Y6597D01*
X-1098Y6606D01*
X-1079Y6652D01*
X-936D01*
Y6859D01*
X-1061D01*
X-1061Y6778D01*
X-1062Y6795D01*
X-1066Y6813D01*
X-1072Y6832D01*
X-1081Y6852D01*
X-1085Y6859D01*
X-1163D01*
Y6736D01*
X-1209Y6717D01*
X-1259Y6766D01*
X-1259Y6768D01*
X-1263Y6771D01*
X-1264Y6772D01*
X-1266Y6778D01*
X-1311Y6825D01*
X-1325Y6843D01*
X-1336Y6859D01*
X-1338Y6862D01*
Y6890D01*
X-1334Y6896D01*
X-1336Y6901D01*
X-1334Y6906D01*
X-1338Y6914D01*
Y7127D01*
X-1812D01*
Y7042D01*
X-1814Y7041D01*
X-1823Y7038D01*
X-1835Y7036D01*
X-1851Y7035D01*
X-1872Y7034D01*
X-1878Y7032D01*
X-1960D01*
X-1966Y7034D01*
X-1987Y7035D01*
X-2003Y7036D01*
X-2016Y7038D01*
X-2025Y7041D01*
X-2027Y7042D01*
Y7127D01*
X-2501D01*
Y6692D01*
X-2027D01*
Y6777D01*
X-2025Y6778D01*
X-2016Y6780D01*
X-2003Y6783D01*
X-1987Y6784D01*
X-1966Y6785D01*
X-1960Y6787D01*
X-1878D01*
X-1872Y6785D01*
X-1851Y6784D01*
X-1835Y6783D01*
X-1823Y6780D01*
X-1814Y6778D01*
X-1812Y6777D01*
Y6692D01*
X-1607D01*
X-1605Y6690D01*
X-1600Y6691D01*
X-1596Y6689D01*
X-1584Y6692D01*
X-1550D01*
X-1539Y6686D01*
X-1525Y6676D01*
X-1486Y6643D01*
X-1464Y6622D01*
X-1458Y6619D01*
X-1327Y6489D01*
X-1348Y6439D01*
X-1525D01*
Y6231D01*
X-1298D01*
Y6352D01*
X-1248Y6373D01*
X-1092Y6218D01*
X-1053Y6191D01*
X-1024Y6186D01*
X-972Y6134D01*
X-933Y6107D01*
X-886Y6098D01*
X-752D01*
X-748Y6096D01*
X-745Y6097D01*
X-742Y6096D01*
X-721Y6095D01*
X-706Y6094D01*
X-693Y6092D01*
X-687Y6090D01*
X-686Y6069D01*
X-685Y6048D01*
X-682Y6041D01*
Y6004D01*
X-675Y5969D01*
X-655Y5939D01*
X-632Y5915D01*
Y5742D01*
X-669Y5712D01*
X-945D01*
X-956Y5709D01*
X-960Y5711D01*
X-970Y5707D01*
X-974Y5708D01*
X-1019Y5705D01*
X-1029Y5705D01*
X-1037Y5702D01*
X-1330D01*
X-1337Y5705D01*
X-1338Y5705D01*
Y5847D01*
X-1812D01*
Y5412D01*
X-1779D01*
X-1754Y5362D01*
X-1791Y5306D01*
X-1809Y5217D01*
X-1800Y5169D01*
X-1812Y5119D01*
D01*
X-1829Y5076D01*
X-1835Y5074D01*
X-1856Y5071D01*
X-1912Y5067D01*
X-1956Y5069D01*
X-1982Y5071D01*
X-2004Y5074D01*
X-2020Y5078D01*
X-2027Y5080D01*
Y5119D01*
X-2074D01*
X-2079Y5122D01*
X-2080Y5122D01*
X-2080Y5123D01*
X-2084Y5131D01*
X-2089Y5146D01*
X-2093Y5165D01*
X-2098Y5224D01*
X-2099Y5259D01*
X-2101Y5263D01*
Y5268D01*
X-2099Y5272D01*
X-2098Y5309D01*
X-2096Y5339D01*
X-2093Y5365D01*
X-2089Y5385D01*
X-2084Y5400D01*
X-2080Y5409D01*
X-2080Y5409D01*
X-2079Y5409D01*
X-2074Y5412D01*
X-2027D01*
Y5465D01*
X-2023Y5474D01*
X-2025Y5478D01*
X-2023Y5483D01*
X-2027Y5488D01*
Y5847D01*
X-2501D01*
Y5488D01*
X-2504Y5483D01*
X-2503Y5478D01*
X-2505Y5474D01*
X-2501Y5465D01*
Y5412D01*
X-2454D01*
X-2449Y5409D01*
X-2448Y5409D01*
X-2448Y5409D01*
X-2444Y5400D01*
X-2439Y5385D01*
X-2435Y5366D01*
X-2429Y5308D01*
X-2429Y5272D01*
X-2427Y5268D01*
Y5263D01*
X-2429Y5259D01*
X-2429Y5223D01*
X-2431Y5192D01*
X-2435Y5166D01*
X-2439Y5146D01*
X-2444Y5131D01*
X-2448Y5123D01*
X-2448Y5122D01*
X-2449Y5122D01*
X-2454Y5119D01*
X-2501D01*
Y5067D01*
X-2505Y5058D01*
X-2503Y5054D01*
X-2504Y5049D01*
X-2501Y5044D01*
Y4684D01*
X-2104D01*
X-2100Y4681D01*
X-2094Y4683D01*
X-2088Y4680D01*
X-2079Y4684D01*
X-2027D01*
Y4723D01*
X-2020Y4725D01*
X-2004Y4729D01*
X-1983Y4732D01*
X-1927Y4736D01*
X-1883Y4734D01*
X-1857Y4732D01*
X-1849Y4731D01*
X-1837Y4696D01*
X-1838Y4678D01*
X-1842Y4675D01*
X-1907Y4610D01*
X-1927Y4580D01*
X-1934Y4545D01*
Y2005D01*
X-1927Y1970D01*
X-1915Y1952D01*
X-1953Y1920D01*
X-2334Y2300D01*
Y3102D01*
X-2330Y3109D01*
X-2330Y3109D01*
X-2263D01*
Y3584D01*
X-2568D01*
X-2575Y3586D01*
X-2580Y3584D01*
X-2599Y3600D01*
X-2611Y3611D01*
X-2619Y3614D01*
X-3192Y4187D01*
Y4465D01*
X-3142Y4486D01*
X-2891Y4235D01*
X-2838Y4200D01*
X-2776Y4187D01*
X-2646D01*
X-2642Y4185D01*
X-2572Y4183D01*
X-2546Y4181D01*
X-2524Y4178D01*
X-2508Y4174D01*
X-2501Y4172D01*
Y4133D01*
X-2449D01*
X-2440Y4129D01*
X-2434Y4132D01*
X-2428Y4130D01*
X-2424Y4133D01*
X-2027D01*
Y4568D01*
X-2424D01*
X-2428Y4571D01*
X-2434Y4569D01*
X-2440Y4572D01*
X-2449Y4568D01*
X-2501D01*
Y4529D01*
X-2508Y4527D01*
X-2524Y4523D01*
X-2545Y4520D01*
X-2605Y4516D01*
X-2641Y4515D01*
X-2645Y4514D01*
X-2708D01*
X-2888Y4694D01*
Y6254D01*
X-2900Y6317D01*
X-2936Y6369D01*
X-3716Y7149D01*
X-3769Y7185D01*
X-3831Y7197D01*
X-5208D01*
X-5271Y7185D01*
X-5324Y7149D01*
X-5590Y6883D01*
X-5626Y6830D01*
X-5638Y6767D01*
Y3806D01*
X-5626Y3744D01*
X-5590Y3691D01*
X-5131Y3231D01*
X-5078Y3196D01*
X-5015Y3183D01*
X-4673D01*
X-4669Y3182D01*
X-4632Y3181D01*
X-4602Y3179D01*
X-4576Y3176D01*
X-4555Y3171D01*
X-4541Y3167D01*
X-4532Y3163D01*
X-4532Y3163D01*
X-4532Y3162D01*
X-4529Y3156D01*
Y3109D01*
X-4476D01*
X-4467Y3106D01*
X-4444Y3077D01*
X-4436Y3063D01*
X-4436Y3049D01*
X-4433Y3043D01*
Y2971D01*
X-4436Y2965D01*
X-4436Y2944D01*
X-4438Y2928D01*
X-4440Y2915D01*
X-4442Y2906D01*
X-4443Y2904D01*
X-4529D01*
Y2430D01*
X-4452D01*
X-4448Y2428D01*
X-4435Y2427D01*
X-4425Y2425D01*
X-4412Y2420D01*
X-4398Y2414D01*
X-4381Y2405D01*
X-4363Y2393D01*
X-4344Y2379D01*
X-4299Y2340D01*
X-4276Y2317D01*
X-4274Y2305D01*
X-4315Y2256D01*
X-4568D01*
Y2028D01*
X-4311D01*
X-4042D01*
X-4018Y2041D01*
X-4008Y2041D01*
X-3977Y2002D01*
Y1965D01*
X-3979Y1957D01*
X-3977Y1954D01*
Y1950D01*
X-3978Y1948D01*
X-3977Y1948D01*
Y1741D01*
X-3764D01*
X-3757Y1738D01*
X-3751Y1739D01*
X-3746Y1738D01*
X-3740Y1741D01*
X-3712D01*
X-3709Y1740D01*
X-3694Y1729D01*
X-3653Y1694D01*
X-3629Y1671D01*
X-3623Y1668D01*
X-3621Y1667D01*
X-3618Y1662D01*
X-3617Y1662D01*
X-2951Y996D01*
X-2911Y970D01*
X-2864Y960D01*
X-2756D01*
X-2737Y936D01*
X-2589D01*
X-2582Y940D01*
Y936D01*
X-2205D01*
X-1674D01*
X-1654Y961D01*
X-1450D01*
X-1445Y959D01*
X-1431Y958D01*
X-1421Y957D01*
X-1411Y955D01*
X-1401Y952D01*
X-1392Y949D01*
X-1383Y945D01*
X-1375Y940D01*
X-1366Y934D01*
X-1358Y927D01*
X-1348Y917D01*
X-1347Y917D01*
X-1347Y917D01*
X-1271Y866D01*
X-1181Y848D01*
X-1091Y866D01*
X-1015Y917D01*
X-1015Y917D01*
X-1014Y917D01*
X-1004Y927D01*
X-996Y934D01*
X-987Y940D01*
X-979Y945D01*
X-970Y949D01*
X-961Y952D01*
X-952Y955D01*
X-942Y957D01*
X-931Y958D01*
X-924Y958D01*
X-355Y389D01*
X-315Y363D01*
X-268Y353D01*
X-116D01*
X241Y-4D01*
X281Y-31D01*
X328Y-40D01*
X760D01*
X807Y-31D01*
X847Y-4D01*
X1540Y689D01*
X1567Y729D01*
X1576Y776D01*
Y1191D01*
X1642Y1257D01*
X1696Y1240D01*
X1701Y1217D01*
X1736Y1165D01*
X1754Y1153D01*
X1738Y1129D01*
X1729Y1083D01*
X1738Y1036D01*
X1748Y1021D01*
X1760Y984D01*
X1748Y947D01*
X1738Y932D01*
X1729Y886D01*
X1738Y839D01*
X1765Y800D01*
Y775D01*
X1738Y735D01*
X1729Y689D01*
X1738Y643D01*
X1765Y603D01*
Y578D01*
X1738Y539D01*
X1729Y492D01*
X1738Y446D01*
X1748Y430D01*
X1760Y394D01*
X1748Y357D01*
X1738Y342D01*
X1729Y295D01*
X1738Y249D01*
X1765Y209D01*
Y184D01*
X1738Y145D01*
X1729Y98D01*
X1738Y52D01*
X1748Y37D01*
X1760Y-0D01*
X1748Y-37D01*
X1738Y-52D01*
X1729Y-98D01*
X1738Y-145D01*
X1765Y-184D01*
Y-209D01*
X1738Y-249D01*
X1729Y-295D01*
X1738Y-342D01*
X1765Y-381D01*
Y-406D01*
X1738Y-446D01*
X1729Y-492D01*
X1738Y-539D01*
X1748Y-554D01*
X1760Y-591D01*
X1748Y-627D01*
X1738Y-643D01*
X1729Y-689D01*
X1738Y-735D01*
X1765Y-775D01*
Y-800D01*
X1738Y-839D01*
X1729Y-886D01*
X1738Y-932D01*
X1748Y-948D01*
X1760Y-984D01*
X1748Y-1021D01*
X1738Y-1036D01*
X1729Y-1083D01*
X1738Y-1129D01*
X1765Y-1169D01*
Y-1194D01*
X1738Y-1233D01*
X1729Y-1280D01*
X1738Y-1326D01*
X1765Y-1365D01*
Y-1391D01*
X1738Y-1430D01*
X1729Y-1476D01*
X1738Y-1523D01*
X1765Y-1562D01*
X1804Y-1589D01*
X1850Y-1598D01*
X2559D01*
X2577Y-1594D01*
X2582Y-1596D01*
X2593Y-1591D01*
X2605Y-1589D01*
X2607Y-1587D01*
X2616Y-1586D01*
X2622Y-1582D01*
X2626Y-1580D01*
X2630Y-1578D01*
X2635Y-1577D01*
X2639Y-1575D01*
X2644Y-1574D01*
X2649Y-1573D01*
X2663Y-1571D01*
X2670Y-1571D01*
X2677Y-1568D01*
X2905D01*
X2912Y-1571D01*
X2912Y-1571D01*
Y-1969D01*
X3377D01*
X3386Y-1983D01*
X3360Y-2033D01*
X2859D01*
X2824Y-2040D01*
X2794Y-2060D01*
X2784Y-2070D01*
X2738Y-2051D01*
Y-2038D01*
X2183D01*
Y-2246D01*
X2451D01*
X2469Y-2296D01*
X2448Y-2318D01*
X2447Y-2319D01*
X2445Y-2319D01*
X2440Y-2319D01*
X2435Y-2322D01*
X2223D01*
Y-2444D01*
X2223Y-2444D01*
X2216Y-2448D01*
X1849D01*
X1628Y-2226D01*
X1625Y-2219D01*
X1618Y-2211D01*
X1613Y-2206D01*
X1609Y-2200D01*
X1605Y-2195D01*
X1603Y-2191D01*
X1601Y-2187D01*
X1600Y-2185D01*
X1600Y-2182D01*
X1599Y-2180D01*
X1599Y-2175D01*
X1598Y-2173D01*
Y-1850D01*
X1589Y-1804D01*
X1562Y-1765D01*
X1523Y-1738D01*
X1476Y-1729D01*
X1430Y-1738D01*
X1406Y-1754D01*
X1394Y-1736D01*
X1342Y-1701D01*
X1324Y-1697D01*
X1319Y-1702D01*
X1322Y-1697D01*
X1291Y-1691D01*
X1274Y-1658D01*
X1271Y-1639D01*
X1296Y-1615D01*
X1322Y-1575D01*
X1332Y-1529D01*
Y-1338D01*
X1518Y-1152D01*
X1545Y-1112D01*
X1554Y-1065D01*
Y-825D01*
X1545Y-778D01*
X1518Y-738D01*
X1087Y-307D01*
X1047Y-281D01*
X1001Y-271D01*
X-500D01*
X-506Y-269D01*
X-524Y-268D01*
X-536Y-266D01*
X-544Y-263D01*
X-549Y-260D01*
X-553Y-258D01*
X-556Y-254D01*
X-558Y-249D01*
X-561Y-241D01*
X-563Y-229D01*
X-564Y-210D01*
X-566Y-206D01*
X-565Y-201D01*
X-567Y-199D01*
Y295D01*
X-576Y342D01*
X-602Y382D01*
X-799Y579D01*
X-839Y605D01*
X-886Y614D01*
X-1011D01*
X-1016Y617D01*
X-1030Y618D01*
X-1040Y619D01*
X-1050Y621D01*
X-1060Y623D01*
X-1069Y627D01*
X-1078Y631D01*
X-1086Y636D01*
X-1095Y642D01*
X-1103Y649D01*
X-1113Y658D01*
X-1115Y659D01*
X-1190Y709D01*
X-1280Y727D01*
X-1369Y709D01*
X-1445Y658D01*
X-1496Y582D01*
X-1514Y492D01*
X-1496Y402D01*
X-1445Y326D01*
X-1369Y275D01*
X-1280Y258D01*
X-1190Y275D01*
X-1115Y325D01*
X-1113Y326D01*
X-1103Y336D01*
X-1095Y342D01*
X-1086Y348D01*
X-1078Y353D01*
X-1069Y358D01*
X-1060Y361D01*
X-1050Y364D01*
X-1040Y366D01*
X-1030Y367D01*
X-1016Y367D01*
X-1011Y370D01*
X-936D01*
X-811Y245D01*
Y-379D01*
X-813Y-381D01*
X-811Y-388D01*
Y-400D01*
X-813Y-406D01*
X-811Y-408D01*
Y-691D01*
X-813Y-693D01*
X-812Y-698D01*
X-814Y-702D01*
X-815Y-721D01*
X-817Y-733D01*
X-820Y-741D01*
X-822Y-746D01*
X-825Y-750D01*
X-828Y-752D01*
X-834Y-755D01*
X-842Y-758D01*
X-854Y-760D01*
X-872Y-761D01*
X-878Y-763D01*
X-1701D01*
X-1734Y-713D01*
X-1729Y-689D01*
X-1738Y-643D01*
X-1748Y-627D01*
X-1760Y-591D01*
X-1748Y-554D01*
X-1738Y-539D01*
X-1729Y-492D01*
X-1738Y-446D01*
X-1765Y-406D01*
Y-381D01*
X-1738Y-342D01*
X-1729Y-295D01*
X-1738Y-249D01*
X-1765Y-209D01*
Y-184D01*
X-1738Y-145D01*
X-1729Y-98D01*
X-1738Y-52D01*
X-1748Y-37D01*
X-1760Y-0D01*
X-1748Y37D01*
X-1738Y52D01*
X-1729Y98D01*
X-1738Y145D01*
X-1765Y184D01*
Y209D01*
X-1738Y249D01*
X-1729Y295D01*
X-1738Y342D01*
X-1748Y357D01*
X-1760Y394D01*
X-1748Y430D01*
X-1738Y446D01*
X-1729Y492D01*
X-1738Y539D01*
X-1765Y578D01*
Y603D01*
X-1738Y643D01*
X-1729Y689D01*
X-1738Y735D01*
X-1754Y759D01*
X-1736Y771D01*
X-1701Y824D01*
X-1698Y836D01*
X-2205D01*
X-2582D01*
Y831D01*
X-2589Y836D01*
X-2715D01*
X-2738Y799D01*
X-2747Y791D01*
X-2911D01*
X-3461Y1342D01*
X-3494Y1364D01*
X-3519Y1369D01*
X-3532Y1375D01*
X-3542Y1375D01*
Y1507D01*
X-3977D01*
Y1033D01*
X-3542D01*
Y1069D01*
X-3496Y1088D01*
X-3318Y911D01*
X-3339Y861D01*
X-3592D01*
X-3631Y853D01*
X-3664Y831D01*
X-3667Y828D01*
X-3965D01*
X-3969Y844D01*
X-3989Y874D01*
X-4097Y983D01*
X-4094Y1033D01*
X-4094Y1033D01*
X-4094Y1033D01*
Y1507D01*
X-4529D01*
Y1033D01*
X-4406D01*
X-4406Y1032D01*
X-4403Y1025D01*
Y965D01*
X-4396Y929D01*
X-4376Y900D01*
X-4346Y880D01*
X-4336Y878D01*
X-4341Y828D01*
X-4529D01*
Y685D01*
X-4529Y685D01*
X-4536Y682D01*
X-4686D01*
X-5210Y1205D01*
X-5212Y1212D01*
X-5218Y1220D01*
X-5220Y1223D01*
X-5222Y1226D01*
X-5222Y1229D01*
X-5222Y1233D01*
X-5222Y1239D01*
X-5220Y1247D01*
X-5216Y1257D01*
X-5210Y1270D01*
X-5201Y1286D01*
X-5201Y1286D01*
X-5201Y1286D01*
X-5199Y1296D01*
X-5183Y1322D01*
X-5164Y1417D01*
X-5183Y1513D01*
X-5237Y1594D01*
X-5317Y1648D01*
X-5318Y1653D01*
Y1694D01*
X-5317Y1699D01*
X-5237Y1752D01*
X-5183Y1834D01*
X-5164Y1929D01*
X-5183Y2025D01*
X-5237Y2106D01*
X-5318Y2160D01*
X-5413Y2179D01*
X-5509Y2160D01*
X-5590Y2106D01*
X-5644Y2025D01*
X-5663Y1929D01*
X-5663Y1927D01*
X-5704Y1899D01*
X-5711Y1904D01*
X-5807Y1923D01*
X-5903Y1904D01*
X-5984Y1850D01*
X-6038Y1769D01*
X-6057Y1673D01*
X-6057Y1672D01*
X-6057Y1672D01*
X-6057Y1647D01*
X-6060Y1603D01*
X-6062Y1586D01*
X-6066Y1571D01*
X-6069Y1558D01*
X-6073Y1548D01*
X-6076Y1541D01*
X-6080Y1536D01*
X-6085Y1529D01*
X-6087Y1523D01*
X-6157Y1453D01*
X-6177Y1423D01*
X-6184Y1388D01*
Y1043D01*
X-6177Y1008D01*
X-6157Y978D01*
X-5990Y811D01*
X-5960Y792D01*
X-5925Y785D01*
X-5304D01*
X-4768Y248D01*
X-4738Y229D01*
X-4703Y222D01*
X-4112D01*
X-4077Y229D01*
X-4047Y248D01*
X-3989Y307D01*
X-3969Y337D01*
X-3965Y353D01*
X-3542D01*
Y657D01*
X-3319D01*
X-3082Y420D01*
X-3049Y398D01*
X-3010Y390D01*
X-2861D01*
X-2841Y340D01*
X-3188Y-7D01*
X-3535D01*
X-3542Y-3D01*
X-3542Y-3D01*
Y139D01*
X-3977D01*
Y-237D01*
X-4024Y-256D01*
X-4063Y-217D01*
X-4066Y-210D01*
X-4076Y-199D01*
X-4083Y-191D01*
X-4088Y-184D01*
X-4092Y-179D01*
X-4094Y-176D01*
Y-168D01*
X-4091Y-155D01*
X-4094Y-152D01*
Y139D01*
X-4529D01*
Y-336D01*
X-4226D01*
X-4216Y-339D01*
X-4211Y-337D01*
X-4210Y-337D01*
X-4192Y-352D01*
X-4180Y-363D01*
X-4173Y-366D01*
X-4109Y-430D01*
Y-491D01*
X-4379D01*
Y-886D01*
X-4429D01*
Y-936D01*
X-4805D01*
Y-1189D01*
X-5038D01*
X-5074Y-1158D01*
X-5078Y-1148D01*
Y-846D01*
X-5482D01*
X-5491Y-842D01*
X-5500Y-846D01*
X-5552D01*
Y-863D01*
X-5670Y-871D01*
X-5702Y-870D01*
X-5758Y-866D01*
X-5767Y-864D01*
Y-846D01*
X-5819D01*
X-5828Y-842D01*
X-5837Y-846D01*
X-6241D01*
Y-1201D01*
X-6243Y-1203D01*
X-6242Y-1211D01*
X-6245Y-1219D01*
X-6241Y-1228D01*
Y-1280D01*
X-6209D01*
X-6205Y-1295D01*
X-6202Y-1317D01*
X-6194Y-1424D01*
X-6194Y-1470D01*
X-6193Y-1473D01*
Y-2736D01*
X-6178Y-2808D01*
X-6137Y-2870D01*
X-6076Y-2910D01*
X-6056Y-2914D01*
X-5947Y-3024D01*
X-5966Y-3070D01*
X-6162D01*
Y-3343D01*
X-6173Y-3396D01*
X-6162Y-3449D01*
Y-3761D01*
X-5897D01*
X-5735Y-3913D01*
X-5732Y-3915D01*
X-5072Y-4575D01*
X-5102Y-4616D01*
X-5200Y-4563D01*
X-5353Y-4517D01*
X-5512Y-4501D01*
X-5671Y-4517D01*
X-5823Y-4563D01*
X-5964Y-4638D01*
X-6087Y-4739D01*
X-6189Y-4863D01*
X-6264Y-5003D01*
X-6310Y-5156D01*
X-6326Y-5315D01*
X-6310Y-5474D01*
X-6264Y-5626D01*
X-6189Y-5767D01*
X-6087Y-5890D01*
X-5964Y-5992D01*
X-5823Y-6067D01*
X-5671Y-6113D01*
X-5512Y-6129D01*
X-5353Y-6113D01*
X-5200Y-6067D01*
X-5060Y-5992D01*
X-4936Y-5890D01*
X-4835Y-5767D01*
X-4760Y-5626D01*
X-4714Y-5474D01*
X-4698Y-5315D01*
X-4714Y-5156D01*
X-4760Y-5003D01*
X-4835Y-4863D01*
X-4925Y-4753D01*
X-4899Y-4707D01*
X-4852Y-4716D01*
X-4032D01*
X-4029Y-4717D01*
X-3983Y-4718D01*
X-3906Y-4722D01*
X-3877Y-4725D01*
X-3862Y-4728D01*
Y-4934D01*
X-3863Y-4948D01*
X-3862Y-4951D01*
X-3863Y-4954D01*
X-3862Y-4957D01*
Y-5161D01*
X-3863Y-5164D01*
X-3864Y-5192D01*
X-3866Y-5216D01*
X-3869Y-5239D01*
X-3874Y-5260D01*
X-3880Y-5279D01*
X-3887Y-5297D01*
X-3895Y-5313D01*
X-3904Y-5327D01*
X-3914Y-5341D01*
X-3928Y-5355D01*
X-3930Y-5361D01*
X-3984Y-5431D01*
X-4019Y-5517D01*
X-4032Y-5610D01*
X-4019Y-5703D01*
X-3984Y-5789D01*
X-3927Y-5864D01*
X-3852Y-5921D01*
X-3766Y-5956D01*
X-3673Y-5969D01*
X-3580Y-5956D01*
X-3494Y-5921D01*
X-3420Y-5864D01*
X-3363Y-5789D01*
X-3327Y-5703D01*
X-3315Y-5610D01*
X-3327Y-5517D01*
X-3363Y-5431D01*
X-3417Y-5361D01*
X-3419Y-5355D01*
X-3432Y-5341D01*
X-3442Y-5327D01*
X-3451Y-5313D01*
X-3460Y-5297D01*
X-3466Y-5279D01*
X-3472Y-5260D01*
X-3477Y-5239D01*
X-3480Y-5216D01*
X-3483Y-5192D01*
X-3483Y-5164D01*
X-3485Y-5161D01*
Y-4959D01*
X-3483Y-4956D01*
X-3480Y-4868D01*
X-3476Y-4835D01*
X-3472Y-4808D01*
X-3466Y-4787D01*
X-3460Y-4773D01*
X-3457Y-4768D01*
X-3456Y-4768D01*
X-3451Y-4765D01*
X-3405D01*
Y-4713D01*
X-3401Y-4704D01*
X-3403Y-4699D01*
X-3402Y-4693D01*
X-3405Y-4689D01*
Y-4290D01*
X-3760D01*
X-3762Y-4289D01*
X-3771Y-4290D01*
X-3778Y-4287D01*
X-3787Y-4290D01*
X-3840D01*
Y-4323D01*
X-3854Y-4326D01*
X-3876Y-4330D01*
X-3983Y-4337D01*
X-4029Y-4338D01*
X-4032Y-4339D01*
X-4774D01*
X-5306Y-3807D01*
X-5287Y-3761D01*
X-5058D01*
Y-3070D01*
X-5343D01*
X-5351Y-3066D01*
X-5392Y-3065D01*
X-5423Y-3062D01*
X-5433Y-3061D01*
X-5442Y-3059D01*
X-5449Y-3057D01*
X-5451Y-3056D01*
X-5453Y-3054D01*
X-5455Y-3053D01*
X-5456Y-3053D01*
X-5457Y-3053D01*
X-5628Y-2882D01*
X-5609Y-2836D01*
X-5432D01*
Y-2705D01*
X-5429Y-2705D01*
X-5362Y-2700D01*
X-5334Y-2700D01*
X-5328Y-2697D01*
X-5262Y-2684D01*
X-5201Y-2643D01*
X-5127Y-2569D01*
X-5080Y-2588D01*
Y-2785D01*
X-5066Y-2858D01*
X-5025Y-2919D01*
X-4929Y-3015D01*
X-4928Y-3018D01*
X-4831Y-3122D01*
X-4796Y-3165D01*
X-4770Y-3202D01*
X-4765Y-3211D01*
Y-3312D01*
X-4766Y-3313D01*
X-4765Y-3319D01*
Y-3319D01*
X-4767Y-3324D01*
X-4765Y-3331D01*
Y-3702D01*
X-4094D01*
Y-2991D01*
X-4256D01*
X-4257Y-2990D01*
X-4263Y-2991D01*
X-4370D01*
X-4384Y-2985D01*
X-4415Y-2967D01*
X-4450Y-2943D01*
X-4533Y-2873D01*
X-4580Y-2829D01*
X-4583Y-2828D01*
X-4703Y-2707D01*
Y-2438D01*
X-4702Y-2436D01*
X-4701Y-2390D01*
X-4697Y-2352D01*
X-4692Y-2319D01*
X-4685Y-2294D01*
X-4677Y-2275D01*
X-4670Y-2262D01*
X-4663Y-2255D01*
X-4657Y-2251D01*
X-4651Y-2249D01*
X-4635Y-2247D01*
X-4631Y-2245D01*
X-4546D01*
Y-1889D01*
X-4839D01*
X-4892Y-1878D01*
X-4945Y-1889D01*
X-5237D01*
Y-2120D01*
X-5259Y-2150D01*
X-5344Y-2248D01*
X-5382Y-2288D01*
X-5432Y-2268D01*
Y-2145D01*
X-5788D01*
X-5815Y-2106D01*
Y-1473D01*
X-5814Y-1470D01*
X-5814Y-1424D01*
X-5810Y-1347D01*
X-5806Y-1318D01*
X-5803Y-1295D01*
X-5799Y-1280D01*
X-5767D01*
Y-1263D01*
X-5649Y-1255D01*
X-5617Y-1256D01*
X-5561Y-1260D01*
X-5552Y-1262D01*
Y-1280D01*
X-5500D01*
X-5491Y-1284D01*
X-5482Y-1280D01*
X-5261D01*
X-5258Y-1283D01*
X-5248Y-1281D01*
X-5238Y-1287D01*
X-5221Y-1299D01*
X-5182Y-1331D01*
X-5163Y-1349D01*
X-5148Y-1355D01*
X-5132Y-1366D01*
X-5097Y-1373D01*
X-4112D01*
X-4077Y-1366D01*
X-4047Y-1346D01*
X-3952Y-1251D01*
X-3946Y-1241D01*
X-3841D01*
X-3837Y-1243D01*
X-3829Y-1244D01*
X-3827Y-1247D01*
X-3823Y-1254D01*
X-3818Y-1266D01*
X-3813Y-1284D01*
X-3810Y-1306D01*
X-3890Y-1386D01*
X-3894Y-1388D01*
X-3922Y-1413D01*
X-3947Y-1435D01*
X-3972Y-1454D01*
X-3997Y-1470D01*
X-4021Y-1483D01*
X-4044Y-1494D01*
X-4067Y-1502D01*
X-4089Y-1508D01*
X-4111Y-1511D01*
X-4136Y-1512D01*
X-4141Y-1515D01*
X-4312D01*
Y-1871D01*
X-3621D01*
Y-1595D01*
X-3620Y-1592D01*
X-3618Y-1588D01*
X-3613Y-1582D01*
X-3545Y-1505D01*
X-3525Y-1484D01*
X-3521Y-1476D01*
X-3491Y-1431D01*
X-3481Y-1378D01*
X-3477Y-1370D01*
X-3476Y-1336D01*
X-3474Y-1308D01*
X-3473Y-1306D01*
X-3429Y-1286D01*
X-3419Y-1286D01*
X-3417Y-1288D01*
X-3393Y-1311D01*
X-3387Y-1314D01*
X-3385Y-1315D01*
X-3382Y-1320D01*
X-3380Y-1320D01*
X-3272Y-1429D01*
Y-1508D01*
X-3275Y-1513D01*
X-3275Y-1534D01*
X-3276Y-1550D01*
X-3279Y-1562D01*
X-3281Y-1571D01*
X-3282Y-1573D01*
X-3283Y-1574D01*
X-3387D01*
Y-2009D01*
X-2912D01*
Y-1574D01*
X-3017D01*
X-3017Y-1573D01*
X-3018Y-1571D01*
X-3021Y-1562D01*
X-3023Y-1550D01*
X-3024Y-1534D01*
X-3025Y-1513D01*
X-3027Y-1508D01*
Y-1378D01*
X-3037Y-1331D01*
X-3063Y-1291D01*
X-3233Y-1121D01*
X-3236Y-1115D01*
X-3258Y-1092D01*
X-3275Y-1073D01*
X-3283Y-1063D01*
X-3282Y-1051D01*
X-3278Y-1034D01*
X-3260Y-1012D01*
X-3259Y-1011D01*
X-3246Y-1011D01*
X-3240Y-1008D01*
X-2759D01*
Y-1083D01*
X-2752Y-1118D01*
X-2732Y-1148D01*
X-2702Y-1167D01*
X-2709Y-1217D01*
X-2709Y-1217D01*
X-2711Y-1230D01*
X-2589D01*
X-2582Y-1225D01*
Y-1230D01*
X-2205D01*
X-1698D01*
X-1701Y-1217D01*
X-1736Y-1165D01*
X-1754Y-1153D01*
X-1738Y-1129D01*
X-1729Y-1083D01*
X-1734Y-1058D01*
X-1701Y-1008D01*
X-878D01*
X-872Y-1011D01*
X-854Y-1012D01*
X-842Y-1014D01*
X-834Y-1016D01*
X-828Y-1019D01*
X-825Y-1022D01*
X-822Y-1025D01*
X-820Y-1030D01*
X-817Y-1039D01*
X-815Y-1050D01*
X-814Y-1069D01*
X-812Y-1074D01*
X-813Y-1079D01*
X-811Y-1081D01*
Y-1701D01*
X-861Y-1734D01*
X-886Y-1729D01*
X-932Y-1738D01*
X-948Y-1748D01*
X-984Y-1760D01*
X-1021Y-1748D01*
X-1036Y-1738D01*
X-1083Y-1729D01*
X-1129Y-1738D01*
X-1169Y-1765D01*
X-1194D01*
X-1233Y-1738D01*
X-1280Y-1729D01*
X-1326Y-1738D01*
X-1341Y-1748D01*
X-1378Y-1760D01*
X-1415Y-1748D01*
X-1430Y-1738D01*
X-1476Y-1729D01*
X-1523Y-1738D01*
X-1562Y-1765D01*
X-1589Y-1804D01*
X-1598Y-1850D01*
Y-2559D01*
X-1589Y-2606D01*
X-1562Y-2645D01*
X-1523Y-2671D01*
X-1476Y-2680D01*
X-1430Y-2671D01*
X-1415Y-2661D01*
X-1378Y-2649D01*
X-1341Y-2661D01*
X-1326Y-2671D01*
X-1280Y-2680D01*
X-1233Y-2671D01*
X-1194Y-2645D01*
X-1169D01*
X-1129Y-2671D01*
X-1083Y-2680D01*
X-1036Y-2671D01*
X-1021Y-2661D01*
X-984Y-2649D01*
X-948Y-2661D01*
X-932Y-2671D01*
X-886Y-2680D01*
X-861Y-2676D01*
X-811Y-2708D01*
Y-2814D01*
X-1221D01*
Y-3205D01*
X-1240Y-3226D01*
X-1298D01*
Y-3101D01*
X-1555D01*
X-1813D01*
Y-3226D01*
X-2165D01*
X-2212Y-3235D01*
X-2252Y-3262D01*
X-2735Y-3745D01*
X-2761Y-3784D01*
X-2770Y-3831D01*
Y-4233D01*
X-2813Y-4250D01*
X-2820Y-4250D01*
X-3021D01*
Y-4528D01*
Y-4805D01*
X-2820D01*
X-2813Y-4805D01*
X-2770Y-4822D01*
Y-5130D01*
X-2773Y-5134D01*
X-2773Y-5135D01*
X-2773Y-5136D01*
X-2774Y-5155D01*
X-2777Y-5171D01*
X-2783Y-5187D01*
X-2791Y-5205D01*
X-2801Y-5224D01*
X-2815Y-5244D01*
X-2832Y-5264D01*
X-2877Y-5310D01*
X-2904Y-5333D01*
X-2909Y-5343D01*
X-2927Y-5357D01*
X-2984Y-5431D01*
X-3019Y-5517D01*
X-3032Y-5610D01*
X-3019Y-5703D01*
X-2984Y-5789D01*
X-2927Y-5864D01*
X-2852Y-5921D01*
X-2766Y-5956D01*
X-2673Y-5969D01*
X-2580Y-5956D01*
X-2494Y-5921D01*
X-2420Y-5864D01*
X-2363Y-5789D01*
X-2327Y-5703D01*
X-2315Y-5613D01*
X-2313Y-5607D01*
X-2313Y-5561D01*
X-2312Y-5520D01*
X-2305Y-5447D01*
X-2301Y-5419D01*
X-2295Y-5394D01*
X-2289Y-5374D01*
X-2283Y-5359D01*
X-2277Y-5350D01*
X-2269Y-5340D01*
X-2267Y-5334D01*
X-2206Y-5273D01*
X-1441D01*
X-1406Y-5266D01*
X-1376Y-5246D01*
X-1185Y-5055D01*
X-996Y-5244D01*
X-1021Y-5290D01*
X-1083Y-5277D01*
X-1172Y-5295D01*
X-1248Y-5346D01*
X-1299Y-5422D01*
X-1317Y-5512D01*
X-1299Y-5602D01*
X-1248Y-5678D01*
X-1172Y-5728D01*
X-1083Y-5746D01*
X-993Y-5728D01*
X-918Y-5679D01*
X-917Y-5678D01*
X-884Y-5647D01*
X-871Y-5637D01*
X-859Y-5627D01*
X-847Y-5620D01*
X-837Y-5614D01*
X-829Y-5610D01*
X-822Y-5608D01*
X-817Y-5607D01*
X-809Y-5607D01*
X-803Y-5604D01*
X-533D01*
Y-5757D01*
X-276D01*
X-18D01*
Y-5641D01*
X32Y-5616D01*
X47Y-5626D01*
X55Y-5635D01*
X58Y-5643D01*
Y-6044D01*
X493D01*
Y-5570D01*
X292D01*
X287Y-5567D01*
X282Y-5567D01*
X280Y-5567D01*
X277Y-5566D01*
X274Y-5565D01*
X271Y-5563D01*
X266Y-5561D01*
X261Y-5558D01*
X256Y-5554D01*
X250Y-5549D01*
X243Y-5542D01*
X236Y-5539D01*
X176Y-5480D01*
X181Y-5436D01*
X227Y-5418D01*
X228Y-5419D01*
X258Y-5439D01*
X293Y-5446D01*
X808D01*
X882Y-5520D01*
X862Y-5570D01*
X786D01*
Y-6044D01*
X1221D01*
Y-5570D01*
X1099D01*
X1099Y-5569D01*
X1096Y-5562D01*
Y-5512D01*
X1089Y-5477D01*
X1069Y-5447D01*
X913Y-5291D01*
X913Y-5285D01*
X929Y-5241D01*
X2051D01*
X2057Y-5244D01*
X2065Y-5244D01*
X2070Y-5245D01*
X2077Y-5248D01*
X2086Y-5251D01*
X2096Y-5257D01*
X2107Y-5264D01*
X2119Y-5273D01*
X2149Y-5299D01*
X2164Y-5314D01*
X2165Y-5315D01*
X2165Y-5315D01*
X2242Y-5366D01*
X2331Y-5384D01*
X2421Y-5366D01*
X2490Y-5320D01*
X2538Y-5316D01*
X2538Y-5316D01*
X2538Y-5316D01*
X3052D01*
X3071Y-5362D01*
X2953Y-5480D01*
X2946Y-5483D01*
X2939Y-5489D01*
X2933Y-5494D01*
X2928Y-5498D01*
X2924Y-5501D01*
X2919Y-5503D01*
X2916Y-5505D01*
X2913Y-5506D01*
X2910Y-5507D01*
X2908Y-5507D01*
X2903Y-5507D01*
X2895Y-5511D01*
X2538D01*
Y-5946D01*
X3131D01*
Y-5584D01*
X3134Y-5576D01*
X3134Y-5574D01*
X3135Y-5572D01*
X3131Y-5563D01*
Y-5562D01*
X3442Y-5250D01*
X3462Y-5221D01*
X3469Y-5186D01*
Y-3986D01*
X3519Y-3966D01*
X3549Y-3995D01*
X3579Y-4015D01*
X3614Y-4022D01*
X3658D01*
X3674Y-4044D01*
X3650Y-4094D01*
X3641D01*
Y-4568D01*
X4014D01*
Y-4881D01*
X3641D01*
Y-5316D01*
X4154D01*
X4173Y-5362D01*
X4056Y-5480D01*
X4049Y-5483D01*
X4041Y-5489D01*
X4036Y-5494D01*
X4031Y-5498D01*
X4026Y-5501D01*
X4022Y-5503D01*
X4018Y-5505D01*
X4015Y-5506D01*
X4013Y-5507D01*
X4010Y-5507D01*
X4005Y-5507D01*
X3997Y-5511D01*
X3641D01*
Y-5946D01*
X4233D01*
Y-5584D01*
X4237Y-5576D01*
X4236Y-5574D01*
X4237Y-5572D01*
X4233Y-5563D01*
Y-5562D01*
X4474Y-5321D01*
X4494Y-5291D01*
X4501Y-5256D01*
Y-4575D01*
X4504Y-4568D01*
X4504Y-4568D01*
X4627D01*
Y-4119D01*
X5906D01*
X5941Y-4112D01*
X5970Y-4092D01*
X5990Y-4062D01*
X5997Y-4027D01*
Y-4005D01*
X6000Y-3998D01*
X6000Y-3997D01*
X6162D01*
Y-3483D01*
X5649D01*
Y-3553D01*
X5599Y-3570D01*
X5589Y-3557D01*
X5537Y-3518D01*
X5533Y-3491D01*
Y-3490D01*
X5537Y-3463D01*
X5589Y-3423D01*
X5630Y-3370D01*
X5656Y-3307D01*
X5665Y-3240D01*
X5656Y-3173D01*
X5630Y-3111D01*
X5589Y-3057D01*
X5537Y-3018D01*
X5533Y-2991D01*
Y-2990D01*
X5537Y-2963D01*
X5589Y-2923D01*
X5630Y-2870D01*
X5656Y-2807D01*
X5665Y-2740D01*
X5656Y-2673D01*
X5630Y-2611D01*
X5589Y-2557D01*
X5537Y-2518D01*
X5533Y-2491D01*
Y-2490D01*
X5537Y-2463D01*
X5589Y-2423D01*
X5628Y-2372D01*
X5655Y-2368D01*
X5656D01*
X5683Y-2372D01*
X5722Y-2423D01*
X5776Y-2465D01*
X5838Y-2490D01*
X5906Y-2499D01*
X5973Y-2490D01*
X6035Y-2465D01*
X6089Y-2423D01*
X6130Y-2370D01*
X6156Y-2307D01*
X6165Y-2240D01*
X6156Y-2173D01*
X6130Y-2111D01*
X6089Y-2057D01*
X6037Y-2018D01*
X6033Y-1991D01*
Y-1990D01*
X6037Y-1963D01*
X6089Y-1923D01*
X6130Y-1870D01*
X6156Y-1807D01*
X6165Y-1740D01*
X6156Y-1673D01*
X6130Y-1611D01*
X6089Y-1557D01*
X6035Y-1516D01*
X5973Y-1490D01*
X5906Y-1481D01*
X5838Y-1490D01*
X5776Y-1516D01*
X5722Y-1557D01*
X5683Y-1608D01*
X5656Y-1612D01*
X5655D01*
X5628Y-1608D01*
X5589Y-1557D01*
X5535Y-1516D01*
X5473Y-1490D01*
X5413Y-1482D01*
X5404Y-1478D01*
X5377Y-1478D01*
X5329Y-1475D01*
X5310Y-1473D01*
X5293Y-1469D01*
X5279Y-1466D01*
X5268Y-1462D01*
X5260Y-1458D01*
X5255Y-1454D01*
X5248Y-1448D01*
X5242Y-1446D01*
X4432Y-637D01*
X4451Y-590D01*
X5112D01*
X5147Y-583D01*
X5176Y-564D01*
X5419Y-321D01*
X5422Y-316D01*
X5710D01*
Y395D01*
X4999D01*
Y-316D01*
X5099D01*
X5118Y-362D01*
X5074Y-407D01*
X4648D01*
X4629Y-361D01*
X4888Y-102D01*
X4908Y-72D01*
X4915Y-37D01*
Y470D01*
X5078Y633D01*
X5084Y635D01*
X5094Y643D01*
X5104Y649D01*
X5118Y655D01*
X5138Y661D01*
X5163Y667D01*
X5191Y671D01*
X5306Y679D01*
X5352Y679D01*
X5357Y681D01*
X5447Y693D01*
X5533Y729D01*
X5608Y786D01*
X5665Y860D01*
X5700Y947D01*
X5713Y1039D01*
X5700Y1132D01*
X5665Y1219D01*
X5608Y1293D01*
X5533Y1350D01*
X5447Y1385D01*
X5354Y1398D01*
X5262Y1385D01*
X5175Y1350D01*
X5101Y1293D01*
X5063Y1243D01*
X5013Y1260D01*
Y1818D01*
X5063Y1835D01*
X5101Y1786D01*
X5175Y1729D01*
X5262Y1693D01*
X5354Y1681D01*
X5447Y1693D01*
X5533Y1729D01*
X5608Y1786D01*
X5665Y1860D01*
X5700Y1947D01*
X5713Y2039D01*
X5700Y2132D01*
X5665Y2219D01*
X5608Y2293D01*
X5533Y2350D01*
X5447Y2386D01*
X5367Y2396D01*
X5342Y2442D01*
X5371Y2472D01*
X5391Y2501D01*
X5398Y2536D01*
Y4939D01*
X5391Y4974D01*
X5371Y5004D01*
X5351Y5025D01*
X5350Y5093D01*
X5470Y5213D01*
X5490Y5243D01*
X5497Y5278D01*
Y5943D01*
X5490Y5978D01*
X5470Y6008D01*
X5417Y6060D01*
X5387Y6080D01*
X5352Y6087D01*
X4405D01*
X4370Y6080D01*
X4340Y6060D01*
X4296Y6016D01*
X4290Y6015D01*
X4280Y6006D01*
X4270Y6001D01*
X4256Y5994D01*
X4236Y5988D01*
X4211Y5983D01*
X4183Y5978D01*
X4068Y5971D01*
X4022Y5970D01*
X4017Y5968D01*
X3927Y5956D01*
X3841Y5921D01*
X3766Y5864D01*
X3709Y5789D01*
X3685Y5731D01*
X3635Y5741D01*
Y6096D01*
X3743Y6204D01*
X3749Y6206D01*
X3759Y6214D01*
X3769Y6220D01*
X3784Y6226D01*
X3804Y6232D01*
X3828Y6238D01*
X3856Y6242D01*
X3971Y6250D01*
X4017Y6250D01*
X4022Y6252D01*
X4112Y6264D01*
X4199Y6300D01*
X4271Y6355D01*
X4276Y6357D01*
X4309Y6390D01*
X4340Y6419D01*
X4395Y6465D01*
X4419Y6482D01*
X4440Y6496D01*
X4458Y6505D01*
X4473Y6511D01*
X4484Y6514D01*
X4497Y6516D01*
X4502Y6518D01*
X4537D01*
X4543Y6516D01*
X4555Y6514D01*
X4566Y6511D01*
X4581Y6505D01*
X4600Y6496D01*
X4621Y6482D01*
X4644Y6466D01*
X4731Y6390D01*
X4763Y6357D01*
X4768Y6355D01*
X4841Y6300D01*
X4927Y6264D01*
X5020Y6252D01*
X5112Y6264D01*
X5199Y6300D01*
X5273Y6357D01*
X5330Y6431D01*
X5366Y6517D01*
X5378Y6610D01*
X5366Y6703D01*
X5330Y6789D01*
X5273Y6864D01*
X5199Y6921D01*
X5112Y6956D01*
X5020Y6969D01*
X4927Y6956D01*
X4841Y6921D01*
X4768Y6865D01*
X4763Y6863D01*
X4730Y6830D01*
X4700Y6802D01*
X4644Y6755D01*
X4621Y6738D01*
X4600Y6725D01*
X4581Y6715D01*
X4566Y6709D01*
X4555Y6706D01*
X4543Y6705D01*
X4537Y6702D01*
X4502D01*
X4497Y6705D01*
X4484Y6706D01*
X4473Y6709D01*
X4458Y6715D01*
X4440Y6725D01*
X4419Y6738D01*
X4396Y6755D01*
X4309Y6831D01*
X4276Y6863D01*
X4271Y6865D01*
X4199Y6921D01*
X4112Y6956D01*
X4020Y6969D01*
X3927Y6956D01*
X3841Y6921D01*
X3766Y6864D01*
X3709Y6789D01*
X3674Y6703D01*
X3662Y6613D01*
X3659Y6607D01*
X3659Y6561D01*
X3658Y6520D01*
X3652Y6447D01*
X3647Y6419D01*
X3642Y6394D01*
X3635Y6374D01*
X3629Y6359D01*
X3624Y6350D01*
X3615Y6340D01*
X3614Y6334D01*
X3478Y6199D01*
X3459Y6169D01*
X3452Y6134D01*
Y3778D01*
X2397Y2724D01*
X2390Y2721D01*
X2384Y2716D01*
X2380Y2713D01*
X2374Y2710D01*
X2365Y2707D01*
X2354Y2703D01*
X2341Y2701D01*
X2326Y2698D01*
X2287Y2696D01*
X2265Y2696D01*
X2264Y2695D01*
X2264Y2695D01*
X2174Y2677D01*
X2098Y2626D01*
X2047Y2550D01*
X2029Y2461D01*
X2047Y2371D01*
X2066Y2342D01*
X2039Y2292D01*
X1604D01*
X1598Y2295D01*
Y2559D01*
X1589Y2605D01*
X1562Y2645D01*
X1523Y2671D01*
X1476Y2680D01*
X1430Y2671D01*
X1391Y2645D01*
X1365D01*
X1326Y2671D01*
X1280Y2680D01*
X1233Y2671D01*
X1194Y2645D01*
X1169D01*
X1129Y2671D01*
X1083Y2680D01*
X1036Y2671D01*
X1021Y2661D01*
X984Y2649D01*
X947Y2661D01*
X932Y2671D01*
X886Y2680D01*
X839Y2671D01*
X824Y2661D01*
X787Y2649D01*
X751Y2661D01*
X735Y2671D01*
X689Y2680D01*
X643Y2671D01*
X627Y2661D01*
X591Y2649D01*
X554Y2661D01*
X539Y2671D01*
X492Y2680D01*
X446Y2671D01*
X430Y2661D01*
X394Y2649D01*
X357Y2661D01*
X342Y2671D01*
X295Y2680D01*
X249Y2671D01*
X234Y2661D01*
X197Y2649D01*
X160Y2661D01*
X145Y2671D01*
X98Y2680D01*
X52Y2671D01*
X37Y2661D01*
X-0Y2649D01*
X-37Y2661D01*
X-52Y2671D01*
X-98Y2680D01*
X-145Y2671D01*
X-160Y2661D01*
X-197Y2649D01*
X-234Y2661D01*
X-249Y2671D01*
X-295Y2680D01*
X-342Y2671D01*
X-347Y2668D01*
X-365Y2668D01*
X-369Y2670D01*
X-400Y2692D01*
Y2795D01*
X-398Y2798D01*
X-350Y2808D01*
X-248D01*
X-243Y2803D01*
X-213Y2783D01*
X-178Y2776D01*
X921D01*
X956Y2783D01*
X986Y2803D01*
X1148Y2965D01*
X1167Y2995D01*
X1174Y3030D01*
Y5065D01*
X1170Y5086D01*
X1216Y5111D01*
X1269Y5058D01*
Y4693D01*
X1276Y4658D01*
X1295Y4629D01*
X1413Y4511D01*
X1396Y4470D01*
X1396D01*
Y4144D01*
X1732D01*
Y4094D01*
X1782D01*
Y3719D01*
X2069D01*
Y3727D01*
X2105Y3759D01*
X2248D01*
X2248Y3758D01*
X2251Y3751D01*
Y3591D01*
X2248Y3584D01*
X2248Y3584D01*
X2125D01*
Y3109D01*
X2560D01*
Y3584D01*
X2437D01*
X2437Y3584D01*
X2434Y3591D01*
Y3751D01*
X2437Y3758D01*
X2437Y3759D01*
X2698D01*
Y4430D01*
X2146D01*
X2143Y4442D01*
X2123Y4472D01*
X2071Y4525D01*
X2041Y4545D01*
X2006Y4552D01*
X1643D01*
X1625Y4575D01*
X1648Y4625D01*
X2015D01*
X2028Y4625D01*
X2065Y4593D01*
Y4585D01*
X2352D01*
Y4961D01*
Y5336D01*
X2065D01*
Y5328D01*
X2028Y5296D01*
X2015Y5296D01*
X1886D01*
X1886Y5297D01*
X1883Y5304D01*
Y5464D01*
X1886Y5471D01*
X1886Y5472D01*
X2009D01*
Y5946D01*
X1574D01*
Y5902D01*
X1573Y5902D01*
X1566Y5899D01*
X1037D01*
X1029Y5902D01*
X1018Y5902D01*
X993Y5903D01*
X983Y5904D01*
X981Y5904D01*
X981Y5904D01*
X981Y5904D01*
X979Y5905D01*
X971Y5903D01*
X960Y5908D01*
X956Y5906D01*
X945Y5908D01*
X669D01*
X625Y5951D01*
Y6062D01*
X618Y6097D01*
X598Y6126D01*
X577Y6147D01*
X1063Y6633D01*
X1070Y6636D01*
X1089Y6654D01*
X1105Y6668D01*
X1119Y6679D01*
X1131Y6687D01*
X1139Y6692D01*
X1163D01*
X1175Y6689D01*
X1179Y6691D01*
X1184Y6691D01*
X1186Y6692D01*
X1418D01*
Y6791D01*
X1419Y6791D01*
X1429Y6793D01*
X1442Y6794D01*
X1459Y6795D01*
X1465Y6797D01*
X1586D01*
X1592Y6795D01*
X1610Y6794D01*
X1622Y6793D01*
X1632Y6791D01*
X1633Y6791D01*
Y6692D01*
X2107D01*
Y7127D01*
X1633D01*
Y7028D01*
X1632Y7028D01*
X1622Y7026D01*
X1610Y7025D01*
X1592Y7024D01*
X1586Y7022D01*
X1465D01*
X1459Y7024D01*
X1442Y7025D01*
X1429Y7026D01*
X1419Y7028D01*
X1418Y7028D01*
Y7127D01*
X944D01*
Y6885D01*
X940Y6877D01*
X942Y6871D01*
X941Y6866D01*
X944Y6861D01*
Y6844D01*
X936Y6833D01*
X907Y6799D01*
X888Y6779D01*
X885Y6772D01*
X881Y6767D01*
X878Y6765D01*
X878Y6765D01*
X530Y6417D01*
X468Y6426D01*
X465Y6430D01*
X432Y6452D01*
X394Y6460D01*
X355Y6452D01*
X349Y6448D01*
X299Y6474D01*
Y6653D01*
X591D01*
Y7127D01*
X460D01*
X460Y7134D01*
X459Y7147D01*
X456Y7154D01*
Y7403D01*
X459Y7410D01*
X460Y7423D01*
X460Y7430D01*
X769D01*
Y7646D01*
X809D01*
Y7765D01*
X512D01*
X215D01*
Y7646D01*
X255D01*
Y7592D01*
X252Y7579D01*
Y7495D01*
X251Y7493D01*
X249Y7413D01*
X250Y7412D01*
X249Y7411D01*
X252Y7404D01*
Y7154D01*
X249Y7147D01*
X249Y7134D01*
X248Y7127D01*
X157D01*
Y6816D01*
X129Y6789D01*
X115Y6785D01*
X82Y6785D01*
X68Y6789D01*
X40Y6816D01*
Y7127D01*
X-91D01*
X-92Y7134D01*
X-92Y7147D01*
X-95Y7154D01*
Y7403D01*
X-92Y7410D01*
X-92Y7423D01*
X-91Y7430D01*
X60D01*
Y7686D01*
Y8059D01*
X65Y8071D01*
Y8257D01*
X185Y8378D01*
X185Y8378D01*
X227Y8432D01*
X253Y8495D01*
X262Y8563D01*
X262Y8563D01*
Y9357D01*
X265Y9363D01*
X268Y9443D01*
X271Y9476D01*
X276Y9506D01*
X282Y9533D01*
X289Y9556D01*
X296Y9575D01*
X304Y9591D01*
X313Y9604D01*
X324Y9617D01*
X325Y9619D01*
X396Y9712D01*
X442Y9822D01*
X458Y9941D01*
X442Y10059D01*
X396Y10170D01*
X324Y10265D01*
X229Y10337D01*
X118Y10383D01*
X0Y10399D01*
D02*
G37*
G36*
X-1987Y7718D02*
X-2214D01*
Y7511D01*
X-2089D01*
Y7581D01*
X-2088Y7569D01*
X-2084Y7559D01*
X-2078Y7550D01*
X-2070Y7542D01*
X-2059Y7536D01*
X-2045Y7530D01*
X-2030Y7526D01*
X-2011Y7523D01*
X-1991Y7521D01*
X-1987Y7521D01*
Y7718D01*
D02*
G37*
G36*
X-5512Y11444D02*
X-5671Y11428D01*
X-5823Y11382D01*
X-5964Y11307D01*
X-6087Y11205D01*
X-6189Y11082D01*
X-6264Y10941D01*
X-6310Y10789D01*
X-6326Y10630D01*
X-6310Y10471D01*
X-6264Y10318D01*
X-6189Y10178D01*
X-6087Y10054D01*
X-5964Y9953D01*
X-5823Y9878D01*
X-5671Y9832D01*
X-5512Y9816D01*
X-5353Y9832D01*
X-5200Y9878D01*
X-5060Y9953D01*
X-4936Y10054D01*
X-4835Y10178D01*
X-4760Y10318D01*
X-4714Y10471D01*
X-4698Y10630D01*
X-4714Y10789D01*
X-4760Y10941D01*
X-4835Y11082D01*
X-4936Y11205D01*
X-5060Y11307D01*
X-5200Y11382D01*
X-5353Y11428D01*
X-5512Y11444D01*
D02*
G37*
G36*
X5512D02*
X5353Y11428D01*
X5200Y11382D01*
X5060Y11307D01*
X4936Y11205D01*
X4835Y11082D01*
X4760Y10941D01*
X4714Y10789D01*
X4698Y10630D01*
X4714Y10471D01*
X4760Y10318D01*
X4835Y10178D01*
X4936Y10054D01*
X5060Y9953D01*
X5200Y9878D01*
X5353Y9832D01*
X5512Y9816D01*
X5671Y9832D01*
X5823Y9878D01*
X5964Y9953D01*
X6087Y10054D01*
X6189Y10178D01*
X6264Y10318D01*
X6310Y10471D01*
X6326Y10630D01*
X6310Y10789D01*
X6264Y10941D01*
X6189Y11082D01*
X6087Y11205D01*
X5964Y11307D01*
X5823Y11382D01*
X5671Y11428D01*
X5512Y11444D01*
D02*
G37*
G36*
Y-4501D02*
X5353Y-4517D01*
X5200Y-4563D01*
X5060Y-4638D01*
X4936Y-4739D01*
X4835Y-4863D01*
X4760Y-5003D01*
X4714Y-5156D01*
X4698Y-5315D01*
X4714Y-5474D01*
X4760Y-5626D01*
X4835Y-5767D01*
X4936Y-5890D01*
X5060Y-5992D01*
X5200Y-6067D01*
X5353Y-6113D01*
X5512Y-6129D01*
X5671Y-6113D01*
X5823Y-6067D01*
X5964Y-5992D01*
X6087Y-5890D01*
X6189Y-5767D01*
X6264Y-5626D01*
X6310Y-5474D01*
X6326Y-5315D01*
X6310Y-5156D01*
X6264Y-5003D01*
X6189Y-4863D01*
X6087Y-4739D01*
X5964Y-4638D01*
X5823Y-4563D01*
X5671Y-4517D01*
X5512Y-4501D01*
D02*
G37*
G36*
X462Y8240D02*
X215D01*
Y8121D01*
X462D01*
Y8240D01*
D02*
G37*
G36*
X809D02*
X562D01*
Y8121D01*
X809D01*
Y8240D01*
D02*
G37*
G36*
X1820Y7718D02*
X1593D01*
Y7511D01*
X1820D01*
Y7718D01*
D02*
G37*
G36*
X2147D02*
X1920D01*
Y7511D01*
X2147D01*
Y7718D01*
D02*
G37*
G36*
X-609Y6859D02*
X-836D01*
Y6652D01*
X-609D01*
Y6859D01*
D02*
G37*
G36*
X-1163Y6963D02*
Y6959D01*
X-1160D01*
X-1163Y6963D01*
D02*
G37*
%LPD*%
G36*
X5216Y-1507D02*
X5229Y-1515D01*
X5243Y-1522D01*
X5260Y-1528D01*
X5279Y-1533D01*
X5299Y-1537D01*
X5322Y-1540D01*
X5374Y-1543D01*
X5404Y-1543D01*
X5209Y-1738D01*
X5208Y-1709D01*
X5205Y-1657D01*
X5202Y-1634D01*
X5198Y-1613D01*
X5193Y-1594D01*
X5187Y-1578D01*
X5180Y-1563D01*
X5172Y-1551D01*
X5163Y-1540D01*
X5206Y-1498D01*
X5216Y-1507D01*
D02*
G37*
G36*
X2589Y-1427D02*
X2597Y-1431D01*
X2605Y-1434D01*
X2613Y-1438D01*
X2622Y-1440D01*
X2631Y-1442D01*
X2640Y-1444D01*
X2649Y-1445D01*
X2659Y-1446D01*
X2669Y-1446D01*
Y-1506D01*
X2659Y-1507D01*
X2640Y-1509D01*
X2631Y-1510D01*
X2622Y-1513D01*
X2613Y-1515D01*
X2605Y-1518D01*
X2597Y-1522D01*
X2589Y-1526D01*
X2582Y-1531D01*
Y-1422D01*
X2589Y-1427D01*
D02*
G37*
G36*
X1101Y-667D02*
X1085Y-722D01*
X1052Y-728D01*
X976Y-779D01*
X925Y-855D01*
X923Y-865D01*
X920Y-869D01*
X913Y-885D01*
X908Y-897D01*
X903Y-906D01*
X898Y-913D01*
X893Y-917D01*
X890Y-920D01*
X887Y-922D01*
X884Y-923D01*
X880Y-924D01*
X871Y-925D01*
X865Y-928D01*
X325D01*
X290Y-935D01*
X260Y-955D01*
X-485Y-1700D01*
X-492Y-1702D01*
X-507Y-1716D01*
X-512Y-1721D01*
X-517Y-1724D01*
X-548Y-1717D01*
X-563Y-1701D01*
X-566Y-1698D01*
X-567Y-1697D01*
Y-901D01*
X-565Y-899D01*
X-567Y-892D01*
Y-880D01*
X-565Y-873D01*
X-567Y-871D01*
Y-588D01*
X-565Y-586D01*
X-566Y-582D01*
X-564Y-577D01*
X-563Y-558D01*
X-561Y-547D01*
X-558Y-538D01*
X-556Y-533D01*
X-553Y-530D01*
X-549Y-527D01*
X-544Y-524D01*
X-536Y-522D01*
X-524Y-520D01*
X-506Y-519D01*
X-500Y-516D01*
X950D01*
X1101Y-667D01*
D02*
G37*
G36*
X2975Y-1536D02*
X2974Y-1531D01*
X2972Y-1526D01*
X2969Y-1521D01*
X2965Y-1517D01*
X2960Y-1514D01*
X2953Y-1511D01*
X2945Y-1509D01*
X2936Y-1508D01*
X2925Y-1507D01*
X2914Y-1506D01*
Y-1446D01*
X2925Y-1446D01*
X2936Y-1445D01*
X2945Y-1444D01*
X2953Y-1442D01*
X2960Y-1439D01*
X2965Y-1436D01*
X2969Y-1432D01*
X2972Y-1427D01*
X2974Y-1422D01*
X2975Y-1416D01*
Y-1536D01*
D02*
G37*
G36*
X-3089Y-1538D02*
X-3087Y-1558D01*
X-3084Y-1576D01*
X-3080Y-1592D01*
X-3075Y-1605D01*
X-3068Y-1616D01*
X-3060Y-1624D01*
X-3051Y-1630D01*
X-3041Y-1634D01*
X-3030Y-1635D01*
X-3270D01*
X-3258Y-1634D01*
X-3248Y-1630D01*
X-3239Y-1624D01*
X-3231Y-1616D01*
X-3225Y-1605D01*
X-3219Y-1592D01*
X-3215Y-1576D01*
X-3212Y-1558D01*
X-3210Y-1538D01*
X-3210Y-1515D01*
X-3090D01*
X-3089Y-1538D01*
D02*
G37*
G36*
X129Y-1751D02*
X131Y-1770D01*
X132Y-1779D01*
X135Y-1788D01*
X137Y-1796D01*
X140Y-1805D01*
X144Y-1813D01*
X148Y-1820D01*
X153Y-1828D01*
X44D01*
X49Y-1820D01*
X53Y-1813D01*
X56Y-1805D01*
X60Y-1796D01*
X62Y-1788D01*
X64Y-1779D01*
X66Y-1770D01*
X67Y-1760D01*
X68Y-1751D01*
X68Y-1741D01*
X128D01*
X129Y-1751D01*
D02*
G37*
G36*
X-397Y-1783D02*
X-408Y-1795D01*
X-425Y-1816D01*
X-432Y-1825D01*
X-436Y-1833D01*
X-439Y-1841D01*
X-440Y-1847D01*
X-440Y-1853D01*
X-438Y-1858D01*
X-434Y-1862D01*
X-515Y-1796D01*
X-509Y-1795D01*
X-504Y-1792D01*
X-498Y-1790D01*
X-492Y-1786D01*
X-485Y-1782D01*
X-471Y-1771D01*
X-463Y-1765D01*
X-448Y-1749D01*
X-397Y-1783D01*
D02*
G37*
G36*
X-3571Y-1439D02*
X-3592Y-1460D01*
X-3664Y-1542D01*
X-3672Y-1553D01*
X-3678Y-1562D01*
X-3681Y-1570D01*
X-3682Y-1576D01*
X-4132Y-1577D01*
X-4104Y-1576D01*
X-4076Y-1571D01*
X-4048Y-1564D01*
X-4020Y-1554D01*
X-3991Y-1541D01*
X-3963Y-1526D01*
X-3935Y-1507D01*
X-3906Y-1486D01*
X-3878Y-1462D01*
X-3850Y-1435D01*
X-3571Y-1439D01*
D02*
G37*
G36*
X1320Y-1743D02*
X1323Y-1792D01*
X1325Y-1801D01*
X1327Y-1810D01*
X1329Y-1817D01*
X1331Y-1823D01*
X1334Y-1828D01*
X1225D01*
X1228Y-1823D01*
X1230Y-1817D01*
X1232Y-1810D01*
X1234Y-1801D01*
X1236Y-1792D01*
X1238Y-1770D01*
X1239Y-1743D01*
X1240Y-1728D01*
X1320D01*
X1320Y-1743D01*
D02*
G37*
G36*
X3442Y-1790D02*
X3442Y-1797D01*
X3443Y-1805D01*
X3445Y-1813D01*
X3449Y-1821D01*
X3454Y-1830D01*
X3460Y-1839D01*
X3467Y-1848D01*
X3476Y-1858D01*
X3486Y-1869D01*
X3483Y-1951D01*
X3469Y-1937D01*
X3445Y-1916D01*
X3434Y-1909D01*
X3425Y-1903D01*
X3417Y-1900D01*
X3411Y-1899D01*
X3405Y-1900D01*
X3401Y-1903D01*
X3398Y-1908D01*
X3444Y-1784D01*
X3442Y-1790D01*
D02*
G37*
G36*
X764Y-1497D02*
X747Y-1480D01*
X714Y-1452D01*
X699Y-1440D01*
X684Y-1430D01*
X669Y-1422D01*
X655Y-1416D01*
X642Y-1412D01*
X629Y-1409D01*
X616Y-1408D01*
Y-1348D01*
X629Y-1347D01*
X642Y-1344D01*
X655Y-1340D01*
X669Y-1334D01*
X684Y-1326D01*
X699Y-1316D01*
X714Y-1304D01*
X731Y-1291D01*
X764Y-1259D01*
Y-1497D01*
D02*
G37*
G36*
X-4467Y531D02*
X-4468Y536D01*
X-4470Y541D01*
X-4473Y546D01*
X-4477Y550D01*
X-4482Y553D01*
X-4489Y556D01*
X-4497Y558D01*
X-4506Y559D01*
X-4516Y560D01*
X-4527Y561D01*
Y621D01*
X-4516Y621D01*
X-4506Y622D01*
X-4497Y623D01*
X-4489Y625D01*
X-4482Y628D01*
X-4477Y631D01*
X-4473Y635D01*
X-4470Y640D01*
X-4468Y645D01*
X-4467Y651D01*
Y531D01*
D02*
G37*
G36*
X-2582Y438D02*
X-2587Y440D01*
X-2593Y443D01*
X-2600Y445D01*
X-2608Y447D01*
X-2618Y449D01*
X-2640Y451D01*
X-2667Y452D01*
X-2682Y452D01*
Y532D01*
X-2667Y532D01*
X-2618Y536D01*
X-2608Y537D01*
X-2600Y539D01*
X-2593Y541D01*
X-2587Y544D01*
X-2582Y547D01*
Y438D01*
D02*
G37*
G36*
X2589Y-245D02*
X2597Y-250D01*
X2605Y-253D01*
X2613Y-256D01*
X2622Y-259D01*
X2631Y-261D01*
X2640Y-263D01*
X2649Y-264D01*
X2659Y-265D01*
X2669Y-265D01*
Y-325D01*
X2659Y-326D01*
X2640Y-327D01*
X2631Y-329D01*
X2622Y-331D01*
X2613Y-334D01*
X2605Y-337D01*
X2597Y-341D01*
X2589Y-345D01*
X2582Y-350D01*
Y-241D01*
X2589Y-245D01*
D02*
G37*
G36*
X3098Y413D02*
X3006Y566D01*
X3022Y635D01*
X3032Y626D01*
X3044Y619D01*
X3056Y614D01*
X3068Y611D01*
X3082Y610D01*
X3096Y611D01*
X3110Y614D01*
X3125Y619D01*
X3141Y627D01*
X3158Y636D01*
X3098Y413D01*
D02*
G37*
G36*
X2602Y726D02*
X2604Y725D01*
X2606Y723D01*
X2610Y722D01*
X2615Y721D01*
X2621Y720D01*
X2637Y719D01*
X2657Y719D01*
Y659D01*
X2647Y659D01*
X2615Y657D01*
X2610Y656D01*
X2606Y655D01*
X2604Y653D01*
X2602Y652D01*
X2601Y650D01*
Y728D01*
X2602Y726D01*
D02*
G37*
G36*
X-2582Y634D02*
X-2587Y637D01*
X-2593Y640D01*
X-2600Y642D01*
X-2608Y644D01*
X-2618Y645D01*
X-2640Y648D01*
X-2667Y649D01*
X-2682Y649D01*
Y729D01*
X-2667Y729D01*
X-2618Y733D01*
X-2608Y734D01*
X-2600Y736D01*
X-2593Y738D01*
X-2587Y741D01*
X-2582Y743D01*
Y634D01*
D02*
G37*
G36*
X621Y749D02*
X624Y736D01*
X628Y722D01*
X635Y708D01*
X643Y694D01*
X652Y679D01*
X664Y663D01*
X677Y648D01*
X708Y615D01*
X473D01*
X489Y631D01*
X517Y663D01*
X529Y679D01*
X539Y694D01*
X546Y708D01*
X553Y722D01*
X557Y736D01*
X560Y749D01*
X561Y761D01*
X621D01*
X621Y749D01*
D02*
G37*
G36*
X3669Y338D02*
X3650Y346D01*
X3633Y352D01*
X3616Y356D01*
X3600Y358D01*
X3585Y358D01*
X3571Y356D01*
X3557Y353D01*
X3545Y348D01*
X3534Y340D01*
X3523Y331D01*
X3500Y393D01*
X3505Y399D01*
X3511Y407D01*
X3517Y417D01*
X3532Y446D01*
X3572Y531D01*
X3584Y559D01*
X3669Y338D01*
D02*
G37*
G36*
X-2582Y241D02*
X-2589Y245D01*
X-2597Y250D01*
X-2605Y253D01*
X-2613Y256D01*
X-2622Y259D01*
X-2631Y261D01*
X-2640Y263D01*
X-2649Y264D01*
X-2659Y265D01*
X-2669Y265D01*
Y325D01*
X-2659Y326D01*
X-2640Y327D01*
X-2631Y329D01*
X-2622Y331D01*
X-2613Y334D01*
X-2605Y337D01*
X-2597Y341D01*
X-2589Y345D01*
X-2582Y350D01*
Y241D01*
D02*
G37*
G36*
X2589Y-49D02*
X2597Y-53D01*
X2605Y-56D01*
X2613Y-60D01*
X2622Y-62D01*
X2631Y-65D01*
X2640Y-66D01*
X2649Y-67D01*
X2659Y-68D01*
X2669Y-68D01*
Y-128D01*
X2659Y-129D01*
X2640Y-131D01*
X2631Y-132D01*
X2622Y-135D01*
X2613Y-137D01*
X2605Y-140D01*
X2597Y-144D01*
X2589Y-148D01*
X2582Y-153D01*
Y-44D01*
X2589Y-49D01*
D02*
G37*
G36*
X-3603Y-44D02*
X-3601Y-49D01*
X-3598Y-54D01*
X-3594Y-58D01*
X-3589Y-61D01*
X-3582Y-64D01*
X-3574Y-66D01*
X-3565Y-67D01*
X-3555Y-68D01*
X-3544Y-68D01*
Y-128D01*
X-3555Y-129D01*
X-3565Y-130D01*
X-3574Y-131D01*
X-3582Y-133D01*
X-3589Y-136D01*
X-3594Y-139D01*
X-3598Y-143D01*
X-3601Y-148D01*
X-3603Y-153D01*
X-3604Y-158D01*
Y-38D01*
X-3603Y-44D01*
D02*
G37*
G36*
X-4157Y-175D02*
X-4158Y-182D01*
X-4158Y-188D01*
X-4156Y-196D01*
X-4152Y-204D01*
X-4147Y-213D01*
X-4141Y-222D01*
X-4133Y-233D01*
X-4123Y-243D01*
X-4112Y-255D01*
X-4135Y-317D01*
X-4148Y-304D01*
X-4171Y-284D01*
X-4182Y-277D01*
X-4191Y-272D01*
X-4199Y-269D01*
X-4205Y-267D01*
X-4211Y-268D01*
X-4216Y-270D01*
X-4220Y-274D01*
X-4155Y-170D01*
X-4157Y-175D01*
D02*
G37*
G36*
X-1146Y600D02*
X-1134Y590D01*
X-1121Y581D01*
X-1108Y573D01*
X-1094Y567D01*
X-1080Y562D01*
X-1065Y557D01*
X-1050Y554D01*
X-1035Y553D01*
X-1018Y552D01*
Y432D01*
X-1035Y432D01*
X-1050Y430D01*
X-1065Y427D01*
X-1080Y423D01*
X-1094Y417D01*
X-1108Y411D01*
X-1121Y403D01*
X-1134Y394D01*
X-1146Y384D01*
X-1158Y373D01*
Y611D01*
X-1146Y600D01*
D02*
G37*
G36*
X4277Y-246D02*
X4252Y-240D01*
X4228Y-236D01*
X4205Y-234D01*
X4183Y-234D01*
X4162Y-237D01*
X4143Y-241D01*
X4125Y-248D01*
X4108Y-256D01*
X4092Y-267D01*
X4078Y-280D01*
X4035Y-237D01*
X4048Y-223D01*
X4059Y-207D01*
X4067Y-190D01*
X4074Y-172D01*
X4078Y-153D01*
X4081Y-132D01*
X4081Y-110D01*
X4079Y-87D01*
X4075Y-63D01*
X4069Y-37D01*
X4277Y-246D01*
D02*
G37*
G36*
X5351Y744D02*
X5304Y744D01*
X5183Y736D01*
X5150Y731D01*
X5121Y724D01*
X5096Y716D01*
X5075Y707D01*
X5057Y697D01*
X5043Y685D01*
X5000Y728D01*
X5012Y742D01*
X5022Y760D01*
X5031Y781D01*
X5039Y806D01*
X5046Y836D01*
X5051Y868D01*
X5058Y945D01*
X5059Y989D01*
X5059Y1036D01*
X5351Y744D01*
D02*
G37*
G36*
X-2589Y-1131D02*
X-2590Y-1127D01*
X-2592Y-1124D01*
X-2596Y-1122D01*
X-2601Y-1119D01*
X-2608Y-1117D01*
X-2617Y-1116D01*
X-2627Y-1114D01*
X-2652Y-1113D01*
X-2667Y-1113D01*
Y-1053D01*
X-2652Y-1053D01*
X-2617Y-1050D01*
X-2608Y-1048D01*
X-2601Y-1046D01*
X-2596Y-1044D01*
X-2592Y-1041D01*
X-2590Y-1038D01*
X-2589Y-1034D01*
Y-1131D01*
D02*
G37*
G36*
X3263Y-1061D02*
X3258Y-1063D01*
X3253Y-1066D01*
X3249Y-1070D01*
X3246Y-1076D01*
X3243Y-1083D01*
X3241Y-1091D01*
X3240Y-1100D01*
X3239Y-1110D01*
X3239Y-1122D01*
X3179D01*
X3178Y-1110D01*
X3177Y-1100D01*
X3176Y-1091D01*
X3174Y-1083D01*
X3171Y-1076D01*
X3168Y-1070D01*
X3164Y-1066D01*
X3159Y-1063D01*
X3154Y-1061D01*
X3149Y-1061D01*
X3269D01*
X3263Y-1061D01*
D02*
G37*
G36*
X1082Y-1104D02*
X1054Y-1094D01*
X913Y-1050D01*
X906Y-1050D01*
X876Y-990D01*
X890Y-989D01*
X903Y-986D01*
X915Y-981D01*
X927Y-974D01*
X938Y-965D01*
X948Y-954D01*
X957Y-941D01*
X966Y-927D01*
X973Y-910D01*
X980Y-891D01*
X1082Y-1104D01*
D02*
G37*
G36*
X-5825Y-913D02*
X-5818Y-918D01*
X-5805Y-923D01*
X-5788Y-927D01*
X-5765Y-930D01*
X-5705Y-935D01*
X-5668Y-936D01*
X-5531Y-927D01*
X-5513Y-923D01*
X-5501Y-918D01*
X-5493Y-913D01*
X-5491Y-907D01*
Y-1219D01*
X-5493Y-1213D01*
X-5501Y-1208D01*
X-5513Y-1203D01*
X-5531Y-1199D01*
X-5553Y-1196D01*
X-5613Y-1191D01*
X-5650Y-1190D01*
X-5788Y-1199D01*
X-5805Y-1203D01*
X-5818Y-1208D01*
X-5825Y-1213D01*
X-5828Y-1219D01*
X-5838Y-1222D01*
X-5846Y-1229D01*
X-5854Y-1242D01*
X-5861Y-1259D01*
X-5866Y-1282D01*
X-5871Y-1309D01*
X-5874Y-1342D01*
X-5878Y-1422D01*
X-5879Y-1469D01*
X-6129D01*
X-6129Y-1422D01*
X-6137Y-1309D01*
X-6142Y-1282D01*
X-6147Y-1259D01*
X-6154Y-1242D01*
X-6162Y-1229D01*
X-6170Y-1222D01*
X-6180Y-1219D01*
X-5828D01*
Y-907D01*
X-5825Y-913D01*
D02*
G37*
G36*
X3239Y-1311D02*
X3240Y-1322D01*
X3241Y-1331D01*
X3243Y-1339D01*
X3246Y-1345D01*
X3249Y-1351D01*
X3253Y-1355D01*
X3258Y-1358D01*
X3263Y-1360D01*
X3269Y-1361D01*
X3149D01*
X3154Y-1360D01*
X3159Y-1358D01*
X3164Y-1355D01*
X3168Y-1351D01*
X3171Y-1345D01*
X3174Y-1339D01*
X3176Y-1331D01*
X3177Y-1322D01*
X3178Y-1311D01*
X3179Y-1300D01*
X3239D01*
X3239Y-1311D01*
D02*
G37*
G36*
X2589Y-1230D02*
X2597Y-1234D01*
X2605Y-1238D01*
X2613Y-1241D01*
X2622Y-1243D01*
X2631Y-1246D01*
X2640Y-1247D01*
X2649Y-1249D01*
X2659Y-1249D01*
X2669Y-1250D01*
Y-1310D01*
X2659Y-1310D01*
X2640Y-1312D01*
X2631Y-1313D01*
X2622Y-1316D01*
X2613Y-1318D01*
X2605Y-1322D01*
X2597Y-1325D01*
X2589Y-1329D01*
X2582Y-1334D01*
Y-1225D01*
X2589Y-1230D01*
D02*
G37*
G36*
X-5188Y-1073D02*
X-5183Y-1093D01*
X-5177Y-1114D01*
X-5168Y-1134D01*
X-5158Y-1155D01*
X-5153Y-1163D01*
X-5139Y-1154D01*
X-5143Y-1158D01*
X-5146Y-1163D01*
X-5146Y-1169D01*
X-5145Y-1176D01*
X-5144Y-1177D01*
X-5131Y-1197D01*
X-5114Y-1218D01*
X-5096Y-1239D01*
X-5076Y-1260D01*
X-5118Y-1302D01*
X-5139Y-1282D01*
X-5181Y-1247D01*
X-5202Y-1233D01*
X-5223Y-1220D01*
X-5232Y-1216D01*
X-5238Y-1217D01*
X-5244Y-1219D01*
X-5235Y-1214D01*
X-5244Y-1210D01*
X-5264Y-1201D01*
X-5285Y-1195D01*
X-5305Y-1190D01*
X-5325Y-1188D01*
X-5190Y-1053D01*
X-5188Y-1073D01*
D02*
G37*
G36*
X-628Y-236D02*
X-624Y-257D01*
X-618Y-275D01*
X-610Y-291D01*
X-599Y-304D01*
X-586Y-314D01*
X-570Y-323D01*
X-552Y-329D01*
X-532Y-333D01*
X-509Y-334D01*
Y-454D01*
X-532Y-455D01*
X-552Y-459D01*
X-570Y-465D01*
X-586Y-473D01*
X-599Y-484D01*
X-610Y-497D01*
X-618Y-512D01*
X-624Y-531D01*
X-628Y-551D01*
X-629Y-574D01*
X-749Y-394D01*
X-629Y-214D01*
X-628Y-236D01*
D02*
G37*
G36*
X2589Y-442D02*
X2597Y-446D01*
X2605Y-450D01*
X2613Y-453D01*
X2622Y-456D01*
X2631Y-458D01*
X2640Y-460D01*
X2649Y-461D01*
X2659Y-462D01*
X2669Y-462D01*
Y-522D01*
X2659Y-522D01*
X2640Y-524D01*
X2631Y-526D01*
X2622Y-528D01*
X2613Y-531D01*
X2605Y-534D01*
X2597Y-538D01*
X2589Y-542D01*
X2582Y-547D01*
Y-438D01*
X2589Y-442D01*
D02*
G37*
G36*
X4684Y1851D02*
X4710Y1840D01*
Y979D01*
X4476Y746D01*
X4233D01*
X4091Y888D01*
X4061Y907D01*
X4026Y914D01*
X3525D01*
Y1022D01*
X3521Y1022D01*
X3500Y1020D01*
X3482Y1017D01*
X3481Y1017D01*
Y964D01*
X3469Y975D01*
X3457Y985D01*
X3444Y994D01*
X3438Y997D01*
X3434Y993D01*
X3428Y984D01*
X3424Y974D01*
X3423Y963D01*
Y1005D01*
X3417Y1008D01*
X3403Y1013D01*
X3388Y1017D01*
X3373Y1020D01*
X3357Y1022D01*
X3341Y1023D01*
Y1052D01*
X3248D01*
Y1102D01*
X3198D01*
Y1360D01*
X3177D01*
X3156Y1409D01*
X3177Y1436D01*
X3485D01*
Y1559D01*
X3486Y1559D01*
X3493Y1562D01*
X3969D01*
X4004Y1569D01*
X4033Y1589D01*
X4078Y1633D01*
X4084Y1635D01*
X4094Y1643D01*
X4104Y1649D01*
X4118Y1655D01*
X4138Y1661D01*
X4163Y1667D01*
X4191Y1671D01*
X4306Y1679D01*
X4352Y1679D01*
X4357Y1681D01*
X4447Y1693D01*
X4534Y1729D01*
X4608Y1786D01*
X4660Y1853D01*
X4684Y1851D01*
D02*
G37*
G36*
X-629Y-886D02*
X-749Y-1066D01*
X-749Y-1066D01*
X-749Y-1066D01*
X-750Y-1043D01*
X-754Y-1023D01*
X-760Y-1005D01*
X-768Y-989D01*
X-779Y-976D01*
X-792Y-965D01*
X-808Y-957D01*
X-826Y-951D01*
X-846Y-947D01*
X-869Y-946D01*
X-869Y-826D01*
X-869D01*
Y-826D01*
X-846Y-825D01*
X-826Y-821D01*
X-808Y-815D01*
X-792Y-807D01*
X-779Y-796D01*
X-768Y-783D01*
X-760Y-767D01*
X-754Y-749D01*
X-750Y-729D01*
X-749Y-706D01*
X-749Y-706D01*
X-749Y-706D01*
X-629Y-886D01*
D02*
G37*
G36*
X5112Y-1576D02*
X5114Y-1582D01*
X5120Y-1589D01*
X5123Y-1595D01*
X5127Y-1603D01*
X5131Y-1614D01*
X5135Y-1628D01*
X5138Y-1645D01*
X5141Y-1663D01*
X5144Y-1711D01*
X5144Y-1739D01*
X5147Y-1747D01*
X5155Y-1807D01*
X5181Y-1870D01*
X5222Y-1923D01*
X5274Y-1963D01*
X5278Y-1990D01*
Y-1991D01*
X5274Y-2018D01*
X5222Y-2057D01*
X5181Y-2111D01*
X5155Y-2173D01*
X5146Y-2240D01*
X5155Y-2307D01*
X5181Y-2370D01*
X5222Y-2423D01*
X5274Y-2463D01*
X5278Y-2490D01*
Y-2491D01*
X5274Y-2518D01*
X5222Y-2557D01*
X5181Y-2611D01*
X5155Y-2673D01*
X5146Y-2740D01*
X5155Y-2807D01*
X5181Y-2870D01*
X5222Y-2923D01*
X5274Y-2963D01*
X5278Y-2990D01*
Y-2991D01*
X5274Y-3018D01*
X5222Y-3057D01*
X5181Y-3111D01*
X5155Y-3173D01*
X5146Y-3240D01*
X5155Y-3307D01*
X5181Y-3370D01*
X5222Y-3423D01*
X5274Y-3463D01*
X5278Y-3490D01*
Y-3491D01*
X5274Y-3518D01*
X5222Y-3557D01*
X5181Y-3611D01*
X5155Y-3673D01*
X5146Y-3740D01*
X5155Y-3807D01*
X5181Y-3870D01*
X5193Y-3885D01*
X5168Y-3935D01*
X4098D01*
X4091Y-3932D01*
X4082Y-3932D01*
X4075Y-3931D01*
X4069Y-3930D01*
X4064Y-3928D01*
X4058Y-3926D01*
X4053Y-3924D01*
X4048Y-3921D01*
X4043Y-3918D01*
X4038Y-3913D01*
X4031Y-3907D01*
X4029Y-3906D01*
X4028Y-3905D01*
X4022Y-3903D01*
X3946Y-3827D01*
X3965Y-3780D01*
X4076D01*
Y-3306D01*
X3953D01*
X3953Y-3306D01*
X3950Y-3299D01*
Y-2843D01*
X3953Y-2836D01*
X3953Y-2836D01*
X4174D01*
Y-2338D01*
X4220Y-2319D01*
X4318Y-2416D01*
Y-3299D01*
X4315Y-3306D01*
X4315Y-3306D01*
X4192D01*
Y-3780D01*
X4627D01*
Y-3306D01*
X4504D01*
X4504Y-3306D01*
X4501Y-3299D01*
Y-2378D01*
X4494Y-2343D01*
X4474Y-2313D01*
X4201Y-2040D01*
X4214Y-2009D01*
X4214D01*
Y-1718D01*
X4213Y-1717D01*
X4199Y-1711D01*
X4185Y-1707D01*
X4172Y-1704D01*
X4163Y-1703D01*
X4162Y-1704D01*
X4151Y-1704D01*
X4142Y-1706D01*
X4135Y-1708D01*
X4128Y-1711D01*
X4123Y-1714D01*
X4118Y-1718D01*
X4115Y-1722D01*
X4114Y-1728D01*
X4113Y-1733D01*
Y-1684D01*
X3878D01*
Y-1634D01*
X3828D01*
Y-1258D01*
X3542D01*
Y-1267D01*
X3505Y-1298D01*
X3304D01*
X3304Y-1298D01*
X3300Y-1291D01*
Y-1131D01*
X3304Y-1123D01*
X3304Y-1123D01*
X3485D01*
Y-710D01*
X3561D01*
Y-836D01*
X3819D01*
X4076D01*
Y-710D01*
X4246D01*
X5112Y-1576D01*
D02*
G37*
G36*
X-3366Y-777D02*
X-3363Y-787D01*
X-3357Y-796D01*
X-3348Y-804D01*
X-3337Y-811D01*
X-3324Y-816D01*
X-3309Y-820D01*
X-3291Y-823D01*
X-3270Y-825D01*
X-3247Y-826D01*
Y-946D01*
X-3270Y-946D01*
X-3291Y-948D01*
X-3309Y-951D01*
X-3324Y-955D01*
X-3337Y-961D01*
X-3348Y-967D01*
X-3357Y-975D01*
X-3363Y-984D01*
X-3366Y-994D01*
X-3367Y-1006D01*
Y-946D01*
X-3487Y-952D01*
X-3405Y-1038D01*
X-3367Y-991D01*
X-3373Y-1001D01*
X-3376Y-1012D01*
X-3375Y-1026D01*
X-3372Y-1040D01*
X-3365Y-1057D01*
X-3355Y-1074D01*
X-3342Y-1094D01*
X-3325Y-1114D01*
X-3305Y-1136D01*
X-3282Y-1160D01*
X-3348Y-1265D01*
X-3373Y-1240D01*
X-3418Y-1202D01*
X-3438Y-1188D01*
X-3454Y-1179D01*
X-3470Y-1181D01*
X-3485Y-1186D01*
X-3499Y-1196D01*
X-3510Y-1209D01*
X-3520Y-1226D01*
X-3528Y-1247D01*
X-3534Y-1272D01*
X-3538Y-1300D01*
X-3541Y-1332D01*
X-3542Y-1368D01*
X-3742D01*
X-3743Y-1332D01*
X-3745Y-1300D01*
X-3750Y-1272D01*
X-3756Y-1247D01*
X-3764Y-1226D01*
X-3774Y-1209D01*
X-3785Y-1196D01*
X-3798Y-1186D01*
X-3813Y-1181D01*
X-3830Y-1179D01*
X-3516D01*
X-3432Y-1072D01*
X-3486Y-1126D01*
X-3642Y-986D01*
X-3571Y-915D01*
Y-815D01*
X-3567Y-817D01*
X-3559Y-819D01*
X-3548Y-821D01*
X-3513Y-823D01*
X-3367Y-826D01*
Y-766D01*
X-3366Y-777D01*
D02*
G37*
G36*
X2589Y-639D02*
X2597Y-643D01*
X2605Y-647D01*
X2613Y-650D01*
X2622Y-653D01*
X2631Y-655D01*
X2640Y-657D01*
X2649Y-658D01*
X2659Y-659D01*
X2669Y-659D01*
Y-719D01*
X2659Y-719D01*
X2640Y-721D01*
X2631Y-723D01*
X2622Y-725D01*
X2613Y-728D01*
X2605Y-731D01*
X2597Y-735D01*
X2589Y-739D01*
X2582Y-743D01*
Y-634D01*
X2589Y-639D01*
D02*
G37*
G36*
X-1006Y-4670D02*
X-1004Y-4675D01*
X-1001Y-4680D01*
X-997Y-4684D01*
X-991Y-4687D01*
X-984Y-4690D01*
X-976Y-4692D01*
X-967Y-4693D01*
X-957Y-4694D01*
X-945Y-4694D01*
Y-4754D01*
X-957Y-4755D01*
X-967Y-4756D01*
X-976Y-4757D01*
X-984Y-4759D01*
X-991Y-4762D01*
X-997Y-4765D01*
X-1001Y-4769D01*
X-1004Y-4774D01*
X-1006Y-4779D01*
X-1006Y-4784D01*
Y-4664D01*
X-1006Y-4670D01*
D02*
G37*
G36*
X1400Y-4726D02*
X1387Y-4739D01*
X1367Y-4762D01*
X1360Y-4772D01*
X1355Y-4781D01*
X1351Y-4789D01*
X1350Y-4796D01*
X1350Y-4802D01*
X1353Y-4807D01*
X1357Y-4810D01*
X1253Y-4745D01*
X1258Y-4748D01*
X1264Y-4749D01*
X1271Y-4748D01*
X1279Y-4746D01*
X1287Y-4743D01*
X1296Y-4738D01*
X1305Y-4731D01*
X1315Y-4723D01*
X1326Y-4714D01*
X1337Y-4703D01*
X1400Y-4726D01*
D02*
G37*
G36*
X-3778Y-4704D02*
X-3781Y-4694D01*
X-3788Y-4685D01*
X-3801Y-4678D01*
X-3818Y-4671D01*
X-3841Y-4665D01*
X-3868Y-4661D01*
X-3901Y-4657D01*
X-3981Y-4653D01*
X-4028Y-4653D01*
Y-4403D01*
X-3981Y-4402D01*
X-3868Y-4394D01*
X-3841Y-4390D01*
X-3818Y-4384D01*
X-3801Y-4378D01*
X-3788Y-4370D01*
X-3781Y-4361D01*
X-3778Y-4352D01*
Y-4704D01*
D02*
G37*
G36*
X3068Y-4908D02*
X3062Y-4915D01*
X3057Y-4921D01*
X3054Y-4927D01*
X3053Y-4932D01*
X3053Y-4935D01*
X3055Y-4938D01*
X3058Y-4940D01*
X3063Y-4942D01*
X3070Y-4942D01*
X2906D01*
X2915Y-4942D01*
X2923Y-4940D01*
X2932Y-4938D01*
X2940Y-4935D01*
X2948Y-4932D01*
X2957Y-4927D01*
X2965Y-4921D01*
X2974Y-4915D01*
X2982Y-4908D01*
X2991Y-4900D01*
X3076D01*
X3068Y-4908D01*
D02*
G37*
G36*
X696Y-4882D02*
X701Y-4884D01*
X706Y-4886D01*
X712Y-4887D01*
X719Y-4888D01*
X736Y-4890D01*
X756Y-4891D01*
X768Y-4891D01*
Y-4951D01*
X756Y-4951D01*
X719Y-4954D01*
X712Y-4955D01*
X706Y-4957D01*
X701Y-4958D01*
X696Y-4960D01*
X692Y-4963D01*
Y-4880D01*
X696Y-4882D01*
D02*
G37*
G36*
X-3481Y-4706D02*
X-3495Y-4714D01*
X-3508Y-4726D01*
X-3519Y-4744D01*
X-3528Y-4766D01*
X-3535Y-4794D01*
X-3541Y-4826D01*
X-3545Y-4864D01*
X-3548Y-4954D01*
X-3798D01*
X-3778Y-4704D01*
X-3466D01*
X-3481Y-4706D01*
D02*
G37*
G36*
X-1201Y-4861D02*
X-1121D01*
X-1127Y-4862D01*
X-1132Y-4863D01*
X-1136Y-4866D01*
X-1140Y-4871D01*
X-1144Y-4876D01*
X-1146Y-4883D01*
X-1148Y-4890D01*
X-1150Y-4899D01*
X-1151Y-4910D01*
X-1151Y-4921D01*
X-1151D01*
X-1151Y-4921D01*
X-1181D01*
X-1254Y-4951D01*
X-1245Y-4943D01*
X-1238Y-4934D01*
X-1232Y-4924D01*
X-1226Y-4915D01*
X-1222Y-4904D01*
X-1218Y-4894D01*
X-1215Y-4885D01*
X-1216Y-4883D01*
X-1219Y-4876D01*
X-1222Y-4871D01*
X-1226Y-4866D01*
X-1230Y-4863D01*
X-1235Y-4862D01*
X-1241Y-4861D01*
X-1212D01*
X-1212Y-4861D01*
X-1211Y-4849D01*
X-1201Y-4861D01*
D02*
G37*
G36*
X-419Y-3027D02*
X-443Y-3064D01*
X-461Y-3150D01*
X-443Y-3235D01*
X-424Y-3264D01*
X-447Y-3319D01*
X-483Y-3327D01*
X-560Y-3377D01*
X-610Y-3454D01*
X-628Y-3543D01*
X-622Y-3572D01*
X-651Y-3601D01*
X-666Y-3608D01*
X-751Y-3625D01*
X-827Y-3676D01*
X-878Y-3752D01*
X-896Y-3842D01*
X-894Y-3850D01*
X-936Y-3896D01*
X-1094D01*
X-1107Y-3912D01*
X-1119Y-3927D01*
X-1129Y-3942D01*
X-1131Y-3946D01*
Y-3996D01*
X-1127Y-3998D01*
X-1121Y-3998D01*
X-1131D01*
Y-4154D01*
Y-4411D01*
X-904Y-4411D01*
X-892Y-4456D01*
Y-4553D01*
X-942Y-4579D01*
X-944Y-4577D01*
Y-4487D01*
X-1418D01*
Y-4922D01*
X-1377D01*
X-1358Y-4968D01*
X-1479Y-5089D01*
X-2244D01*
X-2279Y-5096D01*
X-2309Y-5116D01*
X-2397Y-5204D01*
X-2403Y-5206D01*
X-2413Y-5214D01*
X-2422Y-5220D01*
X-2437Y-5226D01*
X-2457Y-5232D01*
X-2482Y-5238D01*
X-2496Y-5240D01*
X-2506Y-5218D01*
X-2514Y-5198D01*
X-2519Y-5180D01*
X-2522Y-5164D01*
X-2523Y-5146D01*
X-2526Y-5141D01*
Y-3882D01*
X-2115Y-3471D01*
X-1183D01*
X-1136Y-3461D01*
X-1096Y-3435D01*
X-1023Y-3362D01*
X-1018Y-3360D01*
X-1017Y-3359D01*
X-1017Y-3359D01*
X-1001Y-3344D01*
X-987Y-3332D01*
X-973Y-3321D01*
X-960Y-3313D01*
X-947Y-3306D01*
X-935Y-3300D01*
X-924Y-3296D01*
X-913Y-3293D01*
X-902Y-3292D01*
X-889Y-3291D01*
X-883Y-3288D01*
X-786D01*
Y-3176D01*
X-775Y-3171D01*
X-741Y-3164D01*
X-701Y-3138D01*
X-602Y-3039D01*
X-576Y-3000D01*
X-571Y-2977D01*
X-445D01*
X-419Y-3027D01*
D02*
G37*
G36*
X1931Y-4097D02*
X1932Y-4117D01*
X1935Y-4135D01*
X1940Y-4151D01*
X1945Y-4164D01*
X1952Y-4175D01*
X1959Y-4183D01*
X1968Y-4189D01*
X1979Y-4193D01*
X1990Y-4194D01*
X1750D01*
X1761Y-4193D01*
X1772Y-4189D01*
X1781Y-4183D01*
X1788Y-4175D01*
X1795Y-4164D01*
X1800Y-4151D01*
X1805Y-4135D01*
X1808Y-4117D01*
X1809Y-4097D01*
X1810Y-4074D01*
X1930D01*
X1931Y-4097D01*
D02*
G37*
G36*
X-707Y-4108D02*
X-707Y-4110D01*
X-656Y-4171D01*
X-660Y-4167D01*
X-665Y-4165D01*
X-671Y-4165D01*
X-677Y-4166D01*
X-685Y-4169D01*
X-693Y-4173D01*
X-702Y-4179D01*
X-711Y-4186D01*
X-722Y-4195D01*
X-733Y-4206D01*
X-772Y-4160D01*
X-759Y-4147D01*
X-715Y-4109D01*
X-711Y-4107D01*
X-708Y-4106D01*
X-707Y-4108D01*
D02*
G37*
G36*
X3889Y-4106D02*
X3889Y-4117D01*
X3891Y-4126D01*
X3893Y-4134D01*
X3896Y-4141D01*
X3899Y-4146D01*
X3903Y-4150D01*
X3907Y-4153D01*
X3913Y-4155D01*
X3918Y-4156D01*
X3798D01*
X3804Y-4155D01*
X3809Y-4153D01*
X3814Y-4150D01*
X3817Y-4146D01*
X3821Y-4141D01*
X3823Y-4134D01*
X3826Y-4126D01*
X3827Y-4117D01*
X3828Y-4106D01*
X3828Y-4095D01*
X3888D01*
X3889Y-4106D01*
D02*
G37*
G36*
X1828Y-4393D02*
X1824Y-4390D01*
X1819Y-4388D01*
X1811Y-4386D01*
X1801Y-4385D01*
X1775Y-4382D01*
X1720Y-4381D01*
X1698Y-4380D01*
Y-4320D01*
X1720Y-4320D01*
X1811Y-4314D01*
X1819Y-4312D01*
X1824Y-4310D01*
X1828Y-4308D01*
Y-4393D01*
D02*
G37*
G36*
X3184Y-4506D02*
X3179Y-4508D01*
X3175Y-4511D01*
X3171Y-4515D01*
X3167Y-4521D01*
X3165Y-4528D01*
X3163Y-4535D01*
X3161Y-4545D01*
X3160Y-4555D01*
X3160Y-4567D01*
X3100D01*
X3100Y-4555D01*
X3099Y-4545D01*
X3097Y-4535D01*
X3095Y-4528D01*
X3092Y-4521D01*
X3089Y-4515D01*
X3085Y-4511D01*
X3081Y-4508D01*
X3076Y-4506D01*
X3070Y-4505D01*
X3190D01*
X3184Y-4506D01*
D02*
G37*
G36*
X4464D02*
X4459Y-4508D01*
X4454Y-4511D01*
X4450Y-4515D01*
X4447Y-4521D01*
X4444Y-4528D01*
X4442Y-4535D01*
X4441Y-4545D01*
X4440Y-4555D01*
X4439Y-4567D01*
X4379D01*
X4379Y-4555D01*
X4378Y-4545D01*
X4377Y-4535D01*
X4375Y-4528D01*
X4372Y-4521D01*
X4369Y-4515D01*
X4365Y-4511D01*
X4360Y-4508D01*
X4355Y-4506D01*
X4349Y-4505D01*
X4469D01*
X4464Y-4506D01*
D02*
G37*
G36*
X1695Y-4410D02*
X1695Y-4405D01*
X1693Y-4400D01*
X1690Y-4395D01*
X1686Y-4391D01*
X1680Y-4388D01*
X1673Y-4385D01*
X1665Y-4383D01*
X1656Y-4382D01*
X1646Y-4381D01*
X1634Y-4380D01*
Y-4320D01*
X1646Y-4320D01*
X1656Y-4319D01*
X1665Y-4318D01*
X1673Y-4316D01*
X1680Y-4313D01*
X1686Y-4310D01*
X1690Y-4306D01*
X1693Y-4301D01*
X1695Y-4296D01*
X1695Y-4290D01*
Y-4410D01*
D02*
G37*
G36*
X-2505Y-5485D02*
X-2521Y-5501D01*
X-2581Y-5569D01*
X-2585Y-5576D01*
X-2587Y-5581D01*
X-2588Y-5585D01*
X-2648Y-5525D01*
X-2644Y-5524D01*
X-2639Y-5522D01*
X-2632Y-5518D01*
X-2624Y-5512D01*
X-2604Y-5495D01*
X-2564Y-5458D01*
X-2548Y-5442D01*
X-2505Y-5485D01*
D02*
G37*
G36*
X3068Y-5538D02*
X3062Y-5545D01*
X3057Y-5551D01*
X3054Y-5557D01*
X3053Y-5561D01*
X3053Y-5565D01*
X3055Y-5568D01*
X3058Y-5570D01*
X3063Y-5572D01*
X3070Y-5572D01*
X2906D01*
X2915Y-5572D01*
X2923Y-5570D01*
X2932Y-5568D01*
X2940Y-5565D01*
X2948Y-5561D01*
X2957Y-5557D01*
X2965Y-5551D01*
X2974Y-5545D01*
X2982Y-5538D01*
X2991Y-5530D01*
X3076D01*
X3068Y-5538D01*
D02*
G37*
G36*
X4170D02*
X4164Y-5545D01*
X4160Y-5551D01*
X4157Y-5557D01*
X4155Y-5561D01*
X4156Y-5565D01*
X4157Y-5568D01*
X4161Y-5570D01*
X4166Y-5572D01*
X4172Y-5572D01*
X4008D01*
X4017Y-5572D01*
X4025Y-5570D01*
X4034Y-5568D01*
X4042Y-5565D01*
X4051Y-5561D01*
X4059Y-5557D01*
X4068Y-5551D01*
X4076Y-5545D01*
X4085Y-5538D01*
X4093Y-5530D01*
X4178D01*
X4170Y-5538D01*
D02*
G37*
G36*
X-2588Y-5150D02*
X-2587Y-5172D01*
X-2583Y-5195D01*
X-2576Y-5219D01*
X-2566Y-5244D01*
X-2553Y-5270D01*
X-2538Y-5297D01*
X-2531Y-5309D01*
X-2502Y-5307D01*
X-2469Y-5301D01*
X-2440Y-5295D01*
X-2415Y-5287D01*
X-2393Y-5278D01*
X-2376Y-5268D01*
X-2361Y-5256D01*
X-2319Y-5298D01*
X-2331Y-5313D01*
X-2341Y-5330D01*
X-2350Y-5352D01*
X-2358Y-5377D01*
X-2364Y-5406D01*
X-2370Y-5439D01*
X-2376Y-5516D01*
X-2378Y-5560D01*
X-2378Y-5607D01*
X-2579Y-5407D01*
X-2861Y-5383D01*
X-2832Y-5357D01*
X-2783Y-5308D01*
X-2763Y-5283D01*
X-2746Y-5259D01*
X-2733Y-5234D01*
X-2722Y-5211D01*
X-2714Y-5187D01*
X-2710Y-5163D01*
X-2708Y-5140D01*
X-2588Y-5150D01*
D02*
G37*
G36*
X207Y-5597D02*
X215Y-5604D01*
X224Y-5611D01*
X232Y-5616D01*
X241Y-5621D01*
X249Y-5625D01*
X258Y-5628D01*
X266Y-5630D01*
X275Y-5632D01*
X283Y-5632D01*
X119Y-5631D01*
X126Y-5631D01*
X131Y-5629D01*
X134Y-5627D01*
X136Y-5624D01*
X136Y-5621D01*
X135Y-5616D01*
X132Y-5610D01*
X127Y-5604D01*
X121Y-5597D01*
X113Y-5589D01*
X198D01*
X207Y-5597D01*
D02*
G37*
G36*
X1034Y-5583D02*
X1035Y-5593D01*
X1037Y-5602D01*
X1039Y-5610D01*
X1041Y-5617D01*
X1045Y-5623D01*
X1049Y-5627D01*
X1053Y-5630D01*
X1058Y-5632D01*
X1064Y-5632D01*
X944D01*
X950Y-5632D01*
X955Y-5630D01*
X959Y-5627D01*
X963Y-5623D01*
X966Y-5617D01*
X969Y-5610D01*
X971Y-5602D01*
X973Y-5593D01*
X974Y-5583D01*
X974Y-5571D01*
X1034D01*
X1034Y-5583D01*
D02*
G37*
G36*
X-944Y-5410D02*
X-911Y-5438D01*
X-896Y-5450D01*
X-881Y-5460D01*
X-866Y-5468D01*
X-852Y-5474D01*
X-839Y-5478D01*
X-826Y-5481D01*
X-813Y-5482D01*
Y-5542D01*
X-826Y-5543D01*
X-839Y-5545D01*
X-852Y-5550D01*
X-866Y-5556D01*
X-881Y-5564D01*
X-896Y-5574D01*
X-911Y-5585D01*
X-927Y-5599D01*
X-961Y-5631D01*
Y-5393D01*
X-944Y-5410D01*
D02*
G37*
G36*
X-3547Y-5196D02*
X-3545Y-5224D01*
X-3541Y-5251D01*
X-3535Y-5277D01*
X-3528Y-5301D01*
X-3519Y-5324D01*
X-3508Y-5345D01*
X-3496Y-5364D01*
X-3482Y-5383D01*
X-3467Y-5399D01*
X-3880D01*
X-3864Y-5383D01*
X-3851Y-5364D01*
X-3838Y-5345D01*
X-3828Y-5324D01*
X-3819Y-5301D01*
X-3811Y-5277D01*
X-3806Y-5251D01*
X-3801Y-5224D01*
X-3799Y-5196D01*
X-3798Y-5166D01*
X-3548D01*
X-3547Y-5196D01*
D02*
G37*
G36*
X444Y-5095D02*
X446Y-5100D01*
X449Y-5104D01*
X453Y-5108D01*
X458Y-5112D01*
X465Y-5114D01*
X473Y-5116D01*
X482Y-5118D01*
X493Y-5119D01*
X505Y-5119D01*
Y-5179D01*
X493Y-5179D01*
X482Y-5180D01*
X472Y-5182D01*
X464Y-5184D01*
X457Y-5186D01*
X451Y-5190D01*
X446Y-5194D01*
X443Y-5198D01*
X441Y-5203D01*
X440Y-5209D01*
X443Y-5089D01*
X444Y-5095D01*
D02*
G37*
G36*
X1924Y-5057D02*
X1919Y-5059D01*
X1915Y-5062D01*
X1911Y-5066D01*
X1908Y-5072D01*
X1905Y-5079D01*
X1903Y-5087D01*
X1901Y-5096D01*
X1900Y-5106D01*
X1900Y-5118D01*
X1840D01*
X1840Y-5106D01*
X1839Y-5096D01*
X1837Y-5087D01*
X1835Y-5079D01*
X1833Y-5072D01*
X1829Y-5066D01*
X1825Y-5062D01*
X1821Y-5059D01*
X1816Y-5057D01*
X1810Y-5057D01*
X1930D01*
X1924Y-5057D01*
D02*
G37*
G36*
X1006Y-4981D02*
X1006Y-4976D01*
X1004Y-4970D01*
X1001Y-4966D01*
X997Y-4962D01*
X991Y-4959D01*
X984Y-4956D01*
X976Y-4954D01*
X967Y-4952D01*
X957Y-4952D01*
X945Y-4951D01*
Y-4891D01*
X957Y-4891D01*
X967Y-4890D01*
X976Y-4889D01*
X984Y-4886D01*
X991Y-4884D01*
X997Y-4880D01*
X1001Y-4877D01*
X1004Y-4872D01*
X1006Y-4867D01*
X1006Y-4861D01*
Y-4981D01*
D02*
G37*
G36*
X2210Y-5268D02*
X2193Y-5251D01*
X2160Y-5223D01*
X2144Y-5211D01*
X2129Y-5201D01*
X2115Y-5193D01*
X2101Y-5187D01*
X2087Y-5183D01*
X2074Y-5180D01*
X2062Y-5179D01*
Y-5119D01*
X2074Y-5118D01*
X2087Y-5115D01*
X2101Y-5111D01*
X2115Y-5105D01*
X2129Y-5097D01*
X2144Y-5087D01*
X2160Y-5075D01*
X2176Y-5062D01*
X2210Y-5030D01*
Y-5268D01*
D02*
G37*
G36*
X-40Y-5214D02*
X-42Y-5219D01*
X-43Y-5224D01*
X-45Y-5230D01*
X-46Y-5238D01*
X-48Y-5254D01*
X-49Y-5274D01*
X-49Y-5286D01*
X-109D01*
X-109Y-5274D01*
X-112Y-5238D01*
X-113Y-5230D01*
X-114Y-5224D01*
X-116Y-5219D01*
X-118Y-5214D01*
X-120Y-5210D01*
X-37D01*
X-40Y-5214D01*
D02*
G37*
G36*
X119D02*
X117Y-5219D01*
X116Y-5224D01*
X114Y-5230D01*
X113Y-5238D01*
X111Y-5254D01*
X110Y-5274D01*
X110Y-5286D01*
X50D01*
X50Y-5274D01*
X47Y-5238D01*
X46Y-5230D01*
X44Y-5224D01*
X43Y-5219D01*
X41Y-5214D01*
X39Y-5210D01*
X121D01*
X119Y-5214D01*
D02*
G37*
G36*
X279D02*
X277Y-5219D01*
X276Y-5224D01*
X274Y-5230D01*
X273Y-5238D01*
X271Y-5254D01*
X270Y-5274D01*
X270Y-5286D01*
X210D01*
X210Y-5274D01*
X207Y-5238D01*
X206Y-5230D01*
X204Y-5224D01*
X203Y-5219D01*
X201Y-5214D01*
X199Y-5210D01*
X281D01*
X279Y-5214D01*
D02*
G37*
G36*
X762Y-3925D02*
X802Y-3952D01*
X849Y-3961D01*
X1668D01*
X1748Y-4041D01*
Y-4067D01*
X1745Y-4072D01*
X1745Y-4093D01*
X1743Y-4109D01*
X1741Y-4121D01*
X1739Y-4130D01*
X1738Y-4132D01*
X1737Y-4133D01*
X1633D01*
Y-4255D01*
X1632Y-4255D01*
X1625Y-4259D01*
X1594D01*
X1559Y-4266D01*
X1530Y-4286D01*
X1504Y-4311D01*
X1458Y-4292D01*
Y-4093D01*
X1231D01*
Y-4350D01*
Y-4608D01*
X1267D01*
X1282Y-4657D01*
X1252Y-4684D01*
X1250D01*
X1238Y-4682D01*
X1235Y-4684D01*
X944D01*
Y-4826D01*
X943Y-4826D01*
X936Y-4830D01*
X816D01*
X811Y-4826D01*
X779Y-4780D01*
X782Y-4764D01*
X774Y-4723D01*
X752Y-4685D01*
X774Y-4647D01*
X782Y-4606D01*
X774Y-4565D01*
X751Y-4531D01*
Y-4523D01*
X774Y-4489D01*
X782Y-4448D01*
X774Y-4407D01*
X753Y-4368D01*
X774Y-4329D01*
X782Y-4288D01*
X774Y-4247D01*
X751Y-4212D01*
X716Y-4189D01*
X675Y-4180D01*
X525D01*
X484Y-4189D01*
X449Y-4212D01*
X426Y-4247D01*
X418Y-4288D01*
X426Y-4329D01*
X447Y-4368D01*
X426Y-4407D01*
X418Y-4448D01*
X426Y-4489D01*
X449Y-4523D01*
Y-4531D01*
X426Y-4565D01*
X418Y-4606D01*
X426Y-4647D01*
X448Y-4685D01*
X426Y-4723D01*
X418Y-4764D01*
X426Y-4805D01*
X448Y-4843D01*
X426Y-4880D01*
X418Y-4921D01*
X371Y-4942D01*
X359Y-4944D01*
X320Y-4965D01*
X281Y-4944D01*
X240Y-4936D01*
X199Y-4944D01*
X160Y-4965D01*
X121Y-4944D01*
X80Y-4936D01*
X39Y-4944D01*
X1Y-4965D01*
X-38Y-4944D01*
X-79Y-4936D01*
X-120Y-4944D01*
X-157Y-4966D01*
X-195Y-4944D01*
X-236Y-4936D01*
X-277Y-4944D01*
X-315Y-4966D01*
X-353Y-4944D01*
X-394Y-4936D01*
X-408Y-4921D01*
X-417Y-4880D01*
X-438Y-4843D01*
X-417Y-4805D01*
X-408Y-4764D01*
X-417Y-4723D01*
X-438Y-4685D01*
X-417Y-4647D01*
X-408Y-4606D01*
X-417Y-4565D01*
X-440Y-4531D01*
Y-4523D01*
X-417Y-4489D01*
X-408Y-4448D01*
X-417Y-4407D01*
X-438Y-4368D01*
X-417Y-4329D01*
X-408Y-4288D01*
X-417Y-4247D01*
X-438Y-4208D01*
X-417Y-4169D01*
X-414Y-4157D01*
X-394Y-4110D01*
X-353Y-4101D01*
X-315Y-4080D01*
X-277Y-4101D01*
X-236Y-4110D01*
X-195Y-4101D01*
X-157Y-4080D01*
X-120Y-4101D01*
X-79Y-4110D01*
X-38Y-4101D01*
X-3Y-4078D01*
X4D01*
X39Y-4101D01*
X80Y-4110D01*
X121Y-4101D01*
X156Y-4078D01*
X179Y-4044D01*
X187Y-4003D01*
Y-3853D01*
X179Y-3812D01*
X156Y-3777D01*
X121Y-3754D01*
X80Y-3746D01*
X63Y-3749D01*
X21Y-3727D01*
X11Y-3712D01*
X6Y-3688D01*
X-14Y-3658D01*
X-24Y-3647D01*
Y-3270D01*
X-31Y-3238D01*
X-29Y-3235D01*
X-22Y-3203D01*
X25Y-3188D01*
X762Y-3925D01*
D02*
G37*
G36*
X540Y-2582D02*
X535Y-2585D01*
X531Y-2589D01*
X527Y-2596D01*
X524Y-2604D01*
X521Y-2614D01*
X519Y-2626D01*
X518Y-2640D01*
X516Y-2672D01*
X456Y-2665D01*
X456Y-2654D01*
X455Y-2634D01*
X453Y-2625D01*
X450Y-2608D01*
X447Y-2601D01*
X444Y-2594D01*
X441Y-2588D01*
X438Y-2582D01*
X545Y-2581D01*
X540Y-2582D01*
D02*
G37*
G36*
X739Y-2589D02*
X735Y-2597D01*
X731Y-2605D01*
X728Y-2613D01*
X725Y-2622D01*
X723Y-2631D01*
X721Y-2640D01*
X720Y-2649D01*
X719Y-2659D01*
X719Y-2669D01*
X659D01*
X659Y-2659D01*
X657Y-2640D01*
X655Y-2631D01*
X653Y-2622D01*
X650Y-2613D01*
X647Y-2605D01*
X643Y-2597D01*
X639Y-2589D01*
X634Y-2582D01*
X743D01*
X739Y-2589D01*
D02*
G37*
G36*
X1133D02*
X1128Y-2597D01*
X1125Y-2605D01*
X1121Y-2613D01*
X1119Y-2622D01*
X1117Y-2631D01*
X1115Y-2640D01*
X1114Y-2649D01*
X1113Y-2659D01*
X1113Y-2669D01*
X1053D01*
X1052Y-2659D01*
X1050Y-2640D01*
X1049Y-2631D01*
X1047Y-2622D01*
X1044Y-2613D01*
X1041Y-2605D01*
X1037Y-2597D01*
X1033Y-2589D01*
X1028Y-2582D01*
X1137D01*
X1133Y-2589D01*
D02*
G37*
G36*
X1330Y-2582D02*
X1334D01*
X1330Y-2589D01*
Y-2711D01*
X1342Y-2709D01*
X1394Y-2674D01*
X1406Y-2655D01*
X1430Y-2671D01*
X1476Y-2680D01*
X1523Y-2671D01*
X1562Y-2645D01*
X1589Y-2606D01*
X1598Y-2559D01*
Y-2521D01*
X1644Y-2502D01*
X1746Y-2604D01*
X1776Y-2624D01*
X1811Y-2631D01*
X2216D01*
X2223Y-2634D01*
X2223Y-2634D01*
Y-2757D01*
X2698D01*
Y-2343D01*
X2704Y-2337D01*
X2738D01*
X2773Y-2330D01*
X2803Y-2311D01*
X2826Y-2287D01*
X2872Y-2306D01*
Y-2450D01*
X3209D01*
Y-2500D01*
X3259D01*
Y-2624D01*
X3278D01*
X3279Y-2637D01*
X3282Y-2650D01*
X3286Y-2663D01*
X3292Y-2677D01*
X3300Y-2692D01*
X3310Y-2707D01*
X3322Y-2722D01*
X3335Y-2738D01*
X3367Y-2772D01*
X3259D01*
Y-2773D01*
X3308D01*
X3302Y-2774D01*
X3297Y-2776D01*
X3293Y-2779D01*
X3289Y-2783D01*
X3286Y-2789D01*
X3283Y-2795D01*
X3281Y-2803D01*
X3279Y-2812D01*
X3278Y-2823D01*
X3278Y-2834D01*
X3259D01*
Y-2876D01*
X3545D01*
Y-2867D01*
X3582Y-2836D01*
X3763D01*
X3763Y-2836D01*
X3767Y-2843D01*
Y-3299D01*
X3763Y-3306D01*
X3763Y-3306D01*
X3654D01*
X3439Y-3091D01*
X3410Y-3071D01*
X3374Y-3064D01*
X2010D01*
X1975Y-3071D01*
X1961Y-3081D01*
X1911Y-3060D01*
Y-2774D01*
X1704D01*
Y-3051D01*
X1654D01*
Y-3101D01*
X1396D01*
Y-3133D01*
X1347Y-3150D01*
X1320Y-3122D01*
Y-3113D01*
X1321Y-3108D01*
X1320Y-3107D01*
Y-2814D01*
X1178D01*
X1178Y-2814D01*
X1174Y-2806D01*
Y-2732D01*
X1191Y-2723D01*
X1224Y-2710D01*
X1230Y-2711D01*
Y-2589D01*
X1225Y-2582D01*
X1230D01*
Y-2205D01*
X1330D01*
Y-2582D01*
D02*
G37*
G36*
X-847Y-2991D02*
X-845Y-2991D01*
X-787Y-2991D01*
Y-3111D01*
X-848Y-3111D01*
Y-2991D01*
X-847Y-2991D01*
D02*
G37*
G36*
X1113Y-2827D02*
X1114Y-2837D01*
X1115Y-2846D01*
X1117Y-2854D01*
X1120Y-2861D01*
X1123Y-2867D01*
X1127Y-2871D01*
X1132Y-2874D01*
X1137Y-2876D01*
X1143Y-2876D01*
X1023D01*
X1028Y-2876D01*
X1033Y-2874D01*
X1038Y-2871D01*
X1042Y-2867D01*
X1045Y-2861D01*
X1048Y-2854D01*
X1050Y-2846D01*
X1051Y-2837D01*
X1052Y-2827D01*
X1053Y-2815D01*
X1113D01*
X1113Y-2827D01*
D02*
G37*
G36*
X3913Y-2774D02*
X3907Y-2776D01*
X3903Y-2779D01*
X3899Y-2783D01*
X3896Y-2789D01*
X3893Y-2795D01*
X3891Y-2803D01*
X3889Y-2812D01*
X3889Y-2823D01*
X3888Y-2834D01*
X3828D01*
X3828Y-2823D01*
X3827Y-2812D01*
X3826Y-2803D01*
X3823Y-2795D01*
X3821Y-2789D01*
X3817Y-2783D01*
X3814Y-2779D01*
X3809Y-2776D01*
X3804Y-2774D01*
X3798Y-2773D01*
X3918D01*
X3913Y-2774D01*
D02*
G37*
G36*
X-5493Y-2358D02*
X-5488Y-2363D01*
X-5480Y-2368D01*
X-5469Y-2373D01*
X-5455Y-2376D01*
X-5437Y-2379D01*
X-5416Y-2382D01*
X-5365Y-2385D01*
X-5335Y-2385D01*
Y-2635D01*
X-5365Y-2635D01*
X-5437Y-2640D01*
X-5455Y-2643D01*
X-5469Y-2647D01*
X-5480Y-2651D01*
X-5488Y-2656D01*
X-5493Y-2662D01*
X-5495Y-2669D01*
Y-2351D01*
X-5493Y-2358D01*
D02*
G37*
G36*
X1123Y-2251D02*
X1121Y-2256D01*
X1119Y-2264D01*
X1117Y-2274D01*
X1115Y-2300D01*
X1113Y-2354D01*
X1113Y-2377D01*
X1053D01*
X1053Y-2354D01*
X1047Y-2264D01*
X1045Y-2256D01*
X1043Y-2251D01*
X1040Y-2247D01*
X1125D01*
X1123Y-2251D01*
D02*
G37*
G36*
X3618Y-2197D02*
X3642Y-2218D01*
X3653Y-2226D01*
X3662Y-2231D01*
X3670Y-2234D01*
X3676Y-2236D01*
X3682Y-2235D01*
X3686Y-2232D01*
X3688Y-2227D01*
X3644Y-2350D01*
X3646Y-2344D01*
X3646Y-2337D01*
X3645Y-2330D01*
X3642Y-2322D01*
X3639Y-2313D01*
X3634Y-2305D01*
X3627Y-2296D01*
X3620Y-2286D01*
X3611Y-2276D01*
X3601Y-2265D01*
X3604Y-2183D01*
X3618Y-2197D01*
D02*
G37*
G36*
X1535Y-2187D02*
X1536Y-2195D01*
X1538Y-2204D01*
X1541Y-2212D01*
X1545Y-2221D01*
X1550Y-2229D01*
X1556Y-2238D01*
X1562Y-2246D01*
X1569Y-2255D01*
X1578Y-2264D01*
Y-2349D01*
X1569Y-2341D01*
X1562Y-2335D01*
X1556Y-2330D01*
X1550Y-2328D01*
X1545Y-2327D01*
X1541Y-2328D01*
X1538Y-2330D01*
X1536Y-2335D01*
X1535Y-2341D01*
X1534Y-2349D01*
Y-2179D01*
X1535Y-2187D01*
D02*
G37*
G36*
X2605Y-2349D02*
X2599Y-2356D01*
X2595Y-2363D01*
X2592Y-2369D01*
X2591Y-2373D01*
X2592Y-2377D01*
X2595Y-2380D01*
X2599Y-2383D01*
X2605Y-2384D01*
X2613Y-2384D01*
X2443D01*
X2452Y-2384D01*
X2460Y-2383D01*
X2468Y-2380D01*
X2477Y-2377D01*
X2485Y-2373D01*
X2494Y-2369D01*
X2502Y-2363D01*
X2511Y-2356D01*
X2520Y-2349D01*
X2528Y-2341D01*
X2613D01*
X2605Y-2349D01*
D02*
G37*
G36*
X831Y-2582D02*
X914Y-2608D01*
X909Y-2607D01*
X904Y-2608D01*
X899Y-2611D01*
X895Y-2615D01*
X892Y-2621D01*
X890Y-2629D01*
X888Y-2638D01*
X886Y-2650D01*
X885Y-2663D01*
X885Y-2678D01*
X825Y-2668D01*
X825Y-2650D01*
X829Y-2582D01*
X830Y-2581D01*
X831Y-2582D01*
D02*
G37*
G36*
X2286Y-2599D02*
X2285Y-2594D01*
X2283Y-2589D01*
X2280Y-2584D01*
X2276Y-2580D01*
X2271Y-2577D01*
X2264Y-2574D01*
X2256Y-2572D01*
X2247Y-2571D01*
X2236Y-2570D01*
X2225Y-2569D01*
Y-2509D01*
X2236Y-2509D01*
X2247Y-2508D01*
X2256Y-2507D01*
X2264Y-2505D01*
X2271Y-2502D01*
X2276Y-2499D01*
X2280Y-2495D01*
X2283Y-2490D01*
X2285Y-2485D01*
X2286Y-2479D01*
Y-2599D01*
D02*
G37*
G36*
X-4655Y-2183D02*
X-4642D01*
X-4665Y-2185D01*
X-4687Y-2193D01*
X-4705Y-2205D01*
X-4722Y-2223D01*
X-4735Y-2245D01*
X-4747Y-2273D01*
X-4755Y-2306D01*
X-4762Y-2343D01*
X-4765Y-2386D01*
X-4767Y-2434D01*
X-5017D01*
X-5018Y-2386D01*
X-5020Y-2360D01*
X-5353Y-2351D01*
X-5296Y-2292D01*
X-5208Y-2190D01*
X-5177Y-2147D01*
X-5155Y-2109D01*
X-5141Y-2076D01*
X-5136Y-2049D01*
X-5140Y-2027D01*
X-5153Y-2009D01*
X-5175Y-1998D01*
X-4655Y-2183D01*
D02*
G37*
G36*
X-206Y-3771D02*
X-203Y-3808D01*
X-202Y-3815D01*
X-201Y-3822D01*
X-199Y-3827D01*
X-197Y-3832D01*
X-195Y-3835D01*
X-277D01*
X-275Y-3832D01*
X-273Y-3827D01*
X-272Y-3822D01*
X-270Y-3815D01*
X-269Y-3808D01*
X-267Y-3791D01*
X-266Y-3771D01*
X-266Y-3760D01*
X-206D01*
X-206Y-3771D01*
D02*
G37*
G36*
X-49D02*
X-46Y-3808D01*
X-45Y-3815D01*
X-43Y-3822D01*
X-42Y-3827D01*
X-40Y-3832D01*
X-37Y-3835D01*
X-120D01*
X-118Y-3832D01*
X-116Y-3827D01*
X-114Y-3822D01*
X-113Y-3815D01*
X-112Y-3808D01*
X-110Y-3791D01*
X-109Y-3771D01*
X-109Y-3760D01*
X-49D01*
X-49Y-3771D01*
D02*
G37*
G36*
X3257Y-3719D02*
X3251Y-3720D01*
X3247Y-3722D01*
X3244Y-3725D01*
X3243Y-3729D01*
X3244Y-3734D01*
X3247Y-3739D01*
X3251Y-3746D01*
X3257Y-3753D01*
X3265Y-3762D01*
X3180D01*
X3171Y-3753D01*
X3163Y-3746D01*
X3154Y-3739D01*
X3146Y-3734D01*
X3137Y-3729D01*
X3129Y-3725D01*
X3120Y-3722D01*
X3112Y-3720D01*
X3104Y-3719D01*
X3095Y-3718D01*
X3265D01*
X3257Y-3719D01*
D02*
G37*
G36*
X-5867Y-3194D02*
X-5861Y-3229D01*
X-5852Y-3265D01*
X-5840Y-3300D01*
X-5824Y-3335D01*
X-5804Y-3371D01*
X-5781Y-3406D01*
X-5755Y-3442D01*
X-5724Y-3477D01*
X-5691Y-3513D01*
Y-3866D01*
X-5867Y-3700D01*
X-5869Y-3159D01*
X-5867Y-3194D01*
D02*
G37*
G36*
X3995Y-3963D02*
X4004Y-3970D01*
X4014Y-3976D01*
X4023Y-3982D01*
X4033Y-3986D01*
X4044Y-3990D01*
X4054Y-3993D01*
X4066Y-3995D01*
X4077Y-3997D01*
X4089Y-3997D01*
X4149Y-4057D01*
X4138Y-4057D01*
X4129Y-4059D01*
X4122Y-4060D01*
X4117Y-4063D01*
X4113Y-4067D01*
X4112Y-4071D01*
X4113Y-4076D01*
X4116Y-4081D01*
X4120Y-4088D01*
X4127Y-4095D01*
X4038Y-4091D01*
X3995Y-4048D01*
X3986Y-3955D01*
X3995Y-3963D01*
D02*
G37*
G36*
X5960Y-3936D02*
X5955Y-3938D01*
X5950Y-3941D01*
X5946Y-3945D01*
X5943Y-3951D01*
X5940Y-3957D01*
X5938Y-3965D01*
X5937Y-3974D01*
X5936Y-3984D01*
X5936Y-3996D01*
X5876D01*
X5875Y-3984D01*
X5874Y-3974D01*
X5873Y-3965D01*
X5871Y-3957D01*
X5868Y-3951D01*
X5865Y-3945D01*
X5861Y-3941D01*
X5856Y-3938D01*
X5851Y-3936D01*
X5846Y-3936D01*
X5966D01*
X5960Y-3936D01*
D02*
G37*
G36*
X-491Y-3819D02*
X-485Y-3835D01*
X-477Y-3850D01*
X-469Y-3863D01*
X-460Y-3873D01*
X-449Y-3882D01*
X-445Y-3885D01*
X-443Y-3883D01*
X-440Y-3878D01*
X-438Y-3873D01*
X-437Y-3868D01*
Y-3889D01*
X-426Y-3894D01*
X-413Y-3897D01*
X-399Y-3898D01*
X-435Y-3958D01*
X-437Y-3958D01*
Y-3988D01*
X-438Y-3982D01*
X-440Y-3977D01*
X-443Y-3972D01*
X-447Y-3968D01*
X-452Y-3965D01*
X-459Y-3962D01*
X-462Y-3962D01*
X-478Y-3965D01*
X-534Y-3980D01*
X-609Y-4003D01*
X-496Y-3800D01*
X-491Y-3819D01*
D02*
G37*
G36*
X-240Y-3618D02*
X-242Y-3624D01*
X-242Y-3631D01*
X-241Y-3638D01*
X-239Y-3644D01*
X-236Y-3651D01*
X-233Y-3658D01*
X-228Y-3665D01*
X-222Y-3672D01*
X-215Y-3680D01*
X-257Y-3722D01*
X-265Y-3715D01*
X-272Y-3709D01*
X-279Y-3704D01*
X-286Y-3701D01*
X-293Y-3698D01*
X-299Y-3696D01*
X-306Y-3695D01*
X-313Y-3695D01*
X-319Y-3697D01*
X-325Y-3699D01*
X-238Y-3612D01*
X-240Y-3618D01*
D02*
G37*
G36*
X-4577Y-2922D02*
X-4490Y-2995D01*
X-4450Y-3022D01*
X-4413Y-3043D01*
X-4379Y-3058D01*
X-4348Y-3066D01*
X-4320Y-3068D01*
X-4294Y-3064D01*
X-4271Y-3054D01*
X-4702Y-3327D01*
X-4685Y-3311D01*
X-4675Y-3291D01*
X-4673Y-3267D01*
X-4679Y-3238D01*
X-4693Y-3205D01*
X-4715Y-3167D01*
X-4744Y-3125D01*
X-4782Y-3079D01*
X-4880Y-2974D01*
X-4625Y-2876D01*
X-4577Y-2922D01*
D02*
G37*
G36*
X-909Y-3227D02*
X-926Y-3230D01*
X-943Y-3234D01*
X-960Y-3240D01*
X-977Y-3248D01*
X-994Y-3257D01*
X-1011Y-3268D01*
X-1028Y-3281D01*
X-1045Y-3296D01*
X-1062Y-3312D01*
X-1225Y-3306D01*
X-1213Y-3293D01*
X-1166Y-3240D01*
X-1163Y-3235D01*
X-1161Y-3230D01*
X-1160Y-3227D01*
X-892Y-3226D01*
X-909Y-3227D01*
D02*
G37*
G36*
X1255Y-3128D02*
X1254Y-3134D01*
X1255Y-3141D01*
X1257Y-3148D01*
X1260Y-3157D01*
X1266Y-3165D01*
X1272Y-3175D01*
X1280Y-3185D01*
X1301Y-3207D01*
X1278Y-3270D01*
X1265Y-3257D01*
X1242Y-3237D01*
X1232Y-3229D01*
X1223Y-3224D01*
X1215Y-3221D01*
X1208Y-3219D01*
X1202Y-3220D01*
X1197Y-3222D01*
X1193Y-3226D01*
X1257Y-3123D01*
X1255Y-3128D01*
D02*
G37*
G36*
X4440Y-3319D02*
X4441Y-3329D01*
X4442Y-3339D01*
X4444Y-3347D01*
X4447Y-3353D01*
X4450Y-3359D01*
X4454Y-3363D01*
X4459Y-3366D01*
X4464Y-3368D01*
X4469Y-3369D01*
X4349D01*
X4355Y-3368D01*
X4360Y-3366D01*
X4365Y-3363D01*
X4369Y-3359D01*
X4372Y-3353D01*
X4375Y-3347D01*
X4377Y-3339D01*
X4378Y-3329D01*
X4379Y-3319D01*
X4379Y-3307D01*
X4439D01*
X4440Y-3319D01*
D02*
G37*
G36*
X-5488Y-3109D02*
X-5480Y-3114D01*
X-5471Y-3118D01*
X-5459Y-3121D01*
X-5446Y-3124D01*
X-5431Y-3127D01*
X-5395Y-3130D01*
X-5353Y-3131D01*
X-5352Y-3670D01*
X-5354Y-3641D01*
X-5361Y-3611D01*
X-5371Y-3579D01*
X-5386Y-3546D01*
X-5405Y-3511D01*
X-5429Y-3475D01*
X-5457Y-3438D01*
X-5525Y-3358D01*
X-5565Y-3316D01*
X-5495Y-3104D01*
X-5488Y-3109D01*
D02*
G37*
G36*
X2422Y-3603D02*
X2422Y-3598D01*
X2420Y-3593D01*
X2417Y-3588D01*
X2413Y-3584D01*
X2407Y-3581D01*
X2401Y-3578D01*
X2393Y-3576D01*
X2384Y-3575D01*
X2374Y-3574D01*
X2362Y-3573D01*
Y-3513D01*
X2374Y-3513D01*
X2384Y-3512D01*
X2393Y-3511D01*
X2401Y-3509D01*
X2407Y-3506D01*
X2413Y-3503D01*
X2417Y-3499D01*
X2420Y-3494D01*
X2422Y-3489D01*
X2422Y-3483D01*
Y-3603D01*
D02*
G37*
G36*
X3889Y-3319D02*
X3889Y-3329D01*
X3891Y-3339D01*
X3893Y-3347D01*
X3896Y-3353D01*
X3899Y-3359D01*
X3903Y-3363D01*
X3907Y-3366D01*
X3913Y-3368D01*
X3918Y-3369D01*
X3798D01*
X3804Y-3368D01*
X3809Y-3366D01*
X3814Y-3363D01*
X3817Y-3359D01*
X3821Y-3353D01*
X3823Y-3347D01*
X3826Y-3339D01*
X3827Y-3329D01*
X3828Y-3319D01*
X3828Y-3307D01*
X3888D01*
X3889Y-3319D01*
D02*
G37*
G36*
X2589Y936D02*
X2597Y931D01*
X2605Y928D01*
X2613Y925D01*
X2622Y922D01*
X2631Y920D01*
X2640Y918D01*
X2649Y917D01*
X2659Y916D01*
X2669Y916D01*
Y856D01*
X2659Y856D01*
X2640Y854D01*
X2631Y852D01*
X2622Y850D01*
X2613Y847D01*
X2605Y844D01*
X2597Y840D01*
X2589Y836D01*
X2582Y831D01*
Y940D01*
X2589Y936D01*
D02*
G37*
G36*
X-1544Y5162D02*
X-1540Y5095D01*
X-1471D01*
X-1464Y5100D01*
X-1442Y5120D01*
X-1419Y5143D01*
X-1314Y5078D01*
X-1339Y5052D01*
X-1377Y5007D01*
X-1391Y4987D01*
X-1401Y4969D01*
X-1408Y4953D01*
X-1411Y4939D01*
X-1411Y4927D01*
X-1407Y4916D01*
X-1399Y4908D01*
X-1440Y4940D01*
X-1475Y4902D01*
X-1539Y4966D01*
X-1539Y4961D01*
X-1537Y4953D01*
X-1535Y4948D01*
X-1532Y4944D01*
X-1617D01*
X-1615Y4948D01*
X-1613Y4953D01*
X-1611Y4961D01*
X-1609Y4971D01*
X-1609Y4972D01*
X-1646D01*
X-1638Y4982D01*
X-1631Y4994D01*
X-1625Y5010D01*
X-1625Y5010D01*
X-1627Y5015D01*
X-1637Y5030D01*
X-1648Y5045D01*
X-1662Y5061D01*
X-1694Y5095D01*
X-1609D01*
X-1606Y5129D01*
X-1605Y5197D01*
X-1545D01*
X-1544Y5162D01*
D02*
G37*
G36*
X-4556Y4949D02*
X-4555Y4938D01*
X-4554Y4929D01*
X-4552Y4921D01*
X-4549Y4914D01*
X-4546Y4909D01*
X-4542Y4905D01*
X-4537Y4902D01*
X-4532Y4900D01*
X-4527Y4899D01*
X-4647D01*
X-4641Y4900D01*
X-4636Y4902D01*
X-4631Y4905D01*
X-4627Y4909D01*
X-4624Y4914D01*
X-4621Y4921D01*
X-4619Y4929D01*
X-4618Y4938D01*
X-4617Y4949D01*
X-4617Y4960D01*
X-4557D01*
X-4556Y4949D01*
D02*
G37*
G36*
X923Y4982D02*
X917Y4980D01*
X913Y4978D01*
X910Y4975D01*
X909Y4971D01*
X910Y4966D01*
X913Y4961D01*
X917Y4954D01*
X923Y4947D01*
X931Y4938D01*
X846D01*
X837Y4947D01*
X829Y4954D01*
X820Y4961D01*
X811Y4966D01*
X803Y4971D01*
X795Y4975D01*
X786Y4978D01*
X778Y4980D01*
X769Y4982D01*
X761Y4982D01*
X931D01*
X923Y4982D01*
D02*
G37*
G36*
X-753Y4981D02*
X-758Y4980D01*
X-762Y4976D01*
X-766Y4972D01*
X-770Y4967D01*
X-772Y4960D01*
X-774Y4952D01*
X-776Y4943D01*
X-777Y4932D01*
X-777Y4921D01*
X-837D01*
X-837Y4932D01*
X-838Y4943D01*
X-840Y4952D01*
X-842Y4960D01*
X-845Y4967D01*
X-848Y4972D01*
X-852Y4976D01*
X-856Y4980D01*
X-861Y4981D01*
X-867Y4982D01*
X-747D01*
X-753Y4981D01*
D02*
G37*
G36*
X227Y4812D02*
X230Y4768D01*
X231Y4764D01*
X232Y4761D01*
X233Y4759D01*
X161D01*
X162Y4761D01*
X163Y4764D01*
X164Y4768D01*
X165Y4773D01*
X166Y4786D01*
X167Y4812D01*
X167Y4823D01*
X227D01*
X227Y4812D01*
D02*
G37*
G36*
X-240Y4816D02*
X-219Y4798D01*
X-212Y4794D01*
X-206Y4790D01*
X-200Y4786D01*
X-194Y4784D01*
X-188Y4781D01*
X-182Y4780D01*
X-235Y4684D01*
X-232Y4690D01*
X-232Y4696D01*
X-232Y4703D01*
X-235Y4711D01*
X-238Y4719D01*
X-243Y4728D01*
X-250Y4737D01*
X-258Y4747D01*
X-278Y4769D01*
X-248Y4824D01*
X-240Y4816D01*
D02*
G37*
G36*
X4538Y4949D02*
X4539Y4938D01*
X4541Y4929D01*
X4543Y4921D01*
X4545Y4914D01*
X4549Y4909D01*
X4553Y4905D01*
X4557Y4902D01*
X4562Y4900D01*
X4568Y4899D01*
X4448D01*
X4454Y4900D01*
X4459Y4902D01*
X4463Y4905D01*
X4467Y4909D01*
X4470Y4914D01*
X4473Y4921D01*
X4475Y4929D01*
X4477Y4938D01*
X4478Y4949D01*
X4478Y4960D01*
X4538D01*
X4538Y4949D01*
D02*
G37*
G36*
X-394Y5855D02*
X-151D01*
X-145Y5852D01*
X-136Y5855D01*
X394D01*
X441Y5814D01*
Y5764D01*
X438Y5754D01*
X441Y5749D01*
Y4972D01*
X254D01*
X219Y4965D01*
X190Y4945D01*
X132Y4888D01*
X112Y4858D01*
X110Y4846D01*
X100Y4839D01*
X92Y4834D01*
X59Y4827D01*
X54Y4828D01*
X39Y4838D01*
X0Y4845D01*
X-39Y4838D01*
X-72Y4816D01*
X-125D01*
X-143Y4828D01*
X-151Y4837D01*
X-159Y4838D01*
X-159Y4838D01*
X-166Y4843D01*
X-169Y4844D01*
X-169Y4844D01*
X-171Y4845D01*
X-173Y4846D01*
X-177Y4848D01*
X-179Y4850D01*
X-197Y4865D01*
X-203Y4870D01*
X-210Y4873D01*
X-213Y4876D01*
X-216Y4881D01*
X-218Y4881D01*
X-275Y4938D01*
X-305Y4958D01*
X-340Y4965D01*
X-447D01*
X-482Y4958D01*
X-512Y4938D01*
X-725Y4726D01*
X-896D01*
X-931Y4719D01*
X-961Y4699D01*
X-1248Y4412D01*
X-1273Y4417D01*
X-1298Y4430D01*
Y4519D01*
X-1259D01*
X-1224Y4526D01*
X-1194Y4546D01*
X-957Y4783D01*
X-807D01*
X-772Y4790D01*
X-742Y4810D01*
X-722Y4839D01*
X-715Y4874D01*
Y4912D01*
X-712Y4918D01*
X-669D01*
X-631Y4926D01*
X-598Y4948D01*
X-576Y4981D01*
X-568Y5020D01*
X-576Y5058D01*
X-598Y5091D01*
X-631Y5113D01*
X-669Y5121D01*
X-945D01*
X-984Y5113D01*
X-1017Y5091D01*
X-1038Y5058D01*
X-1046Y5020D01*
X-1038Y4981D01*
X-1030Y4959D01*
X-1060Y4939D01*
X-1288Y4711D01*
X-1338Y4725D01*
Y4897D01*
X-1334Y4905D01*
X-1336Y4910D01*
X-1334Y4915D01*
X-1338Y4921D01*
Y4949D01*
X-1336Y4952D01*
X-1326Y4967D01*
X-1290Y5008D01*
X-1267Y5032D01*
X-1265Y5038D01*
X-1263Y5040D01*
X-1259Y5043D01*
X-1259Y5045D01*
X-1173Y5130D01*
X-1165Y5142D01*
X-1154Y5150D01*
X-1012Y5291D01*
X-994D01*
X-947Y5300D01*
X-930Y5312D01*
X-669D01*
X-631Y5320D01*
X-598Y5342D01*
X-585Y5360D01*
X-576Y5367D01*
X-575Y5376D01*
X-575Y5376D01*
X-570Y5383D01*
X-570Y5385D01*
X-569Y5386D01*
X-569Y5387D01*
X-567Y5390D01*
X-565Y5393D01*
X-563Y5396D01*
X-549Y5413D01*
X-543Y5419D01*
X-540Y5427D01*
X-537Y5429D01*
X-533Y5433D01*
X-533Y5434D01*
X-475Y5492D01*
X-455Y5522D01*
X-448Y5557D01*
Y5819D01*
X-398Y5855D01*
X-394Y5855D01*
D02*
G37*
G36*
X-1751Y4745D02*
X-1753Y4756D01*
X-1759Y4766D01*
X-1769Y4774D01*
X-1783Y4781D01*
X-1801Y4788D01*
X-1823Y4793D01*
X-1849Y4797D01*
X-1879Y4799D01*
X-1928Y4801D01*
X-1990Y4797D01*
X-2016Y4793D01*
X-2038Y4788D01*
X-2056Y4781D01*
X-2070Y4774D01*
X-2080Y4766D01*
X-2086Y4756D01*
X-2088Y4745D01*
Y5058D01*
X-2086Y5047D01*
X-2080Y5038D01*
X-2070Y5029D01*
X-2056Y5022D01*
X-2038Y5016D01*
X-2016Y5011D01*
X-1990Y5007D01*
X-1960Y5004D01*
X-1911Y5002D01*
X-1849Y5007D01*
X-1823Y5011D01*
X-1801Y5016D01*
X-1783Y5022D01*
X-1769Y5029D01*
X-1759Y5038D01*
X-1753Y5047D01*
X-1751Y5058D01*
Y4745D01*
D02*
G37*
G36*
X-2102Y5472D02*
X-2115Y5466D01*
X-2127Y5456D01*
X-2136Y5442D01*
X-2145Y5424D01*
X-2152Y5402D01*
X-2157Y5376D01*
X-2161Y5346D01*
X-2163Y5312D01*
X-2164Y5274D01*
X-2364D01*
X-2365Y5312D01*
X-2371Y5376D01*
X-2376Y5402D01*
X-2383Y5424D01*
X-2391Y5442D01*
X-2401Y5456D01*
X-2412Y5466D01*
X-2425Y5472D01*
X-2440Y5474D01*
X-2088D01*
X-2102Y5472D01*
D02*
G37*
G36*
X1822Y5283D02*
X1823Y5273D01*
X1824Y5264D01*
X1826Y5256D01*
X1829Y5249D01*
X1832Y5244D01*
X1836Y5239D01*
X1841Y5236D01*
X1846Y5234D01*
X1851Y5234D01*
X1731D01*
X1737Y5234D01*
X1742Y5236D01*
X1747Y5239D01*
X1751Y5244D01*
X1754Y5249D01*
X1757Y5256D01*
X1759Y5264D01*
X1760Y5273D01*
X1761Y5283D01*
X1761Y5295D01*
X1821D01*
X1822Y5283D01*
D02*
G37*
G36*
X-948Y5453D02*
X-943Y5451D01*
X-935Y5449D01*
X-925Y5448D01*
X-899Y5445D01*
X-845Y5444D01*
X-822Y5443D01*
Y5383D01*
X-845Y5383D01*
X-935Y5377D01*
X-943Y5375D01*
X-948Y5373D01*
X-952Y5371D01*
Y5456D01*
X-948Y5453D01*
D02*
G37*
G36*
X4727Y5319D02*
X4726Y5327D01*
X4725Y5333D01*
X4723Y5338D01*
X4720Y5340D01*
X4716Y5341D01*
X4711Y5340D01*
X4705Y5338D01*
X4699Y5333D01*
X4691Y5327D01*
X4683Y5319D01*
X4662Y5383D01*
X4674Y5396D01*
X4695Y5420D01*
X4703Y5431D01*
X4711Y5442D01*
X4716Y5452D01*
X4721Y5462D01*
X4724Y5471D01*
X4726Y5480D01*
X4727Y5489D01*
Y5319D01*
D02*
G37*
G36*
X-4860Y5153D02*
X-4920Y5124D01*
X-4922Y5145D01*
X-4928Y5166D01*
X-4938Y5186D01*
X-4951Y5205D01*
X-4969Y5223D01*
X-4990Y5240D01*
X-5015Y5256D01*
X-5044Y5271D01*
X-5076Y5285D01*
X-5113Y5299D01*
X-4743Y5475D01*
X-4860Y5153D01*
D02*
G37*
G36*
X-2163Y5220D02*
X-2157Y5156D01*
X-2152Y5130D01*
X-2145Y5108D01*
X-2136Y5090D01*
X-2127Y5076D01*
X-2115Y5066D01*
X-2102Y5060D01*
X-2088Y5058D01*
X-2440D01*
X-2425Y5060D01*
X-2412Y5066D01*
X-2401Y5076D01*
X-2391Y5090D01*
X-2383Y5108D01*
X-2376Y5130D01*
X-2371Y5156D01*
X-2367Y5186D01*
X-2365Y5220D01*
X-2364Y5258D01*
X-2164D01*
X-2163Y5220D01*
D02*
G37*
G36*
X-4023Y5283D02*
X-4070Y5283D01*
X-4191Y5275D01*
X-4224Y5270D01*
X-4253Y5263D01*
X-4278Y5256D01*
X-4299Y5247D01*
X-4317Y5236D01*
X-4331Y5225D01*
X-4374Y5267D01*
X-4362Y5281D01*
X-4352Y5299D01*
X-4343Y5321D01*
X-4335Y5346D01*
X-4328Y5375D01*
X-4323Y5408D01*
X-4317Y5484D01*
X-4315Y5528D01*
X-4315Y5576D01*
X-4023Y5283D01*
D02*
G37*
G36*
X982Y5226D02*
X984Y5220D01*
X987Y5214D01*
X990Y5207D01*
X995Y5201D01*
X999Y5194D01*
X1011Y5180D01*
X1017Y5173D01*
X1024Y5165D01*
X970Y5135D01*
X959Y5146D01*
X938Y5164D01*
X928Y5170D01*
X920Y5175D01*
X911Y5179D01*
X904Y5181D01*
X897Y5182D01*
X891Y5181D01*
X885Y5179D01*
X981Y5231D01*
X982Y5226D01*
D02*
G37*
G36*
X-2440Y4194D02*
X-2442Y4205D01*
X-2448Y4214D01*
X-2458Y4223D01*
X-2472Y4230D01*
X-2490Y4236D01*
X-2512Y4241D01*
X-2538Y4245D01*
X-2568Y4248D01*
X-2640Y4250D01*
Y4450D01*
X-2602Y4451D01*
X-2538Y4455D01*
X-2512Y4459D01*
X-2490Y4464D01*
X-2472Y4471D01*
X-2458Y4478D01*
X-2448Y4486D01*
X-2442Y4496D01*
X-2440Y4507D01*
Y4194D01*
D02*
G37*
G36*
X-4749Y4241D02*
X-4726Y4221D01*
X-4716Y4214D01*
X-4707Y4209D01*
X-4699Y4206D01*
X-4692Y4204D01*
X-4686Y4205D01*
X-4682Y4207D01*
X-4678Y4211D01*
X-4743Y4107D01*
X-4740Y4112D01*
X-4739Y4119D01*
X-4740Y4125D01*
X-4742Y4133D01*
X-4745Y4141D01*
X-4750Y4150D01*
X-4757Y4159D01*
X-4765Y4170D01*
X-4774Y4180D01*
X-4785Y4192D01*
X-4763Y4254D01*
X-4749Y4241D01*
D02*
G37*
G36*
X5089Y4260D02*
X5090Y4249D01*
X5092Y4240D01*
X5094Y4232D01*
X5097Y4225D01*
X5100Y4220D01*
X5104Y4216D01*
X5108Y4213D01*
X5113Y4211D01*
X5119Y4210D01*
X4999D01*
X5005Y4211D01*
X5010Y4213D01*
X5014Y4216D01*
X5018Y4220D01*
X5022Y4225D01*
X5024Y4232D01*
X5026Y4240D01*
X5028Y4249D01*
X5029Y4260D01*
X5029Y4271D01*
X5089D01*
X5089Y4260D01*
D02*
G37*
G36*
X-5107Y4260D02*
X-5107Y4249D01*
X-5105Y4240D01*
X-5103Y4232D01*
X-5100Y4225D01*
X-5097Y4220D01*
X-5093Y4216D01*
X-5089Y4213D01*
X-5084Y4211D01*
X-5078Y4210D01*
X-5198D01*
X-5192Y4211D01*
X-5187Y4213D01*
X-5182Y4216D01*
X-5179Y4220D01*
X-5175Y4225D01*
X-5173Y4232D01*
X-5171Y4240D01*
X-5169Y4249D01*
X-5168Y4260D01*
X-5168Y4271D01*
X-5108D01*
X-5107Y4260D01*
D02*
G37*
G36*
X544Y4007D02*
X565Y3989D01*
X574Y3983D01*
X583Y3978D01*
X591Y3974D01*
X599Y3972D01*
X606Y3972D01*
X612Y3973D01*
X618Y3975D01*
X513Y3910D01*
X517Y3914D01*
X520Y3919D01*
X520Y3925D01*
X519Y3931D01*
X515Y3939D01*
X510Y3948D01*
X503Y3958D01*
X494Y3970D01*
X471Y3995D01*
X533Y4018D01*
X544Y4007D01*
D02*
G37*
G36*
X-659Y4024D02*
X-658Y4014D01*
X-658Y4012D01*
X-570D01*
X-587Y3995D01*
X-615Y3963D01*
X-627Y3947D01*
X-637Y3932D01*
X-645Y3917D01*
X-651Y3903D01*
X-655Y3890D01*
X-658Y3877D01*
X-659Y3865D01*
X-719D01*
X-720Y3877D01*
X-723Y3890D01*
X-727Y3903D01*
X-733Y3917D01*
X-741Y3932D01*
X-751Y3947D01*
X-763Y3963D01*
X-776Y3979D01*
X-808Y4012D01*
X-720D01*
X-720Y4014D01*
X-719Y4024D01*
X-719Y4035D01*
X-659D01*
X-659Y4024D01*
D02*
G37*
G36*
X4345Y4241D02*
X4369Y4221D01*
X4379Y4214D01*
X4388Y4208D01*
X4396Y4205D01*
X4403Y4203D01*
X4408Y4204D01*
X4413Y4206D01*
X4417Y4210D01*
X4353Y4107D01*
X4355Y4112D01*
X4356Y4118D01*
X4356Y4125D01*
X4353Y4133D01*
X4350Y4141D01*
X4345Y4150D01*
X4338Y4159D01*
X4330Y4169D01*
X4309Y4192D01*
X4332Y4254D01*
X4345Y4241D01*
D02*
G37*
G36*
X218Y3995D02*
X206Y3982D01*
X186Y3959D01*
X180Y3950D01*
X174Y3941D01*
X171Y3934D01*
X170Y3927D01*
X170Y3922D01*
X172Y3917D01*
X176Y3914D01*
X75Y3975D01*
X80Y3973D01*
X86Y3972D01*
X93Y3973D01*
X100Y3975D01*
X107Y3978D01*
X116Y3983D01*
X125Y3990D01*
X135Y3998D01*
X156Y4018D01*
X218Y3995D01*
D02*
G37*
G36*
X-1400Y4396D02*
X-1398Y4393D01*
X-1395Y4390D01*
X-1392Y4387D01*
X-1387Y4385D01*
X-1382Y4384D01*
X-1375Y4382D01*
X-1368Y4381D01*
X-1359Y4381D01*
X-1349Y4380D01*
Y4320D01*
X-1359Y4320D01*
X-1375Y4319D01*
X-1382Y4317D01*
X-1387Y4315D01*
X-1392Y4313D01*
X-1395Y4311D01*
X-1398Y4308D01*
X-1400Y4305D01*
X-1400Y4301D01*
Y4400D01*
X-1400Y4396D01*
D02*
G37*
G36*
X-5084Y4549D02*
X-5089Y4547D01*
X-5093Y4544D01*
X-5097Y4540D01*
X-5100Y4534D01*
X-5103Y4528D01*
X-5105Y4520D01*
X-5107Y4510D01*
X-5107Y4500D01*
X-5108Y4488D01*
X-5168D01*
X-5168Y4500D01*
X-5169Y4510D01*
X-5171Y4520D01*
X-5173Y4528D01*
X-5175Y4534D01*
X-5179Y4540D01*
X-5182Y4544D01*
X-5187Y4547D01*
X-5192Y4549D01*
X-5198Y4550D01*
X-5078D01*
X-5084Y4549D01*
D02*
G37*
G36*
X-431Y4483D02*
X-432Y4490D01*
X-433Y4497D01*
X-434Y4502D01*
X-437Y4505D01*
X-440Y4507D01*
X-443Y4507D01*
X-448Y4506D01*
X-453Y4503D01*
X-459Y4499D01*
X-465Y4493D01*
X-475Y4567D01*
X-467Y4576D01*
X-459Y4585D01*
X-453Y4593D01*
X-447Y4602D01*
X-442Y4610D01*
X-438Y4619D01*
X-435Y4627D01*
X-433Y4636D01*
X-432Y4644D01*
X-431Y4652D01*
Y4483D01*
D02*
G37*
G36*
X4004Y4549D02*
X4000Y4548D01*
X3997Y4545D01*
X3994Y4541D01*
X3992Y4537D01*
X3990Y4531D01*
X3989Y4524D01*
X3988Y4516D01*
X3987Y4507D01*
X3987Y4497D01*
X3927D01*
X3926Y4507D01*
X3925Y4524D01*
X3923Y4531D01*
X3921Y4537D01*
X3919Y4541D01*
X3916Y4545D01*
X3913Y4548D01*
X3910Y4549D01*
X3906Y4550D01*
X4008D01*
X4004Y4549D01*
D02*
G37*
G36*
X5113Y4549D02*
X5108Y4547D01*
X5104Y4544D01*
X5100Y4540D01*
X5097Y4534D01*
X5094Y4528D01*
X5092Y4520D01*
X5090Y4510D01*
X5089Y4500D01*
X5089Y4488D01*
X5029D01*
X5029Y4500D01*
X5028Y4510D01*
X5026Y4520D01*
X5024Y4528D01*
X5022Y4534D01*
X5018Y4540D01*
X5014Y4544D01*
X5010Y4547D01*
X5005Y4549D01*
X4999Y4550D01*
X5119D01*
X5113Y4549D01*
D02*
G37*
G36*
X35Y4451D02*
X34Y4448D01*
X33Y4444D01*
X32Y4438D01*
X31Y4425D01*
X30Y4396D01*
X30Y4385D01*
X-30D01*
X-30Y4396D01*
X-33Y4444D01*
X-34Y4448D01*
X-35Y4451D01*
X-36Y4454D01*
X36D01*
X35Y4451D01*
D02*
G37*
G36*
X2168Y4186D02*
X2167Y4194D01*
X2166Y4202D01*
X2164Y4211D01*
X2161Y4219D01*
X2157Y4227D01*
X2152Y4236D01*
X2146Y4244D01*
X2140Y4253D01*
X2132Y4262D01*
X2124Y4270D01*
Y4355D01*
X2132Y4347D01*
X2140Y4341D01*
X2146Y4337D01*
X2152Y4334D01*
X2157Y4333D01*
X2161Y4334D01*
X2164Y4337D01*
X2166Y4341D01*
X2167Y4347D01*
X2168Y4355D01*
Y4186D01*
D02*
G37*
G36*
X429Y4451D02*
X428Y4448D01*
X427Y4444D01*
X426Y4438D01*
X425Y4425D01*
X424Y4396D01*
X424Y4385D01*
X364D01*
X364Y4396D01*
X361Y4444D01*
X360Y4448D01*
X359Y4451D01*
X358Y4454D01*
X430D01*
X429Y4451D01*
D02*
G37*
G36*
X232D02*
X231Y4448D01*
X230Y4444D01*
X229Y4438D01*
X228Y4425D01*
X227Y4396D01*
X227Y4385D01*
X167D01*
X167Y4396D01*
X164Y4444D01*
X163Y4448D01*
X162Y4451D01*
X161Y4454D01*
X233D01*
X232Y4451D01*
D02*
G37*
G36*
X1166Y6753D02*
X1158Y6758D01*
X1148Y6760D01*
X1137Y6760D01*
X1124Y6756D01*
X1111Y6751D01*
X1096Y6742D01*
X1080Y6731D01*
X1063Y6718D01*
X1044Y6701D01*
X1025Y6682D01*
X934Y6733D01*
X955Y6755D01*
X987Y6793D01*
X999Y6809D01*
X1008Y6824D01*
X1013Y6838D01*
X1016Y6849D01*
X1015Y6859D01*
X1012Y6868D01*
X1005Y6875D01*
X1166Y6753D01*
D02*
G37*
G36*
X-1407Y6895D02*
X-1411Y6884D01*
X-1411Y6872D01*
X-1408Y6858D01*
X-1401Y6842D01*
X-1391Y6824D01*
X-1377Y6804D01*
X-1360Y6783D01*
X-1314Y6733D01*
X-1419Y6668D01*
X-1442Y6691D01*
X-1485Y6727D01*
X-1504Y6741D01*
X-1522Y6751D01*
X-1538Y6758D01*
X-1553Y6761D01*
X-1566Y6762D01*
X-1578Y6759D01*
X-1588Y6753D01*
X-1399Y6903D01*
X-1407Y6895D01*
D02*
G37*
G36*
X-1750Y6789D02*
X-1751Y6801D01*
X-1754Y6811D01*
X-1760Y6820D01*
X-1769Y6828D01*
X-1780Y6834D01*
X-1793Y6840D01*
X-1809Y6844D01*
X-1827Y6847D01*
X-1848Y6849D01*
X-1871Y6849D01*
Y6969D01*
X-1848Y6970D01*
X-1827Y6972D01*
X-1809Y6975D01*
X-1793Y6979D01*
X-1780Y6984D01*
X-1769Y6991D01*
X-1760Y6999D01*
X-1754Y7008D01*
X-1751Y7018D01*
X-1750Y7029D01*
Y6789D01*
D02*
G37*
G36*
X-2088Y7018D02*
X-2084Y7008D01*
X-2078Y6999D01*
X-2070Y6991D01*
X-2059Y6984D01*
X-2045Y6979D01*
X-2030Y6975D01*
X-2011Y6972D01*
X-1991Y6970D01*
X-1968Y6969D01*
Y6849D01*
X-1991Y6849D01*
X-2011Y6847D01*
X-2030Y6844D01*
X-2045Y6840D01*
X-2059Y6834D01*
X-2070Y6828D01*
X-2078Y6820D01*
X-2084Y6811D01*
X-2088Y6801D01*
X-2089Y6789D01*
Y7029D01*
X-2088Y7018D01*
D02*
G37*
G36*
X-4231Y6372D02*
X-4264Y6406D01*
X-4355Y6485D01*
X-4382Y6505D01*
X-4407Y6520D01*
X-4431Y6533D01*
X-4452Y6542D01*
X-4472Y6547D01*
X-4491Y6549D01*
Y6609D01*
X-4472Y6611D01*
X-4452Y6616D01*
X-4431Y6625D01*
X-4407Y6637D01*
X-4382Y6653D01*
X-4355Y6672D01*
X-4296Y6722D01*
X-4264Y6752D01*
X-4231Y6785D01*
Y6372D01*
D02*
G37*
G36*
X-4775Y6752D02*
X-4684Y6672D01*
X-4657Y6653D01*
X-4632Y6637D01*
X-4609Y6625D01*
X-4587Y6616D01*
X-4567Y6611D01*
X-4549Y6609D01*
Y6549D01*
X-4567Y6547D01*
X-4587Y6542D01*
X-4609Y6533D01*
X-4632Y6520D01*
X-4657Y6505D01*
X-4684Y6485D01*
X-4743Y6436D01*
X-4775Y6406D01*
X-4809Y6372D01*
Y6785D01*
X-4775Y6752D01*
D02*
G37*
G36*
X4809Y6404D02*
X4775Y6437D01*
X4684Y6517D01*
X4657Y6536D01*
X4632Y6552D01*
X4609Y6564D01*
X4587Y6573D01*
X4567Y6578D01*
X4549Y6580D01*
Y6640D01*
X4567Y6642D01*
X4587Y6647D01*
X4609Y6656D01*
X4632Y6669D01*
X4657Y6684D01*
X4684Y6704D01*
X4743Y6753D01*
X4775Y6783D01*
X4809Y6817D01*
Y6404D01*
D02*
G37*
G36*
X4264Y6783D02*
X4355Y6704D01*
X4382Y6684D01*
X4407Y6669D01*
X4431Y6656D01*
X4452Y6647D01*
X4472Y6642D01*
X4491Y6640D01*
Y6580D01*
X4472Y6578D01*
X4452Y6573D01*
X4431Y6564D01*
X4407Y6552D01*
X4382Y6536D01*
X4355Y6517D01*
X4296Y6467D01*
X4264Y6437D01*
X4231Y6404D01*
Y6817D01*
X4264Y6783D01*
D02*
G37*
G36*
X1357Y7000D02*
X1360Y6991D01*
X1365Y6984D01*
X1372Y6977D01*
X1381Y6972D01*
X1392Y6967D01*
X1405Y6964D01*
X1421Y6961D01*
X1438Y6960D01*
X1457Y6959D01*
Y6859D01*
X1438Y6859D01*
X1421Y6857D01*
X1405Y6855D01*
X1392Y6851D01*
X1381Y6847D01*
X1372Y6841D01*
X1365Y6835D01*
X1360Y6827D01*
X1357Y6819D01*
X1356Y6809D01*
Y7009D01*
X1357Y7000D01*
D02*
G37*
G36*
X-826Y7616D02*
X-946D01*
X-946Y7616D01*
X-946Y7618D01*
X-946Y7677D01*
X-826D01*
X-826Y7616D01*
D02*
G37*
G36*
X427Y7492D02*
X420Y7489D01*
X414Y7485D01*
X409Y7479D01*
X404Y7472D01*
X401Y7463D01*
X398Y7453D01*
X396Y7441D01*
X395Y7427D01*
X394Y7411D01*
X314D01*
X316Y7491D01*
X434Y7493D01*
X427Y7492D01*
D02*
G37*
G36*
X261Y9644D02*
X248Y9624D01*
X237Y9602D01*
X227Y9577D01*
X219Y9549D01*
X212Y9518D01*
X207Y9485D01*
X203Y9448D01*
X200Y9366D01*
X-200D01*
X-201Y9408D01*
X-207Y9485D01*
X-212Y9518D01*
X-219Y9549D01*
X-227Y9577D01*
X-237Y9602D01*
X-248Y9624D01*
X-261Y9644D01*
X-276Y9660D01*
X276D01*
X261Y9644D01*
D02*
G37*
G36*
X-393Y7747D02*
X-394Y7749D01*
X-397Y7750D01*
X-403Y7751D01*
X-412Y7752D01*
X-436Y7754D01*
X-512Y7755D01*
Y7875D01*
X-490Y7875D01*
X-394Y7881D01*
X-393Y7883D01*
Y7747D01*
D02*
G37*
G36*
X-156Y7130D02*
X-155Y7116D01*
X-153Y7104D01*
X-150Y7094D01*
X-147Y7085D01*
X-143Y7078D01*
X-137Y7072D01*
X-131Y7068D01*
X-125Y7065D01*
X-117Y7065D01*
X-277D01*
X-269Y7065D01*
X-262Y7068D01*
X-256Y7072D01*
X-251Y7078D01*
X-247Y7085D01*
X-243Y7094D01*
X-240Y7104D01*
X-238Y7116D01*
X-237Y7130D01*
X-237Y7146D01*
X-157D01*
X-156Y7130D01*
D02*
G37*
G36*
X1695Y6809D02*
X1694Y6819D01*
X1691Y6827D01*
X1686Y6835D01*
X1679Y6841D01*
X1670Y6847D01*
X1659Y6851D01*
X1646Y6855D01*
X1631Y6857D01*
X1613Y6859D01*
X1594Y6859D01*
Y6959D01*
X1613Y6960D01*
X1631Y6961D01*
X1646Y6964D01*
X1659Y6967D01*
X1670Y6972D01*
X1679Y6977D01*
X1686Y6984D01*
X1691Y6991D01*
X1694Y7000D01*
X1695Y7009D01*
Y6809D01*
D02*
G37*
G36*
X-125Y7492D02*
X-131Y7489D01*
X-137Y7485D01*
X-143Y7480D01*
X-147Y7472D01*
X-150Y7463D01*
X-153Y7453D01*
X-155Y7441D01*
X-156Y7427D01*
X-157Y7411D01*
X-237D01*
X-237Y7427D01*
X-238Y7441D01*
X-240Y7453D01*
X-243Y7463D01*
X-247Y7472D01*
X-251Y7480D01*
X-256Y7485D01*
X-262Y7489D01*
X-269Y7492D01*
X-277Y7493D01*
X-117D01*
X-125Y7492D01*
D02*
G37*
G36*
X395Y7130D02*
X396Y7116D01*
X398Y7104D01*
X401Y7094D01*
X404Y7085D01*
X409Y7078D01*
X414Y7072D01*
X420Y7068D01*
X427Y7065D01*
X434Y7065D01*
X274D01*
X282Y7065D01*
X289Y7068D01*
X295Y7072D01*
X300Y7078D01*
X304Y7085D01*
X308Y7094D01*
X311Y7104D01*
X313Y7116D01*
X314Y7130D01*
X314Y7146D01*
X394D01*
X395Y7130D01*
D02*
G37*
G36*
X656Y5681D02*
X676Y5663D01*
X686Y5657D01*
X695Y5652D01*
X703Y5648D01*
X710Y5646D01*
X717Y5645D01*
X723Y5646D01*
X729Y5648D01*
X633Y5595D01*
X632Y5601D01*
X630Y5607D01*
X627Y5613D01*
X624Y5619D01*
X620Y5626D01*
X615Y5632D01*
X604Y5646D01*
X597Y5654D01*
X590Y5661D01*
X644Y5692D01*
X656Y5681D01*
D02*
G37*
G36*
X-960Y5574D02*
X-962Y5575D01*
X-965Y5576D01*
X-970Y5577D01*
X-975Y5578D01*
X-989Y5579D01*
X-1017Y5580D01*
X-1029Y5580D01*
Y5640D01*
X-1017Y5640D01*
X-970Y5643D01*
X-965Y5644D01*
X-962Y5645D01*
X-960Y5646D01*
Y5574D01*
D02*
G37*
G36*
X1635Y5747D02*
X1634Y5753D01*
X1633Y5758D01*
X1630Y5762D01*
X1625Y5766D01*
X1620Y5770D01*
X1613Y5772D01*
X1606Y5774D01*
X1597Y5776D01*
X1586Y5777D01*
X1575Y5777D01*
Y5837D01*
X1586Y5837D01*
X1597Y5838D01*
X1606Y5840D01*
X1613Y5842D01*
X1620Y5845D01*
X1625Y5848D01*
X1630Y5852D01*
X1633Y5856D01*
X1634Y5861D01*
X1635Y5867D01*
Y5747D01*
D02*
G37*
G36*
X4374Y5922D02*
X4362Y5908D01*
X4352Y5890D01*
X4343Y5868D01*
X4335Y5843D01*
X4328Y5814D01*
X4323Y5781D01*
X4317Y5705D01*
X4315Y5661D01*
X4315Y5613D01*
X4023Y5906D01*
X4070Y5906D01*
X4191Y5914D01*
X4224Y5919D01*
X4253Y5926D01*
X4278Y5933D01*
X4299Y5942D01*
X4317Y5953D01*
X4331Y5964D01*
X4374Y5922D01*
D02*
G37*
G36*
X-590Y5464D02*
X-597Y5457D01*
X-615Y5436D01*
X-620Y5429D01*
X-624Y5422D01*
X-627Y5416D01*
X-630Y5410D01*
X-632Y5404D01*
X-633Y5398D01*
X-729Y5451D01*
X-723Y5449D01*
X-717Y5448D01*
X-710Y5449D01*
X-703Y5451D01*
X-695Y5455D01*
X-686Y5460D01*
X-676Y5466D01*
X-666Y5474D01*
X-644Y5495D01*
X-590Y5464D01*
D02*
G37*
G36*
X962Y5448D02*
X965Y5447D01*
X970Y5446D01*
X975Y5446D01*
X989Y5444D01*
X1017Y5443D01*
X1029Y5443D01*
Y5383D01*
X1017Y5383D01*
X970Y5380D01*
X965Y5380D01*
X962Y5379D01*
X960Y5377D01*
Y5449D01*
X962Y5448D01*
D02*
G37*
G36*
X-1399Y5665D02*
X-1398Y5659D01*
X-1395Y5655D01*
X-1390Y5651D01*
X-1385Y5648D01*
X-1378Y5645D01*
X-1370Y5643D01*
X-1361Y5641D01*
X-1350Y5641D01*
X-1339Y5640D01*
Y5580D01*
X-1350Y5580D01*
X-1361Y5579D01*
X-1370Y5578D01*
X-1378Y5575D01*
X-1385Y5573D01*
X-1390Y5569D01*
X-1395Y5566D01*
X-1398Y5561D01*
X-1399Y5556D01*
X-1400Y5550D01*
Y5670D01*
X-1399Y5665D01*
D02*
G37*
G36*
X1846Y5533D02*
X1841Y5531D01*
X1836Y5528D01*
X1832Y5524D01*
X1829Y5519D01*
X1826Y5512D01*
X1824Y5504D01*
X1823Y5495D01*
X1822Y5484D01*
X1821Y5473D01*
X1761D01*
X1761Y5484D01*
X1760Y5495D01*
X1759Y5504D01*
X1757Y5512D01*
X1754Y5519D01*
X1751Y5524D01*
X1747Y5528D01*
X1742Y5531D01*
X1737Y5533D01*
X1731Y5534D01*
X1851D01*
X1846Y5533D01*
D02*
G37*
G36*
X962Y5842D02*
X965Y5841D01*
X970Y5840D01*
X975Y5839D01*
X989Y5838D01*
X1017Y5837D01*
X1029Y5837D01*
Y5777D01*
X1017Y5777D01*
X970Y5774D01*
X965Y5773D01*
X962Y5772D01*
X960Y5771D01*
Y5843D01*
X962Y5842D01*
D02*
G37*
G36*
X-4497Y6484D02*
X-4484Y6483D01*
X-4473Y6480D01*
X-4458Y6474D01*
X-4440Y6464D01*
X-4419Y6451D01*
X-4396Y6434D01*
X-4309Y6358D01*
X-4276Y6326D01*
X-4271Y6324D01*
X-4208Y6275D01*
X-4203Y6269D01*
X-4202Y6269D01*
X-4201Y6267D01*
X-3916Y6102D01*
X-3914Y6102D01*
X-3375Y5563D01*
Y4149D01*
X-3368Y4114D01*
X-3348Y4085D01*
X-2893Y3630D01*
X-2913Y3584D01*
X-3174D01*
X-3179Y3587D01*
X-3183Y3586D01*
X-3188Y3587D01*
X-3197Y3584D01*
X-3249D01*
Y3537D01*
X-3252Y3531D01*
X-3252Y3530D01*
X-3252Y3530D01*
X-3261Y3526D01*
X-3276Y3522D01*
X-3295Y3518D01*
X-3354Y3512D01*
X-3389Y3511D01*
X-3393Y3510D01*
X-3398D01*
X-3402Y3511D01*
X-3439Y3512D01*
X-3469Y3514D01*
X-3495Y3517D01*
X-3515Y3522D01*
X-3530Y3526D01*
X-3539Y3530D01*
X-3539Y3530D01*
X-3539Y3531D01*
X-3542Y3537D01*
Y3584D01*
X-3595D01*
X-3604Y3587D01*
X-3608Y3586D01*
X-3612Y3587D01*
X-3618Y3584D01*
X-3976D01*
X-3979Y3596D01*
X-3999Y3626D01*
X-4088Y3715D01*
X-4118Y3735D01*
X-4153Y3742D01*
X-4967D01*
X-4971Y3748D01*
X-4945Y3798D01*
X-4920D01*
Y4174D01*
X-4874Y4193D01*
X-4835Y4154D01*
X-4832Y4147D01*
X-4822Y4136D01*
X-4815Y4128D01*
X-4809Y4121D01*
X-4805Y4116D01*
X-4804Y4113D01*
Y4105D01*
X-4806Y4092D01*
X-4804Y4089D01*
Y3798D01*
X-4369D01*
Y4273D01*
X-4671D01*
X-4682Y4276D01*
X-4687Y4274D01*
X-4688Y4274D01*
X-4706Y4289D01*
X-4717Y4300D01*
X-4725Y4303D01*
X-4799Y4377D01*
Y4487D01*
X-4369D01*
Y4962D01*
X-4436D01*
X-4457Y5012D01*
X-4296Y5173D01*
X-4290Y5174D01*
X-4280Y5183D01*
X-4270Y5188D01*
X-4256Y5195D01*
X-4236Y5201D01*
X-4211Y5206D01*
X-4183Y5211D01*
X-4068Y5218D01*
X-4022Y5219D01*
X-4017Y5221D01*
X-3927Y5233D01*
X-3841Y5268D01*
X-3766Y5325D01*
X-3709Y5400D01*
X-3674Y5486D01*
X-3661Y5579D01*
X-3674Y5671D01*
X-3709Y5758D01*
X-3766Y5832D01*
X-3841Y5889D01*
X-3927Y5925D01*
X-4020Y5937D01*
X-4112Y5925D01*
X-4199Y5889D01*
X-4273Y5832D01*
X-4330Y5758D01*
X-4366Y5671D01*
X-4378Y5581D01*
X-4380Y5576D01*
X-4380Y5529D01*
X-4381Y5488D01*
X-4388Y5416D01*
X-4392Y5387D01*
X-4398Y5363D01*
X-4404Y5343D01*
X-4410Y5328D01*
X-4416Y5318D01*
X-4424Y5308D01*
X-4426Y5302D01*
X-4652Y5077D01*
X-4671Y5047D01*
X-4678Y5012D01*
Y4969D01*
X-4682Y4962D01*
X-4682Y4962D01*
X-4799D01*
Y5133D01*
X-4682Y5452D01*
X-4682Y5453D01*
X-4682Y5453D01*
X-4683Y5464D01*
X-4674Y5486D01*
X-4661Y5579D01*
X-4674Y5671D01*
X-4709Y5758D01*
X-4766Y5832D01*
X-4841Y5889D01*
X-4927Y5925D01*
X-5020Y5937D01*
X-5112Y5925D01*
X-5199Y5889D01*
X-5262Y5841D01*
X-5312Y5857D01*
Y6300D01*
X-5262Y6317D01*
X-5199Y6268D01*
X-5112Y6233D01*
X-5020Y6220D01*
X-4927Y6233D01*
X-4841Y6268D01*
X-4768Y6324D01*
X-4763Y6326D01*
X-4730Y6359D01*
X-4700Y6387D01*
X-4644Y6434D01*
X-4621Y6451D01*
X-4600Y6464D01*
X-4581Y6474D01*
X-4566Y6480D01*
X-4555Y6483D01*
X-4543Y6484D01*
X-4537Y6487D01*
X-4502D01*
X-4497Y6484D01*
D02*
G37*
G36*
X-3801Y6376D02*
X-3817Y6347D01*
X-3830Y6320D01*
X-3839Y6294D01*
X-3843Y6270D01*
X-3844Y6247D01*
X-3842Y6226D01*
X-3835Y6206D01*
X-3825Y6187D01*
X-3810Y6170D01*
X-3883Y6158D01*
X-4168Y6323D01*
X-3780Y6406D01*
X-3801Y6376D01*
D02*
G37*
G36*
X4017Y6315D02*
X3969Y6315D01*
X3849Y6307D01*
X3816Y6301D01*
X3787Y6295D01*
X3762Y6287D01*
X3740Y6278D01*
X3722Y6268D01*
X3708Y6256D01*
X3665Y6298D01*
X3677Y6313D01*
X3688Y6330D01*
X3697Y6352D01*
X3704Y6377D01*
X3711Y6406D01*
X3716Y6439D01*
X3723Y6516D01*
X3724Y6560D01*
X3724Y6607D01*
X4017Y6315D01*
D02*
G37*
G36*
X-431Y6178D02*
X-351D01*
X-354Y6175D01*
X-356Y6169D01*
X-358Y6161D01*
X-359Y6151D01*
X-362Y6125D01*
X-364Y6071D01*
X-364Y6068D01*
X-358D01*
X-359Y6065D01*
X-360Y6062D01*
X-361Y6058D01*
X-362Y6052D01*
X-363Y6039D01*
X-364Y6010D01*
X-364Y5999D01*
X-424D01*
X-424Y6010D01*
X-427Y6058D01*
X-428Y6062D01*
X-429Y6065D01*
X-430Y6068D01*
X-424D01*
X-424Y6071D01*
X-430Y6161D01*
X-431Y6168D01*
Y6100D01*
X-433Y6112D01*
X-436Y6122D01*
X-442Y6131D01*
X-451Y6139D01*
X-462Y6145D01*
X-475Y6151D01*
X-491Y6155D01*
X-496Y6156D01*
X-502Y6155D01*
X-517Y6151D01*
X-531Y6145D01*
X-541Y6139D01*
X-550Y6131D01*
X-556Y6122D01*
X-559Y6113D01*
X-560Y6071D01*
X-561Y6049D01*
X-621D01*
X-621Y6071D01*
X-624Y6118D01*
X-625Y6122D01*
X-631Y6131D01*
X-640Y6139D01*
X-651Y6145D01*
X-664Y6151D01*
X-679Y6155D01*
X-697Y6158D01*
X-718Y6160D01*
X-741Y6160D01*
X-591Y6280D01*
X-553Y6250D01*
Y6280D01*
X-530Y6281D01*
X-509Y6283D01*
X-491Y6286D01*
X-475Y6290D01*
X-462Y6295D01*
X-451Y6302D01*
X-442Y6310D01*
X-436Y6319D01*
X-433Y6329D01*
X-431Y6340D01*
Y6178D01*
D02*
G37*
G36*
X-1403Y6086D02*
X-1406Y6081D01*
X-1406Y6076D01*
X-1405Y6069D01*
X-1401Y6061D01*
X-1396Y6052D01*
X-1389Y6042D01*
X-1380Y6030D01*
X-1356Y6005D01*
X-1419Y5982D01*
X-1430Y5993D01*
X-1451Y6011D01*
X-1460Y6017D01*
X-1469Y6022D01*
X-1477Y6026D01*
X-1485Y6028D01*
X-1492Y6028D01*
X-1498Y6027D01*
X-1503Y6025D01*
X-1399Y6090D01*
X-1403Y6086D01*
D02*
G37*
G36*
X-162Y6066D02*
X-163Y6062D01*
X-164Y6058D01*
X-165Y6053D01*
X-166Y6041D01*
X-167Y6016D01*
X-161Y6011D01*
X-152Y6003D01*
X-142Y5997D01*
X-132Y5992D01*
X-122Y5987D01*
X-112Y5983D01*
X-101Y5980D01*
X-90Y5978D01*
X-79Y5977D01*
X-67Y5976D01*
X-139Y5916D01*
X-272Y5976D01*
X-260Y5976D01*
X-234Y5977D01*
X-228Y5978D01*
X-224Y5979D01*
X-220Y5979D01*
X-218Y5980D01*
X-217Y5982D01*
X-218Y5983D01*
X-189Y6004D01*
X-227D01*
X-227Y6014D01*
X-230Y6058D01*
X-231Y6062D01*
X-232Y6066D01*
X-233Y6068D01*
X-161D01*
X-162Y6066D01*
D02*
G37*
G36*
X432Y6278D02*
X434Y6277D01*
X437Y6275D01*
X441Y6274D01*
X447Y6273D01*
X453Y6272D01*
X470Y6271D01*
X492Y6270D01*
Y6170D01*
X481Y6170D01*
X468Y6170D01*
X475Y6162D01*
Y6077D01*
X467Y6085D01*
X459Y6091D01*
X452Y6096D01*
X447Y6098D01*
X442Y6099D01*
X438Y6099D01*
X435Y6096D01*
X432Y6092D01*
X431Y6086D01*
X430Y6078D01*
X431Y6247D01*
Y6280D01*
X432Y6278D01*
D02*
G37*
G36*
X429Y6065D02*
X428Y6062D01*
X427Y6058D01*
X426Y6052D01*
X425Y6039D01*
X424Y6010D01*
X424Y5999D01*
X364D01*
X364Y6010D01*
X361Y6058D01*
X360Y6062D01*
X359Y6065D01*
X358Y6068D01*
X430D01*
X429Y6065D01*
D02*
G37*
G36*
X515Y1796D02*
X509Y1795D01*
X504Y1792D01*
X498Y1790D01*
X492Y1786D01*
X485Y1782D01*
X471Y1771D01*
X463Y1764D01*
X448Y1749D01*
X397Y1783D01*
X408Y1795D01*
X425Y1816D01*
X432Y1825D01*
X436Y1833D01*
X439Y1841D01*
X440Y1847D01*
X440Y1853D01*
X438Y1858D01*
X434Y1862D01*
X515Y1796D01*
D02*
G37*
G36*
X-1257D02*
X-1262Y1795D01*
X-1268Y1792D01*
X-1274Y1790D01*
X-1280Y1786D01*
X-1287Y1782D01*
X-1301Y1771D01*
X-1308Y1764D01*
X-1324Y1749D01*
X-1375Y1783D01*
X-1364Y1795D01*
X-1346Y1816D01*
X-1340Y1825D01*
X-1335Y1833D01*
X-1333Y1841D01*
X-1331Y1847D01*
X-1332Y1853D01*
X-1334Y1858D01*
X-1337Y1862D01*
X-1257Y1796D01*
D02*
G37*
G36*
X-1525Y4195D02*
X-1515D01*
X-1521Y4195D01*
X-1525Y4193D01*
Y4143D01*
X-1523Y4139D01*
X-1513Y4124D01*
X-1501Y4108D01*
X-1488Y4093D01*
X-1425D01*
X-1398Y4043D01*
X-1400Y4041D01*
X-1407Y4006D01*
Y3867D01*
X-1541Y3733D01*
X-1561Y3703D01*
X-1568Y3668D01*
Y2677D01*
X-1571Y2670D01*
X-1572Y2662D01*
X-1572Y2656D01*
X-1573Y2650D01*
X-1574Y2644D01*
X-1575Y2639D01*
X-1577Y2635D01*
X-1578Y2630D01*
X-1580Y2626D01*
X-1582Y2622D01*
X-1586Y2616D01*
X-1587Y2607D01*
X-1589Y2605D01*
X-1591Y2593D01*
X-1596Y2582D01*
X-1594Y2577D01*
X-1598Y2559D01*
Y1956D01*
X-1644Y1937D01*
X-1750Y2043D01*
Y4093D01*
X-1662D01*
X-1648Y4108D01*
X-1637Y4124D01*
X-1627Y4139D01*
X-1625Y4143D01*
Y4193D01*
X-1629Y4195D01*
X-1635Y4195D01*
X-1625D01*
Y4350D01*
X-1525D01*
Y4195D01*
D02*
G37*
G36*
X-3313Y1964D02*
X-3311Y1959D01*
X-3307Y1952D01*
X-3301Y1944D01*
X-3284Y1924D01*
X-3247Y1884D01*
X-3231Y1868D01*
X-3274Y1826D01*
X-3290Y1841D01*
X-3358Y1901D01*
X-3364Y1905D01*
X-3370Y1908D01*
X-3374Y1909D01*
X-3314Y1969D01*
X-3313Y1964D01*
D02*
G37*
G36*
X712Y1796D02*
X712Y1795D01*
X711Y1794D01*
X709Y1791D01*
X705Y1786D01*
X675Y1755D01*
X652Y1731D01*
X604Y1768D01*
X614Y1779D01*
X630Y1798D01*
X636Y1806D01*
X639Y1814D01*
X642Y1820D01*
X642Y1826D01*
X641Y1831D01*
X638Y1836D01*
X633Y1839D01*
X712Y1796D01*
D02*
G37*
G36*
X908D02*
X910Y1796D01*
X911Y1794D01*
X909Y1791D01*
X906Y1787D01*
X902Y1781D01*
X887Y1765D01*
X854Y1730D01*
X804Y1765D01*
X814Y1776D01*
X829Y1794D01*
X835Y1803D01*
X838Y1810D01*
X840Y1816D01*
X840Y1822D01*
X839Y1827D01*
X836Y1831D01*
X831Y1834D01*
X908Y1796D01*
D02*
G37*
G36*
X1329Y1820D02*
X1325Y1813D01*
X1322Y1805D01*
X1318Y1796D01*
X1316Y1788D01*
X1313Y1779D01*
X1312Y1770D01*
X1310Y1760D01*
X1310Y1751D01*
X1310Y1741D01*
X1250D01*
X1249Y1751D01*
X1247Y1770D01*
X1246Y1779D01*
X1243Y1788D01*
X1241Y1796D01*
X1238Y1805D01*
X1234Y1813D01*
X1230Y1820D01*
X1225Y1828D01*
X1334D01*
X1329Y1820D01*
D02*
G37*
G36*
X1133D02*
X1128Y1813D01*
X1125Y1805D01*
X1121Y1796D01*
X1119Y1788D01*
X1117Y1779D01*
X1115Y1770D01*
X1114Y1760D01*
X1113Y1751D01*
X1113Y1741D01*
X1053D01*
X1052Y1751D01*
X1050Y1770D01*
X1049Y1779D01*
X1047Y1788D01*
X1044Y1796D01*
X1041Y1805D01*
X1037Y1813D01*
X1033Y1820D01*
X1028Y1828D01*
X1137D01*
X1133Y1820D01*
D02*
G37*
G36*
X5070Y1961D02*
X5066Y1970D01*
X5062Y1979D01*
X5057Y1986D01*
X5051Y1992D01*
X5044Y1997D01*
X5035Y2002D01*
X5026Y2005D01*
X5016Y2007D01*
X5004Y2009D01*
X4992Y2009D01*
Y2069D01*
X5004Y2070D01*
X5016Y2071D01*
X5026Y2074D01*
X5035Y2077D01*
X5044Y2081D01*
X5051Y2087D01*
X5057Y2093D01*
X5062Y2100D01*
X5066Y2108D01*
X5070Y2117D01*
Y1961D01*
D02*
G37*
G36*
X2475Y2630D02*
X2467Y2620D01*
X2460Y2609D01*
X2454Y2597D01*
X2448Y2582D01*
X2444Y2567D01*
X2440Y2549D01*
X2437Y2530D01*
X2435Y2509D01*
X2434Y2462D01*
X2265Y2631D01*
X2290Y2631D01*
X2333Y2634D01*
X2352Y2637D01*
X2370Y2640D01*
X2386Y2645D01*
X2400Y2651D01*
X2413Y2657D01*
X2424Y2664D01*
X2433Y2672D01*
X2475Y2630D01*
D02*
G37*
G36*
X-4155Y2491D02*
X-4160Y2491D01*
X-4163Y2488D01*
X-4164Y2484D01*
X-4162Y2478D01*
X-4158Y2470D01*
X-4152Y2461D01*
X-4143Y2450D01*
X-4119Y2423D01*
X-4103Y2406D01*
X-4230Y2364D01*
X-4256Y2388D01*
X-4303Y2429D01*
X-4326Y2446D01*
X-4348Y2460D01*
X-4368Y2472D01*
X-4388Y2481D01*
X-4407Y2487D01*
X-4425Y2491D01*
X-4443Y2493D01*
X-4155Y2491D01*
D02*
G37*
G36*
X-1446Y2659D02*
X-1444Y2640D01*
X-1442Y2631D01*
X-1440Y2622D01*
X-1438Y2613D01*
X-1434Y2605D01*
X-1431Y2597D01*
X-1427Y2589D01*
X-1422Y2582D01*
X-1531D01*
X-1526Y2589D01*
X-1522Y2597D01*
X-1518Y2605D01*
X-1515Y2613D01*
X-1513Y2622D01*
X-1510Y2631D01*
X-1509Y2640D01*
X-1507Y2649D01*
X-1507Y2659D01*
X-1506Y2669D01*
X-1446D01*
X-1446Y2659D01*
D02*
G37*
G36*
X-3604Y2751D02*
X-3601Y2746D01*
X-3597Y2742D01*
X-3590Y2738D01*
X-3582Y2735D01*
X-3572Y2732D01*
X-3560Y2730D01*
X-3547Y2729D01*
X-3514Y2727D01*
Y2607D01*
X-3531Y2607D01*
X-3560Y2605D01*
X-3572Y2603D01*
X-3582Y2600D01*
X-3590Y2597D01*
X-3597Y2593D01*
X-3601Y2588D01*
X-3604Y2583D01*
X-3605Y2578D01*
Y2757D01*
X-3604Y2751D01*
D02*
G37*
G36*
X5215Y2574D02*
X4753Y2113D01*
X4701Y2131D01*
X4700Y2132D01*
X4665Y2219D01*
X4608Y2293D01*
X4534Y2350D01*
X4447Y2386D01*
X4354Y2398D01*
X4262Y2386D01*
X4175Y2350D01*
X4101Y2293D01*
X4044Y2219D01*
X4008Y2132D01*
X3996Y2042D01*
X3994Y2037D01*
X3994Y1990D01*
X3993Y1949D01*
X3986Y1876D01*
X3982Y1848D01*
X3976Y1823D01*
X3970Y1803D01*
X3964Y1789D01*
X3958Y1779D01*
X3950Y1769D01*
X3948Y1763D01*
X3930Y1745D01*
X3493D01*
X3486Y1748D01*
X3485Y1748D01*
Y1871D01*
X3011D01*
Y1629D01*
X2981Y1599D01*
X1794D01*
X1775Y1645D01*
X2119Y1989D01*
X3262D01*
X3297Y1996D01*
X3327Y2016D01*
X5057Y3746D01*
X5065Y3749D01*
X5076Y3760D01*
X5097Y3778D01*
X5105Y3784D01*
X5112Y3789D01*
X5118Y3792D01*
X5123Y3794D01*
X5126Y3795D01*
X5126Y3796D01*
X5130Y3796D01*
X5135Y3798D01*
X5215D01*
Y2574D01*
D02*
G37*
G36*
X-3910Y2214D02*
X-3865Y2176D01*
X-3845Y2162D01*
X-3827Y2151D01*
X-3811Y2144D01*
X-3797Y2141D01*
X-3785Y2142D01*
X-3774Y2146D01*
X-3766Y2153D01*
X-3915Y1965D01*
X-3909Y1975D01*
X-3907Y1987D01*
X-3907Y2000D01*
X-3911Y2014D01*
X-3918Y2031D01*
X-3928Y2048D01*
X-3942Y2068D01*
X-3958Y2088D01*
X-4001Y2135D01*
X-3936Y2239D01*
X-3910Y2214D01*
D02*
G37*
G36*
X3872Y3794D02*
X3892Y3764D01*
X3982Y3673D01*
X4012Y3653D01*
X4047Y3647D01*
X4627D01*
X4648Y3597D01*
X3224Y2172D01*
X2538D01*
X2519Y2219D01*
X3774Y3473D01*
X3794Y3503D01*
X3801Y3538D01*
Y3798D01*
X3871D01*
X3872Y3794D01*
D02*
G37*
G36*
X1535Y2255D02*
X1537Y2250D01*
X1540Y2245D01*
X1544Y2241D01*
X1549Y2238D01*
X1556Y2235D01*
X1564Y2233D01*
X1573Y2232D01*
X1584Y2231D01*
X1595Y2231D01*
Y2171D01*
X1584Y2170D01*
X1573Y2169D01*
X1564Y2168D01*
X1556Y2166D01*
X1549Y2163D01*
X1544Y2160D01*
X1540Y2156D01*
X1537Y2151D01*
X1535Y2146D01*
X1534Y2141D01*
Y2261D01*
X1535Y2255D01*
D02*
G37*
G36*
X-3609Y1982D02*
X-3612Y1970D01*
X-3612Y1957D01*
X-3608Y1942D01*
X-3601Y1926D01*
X-3591Y1908D01*
X-3578Y1889D01*
X-3561Y1868D01*
X-3542Y1846D01*
X-3519Y1822D01*
X-3584Y1718D01*
X-3609Y1742D01*
X-3655Y1781D01*
X-3674Y1795D01*
X-3692Y1805D01*
X-3708Y1812D01*
X-3723Y1815D01*
X-3735Y1814D01*
X-3745Y1810D01*
X-3754Y1802D01*
X-3604Y1992D01*
X-3609Y1982D01*
D02*
G37*
G36*
X-5268Y1300D02*
X-5276Y1282D01*
X-5282Y1266D01*
X-5286Y1250D01*
X-5288Y1234D01*
X-5287Y1220D01*
X-5284Y1206D01*
X-5278Y1193D01*
X-5271Y1181D01*
X-5261Y1169D01*
X-5330Y1154D01*
X-5336Y1159D01*
X-5344Y1165D01*
X-5367Y1180D01*
X-5446Y1225D01*
X-5500Y1254D01*
X-5257Y1318D01*
X-5268Y1300D01*
D02*
G37*
G36*
X1048Y1176D02*
X1039Y1165D01*
X1031Y1153D01*
X1026Y1142D01*
X1024Y1131D01*
X1023Y1119D01*
X1025Y1107D01*
X1030Y1095D01*
X1036Y1082D01*
X1045Y1070D01*
X1057Y1057D01*
X836Y1077D01*
X856Y1091D01*
X978Y1191D01*
X990Y1202D01*
X1048Y1176D01*
D02*
G37*
G36*
X-2582Y1225D02*
X-2589Y1230D01*
X-2597Y1234D01*
X-2605Y1238D01*
X-2613Y1241D01*
X-2622Y1243D01*
X-2631Y1246D01*
X-2640Y1247D01*
X-2649Y1249D01*
X-2659Y1249D01*
X-2669Y1250D01*
Y1310D01*
X-2659Y1310D01*
X-2640Y1312D01*
X-2631Y1313D01*
X-2622Y1316D01*
X-2613Y1318D01*
X-2605Y1322D01*
X-2597Y1325D01*
X-2589Y1329D01*
X-2582Y1334D01*
Y1225D01*
D02*
G37*
G36*
X-3604Y1334D02*
X-3602Y1329D01*
X-3598Y1324D01*
X-3593Y1320D01*
X-3587Y1317D01*
X-3579Y1314D01*
X-3570Y1312D01*
X-3559Y1311D01*
X-3547Y1310D01*
X-3533Y1310D01*
Y1230D01*
X-3547Y1229D01*
X-3570Y1227D01*
X-3579Y1225D01*
X-3587Y1222D01*
X-3593Y1219D01*
X-3598Y1215D01*
X-3602Y1210D01*
X-3604Y1205D01*
X-3605Y1200D01*
Y1340D01*
X-3604Y1334D01*
D02*
G37*
G36*
X-68Y1143D02*
X-65Y1130D01*
X-60Y1116D01*
X-54Y1102D01*
X-46Y1088D01*
X-36Y1073D01*
X-25Y1057D01*
X-11Y1041D01*
X21Y1007D01*
X-217D01*
X-201Y1024D01*
X-172Y1057D01*
X-160Y1073D01*
X-151Y1088D01*
X-143Y1102D01*
X-136Y1116D01*
X-132Y1130D01*
X-129Y1143D01*
X-128Y1155D01*
X-68D01*
X-68Y1143D01*
D02*
G37*
G36*
X-1048Y1191D02*
X-1036Y1181D01*
X-1023Y1172D01*
X-1010Y1165D01*
X-996Y1158D01*
X-982Y1153D01*
X-967Y1149D01*
X-952Y1146D01*
X-937Y1144D01*
X-920Y1144D01*
X-920Y1024D01*
X-936Y1023D01*
X-951Y1021D01*
X-967Y1018D01*
X-981Y1014D01*
X-995Y1009D01*
X-1009Y1002D01*
X-1022Y995D01*
X-1035Y986D01*
X-1047Y976D01*
X-1059Y964D01*
X-1060Y1202D01*
X-1048Y1191D01*
D02*
G37*
G36*
X-4257Y1094D02*
X-4262Y1092D01*
X-4266Y1089D01*
X-4270Y1085D01*
X-4274Y1080D01*
X-4276Y1073D01*
X-4278Y1065D01*
X-4280Y1056D01*
X-4281Y1045D01*
X-4281Y1034D01*
X-4341D01*
X-4341Y1045D01*
X-4342Y1056D01*
X-4344Y1065D01*
X-4346Y1073D01*
X-4349Y1080D01*
X-4352Y1085D01*
X-4356Y1089D01*
X-4360Y1092D01*
X-4365Y1094D01*
X-4371Y1095D01*
X-4251D01*
X-4257Y1094D01*
D02*
G37*
G36*
X2589Y1133D02*
X2597Y1128D01*
X2605Y1125D01*
X2613Y1121D01*
X2622Y1119D01*
X2631Y1117D01*
X2640Y1115D01*
X2649Y1114D01*
X2659Y1113D01*
X2669Y1113D01*
Y1053D01*
X2659Y1052D01*
X2640Y1050D01*
X2631Y1049D01*
X2622Y1047D01*
X2613Y1044D01*
X2605Y1041D01*
X2597Y1037D01*
X2589Y1033D01*
X2582Y1028D01*
Y1137D01*
X2589Y1133D01*
D02*
G37*
G36*
X-1820Y1329D02*
X-1813Y1325D01*
X-1805Y1322D01*
X-1796Y1318D01*
X-1788Y1316D01*
X-1779Y1313D01*
X-1770Y1312D01*
X-1760Y1311D01*
X-1751Y1310D01*
X-1741Y1310D01*
Y1250D01*
X-1751Y1249D01*
X-1770Y1247D01*
X-1779Y1246D01*
X-1788Y1243D01*
X-1796Y1241D01*
X-1805Y1238D01*
X-1813Y1234D01*
X-1820Y1230D01*
X-1828Y1225D01*
Y1334D01*
X-1820Y1329D01*
D02*
G37*
G36*
X3423Y1708D02*
X3425Y1703D01*
X3428Y1698D01*
X3433Y1694D01*
X3438Y1691D01*
X3445Y1688D01*
X3453Y1686D01*
X3462Y1685D01*
X3472Y1684D01*
X3484Y1684D01*
Y1624D01*
X3472Y1623D01*
X3462Y1622D01*
X3453Y1621D01*
X3445Y1619D01*
X3438Y1616D01*
X3433Y1613D01*
X3428Y1609D01*
X3425Y1604D01*
X3423Y1599D01*
X3423Y1594D01*
Y1714D01*
X3423Y1708D01*
D02*
G37*
G36*
X-2255Y1569D02*
X-2246Y1562D01*
X-2238Y1556D01*
X-2229Y1550D01*
X-2221Y1545D01*
X-2212Y1541D01*
X-2204Y1538D01*
X-2195Y1536D01*
X-2187Y1535D01*
X-2179Y1534D01*
X-2349D01*
X-2341Y1535D01*
X-2335Y1536D01*
X-2330Y1538D01*
X-2328Y1541D01*
X-2327Y1545D01*
X-2328Y1550D01*
X-2330Y1556D01*
X-2335Y1562D01*
X-2341Y1569D01*
X-2349Y1578D01*
X-2264D01*
X-2255Y1569D01*
D02*
G37*
G36*
X4351Y1744D02*
X4304Y1744D01*
X4183Y1736D01*
X4150Y1731D01*
X4121Y1724D01*
X4096Y1716D01*
X4075Y1707D01*
X4057Y1697D01*
X4043Y1685D01*
X4000Y1728D01*
X4012Y1742D01*
X4022Y1760D01*
X4031Y1781D01*
X4039Y1806D01*
X4046Y1836D01*
X4051Y1868D01*
X4058Y1945D01*
X4059Y1989D01*
X4059Y2036D01*
X4351Y1744D01*
D02*
G37*
G36*
X3294Y1694D02*
X3300Y1692D01*
X3307Y1690D01*
X3317Y1688D01*
X3343Y1686D01*
X3398Y1684D01*
X3420Y1684D01*
Y1624D01*
X3398Y1623D01*
X3307Y1617D01*
X3300Y1616D01*
X3294Y1613D01*
X3290Y1611D01*
Y1696D01*
X3294Y1694D01*
D02*
G37*
G36*
X1055Y1573D02*
X1047Y1564D01*
X1039Y1553D01*
X1033Y1540D01*
X1027Y1526D01*
X1023Y1510D01*
X1019Y1492D01*
X1016Y1473D01*
X1014Y1452D01*
X1013Y1406D01*
X845Y1574D01*
X869Y1574D01*
X912Y1577D01*
X931Y1580D01*
X949Y1584D01*
X965Y1588D01*
X979Y1594D01*
X992Y1600D01*
X1003Y1607D01*
X1012Y1616D01*
X1055Y1573D01*
D02*
G37*
G36*
X611Y1497D02*
X602Y1487D01*
X595Y1476D01*
X589Y1463D01*
X585Y1449D01*
X582Y1434D01*
X580Y1417D01*
X580Y1400D01*
X582Y1381D01*
X585Y1360D01*
X589Y1339D01*
X389Y1467D01*
X415Y1473D01*
X499Y1497D01*
X515Y1503D01*
X529Y1510D01*
X541Y1517D01*
X551Y1523D01*
X559Y1530D01*
X611Y1497D01*
D02*
G37*
G36*
X-5809Y1488D02*
X-5836Y1488D01*
X-5884Y1485D01*
X-5905Y1482D01*
X-5925Y1478D01*
X-5942Y1473D01*
X-5958Y1467D01*
X-5972Y1461D01*
X-5984Y1453D01*
X-5993Y1444D01*
X-6036Y1487D01*
X-6027Y1497D01*
X-6020Y1509D01*
X-6013Y1522D01*
X-6007Y1538D01*
X-6002Y1556D01*
X-5998Y1575D01*
X-5995Y1596D01*
X-5992Y1644D01*
X-5992Y1671D01*
X-5809Y1488D01*
D02*
G37*
G36*
X-803Y1428D02*
X-820Y1445D01*
X-853Y1474D01*
X-868Y1485D01*
X-883Y1495D01*
X-898Y1503D01*
X-912Y1509D01*
X-925Y1514D01*
X-938Y1517D01*
X-951Y1517D01*
Y1577D01*
X-938Y1578D01*
X-925Y1581D01*
X-912Y1585D01*
X-898Y1592D01*
X-883Y1600D01*
X-868Y1609D01*
X-853Y1621D01*
X-837Y1634D01*
X-803Y1666D01*
Y1428D01*
D02*
G37*
G36*
X-1052Y2659D02*
X-1050Y2640D01*
X-1049Y2631D01*
X-1047Y2622D01*
X-1044Y2613D01*
X-1041Y2605D01*
X-1037Y2597D01*
X-1033Y2589D01*
X-1028Y2582D01*
X-1137D01*
X-1133Y2589D01*
X-1128Y2597D01*
X-1125Y2605D01*
X-1122Y2613D01*
X-1119Y2622D01*
X-1117Y2631D01*
X-1115Y2640D01*
X-1114Y2649D01*
X-1113Y2659D01*
X-1113Y2669D01*
X-1053D01*
X-1052Y2659D01*
D02*
G37*
G36*
X-3602Y3508D02*
X-3596Y3495D01*
X-3586Y3484D01*
X-3572Y3474D01*
X-3554Y3465D01*
X-3532Y3459D01*
X-3506Y3453D01*
X-3476Y3449D01*
X-3442Y3447D01*
X-3404Y3446D01*
Y3246D01*
X-3442Y3246D01*
X-3506Y3240D01*
X-3532Y3234D01*
X-3554Y3227D01*
X-3572Y3219D01*
X-3586Y3209D01*
X-3596Y3198D01*
X-3602Y3185D01*
X-3604Y3170D01*
Y3522D01*
X-3602Y3508D01*
D02*
G37*
G36*
X-4467Y3170D02*
X-4469Y3185D01*
X-4475Y3198D01*
X-4485Y3209D01*
X-4499Y3219D01*
X-4517Y3227D01*
X-4539Y3234D01*
X-4565Y3240D01*
X-4595Y3243D01*
X-4629Y3246D01*
X-4667Y3246D01*
Y3446D01*
X-4629Y3447D01*
X-4565Y3453D01*
X-4539Y3459D01*
X-4517Y3465D01*
X-4499Y3474D01*
X-4485Y3484D01*
X-4475Y3495D01*
X-4469Y3508D01*
X-4467Y3522D01*
Y3170D01*
D02*
G37*
G36*
X-2643Y3552D02*
X-2620Y3532D01*
X-2610Y3525D01*
X-2601Y3519D01*
X-2593Y3516D01*
X-2586Y3514D01*
X-2580Y3515D01*
X-2575Y3517D01*
X-2571Y3521D01*
X-2635Y3418D01*
X-2633Y3423D01*
X-2632Y3429D01*
X-2633Y3436D01*
X-2635Y3444D01*
X-2638Y3452D01*
X-2644Y3461D01*
X-2650Y3470D01*
X-2658Y3480D01*
X-2679Y3503D01*
X-2656Y3565D01*
X-2643Y3552D01*
D02*
G37*
G36*
X-3188Y3170D02*
X-3190Y3185D01*
X-3196Y3198D01*
X-3206Y3209D01*
X-3220Y3219D01*
X-3238Y3227D01*
X-3260Y3234D01*
X-3286Y3240D01*
X-3316Y3243D01*
X-3350Y3246D01*
X-3388Y3246D01*
Y3446D01*
X-3350Y3447D01*
X-3286Y3453D01*
X-3260Y3459D01*
X-3238Y3465D01*
X-3220Y3474D01*
X-3206Y3484D01*
X-3196Y3495D01*
X-3190Y3508D01*
X-3188Y3522D01*
Y3170D01*
D02*
G37*
G36*
X-518Y3170D02*
X-520Y3165D01*
X-520Y3160D01*
X-518Y3153D01*
X-515Y3146D01*
X-510Y3137D01*
X-503Y3127D01*
X-494Y3117D01*
X-471Y3092D01*
X-533Y3069D01*
X-544Y3080D01*
X-564Y3097D01*
X-573Y3104D01*
X-582Y3109D01*
X-590Y3112D01*
X-597Y3115D01*
X-603Y3115D01*
X-609Y3115D01*
X-614Y3113D01*
X-514Y3173D01*
X-518Y3170D01*
D02*
G37*
G36*
X-2968Y3266D02*
X-2975Y3254D01*
X-2982Y3238D01*
X-2987Y3220D01*
X-2991Y3199D01*
X-2995Y3175D01*
X-2995Y3172D01*
X-2971D01*
X-2977Y3171D01*
X-2982Y3169D01*
X-2987Y3166D01*
X-2991Y3162D01*
X-2994Y3156D01*
X-2997Y3150D01*
X-2997Y3147D01*
X-3000Y3119D01*
X-3002Y3051D01*
X-3061D01*
X-3062Y3086D01*
X-3066Y3149D01*
X-3066Y3150D01*
X-3069Y3156D01*
X-3072Y3162D01*
X-3076Y3166D01*
X-3081Y3169D01*
X-3086Y3171D01*
X-3092Y3172D01*
X-3068D01*
X-3068Y3175D01*
X-3072Y3199D01*
X-3076Y3220D01*
X-3081Y3238D01*
X-3088Y3254D01*
X-3095Y3266D01*
X-3102Y3276D01*
X-2961D01*
X-2968Y3266D01*
D02*
G37*
G36*
X-2371Y3171D02*
X-2376Y3169D01*
X-2381Y3166D01*
X-2385Y3162D01*
X-2388Y3156D01*
X-2391Y3150D01*
X-2393Y3142D01*
X-2394Y3133D01*
X-2395Y3122D01*
X-2395Y3110D01*
X-2455D01*
X-2456Y3122D01*
X-2457Y3133D01*
X-2458Y3142D01*
X-2460Y3150D01*
X-2463Y3156D01*
X-2466Y3162D01*
X-2470Y3166D01*
X-2475Y3169D01*
X-2480Y3171D01*
X-2485Y3172D01*
X-2365D01*
X-2371Y3171D01*
D02*
G37*
G36*
X-3389Y3182D02*
X-3353Y3181D01*
X-3322Y3179D01*
X-3296Y3176D01*
X-3276Y3171D01*
X-3261Y3167D01*
X-3252Y3163D01*
X-3252Y3163D01*
X-3252Y3162D01*
X-3249Y3156D01*
Y3109D01*
X-3197D01*
X-3188Y3106D01*
X-3183Y3107D01*
X-3179Y3106D01*
X-3178Y3107D01*
X-3127Y3094D01*
X-3127Y3084D01*
X-3126Y3050D01*
X-3123Y3041D01*
X-3116Y3010D01*
X-3096Y2980D01*
X-2637Y2521D01*
Y1817D01*
X-2630Y1782D01*
X-2610Y1752D01*
X-2502Y1644D01*
X-2521Y1598D01*
X-2559D01*
X-2606Y1589D01*
X-2645Y1562D01*
X-2671Y1523D01*
X-2680Y1476D01*
X-2680Y1475D01*
X-2726Y1451D01*
X-3182Y1906D01*
X-3185Y1914D01*
X-3200Y1929D01*
X-3235Y1967D01*
X-3249Y1984D01*
X-3252Y1987D01*
Y2528D01*
X-3261Y2574D01*
X-3287Y2614D01*
X-3427Y2754D01*
X-3467Y2780D01*
X-3500Y2787D01*
X-3511Y2792D01*
X-3542Y2793D01*
X-3542Y2793D01*
Y2904D01*
X-3844D01*
X-3855Y2908D01*
X-3860Y2906D01*
X-3861Y2906D01*
X-3879Y2921D01*
X-3891Y2932D01*
X-3898Y2935D01*
X-3972Y3009D01*
Y3109D01*
X-3618D01*
X-3612Y3106D01*
X-3608Y3107D01*
X-3604Y3106D01*
X-3595Y3109D01*
X-3542D01*
Y3156D01*
X-3539Y3162D01*
X-3539Y3163D01*
X-3539Y3163D01*
X-3530Y3167D01*
X-3515Y3171D01*
X-3496Y3175D01*
X-3438Y3181D01*
X-3402Y3182D01*
X-3398Y3183D01*
X-3393D01*
X-3389Y3182D01*
D02*
G37*
G36*
X5117Y3860D02*
X5108Y3858D01*
X5099Y3855D01*
X5089Y3850D01*
X5078Y3844D01*
X5067Y3837D01*
X5056Y3829D01*
X5032Y3808D01*
X5019Y3796D01*
X4956Y3817D01*
X4964Y3825D01*
X4970Y3833D01*
X4974Y3839D01*
X4977Y3845D01*
X4978Y3850D01*
X4977Y3854D01*
X4974Y3857D01*
X4970Y3859D01*
X4964Y3860D01*
X4956Y3861D01*
X5125D01*
X5117Y3860D01*
D02*
G37*
G36*
X2397Y3821D02*
X2392Y3819D01*
X2387Y3816D01*
X2383Y3812D01*
X2380Y3806D01*
X2377Y3799D01*
X2375Y3791D01*
X2374Y3782D01*
X2373Y3772D01*
X2373Y3760D01*
X2313D01*
X2312Y3772D01*
X2311Y3782D01*
X2310Y3791D01*
X2308Y3799D01*
X2305Y3806D01*
X2302Y3812D01*
X2298Y3816D01*
X2293Y3819D01*
X2288Y3821D01*
X2283Y3821D01*
X2403D01*
X2397Y3821D01*
D02*
G37*
G36*
X3987Y3860D02*
X3987Y3859D01*
X3987Y3858D01*
X3987Y3835D01*
X3987Y3829D01*
X3927D01*
X3926Y3861D01*
X3987D01*
X3987Y3860D01*
D02*
G37*
G36*
X-5084Y3860D02*
X-5089Y3858D01*
X-5093Y3855D01*
X-5097Y3851D01*
X-5100Y3845D01*
X-5103Y3839D01*
X-5105Y3831D01*
X-5107Y3821D01*
X-5107Y3811D01*
X-5108Y3799D01*
X-5168D01*
X-5168Y3811D01*
X-5169Y3821D01*
X-5171Y3831D01*
X-5173Y3839D01*
X-5175Y3845D01*
X-5179Y3851D01*
X-5182Y3855D01*
X-5187Y3858D01*
X-5192Y3860D01*
X-5198Y3861D01*
X-5078D01*
X-5084Y3860D01*
D02*
G37*
G36*
X420Y3958D02*
X423Y3951D01*
X445Y3927D01*
X450Y3920D01*
X451Y3919D01*
X448Y3914D01*
X452Y3903D01*
Y3601D01*
X864D01*
Y3525D01*
X739D01*
Y3268D01*
X689D01*
Y3218D01*
X412D01*
Y3080D01*
X277D01*
Y3218D01*
X202D01*
X193Y3154D01*
X179Y3175D01*
X146Y3218D01*
X-0D01*
Y3268D01*
X-50D01*
Y3525D01*
X-277D01*
Y3513D01*
X-323Y3494D01*
X-410Y3580D01*
X-439Y3600D01*
X-452Y3602D01*
Y3724D01*
X-451Y3724D01*
X-444Y3727D01*
X-245D01*
X-238Y3724D01*
X-237Y3724D01*
Y3601D01*
X237D01*
Y3907D01*
X241Y3918D01*
X239Y3921D01*
X254Y3938D01*
X265Y3949D01*
X270Y3962D01*
X279Y3972D01*
X279Y3976D01*
X282Y3981D01*
X289Y4016D01*
Y4021D01*
X300Y4029D01*
X339Y4040D01*
X420Y3958D01*
D02*
G37*
G36*
X2373Y3571D02*
X2374Y3560D01*
X2375Y3551D01*
X2377Y3543D01*
X2380Y3537D01*
X2383Y3531D01*
X2387Y3527D01*
X2392Y3524D01*
X2397Y3522D01*
X2403Y3521D01*
X2283D01*
X2288Y3522D01*
X2293Y3524D01*
X2298Y3527D01*
X2302Y3531D01*
X2305Y3537D01*
X2308Y3543D01*
X2310Y3551D01*
X2311Y3560D01*
X2312Y3571D01*
X2313Y3582D01*
X2373D01*
X2373Y3571D01*
D02*
G37*
G36*
X-175Y3759D02*
X-175Y3765D01*
X-177Y3770D01*
X-180Y3774D01*
X-185Y3778D01*
X-190Y3781D01*
X-197Y3784D01*
X-205Y3786D01*
X-214Y3788D01*
X-224Y3789D01*
X-236Y3789D01*
Y3849D01*
X-224Y3849D01*
X-214Y3850D01*
X-205Y3852D01*
X-197Y3854D01*
X-190Y3856D01*
X-185Y3860D01*
X-180Y3864D01*
X-177Y3868D01*
X-175Y3873D01*
X-175Y3879D01*
Y3759D01*
D02*
G37*
G36*
X-514Y3873D02*
X-512Y3868D01*
X-509Y3864D01*
X-504Y3860D01*
X-499Y3856D01*
X-492Y3854D01*
X-484Y3852D01*
X-475Y3850D01*
X-465Y3849D01*
X-453Y3849D01*
Y3789D01*
X-465Y3789D01*
X-475Y3788D01*
X-484Y3786D01*
X-492Y3784D01*
X-499Y3781D01*
X-504Y3778D01*
X-509Y3774D01*
X-512Y3770D01*
X-514Y3765D01*
X-514Y3759D01*
Y3879D01*
X-514Y3873D01*
D02*
G37*
G36*
X-462Y2659D02*
X-460Y2640D01*
X-458Y2631D01*
X-456Y2622D01*
X-453Y2613D01*
X-450Y2605D01*
X-446Y2597D01*
X-442Y2589D01*
X-438Y2582D01*
X-547D01*
X-542Y2589D01*
X-538Y2597D01*
X-534Y2605D01*
X-531Y2613D01*
X-528Y2622D01*
X-526Y2631D01*
X-524Y2640D01*
X-523Y2649D01*
X-522Y2659D01*
X-522Y2669D01*
X-462D01*
X-462Y2659D01*
D02*
G37*
G36*
X-3923Y2873D02*
X-3899Y2853D01*
X-3889Y2846D01*
X-3880Y2841D01*
X-3872Y2838D01*
X-3865Y2836D01*
X-3860Y2837D01*
X-3855Y2839D01*
X-3851Y2843D01*
X-3890Y2780D01*
X-3860Y2810D01*
X-3844Y2794D01*
X-3776Y2735D01*
X-3769Y2731D01*
X-3764Y2728D01*
X-3760Y2727D01*
X-3820Y2667D01*
X-3821Y2671D01*
X-3823Y2677D01*
X-3827Y2684D01*
X-3833Y2692D01*
X-3850Y2712D01*
X-3887Y2752D01*
X-3900Y2765D01*
X-3916Y2739D01*
X-3914Y2744D01*
X-3913Y2751D01*
X-3913Y2757D01*
X-3915Y2765D01*
X-3919Y2773D01*
X-3924Y2782D01*
X-3930Y2791D01*
X-3938Y2801D01*
X-3948Y2812D01*
X-3959Y2824D01*
X-3936Y2886D01*
X-3923Y2873D01*
D02*
G37*
G36*
X-856Y2659D02*
X-854Y2640D01*
X-852Y2631D01*
X-850Y2622D01*
X-847Y2613D01*
X-844Y2605D01*
X-840Y2597D01*
X-836Y2589D01*
X-831Y2582D01*
X-940D01*
X-936Y2589D01*
X-932Y2597D01*
X-928Y2605D01*
X-925Y2613D01*
X-922Y2622D01*
X-920Y2631D01*
X-918Y2640D01*
X-917Y2649D01*
X-916Y2659D01*
X-916Y2669D01*
X-856D01*
X-856Y2659D01*
D02*
G37*
G36*
X-659D02*
X-657Y2640D01*
X-655Y2631D01*
X-653Y2622D01*
X-650Y2613D01*
X-647Y2605D01*
X-643Y2597D01*
X-639Y2589D01*
X-634Y2582D01*
X-743D01*
X-739Y2589D01*
X-735Y2597D01*
X-731Y2605D01*
X-728Y2613D01*
X-725Y2622D01*
X-723Y2631D01*
X-721Y2640D01*
X-720Y2649D01*
X-719Y2659D01*
X-719Y2669D01*
X-659D01*
X-659Y2659D01*
D02*
G37*
G36*
X-462Y2979D02*
X-460Y2969D01*
X-457Y2960D01*
X-453Y2952D01*
X-447Y2945D01*
X-441Y2940D01*
X-433Y2936D01*
X-424Y2933D01*
X-414Y2931D01*
X-402Y2930D01*
Y2870D01*
X-414Y2870D01*
X-424Y2868D01*
X-433Y2865D01*
X-441Y2861D01*
X-447Y2855D01*
X-453Y2849D01*
X-457Y2841D01*
X-460Y2832D01*
X-462Y2822D01*
X-462Y2810D01*
X-522Y2900D01*
X-462Y2990D01*
X-462Y2979D01*
D02*
G37*
G36*
X-4250Y2940D02*
X-4249Y2920D01*
X-4246Y2901D01*
X-4241Y2886D01*
X-4236Y2872D01*
X-4229Y2861D01*
X-4222Y2853D01*
X-4213Y2847D01*
X-4202Y2843D01*
X-4191Y2842D01*
X-4431D01*
X-4420Y2843D01*
X-4409Y2847D01*
X-4400Y2853D01*
X-4393Y2861D01*
X-4386Y2872D01*
X-4381Y2886D01*
X-4376Y2901D01*
X-4373Y2920D01*
X-4372Y2940D01*
X-4371Y2963D01*
X-4251D01*
X-4250Y2940D01*
D02*
G37*
G36*
X-4242Y3272D02*
X-4244Y3264D01*
X-4246Y3252D01*
X-4248Y3218D01*
X-4249Y3172D01*
X-4191D01*
X-4202Y3170D01*
X-4213Y3167D01*
X-4222Y3161D01*
X-4229Y3152D01*
X-4236Y3141D01*
X-4241Y3128D01*
X-4246Y3112D01*
X-4249Y3094D01*
X-4250Y3074D01*
X-4251Y3050D01*
X-4371D01*
X-4372Y3074D01*
X-4373Y3094D01*
X-4376Y3112D01*
X-4381Y3128D01*
X-4386Y3141D01*
X-4393Y3152D01*
X-4400Y3161D01*
X-4409Y3167D01*
X-4420Y3170D01*
X-4431Y3172D01*
X-4376D01*
X-4382Y3276D01*
X-4240D01*
X-4242Y3272D01*
D02*
G37*
%LPC*%
G36*
X-3486Y-1168D02*
X-3499Y-1168D01*
X-3509Y-1172D01*
X-3516Y-1179D01*
X-3454D01*
X-3456Y-1177D01*
X-3472Y-1171D01*
X-3486Y-1168D01*
D02*
G37*
G36*
X1131Y-4093D02*
X1068D01*
X1043Y-4253D01*
X1029Y-4235D01*
X1016Y-4218D01*
X1002Y-4204D01*
X989Y-4192D01*
X975Y-4181D01*
X962Y-4173D01*
X949Y-4166D01*
X936Y-4161D01*
X922Y-4159D01*
X909Y-4158D01*
X919Y-4098D01*
X930Y-4097D01*
X942Y-4094D01*
X947Y-4093D01*
X904D01*
Y-4300D01*
X1131D01*
Y-4093D01*
D02*
G37*
G36*
X3769Y-936D02*
X3561D01*
Y-1163D01*
X3769D01*
Y-936D01*
D02*
G37*
G36*
X3159Y-2550D02*
X2872D01*
Y-2876D01*
X3159D01*
Y-2772D01*
X3129D01*
X3146Y-2755D01*
X3159Y-2740D01*
Y-2550D01*
D02*
G37*
G36*
X-3818Y4273D02*
Y4273D01*
X-4253D01*
Y3798D01*
X-3818D01*
Y3798D01*
X-3800Y3813D01*
X-3740Y3801D01*
X-3650Y3819D01*
X-3574Y3870D01*
X-3523Y3946D01*
X-3506Y4035D01*
X-3523Y4125D01*
X-3574Y4201D01*
X-3650Y4252D01*
X-3740Y4270D01*
X-3800Y4258D01*
X-3818Y4273D01*
D02*
G37*
G36*
X-1268Y-3896D02*
X-1458D01*
Y-4104D01*
X-1231D01*
Y-3998D01*
X-1241D01*
X-1235Y-3998D01*
X-1231Y-3996D01*
Y-3946D01*
X-1233Y-3942D01*
X-1243Y-3927D01*
X-1255Y-3912D01*
X-1268Y-3896D01*
D02*
G37*
G36*
X3525Y1360D02*
X3298D01*
Y1152D01*
X3404D01*
X3417Y1157D01*
X3423Y1160D01*
Y1203D01*
X3424Y1191D01*
X3428Y1181D01*
X3434Y1172D01*
X3438Y1168D01*
X3444Y1172D01*
X3457Y1180D01*
X3469Y1190D01*
X3481Y1202D01*
Y1152D01*
X3525D01*
Y1360D01*
D02*
G37*
G36*
X400Y-3746D02*
X359Y-3754D01*
X324Y-3777D01*
X301Y-3812D01*
X293Y-3853D01*
Y-4003D01*
X301Y-4044D01*
X324Y-4078D01*
X359Y-4101D01*
X400Y-4110D01*
X441Y-4101D01*
X476Y-4078D01*
X499Y-4044D01*
X507Y-4003D01*
Y-3853D01*
X499Y-3812D01*
X476Y-3777D01*
X441Y-3754D01*
X400Y-3746D01*
D02*
G37*
G36*
X1604Y-2774D02*
X1396D01*
Y-3001D01*
X1470D01*
X1470Y-3001D01*
X1463Y-2993D01*
X1455Y-2984D01*
Y-2899D01*
X1463Y-2907D01*
X1470Y-2913D01*
X1476Y-2917D01*
X1482Y-2920D01*
X1487Y-2921D01*
X1490Y-2920D01*
X1493Y-2917D01*
X1496Y-2913D01*
X1497Y-2907D01*
X1497Y-2899D01*
Y-3001D01*
X1604D01*
Y-2774D01*
D02*
G37*
G36*
X639Y3525D02*
X412D01*
Y3318D01*
X639D01*
Y3525D01*
D02*
G37*
G36*
X277D02*
X50D01*
Y3318D01*
X75D01*
X100Y3368D01*
X111Y3358D01*
X122Y3351D01*
X133Y3346D01*
X145Y3343D01*
X157Y3343D01*
X169Y3345D01*
X182Y3349D01*
X195Y3356D01*
X208Y3364D01*
X222Y3375D01*
X215Y3318D01*
X277D01*
Y3525D01*
D02*
G37*
G36*
X-3818Y4962D02*
Y4962D01*
X-4253D01*
Y4487D01*
X-3818D01*
Y4487D01*
X-3800Y4502D01*
X-3740Y4490D01*
X-3650Y4508D01*
X-3574Y4559D01*
X-3523Y4635D01*
X-3506Y4724D01*
X-3523Y4814D01*
X-3574Y4890D01*
X-3650Y4941D01*
X-3740Y4959D01*
X-3800Y4947D01*
X-3818Y4962D01*
D02*
G37*
G36*
X1131Y-4400D02*
X904D01*
Y-4608D01*
X1131D01*
Y-4400D01*
D02*
G37*
G36*
X-1231Y-4204D02*
X-1458D01*
Y-4411D01*
X-1231D01*
Y-4204D01*
D02*
G37*
G36*
X4076Y-936D02*
X3869D01*
Y-1163D01*
X4076D01*
Y-936D01*
D02*
G37*
G36*
X-4711Y-2175D02*
X-4741Y-2179D01*
X-4753Y-2183D01*
X-4655D01*
X-4682Y-2176D01*
X-4711Y-2175D01*
D02*
G37*
G36*
X4214Y-1258D02*
X3928D01*
Y-1584D01*
X4214D01*
Y-1258D01*
D02*
G37*
%LPD*%
G36*
X-3862Y4761D02*
X-3858Y4759D01*
X-3850Y4757D01*
X-3841Y4756D01*
X-3831Y4755D01*
X-3819Y4754D01*
Y4694D01*
X-3831Y4694D01*
X-3841Y4693D01*
X-3850Y4692D01*
X-3858Y4690D01*
X-3862Y4688D01*
Y4605D01*
X-3879Y4622D01*
X-3912Y4651D01*
X-3927Y4662D01*
X-3942Y4672D01*
X-3957Y4680D01*
X-3971Y4686D01*
X-3984Y4691D01*
X-3997Y4694D01*
X-4009Y4694D01*
Y4754D01*
X-3997Y4755D01*
X-3984Y4758D01*
X-3971Y4762D01*
X-3957Y4769D01*
X-3942Y4777D01*
X-3927Y4786D01*
X-3912Y4798D01*
X-3895Y4811D01*
X-3862Y4843D01*
Y4761D01*
D02*
G37*
G36*
X-3862Y4072D02*
X-3858Y4070D01*
X-3850Y4068D01*
X-3841Y4067D01*
X-3831Y4066D01*
X-3819Y4065D01*
Y4005D01*
X-3831Y4005D01*
X-3841Y4004D01*
X-3850Y4003D01*
X-3858Y4001D01*
X-3862Y3999D01*
Y3916D01*
X-3879Y3933D01*
X-3912Y3962D01*
X-3927Y3973D01*
X-3942Y3983D01*
X-3957Y3991D01*
X-3971Y3997D01*
X-3984Y4002D01*
X-3997Y4005D01*
X-4009Y4005D01*
Y4065D01*
X-3997Y4066D01*
X-3984Y4069D01*
X-3971Y4073D01*
X-3957Y4080D01*
X-3942Y4088D01*
X-3927Y4097D01*
X-3912Y4109D01*
X-3895Y4122D01*
X-3862Y4154D01*
Y4072D01*
D02*
G37*
D10*
X3248Y1654D02*
D03*
Y1102D02*
D03*
X-1181Y-4705D02*
D03*
Y-4154D02*
D03*
X2461Y-2539D02*
D03*
Y-1988D02*
D03*
X1870Y-4902D02*
D03*
Y-4350D02*
D03*
X1181Y-4350D02*
D03*
Y-4902D02*
D03*
X-3150Y-1791D02*
D03*
Y-2343D02*
D03*
X-5315Y-1063D02*
D03*
Y-512D02*
D03*
X-6004Y-1063D02*
D03*
Y-512D02*
D03*
X-1575Y6181D02*
D03*
Y5630D02*
D03*
X-1575Y4350D02*
D03*
Y4902D02*
D03*
X689Y3268D02*
D03*
Y3819D02*
D03*
X0Y3268D02*
D03*
Y3819D02*
D03*
X1870Y7461D02*
D03*
Y6909D02*
D03*
X1181Y7461D02*
D03*
Y6909D02*
D03*
X-1575Y7461D02*
D03*
Y6909D02*
D03*
X-2264Y7461D02*
D03*
Y6909D02*
D03*
X-886D02*
D03*
Y7461D02*
D03*
X-689Y3819D02*
D03*
Y3268D02*
D03*
X-2264Y4350D02*
D03*
Y4902D02*
D03*
X-2264Y5630D02*
D03*
Y6181D02*
D03*
D11*
X-3346Y10433D02*
D03*
D12*
X-5984Y-3415D02*
D03*
X-5236D02*
D03*
X-5610Y-2490D02*
D03*
D13*
X-3967Y-2441D02*
D03*
Y-1693D02*
D03*
X-4892Y-2067D02*
D03*
D14*
X276Y-5807D02*
D03*
X-276D02*
D03*
X-4311Y-98D02*
D03*
X-3760D02*
D03*
X1004Y-5807D02*
D03*
X1555D02*
D03*
X1102Y-3051D02*
D03*
X1654D02*
D03*
X3130Y-3543D02*
D03*
X2579D02*
D03*
X3130Y-4331D02*
D03*
X2579D02*
D03*
X4409D02*
D03*
X3858D02*
D03*
X4409Y-3543D02*
D03*
X3858D02*
D03*
X-1004Y-3051D02*
D03*
X-1555D02*
D03*
X-3760Y3346D02*
D03*
X-4311D02*
D03*
X-3760Y2667D02*
D03*
X-4311D02*
D03*
X-3760Y1978D02*
D03*
X-4311D02*
D03*
X-3760Y1270D02*
D03*
X-4311D02*
D03*
X-3760Y591D02*
D03*
X-4311D02*
D03*
X-3622Y-4528D02*
D03*
X-3071D02*
D03*
X2343Y5709D02*
D03*
X1791D02*
D03*
X1791Y3346D02*
D03*
X2343D02*
D03*
X3268Y-886D02*
D03*
X3819D02*
D03*
X-3031Y3346D02*
D03*
X-2480D02*
D03*
X374Y6890D02*
D03*
X-177D02*
D03*
X-5138Y4035D02*
D03*
X-4587Y4035D02*
D03*
X-4035D02*
D03*
X-5138Y4724D02*
D03*
X-4587Y4724D02*
D03*
X-4035D02*
D03*
X5059Y4035D02*
D03*
X4508Y4035D02*
D03*
X3957D02*
D03*
X5059Y4724D02*
D03*
X4508Y4724D02*
D03*
X3957D02*
D03*
D15*
X-3642Y-3346D02*
D03*
X-4429D02*
D03*
X-4429Y-886D02*
D03*
X-3642D02*
D03*
D16*
X3878Y-2500D02*
D03*
Y-1634D02*
D03*
X3209D02*
D03*
Y-2500D02*
D03*
X1732Y4094D02*
D03*
Y4961D02*
D03*
X2402D02*
D03*
Y4094D02*
D03*
D17*
X-197Y8071D02*
D03*
Y7815D02*
D03*
Y7559D02*
D03*
X512D02*
D03*
Y7815D02*
D03*
Y8071D02*
D03*
D18*
X-394Y4606D02*
D03*
X-197D02*
D03*
X0D02*
D03*
X197D02*
D03*
X394D02*
D03*
Y6220D02*
D03*
X197D02*
D03*
X0D02*
D03*
X-197D02*
D03*
X-394D02*
D03*
D19*
X807Y5020D02*
D03*
Y5217D02*
D03*
Y5413D02*
D03*
Y5610D02*
D03*
Y5807D02*
D03*
X-807D02*
D03*
Y5610D02*
D03*
Y5413D02*
D03*
Y5217D02*
D03*
Y5020D02*
D03*
D20*
X0Y5413D02*
D03*
D21*
X-2205Y492D02*
D03*
Y689D02*
D03*
X2205Y1476D02*
D03*
Y1280D02*
D03*
Y1083D02*
D03*
Y886D02*
D03*
Y689D02*
D03*
Y492D02*
D03*
Y295D02*
D03*
Y98D02*
D03*
Y-98D02*
D03*
Y-295D02*
D03*
Y-492D02*
D03*
Y-689D02*
D03*
Y-886D02*
D03*
Y-1083D02*
D03*
Y-1280D02*
D03*
Y-1476D02*
D03*
X-2205D02*
D03*
Y-1280D02*
D03*
Y-1083D02*
D03*
Y-886D02*
D03*
Y-689D02*
D03*
Y-492D02*
D03*
Y-295D02*
D03*
Y-98D02*
D03*
Y98D02*
D03*
Y295D02*
D03*
Y886D02*
D03*
Y1083D02*
D03*
Y1280D02*
D03*
Y1476D02*
D03*
D22*
X-1476Y2205D02*
D03*
X-1280D02*
D03*
X-1083D02*
D03*
X-886D02*
D03*
X-689D02*
D03*
X-492D02*
D03*
X-295D02*
D03*
X-98D02*
D03*
X98D02*
D03*
X295D02*
D03*
X492D02*
D03*
X689D02*
D03*
X886D02*
D03*
X1083D02*
D03*
X1280D02*
D03*
X1476D02*
D03*
Y-2205D02*
D03*
X1280D02*
D03*
X1083D02*
D03*
X886D02*
D03*
X689D02*
D03*
X492D02*
D03*
X295D02*
D03*
X98D02*
D03*
X-98D02*
D03*
X-295D02*
D03*
X-492D02*
D03*
X-689D02*
D03*
X-886D02*
D03*
X-1083D02*
D03*
X-1280D02*
D03*
X-1476D02*
D03*
D23*
X2835Y-5728D02*
D03*
Y-5098D02*
D03*
X3937D02*
D03*
Y-5728D02*
D03*
D24*
X-394Y-3928D02*
D03*
X-236D02*
D03*
X-79D02*
D03*
X80D02*
D03*
X240D02*
D03*
X400D02*
D03*
Y-5118D02*
D03*
X240D02*
D03*
X80D02*
D03*
X-79D02*
D03*
X-236D02*
D03*
X-394D02*
D03*
D25*
X600Y-4128D02*
D03*
Y-4288D02*
D03*
Y-4448D02*
D03*
Y-4606D02*
D03*
Y-4764D02*
D03*
Y-4921D02*
D03*
X-591D02*
D03*
Y-4764D02*
D03*
Y-4606D02*
D03*
Y-4448D02*
D03*
Y-4288D02*
D03*
Y-4128D02*
D03*
D26*
X1794Y1280D02*
X2205D01*
Y-1476D02*
X3051D01*
X2685Y-1280D02*
X3020Y-944D01*
X2205Y-1280D02*
X2685D01*
X2833Y-689D02*
X3023Y-499D01*
X2205Y-689D02*
X2833D01*
X2860Y-492D02*
X2974Y-379D01*
X2205Y-492D02*
X2860D01*
X2793Y-259D02*
X4056D01*
X2756Y-295D02*
X2793Y-259D01*
X2205Y-295D02*
X2756D01*
X2205Y-98D02*
X3517D01*
X3020Y-944D02*
Y-671D01*
X2081Y2081D02*
X3262D01*
X2371Y2201D02*
X3709Y3538D01*
X1194Y1194D02*
X2081Y2081D01*
X1480Y2201D02*
X2371D01*
X445Y-1378D02*
X886D01*
X98Y-1724D02*
X445Y-1378D01*
X5059Y3878D02*
Y4035D01*
X3262Y2081D02*
X5059Y3878D01*
X4812Y3877D02*
Y4939D01*
X4673Y3738D02*
X4812Y3877D01*
X4047Y3738D02*
X4673D01*
X5354Y-256D02*
Y39D01*
X5112Y-499D02*
X5354Y-256D01*
X3574Y-499D02*
X5112D01*
X2974Y-379D02*
X4481D01*
X4823Y508D02*
X5354Y1039D01*
X4823Y-37D02*
Y508D01*
X4481Y-379D02*
X4823Y-37D01*
X3624Y-619D02*
X4284D01*
X5406Y-1740D01*
X3624Y-619D02*
X3624Y-619D01*
X3462Y-619D02*
X3624D01*
X3462Y-619D02*
X3462Y-619D01*
X3574Y-499D02*
X3574Y-499D01*
X3512Y-499D02*
X3574D01*
X3512Y-499D02*
X3512Y-499D01*
X3023Y-499D02*
X3512D01*
X3073Y-619D02*
X3462D01*
X3020Y-671D02*
X3073Y-619D01*
X4056Y-259D02*
X4354Y39D01*
X3517Y-98D02*
X4150Y534D01*
X3642Y492D02*
X3740D01*
X4150Y534D02*
X4564D01*
X3382Y232D02*
X3642Y492D01*
X3114Y232D02*
X3382D01*
X4514Y654D02*
X4801Y941D01*
X4195Y654D02*
X4514D01*
X4026Y823D02*
X4195Y654D01*
X4564Y534D02*
X4921Y892D01*
X2657Y689D02*
X3114Y232D01*
X2205Y689D02*
X2657D01*
X3122Y492D02*
X3248D01*
X2729Y886D02*
X3122Y492D01*
X3079Y823D02*
X4026D01*
X3047Y855D02*
X3079Y823D01*
X3034Y855D02*
X3047D01*
X2981Y908D02*
X3034Y855D01*
X2981Y908D02*
Y908D01*
X2806Y1083D02*
X2981Y908D01*
X2205Y886D02*
X2729D01*
X4921Y892D02*
Y1969D01*
X4801Y941D02*
Y2031D01*
X5307Y2536D01*
X4921Y1969D02*
X4992Y2039D01*
X5354D01*
X3969Y1654D02*
X4354Y2039D01*
X3248Y1654D02*
X3969D01*
X4311Y1083D02*
X4354Y1039D01*
X3602Y1083D02*
X4311D01*
X5307Y2536D02*
Y4939D01*
X1194Y728D02*
Y1194D01*
X698Y232D02*
X1194Y728D01*
X390Y232D02*
X698D01*
X-923Y1343D02*
X-206Y626D01*
X-1289Y1343D02*
X-923D01*
X-4Y626D02*
X390Y232D01*
X1083Y1644D02*
Y2205D01*
X843Y1404D02*
X1083Y1644D01*
X453Y1382D02*
X735Y1664D01*
X453Y1280D02*
Y1382D01*
X147Y1225D02*
Y1420D01*
Y1225D02*
X152Y1220D01*
X591Y492D02*
Y763D01*
X177Y1177D02*
X591Y763D01*
X152Y1208D02*
Y1220D01*
X362Y1573D02*
X369Y1579D01*
X431D01*
X439Y1587D01*
X466D01*
X-98Y1344D02*
X258Y1701D01*
X424Y1301D02*
X432D01*
X453Y1280D01*
X177Y1177D02*
Y1180D01*
X164Y1193D02*
X177Y1180D01*
X164Y1193D02*
Y1197D01*
X152Y1208D02*
X164Y1197D01*
X299Y1573D02*
X362D01*
X466Y1587D02*
X689Y1810D01*
X745Y1664D02*
X886Y1805D01*
X735Y1664D02*
X745D01*
X-206Y626D02*
X-4D01*
X-98Y886D02*
Y1344D01*
X934Y939D02*
Y1104D01*
X-1181Y-4929D02*
Y-4921D01*
Y-4705D01*
X-1441Y-5181D02*
X-1181Y-4921D01*
X-2648Y-5585D02*
X-2244Y-5181D01*
X-2673Y-5610D02*
X-2648Y-5585D01*
X-295Y-5512D02*
X-79Y-5295D01*
X-1083Y-5512D02*
X-295D01*
X-79Y-5295D02*
Y-5118D01*
X-2244Y-5181D02*
X-1441D01*
X-661Y-3842D02*
X-575Y-3928D01*
X144Y-3578D02*
X240Y-3674D01*
X-116Y-3685D02*
Y-3270D01*
X-394Y-3543D02*
X-236Y-3701D01*
X486Y-3237D02*
X928Y-3678D01*
X486Y-3237D02*
Y-2210D01*
X-236Y-3150D02*
X-116Y-3270D01*
Y-3685D02*
X-79Y-3723D01*
Y-3928D02*
Y-3723D01*
X-236Y-3928D02*
Y-3701D01*
X689Y-3269D02*
X978Y-3558D01*
X689Y-3269D02*
Y-2205D01*
X855Y-3266D02*
Y-2236D01*
Y-3266D02*
X1028Y-3438D01*
X1870D01*
X-575Y-3928D02*
X-394D01*
X928Y-3678D02*
X1771D01*
X978Y-3558D02*
X1820D01*
X240Y-3928D02*
Y-3674D01*
X-1181Y-3740D02*
X-1181Y-3740D01*
X-1181Y-4154D02*
Y-3740D01*
X-308Y-5328D02*
X-236Y-5256D01*
X-782Y-5328D02*
X-308D01*
X-1181Y-4929D02*
X-782Y-5328D01*
X-1352Y1280D02*
X-1289Y1343D01*
X-2205Y1280D02*
X-1352D01*
X-1711Y1547D02*
X-681D01*
X-801Y-4724D02*
Y-4232D01*
X-1161Y-4724D02*
X-801D01*
X-1181Y-4705D02*
X-1161Y-4724D01*
X-801Y-4232D02*
X-696Y-4128D01*
X-591D01*
X-5138Y3738D02*
Y4035D01*
Y3738D02*
X-5050Y3650D01*
X-4153D01*
X-4064Y3561D01*
Y2971D02*
Y3561D01*
Y2971D02*
X-3760Y2667D01*
X4016Y-4027D02*
X4106Y-4116D01*
X3800Y-3810D02*
X4016Y-4027D01*
X5906D01*
Y-3740D01*
X3858Y-4331D02*
Y-4078D01*
X3711Y-3930D02*
X3858Y-4078D01*
X3614Y-3930D02*
X3711D01*
X1791Y5020D02*
Y5709D01*
X1772D02*
X1791D01*
X1772D02*
X1772Y5709D01*
X1673Y5807D02*
X1772Y5709D01*
X807Y5807D02*
X1673D01*
X-4035Y4035D02*
X-3740D01*
X-4035Y4035D02*
X-4035Y4035D01*
X-4035Y4724D02*
X-3740D01*
X3543Y6134D02*
X4020Y6610D01*
X3543Y3740D02*
Y6134D01*
X2264Y2461D02*
X3543Y3740D01*
X3709Y4250D02*
X3957Y4497D01*
X3709Y3538D02*
Y4250D01*
X3957Y4497D02*
Y4724D01*
X4020Y6610D02*
X5020D01*
X-1575Y4902D02*
Y5217D01*
X-1260D02*
X-1240Y5236D01*
X-1220Y5217D01*
X-689Y3819D02*
Y4134D01*
X0Y4370D02*
Y4606D01*
X-31Y4339D02*
X0Y4370D01*
X-527Y4339D02*
X-31D01*
X-949Y4021D02*
Y4242D01*
X-581Y4394D02*
X-527Y4339D01*
X-1075Y3895D02*
X-949Y4021D01*
X-846Y4514D02*
X-486D01*
X-394Y4606D01*
X-1349Y4350D02*
X-946Y4754D01*
X-1575Y4350D02*
X-1349D01*
X-1259Y4610D02*
X-995Y4874D01*
X-807D01*
X-1777Y4610D02*
X-1259D01*
X-752Y4754D02*
X-540Y4966D01*
X-946Y4754D02*
X-752D01*
X-687Y4634D02*
X-447Y4873D01*
X-896Y4634D02*
X-687D01*
X-1189Y4341D02*
X-896Y4634D01*
X-1189Y4132D02*
Y4341D01*
X-1315Y4006D02*
X-1189Y4132D01*
X-1069Y4291D02*
X-846Y4514D01*
X-1069Y4071D02*
Y4291D01*
X-1195Y3945D02*
X-1069Y4071D01*
X-797Y4394D02*
X-581D01*
X-949Y4242D02*
X-797Y4394D01*
X-807Y4874D02*
Y5020D01*
X-1075Y3730D02*
Y3895D01*
X-1076Y3729D02*
X-1075Y3730D01*
X-1195Y3780D02*
Y3945D01*
X-1196Y3778D02*
X-1195Y3780D01*
X-1315Y3829D02*
Y4006D01*
X-1476Y3668D02*
X-1315Y3829D01*
X-994Y5413D02*
X-807D01*
X-540Y4966D02*
Y4972D01*
X-447Y4873D02*
X-340D01*
X-540Y4972D02*
X-295Y5217D01*
X-1201Y5807D02*
X-807D01*
X-1575Y6181D02*
X-1201Y5807D01*
X-1842Y4545D02*
X-1777Y4610D01*
X-1076Y2971D02*
Y3729D01*
X-1196Y2921D02*
Y3778D01*
Y2921D02*
X-1083Y2807D01*
X-1076Y2971D02*
X-886Y2780D01*
X-1476Y2205D02*
Y3668D01*
X-4091Y6409D02*
X-3283Y5601D01*
X-4311Y2530D02*
Y2530D01*
X-4091Y6409D02*
X-3921Y6579D01*
X956Y3073D02*
Y4871D01*
X1083Y3030D02*
Y5065D01*
X-1555Y5610D02*
X-807D01*
X197Y4016D02*
Y4606D01*
X0Y3819D02*
X197Y4016D01*
X-5020Y6579D02*
X-4020D01*
X-3921D01*
X-683Y5413D02*
X-540Y5557D01*
X-807Y5413D02*
X-683D01*
X-4587Y5012D02*
X-4020Y5579D01*
X-4587Y4724D02*
Y5012D01*
X-4890Y4339D02*
Y5449D01*
Y4339D02*
X-4587Y4035D01*
X-5138Y4035D02*
Y4724D01*
X-1083Y2205D02*
Y2807D01*
X-956Y3073D02*
Y3462D01*
X-886Y2205D02*
Y2780D01*
X-5020Y5579D02*
X-4890Y5449D01*
X5405Y5278D02*
Y5943D01*
X4020Y5610D02*
X4405Y5996D01*
X5352D01*
X5405Y5943D01*
X5239Y5112D02*
X5405Y5278D01*
X4619Y5112D02*
X5239D01*
X3957Y3829D02*
Y4035D01*
Y3829D02*
X4047Y3738D01*
X4812Y4939D02*
X4864Y4992D01*
X4508Y5000D02*
X4619Y5112D01*
X4508Y4724D02*
Y5000D01*
X4864Y4992D02*
X5254D01*
X4260Y4283D02*
Y4939D01*
Y4283D02*
X4508Y4035D01*
X5059Y4035D02*
Y4724D01*
X5254Y4992D02*
X5307Y4939D01*
X4260Y4939D02*
X4735Y5413D01*
X5020D01*
X931Y5217D02*
X1083Y5065D01*
X807Y5217D02*
X931D01*
X533Y4933D02*
Y5761D01*
X480Y4880D02*
X533Y4933D01*
X254Y4880D02*
X480D01*
X197Y4823D02*
X254Y4880D01*
X197Y4606D02*
Y4823D01*
X-1575Y5630D02*
X-1555Y5610D01*
X400Y-5149D02*
X1839D01*
X2331D01*
X3130Y-4803D02*
Y-4331D01*
X2835Y-5098D02*
X3130Y-4803D01*
X4409Y-5256D02*
Y-4331D01*
X3878Y-1634D02*
X3917Y-1673D01*
X4429D01*
X3209Y-2500D02*
X3248Y-2539D01*
Y-2894D02*
Y-2539D01*
X1594Y-4350D02*
X1870D01*
X1516Y-4429D02*
X1594Y-4350D01*
X1516Y-4567D02*
Y-4429D01*
X590Y-4138D02*
X600Y-4128D01*
X267Y-4138D02*
X590D01*
X240Y-4111D02*
X267Y-4138D01*
X240Y-4111D02*
Y-3928D01*
X-236Y-5256D02*
Y-5118D01*
X886Y2205D02*
X886Y2205D01*
X3937Y-5728D02*
X4409Y-5256D01*
X5406Y-3828D02*
Y-3740D01*
X533Y5761D02*
Y6062D01*
Y5761D02*
X683Y5610D01*
X807D01*
X1870Y-5118D02*
Y-4902D01*
X1839Y-5149D02*
X1870Y-5118D01*
X80Y-5513D02*
Y-5118D01*
Y-5513D02*
X276Y-5709D01*
X1004Y-5709D02*
Y-5512D01*
X846Y-5354D02*
X1004Y-5512D01*
X293Y-5354D02*
X846D01*
X240Y-5301D02*
X293Y-5354D01*
X240Y-5301D02*
Y-5118D01*
X400Y-5149D02*
Y-5118D01*
X1181Y-4902D02*
X1516Y-4567D01*
X1161Y-4921D02*
X1181Y-4902D01*
X600Y-4921D02*
X1161D01*
X807Y5020D02*
X956Y4871D01*
X1732Y4961D02*
X1791Y5020D01*
X2343Y4035D02*
X2402Y4094D01*
X394Y4114D02*
X689Y3819D01*
X394Y4114D02*
Y4606D01*
X-197D02*
Y4730D01*
X-4331Y1959D02*
X-4311Y1978D01*
X-3150Y-2343D02*
X-2579D01*
X-2559Y-2362D01*
X-2756Y-1949D02*
Y-1476D01*
X-2756Y-1476D01*
X-2756Y-1476D02*
Y-1280D01*
X-2667Y-1083D02*
Y-896D01*
X-5413Y1280D02*
Y1417D01*
X-6092Y1388D02*
X-5807Y1673D01*
X-4054Y372D02*
Y809D01*
X-4209Y965D02*
X-4054Y809D01*
X-4311Y965D02*
X-4209D01*
X-4311D02*
Y1270D01*
X486Y-2210D02*
X492Y-2205D01*
X1811Y-2539D02*
X2461D01*
X1476Y-2205D02*
X1811Y-2539D01*
X3209Y-945D02*
X3268Y-886D01*
X3209Y-1634D02*
Y-945D01*
X3051Y-1476D02*
X3209Y-1634D01*
X3642Y-2067D01*
X3502Y-2124D02*
X3878Y-2500D01*
X2859Y-2124D02*
X3502D01*
X2461Y-2539D02*
Y-2451D01*
X2666Y-2246D01*
X2738D01*
X2859Y-2124D01*
X3858Y-2520D02*
X3878Y-2500D01*
X-2667Y-1083D02*
X-2205D01*
X-3169Y-2244D02*
X-3150Y-2264D01*
X-2756Y-1280D02*
X-2205D01*
X-2756Y-1476D02*
X-2205D01*
X807Y5413D02*
X1043D01*
X1360Y5096D01*
X98Y-2205D02*
Y-1724D01*
X-2685Y1280D02*
X-2205D01*
X-2879Y886D02*
X-2205D01*
X-139Y5946D02*
X394D01*
X-197Y6004D02*
X-139Y5946D01*
X-197Y6004D02*
Y6220D01*
X394Y5946D02*
Y6201D01*
Y6220D01*
Y6201D02*
X533Y6062D01*
X855Y-2236D02*
X886Y-2205D01*
X2412Y-4331D02*
X2579D01*
X1280Y-2766D02*
Y-2205D01*
X1555Y-3051D02*
Y-3042D01*
X1280Y-2766D02*
X1555Y-3042D01*
X600Y-4128D02*
X1155D01*
X1181Y-4154D01*
X2020Y-3939D02*
X2412Y-4331D01*
X3642Y-2067D02*
X4098D01*
X4409Y-2378D01*
Y-3543D02*
Y-2378D01*
X3858Y-3543D02*
Y-2520D01*
X2774Y-3810D02*
X2882Y-3702D01*
Y-3329D01*
X2935Y-3276D01*
X3325D01*
X3491Y-3442D01*
Y-3807D02*
Y-3442D01*
X2835Y-5728D02*
X3377Y-5186D01*
Y-3916D01*
X3130Y-3669D02*
Y-3543D01*
Y-3669D02*
X3377Y-3916D01*
X3491Y-3807D02*
X3614Y-3930D01*
X1102Y-3051D02*
X1370Y-3318D01*
X1848D01*
X2010Y-3156D01*
X3374D01*
X3611Y-3393D01*
Y-3758D02*
Y-3393D01*
Y-3758D02*
X3664Y-3810D01*
X3800D01*
X4106Y-4930D02*
Y-4116D01*
X3937Y-5098D02*
X4106Y-4930D01*
X1083Y-3169D02*
Y-2205D01*
X2020Y-3939D02*
Y-3928D01*
X1771Y-3678D02*
X2020Y-3928D01*
X1820Y-3558D02*
X2072Y-3810D01*
X2774D01*
X1975Y-3543D02*
X2579D01*
X1870Y-3438D02*
X1975Y-3543D01*
X-5413Y1280D02*
X-4724Y591D01*
X-4311D01*
X-6092Y1043D02*
Y1388D01*
Y1043D02*
X-5925Y876D01*
X-5266D01*
X-4703Y313D01*
X-4112D01*
X-4054Y372D01*
X-5315Y-1063D02*
X-5097Y-1281D01*
X-4112D01*
X-4017Y-1186D01*
Y-392D01*
X-4311Y-98D02*
X-4017Y-392D01*
X-689Y3819D02*
X-0D01*
X0Y3819D01*
X-475Y3515D02*
X-295Y3336D01*
X-903Y3515D02*
X-475D01*
X-956Y3462D02*
X-903Y3515D01*
X886Y1805D02*
Y2205D01*
X2342Y4094D02*
X2402D01*
X1360Y4693D02*
Y5096D01*
Y4693D02*
X1594Y4460D01*
X2343Y3346D02*
Y4035D01*
X1594Y4460D02*
X2006D01*
X2059Y4407D01*
Y4378D02*
Y4407D01*
Y4378D02*
X2342Y4094D01*
X1476Y2205D02*
X1480Y2201D01*
X492Y1836D02*
Y2205D01*
X689Y1810D02*
Y2205D01*
X2205Y886D02*
X2205Y886D01*
X-3283Y4149D02*
X-2480Y3346D01*
X-3283Y4149D02*
Y5601D01*
X934Y1104D02*
X1280Y1449D01*
Y2205D01*
X2205Y1083D02*
X2806D01*
X-340Y4873D02*
X-197Y4730D01*
X-98Y5413D02*
X0D01*
X-295Y5217D02*
X-98Y5413D01*
X-807Y5217D02*
X-295D01*
X-1575Y4350D02*
X-1575Y4350D01*
X-1575Y3937D02*
Y4350D01*
X-295Y3101D02*
Y3336D01*
Y3101D02*
X-214Y3020D01*
X-41D01*
X0Y3268D02*
X79Y3346D01*
X177Y3248D01*
X335D01*
X-210Y2900D02*
X-178Y2868D01*
X921D01*
X1083Y3030D01*
X-41Y3020D02*
X-9Y2988D01*
X871D01*
X956Y3073D01*
X-1594Y6201D02*
X-1575Y6181D01*
X-1909Y6201D02*
X-1594D01*
X-394Y5946D02*
X-139D01*
X-394D02*
Y6220D01*
X-540Y5557D02*
Y5953D01*
X-591Y6004D02*
X-540Y5953D01*
X-591Y6004D02*
Y6220D01*
X258Y1701D02*
X357D01*
X492Y1836D01*
X147Y1420D02*
X299Y1573D01*
X-689Y2205D02*
Y2806D01*
X-956Y3073D02*
X-689Y2806D01*
X-492Y2900D02*
X-210D01*
X-689Y3268D02*
X-492Y3071D01*
Y2205D02*
Y2900D01*
Y3071D01*
X-2480Y3346D02*
X-2425Y3291D01*
X-3031Y3045D02*
Y3346D01*
X-2545Y1817D02*
X-2205Y1476D01*
X-1280Y1836D02*
Y2205D01*
X-1415Y1701D02*
X-1280Y1836D01*
X-1538Y1701D02*
X-1415D01*
X-1842Y2005D02*
X-1538Y1701D01*
X-1842Y2005D02*
Y4545D01*
X-2545Y1817D02*
Y2559D01*
X-3031Y3045D02*
X-2545Y2559D01*
X-3374Y1969D02*
X-2685Y1280D01*
X-3996Y1624D02*
X-3618D01*
X-2879Y886D01*
X-2559Y-2461D02*
Y-2362D01*
X-492Y-2205D02*
Y-1836D01*
X1067Y-1020D02*
X1142Y-945D01*
X-492Y-1836D02*
X325Y-1020D01*
X1067D01*
X-3150Y-98D02*
X-2756Y295D01*
X-3760Y-98D02*
X-3150D01*
X-2756Y295D02*
X-2205D01*
X-2425Y2262D02*
Y3291D01*
Y2262D02*
X-1711Y1547D01*
D27*
X1689Y1476D02*
X2205D01*
X1454Y1242D02*
X1689Y1476D01*
X1634Y1119D02*
X1794Y1280D01*
X3228Y1083D02*
X3248Y1102D01*
X3031Y1280D02*
X3228Y1083D01*
X3268D02*
X3602D01*
X3248Y1102D02*
X3268Y1083D01*
X3031Y1476D02*
X3228Y1673D01*
X128Y-175D02*
X1183D01*
X-840Y793D02*
X128Y-175D01*
X-66Y476D02*
X328Y82D01*
X1454Y776D02*
Y1242D01*
X760Y82D02*
X1454Y776D01*
X328Y82D02*
X760D01*
X-268Y476D02*
X-66D01*
X-876Y1084D02*
X-268Y476D01*
X-1100Y1084D02*
X-876D01*
X-1301Y793D02*
X-840D01*
X-689Y-394D02*
X1001D01*
X1432Y-825D01*
X1634Y276D02*
Y1119D01*
X1183Y-175D02*
X1634Y276D01*
X-2165Y-3348D02*
X-1183D01*
X-2648Y-3831D02*
X-2165Y-3348D01*
X-2648Y-5585D02*
Y-3831D01*
X-136Y-2854D02*
X849Y-3839D01*
X1719D01*
X-689Y-2854D02*
X-136D01*
X-689Y-2953D02*
Y-2854D01*
X-787Y-3051D02*
X-689Y-2953D01*
X-1004Y-3051D02*
X-787D01*
X-1183Y-3348D02*
X-1004Y-3169D01*
X-1280Y492D02*
X-886D01*
X-1394Y886D02*
X-1301Y793D01*
X-1181Y1083D02*
X-1100D01*
X-2205Y886D02*
X-1394D01*
X-1870Y-2736D02*
Y-2461D01*
Y-1811D01*
X-1575Y4902D02*
X-1260Y5217D01*
X-1240Y5236D02*
X-1063Y5413D01*
X-994D01*
X-4311Y2530D02*
Y2667D01*
X-2264Y7461D02*
X-1575D01*
X-1024Y6909D02*
X-886D01*
X-1575Y7461D02*
X-1024Y6909D01*
X-886Y7461D02*
Y7677D01*
X-748Y7815D01*
X-197D01*
X-591Y6220D02*
X-394D01*
X3228Y1673D02*
X3248Y1654D01*
X-2864Y1083D02*
X-2205D01*
X-4311Y2530D02*
X-3760Y1978D01*
X-2205Y1083D02*
X-2204Y1084D01*
X1389Y-1575D02*
X1470Y-1655D01*
X2128D01*
X-2205Y-1476D02*
X-1870Y-1811D01*
X-2264Y6909D02*
X-1575D01*
X1612Y-1352D02*
Y-604D01*
X1183Y-175D02*
X1612Y-604D01*
X1432Y-1065D02*
Y-825D01*
X1209Y-1288D02*
X1432Y-1065D01*
X1389Y-1575D02*
X1612Y-1352D01*
X1209Y-1529D02*
Y-1288D01*
X1083Y-2205D02*
Y-1655D01*
X1209Y-1529D01*
X-3642Y-886D02*
X-2205D01*
X-2205Y-886D01*
X-689D01*
X-689Y-886D01*
Y-2205D02*
Y-886D01*
X-3150Y-1791D02*
Y-1378D01*
X-3642Y-886D02*
X-3150Y-1378D01*
X-1004Y-3169D02*
Y-3051D01*
X1870Y-4350D02*
Y-3990D01*
X1719Y-3839D02*
X1870Y-3990D01*
X-689Y-2854D02*
Y-2205D01*
X-4311Y2667D02*
Y3346D01*
X2205Y1476D02*
X3031D01*
X2205Y1280D02*
X3031D01*
X-2204Y1084D02*
X-1100D01*
X-1100Y1083D02*
X-1100Y1084D01*
X-1575Y6909D02*
X-1176Y6510D01*
Y6474D02*
Y6510D01*
Y6474D02*
X-1006Y6304D01*
X-970D01*
X-886Y6220D01*
X-591D01*
X-3760Y2667D02*
X-3514D01*
X-3374Y2528D01*
Y1969D02*
Y2528D01*
X-3760Y1978D02*
X-2864Y1083D01*
X-886Y492D02*
X-689Y295D01*
Y-394D02*
Y295D01*
Y-886D02*
Y-394D01*
D28*
X-6004Y-2736D02*
X-5325Y-3415D01*
X-5236D01*
X-5015Y3346D02*
X-4311D01*
X-5475Y3806D02*
X-5015Y3346D01*
X-5475Y3806D02*
Y6767D01*
X-2264Y4902D02*
X-1575D01*
X-5475Y6767D02*
X-5208Y7034D01*
X-3831D01*
X-3051Y6254D01*
Y4626D02*
Y6254D01*
Y4626D02*
X-2776Y4350D01*
X-2264D01*
X-2264Y5630D02*
X-2264Y5630D01*
Y4902D02*
Y5630D01*
X-5720Y266D02*
X-5315Y-140D01*
Y-512D02*
Y-140D01*
X-3642Y-1368D02*
Y-886D01*
X-3967Y-1693D02*
X-3642Y-1368D01*
X-6004Y-512D02*
Y-473D01*
X-6004Y-472D02*
X-6004Y-473D01*
X-6004Y-512D02*
Y-472D01*
X-3967Y-3022D02*
X-3642Y-3346D01*
X-3967Y-3022D02*
Y-2441D01*
X-5315Y-512D02*
X-4803D01*
X-4429Y-886D01*
X-3760Y3346D02*
X-3031D01*
X-3760Y3346D02*
X-3760Y3346D01*
D29*
X-6004Y-2736D02*
Y-1063D01*
X-5984Y-3396D02*
X-4852Y-4528D01*
X-3622D01*
X-5335Y-2510D02*
X-4892Y-2067D01*
X-5610Y-2510D02*
X-5335D01*
X-5315Y-1063D02*
X-5315Y-1063D01*
X-6004Y-1063D02*
X-5315D01*
X-3673Y-4579D02*
X-3622Y-4528D01*
X-3673Y-5610D02*
Y-4579D01*
X-4892Y-2785D02*
X-4429Y-3248D01*
X-4892Y-2785D02*
Y-2067D01*
D30*
X-197Y8366D02*
X0Y8563D01*
Y9941D01*
D31*
X-177Y6890D02*
X0Y6713D01*
Y6220D02*
Y6713D01*
X197Y6713D02*
X374Y6890D01*
X197Y6220D02*
Y6713D01*
X354Y6949D02*
Y7579D01*
X-197Y6949D02*
Y7559D01*
X-3760Y591D02*
X-3592Y759D01*
X-2953Y689D02*
X-2205D01*
X-197Y6949D02*
X-197Y6949D01*
X335Y6929D02*
X354Y6949D01*
X-197D02*
X-157Y6909D01*
X-3592Y759D02*
X-3277D01*
X-3760Y1270D02*
X-3533D01*
X-2953Y689D01*
X-3277Y759D02*
X-3010Y492D01*
X-2205D01*
D32*
X394Y6220D02*
X492D01*
X1181Y6909D01*
X1870D01*
D33*
X1280Y-2205D02*
Y-1684D01*
X1389Y-1575D01*
D34*
X-197Y8219D02*
D03*
D35*
X5354Y39D02*
D03*
X5020Y5610D02*
D03*
X-5020Y7579D02*
D03*
D36*
X4354Y39D02*
D03*
X5354Y1039D02*
D03*
X4354D02*
D03*
X5354Y2039D02*
D03*
X4354D02*
D03*
X4020Y5610D02*
D03*
X5020Y6610D02*
D03*
X4020D02*
D03*
X5020Y7610D02*
D03*
X4020D02*
D03*
X-2673Y-5610D02*
D03*
X-3673D02*
D03*
X-5720Y266D02*
D03*
Y3081D02*
D03*
X-4020Y7579D02*
D03*
X-5020Y6579D02*
D03*
X-4020D02*
D03*
X-5020Y5579D02*
D03*
X-4020D02*
D03*
D37*
X-1673Y-5610D02*
D03*
D38*
X-1000Y8941D02*
D03*
X1000D02*
D03*
Y10941D02*
D03*
X-1000D02*
D03*
D39*
X0Y9941D02*
D03*
D40*
X-5807Y2185D02*
D03*
Y1673D02*
D03*
Y1161D02*
D03*
X-5413Y1417D02*
D03*
Y1929D02*
D03*
D41*
X5406Y-1740D02*
D03*
X5906D02*
D03*
X5406Y-2240D02*
D03*
X5906D02*
D03*
X5406Y-2740D02*
D03*
X5906D02*
D03*
X5406Y-3240D02*
D03*
X5906D02*
D03*
X5406Y-3740D02*
D03*
D42*
X5906D02*
D03*
D43*
Y5217D02*
D03*
X3740Y2067D02*
D03*
Y492D02*
D03*
X3248D02*
D03*
X4921Y-787D02*
D03*
X1378Y0D02*
D03*
X424Y1301D02*
D03*
X843Y1404D02*
D03*
X-98Y886D02*
D03*
X591Y492D02*
D03*
X934Y939D02*
D03*
X886Y-1378D02*
D03*
X2067Y-2854D02*
D03*
X1870Y-1969D02*
D03*
X-661Y-3842D02*
D03*
X144Y-3578D02*
D03*
X-394Y-3543D02*
D03*
X-1181Y-3740D02*
D03*
X-1083Y-5512D02*
D03*
X-1378Y-394D02*
D03*
Y-1378D02*
D03*
X-1280Y492D02*
D03*
X-1181Y1083D02*
D03*
X-1870Y-2461D02*
D03*
X-681Y1547D02*
D03*
X-3937Y-3937D02*
D03*
X3150Y2461D02*
D03*
X1772Y2953D02*
D03*
X4921Y3248D02*
D03*
X3445Y-5807D02*
D03*
X1969D02*
D03*
X4921Y-4429D02*
D03*
Y-2953D02*
D03*
X-1969Y-4429D02*
D03*
X-4528Y-1673D02*
D03*
Y6102D02*
D03*
X-4823Y1969D02*
D03*
X-4921Y0D02*
D03*
X-689Y8169D02*
D03*
X1476Y8071D02*
D03*
X-3740Y4035D02*
D03*
X-3740Y4724D02*
D03*
X-1575Y5217D02*
D03*
X-689Y4134D02*
D03*
X2331Y-5149D02*
D03*
X4429Y-1673D02*
D03*
X3248Y-2894D02*
D03*
X-3642Y-3346D02*
D03*
X-4429Y-886D02*
D03*
X-6004Y-512D02*
D03*
X1870Y8071D02*
D03*
X1083D02*
D03*
X1142Y-945D02*
D03*
X1181Y-4154D02*
D03*
X-236Y5177D02*
D03*
X236D02*
D03*
X244Y5650D02*
D03*
X2264Y2461D02*
D03*
X3602Y1083D02*
D03*
X-1575Y3937D02*
D03*
X335Y3248D02*
D03*
X1378Y4035D02*
D03*
X2953Y5709D02*
D03*
X-1909Y6201D02*
D03*
X-886Y6594D02*
D03*
X-236Y5650D02*
D03*
X-1240Y7874D02*
D03*
X-1929D02*
D03*
X-2618D02*
D03*
X2461Y8071D02*
D03*
Y7382D02*
D03*
X-2815Y2461D02*
D03*
X-2165D02*
D03*
Y3937D02*
D03*
X-2992Y7382D02*
D03*
X-2559Y-2461D02*
D03*
X-1969Y-3937D02*
D03*
X-2953D02*
D03*
X-591Y-5807D02*
D03*
X-4331Y-5906D02*
D03*
X-6102Y-4331D02*
D03*
X0Y-787D02*
D03*
Y0D02*
D03*
X-6142Y2657D02*
D03*
X-3346Y295D02*
D03*
X-5286Y2657D02*
D03*
X-6102Y3937D02*
D03*
Y5906D02*
D03*
Y7874D02*
D03*
X-5906Y8858D02*
D03*
X-4921D02*
D03*
X-2953Y9843D02*
D03*
X-1969D02*
D03*
X-2953Y10827D02*
D03*
X-1969D02*
D03*
X-3937D02*
D03*
Y9843D02*
D03*
X2953Y10827D02*
D03*
X1969Y10827D02*
D03*
X2953Y8858D02*
D03*
X3937Y9843D02*
D03*
Y10827D02*
D03*
Y8858D02*
D03*
X4921D02*
D03*
X5906D02*
D03*
X-1969D02*
D03*
X-2953D02*
D03*
X-3937D02*
D03*
X1969Y9843D02*
D03*
X2953D02*
D03*
X1969Y8858D02*
D03*
X5906Y7874D02*
D03*
Y5906D02*
D03*
Y3248D02*
D03*
X6102Y1969D02*
D03*
Y0D02*
D03*
X3937Y3248D02*
D03*
X6102Y984D02*
D03*
X2953Y3937D02*
D03*
Y4921D02*
D03*
D44*
X-236Y-3150D02*
D03*
M02*
