G04 Layer_Color=65535*
%FSLAX24Y24*%
%MOIN*%
G70*
G01*
G75*
%ADD26C,0.0060*%
%ADD28C,0.0200*%
%ADD32C,0.0100*%
%ADD33C,0.0080*%
%ADD46C,0.0050*%
%ADD47C,0.0098*%
%ADD48C,0.0236*%
%ADD49C,0.0000*%
%ADD50C,0.0079*%
G36*
X-3670Y9479D02*
X-3665Y9478D01*
X-3659Y9478D01*
X-3653Y9477D01*
X-3646Y9476D01*
X-3631Y9473D01*
X-3616Y9469D01*
X-3608Y9466D01*
X-3601Y9463D01*
X-3594Y9459D01*
X-3587Y9454D01*
X-3587Y9454D01*
X-3586Y9453D01*
X-3584Y9452D01*
X-3582Y9450D01*
X-3579Y9447D01*
X-3576Y9444D01*
X-3573Y9440D01*
X-3569Y9436D01*
X-3566Y9432D01*
X-3562Y9427D01*
X-3558Y9421D01*
X-3555Y9415D01*
X-3551Y9408D01*
X-3548Y9401D01*
X-3546Y9393D01*
X-3544Y9385D01*
X-3608Y9373D01*
Y9374D01*
X-3609Y9374D01*
X-3609Y9377D01*
X-3611Y9381D01*
X-3614Y9387D01*
X-3617Y9393D01*
X-3622Y9399D01*
X-3627Y9405D01*
X-3634Y9410D01*
X-3635Y9411D01*
X-3637Y9413D01*
X-3641Y9415D01*
X-3646Y9417D01*
X-3653Y9420D01*
X-3661Y9422D01*
X-3670Y9424D01*
X-3680Y9424D01*
X-3684D01*
X-3687Y9424D01*
X-3691Y9423D01*
X-3695Y9423D01*
X-3700Y9422D01*
X-3705Y9421D01*
X-3715Y9418D01*
X-3721Y9416D01*
X-3726Y9413D01*
X-3732Y9409D01*
X-3737Y9406D01*
X-3742Y9402D01*
X-3748Y9397D01*
X-3748Y9397D01*
X-3748Y9396D01*
X-3750Y9394D01*
X-3751Y9392D01*
X-3753Y9389D01*
X-3755Y9386D01*
X-3758Y9382D01*
X-3760Y9377D01*
X-3762Y9372D01*
X-3764Y9366D01*
X-3767Y9359D01*
X-3768Y9352D01*
X-3770Y9344D01*
X-3771Y9336D01*
X-3772Y9327D01*
X-3772Y9317D01*
Y9317D01*
Y9315D01*
Y9312D01*
X-3772Y9308D01*
X-3771Y9303D01*
X-3771Y9298D01*
X-3770Y9291D01*
X-3769Y9285D01*
X-3766Y9271D01*
X-3761Y9257D01*
X-3759Y9250D01*
X-3755Y9243D01*
X-3751Y9237D01*
X-3747Y9231D01*
X-3747Y9231D01*
X-3746Y9230D01*
X-3744Y9228D01*
X-3742Y9227D01*
X-3740Y9225D01*
X-3737Y9222D01*
X-3733Y9220D01*
X-3729Y9217D01*
X-3724Y9214D01*
X-3720Y9212D01*
X-3708Y9207D01*
X-3702Y9205D01*
X-3695Y9204D01*
X-3688Y9203D01*
X-3681Y9203D01*
X-3677D01*
X-3673Y9203D01*
X-3668Y9203D01*
X-3662Y9204D01*
X-3655Y9206D01*
X-3647Y9208D01*
X-3640Y9210D01*
X-3639D01*
X-3639Y9211D01*
X-3637Y9212D01*
X-3633Y9214D01*
X-3628Y9216D01*
X-3622Y9219D01*
X-3616Y9222D01*
X-3610Y9226D01*
X-3605Y9230D01*
Y9271D01*
X-3679D01*
Y9325D01*
X-3540D01*
Y9197D01*
X-3541Y9196D01*
X-3542Y9195D01*
X-3543Y9193D01*
X-3546Y9191D01*
X-3548Y9190D01*
X-3554Y9185D01*
X-3563Y9180D01*
X-3573Y9174D01*
X-3585Y9168D01*
X-3599Y9162D01*
X-3599D01*
X-3601Y9162D01*
X-3602Y9161D01*
X-3605Y9160D01*
X-3609Y9159D01*
X-3613Y9158D01*
X-3618Y9156D01*
X-3623Y9155D01*
X-3634Y9152D01*
X-3648Y9150D01*
X-3662Y9148D01*
X-3676Y9148D01*
X-3681D01*
X-3685Y9148D01*
X-3689D01*
X-3694Y9148D01*
X-3700Y9149D01*
X-3706Y9150D01*
X-3720Y9153D01*
X-3735Y9156D01*
X-3750Y9161D01*
X-3757Y9165D01*
X-3764Y9168D01*
X-3765Y9169D01*
X-3766Y9169D01*
X-3768Y9171D01*
X-3770Y9172D01*
X-3773Y9174D01*
X-3777Y9177D01*
X-3781Y9180D01*
X-3785Y9184D01*
X-3794Y9192D01*
X-3803Y9203D01*
X-3812Y9215D01*
X-3820Y9229D01*
Y9229D01*
X-3821Y9231D01*
X-3822Y9233D01*
X-3823Y9236D01*
X-3824Y9239D01*
X-3826Y9244D01*
X-3827Y9249D01*
X-3829Y9254D01*
X-3831Y9260D01*
X-3833Y9267D01*
X-3836Y9282D01*
X-3838Y9297D01*
X-3839Y9314D01*
Y9315D01*
Y9317D01*
Y9319D01*
X-3838Y9323D01*
Y9327D01*
X-3838Y9332D01*
X-3837Y9338D01*
X-3836Y9344D01*
X-3834Y9358D01*
X-3830Y9373D01*
X-3825Y9388D01*
X-3821Y9396D01*
X-3818Y9403D01*
X-3817Y9403D01*
X-3817Y9405D01*
X-3815Y9407D01*
X-3814Y9409D01*
X-3812Y9413D01*
X-3809Y9416D01*
X-3806Y9421D01*
X-3803Y9425D01*
X-3798Y9430D01*
X-3794Y9435D01*
X-3789Y9440D01*
X-3783Y9445D01*
X-3777Y9450D01*
X-3771Y9455D01*
X-3757Y9463D01*
X-3756D01*
X-3755Y9464D01*
X-3754Y9464D01*
X-3751Y9466D01*
X-3748Y9467D01*
X-3745Y9468D01*
X-3740Y9470D01*
X-3736Y9471D01*
X-3730Y9473D01*
X-3724Y9474D01*
X-3718Y9476D01*
X-3712Y9477D01*
X-3697Y9479D01*
X-3680Y9479D01*
X-3675D01*
X-3670Y9479D01*
D02*
G37*
G36*
X-3226Y9154D02*
X-3290D01*
X-3420Y9364D01*
Y9154D01*
X-3480D01*
Y9473D01*
X-3417D01*
X-3285Y9258D01*
Y9473D01*
X-3226D01*
Y9154D01*
D02*
G37*
G36*
X-3027Y6260D02*
Y6191D01*
X-3346Y6063D01*
Y6133D01*
X-3274Y6160D01*
Y6289D01*
X-3346Y6315D01*
Y6383D01*
X-3027Y6260D01*
D02*
G37*
G36*
X-3237Y6925D02*
X-3237D01*
X-3238Y6925D01*
X-3240D01*
X-3242Y6924D01*
X-3247Y6923D01*
X-3254Y6920D01*
X-3262Y6917D01*
X-3270Y6913D01*
X-3277Y6909D01*
X-3283Y6903D01*
X-3284Y6902D01*
X-3285Y6899D01*
X-3288Y6896D01*
X-3291Y6890D01*
X-3293Y6883D01*
X-3296Y6875D01*
X-3297Y6866D01*
X-3298Y6856D01*
Y6855D01*
Y6854D01*
Y6853D01*
Y6851D01*
X-3297Y6845D01*
X-3296Y6838D01*
X-3295Y6831D01*
X-3292Y6823D01*
X-3289Y6815D01*
X-3285Y6809D01*
X-3285Y6808D01*
X-3283Y6806D01*
X-3280Y6804D01*
X-3276Y6801D01*
X-3272Y6798D01*
X-3266Y6795D01*
X-3261Y6793D01*
X-3254Y6793D01*
X-3252D01*
X-3250Y6793D01*
X-3247Y6794D01*
X-3244Y6795D01*
X-3241Y6796D01*
X-3238Y6797D01*
X-3235Y6800D01*
X-3234Y6800D01*
X-3233Y6801D01*
X-3232Y6802D01*
X-3230Y6805D01*
X-3228Y6808D01*
X-3225Y6812D01*
X-3223Y6817D01*
X-3221Y6823D01*
Y6823D01*
X-3220Y6825D01*
X-3219Y6828D01*
X-3218Y6831D01*
X-3218Y6833D01*
X-3217Y6837D01*
X-3215Y6840D01*
X-3214Y6845D01*
X-3213Y6849D01*
X-3212Y6855D01*
X-3210Y6861D01*
X-3208Y6867D01*
X-3206Y6875D01*
Y6875D01*
X-3206Y6877D01*
X-3205Y6880D01*
X-3204Y6883D01*
X-3203Y6887D01*
X-3201Y6892D01*
X-3200Y6897D01*
X-3198Y6903D01*
X-3193Y6915D01*
X-3188Y6927D01*
X-3185Y6933D01*
X-3182Y6938D01*
X-3178Y6943D01*
X-3175Y6947D01*
X-3175Y6948D01*
X-3174Y6948D01*
X-3172Y6950D01*
X-3170Y6952D01*
X-3168Y6954D01*
X-3164Y6956D01*
X-3161Y6959D01*
X-3157Y6961D01*
X-3147Y6967D01*
X-3136Y6972D01*
X-3130Y6973D01*
X-3124Y6975D01*
X-3117Y6976D01*
X-3110Y6976D01*
X-3106D01*
X-3102Y6975D01*
X-3096Y6974D01*
X-3089Y6973D01*
X-3081Y6971D01*
X-3072Y6967D01*
X-3065Y6963D01*
X-3064D01*
X-3064Y6962D01*
X-3061Y6960D01*
X-3057Y6957D01*
X-3053Y6953D01*
X-3048Y6947D01*
X-3042Y6940D01*
X-3037Y6932D01*
X-3032Y6923D01*
Y6923D01*
X-3032Y6922D01*
X-3031Y6920D01*
X-3030Y6918D01*
X-3030Y6916D01*
X-3029Y6913D01*
X-3028Y6909D01*
X-3026Y6905D01*
X-3024Y6896D01*
X-3023Y6885D01*
X-3021Y6873D01*
X-3021Y6860D01*
Y6859D01*
Y6857D01*
Y6854D01*
X-3021Y6850D01*
X-3022Y6845D01*
X-3022Y6839D01*
X-3023Y6833D01*
X-3024Y6826D01*
X-3027Y6811D01*
X-3030Y6804D01*
X-3032Y6796D01*
X-3035Y6789D01*
X-3039Y6782D01*
X-3043Y6776D01*
X-3048Y6770D01*
X-3048Y6769D01*
X-3049Y6768D01*
X-3050Y6767D01*
X-3052Y6765D01*
X-3055Y6763D01*
X-3058Y6760D01*
X-3062Y6757D01*
X-3066Y6754D01*
X-3071Y6751D01*
X-3076Y6748D01*
X-3082Y6746D01*
X-3089Y6743D01*
X-3095Y6741D01*
X-3103Y6739D01*
X-3110Y6738D01*
X-3118Y6737D01*
X-3121Y6802D01*
X-3120D01*
X-3116Y6803D01*
X-3112Y6804D01*
X-3107Y6806D01*
X-3101Y6808D01*
X-3096Y6811D01*
X-3090Y6815D01*
X-3085Y6820D01*
X-3085Y6820D01*
X-3084Y6822D01*
X-3082Y6826D01*
X-3080Y6830D01*
X-3078Y6836D01*
X-3076Y6843D01*
X-3075Y6851D01*
X-3074Y6861D01*
Y6861D01*
Y6862D01*
Y6863D01*
Y6865D01*
X-3075Y6870D01*
X-3076Y6876D01*
X-3077Y6883D01*
X-3079Y6891D01*
X-3082Y6898D01*
X-3086Y6904D01*
X-3087Y6905D01*
X-3088Y6905D01*
X-3089Y6907D01*
X-3091Y6909D01*
X-3094Y6911D01*
X-3098Y6913D01*
X-3102Y6914D01*
X-3106Y6914D01*
X-3108D01*
X-3110Y6914D01*
X-3113Y6913D01*
X-3116Y6912D01*
X-3119Y6911D01*
X-3122Y6908D01*
X-3126Y6905D01*
X-3126Y6905D01*
X-3127Y6902D01*
X-3128Y6901D01*
X-3129Y6899D01*
X-3131Y6896D01*
X-3132Y6893D01*
X-3133Y6889D01*
X-3135Y6885D01*
X-3137Y6880D01*
X-3139Y6875D01*
X-3141Y6869D01*
X-3143Y6862D01*
X-3145Y6854D01*
X-3147Y6846D01*
Y6845D01*
X-3147Y6844D01*
X-3148Y6841D01*
X-3149Y6838D01*
X-3150Y6834D01*
X-3151Y6830D01*
X-3152Y6825D01*
X-3154Y6820D01*
X-3158Y6808D01*
X-3161Y6797D01*
X-3165Y6786D01*
X-3168Y6781D01*
X-3170Y6777D01*
Y6776D01*
X-3170Y6776D01*
X-3172Y6773D01*
X-3175Y6769D01*
X-3179Y6764D01*
X-3183Y6758D01*
X-3189Y6752D01*
X-3195Y6746D01*
X-3203Y6741D01*
X-3204Y6741D01*
X-3206Y6739D01*
X-3211Y6737D01*
X-3217Y6735D01*
X-3224Y6732D01*
X-3233Y6730D01*
X-3243Y6729D01*
X-3254Y6728D01*
X-3258D01*
X-3261Y6729D01*
X-3264Y6729D01*
X-3270Y6730D01*
X-3279Y6732D01*
X-3287Y6735D01*
X-3296Y6739D01*
X-3305Y6744D01*
X-3306D01*
X-3306Y6745D01*
X-3309Y6747D01*
X-3314Y6750D01*
X-3319Y6755D01*
X-3325Y6761D01*
X-3330Y6769D01*
X-3336Y6777D01*
X-3341Y6787D01*
Y6788D01*
X-3341Y6789D01*
X-3342Y6790D01*
X-3343Y6792D01*
X-3344Y6795D01*
X-3345Y6798D01*
X-3346Y6802D01*
X-3346Y6806D01*
X-3348Y6811D01*
X-3349Y6816D01*
X-3351Y6828D01*
X-3352Y6842D01*
X-3352Y6857D01*
Y6857D01*
Y6859D01*
Y6863D01*
X-3352Y6867D01*
X-3352Y6872D01*
X-3351Y6877D01*
X-3350Y6884D01*
X-3349Y6891D01*
X-3346Y6906D01*
X-3343Y6914D01*
X-3341Y6921D01*
X-3338Y6929D01*
X-3334Y6936D01*
X-3330Y6943D01*
X-3325Y6950D01*
X-3324Y6950D01*
X-3323Y6951D01*
X-3322Y6953D01*
X-3320Y6955D01*
X-3316Y6958D01*
X-3313Y6960D01*
X-3309Y6964D01*
X-3304Y6967D01*
X-3298Y6970D01*
X-3292Y6973D01*
X-3285Y6977D01*
X-3278Y6980D01*
X-3270Y6982D01*
X-3261Y6985D01*
X-3252Y6987D01*
X-3243Y6988D01*
X-3237Y6925D01*
D02*
G37*
G36*
X-3027Y6556D02*
Y6555D01*
Y6554D01*
Y6552D01*
Y6549D01*
Y6546D01*
X-3027Y6542D01*
X-3028Y6533D01*
X-3028Y6523D01*
X-3030Y6513D01*
X-3031Y6504D01*
X-3033Y6495D01*
Y6494D01*
X-3034Y6493D01*
X-3034Y6492D01*
X-3035Y6490D01*
X-3037Y6485D01*
X-3040Y6478D01*
X-3044Y6471D01*
X-3049Y6462D01*
X-3055Y6455D01*
X-3063Y6447D01*
Y6446D01*
X-3064Y6446D01*
X-3066Y6443D01*
X-3071Y6440D01*
X-3077Y6436D01*
X-3085Y6431D01*
X-3093Y6425D01*
X-3103Y6420D01*
X-3115Y6416D01*
X-3115D01*
X-3116Y6416D01*
X-3118Y6415D01*
X-3120Y6414D01*
X-3123Y6414D01*
X-3127Y6413D01*
X-3131Y6412D01*
X-3135Y6411D01*
X-3140Y6410D01*
X-3146Y6409D01*
X-3152Y6408D01*
X-3159Y6407D01*
X-3174Y6406D01*
X-3190Y6406D01*
X-3196D01*
X-3200Y6406D01*
X-3204D01*
X-3208Y6407D01*
X-3213Y6407D01*
X-3224Y6408D01*
X-3235Y6410D01*
X-3247Y6413D01*
X-3258Y6416D01*
X-3258D01*
X-3259Y6416D01*
X-3261Y6417D01*
X-3264Y6418D01*
X-3267Y6419D01*
X-3270Y6421D01*
X-3278Y6425D01*
X-3287Y6429D01*
X-3297Y6435D01*
X-3306Y6442D01*
X-3315Y6450D01*
X-3316Y6451D01*
X-3317Y6453D01*
X-3320Y6457D01*
X-3324Y6462D01*
X-3328Y6468D01*
X-3332Y6476D01*
X-3336Y6485D01*
X-3340Y6495D01*
Y6496D01*
X-3340Y6496D01*
Y6498D01*
X-3341Y6499D01*
X-3342Y6504D01*
X-3343Y6510D01*
X-3345Y6518D01*
X-3346Y6528D01*
X-3346Y6540D01*
X-3346Y6552D01*
Y6673D01*
X-3027D01*
Y6556D01*
D02*
G37*
G36*
X-5923Y5363D02*
X-5919D01*
X-5913Y5362D01*
X-5905Y5360D01*
X-5896Y5358D01*
X-5888Y5356D01*
X-5880Y5352D01*
X-5879Y5351D01*
X-5877Y5350D01*
X-5873Y5348D01*
X-5869Y5344D01*
X-5864Y5341D01*
X-5858Y5336D01*
X-5853Y5331D01*
X-5849Y5325D01*
X-5848Y5324D01*
X-5847Y5322D01*
X-5845Y5319D01*
X-5843Y5314D01*
X-5840Y5309D01*
X-5838Y5304D01*
X-5835Y5298D01*
X-5833Y5291D01*
Y5291D01*
Y5290D01*
X-5833Y5289D01*
Y5287D01*
X-5832Y5285D01*
X-5832Y5282D01*
X-5832Y5278D01*
Y5274D01*
X-5831Y5270D01*
X-5831Y5265D01*
X-5830Y5259D01*
X-5830Y5253D01*
Y5247D01*
X-5829Y5240D01*
Y5233D01*
Y5225D01*
Y5183D01*
X-5709D01*
Y5118D01*
X-6028D01*
Y5222D01*
Y5222D01*
Y5224D01*
Y5227D01*
Y5231D01*
Y5236D01*
X-6028Y5241D01*
Y5247D01*
Y5253D01*
X-6027Y5266D01*
X-6026Y5279D01*
X-6026Y5284D01*
X-6025Y5290D01*
X-6024Y5295D01*
X-6023Y5298D01*
Y5299D01*
X-6023Y5300D01*
X-6022Y5301D01*
X-6022Y5303D01*
X-6020Y5308D01*
X-6017Y5314D01*
X-6013Y5321D01*
X-6007Y5329D01*
X-6000Y5337D01*
X-5992Y5344D01*
X-5991D01*
X-5991Y5345D01*
X-5990Y5346D01*
X-5988Y5347D01*
X-5985Y5349D01*
X-5982Y5350D01*
X-5979Y5352D01*
X-5975Y5354D01*
X-5966Y5357D01*
X-5956Y5360D01*
X-5943Y5362D01*
X-5930Y5363D01*
X-5925D01*
X-5923Y5363D01*
D02*
G37*
G36*
X-5709Y7155D02*
X-5781Y7127D01*
Y6999D01*
X-5709Y6972D01*
Y6904D01*
X-6028Y7028D01*
Y7096D01*
X-5709Y7225D01*
Y7155D01*
D02*
G37*
G36*
Y5727D02*
Y5657D01*
X-5948Y5594D01*
X-5709Y5531D01*
Y5460D01*
X-6028Y5385D01*
Y5451D01*
X-5808Y5499D01*
X-6028Y5557D01*
Y5635D01*
X-5805Y5690D01*
X-6028Y5739D01*
Y5804D01*
X-5709Y5727D01*
D02*
G37*
G36*
X-3026Y9473D02*
X-3017Y9472D01*
X-3007Y9472D01*
X-2997Y9470D01*
X-2988Y9469D01*
X-2979Y9467D01*
X-2978D01*
X-2977Y9466D01*
X-2976Y9466D01*
X-2974Y9465D01*
X-2969Y9463D01*
X-2962Y9460D01*
X-2955Y9456D01*
X-2946Y9451D01*
X-2939Y9445D01*
X-2931Y9437D01*
X-2930D01*
X-2930Y9436D01*
X-2928Y9434D01*
X-2924Y9429D01*
X-2920Y9423D01*
X-2915Y9416D01*
X-2910Y9407D01*
X-2904Y9397D01*
X-2900Y9385D01*
Y9385D01*
X-2900Y9384D01*
X-2899Y9382D01*
X-2898Y9380D01*
X-2898Y9377D01*
X-2897Y9373D01*
X-2896Y9369D01*
X-2895Y9365D01*
X-2894Y9360D01*
X-2893Y9354D01*
X-2892Y9348D01*
X-2891Y9341D01*
X-2890Y9326D01*
X-2890Y9310D01*
Y9310D01*
Y9308D01*
Y9306D01*
Y9304D01*
X-2890Y9300D01*
Y9296D01*
X-2891Y9292D01*
X-2891Y9287D01*
X-2892Y9276D01*
X-2894Y9265D01*
X-2897Y9253D01*
X-2900Y9242D01*
Y9242D01*
X-2900Y9241D01*
X-2901Y9239D01*
X-2902Y9236D01*
X-2903Y9233D01*
X-2905Y9230D01*
X-2909Y9222D01*
X-2913Y9213D01*
X-2919Y9203D01*
X-2926Y9194D01*
X-2934Y9185D01*
X-2935Y9184D01*
X-2937Y9183D01*
X-2941Y9180D01*
X-2946Y9176D01*
X-2952Y9172D01*
X-2960Y9168D01*
X-2969Y9164D01*
X-2979Y9160D01*
X-2980D01*
X-2980Y9160D01*
X-2982D01*
X-2983Y9159D01*
X-2988Y9158D01*
X-2995Y9157D01*
X-3002Y9155D01*
X-3012Y9154D01*
X-3024Y9154D01*
X-3036Y9154D01*
X-3157D01*
Y9473D01*
X-3030D01*
X-3026Y9473D01*
D02*
G37*
G36*
X-5709Y6085D02*
X-5960Y6085D01*
X-5709Y6022D01*
Y5959D01*
X-5960Y5897D01*
X-5709D01*
Y5837D01*
X-6028D01*
Y5934D01*
X-5810Y5991D01*
X-6028Y6048D01*
Y6145D01*
X-5709D01*
Y6085D01*
D02*
G37*
G36*
X-2987Y5020D02*
X-3048D01*
Y5251D01*
X-3049Y5251D01*
X-3050Y5250D01*
X-3052Y5248D01*
X-3054Y5246D01*
X-3058Y5243D01*
X-3061Y5241D01*
X-3066Y5237D01*
X-3071Y5234D01*
X-3077Y5230D01*
X-3083Y5226D01*
X-3089Y5222D01*
X-3096Y5218D01*
X-3111Y5211D01*
X-3127Y5205D01*
Y5260D01*
X-3127D01*
X-3127Y5261D01*
X-3125Y5261D01*
X-3123Y5262D01*
X-3119Y5264D01*
X-3112Y5267D01*
X-3104Y5271D01*
X-3096Y5276D01*
X-3086Y5282D01*
X-3076Y5289D01*
X-3075Y5290D01*
X-3074Y5290D01*
X-3073Y5292D01*
X-3071Y5294D01*
X-3066Y5298D01*
X-3061Y5304D01*
X-3054Y5312D01*
X-3048Y5321D01*
X-3042Y5331D01*
X-3037Y5341D01*
X-2987D01*
Y5020D01*
D02*
G37*
G36*
X2992Y6231D02*
X2998Y6230D01*
X3004Y6230D01*
X3010Y6229D01*
X3016Y6228D01*
X3031Y6225D01*
X3039Y6222D01*
X3046Y6220D01*
X3053Y6217D01*
X3060Y6213D01*
X3067Y6209D01*
X3073Y6204D01*
X3073Y6204D01*
X3074Y6203D01*
X3076Y6202D01*
X3077Y6200D01*
X3080Y6197D01*
X3083Y6194D01*
X3085Y6190D01*
X3089Y6186D01*
X3091Y6181D01*
X3094Y6176D01*
X3097Y6170D01*
X3099Y6163D01*
X3101Y6157D01*
X3103Y6149D01*
X3105Y6142D01*
X3105Y6134D01*
X3041Y6131D01*
Y6132D01*
Y6132D01*
X3040Y6136D01*
X3039Y6140D01*
X3037Y6145D01*
X3035Y6151D01*
X3031Y6156D01*
X3027Y6162D01*
X3022Y6167D01*
X3022Y6167D01*
X3020Y6168D01*
X3017Y6170D01*
X3012Y6172D01*
X3007Y6174D01*
X3000Y6176D01*
X2992Y6177D01*
X2982Y6178D01*
X2977D01*
X2972Y6177D01*
X2966Y6176D01*
X2959Y6175D01*
X2952Y6173D01*
X2945Y6170D01*
X2938Y6166D01*
X2938Y6165D01*
X2937Y6164D01*
X2935Y6163D01*
X2933Y6161D01*
X2931Y6158D01*
X2930Y6154D01*
X2929Y6150D01*
X2928Y6146D01*
Y6145D01*
Y6144D01*
X2929Y6142D01*
X2930Y6139D01*
X2931Y6136D01*
X2932Y6133D01*
X2934Y6130D01*
X2937Y6126D01*
X2938Y6126D01*
X2940Y6125D01*
X2942Y6124D01*
X2944Y6123D01*
X2946Y6121D01*
X2950Y6120D01*
X2953Y6118D01*
X2957Y6117D01*
X2962Y6115D01*
X2968Y6113D01*
X2974Y6111D01*
X2981Y6109D01*
X2988Y6107D01*
X2997Y6105D01*
X2997D01*
X2999Y6105D01*
X3001Y6104D01*
X3004Y6103D01*
X3008Y6102D01*
X3013Y6101D01*
X3018Y6100D01*
X3023Y6098D01*
X3034Y6094D01*
X3046Y6091D01*
X3057Y6087D01*
X3061Y6084D01*
X3066Y6082D01*
X3066D01*
X3067Y6082D01*
X3070Y6080D01*
X3074Y6077D01*
X3079Y6073D01*
X3084Y6069D01*
X3090Y6063D01*
X3096Y6057D01*
X3101Y6049D01*
X3102Y6048D01*
X3103Y6046D01*
X3106Y6041D01*
X3108Y6035D01*
X3110Y6028D01*
X3113Y6019D01*
X3114Y6009D01*
X3114Y5998D01*
Y5998D01*
Y5997D01*
Y5996D01*
Y5994D01*
X3114Y5991D01*
X3114Y5988D01*
X3113Y5982D01*
X3111Y5973D01*
X3108Y5965D01*
X3104Y5956D01*
X3099Y5947D01*
Y5946D01*
X3098Y5946D01*
X3096Y5943D01*
X3092Y5938D01*
X3088Y5933D01*
X3082Y5927D01*
X3074Y5922D01*
X3065Y5916D01*
X3055Y5911D01*
X3055D01*
X3054Y5911D01*
X3053Y5910D01*
X3050Y5909D01*
X3047Y5908D01*
X3044Y5907D01*
X3041Y5906D01*
X3036Y5906D01*
X3031Y5904D01*
X3026Y5903D01*
X3014Y5901D01*
X3001Y5900D01*
X2986Y5900D01*
X2980D01*
X2976Y5900D01*
X2971Y5900D01*
X2965Y5901D01*
X2959Y5902D01*
X2952Y5903D01*
X2937Y5906D01*
X2929Y5909D01*
X2921Y5911D01*
X2913Y5914D01*
X2906Y5918D01*
X2899Y5922D01*
X2893Y5927D01*
X2892Y5928D01*
X2891Y5929D01*
X2889Y5930D01*
X2888Y5932D01*
X2885Y5936D01*
X2882Y5939D01*
X2879Y5943D01*
X2876Y5948D01*
X2872Y5954D01*
X2869Y5960D01*
X2866Y5966D01*
X2863Y5974D01*
X2860Y5982D01*
X2858Y5991D01*
X2856Y6000D01*
X2854Y6009D01*
X2917Y6015D01*
Y6015D01*
X2918Y6014D01*
Y6012D01*
X2918Y6010D01*
X2920Y6005D01*
X2922Y5998D01*
X2925Y5990D01*
X2929Y5982D01*
X2934Y5975D01*
X2940Y5969D01*
X2941Y5968D01*
X2943Y5966D01*
X2947Y5964D01*
X2952Y5961D01*
X2959Y5959D01*
X2967Y5956D01*
X2976Y5954D01*
X2987Y5954D01*
X2992D01*
X2998Y5955D01*
X3004Y5956D01*
X3012Y5957D01*
X3020Y5960D01*
X3027Y5963D01*
X3034Y5967D01*
X3035Y5967D01*
X3036Y5969D01*
X3039Y5972D01*
X3042Y5976D01*
X3045Y5980D01*
X3047Y5986D01*
X3049Y5991D01*
X3050Y5998D01*
Y5998D01*
Y6000D01*
X3049Y6002D01*
X3049Y6005D01*
X3048Y6008D01*
X3047Y6011D01*
X3045Y6014D01*
X3043Y6017D01*
X3042Y6018D01*
X3041Y6019D01*
X3040Y6020D01*
X3038Y6022D01*
X3035Y6024D01*
X3030Y6027D01*
X3026Y6029D01*
X3020Y6031D01*
X3019D01*
X3017Y6032D01*
X3014Y6033D01*
X3012Y6034D01*
X3009Y6034D01*
X3006Y6035D01*
X3002Y6037D01*
X2998Y6038D01*
X2993Y6039D01*
X2988Y6040D01*
X2982Y6042D01*
X2975Y6044D01*
X2968Y6046D01*
X2968D01*
X2966Y6046D01*
X2963Y6047D01*
X2960Y6048D01*
X2956Y6049D01*
X2950Y6051D01*
X2945Y6052D01*
X2939Y6054D01*
X2927Y6059D01*
X2916Y6064D01*
X2910Y6067D01*
X2905Y6070D01*
X2900Y6074D01*
X2895Y6077D01*
X2895Y6077D01*
X2894Y6078D01*
X2893Y6080D01*
X2891Y6082D01*
X2889Y6084D01*
X2886Y6088D01*
X2883Y6091D01*
X2881Y6095D01*
X2876Y6105D01*
X2871Y6116D01*
X2869Y6122D01*
X2868Y6128D01*
X2867Y6135D01*
X2866Y6142D01*
Y6142D01*
Y6143D01*
Y6144D01*
Y6146D01*
X2867Y6150D01*
X2868Y6156D01*
X2870Y6163D01*
X2872Y6171D01*
X2875Y6179D01*
X2880Y6187D01*
Y6188D01*
X2880Y6188D01*
X2883Y6191D01*
X2885Y6195D01*
X2890Y6199D01*
X2895Y6204D01*
X2902Y6210D01*
X2910Y6215D01*
X2919Y6220D01*
X2920D01*
X2921Y6220D01*
X2922Y6221D01*
X2924Y6222D01*
X2927Y6222D01*
X2930Y6223D01*
X2933Y6224D01*
X2937Y6226D01*
X2947Y6228D01*
X2957Y6229D01*
X2969Y6231D01*
X2983Y6231D01*
X2988D01*
X2992Y6231D01*
D02*
G37*
G36*
X3264Y6227D02*
X3268Y6226D01*
X3272Y6226D01*
X3277Y6225D01*
X3282Y6223D01*
X3294Y6220D01*
X3300Y6218D01*
X3306Y6215D01*
X3312Y6211D01*
X3318Y6208D01*
X3324Y6203D01*
X3329Y6198D01*
X3329Y6198D01*
X3330Y6197D01*
X3331Y6196D01*
X3332Y6194D01*
X3336Y6189D01*
X3340Y6183D01*
X3345Y6175D01*
X3348Y6166D01*
X3351Y6155D01*
X3351Y6150D01*
X3351Y6145D01*
Y6144D01*
Y6143D01*
X3351Y6141D01*
X3351Y6138D01*
X3350Y6134D01*
X3349Y6130D01*
X3348Y6125D01*
X3346Y6120D01*
X3343Y6115D01*
X3340Y6110D01*
X3337Y6104D01*
X3332Y6099D01*
X3326Y6093D01*
X3320Y6088D01*
X3314Y6082D01*
X3305Y6077D01*
X3306D01*
X3307Y6077D01*
X3308D01*
X3310Y6076D01*
X3315Y6075D01*
X3321Y6072D01*
X3328Y6068D01*
X3335Y6064D01*
X3343Y6058D01*
X3349Y6051D01*
X3350Y6050D01*
X3352Y6047D01*
X3354Y6043D01*
X3357Y6037D01*
X3361Y6030D01*
X3363Y6021D01*
X3365Y6012D01*
X3366Y6001D01*
Y6001D01*
Y5999D01*
Y5997D01*
X3365Y5994D01*
X3365Y5991D01*
X3364Y5986D01*
X3363Y5981D01*
X3362Y5976D01*
X3358Y5965D01*
X3356Y5959D01*
X3353Y5953D01*
X3349Y5947D01*
X3345Y5941D01*
X3340Y5935D01*
X3335Y5929D01*
X3334Y5929D01*
X3333Y5928D01*
X3332Y5926D01*
X3329Y5924D01*
X3326Y5922D01*
X3323Y5920D01*
X3318Y5917D01*
X3314Y5914D01*
X3308Y5912D01*
X3302Y5909D01*
X3296Y5906D01*
X3290Y5904D01*
X3282Y5902D01*
X3275Y5901D01*
X3266Y5900D01*
X3258Y5900D01*
X3254D01*
X3251Y5900D01*
X3247Y5900D01*
X3243Y5901D01*
X3238Y5902D01*
X3233Y5903D01*
X3222Y5906D01*
X3210Y5910D01*
X3203Y5913D01*
X3198Y5916D01*
X3192Y5920D01*
X3186Y5924D01*
X3186Y5925D01*
X3185Y5926D01*
X3183Y5927D01*
X3181Y5929D01*
X3179Y5931D01*
X3177Y5935D01*
X3174Y5938D01*
X3171Y5942D01*
X3168Y5947D01*
X3165Y5951D01*
X3160Y5962D01*
X3156Y5975D01*
X3154Y5982D01*
X3153Y5990D01*
X3212Y5997D01*
Y5997D01*
Y5996D01*
X3213Y5993D01*
X3214Y5989D01*
X3215Y5984D01*
X3217Y5979D01*
X3220Y5972D01*
X3223Y5967D01*
X3228Y5962D01*
X3228Y5961D01*
X3230Y5960D01*
X3233Y5958D01*
X3236Y5956D01*
X3241Y5954D01*
X3246Y5952D01*
X3251Y5951D01*
X3258Y5950D01*
X3259D01*
X3261Y5951D01*
X3264Y5951D01*
X3269Y5952D01*
X3274Y5954D01*
X3279Y5956D01*
X3284Y5960D01*
X3290Y5965D01*
X3290Y5965D01*
X3292Y5967D01*
X3294Y5971D01*
X3296Y5975D01*
X3299Y5980D01*
X3301Y5987D01*
X3302Y5995D01*
X3303Y6004D01*
Y6004D01*
Y6005D01*
Y6008D01*
X3302Y6012D01*
X3302Y6017D01*
X3300Y6023D01*
X3297Y6029D01*
X3294Y6035D01*
X3290Y6041D01*
X3290Y6041D01*
X3288Y6043D01*
X3285Y6046D01*
X3282Y6048D01*
X3277Y6051D01*
X3272Y6052D01*
X3266Y6054D01*
X3260Y6055D01*
X3255D01*
X3252Y6054D01*
X3248Y6054D01*
X3243Y6053D01*
X3238Y6051D01*
X3232Y6050D01*
X3238Y6100D01*
X3242D01*
X3247Y6100D01*
X3253Y6100D01*
X3259Y6102D01*
X3265Y6104D01*
X3271Y6106D01*
X3277Y6110D01*
X3277Y6111D01*
X3279Y6112D01*
X3281Y6115D01*
X3284Y6118D01*
X3286Y6123D01*
X3288Y6128D01*
X3290Y6134D01*
X3290Y6141D01*
Y6142D01*
Y6143D01*
X3290Y6146D01*
X3289Y6150D01*
X3288Y6154D01*
X3286Y6158D01*
X3284Y6163D01*
X3280Y6167D01*
X3280Y6167D01*
X3278Y6168D01*
X3277Y6170D01*
X3273Y6172D01*
X3270Y6173D01*
X3266Y6175D01*
X3260Y6176D01*
X3254Y6176D01*
X3252D01*
X3249Y6176D01*
X3245Y6175D01*
X3241Y6173D01*
X3236Y6172D01*
X3232Y6169D01*
X3228Y6165D01*
X3227Y6165D01*
X3226Y6163D01*
X3224Y6161D01*
X3222Y6157D01*
X3219Y6153D01*
X3217Y6147D01*
X3216Y6141D01*
X3214Y6133D01*
X3158Y6143D01*
Y6143D01*
X3158Y6144D01*
Y6145D01*
X3159Y6148D01*
X3160Y6153D01*
X3162Y6160D01*
X3165Y6167D01*
X3168Y6175D01*
X3171Y6182D01*
X3175Y6189D01*
X3176Y6190D01*
X3178Y6192D01*
X3180Y6195D01*
X3184Y6199D01*
X3189Y6204D01*
X3194Y6208D01*
X3201Y6213D01*
X3209Y6217D01*
X3209D01*
X3210Y6217D01*
X3212Y6218D01*
X3217Y6220D01*
X3223Y6222D01*
X3229Y6224D01*
X3238Y6226D01*
X3247Y6227D01*
X3256Y6227D01*
X3260D01*
X3264Y6227D01*
D02*
G37*
G36*
X-4661Y-4528D02*
X-4722D01*
Y-4296D01*
X-4723Y-4297D01*
X-4724Y-4297D01*
X-4725Y-4299D01*
X-4728Y-4301D01*
X-4731Y-4304D01*
X-4735Y-4307D01*
X-4740Y-4310D01*
X-4745Y-4314D01*
X-4750Y-4317D01*
X-4756Y-4321D01*
X-4763Y-4325D01*
X-4770Y-4329D01*
X-4785Y-4336D01*
X-4801Y-4342D01*
Y-4287D01*
X-4801D01*
X-4800Y-4286D01*
X-4799Y-4286D01*
X-4797Y-4285D01*
X-4792Y-4283D01*
X-4786Y-4280D01*
X-4778Y-4277D01*
X-4769Y-4272D01*
X-4760Y-4265D01*
X-4750Y-4258D01*
X-4749Y-4257D01*
X-4748Y-4257D01*
X-4747Y-4255D01*
X-4745Y-4254D01*
X-4740Y-4249D01*
X-4734Y-4243D01*
X-4728Y-4236D01*
X-4721Y-4226D01*
X-4715Y-4217D01*
X-4711Y-4206D01*
X-4661D01*
Y-4528D01*
D02*
G37*
G36*
X-5099D02*
X-5169D01*
X-5283Y-4208D01*
X-5213D01*
X-5132Y-4444D01*
X-5054Y-4208D01*
X-4985D01*
X-5099Y-4528D01*
D02*
G37*
G36*
X-5311Y-4269D02*
X-5427D01*
X-5436Y-4324D01*
X-5436D01*
X-5436Y-4323D01*
X-5433Y-4322D01*
X-5429Y-4321D01*
X-5424Y-4318D01*
X-5417Y-4316D01*
X-5410Y-4315D01*
X-5402Y-4314D01*
X-5394Y-4313D01*
X-5390D01*
X-5388Y-4314D01*
X-5384Y-4314D01*
X-5380Y-4315D01*
X-5376Y-4315D01*
X-5370Y-4317D01*
X-5360Y-4321D01*
X-5354Y-4323D01*
X-5348Y-4326D01*
X-5342Y-4329D01*
X-5336Y-4334D01*
X-5331Y-4338D01*
X-5325Y-4343D01*
X-5325Y-4344D01*
X-5324Y-4345D01*
X-5322Y-4346D01*
X-5321Y-4349D01*
X-5319Y-4352D01*
X-5316Y-4355D01*
X-5314Y-4359D01*
X-5311Y-4364D01*
X-5308Y-4369D01*
X-5306Y-4375D01*
X-5303Y-4382D01*
X-5301Y-4388D01*
X-5299Y-4395D01*
X-5298Y-4403D01*
X-5297Y-4412D01*
X-5297Y-4420D01*
Y-4421D01*
Y-4422D01*
Y-4424D01*
X-5297Y-4427D01*
Y-4431D01*
X-5298Y-4435D01*
X-5298Y-4439D01*
X-5299Y-4444D01*
X-5302Y-4455D01*
X-5306Y-4467D01*
X-5309Y-4474D01*
X-5312Y-4480D01*
X-5315Y-4486D01*
X-5320Y-4492D01*
X-5320Y-4492D01*
X-5321Y-4493D01*
X-5323Y-4495D01*
X-5325Y-4498D01*
X-5328Y-4501D01*
X-5333Y-4505D01*
X-5337Y-4509D01*
X-5342Y-4512D01*
X-5348Y-4516D01*
X-5355Y-4520D01*
X-5362Y-4524D01*
X-5370Y-4527D01*
X-5378Y-4530D01*
X-5387Y-4532D01*
X-5396Y-4533D01*
X-5406Y-4534D01*
X-5411D01*
X-5414Y-4533D01*
X-5418Y-4533D01*
X-5422Y-4532D01*
X-5427Y-4532D01*
X-5432Y-4531D01*
X-5443Y-4528D01*
X-5456Y-4523D01*
X-5462Y-4521D01*
X-5468Y-4518D01*
X-5473Y-4514D01*
X-5479Y-4510D01*
X-5479Y-4510D01*
X-5480Y-4509D01*
X-5482Y-4508D01*
X-5484Y-4506D01*
X-5485Y-4503D01*
X-5488Y-4500D01*
X-5491Y-4497D01*
X-5493Y-4493D01*
X-5497Y-4489D01*
X-5499Y-4484D01*
X-5504Y-4473D01*
X-5509Y-4461D01*
X-5510Y-4454D01*
X-5512Y-4446D01*
X-5451Y-4440D01*
Y-4441D01*
X-5450Y-4443D01*
X-5449Y-4447D01*
X-5448Y-4452D01*
X-5446Y-4457D01*
X-5443Y-4462D01*
X-5440Y-4467D01*
X-5436Y-4473D01*
X-5435Y-4473D01*
X-5433Y-4474D01*
X-5430Y-4476D01*
X-5427Y-4479D01*
X-5423Y-4481D01*
X-5418Y-4483D01*
X-5412Y-4484D01*
X-5406Y-4485D01*
X-5405D01*
X-5402Y-4484D01*
X-5399Y-4484D01*
X-5394Y-4483D01*
X-5389Y-4481D01*
X-5383Y-4478D01*
X-5378Y-4474D01*
X-5373Y-4469D01*
X-5372Y-4468D01*
X-5370Y-4466D01*
X-5369Y-4462D01*
X-5366Y-4457D01*
X-5364Y-4450D01*
X-5361Y-4443D01*
X-5360Y-4433D01*
X-5359Y-4422D01*
Y-4421D01*
Y-4420D01*
Y-4419D01*
Y-4417D01*
X-5360Y-4412D01*
X-5361Y-4405D01*
X-5363Y-4398D01*
X-5365Y-4390D01*
X-5368Y-4383D01*
X-5373Y-4377D01*
X-5373Y-4377D01*
X-5375Y-4375D01*
X-5378Y-4373D01*
X-5382Y-4370D01*
X-5387Y-4367D01*
X-5393Y-4364D01*
X-5400Y-4363D01*
X-5407Y-4362D01*
X-5410D01*
X-5412Y-4363D01*
X-5417Y-4364D01*
X-5423Y-4365D01*
X-5430Y-4368D01*
X-5438Y-4372D01*
X-5443Y-4375D01*
X-5447Y-4378D01*
X-5451Y-4382D01*
X-5455Y-4386D01*
X-5504Y-4379D01*
X-5473Y-4212D01*
X-5311D01*
Y-4269D01*
D02*
G37*
G36*
X-5887Y5045D02*
X-5883Y5045D01*
X-5878Y5044D01*
X-5874Y5043D01*
X-5868Y5042D01*
X-5862Y5040D01*
X-5857Y5038D01*
X-5851Y5035D01*
X-5845Y5032D01*
X-5839Y5028D01*
X-5833Y5024D01*
X-5827Y5019D01*
X-5822Y5013D01*
X-5821Y5012D01*
X-5821Y5011D01*
X-5819Y5009D01*
X-5817Y5005D01*
X-5815Y5001D01*
X-5812Y4995D01*
X-5809Y4989D01*
X-5806Y4981D01*
X-5803Y4973D01*
X-5800Y4963D01*
X-5798Y4953D01*
X-5796Y4941D01*
X-5793Y4928D01*
X-5792Y4914D01*
X-5791Y4899D01*
X-5791Y4882D01*
Y4881D01*
Y4881D01*
Y4880D01*
Y4878D01*
Y4873D01*
X-5791Y4867D01*
X-5791Y4860D01*
X-5792Y4851D01*
X-5793Y4842D01*
X-5794Y4832D01*
X-5796Y4821D01*
X-5798Y4810D01*
X-5801Y4799D01*
X-5804Y4789D01*
X-5807Y4778D01*
X-5812Y4768D01*
X-5816Y4759D01*
X-5822Y4751D01*
X-5822Y4751D01*
X-5823Y4750D01*
X-5825Y4748D01*
X-5827Y4746D01*
X-5829Y4744D01*
X-5833Y4741D01*
X-5837Y4738D01*
X-5841Y4735D01*
X-5846Y4732D01*
X-5851Y4729D01*
X-5857Y4726D01*
X-5864Y4723D01*
X-5870Y4722D01*
X-5878Y4720D01*
X-5886Y4719D01*
X-5895Y4718D01*
X-5896D01*
X-5899Y4719D01*
X-5902D01*
X-5906Y4719D01*
X-5911Y4720D01*
X-5916Y4721D01*
X-5921Y4723D01*
X-5927Y4725D01*
X-5933Y4727D01*
X-5940Y4730D01*
X-5946Y4734D01*
X-5952Y4737D01*
X-5958Y4742D01*
X-5964Y4748D01*
X-5970Y4754D01*
X-5970Y4754D01*
X-5971Y4756D01*
X-5973Y4758D01*
X-5974Y4761D01*
X-5976Y4765D01*
X-5979Y4770D01*
X-5981Y4777D01*
X-5984Y4784D01*
X-5986Y4792D01*
X-5989Y4801D01*
X-5992Y4812D01*
X-5993Y4823D01*
X-5995Y4836D01*
X-5997Y4851D01*
X-5998Y4866D01*
X-5998Y4882D01*
Y4883D01*
Y4883D01*
Y4885D01*
Y4887D01*
Y4891D01*
X-5998Y4897D01*
X-5997Y4905D01*
X-5996Y4913D01*
X-5995Y4923D01*
X-5994Y4933D01*
X-5992Y4943D01*
X-5991Y4954D01*
X-5988Y4965D01*
X-5985Y4976D01*
X-5981Y4986D01*
X-5977Y4996D01*
X-5973Y5005D01*
X-5967Y5013D01*
X-5967Y5013D01*
X-5966Y5014D01*
X-5964Y5016D01*
X-5962Y5018D01*
X-5960Y5021D01*
X-5956Y5023D01*
X-5952Y5026D01*
X-5948Y5029D01*
X-5943Y5033D01*
X-5938Y5035D01*
X-5932Y5038D01*
X-5925Y5041D01*
X-5919Y5043D01*
X-5911Y5045D01*
X-5903Y5045D01*
X-5895Y5046D01*
X-5890D01*
X-5887Y5045D01*
D02*
G37*
G36*
X-3307Y5345D02*
X-3302Y5344D01*
X-3296Y5344D01*
X-3290Y5343D01*
X-3283Y5342D01*
X-3268Y5339D01*
X-3261Y5337D01*
X-3253Y5334D01*
X-3246Y5331D01*
X-3239Y5327D01*
X-3232Y5323D01*
X-3226Y5319D01*
X-3226Y5318D01*
X-3225Y5317D01*
X-3224Y5316D01*
X-3222Y5314D01*
X-3219Y5311D01*
X-3217Y5308D01*
X-3214Y5304D01*
X-3211Y5300D01*
X-3208Y5295D01*
X-3205Y5290D01*
X-3202Y5284D01*
X-3200Y5277D01*
X-3198Y5271D01*
X-3196Y5264D01*
X-3194Y5256D01*
X-3194Y5248D01*
X-3259Y5246D01*
Y5246D01*
Y5247D01*
X-3260Y5250D01*
X-3261Y5254D01*
X-3262Y5259D01*
X-3265Y5265D01*
X-3268Y5271D01*
X-3272Y5276D01*
X-3277Y5281D01*
X-3277Y5281D01*
X-3279Y5283D01*
X-3282Y5284D01*
X-3287Y5286D01*
X-3292Y5288D01*
X-3299Y5290D01*
X-3308Y5291D01*
X-3317Y5292D01*
X-3322D01*
X-3327Y5291D01*
X-3333Y5290D01*
X-3340Y5289D01*
X-3347Y5287D01*
X-3354Y5284D01*
X-3361Y5280D01*
X-3361Y5279D01*
X-3362Y5278D01*
X-3364Y5277D01*
X-3366Y5275D01*
X-3368Y5272D01*
X-3370Y5268D01*
X-3370Y5265D01*
X-3371Y5260D01*
Y5259D01*
Y5258D01*
X-3370Y5256D01*
X-3370Y5253D01*
X-3369Y5250D01*
X-3367Y5247D01*
X-3365Y5244D01*
X-3362Y5241D01*
X-3361Y5240D01*
X-3359Y5239D01*
X-3358Y5238D01*
X-3355Y5237D01*
X-3353Y5235D01*
X-3350Y5234D01*
X-3346Y5233D01*
X-3342Y5231D01*
X-3337Y5229D01*
X-3332Y5227D01*
X-3325Y5225D01*
X-3318Y5223D01*
X-3311Y5222D01*
X-3303Y5219D01*
X-3302D01*
X-3300Y5219D01*
X-3298Y5218D01*
X-3295Y5217D01*
X-3291Y5217D01*
X-3286Y5215D01*
X-3281Y5214D01*
X-3276Y5212D01*
X-3265Y5209D01*
X-3254Y5205D01*
X-3243Y5201D01*
X-3238Y5198D01*
X-3233Y5196D01*
X-3233D01*
X-3232Y5196D01*
X-3230Y5194D01*
X-3225Y5191D01*
X-3220Y5187D01*
X-3215Y5183D01*
X-3209Y5177D01*
X-3203Y5171D01*
X-3198Y5163D01*
X-3197Y5162D01*
X-3196Y5160D01*
X-3194Y5156D01*
X-3191Y5150D01*
X-3189Y5142D01*
X-3187Y5133D01*
X-3185Y5124D01*
X-3185Y5113D01*
Y5112D01*
Y5111D01*
Y5110D01*
Y5108D01*
X-3185Y5106D01*
X-3186Y5102D01*
X-3187Y5096D01*
X-3188Y5088D01*
X-3191Y5079D01*
X-3195Y5070D01*
X-3200Y5061D01*
Y5060D01*
X-3201Y5060D01*
X-3203Y5057D01*
X-3207Y5052D01*
X-3212Y5047D01*
X-3218Y5041D01*
X-3225Y5036D01*
X-3234Y5030D01*
X-3244Y5025D01*
X-3244D01*
X-3245Y5025D01*
X-3247Y5024D01*
X-3249Y5023D01*
X-3252Y5022D01*
X-3255Y5022D01*
X-3259Y5021D01*
X-3263Y5020D01*
X-3268Y5018D01*
X-3273Y5017D01*
X-3285Y5016D01*
X-3298Y5014D01*
X-3313Y5014D01*
X-3319D01*
X-3323Y5014D01*
X-3328Y5015D01*
X-3334Y5015D01*
X-3340Y5016D01*
X-3347Y5017D01*
X-3363Y5021D01*
X-3370Y5023D01*
X-3378Y5025D01*
X-3386Y5028D01*
X-3393Y5032D01*
X-3400Y5036D01*
X-3407Y5041D01*
X-3407Y5042D01*
X-3408Y5043D01*
X-3410Y5044D01*
X-3412Y5046D01*
X-3414Y5050D01*
X-3417Y5053D01*
X-3420Y5058D01*
X-3424Y5062D01*
X-3427Y5068D01*
X-3430Y5074D01*
X-3433Y5081D01*
X-3437Y5088D01*
X-3439Y5096D01*
X-3442Y5105D01*
X-3444Y5114D01*
X-3445Y5124D01*
X-3382Y5130D01*
Y5129D01*
X-3382Y5128D01*
Y5126D01*
X-3381Y5125D01*
X-3379Y5119D01*
X-3377Y5112D01*
X-3374Y5104D01*
X-3370Y5096D01*
X-3365Y5089D01*
X-3359Y5083D01*
X-3358Y5083D01*
X-3356Y5081D01*
X-3352Y5078D01*
X-3347Y5076D01*
X-3340Y5073D01*
X-3332Y5070D01*
X-3323Y5069D01*
X-3312Y5068D01*
X-3307D01*
X-3302Y5069D01*
X-3295Y5070D01*
X-3287Y5071D01*
X-3279Y5074D01*
X-3272Y5077D01*
X-3266Y5081D01*
X-3265Y5082D01*
X-3263Y5083D01*
X-3261Y5086D01*
X-3257Y5090D01*
X-3255Y5095D01*
X-3252Y5100D01*
X-3250Y5106D01*
X-3249Y5112D01*
Y5113D01*
Y5114D01*
X-3250Y5116D01*
X-3250Y5119D01*
X-3251Y5122D01*
X-3252Y5125D01*
X-3254Y5128D01*
X-3256Y5131D01*
X-3257Y5132D01*
X-3258Y5133D01*
X-3259Y5134D01*
X-3261Y5136D01*
X-3265Y5138D01*
X-3269Y5141D01*
X-3273Y5143D01*
X-3279Y5145D01*
X-3280D01*
X-3282Y5146D01*
X-3285Y5147D01*
X-3287Y5148D01*
X-3290Y5149D01*
X-3293Y5150D01*
X-3297Y5151D01*
X-3301Y5152D01*
X-3306Y5153D01*
X-3311Y5155D01*
X-3317Y5156D01*
X-3324Y5158D01*
X-3331Y5160D01*
X-3332D01*
X-3334Y5160D01*
X-3336Y5161D01*
X-3340Y5162D01*
X-3344Y5163D01*
X-3349Y5165D01*
X-3354Y5167D01*
X-3360Y5168D01*
X-3372Y5173D01*
X-3383Y5179D01*
X-3389Y5181D01*
X-3395Y5185D01*
X-3400Y5188D01*
X-3404Y5191D01*
X-3404Y5192D01*
X-3405Y5192D01*
X-3407Y5194D01*
X-3408Y5196D01*
X-3411Y5198D01*
X-3413Y5202D01*
X-3416Y5205D01*
X-3418Y5209D01*
X-3424Y5219D01*
X-3428Y5230D01*
X-3430Y5236D01*
X-3431Y5242D01*
X-3432Y5249D01*
X-3433Y5256D01*
Y5256D01*
Y5257D01*
Y5258D01*
Y5260D01*
X-3432Y5265D01*
X-3431Y5271D01*
X-3430Y5277D01*
X-3427Y5285D01*
X-3424Y5294D01*
X-3419Y5301D01*
Y5302D01*
X-3419Y5302D01*
X-3417Y5305D01*
X-3414Y5309D01*
X-3409Y5314D01*
X-3404Y5319D01*
X-3397Y5324D01*
X-3389Y5329D01*
X-3380Y5334D01*
X-3379D01*
X-3378Y5334D01*
X-3377Y5335D01*
X-3375Y5336D01*
X-3372Y5337D01*
X-3370Y5338D01*
X-3366Y5338D01*
X-3362Y5340D01*
X-3352Y5342D01*
X-3342Y5344D01*
X-3330Y5345D01*
X-3316Y5345D01*
X-3311D01*
X-3307Y5345D01*
D02*
G37*
G36*
X-6161Y5050D02*
X-6156Y5049D01*
X-6150Y5049D01*
X-6144Y5048D01*
X-6137Y5047D01*
X-6122Y5044D01*
X-6115Y5041D01*
X-6107Y5039D01*
X-6100Y5036D01*
X-6093Y5032D01*
X-6087Y5028D01*
X-6081Y5023D01*
X-6080Y5023D01*
X-6079Y5022D01*
X-6078Y5021D01*
X-6076Y5019D01*
X-6074Y5016D01*
X-6071Y5013D01*
X-6068Y5009D01*
X-6065Y5005D01*
X-6062Y5000D01*
X-6059Y4995D01*
X-6057Y4989D01*
X-6054Y4982D01*
X-6052Y4976D01*
X-6050Y4968D01*
X-6049Y4961D01*
X-6048Y4953D01*
X-6113Y4950D01*
Y4951D01*
Y4951D01*
X-6114Y4954D01*
X-6115Y4959D01*
X-6117Y4964D01*
X-6119Y4970D01*
X-6122Y4975D01*
X-6126Y4981D01*
X-6131Y4985D01*
X-6132Y4986D01*
X-6133Y4987D01*
X-6137Y4989D01*
X-6141Y4991D01*
X-6147Y4993D01*
X-6154Y4995D01*
X-6162Y4996D01*
X-6172Y4997D01*
X-6176D01*
X-6181Y4996D01*
X-6187Y4995D01*
X-6194Y4994D01*
X-6202Y4991D01*
X-6209Y4989D01*
X-6215Y4985D01*
X-6216Y4984D01*
X-6217Y4983D01*
X-6218Y4982D01*
X-6220Y4979D01*
X-6222Y4977D01*
X-6224Y4973D01*
X-6225Y4969D01*
X-6225Y4965D01*
Y4964D01*
Y4963D01*
X-6225Y4960D01*
X-6224Y4958D01*
X-6223Y4955D01*
X-6222Y4952D01*
X-6219Y4948D01*
X-6216Y4945D01*
X-6216Y4945D01*
X-6213Y4943D01*
X-6212Y4942D01*
X-6210Y4942D01*
X-6207Y4940D01*
X-6204Y4939D01*
X-6200Y4937D01*
X-6196Y4936D01*
X-6191Y4934D01*
X-6186Y4932D01*
X-6180Y4930D01*
X-6173Y4928D01*
X-6165Y4926D01*
X-6157Y4924D01*
X-6156D01*
X-6155Y4924D01*
X-6152Y4923D01*
X-6149Y4922D01*
X-6145Y4921D01*
X-6141Y4920D01*
X-6136Y4918D01*
X-6131Y4917D01*
X-6119Y4913D01*
X-6108Y4910D01*
X-6097Y4906D01*
X-6092Y4903D01*
X-6088Y4901D01*
X-6087D01*
X-6087Y4900D01*
X-6084Y4899D01*
X-6080Y4896D01*
X-6075Y4892D01*
X-6069Y4888D01*
X-6063Y4882D01*
X-6057Y4875D01*
X-6052Y4868D01*
X-6052Y4867D01*
X-6050Y4864D01*
X-6048Y4860D01*
X-6046Y4854D01*
X-6043Y4847D01*
X-6041Y4838D01*
X-6040Y4828D01*
X-6039Y4817D01*
Y4817D01*
Y4816D01*
Y4814D01*
Y4813D01*
X-6040Y4810D01*
X-6040Y4807D01*
X-6041Y4801D01*
X-6043Y4792D01*
X-6046Y4784D01*
X-6050Y4775D01*
X-6055Y4766D01*
Y4765D01*
X-6056Y4765D01*
X-6058Y4762D01*
X-6061Y4757D01*
X-6066Y4752D01*
X-6072Y4746D01*
X-6080Y4741D01*
X-6088Y4735D01*
X-6098Y4730D01*
X-6099D01*
X-6100Y4729D01*
X-6101Y4729D01*
X-6103Y4728D01*
X-6106Y4727D01*
X-6109Y4726D01*
X-6113Y4725D01*
X-6117Y4724D01*
X-6122Y4723D01*
X-6127Y4722D01*
X-6139Y4720D01*
X-6153Y4719D01*
X-6168Y4718D01*
X-6174D01*
X-6178Y4719D01*
X-6183Y4719D01*
X-6188Y4720D01*
X-6195Y4721D01*
X-6202Y4722D01*
X-6217Y4725D01*
X-6225Y4728D01*
X-6232Y4730D01*
X-6240Y4733D01*
X-6247Y4737D01*
X-6254Y4741D01*
X-6261Y4746D01*
X-6261Y4747D01*
X-6262Y4748D01*
X-6264Y4749D01*
X-6266Y4751D01*
X-6269Y4754D01*
X-6271Y4758D01*
X-6275Y4762D01*
X-6278Y4767D01*
X-6281Y4772D01*
X-6284Y4778D01*
X-6288Y4785D01*
X-6291Y4793D01*
X-6293Y4801D01*
X-6296Y4809D01*
X-6298Y4819D01*
X-6299Y4828D01*
X-6236Y4834D01*
Y4834D01*
X-6236Y4833D01*
Y4831D01*
X-6235Y4829D01*
X-6234Y4824D01*
X-6231Y4817D01*
X-6229Y4809D01*
X-6224Y4801D01*
X-6220Y4794D01*
X-6214Y4788D01*
X-6213Y4787D01*
X-6211Y4785D01*
X-6207Y4783D01*
X-6201Y4780D01*
X-6194Y4778D01*
X-6186Y4775D01*
X-6177Y4773D01*
X-6167Y4773D01*
X-6162D01*
X-6156Y4774D01*
X-6149Y4775D01*
X-6142Y4776D01*
X-6134Y4778D01*
X-6126Y4782D01*
X-6120Y4786D01*
X-6119Y4786D01*
X-6117Y4788D01*
X-6115Y4791D01*
X-6112Y4795D01*
X-6109Y4799D01*
X-6106Y4805D01*
X-6104Y4810D01*
X-6104Y4817D01*
Y4817D01*
Y4819D01*
X-6104Y4821D01*
X-6105Y4824D01*
X-6106Y4827D01*
X-6107Y4830D01*
X-6108Y4833D01*
X-6111Y4836D01*
X-6111Y4837D01*
X-6112Y4838D01*
X-6113Y4839D01*
X-6116Y4841D01*
X-6119Y4843D01*
X-6123Y4845D01*
X-6128Y4848D01*
X-6134Y4850D01*
X-6134D01*
X-6136Y4851D01*
X-6139Y4852D01*
X-6142Y4853D01*
X-6144Y4853D01*
X-6148Y4854D01*
X-6151Y4856D01*
X-6156Y4857D01*
X-6160Y4858D01*
X-6166Y4859D01*
X-6172Y4861D01*
X-6178Y4863D01*
X-6186Y4864D01*
X-6186D01*
X-6188Y4865D01*
X-6191Y4866D01*
X-6194Y4867D01*
X-6198Y4868D01*
X-6203Y4869D01*
X-6208Y4871D01*
X-6214Y4873D01*
X-6226Y4878D01*
X-6238Y4883D01*
X-6244Y4886D01*
X-6249Y4889D01*
X-6254Y4893D01*
X-6258Y4896D01*
X-6259Y4896D01*
X-6259Y4897D01*
X-6261Y4899D01*
X-6263Y4900D01*
X-6265Y4903D01*
X-6267Y4906D01*
X-6270Y4910D01*
X-6272Y4914D01*
X-6278Y4924D01*
X-6283Y4935D01*
X-6284Y4941D01*
X-6286Y4947D01*
X-6287Y4954D01*
X-6287Y4960D01*
Y4961D01*
Y4961D01*
Y4963D01*
Y4965D01*
X-6286Y4969D01*
X-6285Y4975D01*
X-6284Y4982D01*
X-6282Y4990D01*
X-6278Y4998D01*
X-6274Y5006D01*
Y5007D01*
X-6273Y5007D01*
X-6271Y5010D01*
X-6268Y5014D01*
X-6264Y5018D01*
X-6258Y5023D01*
X-6251Y5029D01*
X-6243Y5034D01*
X-6234Y5039D01*
X-6234D01*
X-6233Y5039D01*
X-6231Y5039D01*
X-6229Y5040D01*
X-6227Y5041D01*
X-6224Y5042D01*
X-6220Y5043D01*
X-6216Y5045D01*
X-6207Y5046D01*
X-6196Y5048D01*
X-6184Y5050D01*
X-6171Y5050D01*
X-6165D01*
X-6161Y5050D01*
D02*
G37*
G36*
X5748Y4853D02*
X5753Y4852D01*
X5759Y4852D01*
X5765Y4851D01*
X5772Y4850D01*
X5787Y4847D01*
X5795Y4844D01*
X5802Y4842D01*
X5809Y4839D01*
X5816Y4835D01*
X5823Y4831D01*
X5829Y4826D01*
X5829Y4826D01*
X5830Y4825D01*
X5832Y4824D01*
X5833Y4822D01*
X5836Y4819D01*
X5838Y4816D01*
X5841Y4812D01*
X5844Y4808D01*
X5847Y4803D01*
X5850Y4798D01*
X5853Y4792D01*
X5855Y4785D01*
X5857Y4779D01*
X5859Y4771D01*
X5861Y4764D01*
X5861Y4756D01*
X5796Y4753D01*
Y4754D01*
Y4754D01*
X5796Y4758D01*
X5795Y4762D01*
X5793Y4767D01*
X5790Y4773D01*
X5787Y4778D01*
X5783Y4784D01*
X5778Y4789D01*
X5778Y4789D01*
X5776Y4790D01*
X5773Y4792D01*
X5768Y4794D01*
X5763Y4796D01*
X5756Y4798D01*
X5747Y4799D01*
X5738Y4800D01*
X5733D01*
X5728Y4799D01*
X5722Y4798D01*
X5715Y4797D01*
X5708Y4795D01*
X5701Y4792D01*
X5694Y4788D01*
X5694Y4787D01*
X5693Y4786D01*
X5691Y4785D01*
X5689Y4783D01*
X5687Y4780D01*
X5686Y4776D01*
X5685Y4772D01*
X5684Y4768D01*
Y4767D01*
Y4766D01*
X5685Y4764D01*
X5686Y4761D01*
X5686Y4758D01*
X5688Y4755D01*
X5690Y4752D01*
X5693Y4748D01*
X5694Y4748D01*
X5696Y4747D01*
X5698Y4746D01*
X5700Y4745D01*
X5702Y4743D01*
X5705Y4742D01*
X5709Y4741D01*
X5713Y4739D01*
X5718Y4737D01*
X5723Y4735D01*
X5730Y4733D01*
X5737Y4731D01*
X5744Y4729D01*
X5753Y4727D01*
X5753D01*
X5755Y4727D01*
X5757Y4726D01*
X5760Y4725D01*
X5764Y4724D01*
X5769Y4723D01*
X5774Y4722D01*
X5779Y4720D01*
X5790Y4717D01*
X5802Y4713D01*
X5813Y4709D01*
X5817Y4706D01*
X5822Y4704D01*
X5822D01*
X5823Y4704D01*
X5826Y4702D01*
X5830Y4699D01*
X5835Y4695D01*
X5840Y4691D01*
X5846Y4685D01*
X5852Y4679D01*
X5857Y4671D01*
X5858Y4670D01*
X5859Y4668D01*
X5862Y4663D01*
X5864Y4657D01*
X5866Y4650D01*
X5868Y4641D01*
X5870Y4632D01*
X5870Y4620D01*
Y4620D01*
Y4619D01*
Y4618D01*
Y4616D01*
X5870Y4613D01*
X5869Y4610D01*
X5868Y4604D01*
X5867Y4595D01*
X5864Y4587D01*
X5860Y4578D01*
X5855Y4569D01*
Y4568D01*
X5854Y4568D01*
X5852Y4565D01*
X5848Y4560D01*
X5844Y4555D01*
X5838Y4549D01*
X5830Y4544D01*
X5821Y4538D01*
X5811Y4533D01*
X5811D01*
X5810Y4533D01*
X5808Y4532D01*
X5806Y4531D01*
X5803Y4530D01*
X5800Y4529D01*
X5796Y4528D01*
X5792Y4528D01*
X5787Y4526D01*
X5782Y4525D01*
X5770Y4523D01*
X5757Y4522D01*
X5742Y4522D01*
X5736D01*
X5732Y4522D01*
X5727Y4522D01*
X5721Y4523D01*
X5715Y4524D01*
X5708Y4525D01*
X5692Y4528D01*
X5685Y4531D01*
X5677Y4533D01*
X5669Y4536D01*
X5662Y4540D01*
X5655Y4544D01*
X5649Y4549D01*
X5648Y4550D01*
X5647Y4551D01*
X5645Y4552D01*
X5644Y4554D01*
X5641Y4558D01*
X5638Y4561D01*
X5635Y4565D01*
X5631Y4570D01*
X5628Y4576D01*
X5625Y4582D01*
X5622Y4589D01*
X5619Y4596D01*
X5616Y4604D01*
X5613Y4613D01*
X5612Y4622D01*
X5610Y4632D01*
X5673Y4638D01*
Y4637D01*
X5674Y4636D01*
Y4634D01*
X5674Y4632D01*
X5676Y4627D01*
X5678Y4620D01*
X5681Y4612D01*
X5685Y4604D01*
X5690Y4597D01*
X5696Y4591D01*
X5697Y4590D01*
X5699Y4589D01*
X5703Y4586D01*
X5708Y4583D01*
X5715Y4581D01*
X5723Y4578D01*
X5732Y4577D01*
X5743Y4576D01*
X5748D01*
X5753Y4577D01*
X5760Y4578D01*
X5768Y4579D01*
X5776Y4582D01*
X5783Y4585D01*
X5789Y4589D01*
X5790Y4589D01*
X5792Y4591D01*
X5795Y4594D01*
X5798Y4598D01*
X5801Y4602D01*
X5803Y4608D01*
X5805Y4613D01*
X5806Y4620D01*
Y4620D01*
Y4622D01*
X5805Y4624D01*
X5805Y4627D01*
X5804Y4630D01*
X5803Y4633D01*
X5801Y4636D01*
X5799Y4639D01*
X5798Y4640D01*
X5797Y4641D01*
X5796Y4642D01*
X5794Y4644D01*
X5790Y4646D01*
X5786Y4649D01*
X5782Y4651D01*
X5776Y4653D01*
X5775D01*
X5773Y4654D01*
X5770Y4655D01*
X5768Y4656D01*
X5765Y4656D01*
X5762Y4657D01*
X5758Y4659D01*
X5754Y4660D01*
X5749Y4661D01*
X5744Y4662D01*
X5738Y4664D01*
X5731Y4666D01*
X5724Y4668D01*
X5723D01*
X5722Y4668D01*
X5719Y4669D01*
X5716Y4670D01*
X5711Y4671D01*
X5706Y4673D01*
X5701Y4674D01*
X5695Y4676D01*
X5683Y4681D01*
X5672Y4686D01*
X5666Y4689D01*
X5661Y4692D01*
X5656Y4696D01*
X5651Y4699D01*
X5651Y4699D01*
X5650Y4700D01*
X5649Y4702D01*
X5647Y4704D01*
X5644Y4706D01*
X5642Y4710D01*
X5639Y4713D01*
X5637Y4717D01*
X5631Y4727D01*
X5627Y4738D01*
X5625Y4744D01*
X5624Y4750D01*
X5623Y4757D01*
X5622Y4764D01*
Y4764D01*
Y4765D01*
Y4766D01*
Y4768D01*
X5623Y4772D01*
X5624Y4778D01*
X5625Y4785D01*
X5628Y4793D01*
X5631Y4802D01*
X5636Y4809D01*
Y4810D01*
X5636Y4810D01*
X5638Y4813D01*
X5641Y4817D01*
X5646Y4821D01*
X5651Y4826D01*
X5658Y4832D01*
X5666Y4837D01*
X5675Y4842D01*
X5676D01*
X5677Y4842D01*
X5678Y4843D01*
X5680Y4844D01*
X5683Y4844D01*
X5686Y4845D01*
X5689Y4846D01*
X5693Y4848D01*
X5703Y4850D01*
X5713Y4851D01*
X5725Y4853D01*
X5739Y4853D01*
X5744D01*
X5748Y4853D01*
D02*
G37*
G36*
X6025Y4849D02*
X6029Y4848D01*
X6033Y4848D01*
X6039Y4847D01*
X6044Y4846D01*
X6056Y4843D01*
X6068Y4838D01*
X6075Y4835D01*
X6080Y4832D01*
X6086Y4828D01*
X6091Y4823D01*
X6092Y4823D01*
X6093Y4822D01*
X6093Y4820D01*
X6095Y4819D01*
X6098Y4816D01*
X6100Y4813D01*
X6102Y4810D01*
X6105Y4806D01*
X6110Y4796D01*
X6114Y4786D01*
X6116Y4780D01*
X6117Y4773D01*
X6118Y4766D01*
X6118Y4759D01*
Y4759D01*
Y4756D01*
X6118Y4752D01*
X6118Y4747D01*
X6117Y4740D01*
X6115Y4733D01*
X6113Y4726D01*
X6111Y4718D01*
X6110Y4717D01*
X6109Y4715D01*
X6107Y4711D01*
X6105Y4706D01*
X6101Y4700D01*
X6097Y4693D01*
X6092Y4686D01*
X6086Y4678D01*
X6086Y4677D01*
X6084Y4675D01*
X6081Y4672D01*
X6077Y4667D01*
X6071Y4662D01*
X6064Y4654D01*
X6056Y4646D01*
X6046Y4637D01*
X6045Y4636D01*
X6045Y4636D01*
X6043Y4634D01*
X6041Y4632D01*
X6036Y4628D01*
X6030Y4622D01*
X6024Y4616D01*
X6018Y4610D01*
X6013Y4605D01*
X6011Y4603D01*
X6009Y4601D01*
X6008Y4601D01*
X6008Y4600D01*
X6006Y4598D01*
X6004Y4595D01*
X6000Y4590D01*
X5996Y4584D01*
X6118D01*
Y4528D01*
X5904D01*
Y4528D01*
Y4529D01*
X5904Y4531D01*
X5905Y4533D01*
X5905Y4536D01*
X5905Y4539D01*
X5907Y4547D01*
X5910Y4557D01*
X5914Y4567D01*
X5918Y4578D01*
X5924Y4589D01*
Y4589D01*
X5925Y4590D01*
X5926Y4592D01*
X5928Y4594D01*
X5930Y4597D01*
X5933Y4600D01*
X5936Y4604D01*
X5940Y4609D01*
X5944Y4614D01*
X5949Y4620D01*
X5954Y4626D01*
X5961Y4633D01*
X5968Y4640D01*
X5976Y4648D01*
X5984Y4656D01*
X5993Y4665D01*
X5994Y4666D01*
X5995Y4667D01*
X5997Y4669D01*
X6000Y4672D01*
X6003Y4674D01*
X6007Y4678D01*
X6015Y4686D01*
X6024Y4695D01*
X6032Y4704D01*
X6036Y4708D01*
X6039Y4712D01*
X6042Y4715D01*
X6044Y4718D01*
X6045Y4719D01*
X6046Y4721D01*
X6048Y4725D01*
X6051Y4730D01*
X6053Y4735D01*
X6055Y4742D01*
X6057Y4748D01*
X6057Y4755D01*
Y4756D01*
Y4756D01*
Y4759D01*
X6057Y4763D01*
X6056Y4767D01*
X6054Y4772D01*
X6052Y4778D01*
X6050Y4783D01*
X6046Y4787D01*
X6045Y4788D01*
X6044Y4789D01*
X6041Y4791D01*
X6038Y4793D01*
X6033Y4795D01*
X6028Y4796D01*
X6022Y4798D01*
X6015Y4798D01*
X6012D01*
X6008Y4798D01*
X6004Y4797D01*
X5999Y4796D01*
X5994Y4793D01*
X5989Y4790D01*
X5984Y4787D01*
X5984Y4786D01*
X5983Y4784D01*
X5981Y4782D01*
X5979Y4778D01*
X5977Y4772D01*
X5975Y4765D01*
X5973Y4758D01*
X5972Y4748D01*
X5911Y4754D01*
Y4755D01*
X5911Y4757D01*
Y4759D01*
X5912Y4763D01*
X5913Y4767D01*
X5914Y4771D01*
X5916Y4777D01*
X5917Y4783D01*
X5922Y4794D01*
X5927Y4806D01*
X5931Y4812D01*
X5935Y4818D01*
X5940Y4822D01*
X5945Y4827D01*
X5945Y4827D01*
X5946Y4828D01*
X5947Y4829D01*
X5950Y4831D01*
X5953Y4832D01*
X5956Y4834D01*
X5960Y4836D01*
X5965Y4838D01*
X5970Y4840D01*
X5975Y4842D01*
X5987Y4846D01*
X6002Y4848D01*
X6009Y4849D01*
X6017Y4849D01*
X6021D01*
X6025Y4849D01*
D02*
G37*
G36*
X5819Y6925D02*
X5818D01*
X5817Y6925D01*
X5815D01*
X5814Y6924D01*
X5808Y6923D01*
X5801Y6920D01*
X5793Y6917D01*
X5785Y6913D01*
X5778Y6909D01*
X5772Y6903D01*
X5771Y6902D01*
X5770Y6899D01*
X5767Y6896D01*
X5765Y6890D01*
X5762Y6883D01*
X5759Y6875D01*
X5758Y6866D01*
X5757Y6856D01*
Y6855D01*
Y6854D01*
Y6853D01*
Y6851D01*
X5758Y6845D01*
X5759Y6838D01*
X5760Y6831D01*
X5763Y6823D01*
X5766Y6815D01*
X5770Y6809D01*
X5771Y6808D01*
X5772Y6806D01*
X5775Y6804D01*
X5779Y6801D01*
X5784Y6798D01*
X5789Y6795D01*
X5795Y6793D01*
X5801Y6793D01*
X5803D01*
X5805Y6793D01*
X5808Y6794D01*
X5811Y6795D01*
X5814Y6796D01*
X5817Y6797D01*
X5820Y6800D01*
X5821Y6800D01*
X5822Y6801D01*
X5823Y6802D01*
X5825Y6805D01*
X5827Y6808D01*
X5830Y6812D01*
X5832Y6817D01*
X5834Y6823D01*
Y6823D01*
X5835Y6825D01*
X5836Y6828D01*
X5837Y6831D01*
X5838Y6833D01*
X5838Y6837D01*
X5840Y6840D01*
X5841Y6845D01*
X5842Y6849D01*
X5844Y6855D01*
X5845Y6861D01*
X5847Y6867D01*
X5849Y6875D01*
Y6875D01*
X5849Y6877D01*
X5850Y6880D01*
X5851Y6883D01*
X5852Y6887D01*
X5854Y6892D01*
X5856Y6897D01*
X5857Y6903D01*
X5862Y6915D01*
X5868Y6927D01*
X5870Y6933D01*
X5874Y6938D01*
X5877Y6943D01*
X5880Y6947D01*
X5881Y6948D01*
X5881Y6948D01*
X5883Y6950D01*
X5885Y6952D01*
X5887Y6954D01*
X5891Y6956D01*
X5894Y6959D01*
X5898Y6961D01*
X5908Y6967D01*
X5919Y6972D01*
X5925Y6973D01*
X5931Y6975D01*
X5938Y6976D01*
X5945Y6976D01*
X5949D01*
X5954Y6975D01*
X5960Y6974D01*
X5966Y6973D01*
X5974Y6971D01*
X5983Y6967D01*
X5990Y6963D01*
X5991D01*
X5991Y6962D01*
X5994Y6960D01*
X5998Y6957D01*
X6002Y6953D01*
X6008Y6947D01*
X6013Y6940D01*
X6018Y6932D01*
X6023Y6923D01*
Y6923D01*
X6023Y6922D01*
X6024Y6920D01*
X6025Y6918D01*
X6026Y6916D01*
X6027Y6913D01*
X6027Y6909D01*
X6029Y6905D01*
X6031Y6896D01*
X6033Y6885D01*
X6034Y6873D01*
X6034Y6860D01*
Y6859D01*
Y6857D01*
Y6854D01*
X6034Y6850D01*
X6033Y6845D01*
X6033Y6839D01*
X6032Y6833D01*
X6031Y6826D01*
X6028Y6811D01*
X6026Y6804D01*
X6023Y6796D01*
X6020Y6789D01*
X6016Y6782D01*
X6012Y6776D01*
X6008Y6770D01*
X6007Y6769D01*
X6006Y6768D01*
X6005Y6767D01*
X6003Y6765D01*
X6000Y6763D01*
X5997Y6760D01*
X5993Y6757D01*
X5989Y6754D01*
X5984Y6751D01*
X5979Y6748D01*
X5973Y6746D01*
X5966Y6743D01*
X5960Y6741D01*
X5953Y6739D01*
X5945Y6738D01*
X5937Y6737D01*
X5935Y6802D01*
X5936D01*
X5939Y6803D01*
X5943Y6804D01*
X5948Y6806D01*
X5954Y6808D01*
X5960Y6811D01*
X5965Y6815D01*
X5970Y6820D01*
X5970Y6820D01*
X5972Y6822D01*
X5973Y6826D01*
X5975Y6830D01*
X5977Y6836D01*
X5979Y6843D01*
X5980Y6851D01*
X5981Y6861D01*
Y6861D01*
Y6862D01*
Y6863D01*
Y6865D01*
X5980Y6870D01*
X5979Y6876D01*
X5978Y6883D01*
X5976Y6891D01*
X5973Y6898D01*
X5969Y6904D01*
X5968Y6905D01*
X5967Y6905D01*
X5966Y6907D01*
X5964Y6909D01*
X5961Y6911D01*
X5957Y6913D01*
X5954Y6914D01*
X5949Y6914D01*
X5947D01*
X5945Y6914D01*
X5942Y6913D01*
X5939Y6912D01*
X5936Y6911D01*
X5933Y6908D01*
X5929Y6905D01*
X5929Y6905D01*
X5928Y6902D01*
X5927Y6901D01*
X5926Y6899D01*
X5924Y6896D01*
X5923Y6893D01*
X5922Y6889D01*
X5920Y6885D01*
X5918Y6880D01*
X5916Y6875D01*
X5914Y6869D01*
X5912Y6862D01*
X5911Y6854D01*
X5908Y6846D01*
Y6845D01*
X5908Y6844D01*
X5907Y6841D01*
X5906Y6838D01*
X5905Y6834D01*
X5904Y6830D01*
X5903Y6825D01*
X5901Y6820D01*
X5898Y6808D01*
X5894Y6797D01*
X5890Y6786D01*
X5887Y6781D01*
X5885Y6777D01*
Y6776D01*
X5885Y6776D01*
X5883Y6773D01*
X5880Y6769D01*
X5876Y6764D01*
X5872Y6758D01*
X5866Y6752D01*
X5860Y6746D01*
X5852Y6741D01*
X5851Y6741D01*
X5849Y6739D01*
X5844Y6737D01*
X5838Y6735D01*
X5831Y6732D01*
X5822Y6730D01*
X5813Y6729D01*
X5802Y6728D01*
X5797D01*
X5795Y6729D01*
X5791Y6729D01*
X5785Y6730D01*
X5777Y6732D01*
X5768Y6735D01*
X5759Y6739D01*
X5750Y6744D01*
X5749D01*
X5749Y6745D01*
X5746Y6747D01*
X5741Y6750D01*
X5736Y6755D01*
X5730Y6761D01*
X5725Y6769D01*
X5719Y6777D01*
X5714Y6787D01*
Y6788D01*
X5714Y6789D01*
X5713Y6790D01*
X5712Y6792D01*
X5711Y6795D01*
X5711Y6798D01*
X5710Y6802D01*
X5709Y6806D01*
X5707Y6811D01*
X5706Y6816D01*
X5705Y6828D01*
X5703Y6842D01*
X5703Y6857D01*
Y6857D01*
Y6859D01*
Y6863D01*
X5703Y6867D01*
X5704Y6872D01*
X5704Y6877D01*
X5705Y6884D01*
X5706Y6891D01*
X5710Y6906D01*
X5712Y6914D01*
X5714Y6921D01*
X5717Y6929D01*
X5721Y6936D01*
X5725Y6943D01*
X5730Y6950D01*
X5731Y6950D01*
X5732Y6951D01*
X5733Y6953D01*
X5735Y6955D01*
X5739Y6958D01*
X5742Y6960D01*
X5747Y6964D01*
X5751Y6967D01*
X5757Y6970D01*
X5763Y6973D01*
X5770Y6977D01*
X5777Y6980D01*
X5785Y6982D01*
X5794Y6985D01*
X5803Y6987D01*
X5813Y6988D01*
X5819Y6925D01*
D02*
G37*
G36*
X6028Y6556D02*
Y6555D01*
Y6554D01*
Y6552D01*
Y6549D01*
Y6546D01*
X6028Y6542D01*
X6027Y6533D01*
X6027Y6523D01*
X6026Y6513D01*
X6024Y6504D01*
X6022Y6495D01*
Y6494D01*
X6021Y6493D01*
X6021Y6492D01*
X6021Y6490D01*
X6018Y6485D01*
X6015Y6478D01*
X6011Y6471D01*
X6006Y6462D01*
X6000Y6455D01*
X5992Y6447D01*
Y6446D01*
X5991Y6446D01*
X5989Y6443D01*
X5984Y6440D01*
X5978Y6436D01*
X5971Y6431D01*
X5962Y6425D01*
X5952Y6420D01*
X5941Y6416D01*
X5940D01*
X5939Y6416D01*
X5937Y6415D01*
X5935Y6414D01*
X5932Y6414D01*
X5929Y6413D01*
X5924Y6412D01*
X5920Y6411D01*
X5915Y6410D01*
X5909Y6409D01*
X5903Y6408D01*
X5896Y6407D01*
X5881Y6406D01*
X5865Y6406D01*
X5859D01*
X5855Y6406D01*
X5851D01*
X5847Y6407D01*
X5842Y6407D01*
X5831Y6408D01*
X5820Y6410D01*
X5808Y6413D01*
X5797Y6416D01*
X5797D01*
X5796Y6416D01*
X5794Y6417D01*
X5791Y6418D01*
X5789Y6419D01*
X5785Y6421D01*
X5777Y6425D01*
X5768Y6429D01*
X5759Y6435D01*
X5749Y6442D01*
X5741Y6450D01*
X5740Y6451D01*
X5738Y6453D01*
X5735Y6457D01*
X5731Y6462D01*
X5727Y6468D01*
X5723Y6476D01*
X5719Y6485D01*
X5715Y6495D01*
Y6496D01*
X5715Y6496D01*
Y6498D01*
X5714Y6499D01*
X5713Y6504D01*
X5712Y6510D01*
X5711Y6518D01*
X5710Y6528D01*
X5709Y6540D01*
X5709Y6552D01*
Y6673D01*
X6028D01*
Y6556D01*
D02*
G37*
G36*
X4848Y8587D02*
X4857Y8587D01*
X4867Y8586D01*
X4877Y8585D01*
X4886Y8583D01*
X4895Y8581D01*
X4896D01*
X4897Y8580D01*
X4898Y8580D01*
X4900Y8580D01*
X4905Y8577D01*
X4912Y8574D01*
X4919Y8570D01*
X4928Y8565D01*
X4935Y8559D01*
X4943Y8551D01*
X4944D01*
X4944Y8550D01*
X4947Y8548D01*
X4950Y8543D01*
X4954Y8537D01*
X4959Y8530D01*
X4965Y8521D01*
X4970Y8511D01*
X4974Y8500D01*
Y8499D01*
X4974Y8498D01*
X4975Y8496D01*
X4976Y8494D01*
X4976Y8491D01*
X4977Y8488D01*
X4978Y8483D01*
X4979Y8479D01*
X4980Y8474D01*
X4981Y8468D01*
X4982Y8462D01*
X4983Y8455D01*
X4984Y8441D01*
X4984Y8424D01*
Y8424D01*
Y8422D01*
Y8421D01*
Y8418D01*
X4984Y8414D01*
Y8410D01*
X4983Y8406D01*
X4983Y8401D01*
X4982Y8390D01*
X4980Y8379D01*
X4977Y8368D01*
X4974Y8356D01*
Y8356D01*
X4974Y8355D01*
X4973Y8353D01*
X4972Y8350D01*
X4971Y8348D01*
X4969Y8344D01*
X4965Y8336D01*
X4961Y8327D01*
X4955Y8318D01*
X4948Y8308D01*
X4940Y8300D01*
X4939Y8299D01*
X4937Y8297D01*
X4933Y8294D01*
X4928Y8290D01*
X4922Y8286D01*
X4914Y8282D01*
X4905Y8278D01*
X4895Y8274D01*
X4894D01*
X4894Y8274D01*
X4892D01*
X4891Y8273D01*
X4886Y8272D01*
X4880Y8271D01*
X4872Y8270D01*
X4862Y8269D01*
X4850Y8268D01*
X4838Y8268D01*
X4717D01*
Y8587D01*
X4844D01*
X4848Y8587D01*
D02*
G37*
G36*
X4204Y8593D02*
X4209Y8593D01*
X4215Y8592D01*
X4221Y8592D01*
X4228Y8590D01*
X4243Y8587D01*
X4258Y8583D01*
X4266Y8580D01*
X4273Y8577D01*
X4280Y8573D01*
X4287Y8568D01*
X4287Y8568D01*
X4288Y8568D01*
X4290Y8566D01*
X4292Y8564D01*
X4295Y8562D01*
X4298Y8558D01*
X4301Y8555D01*
X4305Y8550D01*
X4308Y8546D01*
X4312Y8541D01*
X4316Y8535D01*
X4319Y8529D01*
X4323Y8522D01*
X4326Y8515D01*
X4328Y8508D01*
X4330Y8500D01*
X4266Y8488D01*
Y8488D01*
X4266Y8489D01*
X4265Y8491D01*
X4263Y8495D01*
X4260Y8501D01*
X4257Y8507D01*
X4252Y8513D01*
X4247Y8519D01*
X4240Y8525D01*
X4239Y8525D01*
X4237Y8527D01*
X4233Y8529D01*
X4228Y8532D01*
X4221Y8534D01*
X4213Y8536D01*
X4204Y8538D01*
X4194Y8538D01*
X4190D01*
X4187Y8538D01*
X4183Y8538D01*
X4179Y8537D01*
X4175Y8536D01*
X4169Y8535D01*
X4159Y8532D01*
X4153Y8530D01*
X4148Y8527D01*
X4142Y8524D01*
X4137Y8520D01*
X4132Y8516D01*
X4126Y8511D01*
X4126Y8511D01*
X4126Y8510D01*
X4124Y8508D01*
X4123Y8506D01*
X4121Y8503D01*
X4119Y8500D01*
X4116Y8496D01*
X4114Y8491D01*
X4112Y8486D01*
X4110Y8480D01*
X4108Y8473D01*
X4106Y8466D01*
X4104Y8459D01*
X4103Y8450D01*
X4102Y8441D01*
X4102Y8431D01*
Y8431D01*
Y8429D01*
Y8426D01*
X4102Y8422D01*
X4103Y8417D01*
X4103Y8412D01*
X4104Y8405D01*
X4105Y8399D01*
X4108Y8385D01*
X4113Y8371D01*
X4115Y8364D01*
X4119Y8357D01*
X4123Y8351D01*
X4127Y8345D01*
X4127Y8345D01*
X4128Y8344D01*
X4130Y8343D01*
X4132Y8341D01*
X4134Y8339D01*
X4137Y8336D01*
X4141Y8334D01*
X4145Y8331D01*
X4150Y8328D01*
X4154Y8326D01*
X4166Y8321D01*
X4172Y8319D01*
X4179Y8318D01*
X4186Y8317D01*
X4193Y8317D01*
X4197D01*
X4201Y8317D01*
X4206Y8318D01*
X4212Y8319D01*
X4219Y8320D01*
X4227Y8322D01*
X4234Y8325D01*
X4235D01*
X4235Y8325D01*
X4237Y8326D01*
X4241Y8328D01*
X4246Y8330D01*
X4252Y8333D01*
X4258Y8336D01*
X4264Y8340D01*
X4269Y8344D01*
Y8385D01*
X4195D01*
Y8439D01*
X4334D01*
Y8311D01*
X4333Y8310D01*
X4332Y8309D01*
X4331Y8307D01*
X4328Y8306D01*
X4326Y8304D01*
X4320Y8299D01*
X4311Y8294D01*
X4301Y8288D01*
X4289Y8282D01*
X4275Y8276D01*
X4275D01*
X4273Y8276D01*
X4272Y8275D01*
X4269Y8274D01*
X4265Y8273D01*
X4261Y8272D01*
X4256Y8270D01*
X4251Y8269D01*
X4240Y8266D01*
X4226Y8264D01*
X4212Y8262D01*
X4198Y8262D01*
X4193D01*
X4189Y8262D01*
X4185D01*
X4180Y8263D01*
X4174Y8264D01*
X4168Y8264D01*
X4154Y8267D01*
X4139Y8270D01*
X4124Y8276D01*
X4117Y8279D01*
X4110Y8282D01*
X4109Y8283D01*
X4108Y8283D01*
X4106Y8285D01*
X4104Y8287D01*
X4101Y8289D01*
X4097Y8291D01*
X4093Y8295D01*
X4089Y8298D01*
X4080Y8307D01*
X4071Y8317D01*
X4062Y8329D01*
X4054Y8343D01*
Y8343D01*
X4053Y8345D01*
X4052Y8347D01*
X4051Y8350D01*
X4050Y8354D01*
X4048Y8358D01*
X4047Y8363D01*
X4045Y8368D01*
X4043Y8374D01*
X4041Y8381D01*
X4038Y8396D01*
X4036Y8411D01*
X4035Y8428D01*
Y8429D01*
Y8431D01*
Y8434D01*
X4036Y8437D01*
Y8441D01*
X4036Y8447D01*
X4037Y8452D01*
X4038Y8459D01*
X4041Y8472D01*
X4044Y8487D01*
X4049Y8502D01*
X4053Y8510D01*
X4056Y8517D01*
X4057Y8518D01*
X4057Y8519D01*
X4059Y8521D01*
X4060Y8524D01*
X4062Y8527D01*
X4065Y8531D01*
X4068Y8535D01*
X4071Y8539D01*
X4076Y8544D01*
X4080Y8549D01*
X4085Y8554D01*
X4091Y8559D01*
X4097Y8564D01*
X4103Y8569D01*
X4117Y8577D01*
X4118D01*
X4119Y8578D01*
X4120Y8579D01*
X4123Y8580D01*
X4126Y8581D01*
X4129Y8582D01*
X4134Y8584D01*
X4138Y8586D01*
X4144Y8587D01*
X4150Y8588D01*
X4156Y8590D01*
X4162Y8591D01*
X4177Y8593D01*
X4194Y8593D01*
X4199D01*
X4204Y8593D01*
D02*
G37*
G36*
X4649Y8268D02*
X4584D01*
X4454Y8478D01*
Y8268D01*
X4394D01*
Y8587D01*
X4457D01*
X4589Y8372D01*
Y8587D01*
X4649D01*
Y8268D01*
D02*
G37*
G36*
X6026Y3726D02*
X5763D01*
Y3565D01*
X5709D01*
Y3790D01*
X6026D01*
Y3726D01*
D02*
G37*
G36*
X-5399Y8169D02*
X-5449D01*
Y8355D01*
X-5449Y8354D01*
X-5450Y8354D01*
X-5451Y8352D01*
X-5453Y8351D01*
X-5456Y8348D01*
X-5459Y8346D01*
X-5463Y8344D01*
X-5467Y8341D01*
X-5471Y8338D01*
X-5476Y8335D01*
X-5481Y8331D01*
X-5487Y8328D01*
X-5498Y8323D01*
X-5512Y8318D01*
Y8362D01*
X-5511D01*
X-5511Y8362D01*
X-5510Y8363D01*
X-5508Y8363D01*
X-5505Y8365D01*
X-5500Y8367D01*
X-5493Y8370D01*
X-5486Y8374D01*
X-5479Y8379D01*
X-5470Y8385D01*
X-5470Y8386D01*
X-5469Y8386D01*
X-5468Y8387D01*
X-5467Y8389D01*
X-5463Y8392D01*
X-5458Y8397D01*
X-5453Y8403D01*
X-5448Y8411D01*
X-5443Y8418D01*
X-5439Y8427D01*
X-5399D01*
Y8169D01*
D02*
G37*
G36*
X5874Y4125D02*
X5879D01*
X5886Y4124D01*
X5893Y4123D01*
X5902Y4122D01*
X5911Y4121D01*
X5921Y4118D01*
X5931Y4115D01*
X5942Y4112D01*
X5952Y4108D01*
X5962Y4103D01*
X5972Y4098D01*
X5981Y4092D01*
X5990Y4084D01*
X5990Y4084D01*
X5992Y4083D01*
X5994Y4080D01*
X5997Y4077D01*
X6000Y4073D01*
X6004Y4068D01*
X6008Y4062D01*
X6012Y4055D01*
X6016Y4048D01*
X6021Y4040D01*
X6024Y4031D01*
X6027Y4022D01*
X6030Y4011D01*
X6033Y4000D01*
X6034Y3988D01*
X6034Y3976D01*
Y3976D01*
Y3974D01*
Y3971D01*
X6034Y3967D01*
X6033Y3962D01*
X6033Y3956D01*
X6032Y3950D01*
X6030Y3943D01*
X6028Y3935D01*
X6026Y3927D01*
X6023Y3920D01*
X6020Y3911D01*
X6016Y3903D01*
X6011Y3896D01*
X6006Y3888D01*
X6000Y3881D01*
Y3881D01*
X5999Y3880D01*
X5997Y3879D01*
X5996Y3878D01*
X5994Y3876D01*
X5991Y3874D01*
X5984Y3869D01*
X5976Y3864D01*
X5966Y3858D01*
X5954Y3853D01*
X5941Y3848D01*
X5926Y3912D01*
X5926D01*
X5927Y3913D01*
X5928D01*
X5930Y3914D01*
X5934Y3915D01*
X5940Y3917D01*
X5946Y3920D01*
X5953Y3925D01*
X5959Y3930D01*
X5965Y3936D01*
X5965Y3937D01*
X5967Y3939D01*
X5969Y3943D01*
X5972Y3948D01*
X5975Y3955D01*
X5977Y3962D01*
X5979Y3970D01*
X5979Y3980D01*
Y3980D01*
Y3981D01*
Y3983D01*
X5979Y3986D01*
X5978Y3988D01*
X5978Y3992D01*
X5976Y4000D01*
X5973Y4009D01*
X5968Y4019D01*
X5966Y4024D01*
X5962Y4029D01*
X5958Y4033D01*
X5954Y4037D01*
X5953D01*
X5952Y4038D01*
X5951Y4039D01*
X5948Y4041D01*
X5946Y4042D01*
X5942Y4044D01*
X5938Y4046D01*
X5934Y4048D01*
X5928Y4050D01*
X5922Y4052D01*
X5915Y4054D01*
X5908Y4056D01*
X5899Y4057D01*
X5891Y4058D01*
X5881Y4059D01*
X5870Y4059D01*
X5864D01*
X5861Y4059D01*
X5856D01*
X5850Y4058D01*
X5844Y4057D01*
X5837Y4056D01*
X5822Y4054D01*
X5808Y4050D01*
X5801Y4048D01*
X5795Y4044D01*
X5789Y4041D01*
X5784Y4037D01*
X5783Y4037D01*
X5783Y4036D01*
X5781Y4035D01*
X5779Y4033D01*
X5776Y4029D01*
X5771Y4022D01*
X5766Y4014D01*
X5762Y4005D01*
X5759Y3993D01*
X5759Y3987D01*
X5758Y3981D01*
Y3981D01*
Y3980D01*
Y3979D01*
X5759Y3977D01*
X5759Y3972D01*
X5760Y3966D01*
X5762Y3959D01*
X5765Y3952D01*
X5769Y3945D01*
X5774Y3937D01*
X5775Y3936D01*
X5778Y3934D01*
X5781Y3931D01*
X5787Y3927D01*
X5794Y3922D01*
X5803Y3918D01*
X5814Y3914D01*
X5826Y3910D01*
X5807Y3847D01*
X5806D01*
X5804Y3848D01*
X5802Y3849D01*
X5798Y3850D01*
X5794Y3852D01*
X5789Y3854D01*
X5783Y3856D01*
X5777Y3859D01*
X5765Y3865D01*
X5752Y3874D01*
X5739Y3884D01*
X5734Y3890D01*
X5729Y3896D01*
X5728Y3896D01*
X5728Y3897D01*
X5726Y3899D01*
X5724Y3902D01*
X5723Y3905D01*
X5721Y3909D01*
X5718Y3914D01*
X5716Y3919D01*
X5713Y3925D01*
X5711Y3931D01*
X5709Y3938D01*
X5707Y3945D01*
X5705Y3953D01*
X5704Y3962D01*
X5704Y3971D01*
X5703Y3981D01*
Y3981D01*
Y3983D01*
X5704Y3987D01*
X5704Y3991D01*
X5705Y3996D01*
X5705Y4003D01*
X5707Y4010D01*
X5709Y4017D01*
X5711Y4025D01*
X5714Y4034D01*
X5717Y4042D01*
X5722Y4051D01*
X5726Y4060D01*
X5732Y4069D01*
X5739Y4077D01*
X5747Y4085D01*
X5747Y4085D01*
X5748Y4087D01*
X5751Y4089D01*
X5754Y4091D01*
X5759Y4094D01*
X5764Y4098D01*
X5771Y4102D01*
X5778Y4105D01*
X5786Y4109D01*
X5795Y4113D01*
X5805Y4116D01*
X5815Y4119D01*
X5826Y4122D01*
X5839Y4124D01*
X5852Y4125D01*
X5866Y4126D01*
X5869D01*
X5874Y4125D01*
D02*
G37*
G36*
X6028Y6260D02*
Y6191D01*
X5709Y6063D01*
Y6133D01*
X5781Y6160D01*
Y6289D01*
X5709Y6315D01*
Y6383D01*
X6028Y6260D01*
D02*
G37*
G36*
X5819Y4366D02*
X5818D01*
X5817Y4366D01*
X5815D01*
X5814Y4365D01*
X5808Y4364D01*
X5801Y4361D01*
X5793Y4358D01*
X5785Y4354D01*
X5778Y4350D01*
X5772Y4344D01*
X5771Y4343D01*
X5770Y4340D01*
X5767Y4337D01*
X5765Y4331D01*
X5762Y4324D01*
X5759Y4316D01*
X5758Y4307D01*
X5757Y4297D01*
Y4296D01*
Y4295D01*
Y4294D01*
Y4291D01*
X5758Y4286D01*
X5759Y4279D01*
X5760Y4272D01*
X5763Y4264D01*
X5766Y4256D01*
X5770Y4250D01*
X5771Y4249D01*
X5772Y4247D01*
X5775Y4245D01*
X5779Y4242D01*
X5784Y4239D01*
X5789Y4236D01*
X5795Y4234D01*
X5801Y4234D01*
X5803D01*
X5805Y4234D01*
X5808Y4235D01*
X5811Y4236D01*
X5814Y4236D01*
X5817Y4238D01*
X5820Y4241D01*
X5821Y4241D01*
X5822Y4242D01*
X5823Y4243D01*
X5825Y4246D01*
X5827Y4249D01*
X5830Y4253D01*
X5832Y4258D01*
X5834Y4264D01*
Y4264D01*
X5835Y4266D01*
X5836Y4269D01*
X5837Y4272D01*
X5838Y4274D01*
X5838Y4278D01*
X5840Y4281D01*
X5841Y4285D01*
X5842Y4290D01*
X5844Y4296D01*
X5845Y4302D01*
X5847Y4308D01*
X5849Y4315D01*
Y4316D01*
X5849Y4318D01*
X5850Y4321D01*
X5851Y4324D01*
X5852Y4328D01*
X5854Y4333D01*
X5856Y4338D01*
X5857Y4344D01*
X5862Y4356D01*
X5868Y4368D01*
X5870Y4374D01*
X5874Y4379D01*
X5877Y4384D01*
X5880Y4388D01*
X5881Y4388D01*
X5881Y4389D01*
X5883Y4391D01*
X5885Y4393D01*
X5887Y4395D01*
X5891Y4397D01*
X5894Y4400D01*
X5898Y4402D01*
X5908Y4408D01*
X5919Y4412D01*
X5925Y4414D01*
X5931Y4416D01*
X5938Y4417D01*
X5945Y4417D01*
X5949D01*
X5954Y4416D01*
X5960Y4415D01*
X5966Y4414D01*
X5974Y4412D01*
X5983Y4408D01*
X5990Y4404D01*
X5991D01*
X5991Y4403D01*
X5994Y4401D01*
X5998Y4398D01*
X6002Y4394D01*
X6008Y4388D01*
X6013Y4381D01*
X6018Y4373D01*
X6023Y4364D01*
Y4364D01*
X6023Y4363D01*
X6024Y4361D01*
X6025Y4359D01*
X6026Y4357D01*
X6027Y4354D01*
X6027Y4350D01*
X6029Y4346D01*
X6031Y4337D01*
X6033Y4326D01*
X6034Y4314D01*
X6034Y4301D01*
Y4300D01*
Y4298D01*
Y4295D01*
X6034Y4291D01*
X6033Y4286D01*
X6033Y4280D01*
X6032Y4274D01*
X6031Y4267D01*
X6028Y4252D01*
X6026Y4245D01*
X6023Y4237D01*
X6020Y4230D01*
X6016Y4223D01*
X6012Y4217D01*
X6008Y4211D01*
X6007Y4210D01*
X6006Y4209D01*
X6005Y4208D01*
X6003Y4206D01*
X6000Y4204D01*
X5997Y4201D01*
X5993Y4198D01*
X5989Y4195D01*
X5984Y4192D01*
X5979Y4189D01*
X5973Y4187D01*
X5966Y4184D01*
X5960Y4182D01*
X5953Y4180D01*
X5945Y4179D01*
X5937Y4178D01*
X5935Y4243D01*
X5936D01*
X5939Y4244D01*
X5943Y4245D01*
X5948Y4247D01*
X5954Y4249D01*
X5960Y4252D01*
X5965Y4256D01*
X5970Y4261D01*
X5970Y4261D01*
X5972Y4263D01*
X5973Y4267D01*
X5975Y4271D01*
X5977Y4277D01*
X5979Y4284D01*
X5980Y4292D01*
X5981Y4302D01*
Y4302D01*
Y4303D01*
Y4304D01*
Y4306D01*
X5980Y4311D01*
X5979Y4317D01*
X5978Y4324D01*
X5976Y4332D01*
X5973Y4339D01*
X5969Y4345D01*
X5968Y4346D01*
X5967Y4346D01*
X5966Y4348D01*
X5964Y4350D01*
X5961Y4352D01*
X5957Y4354D01*
X5954Y4355D01*
X5949Y4355D01*
X5947D01*
X5945Y4355D01*
X5942Y4354D01*
X5939Y4353D01*
X5936Y4352D01*
X5933Y4349D01*
X5929Y4346D01*
X5929Y4346D01*
X5928Y4343D01*
X5927Y4342D01*
X5926Y4340D01*
X5924Y4337D01*
X5923Y4334D01*
X5922Y4330D01*
X5920Y4326D01*
X5918Y4321D01*
X5916Y4316D01*
X5914Y4309D01*
X5912Y4303D01*
X5911Y4295D01*
X5908Y4287D01*
Y4286D01*
X5908Y4285D01*
X5907Y4282D01*
X5906Y4279D01*
X5905Y4275D01*
X5904Y4271D01*
X5903Y4266D01*
X5901Y4261D01*
X5898Y4249D01*
X5894Y4238D01*
X5890Y4227D01*
X5887Y4222D01*
X5885Y4218D01*
Y4217D01*
X5885Y4217D01*
X5883Y4214D01*
X5880Y4210D01*
X5876Y4205D01*
X5872Y4199D01*
X5866Y4193D01*
X5860Y4187D01*
X5852Y4182D01*
X5851Y4182D01*
X5849Y4180D01*
X5844Y4178D01*
X5838Y4175D01*
X5831Y4173D01*
X5822Y4171D01*
X5813Y4169D01*
X5802Y4169D01*
X5797D01*
X5795Y4169D01*
X5791Y4170D01*
X5785Y4171D01*
X5777Y4173D01*
X5768Y4175D01*
X5759Y4180D01*
X5750Y4185D01*
X5749D01*
X5749Y4186D01*
X5746Y4188D01*
X5741Y4191D01*
X5736Y4196D01*
X5730Y4202D01*
X5725Y4210D01*
X5719Y4218D01*
X5714Y4228D01*
Y4229D01*
X5714Y4230D01*
X5713Y4231D01*
X5712Y4233D01*
X5711Y4236D01*
X5711Y4239D01*
X5710Y4243D01*
X5709Y4247D01*
X5707Y4252D01*
X5706Y4257D01*
X5705Y4269D01*
X5703Y4283D01*
X5703Y4297D01*
Y4298D01*
Y4300D01*
Y4303D01*
X5703Y4308D01*
X5704Y4313D01*
X5704Y4318D01*
X5705Y4325D01*
X5706Y4332D01*
X5710Y4347D01*
X5712Y4355D01*
X5714Y4362D01*
X5717Y4370D01*
X5721Y4377D01*
X5725Y4384D01*
X5730Y4391D01*
X5731Y4391D01*
X5732Y4392D01*
X5733Y4394D01*
X5735Y4396D01*
X5739Y4399D01*
X5742Y4401D01*
X5747Y4405D01*
X5751Y4408D01*
X5757Y4411D01*
X5763Y4414D01*
X5770Y4418D01*
X5777Y4421D01*
X5785Y4423D01*
X5794Y4426D01*
X5803Y4428D01*
X5813Y4429D01*
X5819Y4366D01*
D02*
G37*
G36*
X2907Y6815D02*
X2916Y6815D01*
X2925Y6814D01*
X2936Y6813D01*
X2945Y6812D01*
X2954Y6809D01*
X2955D01*
X2955Y6809D01*
X2957Y6808D01*
X2959Y6808D01*
X2964Y6806D01*
X2971Y6802D01*
X2978Y6798D01*
X2986Y6793D01*
X2994Y6787D01*
X3002Y6780D01*
X3003D01*
X3003Y6779D01*
X3005Y6776D01*
X3009Y6771D01*
X3013Y6765D01*
X3018Y6758D01*
X3023Y6749D01*
X3028Y6739D01*
X3033Y6728D01*
Y6728D01*
X3033Y6727D01*
X3034Y6725D01*
X3034Y6722D01*
X3035Y6720D01*
X3036Y6716D01*
X3037Y6712D01*
X3038Y6707D01*
X3039Y6702D01*
X3040Y6696D01*
X3041Y6690D01*
X3041Y6683D01*
X3043Y6669D01*
X3043Y6653D01*
Y6652D01*
Y6651D01*
Y6649D01*
Y6646D01*
X3043Y6643D01*
Y6639D01*
X3042Y6634D01*
X3042Y6629D01*
X3041Y6618D01*
X3039Y6607D01*
X3036Y6596D01*
X3033Y6585D01*
Y6584D01*
X3033Y6583D01*
X3032Y6582D01*
X3031Y6579D01*
X3030Y6576D01*
X3028Y6573D01*
X3024Y6564D01*
X3020Y6556D01*
X3014Y6546D01*
X3007Y6537D01*
X2999Y6528D01*
X2998Y6527D01*
X2996Y6525D01*
X2992Y6522D01*
X2987Y6519D01*
X2980Y6515D01*
X2973Y6510D01*
X2964Y6506D01*
X2954Y6503D01*
X2953D01*
X2953Y6502D01*
X2951D01*
X2950Y6502D01*
X2945Y6501D01*
X2938Y6499D01*
X2930Y6498D01*
X2921Y6497D01*
X2909Y6497D01*
X2897Y6496D01*
X2776D01*
Y6816D01*
X2903D01*
X2907Y6815D01*
D02*
G37*
G36*
X-4505Y8268D02*
X-4570D01*
X-4700Y8478D01*
Y8268D01*
X-4759D01*
Y8587D01*
X-4697D01*
X-4565Y8372D01*
Y8587D01*
X-4505D01*
Y8268D01*
D02*
G37*
G36*
X-4305Y8587D02*
X-4297Y8587D01*
X-4287Y8586D01*
X-4277Y8585D01*
X-4267Y8583D01*
X-4258Y8581D01*
X-4258D01*
X-4257Y8580D01*
X-4256Y8580D01*
X-4254Y8580D01*
X-4248Y8577D01*
X-4242Y8574D01*
X-4234Y8570D01*
X-4226Y8565D01*
X-4218Y8559D01*
X-4210Y8551D01*
X-4210D01*
X-4209Y8550D01*
X-4207Y8548D01*
X-4203Y8543D01*
X-4199Y8537D01*
X-4194Y8530D01*
X-4189Y8521D01*
X-4184Y8511D01*
X-4180Y8500D01*
Y8499D01*
X-4179Y8498D01*
X-4179Y8496D01*
X-4178Y8494D01*
X-4177Y8491D01*
X-4177Y8488D01*
X-4176Y8483D01*
X-4174Y8479D01*
X-4173Y8474D01*
X-4172Y8468D01*
X-4171Y8462D01*
X-4171Y8455D01*
X-4170Y8441D01*
X-4169Y8424D01*
Y8424D01*
Y8422D01*
Y8421D01*
Y8418D01*
X-4170Y8414D01*
Y8410D01*
X-4170Y8406D01*
X-4171Y8401D01*
X-4171Y8390D01*
X-4173Y8379D01*
X-4176Y8368D01*
X-4179Y8356D01*
Y8356D01*
X-4180Y8355D01*
X-4181Y8353D01*
X-4182Y8350D01*
X-4183Y8348D01*
X-4184Y8344D01*
X-4188Y8336D01*
X-4193Y8327D01*
X-4199Y8318D01*
X-4206Y8308D01*
X-4214Y8300D01*
X-4214Y8299D01*
X-4217Y8297D01*
X-4220Y8294D01*
X-4226Y8290D01*
X-4232Y8286D01*
X-4239Y8282D01*
X-4249Y8278D01*
X-4259Y8274D01*
X-4259D01*
X-4260Y8274D01*
X-4261D01*
X-4262Y8273D01*
X-4268Y8272D01*
X-4274Y8271D01*
X-4282Y8270D01*
X-4292Y8269D01*
X-4303Y8268D01*
X-4316Y8268D01*
X-4437D01*
Y8587D01*
X-4309D01*
X-4305Y8587D01*
D02*
G37*
G36*
X-4950Y8593D02*
X-4945Y8593D01*
X-4939Y8592D01*
X-4932Y8592D01*
X-4925Y8590D01*
X-4911Y8587D01*
X-4895Y8583D01*
X-4888Y8580D01*
X-4880Y8577D01*
X-4873Y8573D01*
X-4867Y8568D01*
X-4866Y8568D01*
X-4865Y8568D01*
X-4864Y8566D01*
X-4861Y8564D01*
X-4858Y8562D01*
X-4856Y8558D01*
X-4852Y8555D01*
X-4849Y8550D01*
X-4845Y8546D01*
X-4841Y8541D01*
X-4838Y8535D01*
X-4834Y8529D01*
X-4831Y8522D01*
X-4828Y8515D01*
X-4825Y8508D01*
X-4823Y8500D01*
X-4888Y8488D01*
Y8488D01*
X-4888Y8489D01*
X-4889Y8491D01*
X-4891Y8495D01*
X-4894Y8501D01*
X-4897Y8507D01*
X-4901Y8513D01*
X-4907Y8519D01*
X-4913Y8525D01*
X-4914Y8525D01*
X-4917Y8527D01*
X-4921Y8529D01*
X-4926Y8532D01*
X-4933Y8534D01*
X-4941Y8536D01*
X-4949Y8538D01*
X-4960Y8538D01*
X-4964D01*
X-4967Y8538D01*
X-4970Y8538D01*
X-4974Y8537D01*
X-4979Y8536D01*
X-4984Y8535D01*
X-4995Y8532D01*
X-5000Y8530D01*
X-5006Y8527D01*
X-5011Y8524D01*
X-5017Y8520D01*
X-5022Y8516D01*
X-5027Y8511D01*
X-5028Y8511D01*
X-5028Y8510D01*
X-5029Y8508D01*
X-5031Y8506D01*
X-5033Y8503D01*
X-5035Y8500D01*
X-5037Y8496D01*
X-5039Y8491D01*
X-5041Y8486D01*
X-5044Y8480D01*
X-5046Y8473D01*
X-5048Y8466D01*
X-5049Y8459D01*
X-5051Y8450D01*
X-5051Y8441D01*
X-5052Y8431D01*
Y8431D01*
Y8429D01*
Y8426D01*
X-5051Y8422D01*
X-5051Y8417D01*
X-5050Y8412D01*
X-5049Y8405D01*
X-5048Y8399D01*
X-5046Y8385D01*
X-5041Y8371D01*
X-5038Y8364D01*
X-5035Y8357D01*
X-5031Y8351D01*
X-5027Y8345D01*
X-5026Y8345D01*
X-5025Y8344D01*
X-5024Y8343D01*
X-5022Y8341D01*
X-5019Y8339D01*
X-5016Y8336D01*
X-5013Y8334D01*
X-5009Y8331D01*
X-5004Y8328D01*
X-4999Y8326D01*
X-4988Y8321D01*
X-4981Y8319D01*
X-4975Y8318D01*
X-4967Y8317D01*
X-4960Y8317D01*
X-4956D01*
X-4953Y8317D01*
X-4947Y8318D01*
X-4941Y8319D01*
X-4934Y8320D01*
X-4927Y8322D01*
X-4919Y8325D01*
X-4919D01*
X-4919Y8325D01*
X-4916Y8326D01*
X-4912Y8328D01*
X-4907Y8330D01*
X-4902Y8333D01*
X-4896Y8336D01*
X-4890Y8340D01*
X-4884Y8344D01*
Y8385D01*
X-4958D01*
Y8439D01*
X-4819D01*
Y8311D01*
X-4820Y8310D01*
X-4822Y8309D01*
X-4823Y8307D01*
X-4825Y8306D01*
X-4828Y8304D01*
X-4834Y8299D01*
X-4843Y8294D01*
X-4853Y8288D01*
X-4864Y8282D01*
X-4878Y8276D01*
X-4879D01*
X-4880Y8276D01*
X-4882Y8275D01*
X-4885Y8274D01*
X-4888Y8273D01*
X-4893Y8272D01*
X-4897Y8270D01*
X-4902Y8269D01*
X-4914Y8266D01*
X-4927Y8264D01*
X-4941Y8262D01*
X-4956Y8262D01*
X-4961D01*
X-4964Y8262D01*
X-4969D01*
X-4974Y8263D01*
X-4980Y8264D01*
X-4986Y8264D01*
X-4999Y8267D01*
X-5014Y8270D01*
X-5029Y8276D01*
X-5036Y8279D01*
X-5044Y8282D01*
X-5044Y8283D01*
X-5045Y8283D01*
X-5047Y8285D01*
X-5050Y8287D01*
X-5053Y8289D01*
X-5056Y8291D01*
X-5060Y8295D01*
X-5065Y8298D01*
X-5074Y8307D01*
X-5083Y8317D01*
X-5092Y8329D01*
X-5100Y8343D01*
Y8343D01*
X-5101Y8345D01*
X-5101Y8347D01*
X-5102Y8350D01*
X-5104Y8354D01*
X-5106Y8358D01*
X-5107Y8363D01*
X-5109Y8368D01*
X-5111Y8374D01*
X-5112Y8381D01*
X-5115Y8396D01*
X-5117Y8411D01*
X-5118Y8428D01*
Y8429D01*
Y8431D01*
Y8434D01*
X-5118Y8437D01*
Y8441D01*
X-5117Y8447D01*
X-5116Y8452D01*
X-5115Y8459D01*
X-5113Y8472D01*
X-5109Y8487D01*
X-5104Y8502D01*
X-5101Y8510D01*
X-5097Y8517D01*
X-5097Y8518D01*
X-5096Y8519D01*
X-5095Y8521D01*
X-5094Y8524D01*
X-5091Y8527D01*
X-5089Y8531D01*
X-5085Y8535D01*
X-5082Y8539D01*
X-5078Y8544D01*
X-5073Y8549D01*
X-5068Y8554D01*
X-5063Y8559D01*
X-5057Y8564D01*
X-5051Y8569D01*
X-5036Y8577D01*
X-5036D01*
X-5035Y8578D01*
X-5033Y8579D01*
X-5031Y8580D01*
X-5028Y8581D01*
X-5024Y8582D01*
X-5020Y8584D01*
X-5015Y8586D01*
X-5010Y8587D01*
X-5004Y8588D01*
X-4998Y8590D01*
X-4991Y8591D01*
X-4976Y8593D01*
X-4960Y8593D01*
X-4954D01*
X-4950Y8593D01*
D02*
G37*
G36*
X-5855Y6881D02*
X-5851D01*
X-5847Y6881D01*
X-5842Y6880D01*
X-5831Y6879D01*
X-5820Y6878D01*
X-5808Y6875D01*
X-5797Y6872D01*
X-5797D01*
X-5796Y6871D01*
X-5794Y6870D01*
X-5791Y6869D01*
X-5789Y6868D01*
X-5785Y6867D01*
X-5777Y6863D01*
X-5768Y6858D01*
X-5759Y6852D01*
X-5749Y6845D01*
X-5741Y6837D01*
X-5740Y6837D01*
X-5738Y6834D01*
X-5735Y6831D01*
X-5731Y6825D01*
X-5727Y6819D01*
X-5723Y6812D01*
X-5719Y6802D01*
X-5715Y6792D01*
Y6792D01*
X-5715Y6791D01*
Y6790D01*
X-5714Y6788D01*
X-5713Y6783D01*
X-5712Y6777D01*
X-5711Y6769D01*
X-5710Y6759D01*
X-5709Y6748D01*
X-5709Y6735D01*
Y6614D01*
X-6028D01*
Y6732D01*
Y6732D01*
Y6733D01*
Y6735D01*
Y6738D01*
Y6742D01*
X-6028Y6746D01*
X-6027Y6754D01*
X-6027Y6764D01*
X-6026Y6774D01*
X-6024Y6784D01*
X-6022Y6793D01*
Y6793D01*
X-6021Y6794D01*
X-6021Y6795D01*
X-6021Y6797D01*
X-6018Y6803D01*
X-6015Y6809D01*
X-6011Y6817D01*
X-6006Y6825D01*
X-6000Y6833D01*
X-5992Y6841D01*
Y6841D01*
X-5991Y6842D01*
X-5989Y6844D01*
X-5984Y6848D01*
X-5978Y6852D01*
X-5971Y6857D01*
X-5962Y6862D01*
X-5952Y6867D01*
X-5941Y6871D01*
X-5940D01*
X-5939Y6872D01*
X-5937Y6872D01*
X-5935Y6873D01*
X-5932Y6873D01*
X-5929Y6874D01*
X-5924Y6875D01*
X-5920Y6877D01*
X-5915Y6878D01*
X-5909Y6879D01*
X-5903Y6879D01*
X-5896Y6880D01*
X-5881Y6881D01*
X-5865Y6882D01*
X-5859D01*
X-5855Y6881D01*
D02*
G37*
G36*
X-5795Y6559D02*
X-5791Y6558D01*
X-5785Y6557D01*
X-5777Y6556D01*
X-5768Y6553D01*
X-5759Y6549D01*
X-5750Y6544D01*
X-5749D01*
X-5749Y6543D01*
X-5746Y6541D01*
X-5741Y6537D01*
X-5736Y6533D01*
X-5730Y6527D01*
X-5725Y6519D01*
X-5719Y6510D01*
X-5714Y6500D01*
Y6500D01*
X-5714Y6499D01*
X-5713Y6497D01*
X-5712Y6495D01*
X-5711Y6492D01*
X-5711Y6489D01*
X-5710Y6485D01*
X-5709Y6481D01*
X-5707Y6476D01*
X-5706Y6471D01*
X-5705Y6459D01*
X-5703Y6446D01*
X-5703Y6431D01*
Y6430D01*
Y6428D01*
Y6425D01*
X-5703Y6421D01*
X-5704Y6416D01*
X-5704Y6410D01*
X-5705Y6404D01*
X-5706Y6397D01*
X-5710Y6381D01*
X-5712Y6374D01*
X-5714Y6366D01*
X-5717Y6358D01*
X-5721Y6351D01*
X-5725Y6344D01*
X-5730Y6338D01*
X-5731Y6337D01*
X-5732Y6336D01*
X-5733Y6334D01*
X-5735Y6332D01*
X-5739Y6330D01*
X-5742Y6327D01*
X-5747Y6324D01*
X-5751Y6320D01*
X-5757Y6317D01*
X-5763Y6314D01*
X-5770Y6311D01*
X-5777Y6308D01*
X-5785Y6305D01*
X-5794Y6302D01*
X-5803Y6301D01*
X-5813Y6299D01*
X-5819Y6362D01*
X-5818D01*
X-5817Y6363D01*
X-5815D01*
X-5814Y6363D01*
X-5808Y6365D01*
X-5801Y6367D01*
X-5793Y6370D01*
X-5785Y6374D01*
X-5778Y6379D01*
X-5772Y6385D01*
X-5771Y6386D01*
X-5770Y6388D01*
X-5767Y6392D01*
X-5765Y6397D01*
X-5762Y6404D01*
X-5759Y6412D01*
X-5758Y6421D01*
X-5757Y6432D01*
Y6432D01*
Y6433D01*
Y6435D01*
Y6437D01*
X-5758Y6442D01*
X-5759Y6449D01*
X-5760Y6457D01*
X-5763Y6465D01*
X-5766Y6472D01*
X-5770Y6478D01*
X-5771Y6479D01*
X-5772Y6481D01*
X-5775Y6484D01*
X-5779Y6487D01*
X-5784Y6490D01*
X-5789Y6492D01*
X-5795Y6494D01*
X-5801Y6495D01*
X-5803D01*
X-5805Y6494D01*
X-5808Y6494D01*
X-5811Y6493D01*
X-5814Y6492D01*
X-5817Y6490D01*
X-5820Y6488D01*
X-5821Y6487D01*
X-5822Y6486D01*
X-5823Y6485D01*
X-5825Y6483D01*
X-5827Y6479D01*
X-5830Y6475D01*
X-5832Y6471D01*
X-5834Y6465D01*
Y6464D01*
X-5835Y6462D01*
X-5836Y6459D01*
X-5837Y6457D01*
X-5838Y6454D01*
X-5838Y6451D01*
X-5840Y6447D01*
X-5841Y6443D01*
X-5842Y6438D01*
X-5844Y6433D01*
X-5845Y6427D01*
X-5847Y6420D01*
X-5849Y6413D01*
Y6412D01*
X-5849Y6411D01*
X-5850Y6408D01*
X-5851Y6405D01*
X-5852Y6400D01*
X-5854Y6395D01*
X-5856Y6390D01*
X-5857Y6384D01*
X-5862Y6372D01*
X-5868Y6361D01*
X-5870Y6355D01*
X-5874Y6350D01*
X-5877Y6344D01*
X-5880Y6340D01*
X-5881Y6340D01*
X-5881Y6339D01*
X-5883Y6338D01*
X-5885Y6336D01*
X-5887Y6333D01*
X-5891Y6331D01*
X-5894Y6328D01*
X-5898Y6326D01*
X-5908Y6320D01*
X-5919Y6316D01*
X-5925Y6314D01*
X-5931Y6313D01*
X-5938Y6312D01*
X-5945Y6311D01*
X-5949D01*
X-5954Y6312D01*
X-5960Y6313D01*
X-5966Y6314D01*
X-5974Y6317D01*
X-5983Y6320D01*
X-5990Y6325D01*
X-5991D01*
X-5991Y6325D01*
X-5994Y6327D01*
X-5998Y6330D01*
X-6002Y6335D01*
X-6008Y6340D01*
X-6013Y6347D01*
X-6018Y6355D01*
X-6023Y6364D01*
Y6365D01*
X-6023Y6366D01*
X-6024Y6367D01*
X-6025Y6369D01*
X-6026Y6372D01*
X-6027Y6375D01*
X-6027Y6378D01*
X-6029Y6382D01*
X-6031Y6392D01*
X-6033Y6402D01*
X-6034Y6414D01*
X-6034Y6428D01*
Y6429D01*
Y6430D01*
Y6433D01*
X-6034Y6437D01*
X-6033Y6442D01*
X-6033Y6448D01*
X-6032Y6454D01*
X-6031Y6461D01*
X-6028Y6476D01*
X-6026Y6484D01*
X-6023Y6491D01*
X-6020Y6498D01*
X-6016Y6505D01*
X-6012Y6512D01*
X-6008Y6518D01*
X-6007Y6518D01*
X-6006Y6519D01*
X-6005Y6521D01*
X-6003Y6522D01*
X-6000Y6525D01*
X-5997Y6527D01*
X-5993Y6530D01*
X-5989Y6533D01*
X-5984Y6536D01*
X-5979Y6539D01*
X-5973Y6542D01*
X-5966Y6544D01*
X-5960Y6546D01*
X-5953Y6548D01*
X-5945Y6550D01*
X-5937Y6550D01*
X-5935Y6485D01*
X-5936D01*
X-5939Y6484D01*
X-5943Y6484D01*
X-5948Y6482D01*
X-5954Y6479D01*
X-5960Y6476D01*
X-5965Y6472D01*
X-5970Y6467D01*
X-5970Y6467D01*
X-5972Y6465D01*
X-5973Y6462D01*
X-5975Y6457D01*
X-5977Y6452D01*
X-5979Y6445D01*
X-5980Y6436D01*
X-5981Y6427D01*
Y6426D01*
Y6425D01*
Y6424D01*
Y6422D01*
X-5980Y6417D01*
X-5979Y6411D01*
X-5978Y6404D01*
X-5976Y6397D01*
X-5973Y6390D01*
X-5969Y6383D01*
X-5968Y6383D01*
X-5967Y6382D01*
X-5966Y6380D01*
X-5964Y6378D01*
X-5961Y6376D01*
X-5957Y6375D01*
X-5954Y6374D01*
X-5949Y6373D01*
X-5947D01*
X-5945Y6374D01*
X-5942Y6375D01*
X-5939Y6375D01*
X-5936Y6377D01*
X-5933Y6379D01*
X-5929Y6382D01*
X-5929Y6383D01*
X-5928Y6385D01*
X-5927Y6387D01*
X-5926Y6389D01*
X-5924Y6391D01*
X-5923Y6394D01*
X-5922Y6398D01*
X-5920Y6402D01*
X-5918Y6407D01*
X-5916Y6412D01*
X-5914Y6419D01*
X-5912Y6426D01*
X-5911Y6433D01*
X-5908Y6442D01*
Y6442D01*
X-5908Y6444D01*
X-5907Y6446D01*
X-5906Y6449D01*
X-5905Y6453D01*
X-5904Y6458D01*
X-5903Y6463D01*
X-5901Y6468D01*
X-5898Y6479D01*
X-5894Y6490D01*
X-5890Y6502D01*
X-5887Y6506D01*
X-5885Y6511D01*
Y6511D01*
X-5885Y6512D01*
X-5883Y6515D01*
X-5880Y6519D01*
X-5876Y6524D01*
X-5872Y6529D01*
X-5866Y6535D01*
X-5860Y6541D01*
X-5852Y6546D01*
X-5851Y6547D01*
X-5849Y6548D01*
X-5844Y6551D01*
X-5838Y6553D01*
X-5831Y6555D01*
X-5822Y6557D01*
X-5813Y6559D01*
X-5802Y6559D01*
X-5797D01*
X-5795Y6559D01*
D02*
G37*
G36*
X2599Y6821D02*
X2604Y6821D01*
X2610Y6820D01*
X2616Y6819D01*
X2623Y6819D01*
X2638Y6815D01*
X2645Y6813D01*
X2652Y6811D01*
X2660Y6807D01*
X2667Y6804D01*
X2673Y6800D01*
X2679Y6795D01*
X2680Y6795D01*
X2681Y6794D01*
X2682Y6792D01*
X2684Y6790D01*
X2686Y6788D01*
X2689Y6784D01*
X2692Y6781D01*
X2695Y6776D01*
X2698Y6771D01*
X2700Y6766D01*
X2703Y6760D01*
X2705Y6754D01*
X2708Y6747D01*
X2710Y6740D01*
X2711Y6733D01*
X2711Y6724D01*
X2647Y6722D01*
Y6722D01*
Y6723D01*
X2646Y6726D01*
X2645Y6730D01*
X2643Y6735D01*
X2641Y6741D01*
X2638Y6747D01*
X2633Y6752D01*
X2629Y6757D01*
X2628Y6758D01*
X2626Y6759D01*
X2623Y6761D01*
X2619Y6763D01*
X2613Y6764D01*
X2606Y6766D01*
X2598Y6768D01*
X2588Y6768D01*
X2584D01*
X2578Y6768D01*
X2572Y6767D01*
X2566Y6765D01*
X2558Y6763D01*
X2551Y6760D01*
X2545Y6756D01*
X2544Y6756D01*
X2543Y6755D01*
X2541Y6753D01*
X2540Y6751D01*
X2538Y6748D01*
X2536Y6745D01*
X2535Y6741D01*
X2535Y6736D01*
Y6736D01*
Y6734D01*
X2535Y6732D01*
X2536Y6730D01*
X2537Y6727D01*
X2538Y6723D01*
X2541Y6720D01*
X2544Y6717D01*
X2544Y6716D01*
X2547Y6715D01*
X2548Y6714D01*
X2550Y6713D01*
X2553Y6712D01*
X2556Y6710D01*
X2560Y6709D01*
X2564Y6707D01*
X2569Y6705D01*
X2574Y6704D01*
X2580Y6702D01*
X2587Y6700D01*
X2595Y6698D01*
X2603Y6696D01*
X2603D01*
X2605Y6695D01*
X2608Y6695D01*
X2611Y6694D01*
X2614Y6693D01*
X2619Y6691D01*
X2624Y6690D01*
X2629Y6689D01*
X2640Y6685D01*
X2652Y6681D01*
X2663Y6677D01*
X2668Y6675D01*
X2672Y6673D01*
X2673D01*
X2673Y6672D01*
X2676Y6670D01*
X2680Y6667D01*
X2685Y6664D01*
X2691Y6659D01*
X2697Y6654D01*
X2703Y6647D01*
X2708Y6640D01*
X2708Y6639D01*
X2710Y6636D01*
X2712Y6632D01*
X2714Y6626D01*
X2717Y6618D01*
X2719Y6610D01*
X2720Y6600D01*
X2721Y6589D01*
Y6588D01*
Y6588D01*
Y6586D01*
Y6584D01*
X2720Y6582D01*
X2720Y6579D01*
X2719Y6572D01*
X2717Y6564D01*
X2714Y6555D01*
X2710Y6546D01*
X2705Y6537D01*
Y6537D01*
X2704Y6536D01*
X2702Y6533D01*
X2699Y6529D01*
X2694Y6524D01*
X2688Y6518D01*
X2680Y6512D01*
X2672Y6507D01*
X2662Y6502D01*
X2661D01*
X2660Y6501D01*
X2659Y6501D01*
X2657Y6500D01*
X2654Y6499D01*
X2651Y6498D01*
X2647Y6497D01*
X2643Y6496D01*
X2638Y6495D01*
X2632Y6494D01*
X2620Y6492D01*
X2607Y6491D01*
X2592Y6490D01*
X2586D01*
X2582Y6491D01*
X2577Y6491D01*
X2572Y6491D01*
X2565Y6492D01*
X2558Y6494D01*
X2543Y6497D01*
X2535Y6499D01*
X2528Y6502D01*
X2520Y6505D01*
X2512Y6509D01*
X2505Y6513D01*
X2499Y6518D01*
X2499Y6518D01*
X2498Y6519D01*
X2496Y6521D01*
X2494Y6523D01*
X2491Y6526D01*
X2488Y6530D01*
X2485Y6534D01*
X2482Y6539D01*
X2479Y6544D01*
X2475Y6550D01*
X2472Y6557D01*
X2469Y6564D01*
X2467Y6572D01*
X2464Y6581D01*
X2462Y6590D01*
X2461Y6600D01*
X2523Y6606D01*
Y6606D01*
X2524Y6605D01*
Y6603D01*
X2524Y6601D01*
X2526Y6595D01*
X2529Y6588D01*
X2531Y6581D01*
X2535Y6573D01*
X2540Y6566D01*
X2546Y6559D01*
X2547Y6559D01*
X2549Y6557D01*
X2553Y6555D01*
X2559Y6552D01*
X2566Y6549D01*
X2573Y6547D01*
X2583Y6545D01*
X2593Y6545D01*
X2598D01*
X2604Y6546D01*
X2611Y6546D01*
X2618Y6548D01*
X2626Y6550D01*
X2633Y6553D01*
X2640Y6558D01*
X2641Y6558D01*
X2643Y6560D01*
X2645Y6563D01*
X2648Y6566D01*
X2651Y6571D01*
X2654Y6576D01*
X2656Y6582D01*
X2656Y6588D01*
Y6589D01*
Y6590D01*
X2656Y6593D01*
X2655Y6595D01*
X2654Y6598D01*
X2653Y6601D01*
X2651Y6605D01*
X2649Y6608D01*
X2649Y6608D01*
X2648Y6609D01*
X2646Y6611D01*
X2644Y6612D01*
X2641Y6615D01*
X2637Y6617D01*
X2632Y6619D01*
X2626Y6622D01*
X2626D01*
X2624Y6623D01*
X2620Y6624D01*
X2618Y6625D01*
X2615Y6625D01*
X2612Y6626D01*
X2608Y6627D01*
X2604Y6628D01*
X2600Y6630D01*
X2594Y6631D01*
X2588Y6632D01*
X2582Y6634D01*
X2574Y6636D01*
X2574D01*
X2572Y6637D01*
X2569Y6637D01*
X2566Y6638D01*
X2562Y6640D01*
X2557Y6641D01*
X2552Y6643D01*
X2546Y6645D01*
X2534Y6649D01*
X2522Y6655D01*
X2516Y6658D01*
X2511Y6661D01*
X2506Y6664D01*
X2502Y6667D01*
X2501Y6668D01*
X2500Y6669D01*
X2499Y6670D01*
X2497Y6672D01*
X2495Y6675D01*
X2493Y6678D01*
X2490Y6681D01*
X2487Y6685D01*
X2482Y6695D01*
X2477Y6706D01*
X2475Y6712D01*
X2474Y6718D01*
X2473Y6725D01*
X2473Y6732D01*
Y6733D01*
Y6733D01*
Y6734D01*
Y6736D01*
X2474Y6741D01*
X2474Y6747D01*
X2476Y6754D01*
X2478Y6762D01*
X2481Y6770D01*
X2486Y6778D01*
Y6778D01*
X2486Y6779D01*
X2489Y6782D01*
X2492Y6785D01*
X2496Y6790D01*
X2502Y6795D01*
X2509Y6801D01*
X2517Y6806D01*
X2526Y6810D01*
X2526D01*
X2527Y6811D01*
X2529Y6811D01*
X2530Y6812D01*
X2533Y6813D01*
X2536Y6814D01*
X2540Y6815D01*
X2544Y6816D01*
X2553Y6818D01*
X2564Y6820D01*
X2576Y6821D01*
X2589Y6822D01*
X2595D01*
X2599Y6821D01*
D02*
G37*
G36*
X3386Y6496D02*
X3316D01*
X3289Y6569D01*
X3160D01*
X3134Y6496D01*
X3065D01*
X3189Y6816D01*
X3258D01*
X3386Y6496D01*
D02*
G37*
G36*
X3273Y7800D02*
X3282Y7799D01*
X3292Y7799D01*
X3302Y7797D01*
X3312Y7796D01*
X3320Y7794D01*
X3321D01*
X3322Y7793D01*
X3323Y7793D01*
X3325Y7792D01*
X3331Y7790D01*
X3337Y7787D01*
X3344Y7782D01*
X3353Y7777D01*
X3361Y7771D01*
X3368Y7764D01*
X3369D01*
X3369Y7763D01*
X3372Y7760D01*
X3375Y7756D01*
X3380Y7750D01*
X3385Y7742D01*
X3390Y7733D01*
X3395Y7723D01*
X3399Y7712D01*
Y7712D01*
X3399Y7711D01*
X3400Y7709D01*
X3401Y7707D01*
X3401Y7704D01*
X3402Y7700D01*
X3403Y7696D01*
X3404Y7691D01*
X3405Y7686D01*
X3406Y7680D01*
X3407Y7674D01*
X3408Y7667D01*
X3409Y7653D01*
X3410Y7637D01*
Y7636D01*
Y7635D01*
Y7633D01*
Y7630D01*
X3409Y7627D01*
Y7623D01*
X3409Y7618D01*
X3408Y7613D01*
X3407Y7603D01*
X3405Y7592D01*
X3403Y7580D01*
X3399Y7569D01*
Y7569D01*
X3399Y7568D01*
X3398Y7566D01*
X3397Y7563D01*
X3396Y7560D01*
X3394Y7557D01*
X3391Y7549D01*
X3386Y7540D01*
X3380Y7530D01*
X3373Y7521D01*
X3365Y7512D01*
X3364Y7511D01*
X3362Y7509D01*
X3358Y7507D01*
X3353Y7503D01*
X3347Y7499D01*
X3339Y7495D01*
X3330Y7490D01*
X3320Y7487D01*
X3319D01*
X3319Y7486D01*
X3318D01*
X3316Y7486D01*
X3311Y7485D01*
X3305Y7484D01*
X3297Y7482D01*
X3287Y7481D01*
X3276Y7481D01*
X3263Y7480D01*
X3142D01*
Y7800D01*
X3270D01*
X3273Y7800D01*
D02*
G37*
G36*
X2629Y7806D02*
X2634Y7805D01*
X2640Y7805D01*
X2646Y7804D01*
X2653Y7803D01*
X2668Y7800D01*
X2683Y7795D01*
X2691Y7793D01*
X2699Y7789D01*
X2705Y7786D01*
X2712Y7781D01*
X2712Y7781D01*
X2713Y7780D01*
X2715Y7778D01*
X2718Y7776D01*
X2720Y7774D01*
X2723Y7771D01*
X2726Y7767D01*
X2730Y7763D01*
X2734Y7758D01*
X2737Y7753D01*
X2741Y7748D01*
X2744Y7741D01*
X2748Y7735D01*
X2751Y7728D01*
X2754Y7720D01*
X2755Y7712D01*
X2691Y7700D01*
Y7701D01*
X2691Y7701D01*
X2690Y7704D01*
X2688Y7708D01*
X2685Y7714D01*
X2682Y7720D01*
X2677Y7726D01*
X2672Y7732D01*
X2665Y7737D01*
X2664Y7738D01*
X2662Y7739D01*
X2658Y7742D01*
X2653Y7744D01*
X2646Y7747D01*
X2638Y7749D01*
X2629Y7751D01*
X2619Y7751D01*
X2615D01*
X2612Y7751D01*
X2608Y7750D01*
X2604Y7750D01*
X2600Y7749D01*
X2595Y7748D01*
X2584Y7745D01*
X2578Y7742D01*
X2573Y7739D01*
X2567Y7736D01*
X2562Y7733D01*
X2557Y7728D01*
X2552Y7724D01*
X2551Y7723D01*
X2551Y7722D01*
X2549Y7721D01*
X2548Y7719D01*
X2546Y7716D01*
X2544Y7713D01*
X2541Y7709D01*
X2540Y7704D01*
X2537Y7698D01*
X2535Y7692D01*
X2533Y7686D01*
X2531Y7679D01*
X2529Y7671D01*
X2528Y7662D01*
X2528Y7654D01*
X2527Y7644D01*
Y7643D01*
Y7642D01*
Y7638D01*
X2528Y7635D01*
X2528Y7630D01*
X2529Y7624D01*
X2529Y7618D01*
X2530Y7612D01*
X2533Y7598D01*
X2538Y7583D01*
X2541Y7576D01*
X2544Y7570D01*
X2548Y7563D01*
X2552Y7558D01*
X2553Y7557D01*
X2553Y7557D01*
X2555Y7555D01*
X2557Y7553D01*
X2560Y7551D01*
X2562Y7549D01*
X2566Y7546D01*
X2570Y7544D01*
X2575Y7541D01*
X2579Y7539D01*
X2591Y7534D01*
X2597Y7532D01*
X2604Y7531D01*
X2611Y7530D01*
X2619Y7529D01*
X2622D01*
X2626Y7530D01*
X2632Y7530D01*
X2638Y7531D01*
X2645Y7533D01*
X2652Y7534D01*
X2659Y7537D01*
X2660D01*
X2660Y7538D01*
X2663Y7539D01*
X2667Y7540D01*
X2671Y7543D01*
X2677Y7545D01*
X2683Y7549D01*
X2689Y7552D01*
X2694Y7557D01*
Y7598D01*
X2620D01*
Y7652D01*
X2760D01*
Y7523D01*
X2759Y7522D01*
X2757Y7521D01*
X2756Y7520D01*
X2754Y7518D01*
X2751Y7516D01*
X2745Y7512D01*
X2736Y7507D01*
X2726Y7501D01*
X2714Y7495D01*
X2700Y7489D01*
X2700D01*
X2699Y7489D01*
X2697Y7488D01*
X2694Y7487D01*
X2690Y7486D01*
X2686Y7484D01*
X2681Y7483D01*
X2676Y7482D01*
X2665Y7479D01*
X2651Y7477D01*
X2638Y7475D01*
X2623Y7474D01*
X2618D01*
X2614Y7475D01*
X2610D01*
X2605Y7475D01*
X2599Y7476D01*
X2593Y7477D01*
X2579Y7479D01*
X2565Y7483D01*
X2549Y7488D01*
X2542Y7491D01*
X2535Y7495D01*
X2535Y7496D01*
X2534Y7496D01*
X2531Y7497D01*
X2529Y7499D01*
X2526Y7501D01*
X2523Y7504D01*
X2518Y7507D01*
X2514Y7511D01*
X2505Y7519D01*
X2496Y7530D01*
X2487Y7542D01*
X2479Y7556D01*
Y7556D01*
X2478Y7557D01*
X2477Y7560D01*
X2476Y7563D01*
X2475Y7566D01*
X2473Y7570D01*
X2472Y7575D01*
X2470Y7581D01*
X2468Y7587D01*
X2467Y7594D01*
X2463Y7608D01*
X2462Y7624D01*
X2461Y7641D01*
Y7642D01*
Y7643D01*
Y7646D01*
X2461Y7649D01*
Y7654D01*
X2462Y7659D01*
X2462Y7665D01*
X2463Y7671D01*
X2466Y7685D01*
X2469Y7700D01*
X2474Y7715D01*
X2478Y7722D01*
X2481Y7730D01*
X2482Y7730D01*
X2482Y7732D01*
X2484Y7733D01*
X2485Y7736D01*
X2487Y7739D01*
X2490Y7743D01*
X2493Y7747D01*
X2497Y7752D01*
X2501Y7757D01*
X2505Y7762D01*
X2511Y7767D01*
X2516Y7772D01*
X2522Y7776D01*
X2528Y7782D01*
X2542Y7790D01*
X2543D01*
X2544Y7791D01*
X2546Y7791D01*
X2548Y7793D01*
X2551Y7794D01*
X2554Y7795D01*
X2559Y7796D01*
X2564Y7798D01*
X2569Y7800D01*
X2575Y7801D01*
X2581Y7802D01*
X2588Y7804D01*
X2602Y7806D01*
X2619Y7806D01*
X2625D01*
X2629Y7806D01*
D02*
G37*
G36*
X3074Y7480D02*
X3009D01*
X2879Y7691D01*
Y7480D01*
X2820D01*
Y7800D01*
X2882D01*
X3014Y7585D01*
Y7800D01*
X3074D01*
Y7480D01*
D02*
G37*
G36*
X5783Y-1220D02*
X5714D01*
X5651Y-982D01*
X5587Y-1220D01*
X5517D01*
X5441Y-901D01*
X5507D01*
X5555Y-1121D01*
X5613Y-901D01*
X5691D01*
X5747Y-1124D01*
X5796Y-901D01*
X5861D01*
X5783Y-1220D01*
D02*
G37*
G36*
X6026Y-901D02*
X6034Y-902D01*
X6044Y-902D01*
X6054Y-904D01*
X6064Y-905D01*
X6073Y-907D01*
X6073D01*
X6074Y-908D01*
X6075Y-908D01*
X6077Y-909D01*
X6083Y-911D01*
X6089Y-914D01*
X6097Y-918D01*
X6105Y-923D01*
X6113Y-929D01*
X6121Y-937D01*
X6121D01*
X6122Y-938D01*
X6124Y-940D01*
X6128Y-945D01*
X6132Y-951D01*
X6137Y-959D01*
X6142Y-967D01*
X6147Y-977D01*
X6151Y-989D01*
Y-989D01*
X6152Y-990D01*
X6152Y-992D01*
X6153Y-994D01*
X6154Y-997D01*
X6154Y-1001D01*
X6155Y-1005D01*
X6157Y-1009D01*
X6158Y-1014D01*
X6159Y-1020D01*
X6160Y-1026D01*
X6160Y-1033D01*
X6161Y-1048D01*
X6162Y-1064D01*
Y-1064D01*
Y-1066D01*
Y-1068D01*
Y-1070D01*
X6161Y-1074D01*
Y-1078D01*
X6161Y-1082D01*
X6160Y-1087D01*
X6160Y-1098D01*
X6158Y-1109D01*
X6155Y-1121D01*
X6152Y-1132D01*
Y-1132D01*
X6151Y-1133D01*
X6150Y-1135D01*
X6149Y-1138D01*
X6148Y-1141D01*
X6147Y-1144D01*
X6143Y-1152D01*
X6138Y-1161D01*
X6132Y-1171D01*
X6125Y-1180D01*
X6118Y-1189D01*
X6117Y-1190D01*
X6114Y-1191D01*
X6111Y-1194D01*
X6105Y-1198D01*
X6099Y-1202D01*
X6092Y-1206D01*
X6082Y-1210D01*
X6072Y-1214D01*
X6072D01*
X6071Y-1214D01*
X6070D01*
X6069Y-1215D01*
X6063Y-1216D01*
X6057Y-1217D01*
X6049Y-1219D01*
X6039Y-1220D01*
X6028Y-1220D01*
X6015Y-1220D01*
X5894D01*
Y-901D01*
X6022D01*
X6026Y-901D01*
D02*
G37*
G36*
X5296Y-895D02*
X5301Y-896D01*
X5307Y-896D01*
X5313Y-897D01*
X5320Y-898D01*
X5334Y-901D01*
X5342Y-904D01*
X5349Y-906D01*
X5357Y-909D01*
X5364Y-913D01*
X5370Y-917D01*
X5376Y-922D01*
X5376Y-922D01*
X5377Y-923D01*
X5379Y-924D01*
X5381Y-926D01*
X5383Y-929D01*
X5386Y-932D01*
X5388Y-936D01*
X5392Y-940D01*
X5394Y-945D01*
X5397Y-950D01*
X5400Y-956D01*
X5402Y-963D01*
X5405Y-969D01*
X5407Y-977D01*
X5408Y-984D01*
X5408Y-992D01*
X5344Y-995D01*
Y-994D01*
Y-994D01*
X5343Y-990D01*
X5342Y-986D01*
X5340Y-981D01*
X5338Y-975D01*
X5334Y-970D01*
X5330Y-964D01*
X5326Y-959D01*
X5325Y-959D01*
X5323Y-958D01*
X5320Y-956D01*
X5315Y-954D01*
X5310Y-952D01*
X5303Y-950D01*
X5295Y-949D01*
X5285Y-948D01*
X5280D01*
X5275Y-949D01*
X5269Y-950D01*
X5262Y-951D01*
X5255Y-953D01*
X5248Y-956D01*
X5242Y-960D01*
X5241Y-961D01*
X5240Y-962D01*
X5238Y-963D01*
X5236Y-965D01*
X5235Y-968D01*
X5233Y-972D01*
X5232Y-976D01*
X5231Y-980D01*
Y-981D01*
Y-982D01*
X5232Y-984D01*
X5233Y-987D01*
X5234Y-990D01*
X5235Y-993D01*
X5237Y-996D01*
X5241Y-1000D01*
X5241Y-1000D01*
X5243Y-1001D01*
X5245Y-1002D01*
X5247Y-1003D01*
X5249Y-1005D01*
X5253Y-1006D01*
X5256Y-1007D01*
X5261Y-1009D01*
X5266Y-1011D01*
X5271Y-1013D01*
X5277Y-1015D01*
X5284Y-1017D01*
X5291Y-1019D01*
X5300Y-1021D01*
X5300D01*
X5302Y-1021D01*
X5304Y-1022D01*
X5308Y-1023D01*
X5311Y-1024D01*
X5316Y-1025D01*
X5321Y-1026D01*
X5326Y-1028D01*
X5337Y-1032D01*
X5349Y-1035D01*
X5360Y-1039D01*
X5364Y-1042D01*
X5369Y-1044D01*
X5370D01*
X5370Y-1044D01*
X5373Y-1046D01*
X5377Y-1049D01*
X5382Y-1053D01*
X5388Y-1057D01*
X5394Y-1063D01*
X5400Y-1069D01*
X5405Y-1077D01*
X5405Y-1078D01*
X5407Y-1080D01*
X5409Y-1085D01*
X5411Y-1091D01*
X5413Y-1098D01*
X5416Y-1107D01*
X5417Y-1117D01*
X5418Y-1128D01*
Y-1128D01*
Y-1129D01*
Y-1130D01*
Y-1132D01*
X5417Y-1135D01*
X5417Y-1138D01*
X5416Y-1144D01*
X5414Y-1153D01*
X5411Y-1161D01*
X5407Y-1170D01*
X5402Y-1179D01*
Y-1180D01*
X5401Y-1180D01*
X5399Y-1183D01*
X5395Y-1188D01*
X5391Y-1193D01*
X5385Y-1199D01*
X5377Y-1204D01*
X5369Y-1210D01*
X5358Y-1215D01*
X5358D01*
X5357Y-1215D01*
X5356Y-1216D01*
X5353Y-1217D01*
X5351Y-1218D01*
X5347Y-1219D01*
X5344Y-1220D01*
X5340Y-1220D01*
X5334Y-1222D01*
X5329Y-1223D01*
X5317Y-1225D01*
X5304Y-1226D01*
X5289Y-1226D01*
X5283D01*
X5279Y-1226D01*
X5274Y-1226D01*
X5268Y-1225D01*
X5262Y-1224D01*
X5255Y-1223D01*
X5240Y-1220D01*
X5232Y-1217D01*
X5224Y-1215D01*
X5217Y-1212D01*
X5209Y-1208D01*
X5202Y-1204D01*
X5196Y-1199D01*
X5195Y-1198D01*
X5194Y-1197D01*
X5193Y-1196D01*
X5191Y-1194D01*
X5188Y-1190D01*
X5185Y-1187D01*
X5182Y-1183D01*
X5179Y-1178D01*
X5175Y-1172D01*
X5172Y-1166D01*
X5169Y-1159D01*
X5166Y-1152D01*
X5163Y-1144D01*
X5161Y-1135D01*
X5159Y-1126D01*
X5157Y-1117D01*
X5220Y-1111D01*
Y-1111D01*
X5221Y-1112D01*
Y-1114D01*
X5221Y-1116D01*
X5223Y-1121D01*
X5225Y-1128D01*
X5228Y-1136D01*
X5232Y-1144D01*
X5237Y-1151D01*
X5243Y-1157D01*
X5244Y-1158D01*
X5246Y-1159D01*
X5250Y-1162D01*
X5255Y-1165D01*
X5262Y-1167D01*
X5270Y-1170D01*
X5279Y-1172D01*
X5290Y-1172D01*
X5295D01*
X5301Y-1171D01*
X5308Y-1170D01*
X5315Y-1169D01*
X5323Y-1166D01*
X5330Y-1163D01*
X5337Y-1159D01*
X5338Y-1159D01*
X5340Y-1157D01*
X5342Y-1154D01*
X5345Y-1150D01*
X5348Y-1146D01*
X5351Y-1140D01*
X5352Y-1135D01*
X5353Y-1128D01*
Y-1128D01*
Y-1126D01*
X5352Y-1124D01*
X5352Y-1121D01*
X5351Y-1118D01*
X5350Y-1115D01*
X5348Y-1112D01*
X5346Y-1109D01*
X5346Y-1108D01*
X5345Y-1107D01*
X5343Y-1106D01*
X5341Y-1104D01*
X5338Y-1102D01*
X5333Y-1099D01*
X5329Y-1097D01*
X5323Y-1095D01*
X5322D01*
X5321Y-1094D01*
X5317Y-1093D01*
X5315Y-1092D01*
X5312Y-1092D01*
X5309Y-1091D01*
X5305Y-1089D01*
X5301Y-1088D01*
X5297Y-1087D01*
X5291Y-1086D01*
X5285Y-1084D01*
X5279Y-1082D01*
X5271Y-1080D01*
X5271D01*
X5269Y-1080D01*
X5266Y-1079D01*
X5263Y-1078D01*
X5259Y-1077D01*
X5254Y-1075D01*
X5248Y-1074D01*
X5242Y-1072D01*
X5230Y-1067D01*
X5219Y-1062D01*
X5213Y-1059D01*
X5208Y-1056D01*
X5203Y-1052D01*
X5199Y-1049D01*
X5198Y-1049D01*
X5197Y-1048D01*
X5196Y-1046D01*
X5194Y-1044D01*
X5192Y-1042D01*
X5189Y-1038D01*
X5187Y-1035D01*
X5184Y-1031D01*
X5179Y-1021D01*
X5174Y-1010D01*
X5172Y-1004D01*
X5171Y-998D01*
X5170Y-991D01*
X5169Y-984D01*
Y-984D01*
Y-983D01*
Y-982D01*
Y-980D01*
X5170Y-976D01*
X5171Y-970D01*
X5173Y-963D01*
X5175Y-955D01*
X5178Y-947D01*
X5183Y-939D01*
Y-938D01*
X5183Y-938D01*
X5186Y-935D01*
X5188Y-931D01*
X5193Y-927D01*
X5199Y-922D01*
X5206Y-916D01*
X5213Y-911D01*
X5223Y-906D01*
X5223D01*
X5224Y-906D01*
X5225Y-905D01*
X5227Y-904D01*
X5230Y-904D01*
X5233Y-903D01*
X5236Y-902D01*
X5241Y-900D01*
X5250Y-898D01*
X5261Y-897D01*
X5273Y-895D01*
X5286Y-895D01*
X5291D01*
X5296Y-895D01*
D02*
G37*
G36*
X5168Y9525D02*
X4840D01*
Y9456D01*
X5210D01*
X5104Y9338D01*
X4840D01*
Y9268D01*
X5265D01*
X5149Y9140D01*
X4672D01*
Y9653D01*
X5282D01*
X5168Y9525D01*
D02*
G37*
G36*
X-2096Y-3259D02*
X-1986Y-3425D01*
X-2064D01*
X-2135Y-3317D01*
X-2206Y-3425D01*
X-2283D01*
X-2173Y-3259D01*
X-2273Y-3105D01*
X-2198D01*
X-2135Y-3201D01*
X-2071Y-3105D01*
X-1996D01*
X-2096Y-3259D01*
D02*
G37*
G36*
X-2928Y-3094D02*
Y-3228D01*
X-2993D01*
Y-3094D01*
X-3110Y-2909D01*
X-3034D01*
X-2959Y-3035D01*
X-2886Y-2909D01*
X-2811D01*
X-2928Y-3094D01*
D02*
G37*
G36*
X3881Y9535D02*
Y9259D01*
X3763Y9141D01*
X3343D01*
X3226Y9258D01*
Y9535D01*
X3343Y9653D01*
X3763D01*
X3881Y9535D01*
D02*
G37*
G36*
X-2896Y-3471D02*
X-3072Y-3686D01*
X-2889D01*
Y-3740D01*
X-3150D01*
Y-3682D01*
X-2981Y-3475D01*
X-3130D01*
Y-3420D01*
X-2896D01*
Y-3471D01*
D02*
G37*
G36*
X4729Y10349D02*
Y10065D01*
X4620D01*
X4769Y9955D01*
X4559D01*
X4536Y9981D01*
X4511Y9955D01*
X4190D01*
X4073Y10071D01*
Y10349D01*
X4190Y10467D01*
X4610D01*
X4729Y10349D01*
D02*
G37*
G36*
X4690Y2804D02*
X4800Y2638D01*
X4723D01*
X4652Y2746D01*
X4581Y2638D01*
X4503D01*
X4614Y2804D01*
X4513Y2957D01*
X4589D01*
X4652Y2862D01*
X4715Y2957D01*
X4791D01*
X4690Y2804D01*
D02*
G37*
G36*
X2427Y9396D02*
X2282Y9140D01*
X1772D01*
Y9653D01*
X2282D01*
X2427Y9396D01*
D02*
G37*
G36*
X3144Y9492D02*
X3058Y9378D01*
X3144Y9294D01*
Y9055D01*
X2976Y9144D01*
Y9267D01*
X2935Y9307D01*
X2663D01*
Y9141D01*
X2495D01*
Y9653D01*
X3027D01*
X3144Y9492D01*
D02*
G37*
G36*
X3259Y10350D02*
Y9869D01*
X3091Y9957D01*
Y10097D01*
X2808D01*
Y9954D01*
X2640Y9955D01*
Y10350D01*
X2758Y10467D01*
X3141D01*
X3259Y10350D01*
D02*
G37*
G36*
X3991Y10305D02*
X3905Y10191D01*
X3991Y10108D01*
Y9869D01*
X3824Y9957D01*
Y10080D01*
X3782Y10120D01*
X3510D01*
Y9955D01*
X3343D01*
Y10467D01*
X3874D01*
X3991Y10305D01*
D02*
G37*
G36*
X5591Y-606D02*
X5405D01*
X5406Y-606D01*
X5406Y-607D01*
X5407Y-609D01*
X5409Y-611D01*
X5411Y-613D01*
X5414Y-616D01*
X5416Y-620D01*
X5419Y-624D01*
X5422Y-629D01*
X5425Y-633D01*
X5428Y-639D01*
X5431Y-644D01*
X5437Y-656D01*
X5442Y-669D01*
X5398D01*
Y-669D01*
X5397Y-669D01*
X5397Y-667D01*
X5397Y-666D01*
X5395Y-662D01*
X5393Y-657D01*
X5390Y-651D01*
X5386Y-644D01*
X5380Y-636D01*
X5374Y-628D01*
X5374Y-627D01*
X5374Y-627D01*
X5373Y-626D01*
X5371Y-624D01*
X5367Y-620D01*
X5363Y-616D01*
X5357Y-610D01*
X5349Y-605D01*
X5342Y-600D01*
X5333Y-597D01*
Y-557D01*
X5591D01*
Y-606D01*
D02*
G37*
G36*
X4468Y2789D02*
Y2788D01*
Y2787D01*
Y2783D01*
Y2780D01*
Y2775D01*
X4467Y2769D01*
Y2763D01*
Y2757D01*
X4466Y2744D01*
X4465Y2730D01*
X4465Y2724D01*
X4464Y2718D01*
X4463Y2713D01*
X4462Y2708D01*
Y2707D01*
X4462Y2707D01*
Y2705D01*
X4461Y2704D01*
X4460Y2699D01*
X4458Y2694D01*
X4455Y2687D01*
X4452Y2681D01*
X4448Y2674D01*
X4443Y2667D01*
X4442Y2666D01*
X4440Y2665D01*
X4437Y2662D01*
X4433Y2658D01*
X4427Y2654D01*
X4421Y2650D01*
X4414Y2645D01*
X4405Y2641D01*
X4405D01*
X4404Y2641D01*
X4403Y2641D01*
X4401Y2640D01*
X4399Y2639D01*
X4396Y2638D01*
X4392Y2637D01*
X4389Y2637D01*
X4380Y2635D01*
X4369Y2633D01*
X4357Y2632D01*
X4344Y2632D01*
X4336D01*
X4332Y2632D01*
X4328D01*
X4323Y2633D01*
X4318Y2633D01*
X4307Y2634D01*
X4295Y2636D01*
X4284Y2639D01*
X4279Y2640D01*
X4274Y2642D01*
X4274D01*
X4273Y2642D01*
X4270Y2644D01*
X4266Y2646D01*
X4261Y2649D01*
X4255Y2654D01*
X4248Y2658D01*
X4242Y2664D01*
X4237Y2670D01*
X4236Y2671D01*
X4234Y2672D01*
X4232Y2676D01*
X4229Y2681D01*
X4226Y2686D01*
X4223Y2692D01*
X4221Y2698D01*
X4219Y2705D01*
Y2706D01*
X4218Y2707D01*
Y2708D01*
X4218Y2710D01*
X4217Y2713D01*
X4217Y2717D01*
X4216Y2721D01*
X4216Y2726D01*
X4215Y2731D01*
X4214Y2737D01*
X4214Y2744D01*
X4214Y2751D01*
X4213Y2759D01*
Y2768D01*
X4213Y2777D01*
Y2787D01*
Y2957D01*
X4277D01*
Y2784D01*
Y2783D01*
Y2782D01*
Y2780D01*
Y2777D01*
Y2774D01*
Y2770D01*
X4278Y2762D01*
Y2752D01*
X4278Y2744D01*
X4279Y2739D01*
Y2736D01*
X4279Y2733D01*
X4280Y2730D01*
Y2729D01*
X4281Y2727D01*
X4282Y2723D01*
X4284Y2719D01*
X4286Y2714D01*
X4290Y2708D01*
X4294Y2703D01*
X4299Y2698D01*
X4300Y2698D01*
X4302Y2696D01*
X4305Y2695D01*
X4310Y2693D01*
X4317Y2690D01*
X4324Y2689D01*
X4332Y2687D01*
X4342Y2687D01*
X4347D01*
X4351Y2687D01*
X4357Y2688D01*
X4364Y2690D01*
X4371Y2691D01*
X4378Y2694D01*
X4383Y2698D01*
X4384Y2698D01*
X4385Y2700D01*
X4388Y2702D01*
X4390Y2705D01*
X4393Y2709D01*
X4396Y2714D01*
X4398Y2719D01*
X4400Y2725D01*
Y2726D01*
X4400Y2728D01*
X4401Y2733D01*
X4402Y2738D01*
Y2742D01*
X4402Y2746D01*
Y2751D01*
X4403Y2755D01*
Y2761D01*
X4403Y2767D01*
Y2773D01*
Y2780D01*
Y2957D01*
X4468D01*
Y2789D01*
D02*
G37*
G36*
X4179Y2638D02*
X4109D01*
X4081Y2710D01*
X3953D01*
X3927Y2638D01*
X3858D01*
X3982Y2957D01*
X4050D01*
X4179Y2638D01*
D02*
G37*
G36*
X-1850Y-3622D02*
X-2146Y-3819D01*
Y-3425D01*
X-1850Y-3622D01*
D02*
G37*
G36*
X-1786Y-4248D02*
X-1777Y-4248D01*
X-1767Y-4249D01*
X-1757Y-4250D01*
X-1747Y-4251D01*
X-1739Y-4254D01*
X-1738D01*
X-1737Y-4254D01*
X-1736Y-4255D01*
X-1734Y-4255D01*
X-1728Y-4257D01*
X-1722Y-4261D01*
X-1715Y-4265D01*
X-1706Y-4270D01*
X-1698Y-4276D01*
X-1691Y-4283D01*
X-1690D01*
X-1690Y-4284D01*
X-1687Y-4287D01*
X-1684Y-4292D01*
X-1680Y-4298D01*
X-1674Y-4305D01*
X-1669Y-4314D01*
X-1664Y-4324D01*
X-1660Y-4335D01*
Y-4335D01*
X-1660Y-4336D01*
X-1659Y-4338D01*
X-1658Y-4341D01*
X-1658Y-4343D01*
X-1657Y-4347D01*
X-1656Y-4351D01*
X-1655Y-4356D01*
X-1654Y-4361D01*
X-1653Y-4367D01*
X-1652Y-4373D01*
X-1651Y-4380D01*
X-1650Y-4394D01*
X-1649Y-4410D01*
Y-4411D01*
Y-4412D01*
Y-4414D01*
Y-4417D01*
X-1650Y-4420D01*
Y-4424D01*
X-1650Y-4429D01*
X-1651Y-4434D01*
X-1652Y-4444D01*
X-1654Y-4456D01*
X-1656Y-4467D01*
X-1660Y-4478D01*
Y-4479D01*
X-1660Y-4480D01*
X-1661Y-4481D01*
X-1662Y-4484D01*
X-1663Y-4487D01*
X-1665Y-4490D01*
X-1668Y-4499D01*
X-1673Y-4507D01*
X-1679Y-4517D01*
X-1686Y-4526D01*
X-1694Y-4535D01*
X-1695Y-4536D01*
X-1697Y-4538D01*
X-1701Y-4541D01*
X-1706Y-4544D01*
X-1712Y-4548D01*
X-1720Y-4553D01*
X-1729Y-4557D01*
X-1739Y-4560D01*
X-1740D01*
X-1740Y-4561D01*
X-1741D01*
X-1743Y-4561D01*
X-1748Y-4562D01*
X-1754Y-4564D01*
X-1762Y-4565D01*
X-1772Y-4566D01*
X-1783Y-4566D01*
X-1796Y-4567D01*
X-1917D01*
Y-4247D01*
X-1789D01*
X-1786Y-4248D01*
D02*
G37*
G36*
X-2441Y-3130D02*
X-2835D01*
X-2638Y-2835D01*
X-2441Y-3130D01*
D02*
G37*
G36*
X-1985Y-4567D02*
X-2050D01*
X-2180Y-4356D01*
Y-4567D01*
X-2239D01*
Y-4247D01*
X-2177D01*
X-2045Y-4463D01*
Y-4247D01*
X-1985D01*
Y-4567D01*
D02*
G37*
G36*
X-4446Y-4206D02*
X-4443D01*
X-4439Y-4207D01*
X-4431Y-4209D01*
X-4421Y-4211D01*
X-4411Y-4215D01*
X-4401Y-4220D01*
X-4397Y-4223D01*
X-4392Y-4227D01*
X-4391D01*
X-4391Y-4228D01*
X-4390Y-4229D01*
X-4388Y-4230D01*
X-4386Y-4233D01*
X-4384Y-4235D01*
X-4379Y-4242D01*
X-4374Y-4250D01*
X-4369Y-4261D01*
X-4364Y-4272D01*
X-4361Y-4286D01*
X-4420Y-4292D01*
Y-4291D01*
X-4421Y-4290D01*
X-4421Y-4286D01*
X-4422Y-4282D01*
X-4424Y-4278D01*
X-4426Y-4273D01*
X-4428Y-4269D01*
X-4432Y-4266D01*
X-4432Y-4265D01*
X-4433Y-4264D01*
X-4435Y-4263D01*
X-4438Y-4261D01*
X-4441Y-4260D01*
X-4446Y-4258D01*
X-4451Y-4257D01*
X-4456Y-4257D01*
X-4457D01*
X-4459Y-4257D01*
X-4463Y-4258D01*
X-4467Y-4259D01*
X-4472Y-4261D01*
X-4478Y-4264D01*
X-4483Y-4268D01*
X-4488Y-4274D01*
X-4489Y-4275D01*
X-4490Y-4276D01*
X-4491Y-4278D01*
X-4492Y-4280D01*
X-4493Y-4283D01*
X-4494Y-4286D01*
X-4495Y-4290D01*
X-4497Y-4295D01*
X-4499Y-4300D01*
X-4500Y-4306D01*
X-4501Y-4312D01*
X-4503Y-4320D01*
X-4504Y-4328D01*
X-4505Y-4337D01*
X-4506Y-4347D01*
X-4505Y-4346D01*
X-4505Y-4346D01*
X-4503Y-4345D01*
X-4501Y-4343D01*
X-4499Y-4340D01*
X-4496Y-4338D01*
X-4490Y-4333D01*
X-4482Y-4328D01*
X-4472Y-4324D01*
X-4466Y-4322D01*
X-4461Y-4321D01*
X-4455Y-4320D01*
X-4448Y-4320D01*
X-4445D01*
X-4442Y-4320D01*
X-4439Y-4321D01*
X-4435Y-4321D01*
X-4430Y-4322D01*
X-4426Y-4323D01*
X-4415Y-4327D01*
X-4410Y-4329D01*
X-4404Y-4332D01*
X-4399Y-4335D01*
X-4393Y-4340D01*
X-4388Y-4344D01*
X-4383Y-4349D01*
X-4382Y-4350D01*
X-4381Y-4351D01*
X-4380Y-4352D01*
X-4379Y-4354D01*
X-4376Y-4358D01*
X-4374Y-4361D01*
X-4372Y-4365D01*
X-4369Y-4370D01*
X-4366Y-4375D01*
X-4364Y-4381D01*
X-4361Y-4387D01*
X-4359Y-4394D01*
X-4358Y-4401D01*
X-4356Y-4408D01*
X-4355Y-4416D01*
X-4355Y-4425D01*
Y-4425D01*
Y-4427D01*
Y-4430D01*
X-4355Y-4433D01*
X-4356Y-4437D01*
X-4356Y-4442D01*
X-4357Y-4448D01*
X-4359Y-4453D01*
X-4362Y-4466D01*
X-4364Y-4473D01*
X-4367Y-4479D01*
X-4371Y-4486D01*
X-4374Y-4492D01*
X-4379Y-4498D01*
X-4384Y-4504D01*
X-4385Y-4504D01*
X-4385Y-4505D01*
X-4387Y-4507D01*
X-4389Y-4509D01*
X-4392Y-4511D01*
X-4396Y-4513D01*
X-4399Y-4516D01*
X-4404Y-4519D01*
X-4409Y-4522D01*
X-4415Y-4524D01*
X-4421Y-4527D01*
X-4428Y-4529D01*
X-4434Y-4531D01*
X-4442Y-4532D01*
X-4450Y-4533D01*
X-4458Y-4534D01*
X-4460D01*
X-4463Y-4533D01*
X-4466D01*
X-4470Y-4532D01*
X-4475Y-4532D01*
X-4480Y-4530D01*
X-4486Y-4529D01*
X-4492Y-4527D01*
X-4499Y-4524D01*
X-4506Y-4522D01*
X-4512Y-4518D01*
X-4519Y-4514D01*
X-4525Y-4509D01*
X-4532Y-4503D01*
X-4538Y-4496D01*
X-4538Y-4496D01*
X-4539Y-4494D01*
X-4541Y-4492D01*
X-4543Y-4489D01*
X-4545Y-4485D01*
X-4548Y-4480D01*
X-4550Y-4474D01*
X-4553Y-4467D01*
X-4556Y-4458D01*
X-4559Y-4449D01*
X-4561Y-4439D01*
X-4564Y-4428D01*
X-4566Y-4416D01*
X-4567Y-4402D01*
X-4568Y-4388D01*
X-4569Y-4372D01*
Y-4372D01*
Y-4371D01*
Y-4370D01*
Y-4369D01*
Y-4364D01*
X-4568Y-4358D01*
X-4568Y-4351D01*
X-4567Y-4342D01*
X-4566Y-4333D01*
X-4565Y-4323D01*
X-4563Y-4313D01*
X-4561Y-4303D01*
X-4558Y-4292D01*
X-4555Y-4281D01*
X-4551Y-4272D01*
X-4547Y-4262D01*
X-4542Y-4253D01*
X-4537Y-4245D01*
X-4536Y-4245D01*
X-4535Y-4243D01*
X-4533Y-4242D01*
X-4531Y-4239D01*
X-4527Y-4236D01*
X-4524Y-4233D01*
X-4519Y-4229D01*
X-4514Y-4225D01*
X-4508Y-4222D01*
X-4502Y-4218D01*
X-4494Y-4215D01*
X-4487Y-4212D01*
X-4479Y-4210D01*
X-4470Y-4208D01*
X-4462Y-4206D01*
X-4452Y-4206D01*
X-4448D01*
X-4446Y-4206D01*
D02*
G37*
G36*
X-4840Y-4442D02*
X-4960D01*
Y-4381D01*
X-4840D01*
Y-4442D01*
D02*
G37*
G36*
X-4506Y-5562D02*
X-4422D01*
Y-5619D01*
X-4506D01*
Y-5702D01*
X-4562D01*
Y-5619D01*
X-4646D01*
Y-5562D01*
X-4562D01*
Y-5479D01*
X-4506D01*
Y-5562D01*
D02*
G37*
G36*
Y-5286D02*
X-4422D01*
Y-5344D01*
X-4506D01*
Y-5426D01*
X-4562D01*
Y-5344D01*
X-4646D01*
Y-5286D01*
X-4562D01*
Y-5204D01*
X-4506D01*
Y-5286D01*
D02*
G37*
G36*
X4591Y9141D02*
X4465D01*
X4126Y9430D01*
Y9141D01*
X3959Y9142D01*
Y9653D01*
X4077D01*
X4424Y9359D01*
Y9649D01*
X4591Y9740D01*
Y9141D01*
D02*
G37*
G36*
X-5706Y4518D02*
X-5703Y4517D01*
X-5699Y4516D01*
X-5695Y4514D01*
X-5690Y4512D01*
X-5685Y4510D01*
X-5679Y4507D01*
X-5666Y4501D01*
X-5653Y4492D01*
X-5641Y4482D01*
X-5635Y4477D01*
X-5630Y4471D01*
X-5630Y4470D01*
X-5629Y4469D01*
X-5628Y4467D01*
X-5626Y4465D01*
X-5624Y4461D01*
X-5622Y4457D01*
X-5620Y4453D01*
X-5618Y4448D01*
X-5615Y4442D01*
X-5613Y4435D01*
X-5611Y4428D01*
X-5609Y4421D01*
X-5607Y4413D01*
X-5606Y4404D01*
X-5605Y4395D01*
X-5605Y4386D01*
Y4385D01*
Y4383D01*
X-5605Y4380D01*
X-5606Y4375D01*
X-5606Y4370D01*
X-5607Y4363D01*
X-5608Y4356D01*
X-5610Y4349D01*
X-5613Y4341D01*
X-5615Y4332D01*
X-5619Y4324D01*
X-5623Y4315D01*
X-5628Y4306D01*
X-5634Y4297D01*
X-5640Y4289D01*
X-5648Y4281D01*
X-5649Y4281D01*
X-5650Y4279D01*
X-5653Y4277D01*
X-5656Y4275D01*
X-5661Y4272D01*
X-5666Y4268D01*
X-5672Y4265D01*
X-5680Y4261D01*
X-5687Y4257D01*
X-5696Y4253D01*
X-5706Y4250D01*
X-5717Y4247D01*
X-5728Y4244D01*
X-5741Y4242D01*
X-5753Y4241D01*
X-5767Y4241D01*
X-5771D01*
X-5775Y4241D01*
X-5781D01*
X-5787Y4242D01*
X-5795Y4243D01*
X-5803Y4244D01*
X-5813Y4246D01*
X-5823Y4248D01*
X-5833Y4251D01*
X-5843Y4254D01*
X-5854Y4258D01*
X-5864Y4263D01*
X-5874Y4268D01*
X-5883Y4274D01*
X-5892Y4282D01*
X-5892Y4282D01*
X-5893Y4284D01*
X-5896Y4286D01*
X-5899Y4289D01*
X-5902Y4293D01*
X-5905Y4298D01*
X-5910Y4304D01*
X-5914Y4311D01*
X-5918Y4318D01*
X-5922Y4326D01*
X-5926Y4335D01*
X-5929Y4344D01*
X-5932Y4355D01*
X-5934Y4366D01*
X-5935Y4378D01*
X-5936Y4390D01*
Y4390D01*
Y4393D01*
Y4395D01*
X-5935Y4399D01*
X-5935Y4405D01*
X-5934Y4410D01*
X-5933Y4417D01*
X-5932Y4423D01*
X-5930Y4431D01*
X-5928Y4439D01*
X-5925Y4447D01*
X-5921Y4455D01*
X-5917Y4463D01*
X-5913Y4470D01*
X-5907Y4478D01*
X-5901Y4485D01*
Y4485D01*
X-5900Y4486D01*
X-5899Y4487D01*
X-5898Y4489D01*
X-5895Y4490D01*
X-5893Y4492D01*
X-5886Y4497D01*
X-5878Y4502D01*
X-5868Y4508D01*
X-5856Y4513D01*
X-5843Y4518D01*
X-5827Y4454D01*
X-5828D01*
X-5828Y4454D01*
X-5830D01*
X-5832Y4453D01*
X-5836Y4451D01*
X-5841Y4449D01*
X-5848Y4446D01*
X-5854Y4442D01*
X-5861Y4436D01*
X-5866Y4430D01*
X-5867Y4429D01*
X-5868Y4427D01*
X-5871Y4423D01*
X-5874Y4418D01*
X-5876Y4411D01*
X-5879Y4404D01*
X-5881Y4396D01*
X-5881Y4387D01*
Y4386D01*
Y4385D01*
Y4383D01*
X-5881Y4381D01*
X-5880Y4378D01*
X-5880Y4374D01*
X-5878Y4366D01*
X-5875Y4357D01*
X-5870Y4347D01*
X-5867Y4342D01*
X-5864Y4338D01*
X-5860Y4333D01*
X-5855Y4329D01*
X-5855D01*
X-5854Y4328D01*
X-5852Y4327D01*
X-5850Y4326D01*
X-5847Y4324D01*
X-5844Y4322D01*
X-5840Y4320D01*
X-5835Y4318D01*
X-5830Y4316D01*
X-5824Y4314D01*
X-5817Y4312D01*
X-5809Y4310D01*
X-5801Y4309D01*
X-5792Y4308D01*
X-5783Y4308D01*
X-5772Y4307D01*
X-5766D01*
X-5762Y4308D01*
X-5757D01*
X-5751Y4308D01*
X-5745Y4309D01*
X-5738Y4310D01*
X-5724Y4313D01*
X-5710Y4316D01*
X-5703Y4319D01*
X-5696Y4322D01*
X-5690Y4325D01*
X-5685Y4329D01*
X-5685Y4329D01*
X-5684Y4330D01*
X-5683Y4331D01*
X-5681Y4333D01*
X-5677Y4338D01*
X-5673Y4344D01*
X-5668Y4352D01*
X-5664Y4362D01*
X-5661Y4373D01*
X-5660Y4379D01*
X-5660Y4385D01*
Y4386D01*
Y4386D01*
Y4387D01*
X-5660Y4389D01*
X-5661Y4394D01*
X-5662Y4400D01*
X-5664Y4407D01*
X-5667Y4414D01*
X-5670Y4422D01*
X-5676Y4429D01*
X-5677Y4430D01*
X-5679Y4432D01*
X-5683Y4436D01*
X-5688Y4439D01*
X-5696Y4444D01*
X-5704Y4448D01*
X-5715Y4452D01*
X-5728Y4456D01*
X-5708Y4519D01*
X-5708D01*
X-5706Y4518D01*
D02*
G37*
G36*
X2556Y9955D02*
X2389D01*
Y10271D01*
X2216Y10015D01*
X2110D01*
X1939Y10271D01*
Y9957D01*
X1772Y9869D01*
Y10467D01*
X1953D01*
X2163Y10172D01*
X2373Y10467D01*
X2556D01*
Y9955D01*
D02*
G37*
G36*
X-5610Y4576D02*
X-5928D01*
Y4641D01*
X-5664D01*
Y4801D01*
X-5610D01*
Y4576D01*
D02*
G37*
G36*
X3445Y4985D02*
X3260D01*
X3260Y4984D01*
X3261Y4983D01*
X3262Y4982D01*
X3264Y4980D01*
X3266Y4977D01*
X3268Y4974D01*
X3271Y4970D01*
X3274Y4966D01*
X3277Y4962D01*
X3279Y4957D01*
X3283Y4952D01*
X3286Y4946D01*
X3291Y4935D01*
X3297Y4921D01*
X3252D01*
Y4922D01*
X3252Y4922D01*
X3251Y4923D01*
X3251Y4925D01*
X3249Y4928D01*
X3247Y4933D01*
X3244Y4940D01*
X3240Y4947D01*
X3235Y4955D01*
X3229Y4963D01*
X3228Y4963D01*
X3228Y4964D01*
X3227Y4965D01*
X3225Y4966D01*
X3222Y4970D01*
X3217Y4975D01*
X3211Y4980D01*
X3204Y4985D01*
X3196Y4990D01*
X3187Y4994D01*
Y5034D01*
X3445D01*
Y4985D01*
D02*
G37*
G36*
X-2430Y-4242D02*
X-2425Y-4242D01*
X-2419Y-4243D01*
X-2413Y-4243D01*
X-2406Y-4244D01*
X-2391Y-4247D01*
X-2376Y-4252D01*
X-2368Y-4255D01*
X-2360Y-4258D01*
X-2354Y-4262D01*
X-2347Y-4266D01*
X-2347Y-4267D01*
X-2346Y-4267D01*
X-2344Y-4269D01*
X-2342Y-4271D01*
X-2339Y-4273D01*
X-2336Y-4276D01*
X-2333Y-4280D01*
X-2329Y-4284D01*
X-2325Y-4289D01*
X-2322Y-4294D01*
X-2318Y-4299D01*
X-2315Y-4306D01*
X-2311Y-4312D01*
X-2308Y-4319D01*
X-2306Y-4327D01*
X-2304Y-4335D01*
X-2368Y-4347D01*
Y-4347D01*
X-2368Y-4346D01*
X-2369Y-4343D01*
X-2371Y-4339D01*
X-2374Y-4334D01*
X-2377Y-4328D01*
X-2382Y-4322D01*
X-2387Y-4316D01*
X-2394Y-4310D01*
X-2395Y-4310D01*
X-2397Y-4308D01*
X-2401Y-4305D01*
X-2406Y-4303D01*
X-2413Y-4300D01*
X-2421Y-4299D01*
X-2430Y-4297D01*
X-2440Y-4296D01*
X-2444D01*
X-2447Y-4297D01*
X-2451Y-4297D01*
X-2455Y-4298D01*
X-2459Y-4299D01*
X-2464Y-4299D01*
X-2475Y-4303D01*
X-2481Y-4305D01*
X-2486Y-4308D01*
X-2492Y-4311D01*
X-2497Y-4314D01*
X-2502Y-4319D01*
X-2507Y-4323D01*
X-2508Y-4324D01*
X-2508Y-4325D01*
X-2510Y-4326D01*
X-2511Y-4329D01*
X-2513Y-4331D01*
X-2515Y-4335D01*
X-2518Y-4339D01*
X-2519Y-4343D01*
X-2522Y-4349D01*
X-2524Y-4355D01*
X-2526Y-4361D01*
X-2528Y-4368D01*
X-2530Y-4376D01*
X-2531Y-4385D01*
X-2531Y-4394D01*
X-2532Y-4403D01*
Y-4404D01*
Y-4406D01*
Y-4409D01*
X-2531Y-4413D01*
X-2531Y-4418D01*
X-2531Y-4423D01*
X-2530Y-4429D01*
X-2529Y-4436D01*
X-2526Y-4450D01*
X-2521Y-4464D01*
X-2519Y-4471D01*
X-2515Y-4477D01*
X-2511Y-4484D01*
X-2507Y-4489D01*
X-2506Y-4490D01*
X-2506Y-4491D01*
X-2504Y-4492D01*
X-2502Y-4494D01*
X-2500Y-4496D01*
X-2497Y-4499D01*
X-2493Y-4501D01*
X-2489Y-4504D01*
X-2484Y-4506D01*
X-2480Y-4509D01*
X-2468Y-4513D01*
X-2462Y-4515D01*
X-2455Y-4517D01*
X-2448Y-4518D01*
X-2440Y-4518D01*
X-2437D01*
X-2433Y-4518D01*
X-2427Y-4517D01*
X-2421Y-4516D01*
X-2415Y-4515D01*
X-2407Y-4513D01*
X-2400Y-4510D01*
X-2399D01*
X-2399Y-4510D01*
X-2397Y-4509D01*
X-2392Y-4507D01*
X-2388Y-4505D01*
X-2382Y-4502D01*
X-2376Y-4499D01*
X-2370Y-4495D01*
X-2365Y-4491D01*
Y-4450D01*
X-2439D01*
Y-4396D01*
X-2300D01*
Y-4524D01*
X-2300Y-4525D01*
X-2302Y-4526D01*
X-2303Y-4527D01*
X-2306Y-4529D01*
X-2308Y-4531D01*
X-2314Y-4536D01*
X-2323Y-4541D01*
X-2333Y-4547D01*
X-2345Y-4553D01*
X-2359Y-4558D01*
X-2359D01*
X-2360Y-4559D01*
X-2362Y-4560D01*
X-2365Y-4560D01*
X-2369Y-4561D01*
X-2373Y-4563D01*
X-2378Y-4564D01*
X-2383Y-4566D01*
X-2394Y-4568D01*
X-2408Y-4571D01*
X-2421Y-4572D01*
X-2436Y-4573D01*
X-2441D01*
X-2445Y-4572D01*
X-2449D01*
X-2454Y-4572D01*
X-2460Y-4571D01*
X-2466Y-4570D01*
X-2480Y-4568D01*
X-2494Y-4564D01*
X-2510Y-4559D01*
X-2517Y-4556D01*
X-2524Y-4552D01*
X-2525Y-4552D01*
X-2525Y-4551D01*
X-2528Y-4550D01*
X-2530Y-4548D01*
X-2533Y-4546D01*
X-2537Y-4543D01*
X-2541Y-4540D01*
X-2545Y-4536D01*
X-2554Y-4528D01*
X-2563Y-4518D01*
X-2572Y-4505D01*
X-2580Y-4492D01*
Y-4491D01*
X-2581Y-4490D01*
X-2582Y-4487D01*
X-2583Y-4485D01*
X-2584Y-4481D01*
X-2586Y-4477D01*
X-2587Y-4472D01*
X-2589Y-4466D01*
X-2591Y-4460D01*
X-2592Y-4453D01*
X-2596Y-4439D01*
X-2598Y-4423D01*
X-2598Y-4406D01*
Y-4406D01*
Y-4404D01*
Y-4401D01*
X-2598Y-4398D01*
Y-4393D01*
X-2598Y-4388D01*
X-2597Y-4383D01*
X-2596Y-4376D01*
X-2593Y-4363D01*
X-2590Y-4347D01*
X-2585Y-4332D01*
X-2581Y-4325D01*
X-2578Y-4317D01*
X-2577Y-4317D01*
X-2577Y-4316D01*
X-2575Y-4314D01*
X-2574Y-4311D01*
X-2572Y-4308D01*
X-2569Y-4304D01*
X-2566Y-4300D01*
X-2562Y-4295D01*
X-2558Y-4291D01*
X-2554Y-4286D01*
X-2549Y-4280D01*
X-2543Y-4275D01*
X-2537Y-4271D01*
X-2531Y-4266D01*
X-2517Y-4257D01*
X-2516D01*
X-2515Y-4256D01*
X-2513Y-4256D01*
X-2511Y-4255D01*
X-2508Y-4254D01*
X-2505Y-4252D01*
X-2500Y-4251D01*
X-2495Y-4249D01*
X-2490Y-4248D01*
X-2484Y-4246D01*
X-2478Y-4245D01*
X-2471Y-4244D01*
X-2457Y-4242D01*
X-2440Y-4241D01*
X-2434D01*
X-2430Y-4242D01*
D02*
G37*
G36*
X-5696Y4197D02*
X-5693Y4196D01*
X-5686Y4195D01*
X-5678Y4193D01*
X-5669Y4191D01*
X-5661Y4186D01*
X-5651Y4181D01*
X-5651D01*
X-5650Y4180D01*
X-5648Y4179D01*
X-5643Y4175D01*
X-5638Y4170D01*
X-5632Y4164D01*
X-5626Y4156D01*
X-5621Y4148D01*
X-5616Y4138D01*
Y4138D01*
X-5615Y4137D01*
X-5615Y4135D01*
X-5614Y4133D01*
X-5613Y4130D01*
X-5612Y4127D01*
X-5611Y4123D01*
X-5610Y4119D01*
X-5609Y4114D01*
X-5608Y4109D01*
X-5606Y4097D01*
X-5605Y4083D01*
X-5604Y4069D01*
Y4068D01*
Y4066D01*
Y4063D01*
X-5605Y4059D01*
X-5605Y4053D01*
X-5606Y4048D01*
X-5607Y4041D01*
X-5608Y4034D01*
X-5611Y4019D01*
X-5613Y4011D01*
X-5616Y4004D01*
X-5619Y3996D01*
X-5623Y3989D01*
X-5627Y3982D01*
X-5632Y3975D01*
X-5632Y3975D01*
X-5633Y3974D01*
X-5635Y3972D01*
X-5637Y3970D01*
X-5640Y3968D01*
X-5644Y3965D01*
X-5648Y3961D01*
X-5653Y3958D01*
X-5658Y3955D01*
X-5664Y3952D01*
X-5671Y3949D01*
X-5679Y3945D01*
X-5686Y3943D01*
X-5695Y3940D01*
X-5704Y3938D01*
X-5714Y3937D01*
X-5720Y4000D01*
X-5720D01*
X-5719Y4000D01*
X-5717D01*
X-5715Y4001D01*
X-5710Y4003D01*
X-5703Y4005D01*
X-5695Y4008D01*
X-5687Y4012D01*
X-5680Y4016D01*
X-5674Y4022D01*
X-5673Y4023D01*
X-5671Y4026D01*
X-5669Y4029D01*
X-5666Y4035D01*
X-5663Y4042D01*
X-5661Y4050D01*
X-5659Y4059D01*
X-5659Y4070D01*
Y4070D01*
Y4071D01*
Y4072D01*
Y4075D01*
X-5660Y4080D01*
X-5661Y4087D01*
X-5662Y4095D01*
X-5664Y4102D01*
X-5668Y4110D01*
X-5672Y4116D01*
X-5672Y4117D01*
X-5674Y4119D01*
X-5677Y4121D01*
X-5680Y4125D01*
X-5685Y4127D01*
X-5691Y4130D01*
X-5696Y4132D01*
X-5703Y4132D01*
X-5704D01*
X-5707Y4132D01*
X-5710Y4132D01*
X-5712Y4131D01*
X-5716Y4130D01*
X-5719Y4128D01*
X-5722Y4126D01*
X-5723Y4125D01*
X-5723Y4124D01*
X-5725Y4123D01*
X-5727Y4120D01*
X-5729Y4117D01*
X-5731Y4113D01*
X-5734Y4108D01*
X-5736Y4102D01*
Y4102D01*
X-5737Y4100D01*
X-5738Y4097D01*
X-5739Y4095D01*
X-5739Y4092D01*
X-5740Y4089D01*
X-5741Y4085D01*
X-5742Y4081D01*
X-5744Y4076D01*
X-5745Y4071D01*
X-5747Y4065D01*
X-5748Y4058D01*
X-5750Y4051D01*
Y4050D01*
X-5751Y4048D01*
X-5752Y4046D01*
X-5753Y4042D01*
X-5754Y4038D01*
X-5755Y4033D01*
X-5757Y4028D01*
X-5759Y4022D01*
X-5764Y4010D01*
X-5769Y3998D01*
X-5772Y3992D01*
X-5775Y3987D01*
X-5778Y3982D01*
X-5782Y3978D01*
X-5782Y3978D01*
X-5783Y3977D01*
X-5784Y3975D01*
X-5786Y3974D01*
X-5789Y3971D01*
X-5792Y3969D01*
X-5796Y3966D01*
X-5800Y3964D01*
X-5809Y3958D01*
X-5820Y3954D01*
X-5826Y3952D01*
X-5832Y3950D01*
X-5839Y3949D01*
X-5846Y3949D01*
X-5850D01*
X-5855Y3950D01*
X-5861Y3951D01*
X-5868Y3952D01*
X-5876Y3955D01*
X-5884Y3958D01*
X-5892Y3962D01*
X-5893D01*
X-5893Y3963D01*
X-5896Y3965D01*
X-5899Y3968D01*
X-5904Y3973D01*
X-5909Y3978D01*
X-5915Y3985D01*
X-5920Y3993D01*
X-5924Y4002D01*
Y4003D01*
X-5925Y4004D01*
X-5925Y4005D01*
X-5926Y4007D01*
X-5927Y4010D01*
X-5928Y4012D01*
X-5929Y4016D01*
X-5930Y4020D01*
X-5932Y4029D01*
X-5934Y4040D01*
X-5935Y4052D01*
X-5936Y4065D01*
Y4066D01*
Y4068D01*
Y4071D01*
X-5935Y4075D01*
X-5935Y4080D01*
X-5935Y4086D01*
X-5934Y4092D01*
X-5933Y4099D01*
X-5929Y4114D01*
X-5927Y4121D01*
X-5925Y4129D01*
X-5922Y4136D01*
X-5918Y4143D01*
X-5914Y4150D01*
X-5909Y4156D01*
X-5909Y4156D01*
X-5908Y4157D01*
X-5906Y4158D01*
X-5905Y4160D01*
X-5902Y4162D01*
X-5899Y4165D01*
X-5895Y4168D01*
X-5891Y4171D01*
X-5886Y4174D01*
X-5881Y4177D01*
X-5875Y4180D01*
X-5868Y4182D01*
X-5862Y4184D01*
X-5854Y4186D01*
X-5847Y4187D01*
X-5838Y4188D01*
X-5836Y4123D01*
X-5837D01*
X-5840Y4122D01*
X-5844Y4121D01*
X-5850Y4119D01*
X-5856Y4117D01*
X-5861Y4114D01*
X-5867Y4110D01*
X-5871Y4105D01*
X-5872Y4105D01*
X-5873Y4103D01*
X-5875Y4100D01*
X-5877Y4095D01*
X-5879Y4089D01*
X-5881Y4083D01*
X-5882Y4074D01*
X-5882Y4065D01*
Y4064D01*
Y4063D01*
Y4062D01*
Y4060D01*
X-5882Y4055D01*
X-5881Y4049D01*
X-5880Y4042D01*
X-5877Y4034D01*
X-5875Y4028D01*
X-5870Y4021D01*
X-5870Y4021D01*
X-5869Y4020D01*
X-5868Y4018D01*
X-5865Y4016D01*
X-5862Y4014D01*
X-5859Y4012D01*
X-5855Y4011D01*
X-5850Y4011D01*
X-5849D01*
X-5846Y4011D01*
X-5844Y4012D01*
X-5841Y4013D01*
X-5838Y4015D01*
X-5834Y4017D01*
X-5831Y4020D01*
X-5831Y4021D01*
X-5829Y4023D01*
X-5828Y4024D01*
X-5827Y4027D01*
X-5826Y4029D01*
X-5825Y4032D01*
X-5823Y4036D01*
X-5821Y4040D01*
X-5820Y4045D01*
X-5818Y4050D01*
X-5816Y4057D01*
X-5814Y4064D01*
X-5812Y4071D01*
X-5810Y4079D01*
Y4080D01*
X-5809Y4082D01*
X-5809Y4084D01*
X-5808Y4087D01*
X-5807Y4091D01*
X-5806Y4095D01*
X-5804Y4101D01*
X-5803Y4106D01*
X-5799Y4117D01*
X-5796Y4128D01*
X-5791Y4139D01*
X-5789Y4144D01*
X-5787Y4149D01*
Y4149D01*
X-5786Y4150D01*
X-5784Y4152D01*
X-5782Y4156D01*
X-5778Y4162D01*
X-5773Y4167D01*
X-5768Y4173D01*
X-5761Y4179D01*
X-5754Y4184D01*
X-5753Y4185D01*
X-5750Y4186D01*
X-5746Y4188D01*
X-5740Y4191D01*
X-5733Y4193D01*
X-5724Y4195D01*
X-5714Y4197D01*
X-5703Y4197D01*
X-5698D01*
X-5696Y4197D01*
D02*
G37*
G36*
X-4155Y-4528D02*
X-4225D01*
X-4339Y-4208D01*
X-4269D01*
X-4188Y-4444D01*
X-4110Y-4208D01*
X-4041D01*
X-4155Y-4528D01*
D02*
G37*
%LPC*%
G36*
X2936Y9526D02*
X2663D01*
Y9436D01*
X2936D01*
X2971Y9482D01*
X2936Y9526D01*
D02*
G37*
G36*
X3714D02*
X3393D01*
Y9268D01*
X3714D01*
Y9526D01*
D02*
G37*
G36*
X5835Y6269D02*
Y6181D01*
X5954Y6226D01*
X5835Y6269D01*
D02*
G37*
G36*
X3091Y10339D02*
X2808D01*
Y10223D01*
X3091D01*
Y10339D01*
D02*
G37*
G36*
X3784Y10339D02*
X3510D01*
Y10250D01*
X3783D01*
X3818Y10296D01*
X3784Y10339D01*
D02*
G37*
G36*
X4824Y8533D02*
X4782D01*
Y8322D01*
X4838D01*
X4844Y8322D01*
X4851D01*
X4857Y8323D01*
X4863Y8324D01*
X4868Y8325D01*
X4869D01*
X4871Y8325D01*
X4874Y8326D01*
X4878Y8328D01*
X4882Y8330D01*
X4886Y8332D01*
X4890Y8335D01*
X4894Y8338D01*
X4895Y8338D01*
X4896Y8340D01*
X4898Y8342D01*
X4900Y8345D01*
X4903Y8349D01*
X4906Y8355D01*
X4908Y8361D01*
X4911Y8368D01*
Y8369D01*
X4911Y8369D01*
Y8371D01*
X4912Y8373D01*
X4913Y8374D01*
X4913Y8377D01*
X4915Y8384D01*
X4916Y8392D01*
X4917Y8402D01*
X4917Y8414D01*
X4918Y8427D01*
Y8428D01*
Y8429D01*
Y8431D01*
Y8433D01*
Y8436D01*
X4917Y8440D01*
X4917Y8448D01*
X4916Y8457D01*
X4915Y8467D01*
X4913Y8476D01*
X4911Y8484D01*
Y8484D01*
X4910Y8485D01*
X4910Y8487D01*
X4908Y8491D01*
X4906Y8495D01*
X4904Y8500D01*
X4900Y8505D01*
X4897Y8510D01*
X4892Y8515D01*
X4892Y8515D01*
X4891Y8517D01*
X4888Y8519D01*
X4885Y8521D01*
X4880Y8524D01*
X4875Y8526D01*
X4869Y8528D01*
X4863Y8530D01*
X4862D01*
X4860Y8531D01*
X4856Y8531D01*
X4851Y8532D01*
X4848D01*
X4844Y8532D01*
X4840D01*
X4835Y8533D01*
X4830D01*
X4824Y8533D01*
D02*
G37*
G36*
X5974Y6608D02*
X5763D01*
Y6561D01*
Y6560D01*
Y6559D01*
Y6558D01*
Y6556D01*
Y6552D01*
X5763Y6546D01*
Y6539D01*
X5764Y6533D01*
X5765Y6527D01*
X5765Y6522D01*
Y6521D01*
X5766Y6519D01*
X5767Y6516D01*
X5769Y6512D01*
X5771Y6508D01*
X5773Y6504D01*
X5776Y6500D01*
X5779Y6496D01*
X5779Y6495D01*
X5781Y6494D01*
X5783Y6492D01*
X5786Y6490D01*
X5790Y6487D01*
X5796Y6484D01*
X5802Y6482D01*
X5809Y6479D01*
X5810D01*
X5810Y6479D01*
X5812D01*
X5814Y6478D01*
X5815Y6477D01*
X5818Y6477D01*
X5825Y6475D01*
X5833Y6474D01*
X5843Y6473D01*
X5855Y6473D01*
X5868Y6472D01*
X5877D01*
X5881Y6473D01*
X5889Y6473D01*
X5898Y6474D01*
X5908Y6475D01*
X5917Y6477D01*
X5925Y6479D01*
X5925D01*
X5926Y6480D01*
X5928Y6480D01*
X5932Y6482D01*
X5936Y6484D01*
X5941Y6486D01*
X5946Y6490D01*
X5951Y6493D01*
X5956Y6498D01*
X5956Y6498D01*
X5958Y6499D01*
X5960Y6502D01*
X5962Y6505D01*
X5965Y6510D01*
X5967Y6515D01*
X5969Y6521D01*
X5971Y6527D01*
Y6528D01*
X5972Y6530D01*
X5972Y6534D01*
X5973Y6539D01*
Y6542D01*
X5973Y6546D01*
Y6550D01*
X5974Y6555D01*
Y6560D01*
X5974Y6566D01*
Y6573D01*
Y6580D01*
Y6608D01*
D02*
G37*
G36*
X4561Y10339D02*
X4240D01*
Y10082D01*
X4561D01*
Y10339D01*
D02*
G37*
G36*
X2882Y6762D02*
X2840D01*
Y6550D01*
X2897D01*
X2903Y6551D01*
X2910D01*
X2916Y6551D01*
X2922Y6552D01*
X2927Y6553D01*
X2928D01*
X2930Y6554D01*
X2933Y6555D01*
X2936Y6556D01*
X2941Y6558D01*
X2945Y6560D01*
X2949Y6563D01*
X2953Y6566D01*
X2954Y6567D01*
X2955Y6568D01*
X2957Y6570D01*
X2959Y6574D01*
X2961Y6578D01*
X2965Y6583D01*
X2967Y6589D01*
X2970Y6597D01*
Y6597D01*
X2970Y6598D01*
Y6599D01*
X2971Y6601D01*
X2972Y6603D01*
X2972Y6606D01*
X2973Y6612D01*
X2974Y6621D01*
X2976Y6631D01*
X2976Y6643D01*
X2977Y6655D01*
Y6656D01*
Y6657D01*
Y6659D01*
Y6661D01*
Y6665D01*
X2976Y6668D01*
X2976Y6676D01*
X2975Y6685D01*
X2974Y6695D01*
X2972Y6704D01*
X2970Y6712D01*
Y6713D01*
X2969Y6713D01*
X2968Y6716D01*
X2967Y6719D01*
X2965Y6724D01*
X2962Y6728D01*
X2959Y6734D01*
X2955Y6739D01*
X2951Y6743D01*
X2951Y6744D01*
X2949Y6745D01*
X2947Y6747D01*
X2943Y6749D01*
X2939Y6752D01*
X2934Y6754D01*
X2928Y6757D01*
X2922Y6758D01*
X2921D01*
X2919Y6759D01*
X2915Y6759D01*
X2910Y6760D01*
X2907D01*
X2903Y6761D01*
X2899D01*
X2894Y6761D01*
X2888D01*
X2882Y6762D01*
D02*
G37*
G36*
X-3220Y6269D02*
Y6181D01*
X-3101Y6226D01*
X-3220Y6269D01*
D02*
G37*
G36*
X-3050Y9419D02*
X-3092D01*
Y9208D01*
X-3036D01*
X-3030Y9208D01*
X-3023D01*
X-3017Y9209D01*
X-3011Y9209D01*
X-3006Y9210D01*
X-3005D01*
X-3003Y9211D01*
X-3000Y9212D01*
X-2996Y9214D01*
X-2992Y9215D01*
X-2988Y9218D01*
X-2984Y9221D01*
X-2980Y9224D01*
X-2979Y9224D01*
X-2978Y9226D01*
X-2976Y9228D01*
X-2974Y9231D01*
X-2971Y9235D01*
X-2968Y9240D01*
X-2966Y9247D01*
X-2963Y9254D01*
Y9255D01*
X-2963Y9255D01*
Y9257D01*
X-2962Y9258D01*
X-2961Y9260D01*
X-2961Y9263D01*
X-2959Y9270D01*
X-2958Y9278D01*
X-2957Y9288D01*
X-2957Y9300D01*
X-2956Y9313D01*
Y9313D01*
Y9315D01*
Y9317D01*
Y9319D01*
Y9322D01*
X-2957Y9326D01*
X-2957Y9334D01*
X-2958Y9343D01*
X-2959Y9353D01*
X-2961Y9361D01*
X-2963Y9370D01*
Y9370D01*
X-2964Y9371D01*
X-2964Y9373D01*
X-2966Y9377D01*
X-2968Y9381D01*
X-2970Y9386D01*
X-2974Y9391D01*
X-2977Y9396D01*
X-2982Y9401D01*
X-2982Y9401D01*
X-2983Y9403D01*
X-2986Y9404D01*
X-2989Y9407D01*
X-2994Y9409D01*
X-2999Y9412D01*
X-3005Y9414D01*
X-3011Y9416D01*
X-3012D01*
X-3014Y9416D01*
X-3018Y9417D01*
X-3023Y9418D01*
X-3026D01*
X-3030Y9418D01*
X-3034D01*
X-3039Y9419D01*
X-3044D01*
X-3050Y9419D01*
D02*
G37*
G36*
X6001Y-955D02*
X5959D01*
Y-1166D01*
X6016D01*
X6022Y-1166D01*
X6028D01*
X6035Y-1165D01*
X6041Y-1165D01*
X6046Y-1164D01*
X6047D01*
X6049Y-1163D01*
X6051Y-1162D01*
X6055Y-1160D01*
X6059Y-1159D01*
X6063Y-1156D01*
X6068Y-1153D01*
X6072Y-1150D01*
X6072Y-1150D01*
X6074Y-1148D01*
X6075Y-1146D01*
X6078Y-1143D01*
X6080Y-1139D01*
X6083Y-1134D01*
X6086Y-1127D01*
X6088Y-1120D01*
Y-1119D01*
X6089Y-1119D01*
Y-1117D01*
X6089Y-1116D01*
X6090Y-1114D01*
X6091Y-1111D01*
X6092Y-1104D01*
X6093Y-1096D01*
X6094Y-1086D01*
X6095Y-1074D01*
X6095Y-1061D01*
Y-1061D01*
Y-1059D01*
Y-1057D01*
Y-1055D01*
Y-1052D01*
X6095Y-1048D01*
X6094Y-1040D01*
X6093Y-1031D01*
X6093Y-1021D01*
X6091Y-1013D01*
X6088Y-1004D01*
Y-1004D01*
X6088Y-1003D01*
X6087Y-1001D01*
X6086Y-997D01*
X6084Y-993D01*
X6081Y-988D01*
X6078Y-983D01*
X6074Y-978D01*
X6070Y-973D01*
X6069Y-973D01*
X6068Y-971D01*
X6065Y-970D01*
X6062Y-967D01*
X6057Y-965D01*
X6052Y-962D01*
X6047Y-960D01*
X6040Y-958D01*
X6040D01*
X6038Y-958D01*
X6034Y-957D01*
X6029Y-956D01*
X6026D01*
X6021Y-956D01*
X6017D01*
X6013Y-955D01*
X6007D01*
X6001Y-955D01*
D02*
G37*
G36*
X-3081Y6608D02*
X-3292D01*
Y6561D01*
Y6560D01*
Y6559D01*
Y6558D01*
Y6556D01*
Y6552D01*
X-3292Y6546D01*
Y6539D01*
X-3291Y6533D01*
X-3291Y6527D01*
X-3290Y6522D01*
Y6521D01*
X-3289Y6519D01*
X-3288Y6516D01*
X-3286Y6512D01*
X-3285Y6508D01*
X-3282Y6504D01*
X-3279Y6500D01*
X-3276Y6496D01*
X-3276Y6495D01*
X-3274Y6494D01*
X-3272Y6492D01*
X-3269Y6490D01*
X-3265Y6487D01*
X-3260Y6484D01*
X-3253Y6482D01*
X-3246Y6479D01*
X-3245D01*
X-3245Y6479D01*
X-3243D01*
X-3242Y6478D01*
X-3240Y6477D01*
X-3237Y6477D01*
X-3230Y6475D01*
X-3222Y6474D01*
X-3212Y6473D01*
X-3200Y6473D01*
X-3187Y6472D01*
X-3178D01*
X-3174Y6473D01*
X-3166Y6473D01*
X-3157Y6474D01*
X-3147Y6475D01*
X-3139Y6477D01*
X-3130Y6479D01*
X-3130D01*
X-3129Y6480D01*
X-3127Y6480D01*
X-3123Y6482D01*
X-3119Y6484D01*
X-3114Y6486D01*
X-3109Y6490D01*
X-3104Y6493D01*
X-3099Y6498D01*
X-3099Y6498D01*
X-3097Y6499D01*
X-3096Y6502D01*
X-3093Y6505D01*
X-3091Y6510D01*
X-3088Y6515D01*
X-3086Y6521D01*
X-3084Y6527D01*
Y6528D01*
X-3084Y6530D01*
X-3083Y6534D01*
X-3082Y6539D01*
Y6542D01*
X-3082Y6546D01*
Y6550D01*
X-3081Y6555D01*
Y6560D01*
X-3081Y6566D01*
Y6573D01*
Y6580D01*
Y6608D01*
D02*
G37*
G36*
X-4458Y-4365D02*
X-4461D01*
X-4464Y-4366D01*
X-4469Y-4367D01*
X-4473Y-4369D01*
X-4478Y-4371D01*
X-4483Y-4375D01*
X-4488Y-4379D01*
X-4488Y-4380D01*
X-4490Y-4382D01*
X-4492Y-4385D01*
X-4494Y-4389D01*
X-4496Y-4395D01*
X-4498Y-4402D01*
X-4500Y-4411D01*
X-4500Y-4420D01*
Y-4421D01*
Y-4422D01*
Y-4423D01*
Y-4425D01*
X-4499Y-4431D01*
X-4498Y-4437D01*
X-4497Y-4445D01*
X-4494Y-4453D01*
X-4491Y-4460D01*
X-4487Y-4467D01*
X-4486Y-4467D01*
X-4484Y-4469D01*
X-4481Y-4472D01*
X-4477Y-4474D01*
X-4473Y-4478D01*
X-4468Y-4480D01*
X-4462Y-4482D01*
X-4455Y-4483D01*
X-4452D01*
X-4449Y-4482D01*
X-4445Y-4481D01*
X-4441Y-4480D01*
X-4436Y-4477D01*
X-4431Y-4474D01*
X-4427Y-4470D01*
X-4426Y-4469D01*
X-4425Y-4467D01*
X-4423Y-4464D01*
X-4421Y-4459D01*
X-4419Y-4453D01*
X-4417Y-4446D01*
X-4415Y-4437D01*
X-4415Y-4426D01*
Y-4425D01*
Y-4425D01*
Y-4423D01*
Y-4421D01*
X-4415Y-4415D01*
X-4416Y-4408D01*
X-4418Y-4401D01*
X-4420Y-4393D01*
X-4423Y-4386D01*
X-4428Y-4380D01*
X-4428Y-4379D01*
X-4430Y-4377D01*
X-4432Y-4375D01*
X-4436Y-4372D01*
X-4440Y-4370D01*
X-4446Y-4367D01*
X-4452Y-4365D01*
X-4458Y-4365D01*
D02*
G37*
G36*
X-1810Y-4301D02*
X-1852D01*
Y-4513D01*
X-1795D01*
X-1789Y-4512D01*
X-1783D01*
X-1777Y-4511D01*
X-1771Y-4511D01*
X-1765Y-4510D01*
X-1765D01*
X-1763Y-4509D01*
X-1760Y-4508D01*
X-1756Y-4507D01*
X-1752Y-4505D01*
X-1748Y-4503D01*
X-1744Y-4500D01*
X-1740Y-4497D01*
X-1739Y-4496D01*
X-1738Y-4495D01*
X-1736Y-4493D01*
X-1734Y-4489D01*
X-1731Y-4485D01*
X-1728Y-4480D01*
X-1726Y-4474D01*
X-1723Y-4466D01*
Y-4466D01*
X-1722Y-4465D01*
Y-4464D01*
X-1722Y-4462D01*
X-1721Y-4460D01*
X-1721Y-4457D01*
X-1719Y-4451D01*
X-1718Y-4442D01*
X-1717Y-4432D01*
X-1716Y-4420D01*
X-1716Y-4408D01*
Y-4407D01*
Y-4406D01*
Y-4404D01*
Y-4402D01*
Y-4398D01*
X-1716Y-4395D01*
X-1717Y-4387D01*
X-1718Y-4378D01*
X-1719Y-4368D01*
X-1721Y-4359D01*
X-1723Y-4351D01*
Y-4350D01*
X-1723Y-4350D01*
X-1724Y-4347D01*
X-1726Y-4344D01*
X-1728Y-4339D01*
X-1730Y-4335D01*
X-1734Y-4329D01*
X-1737Y-4324D01*
X-1741Y-4320D01*
X-1742Y-4319D01*
X-1743Y-4318D01*
X-1746Y-4316D01*
X-1749Y-4314D01*
X-1754Y-4311D01*
X-1759Y-4309D01*
X-1765Y-4306D01*
X-1771Y-4305D01*
X-1771D01*
X-1774Y-4304D01*
X-1777Y-4304D01*
X-1783Y-4303D01*
X-1786D01*
X-1790Y-4302D01*
X-1794D01*
X-1799Y-4302D01*
X-1804D01*
X-1810Y-4301D01*
D02*
G37*
G36*
X-5895Y4995D02*
X-5896D01*
X-5899Y4995D01*
X-5901Y4994D01*
X-5904Y4993D01*
X-5907Y4992D01*
X-5911Y4990D01*
X-5914Y4988D01*
X-5915Y4987D01*
X-5916Y4986D01*
X-5917Y4985D01*
X-5919Y4982D01*
X-5921Y4979D01*
X-5923Y4974D01*
X-5925Y4969D01*
X-5927Y4962D01*
Y4962D01*
X-5928Y4961D01*
Y4960D01*
X-5928Y4958D01*
X-5929Y4955D01*
X-5929Y4952D01*
X-5930Y4948D01*
X-5930Y4943D01*
X-5931Y4938D01*
X-5931Y4932D01*
X-5932Y4925D01*
X-5932Y4918D01*
X-5933Y4910D01*
Y4902D01*
X-5933Y4892D01*
Y4882D01*
Y4881D01*
Y4880D01*
Y4876D01*
Y4873D01*
Y4868D01*
X-5933Y4863D01*
Y4857D01*
X-5932Y4851D01*
X-5932Y4838D01*
X-5931Y4825D01*
X-5931Y4819D01*
X-5930Y4814D01*
X-5929Y4808D01*
X-5928Y4804D01*
X-5927Y4803D01*
X-5927Y4801D01*
X-5925Y4797D01*
X-5924Y4793D01*
X-5922Y4788D01*
X-5919Y4784D01*
X-5917Y4779D01*
X-5914Y4776D01*
X-5913Y4776D01*
X-5913Y4775D01*
X-5911Y4774D01*
X-5908Y4773D01*
X-5906Y4772D01*
X-5902Y4770D01*
X-5899Y4770D01*
X-5895Y4769D01*
X-5893D01*
X-5890Y4770D01*
X-5888Y4770D01*
X-5885Y4771D01*
X-5882Y4772D01*
X-5878Y4774D01*
X-5875Y4776D01*
X-5875Y4777D01*
X-5874Y4778D01*
X-5872Y4779D01*
X-5870Y4782D01*
X-5868Y4785D01*
X-5866Y4790D01*
X-5864Y4795D01*
X-5862Y4802D01*
Y4802D01*
X-5861Y4802D01*
Y4804D01*
X-5861Y4806D01*
X-5860Y4809D01*
X-5860Y4812D01*
X-5859Y4816D01*
X-5858Y4821D01*
X-5858Y4826D01*
X-5857Y4832D01*
X-5857Y4838D01*
X-5856Y4845D01*
X-5856Y4853D01*
Y4862D01*
X-5855Y4872D01*
Y4882D01*
Y4882D01*
Y4884D01*
Y4888D01*
Y4891D01*
Y4896D01*
X-5856Y4901D01*
Y4907D01*
X-5856Y4913D01*
X-5857Y4926D01*
X-5858Y4938D01*
X-5858Y4944D01*
X-5859Y4950D01*
X-5860Y4955D01*
X-5861Y4960D01*
Y4960D01*
X-5862Y4960D01*
X-5862Y4963D01*
X-5864Y4967D01*
X-5865Y4971D01*
X-5867Y4976D01*
X-5870Y4980D01*
X-5872Y4985D01*
X-5875Y4988D01*
X-5876Y4988D01*
X-5876Y4989D01*
X-5878Y4990D01*
X-5881Y4991D01*
X-5883Y4993D01*
X-5887Y4994D01*
X-5890Y4995D01*
X-5895Y4995D01*
D02*
G37*
G36*
X-5929Y5296D02*
X-5931D01*
X-5935Y5296D01*
X-5939Y5295D01*
X-5943Y5294D01*
X-5948Y5292D01*
X-5953Y5290D01*
X-5958Y5286D01*
X-5958Y5285D01*
X-5960Y5284D01*
X-5961Y5282D01*
X-5964Y5279D01*
X-5966Y5275D01*
X-5969Y5271D01*
X-5971Y5265D01*
X-5972Y5260D01*
Y5259D01*
X-5972Y5258D01*
X-5973Y5254D01*
X-5973Y5250D01*
Y5244D01*
X-5974Y5240D01*
Y5235D01*
X-5974Y5231D01*
Y5226D01*
Y5220D01*
Y5214D01*
Y5183D01*
X-5883D01*
Y5218D01*
Y5218D01*
Y5220D01*
Y5222D01*
Y5224D01*
Y5227D01*
X-5884Y5230D01*
Y5239D01*
X-5884Y5247D01*
X-5885Y5255D01*
X-5887Y5263D01*
X-5887Y5266D01*
X-5888Y5269D01*
X-5888Y5269D01*
X-5889Y5271D01*
X-5890Y5273D01*
X-5892Y5276D01*
X-5894Y5279D01*
X-5897Y5283D01*
X-5900Y5286D01*
X-5904Y5289D01*
X-5904Y5290D01*
X-5905Y5290D01*
X-5908Y5291D01*
X-5911Y5293D01*
X-5915Y5294D01*
X-5919Y5296D01*
X-5923Y5296D01*
X-5929Y5296D01*
D02*
G37*
G36*
X3249Y7746D02*
X3207D01*
Y7534D01*
X3264D01*
X3270Y7535D01*
X3276D01*
X3283Y7536D01*
X3289Y7536D01*
X3294Y7537D01*
X3295D01*
X3296Y7538D01*
X3299Y7539D01*
X3303Y7540D01*
X3307Y7542D01*
X3311Y7545D01*
X3315Y7547D01*
X3319Y7551D01*
X3320Y7551D01*
X3321Y7552D01*
X3323Y7555D01*
X3325Y7558D01*
X3328Y7562D01*
X3331Y7567D01*
X3333Y7574D01*
X3336Y7581D01*
Y7581D01*
X3337Y7582D01*
Y7583D01*
X3337Y7585D01*
X3338Y7587D01*
X3338Y7590D01*
X3340Y7597D01*
X3341Y7605D01*
X3342Y7615D01*
X3343Y7627D01*
X3343Y7640D01*
Y7640D01*
Y7642D01*
Y7643D01*
Y7646D01*
Y7649D01*
X3343Y7653D01*
X3342Y7660D01*
X3341Y7670D01*
X3340Y7679D01*
X3338Y7688D01*
X3336Y7697D01*
Y7697D01*
X3336Y7697D01*
X3335Y7700D01*
X3333Y7703D01*
X3331Y7708D01*
X3329Y7713D01*
X3325Y7718D01*
X3322Y7723D01*
X3318Y7727D01*
X3317Y7728D01*
X3316Y7729D01*
X3313Y7731D01*
X3310Y7733D01*
X3305Y7736D01*
X3300Y7739D01*
X3295Y7741D01*
X3288Y7743D01*
X3288D01*
X3285Y7743D01*
X3282Y7744D01*
X3277Y7745D01*
X3273D01*
X3269Y7745D01*
X3265D01*
X3260Y7746D01*
X3255D01*
X3249Y7746D01*
D02*
G37*
G36*
X2172Y9525D02*
X1939D01*
Y9268D01*
X2172D01*
X2246Y9396D01*
X2172Y9525D01*
D02*
G37*
G36*
X3223Y6741D02*
X3180Y6623D01*
X3268D01*
X3223Y6741D01*
D02*
G37*
G36*
X-4330Y8533D02*
X-4372D01*
Y8322D01*
X-4315D01*
X-4309Y8322D01*
X-4303D01*
X-4296Y8323D01*
X-4290Y8324D01*
X-4285Y8325D01*
X-4284D01*
X-4282Y8325D01*
X-4280Y8326D01*
X-4276Y8328D01*
X-4272Y8330D01*
X-4268Y8332D01*
X-4263Y8335D01*
X-4259Y8338D01*
X-4259Y8338D01*
X-4257Y8340D01*
X-4256Y8342D01*
X-4253Y8345D01*
X-4251Y8349D01*
X-4248Y8355D01*
X-4245Y8361D01*
X-4243Y8368D01*
Y8369D01*
X-4242Y8369D01*
Y8371D01*
X-4242Y8373D01*
X-4241Y8374D01*
X-4240Y8377D01*
X-4239Y8384D01*
X-4238Y8392D01*
X-4237Y8402D01*
X-4236Y8414D01*
X-4236Y8427D01*
Y8428D01*
Y8429D01*
Y8431D01*
Y8433D01*
Y8436D01*
X-4236Y8440D01*
X-4237Y8448D01*
X-4238Y8457D01*
X-4238Y8467D01*
X-4240Y8476D01*
X-4243Y8484D01*
Y8484D01*
X-4243Y8485D01*
X-4244Y8487D01*
X-4245Y8491D01*
X-4247Y8495D01*
X-4250Y8500D01*
X-4253Y8505D01*
X-4257Y8510D01*
X-4261Y8515D01*
X-4262Y8515D01*
X-4263Y8517D01*
X-4266Y8519D01*
X-4269Y8521D01*
X-4274Y8524D01*
X-4279Y8526D01*
X-4284Y8528D01*
X-4291Y8530D01*
X-4291D01*
X-4293Y8531D01*
X-4297Y8531D01*
X-4302Y8532D01*
X-4305D01*
X-4310Y8532D01*
X-4314D01*
X-4318Y8533D01*
X-4324D01*
X-4330Y8533D01*
D02*
G37*
G36*
X-5835Y7106D02*
X-5954Y7062D01*
X-5835Y7018D01*
Y7106D01*
D02*
G37*
G36*
X-5868Y6815D02*
X-5877D01*
X-5881Y6815D01*
X-5889Y6814D01*
X-5898Y6813D01*
X-5908Y6812D01*
X-5917Y6811D01*
X-5925Y6808D01*
X-5925D01*
X-5926Y6808D01*
X-5928Y6807D01*
X-5932Y6806D01*
X-5936Y6804D01*
X-5941Y6801D01*
X-5946Y6798D01*
X-5951Y6794D01*
X-5956Y6790D01*
X-5956Y6789D01*
X-5958Y6788D01*
X-5960Y6785D01*
X-5962Y6782D01*
X-5965Y6777D01*
X-5967Y6772D01*
X-5969Y6767D01*
X-5971Y6760D01*
Y6760D01*
X-5972Y6758D01*
X-5972Y6754D01*
X-5973Y6749D01*
Y6746D01*
X-5973Y6741D01*
Y6737D01*
X-5974Y6733D01*
Y6727D01*
X-5974Y6721D01*
Y6715D01*
Y6708D01*
Y6679D01*
X-5763D01*
Y6727D01*
Y6727D01*
Y6728D01*
Y6729D01*
Y6731D01*
Y6736D01*
X-5763Y6742D01*
Y6748D01*
X-5764Y6755D01*
X-5765Y6761D01*
X-5765Y6766D01*
Y6767D01*
X-5766Y6769D01*
X-5767Y6771D01*
X-5769Y6775D01*
X-5771Y6779D01*
X-5773Y6783D01*
X-5776Y6788D01*
X-5779Y6792D01*
X-5779Y6792D01*
X-5781Y6794D01*
X-5783Y6795D01*
X-5786Y6798D01*
X-5790Y6800D01*
X-5796Y6803D01*
X-5802Y6806D01*
X-5809Y6808D01*
X-5810D01*
X-5810Y6809D01*
X-5812D01*
X-5814Y6809D01*
X-5815Y6810D01*
X-5818Y6811D01*
X-5825Y6812D01*
X-5833Y6813D01*
X-5843Y6814D01*
X-5855Y6815D01*
X-5868Y6815D01*
D02*
G37*
G36*
X4016Y2883D02*
X3972Y2764D01*
X4061D01*
X4016Y2883D01*
D02*
G37*
%LPD*%
D26*
X4252Y-6004D02*
X4331Y-5925D01*
D28*
X-2628Y-3622D02*
G03*
X-2628Y-3622I-10J0D01*
G01*
D32*
X3602Y748D02*
Y2008D01*
X2894Y748D02*
Y2008D01*
X3602D01*
X2894Y748D02*
X3602D01*
X-2638Y-3622D02*
X-2146D01*
X-2638Y-3622D02*
Y-3130D01*
X5610Y5610D02*
X5906Y5315D01*
Y4921D02*
Y5315D01*
X3248Y5807D02*
X3445Y5610D01*
X3520D01*
X-1535Y-5059D02*
Y-3799D01*
X-827Y-5059D02*
Y-3799D01*
X-1535Y-5059D02*
X-827D01*
X-1535Y-3799D02*
X-827D01*
X-630Y-6161D02*
X630D01*
X-630Y-5453D02*
X630D01*
Y-6161D02*
Y-5453D01*
X-630Y-6161D02*
Y-5453D01*
X-4665Y-453D02*
Y256D01*
X-3406Y-453D02*
Y256D01*
X-4665D02*
X-3406D01*
X-4665Y-453D02*
X-3406D01*
X2106Y-2894D02*
Y-1634D01*
X2815Y-2894D02*
Y-1634D01*
X2106Y-2894D02*
X2815D01*
X2106Y-1634D02*
X2815D01*
X650Y-6161D02*
Y-5453D01*
X1909Y-6161D02*
Y-5453D01*
X650D02*
X1909D01*
X650Y-6161D02*
X1909D01*
X1516Y-5256D02*
X2224D01*
X1516Y-3996D02*
X2224D01*
X1516Y-5256D02*
Y-3996D01*
X2224Y-5256D02*
Y-3996D01*
X1535Y-5256D02*
Y-3996D01*
X827Y-5256D02*
Y-3996D01*
X1535D01*
X827Y-5256D02*
X1535D01*
X748Y-2697D02*
X2008D01*
X748Y-3406D02*
X2008D01*
X748D02*
Y-2697D01*
X2008Y-3406D02*
Y-2697D01*
X3484Y-3898D02*
Y-3189D01*
X2224Y-3898D02*
Y-3189D01*
Y-3898D02*
X3484D01*
X2224Y-3189D02*
X3484D01*
Y-4685D02*
Y-3976D01*
X2224Y-4685D02*
Y-3976D01*
Y-4685D02*
X3484D01*
X2224Y-3976D02*
X3484D01*
X4764Y-4685D02*
Y-3976D01*
X3504Y-4685D02*
Y-3976D01*
Y-4685D02*
X4764D01*
X3504Y-3976D02*
X4764D01*
Y-3898D02*
Y-3189D01*
X3504Y-3898D02*
Y-3189D01*
Y-3898D02*
X4764D01*
X3504Y-3189D02*
X4764D01*
X-1909Y-3406D02*
X-650D01*
X-1909Y-2697D02*
X-650D01*
Y-3406D02*
Y-2697D01*
X-1909Y-3406D02*
Y-2697D01*
X-3406Y2992D02*
Y3701D01*
X-4665Y2992D02*
Y3701D01*
Y2992D02*
X-3406D01*
X-4665Y3701D02*
X-3406D01*
X-3406Y2313D02*
Y3022D01*
X-4665Y2313D02*
Y3022D01*
Y2313D02*
X-3406D01*
X-4665Y3022D02*
X-3406D01*
X-4665Y1624D02*
X-3406D01*
X-4665Y2333D02*
X-3406D01*
Y1624D02*
Y2333D01*
X-4665Y1624D02*
Y2333D01*
X-3406Y915D02*
Y1624D01*
X-4665Y915D02*
Y1624D01*
Y915D02*
X-3406D01*
X-4665Y1624D02*
X-3406D01*
X-3406Y236D02*
Y945D01*
X-4665Y236D02*
Y945D01*
Y236D02*
X-3406D01*
X-4665Y945D02*
X-3406D01*
X-4862Y-2913D02*
X-3209D01*
Y-3780D02*
Y-2913D01*
X-4862Y-3780D02*
X-3209D01*
X-4862D02*
Y-2913D01*
X-4862Y-2913D01*
X-2795Y-2697D02*
Y-1437D01*
X-3504Y-2697D02*
Y-1437D01*
X-2795D01*
X-3504Y-2697D02*
X-2795D01*
X-5669Y-1417D02*
Y-157D01*
X-4961Y-1417D02*
Y-157D01*
X-5669Y-1417D02*
X-4961D01*
X-5669Y-157D02*
X-4961D01*
X-6358Y-1417D02*
X-5650D01*
X-6358Y-157D02*
X-5650D01*
X-6358Y-1417D02*
Y-157D01*
X-5650Y-1417D02*
Y-157D01*
X-3976Y-4173D02*
X-2717D01*
X-3976Y-4882D02*
X-2717D01*
X-3976D02*
Y-4173D01*
X-2717Y-4882D02*
Y-4173D01*
X-1929Y6535D02*
X-1220D01*
X-1929Y5276D02*
X-1220D01*
Y6535D01*
X-1929Y5276D02*
Y6535D01*
X2697Y5354D02*
Y6063D01*
X1437Y5354D02*
Y6063D01*
Y5354D02*
X2697D01*
X1437Y6063D02*
X2697D01*
X1437Y2992D02*
Y3701D01*
X2697Y2992D02*
Y3701D01*
X1437D02*
X2697D01*
X1437Y2992D02*
X2697D01*
X-1929Y3996D02*
X-1220D01*
X-1929Y5256D02*
X-1220D01*
X-1929Y3996D02*
Y5256D01*
X-1220Y3996D02*
Y5256D01*
X335Y2913D02*
X1043D01*
X335Y4173D02*
X1043D01*
X335Y2913D02*
Y4173D01*
X1043Y2913D02*
Y4173D01*
X-354Y2913D02*
X354D01*
X-354Y4173D02*
X354D01*
X-354Y2913D02*
Y4173D01*
X354Y2913D02*
Y4173D01*
X1516Y7815D02*
X2224D01*
X1516Y6555D02*
X2224D01*
Y7815D01*
X1516Y6555D02*
Y7815D01*
X827D02*
X1535D01*
X827Y6555D02*
X1535D01*
Y7815D01*
X827Y6555D02*
Y7815D01*
X-1929D02*
X-1220D01*
X-1929Y6555D02*
X-1220D01*
Y7815D01*
X-1929Y6555D02*
Y7815D01*
X-2618D02*
X-1909D01*
X-2618Y6555D02*
X-1909D01*
Y7815D01*
X-2618Y6555D02*
Y7815D01*
X2913Y-531D02*
X4173D01*
X2913Y-1240D02*
X4173D01*
X2913D02*
Y-531D01*
X4173Y-1240D02*
Y-531D01*
X-3386Y2992D02*
Y3701D01*
X-2126Y2992D02*
Y3701D01*
X-3386D02*
X-2126D01*
X-3386Y2992D02*
X-2126D01*
X-1240Y6555D02*
Y7815D01*
X-531Y6555D02*
Y7815D01*
X-1240Y6555D02*
X-531D01*
X-1240Y7815D02*
X-531D01*
X-531Y6535D02*
X728D01*
X-531Y7244D02*
X728D01*
Y6535D02*
Y7244D01*
X-531Y6535D02*
Y7244D01*
X-4862Y-1319D02*
X-3209D01*
X-4862D02*
Y-453D01*
X-3209D01*
Y-1319D02*
Y-453D01*
X-3209Y-1319D02*
X-3209Y-1319D01*
X4331Y-6004D02*
Y-5860D01*
X4187Y-6004D02*
X4331D01*
X-335Y2913D02*
Y4173D01*
X-1043Y2913D02*
Y4173D01*
X-335D01*
X-1043Y2913D02*
X-335D01*
X-5492Y4390D02*
X-3681D01*
X-5492Y3681D02*
X-3681D01*
X-5492D02*
Y4390D01*
X-3681Y3681D02*
Y4390D01*
X-5492Y5079D02*
X-3681D01*
X-5492Y4370D02*
X-3681D01*
X-5492D02*
Y5079D01*
X-3681Y4370D02*
Y5079D01*
X3602Y3681D02*
X5413D01*
X3602Y4390D02*
X5413D01*
Y3681D02*
Y4390D01*
X3602Y3681D02*
Y4390D01*
Y4370D02*
X5413D01*
X3602Y5079D02*
X5413D01*
Y4370D02*
Y5079D01*
X3602Y4370D02*
Y5079D01*
X-2618Y3996D02*
X-1909D01*
X-2618Y5256D02*
X-1909D01*
X-2618Y3996D02*
Y5256D01*
X-1909Y3996D02*
Y5256D01*
X-2618Y5276D02*
Y6535D01*
X-1909Y5276D02*
Y6535D01*
X-2618Y5276D02*
X-1909D01*
X-2618Y6535D02*
X-1909D01*
D33*
X-1600Y11541D02*
X1600D01*
Y8341D02*
Y11541D01*
X-1600Y8341D02*
X1600D01*
X-1600D02*
Y11541D01*
X2441Y-6004D02*
X4037D01*
X4331Y-5710D02*
Y-4823D01*
X2441Y-6004D02*
Y-4823D01*
X4331D01*
D46*
X-2418Y-3622D02*
G03*
X-2418Y-3622I-220J0D01*
G01*
X600Y-5118D02*
Y-5030D01*
X-591Y-3928D02*
X-528D01*
X-2079Y-4764D02*
Y-4654D01*
X-4764Y-4724D02*
X-4173Y-5315D01*
X-4764Y-4724D02*
Y-4606D01*
X-5433D02*
X-4094D01*
X-2079Y-4764D02*
X-1732Y-5110D01*
X-2520Y-4646D02*
X-1732D01*
X-4396Y9633D02*
X-2296D01*
X-4396D02*
Y11233D01*
X-2296D01*
Y9633D02*
Y11233D01*
X2874Y-2894D02*
X4213D01*
Y-1240D01*
X2874D02*
X4213D01*
X2874Y-2894D02*
Y-1240D01*
X1398Y3701D02*
Y5354D01*
X2736D01*
Y3701D02*
Y5354D01*
X1398Y3701D02*
X2736D01*
X-6220Y3130D02*
X-6102D01*
X-6220Y217D02*
Y3130D01*
X600Y-4020D02*
Y-3928D01*
X-591Y-5118D02*
Y-5030D01*
Y-5118D02*
X-518D01*
X518D02*
X600D01*
X510Y-3928D02*
X600D01*
X-591Y-3991D02*
Y-3928D01*
X2692Y2332D02*
X2659Y2365D01*
X2592D01*
X2559Y2332D01*
Y2199D01*
X2592Y2165D01*
X2659D01*
X2692Y2199D01*
X2759Y2332D02*
X2792Y2365D01*
X2859D01*
X2892Y2332D01*
Y2299D01*
X2859Y2265D01*
X2892Y2232D01*
Y2199D01*
X2859Y2165D01*
X2792D01*
X2759Y2199D01*
Y2232D01*
X2792Y2265D01*
X2759Y2299D01*
Y2332D01*
X2792Y2265D02*
X2859D01*
X4331Y-886D02*
Y-686D01*
X4431D01*
X4464Y-719D01*
Y-786D01*
X4431Y-819D01*
X4331D01*
X4531Y-719D02*
X4564Y-686D01*
X4631D01*
X4664Y-719D01*
Y-753D01*
X4631Y-786D01*
X4597D01*
X4631D01*
X4664Y-819D01*
Y-852D01*
X4631Y-886D01*
X4564D01*
X4531Y-852D01*
X-4823Y9744D02*
Y9944D01*
X-4723D01*
X-4690Y9911D01*
Y9844D01*
X-4723Y9811D01*
X-4823D01*
X-4623Y9911D02*
X-4590Y9944D01*
X-4523D01*
X-4490Y9911D01*
Y9877D01*
X-4523Y9844D01*
X-4490Y9811D01*
Y9777D01*
X-4523Y9744D01*
X-4590D01*
X-4623Y9777D01*
Y9811D01*
X-4590Y9844D01*
X-4623Y9877D01*
Y9911D01*
X-4590Y9844D02*
X-4523D01*
X-3251Y4331D02*
X-3051D01*
Y4464D01*
Y4664D02*
Y4531D01*
X-3184Y4664D01*
X-3218D01*
X-3251Y4631D01*
Y4564D01*
X-3218Y4531D01*
Y5547D02*
X-3251Y5513D01*
Y5447D01*
X-3218Y5413D01*
X-3085D01*
X-3051Y5447D01*
Y5513D01*
X-3085Y5547D01*
X-3051Y5613D02*
Y5680D01*
Y5647D01*
X-3251D01*
X-3218Y5613D01*
Y5780D02*
X-3251Y5813D01*
Y5880D01*
X-3218Y5913D01*
X-3085D01*
X-3051Y5880D01*
Y5813D01*
X-3085Y5780D01*
X-3218D01*
X-2953Y2677D02*
Y2877D01*
X-2853D01*
X-2819Y2844D01*
Y2777D01*
X-2853Y2744D01*
X-2953D01*
X-2886D02*
X-2819Y2677D01*
X-2620Y2877D02*
X-2753D01*
Y2777D01*
X-2686Y2810D01*
X-2653D01*
X-2620Y2777D01*
Y2710D01*
X-2653Y2677D01*
X-2720D01*
X-2753Y2710D01*
X4531Y-1969D02*
X4497D01*
X4431Y-2035D01*
X4497Y-2102D01*
X4531D01*
X4431Y-2035D02*
X4331D01*
Y-2302D02*
Y-2168D01*
X4464Y-2302D01*
X4497D01*
X4531Y-2268D01*
Y-2202D01*
X4497Y-2168D01*
X-984Y-5154D02*
Y-5321D01*
X-951Y-5354D01*
X-884D01*
X-851Y-5321D01*
Y-5154D01*
X-651Y-5354D02*
X-784D01*
X-651Y-5221D01*
Y-5188D01*
X-684Y-5154D01*
X-751D01*
X-784Y-5188D01*
X2165Y-5512D02*
X2365D01*
Y-5612D01*
X2332Y-5645D01*
X2265D01*
X2232Y-5612D01*
Y-5512D01*
Y-5578D02*
X2165Y-5645D01*
Y-5712D02*
Y-5778D01*
Y-5745D01*
X2365D01*
X2332Y-5712D01*
X2365Y-6012D02*
X2332Y-5945D01*
X2265Y-5878D01*
X2199D01*
X2165Y-5912D01*
Y-5978D01*
X2199Y-6012D01*
X2232D01*
X2265Y-5978D01*
Y-5878D01*
X2165Y-6078D02*
Y-6145D01*
Y-6112D01*
X2365D01*
X2332Y-6078D01*
X-4823Y1181D02*
X-5023D01*
Y1281D01*
X-4989Y1314D01*
X-4923D01*
X-4889Y1281D01*
Y1181D01*
Y1248D02*
X-4823Y1314D01*
Y1481D02*
X-5023D01*
X-4923Y1381D01*
Y1514D01*
X-4989Y1581D02*
X-5023Y1614D01*
Y1681D01*
X-4989Y1714D01*
X-4856D01*
X-4823Y1681D01*
Y1614D01*
X-4856Y1581D01*
X-4989D01*
X-4823Y394D02*
X-5023D01*
Y494D01*
X-4989Y527D01*
X-4923D01*
X-4889Y494D01*
Y394D01*
Y460D02*
X-4823Y527D01*
X-4989Y594D02*
X-5023Y627D01*
Y694D01*
X-4989Y727D01*
X-4956D01*
X-4923Y694D01*
Y660D01*
Y694D01*
X-4889Y727D01*
X-4856D01*
X-4823Y694D01*
Y627D01*
X-4856Y594D01*
Y794D02*
X-4823Y827D01*
Y894D01*
X-4856Y927D01*
X-4989D01*
X-5023Y894D01*
Y827D01*
X-4989Y794D01*
X-4956D01*
X-4923Y827D01*
Y927D01*
X887Y-3736D02*
Y-3536D01*
X987D01*
X1021Y-3569D01*
Y-3636D01*
X987Y-3669D01*
X887D01*
X954D02*
X1021Y-3736D01*
X1221D02*
X1087D01*
X1221Y-3603D01*
Y-3569D01*
X1187Y-3536D01*
X1121D01*
X1087Y-3569D01*
X1287D02*
X1321Y-3536D01*
X1387D01*
X1421Y-3569D01*
Y-3603D01*
X1387Y-3636D01*
X1421Y-3669D01*
Y-3703D01*
X1387Y-3736D01*
X1321D01*
X1287Y-3703D01*
Y-3669D01*
X1321Y-3636D01*
X1287Y-3603D01*
Y-3569D01*
X1321Y-3636D02*
X1387D01*
X4409Y-3051D02*
Y-2851D01*
X4509D01*
X4543Y-2885D01*
Y-2951D01*
X4509Y-2985D01*
X4409D01*
X4476D02*
X4543Y-3051D01*
X4743D02*
X4609D01*
X4743Y-2918D01*
Y-2885D01*
X4709Y-2851D01*
X4643D01*
X4609Y-2885D01*
X4809D02*
X4843Y-2851D01*
X4909D01*
X4943Y-2885D01*
Y-2918D01*
X4909Y-2951D01*
X4876D01*
X4909D01*
X4943Y-2985D01*
Y-3018D01*
X4909Y-3051D01*
X4843D01*
X4809Y-3018D01*
X1575Y-3736D02*
Y-3536D01*
X1675D01*
X1708Y-3569D01*
Y-3636D01*
X1675Y-3669D01*
X1575D01*
X1641D02*
X1708Y-3736D01*
X1908D02*
X1775D01*
X1908Y-3603D01*
Y-3569D01*
X1875Y-3536D01*
X1808D01*
X1775Y-3569D01*
X2108Y-3736D02*
X1975D01*
X2108Y-3603D01*
Y-3569D01*
X2075Y-3536D01*
X2008D01*
X1975Y-3569D01*
X4528Y-4823D02*
X4727D01*
Y-4923D01*
X4694Y-4956D01*
X4628D01*
X4594Y-4923D01*
Y-4823D01*
Y-4889D02*
X4528Y-4956D01*
Y-5156D02*
Y-5023D01*
X4661Y-5156D01*
X4694D01*
X4727Y-5123D01*
Y-5056D01*
X4694Y-5023D01*
X4528Y-5223D02*
Y-5289D01*
Y-5256D01*
X4727D01*
X4694Y-5223D01*
X-4823Y3238D02*
X-5023D01*
Y3338D01*
X-4989Y3371D01*
X-4923D01*
X-4889Y3338D01*
Y3238D01*
Y3305D02*
X-4823Y3371D01*
Y3538D02*
X-5023D01*
X-4923Y3438D01*
Y3571D01*
X-4823Y2461D02*
X-5023D01*
Y2561D01*
X-4989Y2594D01*
X-4923D01*
X-4889Y2561D01*
Y2461D01*
Y2527D02*
X-4823Y2594D01*
Y2794D02*
Y2661D01*
X-4956Y2794D01*
X-4989D01*
X-5023Y2761D01*
Y2694D01*
X-4989Y2661D01*
X-5023Y2994D02*
X-4989Y2927D01*
X-4923Y2860D01*
X-4856D01*
X-4823Y2894D01*
Y2960D01*
X-4856Y2994D01*
X-4889D01*
X-4923Y2960D01*
Y2860D01*
X4921Y-4528D02*
Y-4328D01*
X5021D01*
X5055Y-4361D01*
Y-4428D01*
X5021Y-4461D01*
X4921D01*
X4988D02*
X5055Y-4528D01*
X5254D02*
X5121D01*
X5254Y-4394D01*
Y-4361D01*
X5221Y-4328D01*
X5155D01*
X5121Y-4361D01*
X-4823Y0D02*
X-5023D01*
Y100D01*
X-4989Y133D01*
X-4923D01*
X-4889Y100D01*
Y0D01*
Y67D02*
X-4823Y133D01*
Y200D02*
Y267D01*
Y233D01*
X-5023D01*
X-4989Y200D01*
X-4961Y-6142D02*
Y-5942D01*
X-4861D01*
X-4827Y-5975D01*
Y-6042D01*
X-4861Y-6075D01*
X-4961D01*
X-4761Y-5942D02*
X-4627D01*
Y-5975D01*
X-4761Y-6108D01*
Y-6142D01*
X4921Y-2717D02*
X4721D01*
Y-2617D01*
X4755Y-2583D01*
X4821D01*
X4855Y-2617D01*
Y-2717D01*
X4921Y-2383D02*
Y-2517D01*
X4788Y-2383D01*
X4755D01*
X4721Y-2417D01*
Y-2483D01*
X4755Y-2517D01*
X-6201Y-1572D02*
Y-1772D01*
X-6068D01*
X-6001D02*
X-5934D01*
X-5968D01*
Y-1572D01*
X-6001Y-1605D01*
X4626Y-5902D02*
Y-6102D01*
Y-6002D01*
X4759D01*
Y-5902D01*
Y-6102D01*
X4959Y-5902D02*
X4826D01*
Y-6002D01*
X4893Y-5969D01*
X4926D01*
X4959Y-6002D01*
Y-6069D01*
X4926Y-6102D01*
X4859D01*
X4826Y-6069D01*
X-6339Y-4524D02*
Y-4724D01*
Y-4624D01*
X-6205D01*
Y-4524D01*
Y-4724D01*
X-6039D02*
Y-4524D01*
X-6139Y-4624D01*
X-6005D01*
X-4823Y11420D02*
Y11220D01*
Y11320D01*
X-4690D01*
Y11420D01*
Y11220D01*
X-4623Y11387D02*
X-4590Y11420D01*
X-4523D01*
X-4490Y11387D01*
Y11354D01*
X-4523Y11320D01*
X-4556D01*
X-4523D01*
X-4490Y11287D01*
Y11254D01*
X-4523Y11220D01*
X-4590D01*
X-4623Y11254D01*
X4626Y11322D02*
Y11122D01*
Y11222D01*
X4759D01*
Y11322D01*
Y11122D01*
X4826D02*
X4893D01*
X4859D01*
Y11322D01*
X4826Y11289D01*
X4528Y-5607D02*
Y-5807D01*
X4628D01*
X4661Y-5774D01*
Y-5640D01*
X4628Y-5607D01*
X4528D01*
X4861Y-5807D02*
X4727D01*
X4861Y-5674D01*
Y-5640D01*
X4827Y-5607D01*
X4761D01*
X4727Y-5640D01*
X-6201Y-2162D02*
Y-2362D01*
X-6101D01*
X-6068Y-2329D01*
Y-2196D01*
X-6101Y-2162D01*
X-6201D01*
X-6001Y-2362D02*
X-5934D01*
X-5968D01*
Y-2162D01*
X-6001Y-2196D01*
X-3607Y-3928D02*
X-3640Y-3895D01*
X-3707D01*
X-3740Y-3928D01*
Y-4061D01*
X-3707Y-4094D01*
X-3640D01*
X-3607Y-4061D01*
X-3407Y-4094D02*
X-3540D01*
X-3407Y-3961D01*
Y-3928D01*
X-3440Y-3895D01*
X-3507D01*
X-3540Y-3928D01*
X-3240Y-4094D02*
Y-3895D01*
X-3340Y-3995D01*
X-3207D01*
X-954Y-5969D02*
X-987Y-6002D01*
Y-6069D01*
X-954Y-6102D01*
X-821D01*
X-787Y-6069D01*
Y-6002D01*
X-821Y-5969D01*
X-787Y-5769D02*
Y-5902D01*
X-921Y-5769D01*
X-954D01*
X-987Y-5802D01*
Y-5869D01*
X-954Y-5902D01*
Y-5702D02*
X-987Y-5669D01*
Y-5603D01*
X-954Y-5569D01*
X-921D01*
X-887Y-5603D01*
Y-5636D01*
Y-5603D01*
X-854Y-5569D01*
X-821D01*
X-787Y-5603D01*
Y-5669D01*
X-821Y-5702D01*
X-1638Y-3534D02*
X-1672Y-3501D01*
X-1738D01*
X-1772Y-3534D01*
Y-3667D01*
X-1738Y-3701D01*
X-1672D01*
X-1638Y-3667D01*
X-1572Y-3701D02*
X-1505D01*
X-1538D01*
Y-3501D01*
X-1572Y-3534D01*
X-1405Y-3667D02*
X-1372Y-3701D01*
X-1305D01*
X-1272Y-3667D01*
Y-3534D01*
X-1305Y-3501D01*
X-1372D01*
X-1405Y-3534D01*
Y-3568D01*
X-1372Y-3601D01*
X-1272D01*
X429Y-3574D02*
X395Y-3540D01*
X329D01*
X295Y-3574D01*
Y-3707D01*
X329Y-3740D01*
X395D01*
X429Y-3707D01*
X628Y-3740D02*
X495D01*
X628Y-3607D01*
Y-3574D01*
X595Y-3540D01*
X529D01*
X495Y-3574D01*
X695Y-3740D02*
X762D01*
X728D01*
Y-3540D01*
X695Y-3574D01*
X-2524Y-1900D02*
X-2558Y-1867D01*
X-2624D01*
X-2657Y-1900D01*
Y-2034D01*
X-2624Y-2067D01*
X-2558D01*
X-2524Y-2034D01*
X-2458D02*
X-2424Y-2067D01*
X-2358D01*
X-2324Y-2034D01*
Y-1900D01*
X-2358Y-1867D01*
X-2424D01*
X-2458Y-1900D01*
Y-1934D01*
X-2424Y-1967D01*
X-2324D01*
X424Y-3115D02*
X391Y-3148D01*
Y-3215D01*
X424Y-3248D01*
X557D01*
X591Y-3215D01*
Y-3148D01*
X557Y-3115D01*
X391Y-3048D02*
Y-2915D01*
X424D01*
X557Y-3048D01*
X591D01*
X-4989Y2003D02*
X-5023Y1970D01*
Y1903D01*
X-4989Y1870D01*
X-4856D01*
X-4823Y1903D01*
Y1970D01*
X-4856Y2003D01*
X-5023Y2203D02*
X-4989Y2137D01*
X-4923Y2070D01*
X-4856D01*
X-4823Y2103D01*
Y2170D01*
X-4856Y2203D01*
X-4889D01*
X-4923Y2170D01*
Y2070D01*
X-385Y-2889D02*
X-351Y-2856D01*
Y-2789D01*
X-385Y-2756D01*
X-518D01*
X-551Y-2789D01*
Y-2856D01*
X-518Y-2889D01*
X-351Y-3089D02*
Y-2956D01*
X-451D01*
X-418Y-3022D01*
Y-3056D01*
X-451Y-3089D01*
X-518D01*
X-551Y-3056D01*
Y-2989D01*
X-518Y-2956D01*
X3165Y-227D02*
X3131Y-194D01*
X3065D01*
X3031Y-227D01*
Y-360D01*
X3065Y-394D01*
X3131D01*
X3165Y-360D01*
X3331Y-394D02*
Y-194D01*
X3231Y-294D01*
X3365D01*
X1802Y-2380D02*
X1769Y-2414D01*
Y-2480D01*
X1802Y-2514D01*
X1935D01*
X1969Y-2480D01*
Y-2414D01*
X1935Y-2380D01*
X1802Y-2314D02*
X1769Y-2281D01*
Y-2214D01*
X1802Y-2181D01*
X1835D01*
X1869Y-2214D01*
Y-2247D01*
Y-2214D01*
X1902Y-2181D01*
X1935D01*
X1969Y-2214D01*
Y-2281D01*
X1935Y-2314D01*
X-5379Y-1605D02*
X-5412Y-1572D01*
X-5478D01*
X-5512Y-1605D01*
Y-1738D01*
X-5478Y-1772D01*
X-5412D01*
X-5379Y-1738D01*
X-5179Y-1772D02*
X-5312D01*
X-5179Y-1638D01*
Y-1605D01*
X-5212Y-1572D01*
X-5279D01*
X-5312Y-1605D01*
X-2362Y2208D02*
Y2041D01*
X-2329Y2008D01*
X-2262D01*
X-2229Y2041D01*
Y2208D01*
X-2162Y2008D02*
X-2096D01*
X-2129D01*
Y2208D01*
X-2162Y2174D01*
X-6166Y3645D02*
X-6233D01*
X-6199D01*
Y3478D01*
X-6233Y3445D01*
X-6266D01*
X-6299Y3478D01*
X-6099Y3445D02*
X-6033D01*
X-6066D01*
Y3645D01*
X-6099Y3611D01*
X-4591Y-3928D02*
X-4624Y-3895D01*
X-4691D01*
X-4724Y-3928D01*
Y-4061D01*
X-4691Y-4094D01*
X-4624D01*
X-4591Y-4061D01*
X-4391Y-4094D02*
X-4524D01*
X-4391Y-3961D01*
Y-3928D01*
X-4425Y-3895D01*
X-4491D01*
X-4524Y-3928D01*
X-4191Y-3895D02*
X-4325D01*
Y-3995D01*
X-4258Y-3961D01*
X-4225D01*
X-4191Y-3995D01*
Y-4061D01*
X-4225Y-4094D01*
X-4291D01*
X-4325Y-4061D01*
X-3021Y-949D02*
X-3054Y-983D01*
Y-1049D01*
X-3021Y-1083D01*
X-2888D01*
X-2854Y-1049D01*
Y-983D01*
X-2888Y-949D01*
X-2854Y-883D02*
Y-816D01*
Y-849D01*
X-3054D01*
X-3021Y-883D01*
X-2854Y-716D02*
Y-649D01*
Y-683D01*
X-3054D01*
X-3021Y-716D01*
X-3937Y-1965D02*
Y-2099D01*
X-3870Y-2165D01*
X-3804Y-2099D01*
Y-1965D01*
X-3737Y-2165D02*
X-3670D01*
X-3704D01*
Y-1965D01*
X-3737Y-1999D01*
X-2756Y5413D02*
X-2956D01*
Y5513D01*
X-2923Y5547D01*
X-2856D01*
X-2823Y5513D01*
Y5413D01*
Y5480D02*
X-2756Y5547D01*
Y5613D02*
Y5680D01*
Y5647D01*
X-2956D01*
X-2923Y5613D01*
X-2956Y5913D02*
X-2923Y5847D01*
X-2856Y5780D01*
X-2789D01*
X-2756Y5813D01*
Y5880D01*
X-2789Y5913D01*
X-2823D01*
X-2856Y5880D01*
Y5780D01*
X984Y6401D02*
Y6201D01*
X1118D01*
X1284D02*
Y6401D01*
X1184Y6301D01*
X1317D01*
X3054Y4626D02*
X3021D01*
X2954Y4559D01*
X3021Y4493D01*
X3054D01*
X2954Y4559D02*
X2854D01*
Y4426D02*
Y4359D01*
Y4393D01*
X3054D01*
X3021Y4426D01*
X956Y4531D02*
Y4364D01*
X989Y4331D01*
X1056D01*
X1089Y4364D01*
Y4531D01*
X1256Y4331D02*
Y4531D01*
X1156Y4431D01*
X1289D01*
X-2165Y10236D02*
Y10436D01*
X-2065D01*
X-2032Y10403D01*
Y10336D01*
X-2065Y10303D01*
X-2165D01*
X-1965Y10236D02*
X-1899D01*
X-1932D01*
Y10436D01*
X-1965Y10403D01*
X15Y8704D02*
X-118D01*
Y8604D01*
X-51D01*
X-118D01*
Y8504D01*
X82D02*
X148D01*
X115D01*
Y8704D01*
X82Y8671D01*
X3021Y5477D02*
X3054Y5510D01*
Y5577D01*
X3021Y5610D01*
X2888D01*
X2854Y5577D01*
Y5510D01*
X2888Y5477D01*
X2854Y5277D02*
Y5410D01*
X2988Y5277D01*
X3021D01*
X3054Y5310D01*
Y5377D01*
X3021Y5410D01*
X3054Y5210D02*
Y5077D01*
X3021D01*
X2888Y5210D01*
X2854D01*
X3021Y3508D02*
X3054Y3542D01*
Y3608D01*
X3021Y3642D01*
X2888D01*
X2854Y3608D01*
Y3542D01*
X2888Y3508D01*
X2854Y3309D02*
Y3442D01*
X2988Y3309D01*
X3021D01*
X3054Y3342D01*
Y3408D01*
X3021Y3442D01*
X3054Y3109D02*
X3021Y3175D01*
X2954Y3242D01*
X2888D01*
X2854Y3209D01*
Y3142D01*
X2888Y3109D01*
X2921D01*
X2954Y3142D01*
Y3242D01*
X-2942Y4484D02*
X-2976Y4450D01*
Y4384D01*
X-2942Y4350D01*
X-2809D01*
X-2776Y4384D01*
Y4450D01*
X-2809Y4484D01*
X-2776Y4684D02*
Y4550D01*
X-2909Y4684D01*
X-2942D01*
X-2976Y4650D01*
Y4584D01*
X-2942Y4550D01*
X-2776Y4884D02*
Y4750D01*
X-2909Y4884D01*
X-2942D01*
X-2976Y4850D01*
Y4784D01*
X-2942Y4750D01*
X-1348Y3381D02*
X-1381Y3348D01*
Y3281D01*
X-1348Y3248D01*
X-1214D01*
X-1181Y3281D01*
Y3348D01*
X-1214Y3381D01*
X-1181Y3448D02*
Y3515D01*
Y3481D01*
X-1381D01*
X-1348Y3448D01*
Y3615D02*
X-1381Y3648D01*
Y3715D01*
X-1348Y3748D01*
X-1314D01*
X-1281Y3715D01*
X-1248Y3748D01*
X-1214D01*
X-1181Y3715D01*
Y3648D01*
X-1214Y3615D01*
X-1248D01*
X-1281Y3648D01*
X-1314Y3615D01*
X-1348D01*
X-1281Y3648D02*
Y3715D01*
X-1643Y3381D02*
X-1676Y3348D01*
Y3281D01*
X-1643Y3248D01*
X-1510D01*
X-1476Y3281D01*
Y3348D01*
X-1510Y3381D01*
X-1476Y3448D02*
Y3515D01*
Y3481D01*
X-1676D01*
X-1643Y3448D01*
X-1676Y3615D02*
Y3748D01*
X-1643D01*
X-1510Y3615D01*
X-1476D01*
X2299Y6367D02*
X2265Y6401D01*
X2199D01*
X2165Y6367D01*
Y6234D01*
X2199Y6201D01*
X2265D01*
X2299Y6234D01*
X2365Y6201D02*
X2432D01*
X2399D01*
Y6401D01*
X2365Y6367D01*
X2665Y6401D02*
X2532D01*
Y6301D01*
X2599Y6334D01*
X2632D01*
X2665Y6301D01*
Y6234D01*
X2632Y6201D01*
X2565D01*
X2532Y6234D01*
X1610Y6367D02*
X1576Y6401D01*
X1510D01*
X1476Y6367D01*
Y6234D01*
X1510Y6201D01*
X1576D01*
X1610Y6234D01*
X1676Y6201D02*
X1743D01*
X1710D01*
Y6401D01*
X1676Y6367D01*
X1943Y6201D02*
Y6401D01*
X1843Y6301D01*
X1976D01*
X-1737Y8139D02*
X-1770Y8172D01*
X-1837D01*
X-1870Y8139D01*
Y8006D01*
X-1837Y7972D01*
X-1770D01*
X-1737Y8006D01*
X-1670Y7972D02*
X-1603D01*
X-1637D01*
Y8172D01*
X-1670Y8139D01*
X-1504D02*
X-1470Y8172D01*
X-1404D01*
X-1370Y8139D01*
Y8106D01*
X-1404Y8072D01*
X-1437D01*
X-1404D01*
X-1370Y8039D01*
Y8006D01*
X-1404Y7972D01*
X-1470D01*
X-1504Y8006D01*
X-2426Y8139D02*
X-2459Y8172D01*
X-2526D01*
X-2559Y8139D01*
Y8006D01*
X-2526Y7972D01*
X-2459D01*
X-2426Y8006D01*
X-2359Y7972D02*
X-2292D01*
X-2326D01*
Y8172D01*
X-2359Y8139D01*
X-2059Y7972D02*
X-2193D01*
X-2059Y8106D01*
Y8139D01*
X-2093Y8172D01*
X-2159D01*
X-2193Y8139D01*
X-949D02*
X-983Y8172D01*
X-1049D01*
X-1083Y8139D01*
Y8006D01*
X-1049Y7972D01*
X-983D01*
X-949Y8006D01*
X-883Y7972D02*
X-816D01*
X-849D01*
Y8172D01*
X-883Y8139D01*
X-1772Y3248D02*
X-1972D01*
Y3348D01*
X-1938Y3381D01*
X-1872D01*
X-1838Y3348D01*
Y3248D01*
Y3315D02*
X-1772Y3381D01*
X-1938Y3448D02*
X-1972Y3481D01*
Y3548D01*
X-1938Y3581D01*
X-1905D01*
X-1872Y3548D01*
Y3515D01*
Y3548D01*
X-1838Y3581D01*
X-1805D01*
X-1772Y3548D01*
Y3481D01*
X-1805Y3448D01*
X-3937Y8189D02*
Y8389D01*
X-3837D01*
X-3804Y8356D01*
Y8289D01*
X-3837Y8256D01*
X-3937D01*
X-3737Y8222D02*
X-3704Y8189D01*
X-3637D01*
X-3604Y8222D01*
Y8356D01*
X-3637Y8389D01*
X-3704D01*
X-3737Y8356D01*
Y8322D01*
X-3704Y8289D01*
X-3604D01*
X5217Y8268D02*
Y8468D01*
X5317D01*
X5350Y8434D01*
Y8368D01*
X5317Y8334D01*
X5217D01*
X5416Y8268D02*
X5483D01*
X5450D01*
Y8468D01*
X5416Y8434D01*
X5583D02*
X5616Y8468D01*
X5683D01*
X5716Y8434D01*
Y8301D01*
X5683Y8268D01*
X5616D01*
X5583Y8301D01*
Y8434D01*
X-3543Y4921D02*
X-3343D01*
Y4821D01*
X-3377Y4788D01*
X-3443D01*
X-3477Y4821D01*
Y4921D01*
Y4855D02*
X-3543Y4788D01*
X-3343Y4588D02*
X-3377Y4655D01*
X-3443Y4721D01*
X-3510D01*
X-3543Y4688D01*
Y4621D01*
X-3510Y4588D01*
X-3477D01*
X-3443Y4621D01*
Y4721D01*
X-3445Y4232D02*
X-3245D01*
Y4132D01*
X-3278Y4099D01*
X-3345D01*
X-3378Y4132D01*
Y4232D01*
Y4166D02*
X-3445Y4099D01*
X-3245Y4032D02*
Y3899D01*
X-3278D01*
X-3412Y4032D01*
X-3445D01*
X3445Y3839D02*
X3245D01*
Y3939D01*
X3278Y3972D01*
X3345D01*
X3378Y3939D01*
Y3839D01*
Y3905D02*
X3445Y3972D01*
X3278Y4039D02*
X3245Y4072D01*
Y4138D01*
X3278Y4172D01*
X3312D01*
X3345Y4138D01*
X3378Y4172D01*
X3412D01*
X3445Y4138D01*
Y4072D01*
X3412Y4039D01*
X3378D01*
X3345Y4072D01*
X3312Y4039D01*
X3278D01*
X3345Y4072D02*
Y4138D01*
X3445Y4528D02*
X3245D01*
Y4628D01*
X3278Y4661D01*
X3345D01*
X3378Y4628D01*
Y4528D01*
Y4594D02*
X3445Y4661D01*
X3412Y4727D02*
X3445Y4761D01*
Y4827D01*
X3412Y4861D01*
X3278D01*
X3245Y4827D01*
Y4761D01*
X3278Y4727D01*
X3312D01*
X3345Y4761D01*
Y4861D01*
D47*
X-6270Y-3415D02*
G03*
X-6270Y-3415I-49J0D01*
G01*
X-3917Y-2776D02*
G03*
X-3917Y-2776I-49J0D01*
G01*
X-620Y4331D02*
G03*
X-620Y4331I-49J0D01*
G01*
X-2156Y1752D02*
G03*
X-2156Y1752I-49J0D01*
G01*
D48*
X-1122Y1240D02*
G03*
X-1122Y1240I-118J0D01*
G01*
D49*
X-629Y-3858D02*
G03*
X-629Y-3858I-80J0D01*
G01*
D50*
X3854Y2539D02*
X5854D01*
X3854Y-461D02*
X5854D01*
X3854D02*
Y2539D01*
X5854Y-461D02*
Y2539D01*
Y623D02*
Y2539D01*
X3520Y8110D02*
X5520D01*
X3520Y5110D02*
X5520D01*
X3520D02*
Y8110D01*
X5520Y5110D02*
Y8110D01*
Y6194D02*
Y8110D01*
X-6201Y-2992D02*
Y-2677D01*
X-5886D01*
X-5020Y-2992D02*
Y-2677D01*
X-5335D02*
X-5020D01*
X-4705Y-2657D02*
X-4390D01*
X-4705D02*
Y-2343D01*
Y-1476D02*
X-4390D01*
X-4705Y-1791D02*
Y-1476D01*
X-4035Y-3602D02*
Y-3091D01*
X-4173Y-5110D02*
X-1173D01*
X-4173Y-6110D02*
Y-5110D01*
Y-6110D02*
X-1173D01*
Y-5110D01*
X-827Y6024D02*
Y6240D01*
X-610D01*
X827Y6024D02*
Y6240D01*
X610D02*
X827D01*
Y4587D02*
Y4803D01*
X610Y4587D02*
X827D01*
X-827D02*
Y4803D01*
Y4587D02*
X-610D01*
X-4035Y-1142D02*
Y-630D01*
X-1634Y-1634D02*
X1634D01*
X-1634Y1634D02*
X1634D01*
Y-1634D02*
Y1634D01*
X-1634Y-1634D02*
Y1634D01*
X6260Y-4094D02*
Y-1386D01*
X5051D02*
X6260D01*
X5051Y-4094D02*
Y-1386D01*
Y-4094D02*
X6260D01*
X-5520Y5079D02*
X-3520D01*
X-5520Y8079D02*
X-3520D01*
Y5079D02*
Y8079D01*
X-5520Y5079D02*
Y8079D01*
Y5079D02*
Y6995D01*
X6106Y-4370D02*
Y-4239D01*
Y-4304D01*
X5712D01*
X5778Y-4370D01*
M02*
