M48
;Layer_Color=9474304
;FILE_FORMAT=2:4
INCH,LZ
;TYPE=PLATED
T1F00S00C0.0140
T2F00S00C0.0160
T3F00S00C0.0173
T4F00S00C0.0236
T5F00S00C0.0354
T6F00S00C0.0394
T7F00S00C0.0591
T8F00S00C0.0630
;TYPE=NON_PLATED
T9F00S00C0.1320
%
T01
X-000236Y-00315
T02
X-002953Y-003937
X-001969
Y-004429
X-001181Y-00374
X-000661Y-003842
X-000394Y-003543
X000144Y-003578
X001181Y-004154
X002331Y-005149
X001969Y-005807
X003445
X004921Y-004429
Y-002953
X003248Y-002894
X002067Y-002854
X-00187Y-002461
X-002559
X-001083Y-005512
X-000591Y-005807
X-004331Y-005906
X-003937Y-003937
X-003642Y-003346
X-006102Y-004331
X-006004Y-000512
X-004921Y0
X-004429Y-000886
X-004528Y-001673
X-004823Y001969
X-005286Y002657
X-006142Y002657
X-006102Y003937
Y005906
X-004528Y006102
X-00374Y004724
X-00374Y004035
X-003937Y008858
X-004921
X-005906
X-006102Y007874
X-003937Y009843
Y010827
X-002953
Y009843
X-001969
Y010827
Y008858
X-002953
X-002618Y007874
X-001929
X-00124
X-000689Y008169
X-000886Y006594
X-001909Y006201
X-001575Y005217
X-001575Y003937
X-002165
Y002461
X-002815
X-003346Y000295
X-00128Y000492
X-001181Y001083
X-000681Y001547
X-000098Y000886
X000424Y001301
X000843Y001404
X000934Y000939
X000591Y000492
X0Y0
Y-000787
X001142Y-000945
X000886Y-001378
X00187Y-001969
X001378Y0
X003248Y000492
X00374
X003602Y001083
X00374Y002067
X00315Y002461
X002264
X001772Y002953
X001378Y004035
X002953Y003937
Y004921
Y005709
X002461Y007382
Y008071
X00187
X001476
X001083
X001969Y008858
X002953
X003937
Y009843
Y010827
X002953
Y009843
X001969
Y010827
X004921Y008858
X005906
Y007874
Y005906
Y005217
Y003248
X004921
X003937
X006102Y001969
Y000984
Y0
X004921Y-000787
X004429Y-001673
X-001378Y-001378
Y-000394
X-000689Y004134
X-000236Y005177
X000236
X000244Y00565
X-000236
X000335Y003248
X-002992Y007382
T03
X-005807Y001161
Y001673
Y002185
X-005413Y001929
Y001417
T04
X005406Y-00374
Y-00324
Y-00274
Y-00224
X005906
Y-00274
Y-00324
Y-00374
Y-00174
X005406
T05
X-002673Y-00561
X-001673
X-003673
X-00402Y005579
Y006579
Y007579
X-00502
Y006579
Y005579
X00402Y00561
X00502
Y00661
X00402
Y00761
X00502
X005354Y002039
Y001039
Y000039
X004354
Y001039
Y002039
T06
X-00572Y000266
Y003081
T07
X0Y009941
T08
X-001Y008941
X001
Y010941
X-001
T09
X005512Y-005315
X-005512
Y01063
X005512
M30
