G04 Layer_Physical_Order=2*
G04 Layer_Color=16711680*
%FSLAX24Y24*%
%MOIN*%
G70*
G01*
G75*
%ADD26C,0.0060*%
%ADD28C,0.0200*%
%ADD35R,0.0591X0.0591*%
%ADD36C,0.0591*%
%ADD37R,0.0591X0.0591*%
%ADD39C,0.0787*%
%ADD40C,0.0370*%
%ADD41C,0.0394*%
%ADD42R,0.0394X0.0394*%
%ADD43C,0.0340*%
%ADD44C,0.0320*%
%ADD45O,0.1102X0.0866*%
G36*
X-6029Y-344D02*
X-6172Y-487D01*
X-6173Y-486D01*
X-6175Y-484D01*
X-6198Y-460D01*
X-6244Y-413D01*
X-6103Y-272D01*
X-6029Y-344D01*
D02*
G37*
G36*
X-5809Y976D02*
X-5818Y976D01*
X-5827Y974D01*
X-5837Y970D01*
X-5847Y965D01*
X-5859Y958D01*
X-5871Y950D01*
X-5883Y940D01*
X-5910Y916D01*
X-5925Y902D01*
X-6066Y1044D01*
X-6052Y1058D01*
X-6019Y1098D01*
X-6010Y1110D01*
X-6004Y1121D01*
X-5999Y1132D01*
X-5995Y1142D01*
X-5993Y1151D01*
X-5992Y1160D01*
X-5809Y976D01*
D02*
G37*
G36*
X5840Y11489D02*
X5967Y11451D01*
X6084Y11389D01*
X6186Y11305D01*
X6270Y11202D01*
X6333Y11085D01*
X6371Y10959D01*
X6384Y10828D01*
X6384Y10827D01*
Y-5512D01*
X6384Y-5513D01*
X6371Y-5644D01*
X6333Y-5770D01*
X6270Y-5887D01*
X6186Y-5990D01*
X6084Y-6074D01*
X5967Y-6136D01*
X5840Y-6174D01*
X5710Y-6187D01*
X5709Y-6187D01*
X-5709D01*
X-5710Y-6187D01*
X-5840Y-6174D01*
X-5967Y-6136D01*
X-6084Y-6074D01*
X-6186Y-5990D01*
X-6270Y-5887D01*
X-6333Y-5770D01*
X-6371Y-5644D01*
X-6384Y-5513D01*
X-6384Y-5512D01*
Y-427D01*
X-6338Y-396D01*
X-6334Y-396D01*
X-6301Y-445D01*
X-6292Y-455D01*
X-6290Y-459D01*
X-6244Y-505D01*
X-6238Y-511D01*
X-6239Y-512D01*
X-6221Y-601D01*
X-6170Y-678D01*
X-6094Y-728D01*
X-6004Y-746D01*
X-5914Y-728D01*
X-5838Y-678D01*
X-5787Y-601D01*
X-5770Y-512D01*
X-5787Y-422D01*
X-5838Y-346D01*
X-5914Y-295D01*
X-6004Y-277D01*
X-6023Y-259D01*
Y715D01*
X-5884Y854D01*
X-5880Y856D01*
X-5866Y869D01*
X-5842Y890D01*
X-5832Y897D01*
X-5824Y903D01*
X-5817Y907D01*
X-5811Y910D01*
X-5808Y911D01*
X-5808Y911D01*
X-5804Y912D01*
X-5802Y913D01*
X-5711Y931D01*
X-5630Y985D01*
X-5576Y1066D01*
X-5557Y1161D01*
X-5558Y1163D01*
X-5516Y1191D01*
X-5509Y1186D01*
X-5413Y1167D01*
X-5318Y1186D01*
X-5237Y1241D01*
X-5183Y1322D01*
X-5164Y1417D01*
X-5183Y1513D01*
X-5237Y1594D01*
X-5317Y1648D01*
X-5318Y1653D01*
Y1694D01*
X-5317Y1699D01*
X-5237Y1752D01*
X-5183Y1834D01*
X-5164Y1929D01*
X-5183Y2025D01*
X-5237Y2106D01*
X-5318Y2160D01*
X-5413Y2179D01*
X-5509Y2160D01*
X-5590Y2106D01*
X-5644Y2025D01*
X-5663Y1929D01*
X-5663Y1927D01*
X-5704Y1899D01*
X-5711Y1904D01*
X-5807Y1923D01*
X-5903Y1904D01*
X-5984Y1850D01*
X-6038Y1769D01*
X-6057Y1673D01*
X-6038Y1578D01*
X-5984Y1497D01*
X-5904Y1443D01*
X-5903Y1438D01*
Y1397D01*
X-5904Y1392D01*
X-5984Y1338D01*
X-6038Y1257D01*
X-6056Y1166D01*
X-6057Y1165D01*
X-6057Y1161D01*
X-6057Y1160D01*
X-6058Y1157D01*
X-6061Y1152D01*
X-6065Y1145D01*
X-6070Y1137D01*
X-6100Y1102D01*
X-6113Y1089D01*
X-6115Y1085D01*
X-6301Y898D01*
X-6334Y849D01*
X-6338Y849D01*
X-6384Y880D01*
Y10827D01*
X-6384Y10828D01*
X-6371Y10959D01*
X-6333Y11085D01*
X-6270Y11202D01*
X-6186Y11305D01*
X-6084Y11389D01*
X-5967Y11451D01*
X-5840Y11489D01*
X-5710Y11502D01*
X-5709Y11502D01*
X5709D01*
X5710Y11502D01*
X5840Y11489D01*
D02*
G37*
%LPC*%
G36*
X-2673Y-5252D02*
X-2766Y-5264D01*
X-2852Y-5300D01*
X-2927Y-5357D01*
X-2984Y-5431D01*
X-3019Y-5517D01*
X-3032Y-5610D01*
X-3019Y-5703D01*
X-2984Y-5789D01*
X-2927Y-5864D01*
X-2852Y-5921D01*
X-2766Y-5956D01*
X-2673Y-5969D01*
X-2580Y-5956D01*
X-2494Y-5921D01*
X-2420Y-5864D01*
X-2363Y-5789D01*
X-2327Y-5703D01*
X-2315Y-5610D01*
X-2327Y-5517D01*
X-2363Y-5431D01*
X-2420Y-5357D01*
X-2494Y-5300D01*
X-2580Y-5264D01*
X-2673Y-5252D01*
D02*
G37*
G36*
X-1575Y5451D02*
X-1665Y5433D01*
X-1741Y5382D01*
X-1791Y5306D01*
X-1809Y5217D01*
X-1791Y5127D01*
X-1748Y5061D01*
X-1748Y5060D01*
X-1746Y5058D01*
X-1746Y5057D01*
X-1745Y5053D01*
X-1744Y5048D01*
X-1740Y4993D01*
X-1740Y4976D01*
X-1738Y4972D01*
Y4675D01*
X-1726Y4613D01*
X-1690Y4560D01*
X-1395Y4265D01*
X-1342Y4229D01*
X-1280Y4217D01*
X-1003D01*
X-978Y4192D01*
X-976Y4188D01*
X-952Y4162D01*
X-935Y4142D01*
X-929Y4135D01*
X-925Y4129D01*
X-923Y4125D01*
X-922Y4125D01*
X-922Y4122D01*
X-921Y4121D01*
X-906Y4044D01*
X-855Y3968D01*
X-779Y3917D01*
X-689Y3899D01*
X-599Y3917D01*
X-523Y3968D01*
X-472Y4044D01*
X-454Y4134D01*
X-472Y4224D01*
X-523Y4300D01*
X-599Y4351D01*
X-676Y4366D01*
X-677Y4367D01*
X-680Y4367D01*
X-680Y4368D01*
X-684Y4370D01*
X-689Y4373D01*
X-730Y4408D01*
X-742Y4420D01*
X-746Y4422D01*
X-820Y4495D01*
X-873Y4531D01*
X-935Y4543D01*
X-1212D01*
X-1412Y4743D01*
Y4972D01*
X-1410Y4976D01*
X-1409Y5010D01*
X-1407Y5037D01*
X-1406Y5046D01*
X-1405Y5053D01*
X-1403Y5057D01*
X-1403Y5058D01*
X-1402Y5060D01*
X-1402Y5061D01*
X-1358Y5127D01*
X-1340Y5217D01*
X-1358Y5306D01*
X-1409Y5382D01*
X-1485Y5433D01*
X-1575Y5451D01*
D02*
G37*
G36*
X-3673Y-5252D02*
X-3766Y-5264D01*
X-3852Y-5300D01*
X-3927Y-5357D01*
X-3984Y-5431D01*
X-4019Y-5517D01*
X-4032Y-5610D01*
X-4019Y-5703D01*
X-3984Y-5789D01*
X-3927Y-5864D01*
X-3852Y-5921D01*
X-3766Y-5956D01*
X-3673Y-5969D01*
X-3580Y-5956D01*
X-3494Y-5921D01*
X-3420Y-5864D01*
X-3363Y-5789D01*
X-3327Y-5703D01*
X-3315Y-5610D01*
X-3327Y-5517D01*
X-3363Y-5431D01*
X-3420Y-5357D01*
X-3494Y-5300D01*
X-3580Y-5264D01*
X-3673Y-5252D01*
D02*
G37*
G36*
X5512Y-4501D02*
X5353Y-4517D01*
X5200Y-4563D01*
X5060Y-4638D01*
X4936Y-4739D01*
X4835Y-4863D01*
X4760Y-5003D01*
X4714Y-5156D01*
X4698Y-5315D01*
X4714Y-5474D01*
X4760Y-5626D01*
X4835Y-5767D01*
X4936Y-5890D01*
X5060Y-5992D01*
X5200Y-6067D01*
X5353Y-6113D01*
X5512Y-6129D01*
X5671Y-6113D01*
X5823Y-6067D01*
X5964Y-5992D01*
X6087Y-5890D01*
X6189Y-5767D01*
X6264Y-5626D01*
X6310Y-5474D01*
X6326Y-5315D01*
X6310Y-5156D01*
X6264Y-5003D01*
X6189Y-4863D01*
X6087Y-4739D01*
X5964Y-4638D01*
X5823Y-4563D01*
X5671Y-4517D01*
X5512Y-4501D01*
D02*
G37*
G36*
X-3740Y4959D02*
X-3830Y4941D01*
X-3906Y4890D01*
X-3957Y4814D01*
X-3975Y4724D01*
X-3957Y4635D01*
X-3906Y4559D01*
X-3830Y4508D01*
X-3789Y4500D01*
X-3778Y4493D01*
X-3730Y4484D01*
X-3711Y4480D01*
X-3678Y4470D01*
X-3666Y4465D01*
X-3656Y4461D01*
X-3648Y4457D01*
X-3644Y4454D01*
X-3638Y4449D01*
X-3632Y4447D01*
X-3361Y4176D01*
X-3366Y4152D01*
X-3383Y4127D01*
X-3460D01*
X-3466Y4130D01*
X-3474Y4131D01*
X-3479Y4132D01*
X-3486Y4134D01*
X-3495Y4138D01*
X-3505Y4143D01*
X-3516Y4151D01*
X-3528Y4160D01*
X-3557Y4185D01*
X-3573Y4201D01*
X-3574Y4201D01*
X-3574Y4201D01*
X-3650Y4252D01*
X-3740Y4270D01*
X-3830Y4252D01*
X-3906Y4201D01*
X-3957Y4125D01*
X-3975Y4035D01*
X-3957Y3946D01*
X-3906Y3870D01*
X-3830Y3819D01*
X-3740Y3801D01*
X-3650Y3819D01*
X-3576Y3869D01*
X-3574Y3869D01*
X-3542Y3900D01*
X-3529Y3911D01*
X-3516Y3920D01*
X-3505Y3927D01*
X-3495Y3933D01*
X-3486Y3937D01*
X-3479Y3939D01*
X-3474Y3940D01*
X-3466Y3941D01*
X-3460Y3944D01*
X-3410D01*
X-1338Y1871D01*
Y1575D01*
X-1331Y1540D01*
X-1311Y1510D01*
X-1161Y1360D01*
X-1188Y1316D01*
X-1271Y1299D01*
X-1347Y1248D01*
X-1398Y1172D01*
X-1416Y1083D01*
X-1413Y1072D01*
X-1430Y1047D01*
X-1443Y984D01*
Y858D01*
X-1444Y853D01*
X-1443Y853D01*
X-1444Y852D01*
X-1443Y848D01*
Y737D01*
X-1444Y733D01*
X-1445Y698D01*
X-1447Y672D01*
X-1448Y663D01*
X-1450Y656D01*
X-1451Y651D01*
X-1451Y651D01*
X-1452Y648D01*
X-1452Y647D01*
X-1496Y582D01*
X-1514Y492D01*
X-1496Y402D01*
X-1445Y326D01*
X-1369Y275D01*
X-1280Y258D01*
X-1190Y275D01*
X-1114Y326D01*
X-1063Y402D01*
X-1063Y402D01*
X-1013Y397D01*
Y-3810D01*
X-1148Y-3945D01*
X-1167Y-3974D01*
X-1174Y-4009D01*
Y-5232D01*
X-1177Y-5238D01*
X-1178Y-5246D01*
X-1179Y-5251D01*
X-1181Y-5258D01*
X-1185Y-5266D01*
X-1191Y-5276D01*
X-1198Y-5288D01*
X-1207Y-5300D01*
X-1232Y-5329D01*
X-1248Y-5345D01*
X-1248Y-5346D01*
X-1248Y-5346D01*
X-1299Y-5422D01*
X-1317Y-5512D01*
X-1299Y-5602D01*
X-1248Y-5678D01*
X-1172Y-5728D01*
X-1083Y-5746D01*
X-993Y-5728D01*
X-917Y-5678D01*
X-866Y-5602D01*
X-848Y-5512D01*
X-866Y-5422D01*
X-916Y-5347D01*
X-917Y-5346D01*
X-947Y-5313D01*
X-958Y-5300D01*
X-967Y-5288D01*
X-975Y-5276D01*
X-980Y-5266D01*
X-984Y-5258D01*
X-986Y-5251D01*
X-987Y-5246D01*
X-988Y-5238D01*
X-991Y-5232D01*
Y-4047D01*
X-904Y-3961D01*
X-855Y-3966D01*
X-827Y-4007D01*
X-751Y-4058D01*
X-661Y-4076D01*
X-571Y-4058D01*
X-497Y-4008D01*
X-495Y-4008D01*
X-463Y-3977D01*
X-450Y-3966D01*
X-437Y-3957D01*
X-426Y-3950D01*
X-416Y-3944D01*
X-407Y-3940D01*
X-400Y-3938D01*
X-395Y-3937D01*
X-387Y-3936D01*
X-381Y-3933D01*
X247D01*
X283Y-3926D01*
X312Y-3906D01*
X469Y-3750D01*
X489Y-3720D01*
X496Y-3685D01*
Y-2126D01*
X519Y-2119D01*
X546Y-2118D01*
X561Y-2141D01*
X1704Y-3284D01*
Y-4613D01*
X1711Y-4648D01*
X1731Y-4678D01*
X2068Y-5016D01*
X2071Y-5022D01*
X2076Y-5028D01*
X2079Y-5033D01*
X2082Y-5039D01*
X2085Y-5048D01*
X2088Y-5059D01*
X2091Y-5072D01*
X2093Y-5087D01*
X2096Y-5126D01*
X2096Y-5148D01*
X2097Y-5149D01*
X2097Y-5149D01*
X2115Y-5239D01*
X2165Y-5315D01*
X2242Y-5366D01*
X2331Y-5384D01*
X2421Y-5366D01*
X2497Y-5315D01*
X2548Y-5239D01*
X2566Y-5149D01*
X2548Y-5059D01*
X2497Y-4983D01*
X2421Y-4932D01*
X2333Y-4915D01*
X2331Y-4914D01*
X2287Y-4913D01*
X2270Y-4911D01*
X2254Y-4909D01*
X2241Y-4906D01*
X2230Y-4903D01*
X2221Y-4900D01*
X2215Y-4896D01*
X2211Y-4894D01*
X2205Y-4888D01*
X2198Y-4886D01*
X1887Y-4575D01*
Y-3246D01*
X1880Y-3211D01*
X1860Y-3181D01*
X718Y-2038D01*
Y-1628D01*
X720Y-1625D01*
X766Y-1599D01*
X796Y-1614D01*
X797Y-1617D01*
X801Y-1636D01*
X821Y-1666D01*
X1608Y-2453D01*
X1638Y-2473D01*
X1673Y-2480D01*
X2127D01*
X2396Y-2748D01*
X2426Y-2768D01*
X2446Y-2772D01*
X3478Y-3805D01*
X3508Y-3825D01*
X3543Y-3832D01*
X5082D01*
X5088Y-3835D01*
X5097Y-3836D01*
X5103Y-3837D01*
X5112Y-3840D01*
X5122Y-3845D01*
X5135Y-3852D01*
X5149Y-3862D01*
X5164Y-3873D01*
X5200Y-3905D01*
X5219Y-3924D01*
X5228Y-3928D01*
X5276Y-3965D01*
X5338Y-3990D01*
X5406Y-3999D01*
X5473Y-3990D01*
X5535Y-3965D01*
X5589Y-3923D01*
X5599Y-3910D01*
X5649Y-3927D01*
Y-3997D01*
X6162D01*
Y-3483D01*
X5649D01*
Y-3553D01*
X5599Y-3570D01*
X5589Y-3557D01*
X5537Y-3518D01*
X5533Y-3491D01*
Y-3490D01*
X5537Y-3463D01*
X5589Y-3423D01*
X5630Y-3370D01*
X5656Y-3307D01*
X5665Y-3240D01*
X5656Y-3173D01*
X5630Y-3111D01*
X5589Y-3057D01*
X5537Y-3018D01*
X5533Y-2991D01*
Y-2990D01*
X5537Y-2963D01*
X5589Y-2923D01*
X5630Y-2870D01*
X5656Y-2807D01*
X5665Y-2740D01*
X5656Y-2673D01*
X5630Y-2611D01*
X5589Y-2557D01*
X5537Y-2518D01*
X5533Y-2491D01*
Y-2490D01*
X5537Y-2463D01*
X5589Y-2423D01*
X5628Y-2372D01*
X5655Y-2368D01*
X5656D01*
X5683Y-2372D01*
X5722Y-2423D01*
X5776Y-2465D01*
X5838Y-2490D01*
X5906Y-2499D01*
X5973Y-2490D01*
X6035Y-2465D01*
X6089Y-2423D01*
X6130Y-2370D01*
X6156Y-2307D01*
X6165Y-2240D01*
X6156Y-2173D01*
X6130Y-2111D01*
X6089Y-2057D01*
X6037Y-2018D01*
X6033Y-1991D01*
Y-1990D01*
X6037Y-1963D01*
X6089Y-1923D01*
X6130Y-1870D01*
X6156Y-1807D01*
X6165Y-1740D01*
X6156Y-1673D01*
X6130Y-1611D01*
X6089Y-1557D01*
X6035Y-1516D01*
X5973Y-1490D01*
X5906Y-1481D01*
X5838Y-1490D01*
X5776Y-1516D01*
X5722Y-1557D01*
X5683Y-1608D01*
X5656Y-1612D01*
X5655D01*
X5628Y-1608D01*
X5589Y-1557D01*
X5535Y-1516D01*
X5473Y-1490D01*
X5406Y-1481D01*
X5338Y-1490D01*
X5276Y-1516D01*
X5222Y-1557D01*
X5181Y-1611D01*
X5155Y-1673D01*
X5146Y-1740D01*
X5155Y-1807D01*
X5181Y-1870D01*
X5222Y-1923D01*
X5274Y-1963D01*
X5278Y-1990D01*
Y-1991D01*
X5274Y-2018D01*
X5222Y-2057D01*
X5181Y-2111D01*
X5155Y-2173D01*
X5146Y-2240D01*
X5155Y-2307D01*
X5181Y-2370D01*
X5222Y-2423D01*
X5274Y-2463D01*
X5278Y-2490D01*
Y-2491D01*
X5274Y-2518D01*
X5222Y-2557D01*
X5181Y-2611D01*
X5155Y-2673D01*
X5146Y-2740D01*
X5155Y-2807D01*
X5181Y-2870D01*
X5222Y-2923D01*
X5274Y-2963D01*
X5278Y-2990D01*
Y-2991D01*
X5274Y-3018D01*
X5222Y-3057D01*
X5181Y-3111D01*
X5155Y-3173D01*
X5146Y-3240D01*
X5151Y-3273D01*
X5148Y-3280D01*
X5150Y-3285D01*
X5149Y-3291D01*
X5151Y-3304D01*
X5151Y-3307D01*
X5128Y-3340D01*
X5113Y-3353D01*
X3469D01*
X2315Y-2199D01*
X2286Y-2179D01*
X2250Y-2172D01*
X1757D01*
X1234Y-1649D01*
Y-1506D01*
X1238Y-1486D01*
Y-1172D01*
X1237Y-1167D01*
X1237Y-1162D01*
X1237Y-1158D01*
X1237Y-1158D01*
X1308Y-1111D01*
X1358Y-1035D01*
X1376Y-945D01*
X1358Y-855D01*
X1308Y-779D01*
X1231Y-728D01*
X1142Y-710D01*
X1052Y-728D01*
X976Y-779D01*
X925Y-855D01*
X907Y-945D01*
X925Y-1035D01*
X976Y-1110D01*
X975Y-1112D01*
X956Y-1157D01*
X886Y-1143D01*
X796Y-1161D01*
X768Y-1180D01*
X718Y-1154D01*
Y222D01*
X721Y229D01*
X721Y235D01*
X722Y241D01*
X724Y249D01*
X728Y259D01*
X733Y271D01*
X773Y342D01*
X787Y363D01*
X789Y375D01*
X807Y402D01*
X825Y492D01*
X816Y538D01*
X817Y544D01*
X857Y587D01*
X1042D01*
X1077Y594D01*
X1107Y614D01*
X1259Y766D01*
X1279Y796D01*
X1286Y831D01*
Y1046D01*
X1279Y1081D01*
X1259Y1111D01*
X1103Y1267D01*
X1101Y1274D01*
X1096Y1280D01*
X1093Y1284D01*
X1090Y1290D01*
X1087Y1299D01*
X1084Y1310D01*
X1081Y1322D01*
X1080Y1335D01*
X1083Y1338D01*
X1128Y1356D01*
X2318Y167D01*
X2347Y147D01*
X2383Y140D01*
X3356D01*
X3391Y147D01*
X3421Y167D01*
X3550Y297D01*
X3557Y299D01*
X3564Y305D01*
X3567Y307D01*
X3569Y308D01*
X3571Y309D01*
X3574Y309D01*
X3579Y308D01*
X3585Y307D01*
X3594Y304D01*
X3604Y299D01*
X3619Y291D01*
X3629Y290D01*
X3650Y275D01*
X3740Y258D01*
X3830Y275D01*
X3906Y326D01*
X3957Y402D01*
X3975Y492D01*
X3957Y582D01*
X3906Y658D01*
X3830Y709D01*
X3740Y727D01*
X3650Y709D01*
X3574Y658D01*
X3543Y610D01*
X3533Y603D01*
X3514Y591D01*
X3465Y582D01*
X3414Y658D01*
X3338Y709D01*
X3248Y727D01*
X3158Y709D01*
X3084Y659D01*
X3082Y658D01*
X3050Y628D01*
X3037Y617D01*
X3024Y608D01*
X3013Y600D01*
X3003Y595D01*
X2994Y591D01*
X2987Y589D01*
X2982Y587D01*
X2974Y587D01*
X2968Y584D01*
X2330D01*
X1065Y1849D01*
X1036Y1869D01*
X1000Y1876D01*
X-77D01*
X-112Y1869D01*
X-142Y1849D01*
X-366Y1625D01*
X-428Y1633D01*
X-436Y1647D01*
X-435Y1649D01*
X-432Y1657D01*
X-429Y1664D01*
X-426Y1668D01*
X-421Y1674D01*
X-418Y1681D01*
X270Y2369D01*
X1984D01*
X1990Y2366D01*
X1998Y2365D01*
X2003Y2364D01*
X2010Y2362D01*
X2018Y2358D01*
X2028Y2353D01*
X2040Y2345D01*
X2052Y2336D01*
X2081Y2311D01*
X2097Y2295D01*
X2098Y2295D01*
X2098Y2295D01*
X2174Y2244D01*
X2264Y2226D01*
X2354Y2244D01*
X2430Y2295D01*
X2480Y2371D01*
X2498Y2461D01*
X2480Y2550D01*
X2430Y2626D01*
X2354Y2677D01*
X2264Y2695D01*
X2174Y2677D01*
X2099Y2627D01*
X2098Y2627D01*
X2065Y2596D01*
X2052Y2585D01*
X2040Y2576D01*
X2028Y2569D01*
X2018Y2563D01*
X2010Y2559D01*
X2003Y2557D01*
X1998Y2556D01*
X1990Y2555D01*
X1984Y2552D01*
X232D01*
X197Y2545D01*
X167Y2526D01*
X-548Y1810D01*
X-555Y1808D01*
X-561Y1803D01*
X-565Y1800D01*
X-571Y1797D01*
X-580Y1793D01*
X-591Y1790D01*
X-604Y1787D01*
X-619Y1785D01*
X-658Y1783D01*
X-680Y1782D01*
X-681Y1782D01*
X-681Y1782D01*
X-771Y1764D01*
X-847Y1713D01*
X-898Y1637D01*
X-905Y1604D01*
X-954Y1589D01*
X-991Y1621D01*
Y2028D01*
X-998Y2063D01*
X-1018Y2093D01*
X-3492Y4567D01*
X-3493Y4571D01*
X-3496Y4573D01*
X-3497Y4576D01*
X-3503Y4583D01*
X-3505Y4587D01*
X-3508Y4592D01*
X-3510Y4599D01*
X-3512Y4608D01*
X-3513Y4619D01*
X-3514Y4632D01*
X-3513Y4647D01*
X-3512Y4665D01*
X-3509Y4685D01*
X-3511Y4696D01*
X-3506Y4724D01*
X-3523Y4814D01*
X-3574Y4890D01*
X-3650Y4941D01*
X-3740Y4959D01*
D02*
G37*
G36*
X4354Y398D02*
X4262Y386D01*
X4175Y350D01*
X4101Y293D01*
X4044Y219D01*
X4008Y132D01*
X3996Y39D01*
X4008Y-53D01*
X4044Y-140D01*
X4101Y-214D01*
X4175Y-271D01*
X4262Y-307D01*
X4354Y-319D01*
X4447Y-307D01*
X4534Y-271D01*
X4608Y-214D01*
X4665Y-140D01*
X4700Y-53D01*
X4713Y39D01*
X4700Y132D01*
X4665Y219D01*
X4608Y293D01*
X4534Y350D01*
X4447Y386D01*
X4354Y398D01*
D02*
G37*
G36*
X5710Y395D02*
X4999D01*
Y-316D01*
X5710D01*
Y395D01*
D02*
G37*
G36*
X5354Y1398D02*
X5262Y1385D01*
X5175Y1350D01*
X5101Y1293D01*
X5044Y1219D01*
X5008Y1132D01*
X4996Y1039D01*
X5008Y947D01*
X5044Y860D01*
X5101Y786D01*
X5175Y729D01*
X5262Y693D01*
X5354Y681D01*
X5447Y693D01*
X5533Y729D01*
X5608Y786D01*
X5665Y860D01*
X5700Y947D01*
X5713Y1039D01*
X5700Y1132D01*
X5665Y1219D01*
X5608Y1293D01*
X5533Y1350D01*
X5447Y1385D01*
X5354Y1398D01*
D02*
G37*
G36*
Y2398D02*
X5262Y2386D01*
X5175Y2350D01*
X5101Y2293D01*
X5044Y2219D01*
X5008Y2132D01*
X4996Y2039D01*
X5008Y1947D01*
X5044Y1860D01*
X5101Y1786D01*
X5175Y1729D01*
X5262Y1693D01*
X5354Y1681D01*
X5447Y1693D01*
X5533Y1729D01*
X5608Y1786D01*
X5665Y1860D01*
X5700Y1947D01*
X5713Y2039D01*
X5700Y2132D01*
X5665Y2219D01*
X5608Y2293D01*
X5533Y2350D01*
X5447Y2386D01*
X5354Y2398D01*
D02*
G37*
G36*
X4354D02*
X4262Y2386D01*
X4175Y2350D01*
X4101Y2293D01*
X4044Y2219D01*
X4008Y2132D01*
X3996Y2039D01*
X4008Y1947D01*
X4044Y1860D01*
X4101Y1786D01*
X4175Y1729D01*
X4262Y1693D01*
X4354Y1681D01*
X4447Y1693D01*
X4534Y1729D01*
X4608Y1786D01*
X4665Y1860D01*
X4700Y1947D01*
X4713Y2039D01*
X4700Y2132D01*
X4665Y2219D01*
X4608Y2293D01*
X4534Y2350D01*
X4447Y2386D01*
X4354Y2398D01*
D02*
G37*
G36*
X5020Y6969D02*
X4927Y6956D01*
X4841Y6921D01*
X4766Y6864D01*
X4709Y6789D01*
X4674Y6703D01*
X4661Y6610D01*
X4674Y6517D01*
X4709Y6431D01*
X4766Y6357D01*
X4841Y6300D01*
X4927Y6264D01*
X5020Y6252D01*
X5112Y6264D01*
X5199Y6300D01*
X5273Y6357D01*
X5330Y6431D01*
X5366Y6517D01*
X5378Y6610D01*
X5366Y6703D01*
X5330Y6789D01*
X5273Y6864D01*
X5199Y6921D01*
X5112Y6956D01*
X5020Y6969D01*
D02*
G37*
G36*
X4020D02*
X3927Y6956D01*
X3841Y6921D01*
X3766Y6864D01*
X3709Y6789D01*
X3674Y6703D01*
X3661Y6610D01*
X3674Y6517D01*
X3709Y6431D01*
X3766Y6357D01*
X3841Y6300D01*
X3927Y6264D01*
X4020Y6252D01*
X4112Y6264D01*
X4199Y6300D01*
X4273Y6357D01*
X4330Y6431D01*
X4366Y6517D01*
X4378Y6610D01*
X4366Y6703D01*
X4330Y6789D01*
X4273Y6864D01*
X4199Y6921D01*
X4112Y6956D01*
X4020Y6969D01*
D02*
G37*
G36*
X-4020Y6937D02*
X-4112Y6925D01*
X-4199Y6889D01*
X-4273Y6832D01*
X-4330Y6758D01*
X-4366Y6671D01*
X-4378Y6579D01*
X-4366Y6486D01*
X-4330Y6400D01*
X-4273Y6325D01*
X-4199Y6268D01*
X-4112Y6233D01*
X-4020Y6220D01*
X-3927Y6233D01*
X-3841Y6268D01*
X-3766Y6325D01*
X-3709Y6400D01*
X-3674Y6486D01*
X-3661Y6579D01*
X-3674Y6671D01*
X-3709Y6758D01*
X-3766Y6832D01*
X-3841Y6889D01*
X-3927Y6925D01*
X-4020Y6937D01*
D02*
G37*
G36*
X5512Y11444D02*
X5353Y11428D01*
X5200Y11382D01*
X5060Y11307D01*
X4936Y11205D01*
X4835Y11082D01*
X4760Y10941D01*
X4714Y10789D01*
X4698Y10630D01*
X4714Y10471D01*
X4760Y10318D01*
X4835Y10178D01*
X4936Y10054D01*
X5060Y9953D01*
X5200Y9878D01*
X5353Y9832D01*
X5512Y9816D01*
X5671Y9832D01*
X5823Y9878D01*
X5964Y9953D01*
X6087Y10054D01*
X6189Y10178D01*
X6264Y10318D01*
X6310Y10471D01*
X6326Y10630D01*
X6310Y10789D01*
X6264Y10941D01*
X6189Y11082D01*
X6087Y11205D01*
X5964Y11307D01*
X5823Y11382D01*
X5671Y11428D01*
X5512Y11444D01*
D02*
G37*
G36*
X-5512D02*
X-5671Y11428D01*
X-5823Y11382D01*
X-5964Y11307D01*
X-6087Y11205D01*
X-6189Y11082D01*
X-6264Y10941D01*
X-6310Y10789D01*
X-6326Y10630D01*
X-6310Y10471D01*
X-6264Y10318D01*
X-6189Y10178D01*
X-6087Y10054D01*
X-5964Y9953D01*
X-5823Y9878D01*
X-5671Y9832D01*
X-5512Y9816D01*
X-5353Y9832D01*
X-5200Y9878D01*
X-5060Y9953D01*
X-4936Y10054D01*
X-4835Y10178D01*
X-4760Y10318D01*
X-4714Y10471D01*
X-4698Y10630D01*
X-4714Y10789D01*
X-4760Y10941D01*
X-4835Y11082D01*
X-4936Y11205D01*
X-5060Y11307D01*
X-5200Y11382D01*
X-5353Y11428D01*
X-5512Y11444D01*
D02*
G37*
G36*
X0Y10399D02*
X-118Y10383D01*
X-229Y10337D01*
X-324Y10265D01*
X-396Y10170D01*
X-442Y10059D01*
X-458Y9941D01*
X-442Y9822D01*
X-396Y9712D01*
X-324Y9617D01*
X-229Y9545D01*
X-118Y9499D01*
X0Y9483D01*
X118Y9499D01*
X229Y9545D01*
X324Y9617D01*
X396Y9712D01*
X442Y9822D01*
X458Y9941D01*
X442Y10059D01*
X396Y10170D01*
X324Y10265D01*
X229Y10337D01*
X118Y10383D01*
X0Y10399D01*
D02*
G37*
G36*
X-5020Y6937D02*
X-5112Y6925D01*
X-5199Y6889D01*
X-5273Y6832D01*
X-5330Y6758D01*
X-5366Y6671D01*
X-5378Y6579D01*
X-5366Y6486D01*
X-5330Y6400D01*
X-5273Y6325D01*
X-5199Y6268D01*
X-5112Y6233D01*
X-5020Y6220D01*
X-4927Y6233D01*
X-4841Y6268D01*
X-4766Y6325D01*
X-4709Y6400D01*
X-4674Y6486D01*
X-4661Y6579D01*
X-4674Y6671D01*
X-4709Y6758D01*
X-4766Y6832D01*
X-4841Y6889D01*
X-4927Y6925D01*
X-5020Y6937D01*
D02*
G37*
G36*
X-4020Y5937D02*
X-4112Y5925D01*
X-4199Y5889D01*
X-4273Y5832D01*
X-4330Y5758D01*
X-4366Y5671D01*
X-4378Y5579D01*
X-4366Y5486D01*
X-4330Y5400D01*
X-4273Y5325D01*
X-4199Y5268D01*
X-4112Y5233D01*
X-4020Y5220D01*
X-3927Y5233D01*
X-3841Y5268D01*
X-3766Y5325D01*
X-3709Y5400D01*
X-3674Y5486D01*
X-3661Y5579D01*
X-3674Y5671D01*
X-3709Y5758D01*
X-3766Y5832D01*
X-3841Y5889D01*
X-3927Y5925D01*
X-4020Y5937D01*
D02*
G37*
G36*
X4020Y5969D02*
X3927Y5956D01*
X3841Y5921D01*
X3766Y5864D01*
X3709Y5789D01*
X3674Y5703D01*
X3661Y5610D01*
X3674Y5517D01*
X3709Y5431D01*
X3766Y5357D01*
X3841Y5300D01*
X3927Y5264D01*
X4020Y5252D01*
X4112Y5264D01*
X4199Y5300D01*
X4273Y5357D01*
X4330Y5431D01*
X4366Y5517D01*
X4378Y5610D01*
X4366Y5703D01*
X4330Y5789D01*
X4273Y5864D01*
X4199Y5921D01*
X4112Y5956D01*
X4020Y5969D01*
D02*
G37*
G36*
X-5512Y-4501D02*
X-5671Y-4517D01*
X-5823Y-4563D01*
X-5964Y-4638D01*
X-6087Y-4739D01*
X-6189Y-4863D01*
X-6264Y-5003D01*
X-6310Y-5156D01*
X-6326Y-5315D01*
X-6310Y-5474D01*
X-6264Y-5626D01*
X-6189Y-5767D01*
X-6087Y-5890D01*
X-5964Y-5992D01*
X-5823Y-6067D01*
X-5671Y-6113D01*
X-5512Y-6129D01*
X-5353Y-6113D01*
X-5200Y-6067D01*
X-5060Y-5992D01*
X-4936Y-5890D01*
X-4835Y-5767D01*
X-4760Y-5626D01*
X-4714Y-5474D01*
X-4698Y-5315D01*
X-4714Y-5156D01*
X-4760Y-5003D01*
X-4835Y-4863D01*
X-4936Y-4739D01*
X-5060Y-4638D01*
X-5200Y-4563D01*
X-5353Y-4517D01*
X-5512Y-4501D01*
D02*
G37*
G36*
X-5020Y5937D02*
X-5112Y5925D01*
X-5199Y5889D01*
X-5273Y5832D01*
X-5330Y5758D01*
X-5366Y5671D01*
X-5378Y5579D01*
X-5366Y5486D01*
X-5330Y5400D01*
X-5273Y5325D01*
X-5199Y5268D01*
X-5112Y5233D01*
X-5020Y5220D01*
X-4927Y5233D01*
X-4841Y5268D01*
X-4766Y5325D01*
X-4709Y5400D01*
X-4674Y5486D01*
X-4661Y5579D01*
X-4674Y5671D01*
X-4709Y5758D01*
X-4766Y5832D01*
X-4841Y5889D01*
X-4927Y5925D01*
X-5020Y5937D01*
D02*
G37*
G36*
X5375Y5966D02*
X4664D01*
Y5255D01*
X5375D01*
Y5966D01*
D02*
G37*
%LPD*%
G36*
X-523Y-3739D02*
X-490Y-3768D01*
X-474Y-3780D01*
X-459Y-3789D01*
X-445Y-3797D01*
X-431Y-3804D01*
X-417Y-3808D01*
X-404Y-3811D01*
X-392Y-3812D01*
Y-3872D01*
X-404Y-3872D01*
X-417Y-3875D01*
X-431Y-3880D01*
X-445Y-3886D01*
X-459Y-3894D01*
X-474Y-3904D01*
X-490Y-3915D01*
X-506Y-3929D01*
X-540Y-3961D01*
Y-3723D01*
X-523Y-3739D01*
D02*
G37*
G36*
X1197Y-1106D02*
X1192Y-1110D01*
X1187Y-1114D01*
X1183Y-1120D01*
X1180Y-1126D01*
X1177Y-1132D01*
X1175Y-1140D01*
X1173Y-1148D01*
X1172Y-1158D01*
X1172Y-1168D01*
X1112D01*
X1111Y-1158D01*
X1110Y-1148D01*
X1109Y-1140D01*
X1107Y-1132D01*
X1104Y-1126D01*
X1100Y-1120D01*
X1096Y-1114D01*
X1091Y-1110D01*
X1086Y-1106D01*
X1080Y-1103D01*
X1203D01*
X1197Y-1106D01*
D02*
G37*
G36*
X2171Y-4946D02*
X2182Y-4953D01*
X2195Y-4959D01*
X2209Y-4965D01*
X2225Y-4969D01*
X2243Y-4973D01*
X2262Y-4976D01*
X2283Y-4978D01*
X2330Y-4979D01*
X2161Y-5147D01*
X2161Y-5123D01*
X2158Y-5080D01*
X2155Y-5061D01*
X2151Y-5043D01*
X2147Y-5027D01*
X2141Y-5013D01*
X2135Y-5000D01*
X2128Y-4989D01*
X2120Y-4980D01*
X2162Y-4937D01*
X2171Y-4946D01*
D02*
G37*
G36*
X-1052Y-5255D02*
X-1049Y-5268D01*
X-1045Y-5281D01*
X-1038Y-5295D01*
X-1030Y-5310D01*
X-1021Y-5325D01*
X-1009Y-5340D01*
X-996Y-5357D01*
X-964Y-5390D01*
X-1202D01*
X-1185Y-5373D01*
X-1156Y-5340D01*
X-1145Y-5325D01*
X-1135Y-5310D01*
X-1127Y-5295D01*
X-1121Y-5281D01*
X-1116Y-5268D01*
X-1114Y-5255D01*
X-1113Y-5242D01*
X-1053D01*
X-1052Y-5255D01*
D02*
G37*
G36*
X941Y-1539D02*
X936Y-1543D01*
X931Y-1547D01*
X927Y-1553D01*
X924Y-1559D01*
X921Y-1565D01*
X919Y-1573D01*
X917Y-1582D01*
X916Y-1591D01*
X916Y-1601D01*
X856D01*
X856Y-1591D01*
X855Y-1582D01*
X853Y-1573D01*
X851Y-1565D01*
X848Y-1559D01*
X844Y-1553D01*
X840Y-1547D01*
X836Y-1543D01*
X830Y-1539D01*
X824Y-1536D01*
X947D01*
X941Y-1539D01*
D02*
G37*
G36*
X5366Y-3433D02*
X5348Y-3430D01*
X5331Y-3428D01*
X5314Y-3428D01*
X5299Y-3429D01*
X5284Y-3432D01*
X5270Y-3436D01*
X5257Y-3441D01*
X5244Y-3448D01*
X5233Y-3456D01*
X5222Y-3466D01*
X5180Y-3424D01*
X5189Y-3413D01*
X5198Y-3401D01*
X5204Y-3389D01*
X5210Y-3376D01*
X5214Y-3362D01*
X5217Y-3347D01*
X5218Y-3331D01*
X5217Y-3315D01*
X5216Y-3298D01*
X5213Y-3280D01*
X5366Y-3433D01*
D02*
G37*
G36*
X5265Y-3878D02*
X5244Y-3857D01*
X5205Y-3823D01*
X5187Y-3809D01*
X5169Y-3797D01*
X5152Y-3787D01*
X5136Y-3780D01*
X5121Y-3774D01*
X5107Y-3771D01*
X5093Y-3770D01*
Y-3710D01*
X5107Y-3709D01*
X5121Y-3706D01*
X5136Y-3700D01*
X5152Y-3693D01*
X5169Y-3683D01*
X5187Y-3671D01*
X5205Y-3657D01*
X5244Y-3623D01*
X5265Y-3602D01*
Y-3878D01*
D02*
G37*
G36*
X-385Y-2957D02*
X-375Y-2964D01*
X-363Y-2970D01*
X-349Y-2976D01*
X-334Y-2980D01*
X-318Y-2984D01*
X-300Y-2986D01*
X-281Y-2988D01*
X-238Y-2990D01*
X-396Y-3148D01*
X-396Y-3126D01*
X-399Y-3086D01*
X-402Y-3068D01*
X-406Y-3052D01*
X-410Y-3037D01*
X-415Y-3023D01*
X-422Y-3011D01*
X-429Y-3001D01*
X-436Y-2992D01*
X-394Y-2949D01*
X-385Y-2957D01*
D02*
G37*
G36*
X-364Y-3351D02*
X-362Y-3375D01*
X-362Y-3376D01*
X-361Y-3376D01*
X-426D01*
X-426Y-3376D01*
X-425Y-3375D01*
X-425Y-3373D01*
X-424Y-3371D01*
X-424Y-3365D01*
X-424Y-3346D01*
X-364D01*
X-364Y-3351D01*
D02*
G37*
G36*
X2142Y2342D02*
X2125Y2359D01*
X2092Y2387D01*
X2077Y2399D01*
X2062Y2408D01*
X2047Y2416D01*
X2033Y2423D01*
X2020Y2427D01*
X2007Y2430D01*
X1994Y2431D01*
Y2491D01*
X2007Y2492D01*
X2020Y2494D01*
X2033Y2499D01*
X2047Y2505D01*
X2062Y2513D01*
X2077Y2523D01*
X2092Y2534D01*
X2109Y2548D01*
X2142Y2580D01*
Y2342D01*
D02*
G37*
G36*
X-470Y1717D02*
X-478Y1707D01*
X-485Y1696D01*
X-491Y1684D01*
X-497Y1669D01*
X-502Y1653D01*
X-505Y1636D01*
X-508Y1617D01*
X-510Y1596D01*
X-511Y1549D01*
X-680Y1717D01*
X-655Y1718D01*
X-612Y1721D01*
X-593Y1724D01*
X-575Y1727D01*
X-559Y1732D01*
X-545Y1737D01*
X-533Y1744D01*
X-521Y1751D01*
X-512Y1759D01*
X-470Y1717D01*
D02*
G37*
G36*
X302Y1182D02*
X285Y1198D01*
X252Y1227D01*
X237Y1239D01*
X222Y1248D01*
X207Y1256D01*
X193Y1263D01*
X180Y1267D01*
X167Y1270D01*
X154Y1271D01*
Y1331D01*
X167Y1331D01*
X180Y1334D01*
X193Y1339D01*
X207Y1345D01*
X222Y1353D01*
X237Y1363D01*
X252Y1374D01*
X268Y1388D01*
X302Y1420D01*
Y1182D01*
D02*
G37*
G36*
X-3602Y4138D02*
X-3569Y4109D01*
X-3553Y4097D01*
X-3538Y4088D01*
X-3524Y4080D01*
X-3510Y4073D01*
X-3496Y4069D01*
X-3483Y4066D01*
X-3471Y4065D01*
Y4005D01*
X-3483Y4005D01*
X-3496Y4002D01*
X-3510Y3997D01*
X-3524Y3991D01*
X-3538Y3983D01*
X-3553Y3973D01*
X-3569Y3962D01*
X-3585Y3948D01*
X-3619Y3916D01*
Y4154D01*
X-3602Y4138D01*
D02*
G37*
G36*
X-1459Y5091D02*
X-1463Y5084D01*
X-1465Y5077D01*
X-1468Y5067D01*
X-1470Y5056D01*
X-1472Y5044D01*
X-1474Y5014D01*
X-1475Y4977D01*
X-1675D01*
X-1675Y4996D01*
X-1680Y5056D01*
X-1682Y5067D01*
X-1684Y5077D01*
X-1687Y5084D01*
X-1690Y5091D01*
X-1694Y5095D01*
X-1456D01*
X-1459Y5091D01*
D02*
G37*
G36*
X-3576Y4673D02*
X-3578Y4652D01*
X-3579Y4632D01*
X-3578Y4614D01*
X-3576Y4597D01*
X-3573Y4582D01*
X-3568Y4568D01*
X-3562Y4555D01*
X-3555Y4544D01*
X-3546Y4534D01*
X-3596Y4498D01*
X-3604Y4506D01*
X-3615Y4513D01*
X-3627Y4519D01*
X-3641Y4526D01*
X-3657Y4532D01*
X-3695Y4543D01*
X-3717Y4547D01*
X-3766Y4556D01*
X-3573Y4695D01*
X-3576Y4673D01*
D02*
G37*
G36*
X-774Y4361D02*
X-728Y4321D01*
X-719Y4315D01*
X-711Y4310D01*
X-703Y4307D01*
X-696Y4304D01*
X-691Y4304D01*
X-859Y4136D01*
X-860Y4141D01*
X-862Y4148D01*
X-865Y4155D01*
X-870Y4164D01*
X-876Y4173D01*
X-884Y4183D01*
X-904Y4206D01*
X-929Y4232D01*
X-788Y4374D01*
X-774Y4361D01*
D02*
G37*
G36*
X813Y820D02*
X796Y836D01*
X763Y865D01*
X747Y877D01*
X732Y886D01*
X718Y894D01*
X704Y901D01*
X690Y905D01*
X678Y908D01*
X665Y909D01*
Y969D01*
X678Y969D01*
X690Y972D01*
X704Y977D01*
X718Y983D01*
X732Y991D01*
X747Y1001D01*
X763Y1012D01*
X779Y1026D01*
X813Y1058D01*
Y820D01*
D02*
G37*
G36*
X3127Y373D02*
X3109Y390D01*
X3077Y419D01*
X3061Y430D01*
X3046Y440D01*
X3031Y448D01*
X3018Y454D01*
X3004Y459D01*
X2991Y461D01*
X2979Y462D01*
Y522D01*
X2991Y523D01*
X3004Y526D01*
X3018Y530D01*
X3031Y536D01*
X3046Y544D01*
X3061Y554D01*
X3077Y566D01*
X3093Y579D01*
X3127Y611D01*
Y373D01*
D02*
G37*
G36*
X3651Y348D02*
X3634Y357D01*
X3618Y364D01*
X3603Y370D01*
X3588Y373D01*
X3574Y374D01*
X3561Y373D01*
X3548Y370D01*
X3536Y365D01*
X3525Y357D01*
X3514Y348D01*
X3498Y417D01*
X3503Y423D01*
X3509Y430D01*
X3524Y453D01*
X3553Y502D01*
X3589Y571D01*
X3651Y348D01*
D02*
G37*
G36*
X718Y376D02*
X675Y299D01*
X668Y284D01*
X663Y269D01*
X659Y256D01*
X657Y244D01*
X656Y233D01*
X596Y220D01*
X595Y234D01*
X592Y247D01*
X587Y260D01*
X580Y273D01*
X572Y286D01*
X561Y299D01*
X549Y311D01*
X534Y324D01*
X518Y336D01*
X499Y349D01*
X732Y398D01*
X718Y376D01*
D02*
G37*
G36*
X-1179Y713D02*
X-1175Y652D01*
X-1173Y641D01*
X-1170Y632D01*
X-1167Y624D01*
X-1164Y618D01*
X-1161Y614D01*
X-1399D01*
X-1395Y618D01*
X-1392Y624D01*
X-1389Y632D01*
X-1386Y641D01*
X-1384Y652D01*
X-1383Y665D01*
X-1380Y695D01*
X-1380Y732D01*
X-1180D01*
X-1179Y713D01*
D02*
G37*
G36*
X-1154Y915D02*
X-1159Y913D01*
X-1163Y909D01*
X-1167Y904D01*
X-1170Y896D01*
X-1173Y887D01*
X-1176Y875D01*
X-1177Y862D01*
X-1179Y830D01*
X-1180Y811D01*
X-1380Y842D01*
X-1345Y1039D01*
X-1154Y915D01*
D02*
G37*
G36*
X-100Y716D02*
X-124Y716D01*
X-168Y713D01*
X-187Y710D01*
X-204Y706D01*
X-220Y701D01*
X-235Y696D01*
X-247Y690D01*
X-258Y682D01*
X-268Y674D01*
X-310Y717D01*
X-302Y726D01*
X-295Y737D01*
X-288Y750D01*
X-283Y764D01*
X-278Y780D01*
X-274Y798D01*
X-272Y817D01*
X-270Y838D01*
X-268Y884D01*
X-100Y716D01*
D02*
G37*
G36*
X348Y874D02*
X378Y854D01*
X383Y853D01*
X400Y799D01*
X266Y665D01*
X246Y635D01*
X239Y600D01*
Y207D01*
X246Y172D01*
X266Y142D01*
X312Y96D01*
Y-3647D01*
X209Y-3750D01*
X-206D01*
X-222Y-3700D01*
X-177Y-3633D01*
X-159Y-3543D01*
X-177Y-3454D01*
X-201Y-3418D01*
X-178Y-3362D01*
X-150Y-3357D01*
X-78Y-3308D01*
X-29Y-3235D01*
X-12Y-3150D01*
X-29Y-3064D01*
X-78Y-2991D01*
X-150Y-2942D01*
X-233Y-2926D01*
X-236Y-2925D01*
X-277Y-2924D01*
X-292Y-2922D01*
X-306Y-2920D01*
X-318Y-2917D01*
X-328Y-2914D01*
X-336Y-2911D01*
X-342Y-2908D01*
X-345Y-2906D01*
X-351Y-2900D01*
X-358Y-2898D01*
X-499Y-2757D01*
Y356D01*
X-232Y623D01*
X-225Y625D01*
X-219Y630D01*
X-215Y633D01*
X-208Y636D01*
X-200Y640D01*
X-189Y643D01*
X-175Y646D01*
X-161Y648D01*
X-122Y651D01*
X-100Y651D01*
X-99Y651D01*
X-98Y651D01*
X-9Y669D01*
X67Y720D01*
X118Y796D01*
X136Y886D01*
X118Y976D01*
X99Y1004D01*
X122Y1046D01*
X172Y1050D01*
X348Y874D01*
D02*
G37*
D26*
X822Y679D02*
X1042D01*
X749Y752D02*
X822Y679D01*
X483Y752D02*
X749D01*
X331Y600D02*
X483Y752D01*
X3616Y492D02*
X3740D01*
X3356Y232D02*
X3616Y492D01*
X2383Y232D02*
X3356D01*
X951Y1664D02*
X2383Y232D01*
X2292Y492D02*
X3248D01*
X1000Y1784D02*
X2292Y492D01*
X-221Y1301D02*
X424D01*
X-921Y601D02*
X-221Y1301D01*
X591Y492D02*
X626Y457D01*
Y-2076D02*
Y457D01*
X331Y207D02*
X404Y134D01*
X331Y207D02*
Y600D01*
X-27Y1664D02*
X951D01*
X-524Y1167D02*
X-27Y1664D01*
X-77Y1784D02*
X1000D01*
X-574Y1287D02*
X-77Y1784D01*
X206Y1146D02*
X413Y939D01*
X-206Y1146D02*
X206D01*
X-711Y641D02*
X-206Y1146D01*
X843Y1398D02*
Y1404D01*
Y1398D02*
X1194Y1046D01*
X-591Y394D02*
X-98Y886D01*
X404Y-3685D02*
Y134D01*
X413Y939D02*
X934D01*
X1194Y831D02*
Y1046D01*
X1042Y679D02*
X1194Y831D01*
X1142Y-1490D02*
X1146Y-1486D01*
X1142Y-1687D02*
Y-1490D01*
X886Y-1601D02*
Y-1378D01*
X1142Y-1168D02*
X1146Y-1172D01*
Y-1486D02*
Y-1172D01*
X1142Y-1687D02*
X1718Y-2264D01*
X2250D01*
X3431Y-3445D01*
X2165Y-2388D02*
X2461Y-2683D01*
X1673Y-2388D02*
X2165D01*
X2461Y-2683D02*
X2487D01*
X3543Y-3740D01*
X5406D01*
X886Y-1601D02*
X1673Y-2388D01*
X3431Y-3445D02*
X5201D01*
X5406Y-3240D01*
X1142Y-1168D02*
Y-945D01*
X-661Y-3842D02*
X247D01*
X-921Y-3848D02*
Y601D01*
X-1083Y-4009D02*
X-921Y-3848D01*
X-394Y-3543D02*
Y-3346D01*
X-711Y-3029D02*
X-394Y-3346D01*
X247Y-3842D02*
X404Y-3685D01*
X-1083Y-5512D02*
Y-4009D01*
X-591Y-2795D02*
X-236Y-3150D01*
X-1246Y1575D02*
X-839Y1167D01*
X-1083Y1581D02*
X-789Y1287D01*
X-574D01*
X-839Y1167D02*
X-524D01*
X-711Y-3029D02*
Y641D01*
X-681Y1547D02*
X232Y2461D01*
X-591Y-2795D02*
Y394D01*
X-1246Y1575D02*
Y1909D01*
X-3372Y4035D02*
X-1246Y1909D01*
X-3740Y4035D02*
X-3372D01*
X-3740Y4685D02*
X-1083Y2028D01*
X-3740Y4685D02*
Y4724D01*
X626Y-2076D02*
X1795Y-3246D01*
Y-4613D02*
X2331Y-5149D01*
X1795Y-4613D02*
Y-3246D01*
X232Y2461D02*
X2264D01*
X-1083Y1581D02*
Y2028D01*
D28*
X-1280Y492D02*
Y984D01*
X-1181Y1083D01*
X-1280Y4380D02*
X-935D01*
X-1575Y4675D02*
Y5217D01*
Y4675D02*
Y4724D01*
Y4675D02*
X-1280Y4380D01*
X-935D02*
X-689Y4134D01*
X-6186Y783D02*
X-5807Y1161D01*
X-6186Y-330D02*
Y783D01*
Y-330D02*
X-6004Y-512D01*
D35*
X5354Y39D02*
D03*
X5020Y5610D02*
D03*
X-5020Y7579D02*
D03*
D36*
X4354Y39D02*
D03*
X5354Y1039D02*
D03*
X4354D02*
D03*
X5354Y2039D02*
D03*
X4354D02*
D03*
X4020Y5610D02*
D03*
X5020Y6610D02*
D03*
X4020D02*
D03*
X5020Y7610D02*
D03*
X4020D02*
D03*
X-2673Y-5610D02*
D03*
X-3673D02*
D03*
X-5720Y266D02*
D03*
Y3081D02*
D03*
X-4020Y7579D02*
D03*
X-5020Y6579D02*
D03*
X-4020D02*
D03*
X-5020Y5579D02*
D03*
X-4020D02*
D03*
D37*
X-1673Y-5610D02*
D03*
D39*
X0Y9941D02*
D03*
D40*
X-5807Y2185D02*
D03*
Y1673D02*
D03*
Y1161D02*
D03*
X-5413Y1417D02*
D03*
Y1929D02*
D03*
D41*
X5406Y-1740D02*
D03*
X5906D02*
D03*
X5406Y-2240D02*
D03*
X5906D02*
D03*
X5406Y-2740D02*
D03*
X5906D02*
D03*
X5406Y-3240D02*
D03*
X5906D02*
D03*
X5406Y-3740D02*
D03*
D42*
X5906D02*
D03*
D43*
Y5217D02*
D03*
X3740Y2067D02*
D03*
Y492D02*
D03*
X3248D02*
D03*
X4921Y-787D02*
D03*
X1378Y0D02*
D03*
X424Y1301D02*
D03*
X843Y1404D02*
D03*
X-98Y886D02*
D03*
X591Y492D02*
D03*
X934Y939D02*
D03*
X886Y-1378D02*
D03*
X2067Y-2854D02*
D03*
X1870Y-1969D02*
D03*
X-661Y-3842D02*
D03*
X144Y-3578D02*
D03*
X-394Y-3543D02*
D03*
X-1181Y-3740D02*
D03*
X-1083Y-5512D02*
D03*
X-1378Y-394D02*
D03*
Y-1378D02*
D03*
X-1280Y492D02*
D03*
X-1181Y1083D02*
D03*
X-1870Y-2461D02*
D03*
X-681Y1547D02*
D03*
X-3937Y-3937D02*
D03*
X3150Y2461D02*
D03*
X1772Y2953D02*
D03*
X4921Y3248D02*
D03*
X3445Y-5807D02*
D03*
X1969D02*
D03*
X4921Y-4429D02*
D03*
Y-2953D02*
D03*
X-1969Y-4429D02*
D03*
X-4528Y-1673D02*
D03*
Y6102D02*
D03*
X-4823Y1969D02*
D03*
X-4921Y0D02*
D03*
X-689Y8169D02*
D03*
X1476Y8071D02*
D03*
X-3740Y4035D02*
D03*
X-3740Y4724D02*
D03*
X-1575Y5217D02*
D03*
X-689Y4134D02*
D03*
X2331Y-5149D02*
D03*
X4429Y-1673D02*
D03*
X3248Y-2894D02*
D03*
X-3642Y-3346D02*
D03*
X-4429Y-886D02*
D03*
X-6004Y-512D02*
D03*
X1870Y8071D02*
D03*
X1083D02*
D03*
X1142Y-945D02*
D03*
X1181Y-4154D02*
D03*
X-236Y5177D02*
D03*
X236D02*
D03*
X244Y5650D02*
D03*
X2264Y2461D02*
D03*
X3602Y1083D02*
D03*
X-1575Y3937D02*
D03*
X335Y3248D02*
D03*
X1378Y4035D02*
D03*
X2953Y5709D02*
D03*
X-1909Y6201D02*
D03*
X-886Y6594D02*
D03*
X-236Y5650D02*
D03*
X-1240Y7874D02*
D03*
X-1929D02*
D03*
X-2618D02*
D03*
X2461Y8071D02*
D03*
Y7382D02*
D03*
X-2815Y2461D02*
D03*
X-2165D02*
D03*
Y3937D02*
D03*
X-2992Y7382D02*
D03*
X-2559Y-2461D02*
D03*
X-1969Y-3937D02*
D03*
X-2953D02*
D03*
X-591Y-5807D02*
D03*
X-4331Y-5906D02*
D03*
X-6102Y-4331D02*
D03*
X0Y-787D02*
D03*
Y0D02*
D03*
X-6142Y2657D02*
D03*
X-3346Y295D02*
D03*
X-5286Y2657D02*
D03*
X-6102Y3937D02*
D03*
Y5906D02*
D03*
Y7874D02*
D03*
X-5906Y8858D02*
D03*
X-4921D02*
D03*
X-2953Y9843D02*
D03*
X-1969D02*
D03*
X-2953Y10827D02*
D03*
X-1969D02*
D03*
X-3937D02*
D03*
Y9843D02*
D03*
X2953Y10827D02*
D03*
X1969Y10827D02*
D03*
X2953Y8858D02*
D03*
X3937Y9843D02*
D03*
Y10827D02*
D03*
Y8858D02*
D03*
X4921D02*
D03*
X5906D02*
D03*
X-1969D02*
D03*
X-2953D02*
D03*
X-3937D02*
D03*
X1969Y9843D02*
D03*
X2953D02*
D03*
X1969Y8858D02*
D03*
X5906Y7874D02*
D03*
Y5906D02*
D03*
Y3248D02*
D03*
X6102Y1969D02*
D03*
Y0D02*
D03*
X3937Y3248D02*
D03*
X6102Y984D02*
D03*
X2953Y3937D02*
D03*
Y4921D02*
D03*
D44*
X-236Y-3150D02*
D03*
D45*
X-1000Y8941D02*
D03*
X1000D02*
D03*
Y10941D02*
D03*
X-1000D02*
D03*
M02*
