G04 Layer_Color=32896*
%FSLAX24Y24*%
%MOIN*%
G70*
G01*
G75*
%ADD30C,0.0080*%
%ADD50C,0.0050*%
G36*
X-34316Y-4132D02*
X-34307Y-4133D01*
X-34297Y-4135D01*
X-34289Y-4137D01*
X-34281Y-4140D01*
X-34273Y-4143D01*
X-34266Y-4147D01*
X-34260Y-4150D01*
X-34255Y-4154D01*
X-34250Y-4158D01*
X-34245Y-4162D01*
X-34242Y-4164D01*
X-34239Y-4167D01*
X-34237Y-4169D01*
X-34236Y-4170D01*
X-34235Y-4170D01*
X-34229Y-4178D01*
X-34223Y-4187D01*
X-34218Y-4195D01*
X-34214Y-4204D01*
X-34211Y-4213D01*
X-34208Y-4222D01*
X-34204Y-4239D01*
X-34202Y-4248D01*
X-34201Y-4255D01*
X-34200Y-4261D01*
X-34200Y-4267D01*
X-34199Y-4272D01*
Y-4276D01*
Y-4278D01*
Y-4279D01*
X-34200Y-4289D01*
X-34200Y-4300D01*
X-34202Y-4309D01*
X-34204Y-4318D01*
X-34205Y-4327D01*
X-34208Y-4335D01*
X-34210Y-4342D01*
X-34213Y-4349D01*
X-34215Y-4355D01*
X-34218Y-4360D01*
X-34220Y-4364D01*
X-34222Y-4368D01*
X-34224Y-4371D01*
X-34225Y-4373D01*
X-34226Y-4374D01*
X-34226Y-4375D01*
X-34233Y-4383D01*
X-34241Y-4390D01*
X-34249Y-4396D01*
X-34258Y-4402D01*
X-34267Y-4406D01*
X-34276Y-4410D01*
X-34285Y-4414D01*
X-34293Y-4416D01*
X-34301Y-4418D01*
X-34309Y-4419D01*
X-34316Y-4420D01*
X-34322Y-4421D01*
X-34327D01*
X-34331Y-4422D01*
X-34334D01*
X-34350Y-4421D01*
X-34365Y-4419D01*
X-34378Y-4415D01*
X-34389Y-4411D01*
X-34394Y-4409D01*
X-34398Y-4407D01*
X-34402Y-4406D01*
X-34404Y-4404D01*
X-34407Y-4402D01*
X-34409Y-4402D01*
X-34409Y-4401D01*
X-34410D01*
X-34421Y-4392D01*
X-34430Y-4382D01*
X-34438Y-4372D01*
X-34444Y-4362D01*
X-34449Y-4353D01*
X-34450Y-4349D01*
X-34452Y-4346D01*
X-34453Y-4343D01*
X-34454Y-4341D01*
X-34455Y-4340D01*
Y-4339D01*
X-34382Y-4327D01*
X-34379Y-4334D01*
X-34376Y-4341D01*
X-34373Y-4346D01*
X-34370Y-4350D01*
X-34368Y-4354D01*
X-34366Y-4356D01*
X-34364Y-4357D01*
X-34363Y-4357D01*
X-34359Y-4361D01*
X-34354Y-4363D01*
X-34349Y-4365D01*
X-34344Y-4366D01*
X-34341Y-4366D01*
X-34337Y-4367D01*
X-34334D01*
X-34326Y-4366D01*
X-34317Y-4364D01*
X-34310Y-4361D01*
X-34303Y-4358D01*
X-34298Y-4355D01*
X-34295Y-4352D01*
X-34292Y-4350D01*
X-34292Y-4349D01*
X-34286Y-4342D01*
X-34282Y-4334D01*
X-34279Y-4325D01*
X-34277Y-4317D01*
X-34276Y-4309D01*
X-34275Y-4304D01*
X-34275Y-4301D01*
Y-4300D01*
Y-4299D01*
Y-4298D01*
X-34459D01*
Y-4283D01*
X-34458Y-4269D01*
X-34456Y-4255D01*
X-34454Y-4243D01*
X-34451Y-4231D01*
X-34448Y-4221D01*
X-34445Y-4212D01*
X-34442Y-4204D01*
X-34438Y-4197D01*
X-34435Y-4190D01*
X-34432Y-4185D01*
X-34429Y-4180D01*
X-34427Y-4177D01*
X-34425Y-4174D01*
X-34424Y-4173D01*
X-34424Y-4173D01*
X-34417Y-4165D01*
X-34409Y-4159D01*
X-34402Y-4153D01*
X-34394Y-4149D01*
X-34386Y-4144D01*
X-34377Y-4141D01*
X-34369Y-4138D01*
X-34362Y-4136D01*
X-34354Y-4134D01*
X-34348Y-4133D01*
X-34342Y-4132D01*
X-34337Y-4132D01*
X-34332Y-4131D01*
X-34326D01*
X-34316Y-4132D01*
D02*
G37*
G36*
X-32251Y-4416D02*
X-32325D01*
Y-4032D01*
X-32251D01*
Y-4416D01*
D02*
G37*
G36*
X-32048Y-4132D02*
X-32039Y-4133D01*
X-32030Y-4135D01*
X-32021Y-4137D01*
X-32013Y-4140D01*
X-32006Y-4143D01*
X-31998Y-4147D01*
X-31992Y-4150D01*
X-31987Y-4154D01*
X-31982Y-4158D01*
X-31977Y-4162D01*
X-31974Y-4164D01*
X-31971Y-4167D01*
X-31969Y-4169D01*
X-31968Y-4170D01*
X-31967Y-4170D01*
X-31961Y-4178D01*
X-31956Y-4187D01*
X-31951Y-4195D01*
X-31946Y-4204D01*
X-31943Y-4213D01*
X-31940Y-4222D01*
X-31936Y-4239D01*
X-31934Y-4248D01*
X-31933Y-4255D01*
X-31932Y-4261D01*
X-31932Y-4267D01*
X-31931Y-4272D01*
Y-4276D01*
Y-4278D01*
Y-4279D01*
X-31932Y-4289D01*
X-31932Y-4300D01*
X-31934Y-4309D01*
X-31936Y-4318D01*
X-31937Y-4327D01*
X-31940Y-4335D01*
X-31942Y-4342D01*
X-31945Y-4349D01*
X-31947Y-4355D01*
X-31950Y-4360D01*
X-31952Y-4364D01*
X-31954Y-4368D01*
X-31956Y-4371D01*
X-31957Y-4373D01*
X-31958Y-4374D01*
X-31959Y-4375D01*
X-31966Y-4383D01*
X-31973Y-4390D01*
X-31981Y-4396D01*
X-31990Y-4402D01*
X-31999Y-4406D01*
X-32008Y-4410D01*
X-32017Y-4414D01*
X-32026Y-4416D01*
X-32033Y-4418D01*
X-32041Y-4419D01*
X-32048Y-4420D01*
X-32055Y-4421D01*
X-32060D01*
X-32063Y-4422D01*
X-32066D01*
X-32082Y-4421D01*
X-32097Y-4419D01*
X-32110Y-4415D01*
X-32121Y-4411D01*
X-32126Y-4409D01*
X-32130Y-4407D01*
X-32134Y-4406D01*
X-32137Y-4404D01*
X-32139Y-4402D01*
X-32141Y-4402D01*
X-32142Y-4401D01*
X-32142D01*
X-32153Y-4392D01*
X-32162Y-4382D01*
X-32170Y-4372D01*
X-32176Y-4362D01*
X-32181Y-4353D01*
X-32183Y-4349D01*
X-32184Y-4346D01*
X-32186Y-4343D01*
X-32187Y-4341D01*
X-32187Y-4340D01*
Y-4339D01*
X-32114Y-4327D01*
X-32111Y-4334D01*
X-32108Y-4341D01*
X-32106Y-4346D01*
X-32102Y-4350D01*
X-32100Y-4354D01*
X-32098Y-4356D01*
X-32096Y-4357D01*
X-32096Y-4357D01*
X-32091Y-4361D01*
X-32086Y-4363D01*
X-32081Y-4365D01*
X-32077Y-4366D01*
X-32073Y-4366D01*
X-32070Y-4367D01*
X-32067D01*
X-32058Y-4366D01*
X-32050Y-4364D01*
X-32042Y-4361D01*
X-32036Y-4358D01*
X-32031Y-4355D01*
X-32027Y-4352D01*
X-32025Y-4350D01*
X-32024Y-4349D01*
X-32018Y-4342D01*
X-32015Y-4334D01*
X-32011Y-4325D01*
X-32009Y-4317D01*
X-32008Y-4309D01*
X-32007Y-4304D01*
X-32007Y-4301D01*
Y-4300D01*
Y-4299D01*
Y-4298D01*
X-32191D01*
Y-4283D01*
X-32190Y-4269D01*
X-32188Y-4255D01*
X-32186Y-4243D01*
X-32183Y-4231D01*
X-32181Y-4221D01*
X-32177Y-4212D01*
X-32174Y-4204D01*
X-32171Y-4197D01*
X-32167Y-4190D01*
X-32164Y-4185D01*
X-32162Y-4180D01*
X-32159Y-4177D01*
X-32158Y-4174D01*
X-32157Y-4173D01*
X-32156Y-4173D01*
X-32149Y-4165D01*
X-32142Y-4159D01*
X-32134Y-4153D01*
X-32126Y-4149D01*
X-32118Y-4144D01*
X-32109Y-4141D01*
X-32102Y-4138D01*
X-32094Y-4136D01*
X-32087Y-4134D01*
X-32080Y-4133D01*
X-32074Y-4132D01*
X-32069Y-4132D01*
X-32065Y-4131D01*
X-32058D01*
X-32048Y-4132D01*
D02*
G37*
G36*
X-32646D02*
X-32636Y-4133D01*
X-32627Y-4135D01*
X-32618Y-4137D01*
X-32610Y-4140D01*
X-32603Y-4143D01*
X-32596Y-4147D01*
X-32590Y-4150D01*
X-32584Y-4154D01*
X-32579Y-4158D01*
X-32575Y-4162D01*
X-32571Y-4164D01*
X-32568Y-4167D01*
X-32566Y-4169D01*
X-32565Y-4170D01*
X-32565Y-4170D01*
X-32558Y-4178D01*
X-32553Y-4187D01*
X-32548Y-4195D01*
X-32543Y-4204D01*
X-32540Y-4213D01*
X-32537Y-4222D01*
X-32533Y-4239D01*
X-32531Y-4248D01*
X-32530Y-4255D01*
X-32530Y-4261D01*
X-32529Y-4267D01*
X-32529Y-4272D01*
Y-4276D01*
Y-4278D01*
Y-4279D01*
X-32529Y-4289D01*
X-32530Y-4300D01*
X-32531Y-4309D01*
X-32533Y-4318D01*
X-32535Y-4327D01*
X-32537Y-4335D01*
X-32540Y-4342D01*
X-32542Y-4349D01*
X-32545Y-4355D01*
X-32547Y-4360D01*
X-32550Y-4364D01*
X-32551Y-4368D01*
X-32553Y-4371D01*
X-32555Y-4373D01*
X-32555Y-4374D01*
X-32556Y-4375D01*
X-32563Y-4383D01*
X-32570Y-4390D01*
X-32578Y-4396D01*
X-32587Y-4402D01*
X-32596Y-4406D01*
X-32605Y-4410D01*
X-32614Y-4414D01*
X-32623Y-4416D01*
X-32631Y-4418D01*
X-32638Y-4419D01*
X-32646Y-4420D01*
X-32652Y-4421D01*
X-32657D01*
X-32660Y-4422D01*
X-32663D01*
X-32679Y-4421D01*
X-32694Y-4419D01*
X-32707Y-4415D01*
X-32718Y-4411D01*
X-32723Y-4409D01*
X-32727Y-4407D01*
X-32731Y-4406D01*
X-32734Y-4404D01*
X-32736Y-4402D01*
X-32738Y-4402D01*
X-32739Y-4401D01*
X-32739D01*
X-32750Y-4392D01*
X-32759Y-4382D01*
X-32767Y-4372D01*
X-32773Y-4362D01*
X-32778Y-4353D01*
X-32780Y-4349D01*
X-32782Y-4346D01*
X-32783Y-4343D01*
X-32784Y-4341D01*
X-32784Y-4340D01*
Y-4339D01*
X-32711Y-4327D01*
X-32708Y-4334D01*
X-32706Y-4341D01*
X-32703Y-4346D01*
X-32699Y-4350D01*
X-32697Y-4354D01*
X-32695Y-4356D01*
X-32693Y-4357D01*
X-32693Y-4357D01*
X-32688Y-4361D01*
X-32683Y-4363D01*
X-32678Y-4365D01*
X-32674Y-4366D01*
X-32670Y-4366D01*
X-32667Y-4367D01*
X-32664D01*
X-32655Y-4366D01*
X-32647Y-4364D01*
X-32639Y-4361D01*
X-32633Y-4358D01*
X-32628Y-4355D01*
X-32625Y-4352D01*
X-32622Y-4350D01*
X-32621Y-4349D01*
X-32616Y-4342D01*
X-32612Y-4334D01*
X-32608Y-4325D01*
X-32606Y-4317D01*
X-32605Y-4309D01*
X-32605Y-4304D01*
X-32604Y-4301D01*
Y-4300D01*
Y-4299D01*
Y-4298D01*
X-32788D01*
Y-4283D01*
X-32787Y-4269D01*
X-32785Y-4255D01*
X-32783Y-4243D01*
X-32780Y-4231D01*
X-32778Y-4221D01*
X-32774Y-4212D01*
X-32771Y-4204D01*
X-32768Y-4197D01*
X-32764Y-4190D01*
X-32762Y-4185D01*
X-32759Y-4180D01*
X-32757Y-4177D01*
X-32755Y-4174D01*
X-32754Y-4173D01*
X-32753Y-4173D01*
X-32747Y-4165D01*
X-32739Y-4159D01*
X-32731Y-4153D01*
X-32723Y-4149D01*
X-32715Y-4144D01*
X-32707Y-4141D01*
X-32699Y-4138D01*
X-32691Y-4136D01*
X-32684Y-4134D01*
X-32677Y-4133D01*
X-32671Y-4132D01*
X-32666Y-4132D01*
X-32662Y-4131D01*
X-32656D01*
X-32646Y-4132D01*
D02*
G37*
G36*
X-34133D02*
X-34127Y-4132D01*
X-34122Y-4134D01*
X-34117Y-4135D01*
X-34114Y-4137D01*
X-34110Y-4138D01*
X-34109Y-4139D01*
X-34108Y-4140D01*
X-34102Y-4144D01*
X-34097Y-4149D01*
X-34092Y-4155D01*
X-34088Y-4162D01*
X-34083Y-4168D01*
X-34080Y-4173D01*
X-34078Y-4176D01*
X-34077Y-4177D01*
Y-4137D01*
X-34009D01*
Y-4416D01*
X-34083D01*
Y-4330D01*
Y-4318D01*
Y-4306D01*
X-34083Y-4295D01*
X-34084Y-4286D01*
Y-4277D01*
X-34084Y-4270D01*
X-34085Y-4263D01*
X-34085Y-4257D01*
X-34086Y-4252D01*
X-34086Y-4248D01*
X-34087Y-4244D01*
Y-4241D01*
X-34088Y-4240D01*
X-34088Y-4238D01*
Y-4237D01*
X-34090Y-4229D01*
X-34093Y-4223D01*
X-34096Y-4217D01*
X-34099Y-4213D01*
X-34101Y-4210D01*
X-34103Y-4208D01*
X-34104Y-4207D01*
X-34105Y-4206D01*
X-34109Y-4203D01*
X-34114Y-4201D01*
X-34118Y-4199D01*
X-34122Y-4198D01*
X-34125Y-4198D01*
X-34129Y-4197D01*
X-34131D01*
X-34137Y-4198D01*
X-34143Y-4199D01*
X-34149Y-4201D01*
X-34154Y-4203D01*
X-34159Y-4205D01*
X-34162Y-4208D01*
X-34165Y-4209D01*
X-34165Y-4209D01*
X-34189Y-4145D01*
X-34180Y-4140D01*
X-34171Y-4137D01*
X-34163Y-4134D01*
X-34155Y-4133D01*
X-34149Y-4132D01*
X-34144Y-4131D01*
X-34140D01*
X-34133Y-4132D01*
D02*
G37*
G36*
X-33050Y-5221D02*
X-33109Y-5230D01*
X-33114Y-5225D01*
X-33119Y-5220D01*
X-33124Y-5216D01*
X-33129Y-5213D01*
X-33138Y-5208D01*
X-33147Y-5205D01*
X-33155Y-5203D01*
X-33161Y-5202D01*
X-33163Y-5201D01*
X-33166D01*
X-33175Y-5202D01*
X-33183Y-5204D01*
X-33191Y-5207D01*
X-33197Y-5210D01*
X-33201Y-5214D01*
X-33205Y-5217D01*
X-33207Y-5219D01*
X-33208Y-5220D01*
X-33213Y-5227D01*
X-33217Y-5235D01*
X-33220Y-5244D01*
X-33222Y-5253D01*
X-33223Y-5261D01*
X-33224Y-5267D01*
Y-5270D01*
Y-5271D01*
Y-5272D01*
Y-5273D01*
X-33223Y-5286D01*
X-33222Y-5298D01*
X-33219Y-5307D01*
X-33216Y-5315D01*
X-33213Y-5322D01*
X-33211Y-5326D01*
X-33208Y-5328D01*
X-33208Y-5330D01*
X-33202Y-5336D01*
X-33195Y-5341D01*
X-33188Y-5344D01*
X-33182Y-5346D01*
X-33177Y-5347D01*
X-33172Y-5348D01*
X-33170Y-5348D01*
X-33168D01*
X-33161Y-5348D01*
X-33154Y-5346D01*
X-33148Y-5344D01*
X-33143Y-5341D01*
X-33138Y-5338D01*
X-33135Y-5336D01*
X-33133Y-5335D01*
X-33132Y-5334D01*
X-33127Y-5328D01*
X-33123Y-5322D01*
X-33120Y-5315D01*
X-33117Y-5309D01*
X-33116Y-5303D01*
X-33115Y-5298D01*
X-33114Y-5296D01*
Y-5295D01*
X-33041Y-5302D01*
X-33042Y-5311D01*
X-33044Y-5320D01*
X-33050Y-5335D01*
X-33056Y-5348D01*
X-33059Y-5353D01*
X-33063Y-5359D01*
X-33066Y-5363D01*
X-33069Y-5367D01*
X-33072Y-5371D01*
X-33075Y-5374D01*
X-33077Y-5376D01*
X-33079Y-5378D01*
X-33080Y-5378D01*
X-33080Y-5379D01*
X-33087Y-5384D01*
X-33094Y-5388D01*
X-33101Y-5392D01*
X-33108Y-5395D01*
X-33123Y-5401D01*
X-33136Y-5404D01*
X-33143Y-5405D01*
X-33148Y-5406D01*
X-33154Y-5406D01*
X-33158Y-5407D01*
X-33162Y-5407D01*
X-33167D01*
X-33180Y-5407D01*
X-33191Y-5405D01*
X-33202Y-5403D01*
X-33212Y-5399D01*
X-33221Y-5396D01*
X-33229Y-5391D01*
X-33237Y-5387D01*
X-33244Y-5382D01*
X-33251Y-5377D01*
X-33256Y-5373D01*
X-33261Y-5368D01*
X-33265Y-5364D01*
X-33268Y-5361D01*
X-33270Y-5359D01*
X-33271Y-5357D01*
X-33272Y-5357D01*
X-33277Y-5349D01*
X-33281Y-5342D01*
X-33284Y-5335D01*
X-33288Y-5327D01*
X-33293Y-5313D01*
X-33296Y-5300D01*
X-33297Y-5294D01*
X-33298Y-5288D01*
X-33299Y-5283D01*
Y-5279D01*
X-33299Y-5276D01*
Y-5273D01*
Y-5272D01*
Y-5271D01*
X-33299Y-5261D01*
X-33298Y-5251D01*
X-33296Y-5241D01*
X-33294Y-5232D01*
X-33292Y-5225D01*
X-33288Y-5217D01*
X-33286Y-5210D01*
X-33282Y-5204D01*
X-33279Y-5198D01*
X-33276Y-5193D01*
X-33273Y-5189D01*
X-33271Y-5185D01*
X-33268Y-5182D01*
X-33267Y-5180D01*
X-33266Y-5179D01*
X-33265Y-5179D01*
X-33258Y-5172D01*
X-33252Y-5167D01*
X-33244Y-5162D01*
X-33237Y-5157D01*
X-33231Y-5154D01*
X-33223Y-5151D01*
X-33211Y-5147D01*
X-33205Y-5145D01*
X-33199Y-5144D01*
X-33194Y-5144D01*
X-33190Y-5143D01*
X-33187Y-5142D01*
X-33182D01*
X-33172Y-5143D01*
X-33163Y-5145D01*
X-33155Y-5146D01*
X-33147Y-5149D01*
X-33141Y-5151D01*
X-33136Y-5153D01*
X-33132Y-5155D01*
X-33132Y-5155D01*
X-33131D01*
X-33143Y-5090D01*
X-33282D01*
Y-5021D01*
X-33087D01*
X-33050Y-5221D01*
D02*
G37*
G36*
X-32400Y-4416D02*
X-32474D01*
Y-4032D01*
X-32400D01*
Y-4416D01*
D02*
G37*
G36*
X-32997Y-4132D02*
X-32987Y-4133D01*
X-32979Y-4135D01*
X-32970Y-4138D01*
X-32961Y-4142D01*
X-32954Y-4146D01*
X-32947Y-4150D01*
X-32941Y-4154D01*
X-32935Y-4159D01*
X-32930Y-4163D01*
X-32926Y-4167D01*
X-32923Y-4171D01*
X-32920Y-4174D01*
X-32918Y-4176D01*
X-32916Y-4178D01*
X-32916Y-4178D01*
Y-4137D01*
X-32848D01*
Y-4416D01*
X-32921D01*
Y-4290D01*
Y-4282D01*
Y-4274D01*
X-32922Y-4267D01*
X-32923Y-4261D01*
Y-4255D01*
X-32923Y-4250D01*
X-32924Y-4245D01*
X-32924Y-4241D01*
X-32925Y-4234D01*
X-32926Y-4230D01*
X-32927Y-4227D01*
Y-4226D01*
X-32929Y-4220D01*
X-32933Y-4214D01*
X-32936Y-4210D01*
X-32939Y-4205D01*
X-32943Y-4203D01*
X-32945Y-4200D01*
X-32947Y-4199D01*
X-32948Y-4198D01*
X-32954Y-4195D01*
X-32960Y-4192D01*
X-32965Y-4190D01*
X-32971Y-4189D01*
X-32975Y-4188D01*
X-32979Y-4188D01*
X-32982D01*
X-32987Y-4188D01*
X-32992Y-4189D01*
X-32996Y-4190D01*
X-33000Y-4192D01*
X-33004Y-4193D01*
X-33006Y-4194D01*
X-33007Y-4195D01*
X-33007Y-4195D01*
X-33011Y-4198D01*
X-33014Y-4202D01*
X-33019Y-4208D01*
X-33021Y-4212D01*
X-33022Y-4214D01*
X-33023Y-4215D01*
Y-4216D01*
X-33024Y-4219D01*
X-33025Y-4222D01*
X-33026Y-4230D01*
X-33027Y-4240D01*
X-33027Y-4250D01*
X-33028Y-4259D01*
Y-4263D01*
Y-4267D01*
Y-4270D01*
Y-4272D01*
Y-4274D01*
Y-4274D01*
Y-4416D01*
X-33102D01*
Y-4243D01*
Y-4231D01*
X-33101Y-4222D01*
X-33101Y-4213D01*
X-33100Y-4207D01*
X-33099Y-4201D01*
X-33098Y-4197D01*
X-33097Y-4194D01*
Y-4194D01*
X-33096Y-4187D01*
X-33094Y-4182D01*
X-33091Y-4176D01*
X-33089Y-4172D01*
X-33086Y-4168D01*
X-33085Y-4165D01*
X-33084Y-4163D01*
X-33083Y-4163D01*
X-33079Y-4158D01*
X-33074Y-4153D01*
X-33069Y-4149D01*
X-33064Y-4146D01*
X-33059Y-4143D01*
X-33055Y-4142D01*
X-33053Y-4140D01*
X-33052Y-4140D01*
X-33044Y-4137D01*
X-33036Y-4135D01*
X-33029Y-4133D01*
X-33022Y-4132D01*
X-33016Y-4132D01*
X-33011Y-4131D01*
X-33007D01*
X-32997Y-4132D01*
D02*
G37*
G36*
X-33478Y-4025D02*
X-33463Y-4027D01*
X-33450Y-4029D01*
X-33438Y-4033D01*
X-33426Y-4037D01*
X-33415Y-4041D01*
X-33406Y-4046D01*
X-33397Y-4051D01*
X-33389Y-4056D01*
X-33382Y-4061D01*
X-33376Y-4066D01*
X-33371Y-4069D01*
X-33367Y-4073D01*
X-33364Y-4076D01*
X-33363Y-4077D01*
X-33362Y-4078D01*
X-33353Y-4088D01*
X-33346Y-4099D01*
X-33339Y-4111D01*
X-33334Y-4123D01*
X-33329Y-4136D01*
X-33325Y-4148D01*
X-33322Y-4160D01*
X-33319Y-4172D01*
X-33317Y-4184D01*
X-33315Y-4194D01*
X-33314Y-4203D01*
X-33313Y-4211D01*
Y-4218D01*
X-33313Y-4223D01*
Y-4226D01*
Y-4226D01*
Y-4227D01*
X-33313Y-4244D01*
X-33315Y-4259D01*
X-33317Y-4274D01*
X-33321Y-4288D01*
X-33324Y-4300D01*
X-33328Y-4313D01*
X-33333Y-4323D01*
X-33337Y-4333D01*
X-33342Y-4341D01*
X-33346Y-4349D01*
X-33350Y-4355D01*
X-33354Y-4361D01*
X-33357Y-4365D01*
X-33359Y-4368D01*
X-33361Y-4370D01*
X-33362Y-4370D01*
X-33371Y-4380D01*
X-33381Y-4387D01*
X-33392Y-4395D01*
X-33402Y-4400D01*
X-33413Y-4405D01*
X-33423Y-4410D01*
X-33433Y-4413D01*
X-33443Y-4416D01*
X-33452Y-4418D01*
X-33460Y-4420D01*
X-33468Y-4421D01*
X-33474Y-4421D01*
X-33480Y-4422D01*
X-33484Y-4422D01*
X-33487D01*
X-33499Y-4422D01*
X-33509Y-4421D01*
X-33520Y-4420D01*
X-33529Y-4417D01*
X-33538Y-4415D01*
X-33546Y-4413D01*
X-33554Y-4410D01*
X-33561Y-4407D01*
X-33567Y-4404D01*
X-33573Y-4401D01*
X-33578Y-4399D01*
X-33582Y-4397D01*
X-33585Y-4395D01*
X-33587Y-4393D01*
X-33589Y-4392D01*
X-33589Y-4392D01*
X-33596Y-4386D01*
X-33603Y-4379D01*
X-33615Y-4364D01*
X-33625Y-4349D01*
X-33633Y-4334D01*
X-33636Y-4326D01*
X-33639Y-4320D01*
X-33641Y-4314D01*
X-33644Y-4309D01*
X-33645Y-4304D01*
X-33646Y-4301D01*
X-33647Y-4299D01*
Y-4298D01*
X-33571Y-4275D01*
X-33567Y-4290D01*
X-33562Y-4303D01*
X-33557Y-4313D01*
X-33551Y-4322D01*
X-33547Y-4329D01*
X-33543Y-4333D01*
X-33540Y-4336D01*
X-33539Y-4337D01*
X-33530Y-4344D01*
X-33521Y-4348D01*
X-33513Y-4351D01*
X-33505Y-4354D01*
X-33498Y-4355D01*
X-33491Y-4356D01*
X-33489Y-4356D01*
X-33486D01*
X-33479Y-4356D01*
X-33471Y-4355D01*
X-33458Y-4351D01*
X-33446Y-4347D01*
X-33437Y-4341D01*
X-33429Y-4335D01*
X-33424Y-4331D01*
X-33422Y-4329D01*
X-33420Y-4327D01*
X-33419Y-4326D01*
X-33419Y-4326D01*
X-33414Y-4320D01*
X-33410Y-4313D01*
X-33407Y-4305D01*
X-33404Y-4296D01*
X-33399Y-4279D01*
X-33396Y-4262D01*
X-33395Y-4254D01*
X-33394Y-4246D01*
X-33393Y-4239D01*
Y-4233D01*
X-33393Y-4229D01*
Y-4225D01*
Y-4222D01*
Y-4221D01*
X-33393Y-4209D01*
X-33394Y-4197D01*
X-33395Y-4187D01*
X-33397Y-4177D01*
X-33399Y-4168D01*
X-33401Y-4159D01*
X-33403Y-4152D01*
X-33406Y-4145D01*
X-33408Y-4140D01*
X-33410Y-4135D01*
X-33413Y-4131D01*
X-33415Y-4128D01*
X-33417Y-4125D01*
X-33418Y-4123D01*
X-33419Y-4122D01*
Y-4122D01*
X-33424Y-4116D01*
X-33429Y-4111D01*
X-33435Y-4107D01*
X-33441Y-4104D01*
X-33453Y-4098D01*
X-33464Y-4094D01*
X-33473Y-4092D01*
X-33478Y-4092D01*
X-33481Y-4091D01*
X-33484Y-4091D01*
X-33488D01*
X-33499Y-4091D01*
X-33509Y-4093D01*
X-33518Y-4096D01*
X-33526Y-4099D01*
X-33532Y-4103D01*
X-33536Y-4105D01*
X-33539Y-4108D01*
X-33540Y-4108D01*
X-33547Y-4115D01*
X-33554Y-4123D01*
X-33559Y-4130D01*
X-33563Y-4138D01*
X-33566Y-4145D01*
X-33567Y-4150D01*
X-33569Y-4152D01*
Y-4154D01*
X-33569Y-4154D01*
Y-4155D01*
X-33646Y-4137D01*
X-33640Y-4120D01*
X-33634Y-4107D01*
X-33627Y-4094D01*
X-33621Y-4084D01*
X-33615Y-4077D01*
X-33613Y-4073D01*
X-33611Y-4071D01*
X-33609Y-4069D01*
X-33607Y-4067D01*
X-33607Y-4066D01*
X-33606D01*
X-33598Y-4059D01*
X-33589Y-4052D01*
X-33580Y-4047D01*
X-33570Y-4042D01*
X-33560Y-4038D01*
X-33551Y-4034D01*
X-33541Y-4032D01*
X-33533Y-4029D01*
X-33524Y-4028D01*
X-33516Y-4027D01*
X-33510Y-4026D01*
X-33504Y-4025D01*
X-33499Y-4024D01*
X-33492D01*
X-33478Y-4025D01*
D02*
G37*
G36*
X-33862Y-4908D02*
X-33935D01*
Y-4629D01*
X-33862D01*
Y-4908D01*
D02*
G37*
G36*
X-35386Y-4624D02*
X-35380Y-4624D01*
X-35375Y-4626D01*
X-35370Y-4628D01*
X-35366Y-4629D01*
X-35363Y-4630D01*
X-35361Y-4631D01*
X-35361Y-4632D01*
X-35355Y-4636D01*
X-35350Y-4641D01*
X-35345Y-4648D01*
X-35340Y-4654D01*
X-35336Y-4660D01*
X-35332Y-4665D01*
X-35330Y-4668D01*
X-35330Y-4669D01*
Y-4629D01*
X-35261D01*
Y-4908D01*
X-35335D01*
Y-4822D01*
Y-4810D01*
Y-4798D01*
X-35336Y-4787D01*
X-35336Y-4778D01*
Y-4769D01*
X-35337Y-4762D01*
X-35337Y-4755D01*
X-35338Y-4749D01*
X-35338Y-4744D01*
X-35339Y-4740D01*
X-35340Y-4736D01*
Y-4734D01*
X-35340Y-4732D01*
X-35341Y-4730D01*
Y-4729D01*
X-35343Y-4721D01*
X-35346Y-4715D01*
X-35348Y-4709D01*
X-35351Y-4705D01*
X-35353Y-4702D01*
X-35356Y-4700D01*
X-35357Y-4699D01*
X-35357Y-4698D01*
X-35362Y-4695D01*
X-35366Y-4693D01*
X-35371Y-4691D01*
X-35375Y-4690D01*
X-35378Y-4690D01*
X-35381Y-4689D01*
X-35383D01*
X-35390Y-4690D01*
X-35396Y-4691D01*
X-35401Y-4693D01*
X-35407Y-4695D01*
X-35411Y-4698D01*
X-35415Y-4700D01*
X-35417Y-4701D01*
X-35418Y-4701D01*
X-35441Y-4638D01*
X-35432Y-4633D01*
X-35424Y-4629D01*
X-35416Y-4626D01*
X-35408Y-4625D01*
X-35402Y-4624D01*
X-35397Y-4623D01*
X-35392D01*
X-35386Y-4624D01*
D02*
G37*
G36*
X-33206D02*
X-33196Y-4625D01*
X-33187Y-4628D01*
X-33178Y-4630D01*
X-33170Y-4634D01*
X-33162Y-4638D01*
X-33155Y-4643D01*
X-33149Y-4646D01*
X-33143Y-4651D01*
X-33138Y-4655D01*
X-33134Y-4659D01*
X-33131Y-4663D01*
X-33128Y-4666D01*
X-33126Y-4668D01*
X-33125Y-4670D01*
X-33124Y-4670D01*
Y-4629D01*
X-33056D01*
Y-4908D01*
X-33130D01*
Y-4782D01*
Y-4774D01*
Y-4766D01*
X-33130Y-4759D01*
X-33131Y-4753D01*
Y-4747D01*
X-33131Y-4742D01*
X-33132Y-4737D01*
X-33132Y-4733D01*
X-33133Y-4726D01*
X-33134Y-4722D01*
X-33135Y-4719D01*
Y-4719D01*
X-33137Y-4713D01*
X-33141Y-4706D01*
X-33144Y-4702D01*
X-33147Y-4698D01*
X-33151Y-4695D01*
X-33153Y-4692D01*
X-33155Y-4691D01*
X-33156Y-4690D01*
X-33162Y-4687D01*
X-33168Y-4684D01*
X-33173Y-4683D01*
X-33179Y-4681D01*
X-33183Y-4680D01*
X-33187Y-4680D01*
X-33190D01*
X-33196Y-4680D01*
X-33201Y-4681D01*
X-33205Y-4682D01*
X-33208Y-4684D01*
X-33212Y-4685D01*
X-33214Y-4686D01*
X-33215Y-4687D01*
X-33216Y-4688D01*
X-33219Y-4690D01*
X-33222Y-4694D01*
X-33227Y-4700D01*
X-33229Y-4704D01*
X-33230Y-4706D01*
X-33231Y-4708D01*
Y-4708D01*
X-33232Y-4711D01*
X-33233Y-4714D01*
X-33234Y-4723D01*
X-33235Y-4732D01*
X-33236Y-4742D01*
X-33236Y-4751D01*
Y-4755D01*
Y-4759D01*
Y-4762D01*
Y-4764D01*
Y-4766D01*
Y-4766D01*
Y-4908D01*
X-33310D01*
Y-4735D01*
Y-4724D01*
X-33309Y-4714D01*
X-33309Y-4705D01*
X-33308Y-4699D01*
X-33307Y-4693D01*
X-33306Y-4689D01*
X-33306Y-4686D01*
Y-4686D01*
X-33304Y-4679D01*
X-33302Y-4674D01*
X-33299Y-4668D01*
X-33297Y-4664D01*
X-33294Y-4660D01*
X-33293Y-4657D01*
X-33292Y-4655D01*
X-33291Y-4655D01*
X-33287Y-4650D01*
X-33282Y-4645D01*
X-33277Y-4641D01*
X-33272Y-4638D01*
X-33267Y-4635D01*
X-33263Y-4634D01*
X-33261Y-4633D01*
X-33260Y-4632D01*
X-33252Y-4629D01*
X-33244Y-4627D01*
X-33237Y-4625D01*
X-33231Y-4624D01*
X-33224Y-4624D01*
X-33219Y-4623D01*
X-33216D01*
X-33206Y-4624D01*
D02*
G37*
G36*
X-33524Y-4589D02*
X-33703D01*
X-33501Y-4838D01*
Y-4908D01*
X-33813D01*
Y-4843D01*
X-33595D01*
X-33805Y-4584D01*
Y-4524D01*
X-33524D01*
Y-4589D01*
D02*
G37*
G36*
X-33803Y-4132D02*
X-33794Y-4133D01*
X-33786Y-4134D01*
X-33778Y-4135D01*
X-33772Y-4137D01*
X-33766Y-4139D01*
X-33760Y-4141D01*
X-33756Y-4143D01*
X-33751Y-4145D01*
X-33748Y-4147D01*
X-33745Y-4148D01*
X-33742Y-4149D01*
X-33741Y-4150D01*
X-33740Y-4151D01*
X-33740D01*
X-33730Y-4159D01*
X-33722Y-4169D01*
X-33716Y-4179D01*
X-33710Y-4188D01*
X-33706Y-4197D01*
X-33705Y-4201D01*
X-33703Y-4204D01*
X-33702Y-4207D01*
X-33702Y-4209D01*
X-33701Y-4210D01*
Y-4211D01*
X-33767Y-4223D01*
X-33770Y-4216D01*
X-33773Y-4211D01*
X-33776Y-4206D01*
X-33779Y-4202D01*
X-33781Y-4199D01*
X-33783Y-4198D01*
X-33784Y-4197D01*
X-33785Y-4196D01*
X-33789Y-4193D01*
X-33794Y-4191D01*
X-33800Y-4190D01*
X-33805Y-4189D01*
X-33809Y-4188D01*
X-33813Y-4188D01*
X-33816D01*
X-33826Y-4188D01*
X-33834Y-4189D01*
X-33841Y-4190D01*
X-33847Y-4192D01*
X-33851Y-4194D01*
X-33853Y-4195D01*
X-33855Y-4197D01*
X-33856Y-4197D01*
X-33859Y-4201D01*
X-33862Y-4205D01*
X-33864Y-4210D01*
X-33866Y-4215D01*
X-33866Y-4220D01*
X-33867Y-4224D01*
Y-4226D01*
Y-4228D01*
Y-4235D01*
X-33863Y-4236D01*
X-33858Y-4238D01*
X-33847Y-4241D01*
X-33835Y-4244D01*
X-33823Y-4247D01*
X-33812Y-4250D01*
X-33807Y-4251D01*
X-33803Y-4251D01*
X-33799Y-4252D01*
X-33797Y-4253D01*
X-33795Y-4253D01*
X-33794D01*
X-33781Y-4256D01*
X-33769Y-4259D01*
X-33759Y-4261D01*
X-33751Y-4264D01*
X-33744Y-4267D01*
X-33740Y-4269D01*
X-33737Y-4270D01*
X-33736Y-4270D01*
X-33728Y-4274D01*
X-33722Y-4279D01*
X-33717Y-4284D01*
X-33713Y-4288D01*
X-33709Y-4292D01*
X-33707Y-4295D01*
X-33705Y-4298D01*
X-33705Y-4299D01*
X-33701Y-4306D01*
X-33698Y-4313D01*
X-33696Y-4320D01*
X-33695Y-4326D01*
X-33694Y-4332D01*
X-33693Y-4336D01*
Y-4339D01*
Y-4340D01*
X-33694Y-4347D01*
X-33695Y-4353D01*
X-33697Y-4365D01*
X-33701Y-4375D01*
X-33706Y-4383D01*
X-33710Y-4390D01*
X-33714Y-4395D01*
X-33717Y-4398D01*
X-33718Y-4399D01*
Y-4399D01*
X-33728Y-4407D01*
X-33739Y-4412D01*
X-33750Y-4416D01*
X-33761Y-4419D01*
X-33771Y-4421D01*
X-33775Y-4421D01*
X-33778D01*
X-33782Y-4422D01*
X-33786D01*
X-33794Y-4421D01*
X-33803Y-4420D01*
X-33811Y-4419D01*
X-33818Y-4417D01*
X-33823Y-4416D01*
X-33828Y-4414D01*
X-33831Y-4414D01*
X-33832Y-4413D01*
X-33839Y-4409D01*
X-33847Y-4405D01*
X-33854Y-4400D01*
X-33860Y-4396D01*
X-33865Y-4392D01*
X-33869Y-4389D01*
X-33871Y-4386D01*
X-33872Y-4386D01*
X-33873Y-4388D01*
X-33874Y-4391D01*
X-33874Y-4393D01*
X-33875Y-4394D01*
Y-4394D01*
X-33877Y-4399D01*
X-33878Y-4404D01*
X-33879Y-4407D01*
X-33880Y-4410D01*
X-33881Y-4412D01*
X-33882Y-4415D01*
X-33882Y-4415D01*
Y-4416D01*
X-33955D01*
X-33952Y-4409D01*
X-33949Y-4402D01*
X-33947Y-4396D01*
X-33944Y-4390D01*
X-33943Y-4386D01*
X-33942Y-4382D01*
X-33942Y-4380D01*
Y-4379D01*
X-33940Y-4372D01*
X-33940Y-4363D01*
X-33939Y-4354D01*
Y-4345D01*
X-33938Y-4337D01*
Y-4331D01*
Y-4328D01*
Y-4326D01*
Y-4325D01*
Y-4325D01*
X-33939Y-4239D01*
Y-4230D01*
X-33939Y-4222D01*
X-33938Y-4215D01*
X-33938Y-4208D01*
X-33937Y-4202D01*
X-33936Y-4197D01*
X-33935Y-4192D01*
X-33934Y-4188D01*
X-33933Y-4184D01*
X-33933Y-4181D01*
X-33931Y-4176D01*
X-33930Y-4174D01*
X-33929Y-4173D01*
X-33925Y-4167D01*
X-33920Y-4160D01*
X-33914Y-4155D01*
X-33908Y-4151D01*
X-33903Y-4148D01*
X-33899Y-4145D01*
X-33896Y-4144D01*
X-33895Y-4143D01*
X-33895D01*
X-33890Y-4141D01*
X-33885Y-4139D01*
X-33873Y-4136D01*
X-33861Y-4134D01*
X-33849Y-4133D01*
X-33838Y-4132D01*
X-33834D01*
X-33830Y-4131D01*
X-33812D01*
X-33803Y-4132D01*
D02*
G37*
G36*
X-34590Y-4416D02*
X-34587Y-4425D01*
X-34584Y-4432D01*
X-34581Y-4439D01*
X-34578Y-4444D01*
X-34575Y-4448D01*
X-34573Y-4452D01*
X-34571Y-4454D01*
X-34571Y-4455D01*
X-34566Y-4460D01*
X-34560Y-4463D01*
X-34554Y-4466D01*
X-34548Y-4468D01*
X-34542Y-4469D01*
X-34538Y-4470D01*
X-34533D01*
X-34523Y-4470D01*
X-34517Y-4469D01*
X-34513Y-4468D01*
X-34508Y-4467D01*
X-34505Y-4467D01*
X-34503Y-4466D01*
X-34502D01*
X-34509Y-4524D01*
X-34524Y-4527D01*
X-34530Y-4528D01*
X-34537Y-4528D01*
X-34542D01*
X-34546Y-4529D01*
X-34558D01*
X-34565Y-4528D01*
X-34571Y-4527D01*
X-34576Y-4526D01*
X-34581Y-4526D01*
X-34585Y-4525D01*
X-34587Y-4524D01*
X-34588D01*
X-34594Y-4522D01*
X-34599Y-4520D01*
X-34604Y-4518D01*
X-34608Y-4516D01*
X-34611Y-4515D01*
X-34613Y-4513D01*
X-34615Y-4512D01*
X-34615Y-4512D01*
X-34624Y-4505D01*
X-34630Y-4498D01*
X-34632Y-4495D01*
X-34634Y-4493D01*
X-34635Y-4491D01*
X-34635Y-4491D01*
X-34639Y-4485D01*
X-34642Y-4480D01*
X-34645Y-4473D01*
X-34648Y-4467D01*
X-34650Y-4462D01*
X-34653Y-4457D01*
X-34654Y-4455D01*
X-34654Y-4453D01*
X-34672Y-4406D01*
X-34770Y-4137D01*
X-34694D01*
X-34629Y-4335D01*
X-34563Y-4137D01*
X-34484D01*
X-34590Y-4416D01*
D02*
G37*
G36*
X-36398Y-4624D02*
X-36388Y-4625D01*
X-36379Y-4628D01*
X-36370Y-4630D01*
X-36362Y-4634D01*
X-36355Y-4638D01*
X-36347Y-4643D01*
X-36341Y-4646D01*
X-36336Y-4651D01*
X-36331Y-4655D01*
X-36326Y-4659D01*
X-36323Y-4663D01*
X-36320Y-4666D01*
X-36318Y-4668D01*
X-36317Y-4670D01*
X-36316Y-4670D01*
Y-4629D01*
X-36248D01*
Y-4908D01*
X-36322D01*
Y-4782D01*
Y-4774D01*
Y-4766D01*
X-36322Y-4759D01*
X-36323Y-4753D01*
Y-4747D01*
X-36324Y-4742D01*
X-36324Y-4737D01*
X-36325Y-4733D01*
X-36326Y-4726D01*
X-36326Y-4722D01*
X-36327Y-4719D01*
Y-4719D01*
X-36330Y-4713D01*
X-36333Y-4706D01*
X-36336Y-4702D01*
X-36340Y-4698D01*
X-36343Y-4695D01*
X-36346Y-4692D01*
X-36347Y-4691D01*
X-36348Y-4690D01*
X-36354Y-4687D01*
X-36360Y-4684D01*
X-36366Y-4683D01*
X-36371Y-4681D01*
X-36376Y-4680D01*
X-36379Y-4680D01*
X-36382D01*
X-36388Y-4680D01*
X-36393Y-4681D01*
X-36397Y-4682D01*
X-36401Y-4684D01*
X-36404Y-4685D01*
X-36406Y-4686D01*
X-36407Y-4687D01*
X-36408Y-4688D01*
X-36412Y-4690D01*
X-36415Y-4694D01*
X-36420Y-4700D01*
X-36421Y-4704D01*
X-36422Y-4706D01*
X-36423Y-4708D01*
Y-4708D01*
X-36425Y-4711D01*
X-36425Y-4714D01*
X-36426Y-4723D01*
X-36427Y-4732D01*
X-36428Y-4742D01*
X-36428Y-4751D01*
Y-4755D01*
Y-4759D01*
Y-4762D01*
Y-4764D01*
Y-4766D01*
Y-4766D01*
Y-4908D01*
X-36502D01*
Y-4735D01*
Y-4724D01*
X-36502Y-4714D01*
X-36501Y-4705D01*
X-36500Y-4699D01*
X-36500Y-4693D01*
X-36498Y-4689D01*
X-36498Y-4686D01*
Y-4686D01*
X-36496Y-4679D01*
X-36494Y-4674D01*
X-36492Y-4668D01*
X-36489Y-4664D01*
X-36487Y-4660D01*
X-36485Y-4657D01*
X-36484Y-4655D01*
X-36483Y-4655D01*
X-36479Y-4650D01*
X-36474Y-4645D01*
X-36469Y-4641D01*
X-36464Y-4638D01*
X-36460Y-4635D01*
X-36456Y-4634D01*
X-36453Y-4633D01*
X-36452Y-4632D01*
X-36445Y-4629D01*
X-36437Y-4627D01*
X-36430Y-4625D01*
X-36423Y-4624D01*
X-36417Y-4624D01*
X-36412Y-4623D01*
X-36408D01*
X-36398Y-4624D01*
D02*
G37*
G36*
X-31566Y-4416D02*
X-31644D01*
Y-4300D01*
X-31707Y-4235D01*
X-31813Y-4416D01*
X-31913D01*
X-31760Y-4182D01*
X-31906Y-4032D01*
X-31801D01*
X-31644Y-4203D01*
Y-4032D01*
X-31566D01*
Y-4416D01*
D02*
G37*
G36*
X-31669Y-5026D02*
X-31662Y-5038D01*
X-31654Y-5049D01*
X-31647Y-5058D01*
X-31640Y-5065D01*
X-31634Y-5071D01*
X-31632Y-5073D01*
X-31630Y-5075D01*
X-31629Y-5075D01*
X-31628Y-5076D01*
X-31616Y-5085D01*
X-31604Y-5093D01*
X-31594Y-5099D01*
X-31584Y-5103D01*
X-31577Y-5106D01*
X-31571Y-5109D01*
X-31569Y-5110D01*
X-31567Y-5110D01*
X-31567Y-5111D01*
X-31566D01*
Y-5177D01*
X-31586Y-5170D01*
X-31604Y-5161D01*
X-31612Y-5157D01*
X-31620Y-5152D01*
X-31627Y-5147D01*
X-31634Y-5143D01*
X-31640Y-5139D01*
X-31646Y-5135D01*
X-31650Y-5131D01*
X-31654Y-5128D01*
X-31657Y-5125D01*
X-31659Y-5124D01*
X-31660Y-5123D01*
X-31661Y-5122D01*
Y-5400D01*
X-31735D01*
Y-5014D01*
X-31675D01*
X-31669Y-5026D01*
D02*
G37*
G36*
X-32747Y-3839D02*
X-32851D01*
Y-3625D01*
X-32884D01*
X-32895Y-3625D01*
X-32904Y-3626D01*
X-32911Y-3628D01*
X-32917Y-3628D01*
X-32921Y-3630D01*
X-32923Y-3631D01*
X-32924D01*
X-32929Y-3634D01*
X-32935Y-3637D01*
X-32941Y-3640D01*
X-32946Y-3643D01*
X-32949Y-3647D01*
X-32952Y-3650D01*
X-32954Y-3651D01*
X-32955Y-3652D01*
X-32958Y-3656D01*
X-32961Y-3659D01*
X-32969Y-3671D01*
X-32978Y-3682D01*
X-32988Y-3696D01*
X-32996Y-3708D01*
X-33000Y-3714D01*
X-33003Y-3718D01*
X-33006Y-3722D01*
X-33008Y-3725D01*
X-33009Y-3727D01*
X-33009Y-3728D01*
X-33083Y-3839D01*
X-33208D01*
X-33145Y-3739D01*
X-33138Y-3728D01*
X-33131Y-3718D01*
X-33126Y-3709D01*
X-33120Y-3701D01*
X-33114Y-3694D01*
X-33110Y-3686D01*
X-33101Y-3675D01*
X-33094Y-3666D01*
X-33090Y-3660D01*
X-33086Y-3657D01*
X-33086Y-3656D01*
X-33077Y-3647D01*
X-33068Y-3639D01*
X-33059Y-3632D01*
X-33050Y-3625D01*
X-33043Y-3620D01*
X-33037Y-3617D01*
X-33032Y-3614D01*
X-33032Y-3613D01*
X-33031D01*
X-33043Y-3611D01*
X-33055Y-3608D01*
X-33065Y-3605D01*
X-33075Y-3601D01*
X-33084Y-3597D01*
X-33092Y-3594D01*
X-33100Y-3590D01*
X-33107Y-3586D01*
X-33113Y-3582D01*
X-33118Y-3578D01*
X-33123Y-3574D01*
X-33126Y-3571D01*
X-33129Y-3569D01*
X-33131Y-3567D01*
X-33131Y-3566D01*
X-33132Y-3566D01*
X-33138Y-3558D01*
X-33143Y-3551D01*
X-33152Y-3534D01*
X-33158Y-3519D01*
X-33162Y-3503D01*
X-33165Y-3490D01*
X-33166Y-3485D01*
Y-3480D01*
X-33166Y-3476D01*
Y-3472D01*
Y-3471D01*
Y-3470D01*
X-33166Y-3454D01*
X-33163Y-3438D01*
X-33159Y-3425D01*
X-33155Y-3413D01*
X-33151Y-3403D01*
X-33147Y-3396D01*
X-33146Y-3394D01*
X-33144Y-3392D01*
X-33143Y-3391D01*
Y-3390D01*
X-33134Y-3378D01*
X-33125Y-3367D01*
X-33115Y-3359D01*
X-33106Y-3352D01*
X-33097Y-3347D01*
X-33090Y-3344D01*
X-33086Y-3341D01*
X-33085Y-3341D01*
X-33084D01*
X-33077Y-3338D01*
X-33069Y-3336D01*
X-33050Y-3332D01*
X-33030Y-3330D01*
X-33011Y-3328D01*
X-33001D01*
X-32993Y-3327D01*
X-32985D01*
X-32978Y-3327D01*
X-32747D01*
Y-3839D01*
D02*
G37*
G36*
X-34446Y-3460D02*
X-34427Y-3463D01*
X-34410Y-3466D01*
X-34395Y-3471D01*
X-34389Y-3474D01*
X-34384Y-3476D01*
X-34378Y-3477D01*
X-34375Y-3480D01*
X-34371Y-3481D01*
X-34369Y-3483D01*
X-34367Y-3483D01*
X-34367D01*
X-34351Y-3494D01*
X-34338Y-3505D01*
X-34326Y-3517D01*
X-34316Y-3528D01*
X-34309Y-3538D01*
X-34303Y-3546D01*
X-34301Y-3549D01*
X-34300Y-3551D01*
X-34298Y-3553D01*
Y-3554D01*
X-34290Y-3571D01*
X-34285Y-3588D01*
X-34281Y-3603D01*
X-34278Y-3617D01*
X-34276Y-3630D01*
X-34276Y-3635D01*
Y-3640D01*
X-34275Y-3642D01*
Y-3645D01*
Y-3647D01*
Y-3648D01*
X-34276Y-3671D01*
X-34278Y-3692D01*
X-34282Y-3711D01*
X-34284Y-3719D01*
X-34287Y-3726D01*
X-34289Y-3733D01*
X-34291Y-3739D01*
X-34293Y-3744D01*
X-34295Y-3748D01*
X-34296Y-3752D01*
X-34298Y-3754D01*
X-34298Y-3756D01*
Y-3756D01*
X-34309Y-3772D01*
X-34320Y-3785D01*
X-34332Y-3797D01*
X-34343Y-3807D01*
X-34353Y-3814D01*
X-34361Y-3819D01*
X-34364Y-3822D01*
X-34367Y-3823D01*
X-34368Y-3824D01*
X-34369D01*
X-34387Y-3831D01*
X-34404Y-3837D01*
X-34420Y-3841D01*
X-34435Y-3844D01*
X-34448Y-3845D01*
X-34453Y-3846D01*
X-34458D01*
X-34461Y-3847D01*
X-34466D01*
X-34482Y-3846D01*
X-34496Y-3844D01*
X-34510Y-3842D01*
X-34523Y-3838D01*
X-34535Y-3834D01*
X-34546Y-3830D01*
X-34557Y-3825D01*
X-34566Y-3819D01*
X-34574Y-3814D01*
X-34582Y-3809D01*
X-34589Y-3805D01*
X-34594Y-3801D01*
X-34598Y-3797D01*
X-34601Y-3794D01*
X-34603Y-3793D01*
X-34603Y-3792D01*
X-34613Y-3781D01*
X-34621Y-3770D01*
X-34628Y-3759D01*
X-34635Y-3747D01*
X-34640Y-3735D01*
X-34645Y-3723D01*
X-34648Y-3712D01*
X-34651Y-3701D01*
X-34654Y-3691D01*
X-34655Y-3682D01*
X-34657Y-3674D01*
X-34657Y-3666D01*
X-34658Y-3660D01*
Y-3656D01*
Y-3653D01*
Y-3652D01*
X-34657Y-3637D01*
X-34656Y-3622D01*
X-34653Y-3608D01*
X-34650Y-3595D01*
X-34646Y-3583D01*
X-34641Y-3571D01*
X-34636Y-3561D01*
X-34631Y-3551D01*
X-34626Y-3543D01*
X-34621Y-3535D01*
X-34617Y-3529D01*
X-34612Y-3523D01*
X-34609Y-3520D01*
X-34606Y-3516D01*
X-34605Y-3514D01*
X-34604Y-3514D01*
X-34594Y-3504D01*
X-34583Y-3496D01*
X-34572Y-3489D01*
X-34560Y-3482D01*
X-34548Y-3477D01*
X-34537Y-3472D01*
X-34526Y-3469D01*
X-34515Y-3466D01*
X-34505Y-3463D01*
X-34495Y-3462D01*
X-34487Y-3460D01*
X-34480Y-3460D01*
X-34474Y-3459D01*
X-34466D01*
X-34446Y-3460D01*
D02*
G37*
G36*
X-31594Y-3839D02*
X-31698D01*
Y-3625D01*
X-31731D01*
X-31742Y-3625D01*
X-31751Y-3626D01*
X-31758Y-3628D01*
X-31764Y-3628D01*
X-31768Y-3630D01*
X-31770Y-3631D01*
X-31771D01*
X-31777Y-3634D01*
X-31782Y-3637D01*
X-31788Y-3640D01*
X-31793Y-3643D01*
X-31797Y-3647D01*
X-31799Y-3650D01*
X-31801Y-3651D01*
X-31802Y-3652D01*
X-31805Y-3656D01*
X-31808Y-3659D01*
X-31816Y-3671D01*
X-31825Y-3682D01*
X-31835Y-3696D01*
X-31843Y-3708D01*
X-31847Y-3714D01*
X-31850Y-3718D01*
X-31853Y-3722D01*
X-31855Y-3725D01*
X-31856Y-3727D01*
X-31856Y-3728D01*
X-31930Y-3839D01*
X-32055D01*
X-31992Y-3739D01*
X-31985Y-3728D01*
X-31979Y-3718D01*
X-31973Y-3709D01*
X-31967Y-3701D01*
X-31962Y-3694D01*
X-31957Y-3686D01*
X-31948Y-3675D01*
X-31942Y-3666D01*
X-31937Y-3660D01*
X-31933Y-3657D01*
X-31933Y-3656D01*
X-31925Y-3647D01*
X-31915Y-3639D01*
X-31906Y-3632D01*
X-31897Y-3625D01*
X-31890Y-3620D01*
X-31884Y-3617D01*
X-31879Y-3614D01*
X-31879Y-3613D01*
X-31878D01*
X-31890Y-3611D01*
X-31902Y-3608D01*
X-31912Y-3605D01*
X-31922Y-3601D01*
X-31931Y-3597D01*
X-31939Y-3594D01*
X-31947Y-3590D01*
X-31954Y-3586D01*
X-31960Y-3582D01*
X-31965Y-3578D01*
X-31970Y-3574D01*
X-31973Y-3571D01*
X-31976Y-3569D01*
X-31978Y-3567D01*
X-31979Y-3566D01*
X-31979Y-3566D01*
X-31985Y-3558D01*
X-31990Y-3551D01*
X-31999Y-3534D01*
X-32005Y-3519D01*
X-32009Y-3503D01*
X-32012Y-3490D01*
X-32013Y-3485D01*
Y-3480D01*
X-32013Y-3476D01*
Y-3472D01*
Y-3471D01*
Y-3470D01*
X-32013Y-3454D01*
X-32010Y-3438D01*
X-32006Y-3425D01*
X-32002Y-3413D01*
X-31998Y-3403D01*
X-31994Y-3396D01*
X-31993Y-3394D01*
X-31991Y-3392D01*
X-31990Y-3391D01*
Y-3390D01*
X-31982Y-3378D01*
X-31972Y-3367D01*
X-31962Y-3359D01*
X-31953Y-3352D01*
X-31944Y-3347D01*
X-31937Y-3344D01*
X-31933Y-3341D01*
X-31932Y-3341D01*
X-31931D01*
X-31924Y-3338D01*
X-31916Y-3336D01*
X-31897Y-3332D01*
X-31877Y-3330D01*
X-31858Y-3328D01*
X-31848D01*
X-31840Y-3327D01*
X-31832D01*
X-31825Y-3327D01*
X-31594D01*
Y-3839D01*
D02*
G37*
G36*
X-32111D02*
X-32215D01*
Y-3621D01*
X-32428D01*
Y-3534D01*
X-32215D01*
Y-3413D01*
X-32463D01*
Y-3327D01*
X-32111D01*
Y-3839D01*
D02*
G37*
G36*
X-32048Y-5608D02*
X-32039Y-5609D01*
X-32030Y-5611D01*
X-32021Y-5614D01*
X-32013Y-5616D01*
X-32006Y-5620D01*
X-31998Y-5624D01*
X-31992Y-5627D01*
X-31987Y-5631D01*
X-31982Y-5635D01*
X-31977Y-5638D01*
X-31974Y-5641D01*
X-31971Y-5643D01*
X-31969Y-5645D01*
X-31968Y-5646D01*
X-31967Y-5647D01*
X-31961Y-5655D01*
X-31956Y-5663D01*
X-31951Y-5671D01*
X-31946Y-5680D01*
X-31943Y-5690D01*
X-31940Y-5698D01*
X-31936Y-5716D01*
X-31934Y-5724D01*
X-31933Y-5731D01*
X-31932Y-5738D01*
X-31932Y-5743D01*
X-31931Y-5748D01*
Y-5752D01*
Y-5754D01*
Y-5755D01*
X-31932Y-5766D01*
X-31932Y-5776D01*
X-31934Y-5786D01*
X-31936Y-5794D01*
X-31937Y-5803D01*
X-31940Y-5811D01*
X-31942Y-5818D01*
X-31945Y-5825D01*
X-31947Y-5831D01*
X-31950Y-5836D01*
X-31952Y-5841D01*
X-31954Y-5844D01*
X-31956Y-5847D01*
X-31957Y-5849D01*
X-31958Y-5850D01*
X-31959Y-5851D01*
X-31966Y-5859D01*
X-31973Y-5867D01*
X-31981Y-5873D01*
X-31990Y-5878D01*
X-31999Y-5883D01*
X-32008Y-5887D01*
X-32017Y-5890D01*
X-32026Y-5892D01*
X-32033Y-5894D01*
X-32041Y-5895D01*
X-32048Y-5897D01*
X-32055Y-5898D01*
X-32060D01*
X-32063Y-5898D01*
X-32066D01*
X-32082Y-5897D01*
X-32097Y-5895D01*
X-32110Y-5892D01*
X-32121Y-5888D01*
X-32126Y-5885D01*
X-32130Y-5884D01*
X-32134Y-5882D01*
X-32137Y-5880D01*
X-32139Y-5879D01*
X-32141Y-5878D01*
X-32142Y-5877D01*
X-32142D01*
X-32153Y-5868D01*
X-32162Y-5859D01*
X-32170Y-5848D01*
X-32176Y-5838D01*
X-32181Y-5829D01*
X-32183Y-5826D01*
X-32184Y-5822D01*
X-32186Y-5819D01*
X-32187Y-5817D01*
X-32187Y-5816D01*
Y-5816D01*
X-32114Y-5803D01*
X-32111Y-5811D01*
X-32108Y-5817D01*
X-32106Y-5822D01*
X-32102Y-5827D01*
X-32100Y-5830D01*
X-32098Y-5832D01*
X-32096Y-5833D01*
X-32096Y-5834D01*
X-32091Y-5837D01*
X-32086Y-5839D01*
X-32081Y-5841D01*
X-32077Y-5842D01*
X-32073Y-5843D01*
X-32070Y-5843D01*
X-32067D01*
X-32058Y-5843D01*
X-32050Y-5841D01*
X-32042Y-5838D01*
X-32036Y-5834D01*
X-32031Y-5831D01*
X-32027Y-5828D01*
X-32025Y-5826D01*
X-32024Y-5826D01*
X-32018Y-5818D01*
X-32015Y-5810D01*
X-32011Y-5801D01*
X-32009Y-5793D01*
X-32008Y-5786D01*
X-32007Y-5780D01*
X-32007Y-5778D01*
Y-5776D01*
Y-5775D01*
Y-5774D01*
X-32191D01*
Y-5759D01*
X-32190Y-5745D01*
X-32188Y-5732D01*
X-32186Y-5720D01*
X-32183Y-5708D01*
X-32181Y-5698D01*
X-32177Y-5688D01*
X-32174Y-5680D01*
X-32171Y-5673D01*
X-32167Y-5666D01*
X-32164Y-5661D01*
X-32162Y-5657D01*
X-32159Y-5653D01*
X-32158Y-5651D01*
X-32157Y-5650D01*
X-32156Y-5649D01*
X-32149Y-5642D01*
X-32142Y-5635D01*
X-32134Y-5630D01*
X-32126Y-5625D01*
X-32118Y-5621D01*
X-32109Y-5617D01*
X-32102Y-5615D01*
X-32094Y-5612D01*
X-32087Y-5611D01*
X-32080Y-5610D01*
X-32074Y-5609D01*
X-32069Y-5608D01*
X-32065Y-5607D01*
X-32058D01*
X-32048Y-5608D01*
D02*
G37*
G36*
X-31566Y-5892D02*
X-31644D01*
Y-5732D01*
X-31669D01*
X-31677Y-5732D01*
X-31683Y-5733D01*
X-31689Y-5734D01*
X-31693Y-5735D01*
X-31696Y-5736D01*
X-31698Y-5736D01*
X-31698D01*
X-31703Y-5738D01*
X-31707Y-5741D01*
X-31711Y-5743D01*
X-31715Y-5746D01*
X-31718Y-5748D01*
X-31720Y-5751D01*
X-31721Y-5752D01*
X-31722Y-5752D01*
X-31724Y-5755D01*
X-31727Y-5758D01*
X-31733Y-5766D01*
X-31739Y-5775D01*
X-31747Y-5785D01*
X-31753Y-5794D01*
X-31755Y-5798D01*
X-31758Y-5802D01*
X-31760Y-5804D01*
X-31762Y-5807D01*
X-31762Y-5808D01*
X-31763Y-5809D01*
X-31818Y-5892D01*
X-31911D01*
X-31864Y-5817D01*
X-31859Y-5809D01*
X-31854Y-5802D01*
X-31850Y-5795D01*
X-31845Y-5789D01*
X-31841Y-5783D01*
X-31838Y-5778D01*
X-31831Y-5769D01*
X-31826Y-5763D01*
X-31823Y-5758D01*
X-31820Y-5756D01*
X-31820Y-5755D01*
X-31814Y-5748D01*
X-31806Y-5742D01*
X-31800Y-5737D01*
X-31793Y-5732D01*
X-31788Y-5728D01*
X-31783Y-5726D01*
X-31780Y-5723D01*
X-31779Y-5723D01*
X-31779D01*
X-31788Y-5721D01*
X-31796Y-5719D01*
X-31804Y-5717D01*
X-31812Y-5714D01*
X-31819Y-5711D01*
X-31825Y-5708D01*
X-31831Y-5706D01*
X-31836Y-5702D01*
X-31840Y-5700D01*
X-31844Y-5697D01*
X-31848Y-5694D01*
X-31850Y-5692D01*
X-31852Y-5690D01*
X-31854Y-5688D01*
X-31854Y-5688D01*
X-31855Y-5687D01*
X-31859Y-5682D01*
X-31863Y-5676D01*
X-31870Y-5664D01*
X-31874Y-5652D01*
X-31877Y-5641D01*
X-31879Y-5631D01*
X-31880Y-5627D01*
Y-5623D01*
X-31880Y-5620D01*
Y-5617D01*
Y-5616D01*
Y-5616D01*
X-31880Y-5604D01*
X-31878Y-5592D01*
X-31875Y-5582D01*
X-31872Y-5573D01*
X-31869Y-5566D01*
X-31866Y-5560D01*
X-31865Y-5559D01*
X-31864Y-5557D01*
X-31863Y-5556D01*
Y-5556D01*
X-31856Y-5546D01*
X-31849Y-5539D01*
X-31842Y-5532D01*
X-31835Y-5527D01*
X-31828Y-5524D01*
X-31823Y-5521D01*
X-31820Y-5519D01*
X-31819Y-5519D01*
X-31819D01*
X-31813Y-5517D01*
X-31807Y-5515D01*
X-31793Y-5513D01*
X-31778Y-5511D01*
X-31764Y-5509D01*
X-31757D01*
X-31750Y-5509D01*
X-31744D01*
X-31739Y-5508D01*
X-31566D01*
Y-5892D01*
D02*
G37*
G36*
X-32806Y-5519D02*
X-32799Y-5530D01*
X-32791Y-5541D01*
X-32783Y-5550D01*
X-32777Y-5557D01*
X-32770Y-5563D01*
X-32768Y-5565D01*
X-32767Y-5567D01*
X-32766Y-5567D01*
X-32765Y-5568D01*
X-32753Y-5577D01*
X-32741Y-5585D01*
X-32731Y-5591D01*
X-32721Y-5595D01*
X-32713Y-5599D01*
X-32708Y-5601D01*
X-32706Y-5602D01*
X-32704Y-5602D01*
X-32703Y-5603D01*
X-32703D01*
Y-5670D01*
X-32723Y-5662D01*
X-32741Y-5653D01*
X-32749Y-5649D01*
X-32757Y-5644D01*
X-32764Y-5640D01*
X-32770Y-5635D01*
X-32777Y-5631D01*
X-32782Y-5627D01*
X-32787Y-5624D01*
X-32790Y-5620D01*
X-32794Y-5617D01*
X-32796Y-5616D01*
X-32797Y-5615D01*
X-32798Y-5614D01*
Y-5892D01*
X-32871D01*
Y-5506D01*
X-32812D01*
X-32806Y-5519D01*
D02*
G37*
G36*
X-32327Y-5892D02*
X-32394D01*
X-32504Y-5614D01*
X-32429D01*
X-32375Y-5756D01*
X-32372Y-5764D01*
X-32370Y-5772D01*
X-32369Y-5775D01*
X-32368Y-5777D01*
X-32368Y-5779D01*
Y-5779D01*
X-32367Y-5782D01*
X-32366Y-5786D01*
X-32363Y-5794D01*
X-32362Y-5797D01*
X-32361Y-5801D01*
X-32360Y-5803D01*
X-32360Y-5803D01*
X-32345Y-5756D01*
X-32292Y-5614D01*
X-32215D01*
X-32327Y-5892D01*
D02*
G37*
G36*
X-35101Y-3460D02*
X-35088Y-3461D01*
X-35075Y-3464D01*
X-35064Y-3467D01*
X-35053Y-3471D01*
X-35044Y-3475D01*
X-35034Y-3480D01*
X-35026Y-3485D01*
X-35018Y-3490D01*
X-35012Y-3495D01*
X-35006Y-3500D01*
X-35001Y-3503D01*
X-34998Y-3506D01*
X-34995Y-3509D01*
X-34993Y-3511D01*
X-34993Y-3512D01*
X-34984Y-3522D01*
X-34977Y-3533D01*
X-34970Y-3544D01*
X-34964Y-3556D01*
X-34960Y-3568D01*
X-34956Y-3580D01*
X-34950Y-3603D01*
X-34948Y-3614D01*
X-34947Y-3624D01*
X-34946Y-3633D01*
X-34945Y-3640D01*
X-34944Y-3647D01*
Y-3652D01*
Y-3655D01*
Y-3656D01*
X-34945Y-3670D01*
X-34946Y-3684D01*
X-34948Y-3697D01*
X-34950Y-3708D01*
X-34953Y-3720D01*
X-34956Y-3731D01*
X-34959Y-3740D01*
X-34963Y-3749D01*
X-34966Y-3757D01*
X-34970Y-3764D01*
X-34973Y-3770D01*
X-34975Y-3775D01*
X-34978Y-3779D01*
X-34979Y-3782D01*
X-34980Y-3783D01*
X-34981Y-3784D01*
X-34990Y-3795D01*
X-35000Y-3805D01*
X-35011Y-3813D01*
X-35023Y-3820D01*
X-35035Y-3826D01*
X-35047Y-3831D01*
X-35058Y-3836D01*
X-35070Y-3839D01*
X-35081Y-3842D01*
X-35091Y-3843D01*
X-35101Y-3844D01*
X-35109Y-3846D01*
X-35115D01*
X-35120Y-3847D01*
X-35124D01*
X-35146Y-3845D01*
X-35166Y-3842D01*
X-35183Y-3838D01*
X-35198Y-3833D01*
X-35204Y-3830D01*
X-35209Y-3827D01*
X-35215Y-3825D01*
X-35218Y-3823D01*
X-35221Y-3821D01*
X-35224Y-3820D01*
X-35225Y-3819D01*
X-35226D01*
X-35240Y-3807D01*
X-35252Y-3794D01*
X-35263Y-3780D01*
X-35271Y-3767D01*
X-35277Y-3755D01*
X-35280Y-3750D01*
X-35282Y-3745D01*
X-35283Y-3742D01*
X-35285Y-3739D01*
X-35286Y-3737D01*
Y-3736D01*
X-35188Y-3720D01*
X-35184Y-3730D01*
X-35181Y-3739D01*
X-35177Y-3745D01*
X-35172Y-3751D01*
X-35169Y-3756D01*
X-35166Y-3759D01*
X-35164Y-3760D01*
X-35164Y-3761D01*
X-35158Y-3765D01*
X-35151Y-3768D01*
X-35144Y-3771D01*
X-35138Y-3772D01*
X-35133Y-3773D01*
X-35129Y-3773D01*
X-35125D01*
X-35113Y-3773D01*
X-35102Y-3770D01*
X-35092Y-3766D01*
X-35084Y-3762D01*
X-35077Y-3757D01*
X-35072Y-3753D01*
X-35069Y-3751D01*
X-35068Y-3750D01*
X-35061Y-3740D01*
X-35055Y-3729D01*
X-35051Y-3717D01*
X-35048Y-3707D01*
X-35047Y-3697D01*
X-35046Y-3689D01*
X-35045Y-3686D01*
Y-3684D01*
Y-3682D01*
Y-3682D01*
X-35291D01*
Y-3661D01*
X-35289Y-3642D01*
X-35287Y-3625D01*
X-35284Y-3608D01*
X-35280Y-3593D01*
X-35277Y-3580D01*
X-35272Y-3567D01*
X-35268Y-3556D01*
X-35263Y-3546D01*
X-35259Y-3537D01*
X-35255Y-3531D01*
X-35252Y-3525D01*
X-35249Y-3520D01*
X-35246Y-3517D01*
X-35245Y-3515D01*
X-35244Y-3514D01*
X-35235Y-3505D01*
X-35225Y-3496D01*
X-35215Y-3489D01*
X-35204Y-3483D01*
X-35193Y-3477D01*
X-35182Y-3472D01*
X-35172Y-3469D01*
X-35161Y-3466D01*
X-35152Y-3463D01*
X-35143Y-3462D01*
X-35135Y-3460D01*
X-35128Y-3460D01*
X-35122Y-3459D01*
X-35114D01*
X-35101Y-3460D01*
D02*
G37*
G36*
X-32121Y-5407D02*
X-32175D01*
X-32271Y-5009D01*
X-32215D01*
X-32121Y-5407D01*
D02*
G37*
G36*
X-32568D02*
X-32623D01*
X-32719Y-5009D01*
X-32663D01*
X-32568Y-5407D01*
D02*
G37*
G36*
X-32864Y-5026D02*
X-32857Y-5038D01*
X-32849Y-5049D01*
X-32841Y-5058D01*
X-32834Y-5065D01*
X-32828Y-5071D01*
X-32826Y-5073D01*
X-32824Y-5075D01*
X-32823Y-5075D01*
X-32823Y-5076D01*
X-32810Y-5085D01*
X-32799Y-5093D01*
X-32788Y-5099D01*
X-32779Y-5103D01*
X-32771Y-5106D01*
X-32766Y-5109D01*
X-32763Y-5110D01*
X-32762Y-5110D01*
X-32761Y-5111D01*
X-32761D01*
Y-5177D01*
X-32780Y-5170D01*
X-32798Y-5161D01*
X-32807Y-5157D01*
X-32814Y-5152D01*
X-32822Y-5147D01*
X-32828Y-5143D01*
X-32834Y-5139D01*
X-32840Y-5135D01*
X-32844Y-5131D01*
X-32848Y-5128D01*
X-32852Y-5125D01*
X-32854Y-5124D01*
X-32855Y-5123D01*
X-32855Y-5122D01*
Y-5400D01*
X-32929D01*
Y-5014D01*
X-32869D01*
X-32864Y-5026D01*
D02*
G37*
G36*
X-32280Y-5259D02*
Y-5323D01*
X-32438D01*
Y-5400D01*
X-32509D01*
Y-5323D01*
X-32557D01*
Y-5258D01*
X-32509D01*
Y-5014D01*
X-32447D01*
X-32280Y-5259D01*
D02*
G37*
G36*
X-34739Y-3393D02*
Y-3467D01*
X-34694D01*
Y-3546D01*
X-34739D01*
Y-3708D01*
Y-3717D01*
Y-3725D01*
Y-3733D01*
X-34740Y-3740D01*
Y-3752D01*
X-34741Y-3762D01*
X-34742Y-3769D01*
Y-3773D01*
X-34742Y-3776D01*
Y-3777D01*
X-34744Y-3785D01*
X-34746Y-3793D01*
X-34748Y-3799D01*
X-34751Y-3805D01*
X-34753Y-3809D01*
X-34754Y-3812D01*
X-34755Y-3814D01*
X-34756Y-3815D01*
X-34760Y-3820D01*
X-34765Y-3825D01*
X-34776Y-3832D01*
X-34780Y-3834D01*
X-34784Y-3836D01*
X-34787Y-3837D01*
X-34788Y-3838D01*
X-34796Y-3841D01*
X-34804Y-3843D01*
X-34812Y-3844D01*
X-34819Y-3845D01*
X-34826Y-3846D01*
X-34831Y-3847D01*
X-34836D01*
X-34851Y-3846D01*
X-34866Y-3844D01*
X-34879Y-3842D01*
X-34890Y-3839D01*
X-34900Y-3837D01*
X-34907Y-3835D01*
X-34912Y-3833D01*
X-34913Y-3833D01*
X-34913D01*
X-34905Y-3756D01*
X-34896Y-3759D01*
X-34887Y-3762D01*
X-34881Y-3763D01*
X-34875Y-3764D01*
X-34870Y-3765D01*
X-34868Y-3765D01*
X-34865D01*
X-34858Y-3765D01*
X-34853Y-3763D01*
X-34850Y-3762D01*
X-34848Y-3761D01*
X-34844Y-3756D01*
X-34842Y-3753D01*
X-34840Y-3750D01*
X-34839Y-3748D01*
Y-3747D01*
X-34839Y-3744D01*
Y-3737D01*
Y-3728D01*
X-34838Y-3719D01*
Y-3711D01*
Y-3703D01*
Y-3700D01*
Y-3698D01*
Y-3697D01*
Y-3696D01*
Y-3546D01*
X-34905D01*
Y-3467D01*
X-34838D01*
Y-3335D01*
X-34739Y-3393D01*
D02*
G37*
G36*
X-33390Y-3460D02*
X-33378Y-3461D01*
X-33365Y-3464D01*
X-33354Y-3467D01*
X-33343Y-3471D01*
X-33333Y-3475D01*
X-33324Y-3480D01*
X-33316Y-3485D01*
X-33308Y-3490D01*
X-33302Y-3495D01*
X-33296Y-3500D01*
X-33291Y-3503D01*
X-33288Y-3506D01*
X-33285Y-3509D01*
X-33283Y-3511D01*
X-33282Y-3512D01*
X-33274Y-3522D01*
X-33267Y-3533D01*
X-33260Y-3544D01*
X-33254Y-3556D01*
X-33250Y-3568D01*
X-33246Y-3580D01*
X-33240Y-3603D01*
X-33238Y-3614D01*
X-33237Y-3624D01*
X-33236Y-3633D01*
X-33235Y-3640D01*
X-33234Y-3647D01*
Y-3652D01*
Y-3655D01*
Y-3656D01*
X-33235Y-3670D01*
X-33236Y-3684D01*
X-33238Y-3697D01*
X-33240Y-3708D01*
X-33242Y-3720D01*
X-33246Y-3731D01*
X-33249Y-3740D01*
X-33253Y-3749D01*
X-33256Y-3757D01*
X-33259Y-3764D01*
X-33262Y-3770D01*
X-33265Y-3775D01*
X-33268Y-3779D01*
X-33269Y-3782D01*
X-33270Y-3783D01*
X-33271Y-3784D01*
X-33280Y-3795D01*
X-33290Y-3805D01*
X-33301Y-3813D01*
X-33313Y-3820D01*
X-33325Y-3826D01*
X-33336Y-3831D01*
X-33348Y-3836D01*
X-33360Y-3839D01*
X-33370Y-3842D01*
X-33381Y-3843D01*
X-33390Y-3844D01*
X-33399Y-3846D01*
X-33405D01*
X-33410Y-3847D01*
X-33414D01*
X-33436Y-3845D01*
X-33456Y-3842D01*
X-33473Y-3838D01*
X-33487Y-3833D01*
X-33494Y-3830D01*
X-33499Y-3827D01*
X-33504Y-3825D01*
X-33508Y-3823D01*
X-33511Y-3821D01*
X-33514Y-3820D01*
X-33515Y-3819D01*
X-33516D01*
X-33530Y-3807D01*
X-33542Y-3794D01*
X-33553Y-3780D01*
X-33561Y-3767D01*
X-33567Y-3755D01*
X-33570Y-3750D01*
X-33572Y-3745D01*
X-33573Y-3742D01*
X-33575Y-3739D01*
X-33575Y-3737D01*
Y-3736D01*
X-33478Y-3720D01*
X-33474Y-3730D01*
X-33470Y-3739D01*
X-33467Y-3745D01*
X-33462Y-3751D01*
X-33459Y-3756D01*
X-33456Y-3759D01*
X-33454Y-3760D01*
X-33453Y-3761D01*
X-33447Y-3765D01*
X-33441Y-3768D01*
X-33434Y-3771D01*
X-33428Y-3772D01*
X-33423Y-3773D01*
X-33419Y-3773D01*
X-33415D01*
X-33403Y-3773D01*
X-33392Y-3770D01*
X-33382Y-3766D01*
X-33373Y-3762D01*
X-33367Y-3757D01*
X-33362Y-3753D01*
X-33359Y-3751D01*
X-33358Y-3750D01*
X-33351Y-3740D01*
X-33345Y-3729D01*
X-33341Y-3717D01*
X-33338Y-3707D01*
X-33336Y-3697D01*
X-33336Y-3689D01*
X-33335Y-3686D01*
Y-3684D01*
Y-3682D01*
Y-3682D01*
X-33581D01*
Y-3661D01*
X-33579Y-3642D01*
X-33577Y-3625D01*
X-33574Y-3608D01*
X-33570Y-3593D01*
X-33567Y-3580D01*
X-33562Y-3567D01*
X-33558Y-3556D01*
X-33553Y-3546D01*
X-33549Y-3537D01*
X-33545Y-3531D01*
X-33541Y-3525D01*
X-33538Y-3520D01*
X-33536Y-3517D01*
X-33535Y-3515D01*
X-33534Y-3514D01*
X-33525Y-3505D01*
X-33515Y-3496D01*
X-33504Y-3489D01*
X-33494Y-3483D01*
X-33483Y-3477D01*
X-33472Y-3472D01*
X-33462Y-3469D01*
X-33451Y-3466D01*
X-33442Y-3463D01*
X-33433Y-3462D01*
X-33425Y-3460D01*
X-33418Y-3460D01*
X-33412Y-3459D01*
X-33404D01*
X-33390Y-3460D01*
D02*
G37*
G36*
X-31960Y-5014D02*
X-31950Y-5015D01*
X-31941Y-5018D01*
X-31932Y-5020D01*
X-31925Y-5023D01*
X-31917Y-5026D01*
X-31911Y-5030D01*
X-31905Y-5034D01*
X-31900Y-5038D01*
X-31895Y-5041D01*
X-31891Y-5044D01*
X-31889Y-5048D01*
X-31886Y-5050D01*
X-31884Y-5052D01*
X-31883Y-5053D01*
X-31882Y-5054D01*
X-31876Y-5063D01*
X-31870Y-5074D01*
X-31865Y-5086D01*
X-31861Y-5098D01*
X-31858Y-5111D01*
X-31854Y-5124D01*
X-31852Y-5137D01*
X-31850Y-5150D01*
X-31849Y-5162D01*
X-31848Y-5173D01*
X-31846Y-5184D01*
X-31846Y-5192D01*
X-31845Y-5200D01*
Y-5205D01*
Y-5207D01*
Y-5209D01*
Y-5210D01*
Y-5210D01*
X-31846Y-5230D01*
X-31847Y-5248D01*
X-31849Y-5266D01*
X-31851Y-5281D01*
X-31853Y-5295D01*
X-31856Y-5308D01*
X-31859Y-5319D01*
X-31863Y-5329D01*
X-31865Y-5337D01*
X-31869Y-5345D01*
X-31871Y-5351D01*
X-31874Y-5356D01*
X-31876Y-5359D01*
X-31878Y-5362D01*
X-31879Y-5364D01*
X-31879Y-5364D01*
X-31886Y-5372D01*
X-31893Y-5378D01*
X-31900Y-5384D01*
X-31908Y-5389D01*
X-31915Y-5393D01*
X-31923Y-5397D01*
X-31930Y-5399D01*
X-31937Y-5402D01*
X-31944Y-5404D01*
X-31950Y-5405D01*
X-31956Y-5406D01*
X-31960Y-5407D01*
X-31964D01*
X-31967Y-5407D01*
X-31970D01*
X-31980Y-5407D01*
X-31989Y-5406D01*
X-31998Y-5403D01*
X-32007Y-5401D01*
X-32015Y-5398D01*
X-32022Y-5395D01*
X-32028Y-5391D01*
X-32034Y-5387D01*
X-32039Y-5384D01*
X-32044Y-5380D01*
X-32048Y-5377D01*
X-32051Y-5374D01*
X-32053Y-5372D01*
X-32055Y-5369D01*
X-32056Y-5368D01*
X-32057Y-5368D01*
X-32063Y-5358D01*
X-32069Y-5347D01*
X-32075Y-5336D01*
X-32078Y-5323D01*
X-32082Y-5310D01*
X-32085Y-5297D01*
X-32088Y-5284D01*
X-32090Y-5271D01*
X-32091Y-5259D01*
X-32092Y-5248D01*
X-32093Y-5237D01*
X-32094Y-5229D01*
X-32095Y-5221D01*
Y-5216D01*
Y-5214D01*
Y-5212D01*
Y-5211D01*
Y-5211D01*
X-32094Y-5191D01*
X-32093Y-5172D01*
X-32091Y-5156D01*
X-32088Y-5140D01*
X-32086Y-5126D01*
X-32083Y-5113D01*
X-32079Y-5101D01*
X-32076Y-5091D01*
X-32072Y-5082D01*
X-32069Y-5075D01*
X-32066Y-5068D01*
X-32063Y-5063D01*
X-32060Y-5059D01*
X-32058Y-5056D01*
X-32057Y-5054D01*
X-32057Y-5054D01*
X-32051Y-5046D01*
X-32044Y-5040D01*
X-32037Y-5035D01*
X-32030Y-5030D01*
X-32022Y-5026D01*
X-32015Y-5024D01*
X-32008Y-5021D01*
X-32001Y-5019D01*
X-31995Y-5017D01*
X-31989Y-5016D01*
X-31983Y-5015D01*
X-31979Y-5014D01*
X-31975Y-5014D01*
X-31970D01*
X-31960Y-5014D01*
D02*
G37*
G36*
X-33847Y-3460D02*
X-33835Y-3461D01*
X-33824Y-3464D01*
X-33813Y-3468D01*
X-33794Y-3477D01*
X-33785Y-3483D01*
X-33777Y-3489D01*
X-33769Y-3494D01*
X-33763Y-3500D01*
X-33758Y-3504D01*
X-33753Y-3509D01*
X-33749Y-3513D01*
X-33746Y-3516D01*
X-33745Y-3517D01*
X-33744Y-3518D01*
Y-3467D01*
X-33654D01*
Y-3839D01*
X-33752D01*
Y-3659D01*
Y-3640D01*
X-33754Y-3624D01*
X-33755Y-3611D01*
X-33756Y-3600D01*
X-33758Y-3593D01*
X-33758Y-3587D01*
X-33760Y-3583D01*
Y-3583D01*
X-33763Y-3574D01*
X-33767Y-3567D01*
X-33772Y-3561D01*
X-33776Y-3556D01*
X-33780Y-3552D01*
X-33783Y-3549D01*
X-33785Y-3548D01*
X-33786Y-3547D01*
X-33793Y-3543D01*
X-33800Y-3540D01*
X-33806Y-3537D01*
X-33813Y-3536D01*
X-33818Y-3535D01*
X-33823Y-3534D01*
X-33833D01*
X-33839Y-3536D01*
X-33844Y-3537D01*
X-33849Y-3538D01*
X-33851Y-3540D01*
X-33854Y-3541D01*
X-33855Y-3542D01*
X-33856Y-3543D01*
X-33860Y-3546D01*
X-33863Y-3549D01*
X-33869Y-3557D01*
X-33870Y-3560D01*
X-33871Y-3563D01*
X-33872Y-3566D01*
Y-3566D01*
X-33873Y-3569D01*
X-33874Y-3574D01*
X-33876Y-3584D01*
X-33877Y-3595D01*
X-33877Y-3607D01*
X-33878Y-3618D01*
Y-3627D01*
Y-3631D01*
Y-3634D01*
Y-3635D01*
Y-3636D01*
Y-3839D01*
X-33977D01*
Y-3661D01*
Y-3642D01*
X-33978Y-3627D01*
X-33979Y-3614D01*
X-33980Y-3603D01*
X-33982Y-3594D01*
X-33982Y-3588D01*
X-33984Y-3586D01*
Y-3584D01*
X-33988Y-3575D01*
X-33991Y-3568D01*
X-33996Y-3562D01*
X-34000Y-3557D01*
X-34004Y-3552D01*
X-34007Y-3549D01*
X-34009Y-3548D01*
X-34010Y-3547D01*
X-34017Y-3543D01*
X-34024Y-3540D01*
X-34031Y-3537D01*
X-34036Y-3536D01*
X-34042Y-3535D01*
X-34045Y-3534D01*
X-34049D01*
X-34059Y-3535D01*
X-34068Y-3537D01*
X-34075Y-3541D01*
X-34081Y-3545D01*
X-34085Y-3549D01*
X-34088Y-3552D01*
X-34091Y-3555D01*
X-34091Y-3556D01*
X-34093Y-3560D01*
X-34095Y-3563D01*
X-34097Y-3574D01*
X-34099Y-3586D01*
X-34100Y-3597D01*
X-34101Y-3608D01*
X-34102Y-3618D01*
Y-3622D01*
Y-3625D01*
Y-3626D01*
Y-3627D01*
Y-3839D01*
X-34200D01*
Y-3602D01*
X-34199Y-3583D01*
X-34199Y-3567D01*
X-34197Y-3554D01*
X-34195Y-3543D01*
X-34193Y-3535D01*
X-34191Y-3529D01*
X-34190Y-3526D01*
X-34190Y-3525D01*
X-34184Y-3513D01*
X-34177Y-3503D01*
X-34170Y-3495D01*
X-34163Y-3488D01*
X-34156Y-3483D01*
X-34151Y-3479D01*
X-34148Y-3477D01*
X-34147Y-3476D01*
X-34136Y-3470D01*
X-34124Y-3466D01*
X-34113Y-3463D01*
X-34102Y-3461D01*
X-34092Y-3460D01*
X-34085Y-3459D01*
X-34078D01*
X-34066Y-3460D01*
X-34055Y-3461D01*
X-34045Y-3463D01*
X-34036Y-3466D01*
X-34028Y-3469D01*
X-34022Y-3472D01*
X-34019Y-3473D01*
X-34017Y-3474D01*
X-34007Y-3480D01*
X-33997Y-3487D01*
X-33988Y-3494D01*
X-33980Y-3502D01*
X-33974Y-3509D01*
X-33969Y-3514D01*
X-33966Y-3517D01*
X-33965Y-3519D01*
X-33958Y-3509D01*
X-33951Y-3499D01*
X-33943Y-3492D01*
X-33937Y-3485D01*
X-33931Y-3480D01*
X-33925Y-3477D01*
X-33923Y-3474D01*
X-33921Y-3474D01*
X-33911Y-3469D01*
X-33900Y-3465D01*
X-33890Y-3463D01*
X-33880Y-3460D01*
X-33872Y-3460D01*
X-33866Y-3459D01*
X-33860D01*
X-33847Y-3460D01*
D02*
G37*
G36*
X-12880Y386D02*
X-12871Y385D01*
X-12861Y382D01*
X-12853Y380D01*
X-12845Y377D01*
X-12838Y374D01*
X-12832Y370D01*
X-12826Y366D01*
X-12821Y362D01*
X-12816Y359D01*
X-12812Y356D01*
X-12809Y352D01*
X-12806Y350D01*
X-12805Y348D01*
X-12804Y347D01*
X-12803Y346D01*
X-12796Y337D01*
X-12791Y326D01*
X-12786Y314D01*
X-12781Y302D01*
X-12778Y289D01*
X-12775Y276D01*
X-12773Y263D01*
X-12770Y250D01*
X-12769Y238D01*
X-12768Y227D01*
X-12767Y216D01*
X-12766Y208D01*
X-12766Y200D01*
Y195D01*
Y193D01*
Y191D01*
Y190D01*
Y190D01*
X-12766Y170D01*
X-12768Y152D01*
X-12769Y134D01*
X-12771Y119D01*
X-12774Y105D01*
X-12776Y92D01*
X-12780Y81D01*
X-12783Y71D01*
X-12786Y63D01*
X-12789Y55D01*
X-12792Y49D01*
X-12795Y44D01*
X-12796Y41D01*
X-12798Y38D01*
X-12799Y36D01*
X-12800Y36D01*
X-12806Y28D01*
X-12814Y22D01*
X-12821Y16D01*
X-12829Y11D01*
X-12836Y7D01*
X-12844Y3D01*
X-12851Y1D01*
X-12858Y-2D01*
X-12865Y-4D01*
X-12871Y-5D01*
X-12876Y-6D01*
X-12881Y-7D01*
X-12885D01*
X-12888Y-7D01*
X-12890D01*
X-12900Y-7D01*
X-12910Y-6D01*
X-12919Y-3D01*
X-12927Y-1D01*
X-12935Y2D01*
X-12942Y5D01*
X-12949Y9D01*
X-12955Y13D01*
X-12960Y16D01*
X-12965Y20D01*
X-12969Y23D01*
X-12972Y26D01*
X-12974Y28D01*
X-12976Y31D01*
X-12977Y32D01*
X-12977Y32D01*
X-12984Y42D01*
X-12990Y53D01*
X-12995Y64D01*
X-12999Y77D01*
X-13003Y90D01*
X-13006Y103D01*
X-13008Y116D01*
X-13011Y129D01*
X-13012Y141D01*
X-13013Y152D01*
X-13014Y163D01*
X-13015Y171D01*
X-13015Y179D01*
Y184D01*
Y186D01*
Y188D01*
Y189D01*
Y189D01*
X-13015Y209D01*
X-13013Y228D01*
X-13012Y244D01*
X-13009Y260D01*
X-13006Y274D01*
X-13003Y287D01*
X-13000Y299D01*
X-12996Y309D01*
X-12993Y318D01*
X-12990Y325D01*
X-12986Y332D01*
X-12983Y337D01*
X-12981Y341D01*
X-12979Y344D01*
X-12978Y346D01*
X-12977Y346D01*
X-12971Y354D01*
X-12965Y360D01*
X-12957Y365D01*
X-12950Y370D01*
X-12943Y374D01*
X-12936Y376D01*
X-12929Y379D01*
X-12922Y381D01*
X-12915Y383D01*
X-12910Y384D01*
X-12904Y385D01*
X-12900Y386D01*
X-12896Y386D01*
X-12890D01*
X-12880Y386D01*
D02*
G37*
G36*
X-10941D02*
X-10932Y385D01*
X-10922Y382D01*
X-10914Y380D01*
X-10906Y377D01*
X-10899Y374D01*
X-10893Y370D01*
X-10887Y366D01*
X-10882Y362D01*
X-10877Y359D01*
X-10873Y356D01*
X-10870Y352D01*
X-10867Y350D01*
X-10866Y348D01*
X-10865Y347D01*
X-10864Y346D01*
X-10857Y337D01*
X-10852Y326D01*
X-10847Y314D01*
X-10842Y302D01*
X-10839Y289D01*
X-10836Y276D01*
X-10833Y263D01*
X-10831Y250D01*
X-10830Y238D01*
X-10829Y227D01*
X-10828Y216D01*
X-10827Y208D01*
X-10827Y200D01*
Y195D01*
Y193D01*
Y191D01*
Y190D01*
Y190D01*
X-10827Y170D01*
X-10828Y152D01*
X-10830Y134D01*
X-10832Y119D01*
X-10835Y105D01*
X-10837Y92D01*
X-10841Y81D01*
X-10844Y71D01*
X-10847Y63D01*
X-10850Y55D01*
X-10853Y49D01*
X-10856Y44D01*
X-10857Y41D01*
X-10859Y38D01*
X-10860Y36D01*
X-10861Y36D01*
X-10867Y28D01*
X-10875Y22D01*
X-10882Y16D01*
X-10889Y11D01*
X-10897Y7D01*
X-10904Y3D01*
X-10912Y1D01*
X-10919Y-2D01*
X-10926Y-4D01*
X-10932Y-5D01*
X-10937Y-6D01*
X-10942Y-7D01*
X-10946D01*
X-10949Y-7D01*
X-10951D01*
X-10961Y-7D01*
X-10971Y-6D01*
X-10980Y-3D01*
X-10988Y-1D01*
X-10996Y2D01*
X-11003Y5D01*
X-11009Y9D01*
X-11015Y13D01*
X-11020Y16D01*
X-11025Y20D01*
X-11029Y23D01*
X-11033Y26D01*
X-11035Y28D01*
X-11037Y31D01*
X-11038Y32D01*
X-11038Y32D01*
X-11045Y42D01*
X-11050Y53D01*
X-11056Y64D01*
X-11060Y77D01*
X-11064Y90D01*
X-11067Y103D01*
X-11069Y116D01*
X-11072Y129D01*
X-11073Y141D01*
X-11074Y152D01*
X-11075Y163D01*
X-11075Y171D01*
X-11076Y179D01*
Y184D01*
Y186D01*
Y188D01*
Y189D01*
Y189D01*
X-11075Y209D01*
X-11074Y228D01*
X-11073Y244D01*
X-11070Y260D01*
X-11067Y274D01*
X-11064Y287D01*
X-11060Y299D01*
X-11057Y309D01*
X-11054Y318D01*
X-11050Y325D01*
X-11047Y332D01*
X-11044Y337D01*
X-11042Y341D01*
X-11040Y344D01*
X-11039Y346D01*
X-11038Y346D01*
X-11032Y354D01*
X-11025Y360D01*
X-11018Y365D01*
X-11011Y370D01*
X-11004Y374D01*
X-10997Y376D01*
X-10990Y379D01*
X-10983Y381D01*
X-10976Y383D01*
X-10971Y384D01*
X-10965Y385D01*
X-10961Y386D01*
X-10957Y386D01*
X-10951D01*
X-10941Y386D01*
D02*
G37*
G36*
X-11323Y246D02*
X-11316Y253D01*
X-11310Y259D01*
X-11303Y264D01*
X-11296Y269D01*
X-11289Y272D01*
X-11282Y275D01*
X-11276Y278D01*
X-11270Y280D01*
X-11264Y281D01*
X-11259Y282D01*
X-11254Y284D01*
X-11250Y284D01*
X-11246Y285D01*
X-11242D01*
X-11232Y284D01*
X-11224Y283D01*
X-11215Y281D01*
X-11207Y279D01*
X-11193Y273D01*
X-11186Y270D01*
X-11181Y266D01*
X-11175Y263D01*
X-11171Y259D01*
X-11167Y256D01*
X-11164Y254D01*
X-11161Y251D01*
X-11159Y249D01*
X-11158Y248D01*
X-11158Y248D01*
X-11152Y240D01*
X-11147Y233D01*
X-11143Y224D01*
X-11139Y215D01*
X-11135Y206D01*
X-11133Y198D01*
X-11129Y180D01*
X-11128Y172D01*
X-11126Y164D01*
X-11126Y158D01*
X-11125Y152D01*
X-11125Y147D01*
Y143D01*
Y140D01*
Y140D01*
X-11125Y127D01*
X-11126Y115D01*
X-11128Y104D01*
X-11130Y94D01*
X-11133Y84D01*
X-11135Y75D01*
X-11139Y68D01*
X-11142Y60D01*
X-11145Y54D01*
X-11148Y48D01*
X-11151Y43D01*
X-11154Y39D01*
X-11155Y36D01*
X-11157Y34D01*
X-11158Y33D01*
X-11159Y32D01*
X-11165Y26D01*
X-11172Y19D01*
X-11179Y14D01*
X-11186Y10D01*
X-11193Y6D01*
X-11200Y3D01*
X-11206Y1D01*
X-11213Y-1D01*
X-11219Y-3D01*
X-11224Y-4D01*
X-11229Y-5D01*
X-11233Y-6D01*
X-11236Y-6D01*
X-11241D01*
X-11250Y-6D01*
X-11258Y-4D01*
X-11266Y-3D01*
X-11274Y-1D01*
X-11279Y2D01*
X-11284Y3D01*
X-11287Y4D01*
X-11288Y5D01*
X-11296Y10D01*
X-11304Y16D01*
X-11311Y22D01*
X-11317Y27D01*
X-11322Y32D01*
X-11326Y37D01*
X-11328Y39D01*
X-11328Y41D01*
Y0D01*
X-11397D01*
Y384D01*
X-11323D01*
Y246D01*
D02*
G37*
G36*
X-33862Y-4592D02*
X-33935D01*
Y-4524D01*
X-33862D01*
Y-4592D01*
D02*
G37*
G36*
X-34151Y-4624D02*
X-34142Y-4625D01*
X-34134Y-4627D01*
X-34125Y-4630D01*
X-34111Y-4637D01*
X-34104Y-4641D01*
X-34098Y-4645D01*
X-34093Y-4649D01*
X-34088Y-4654D01*
X-34084Y-4657D01*
X-34080Y-4660D01*
X-34078Y-4664D01*
X-34075Y-4666D01*
X-34074Y-4667D01*
X-34074Y-4668D01*
Y-4629D01*
X-34006D01*
Y-4908D01*
X-34080D01*
Y-4773D01*
Y-4759D01*
X-34081Y-4747D01*
X-34081Y-4737D01*
X-34083Y-4729D01*
X-34084Y-4724D01*
X-34084Y-4719D01*
X-34085Y-4716D01*
Y-4716D01*
X-34088Y-4710D01*
X-34091Y-4704D01*
X-34094Y-4700D01*
X-34097Y-4696D01*
X-34100Y-4693D01*
X-34102Y-4691D01*
X-34104Y-4690D01*
X-34105Y-4689D01*
X-34110Y-4686D01*
X-34115Y-4684D01*
X-34120Y-4682D01*
X-34125Y-4681D01*
X-34129Y-4680D01*
X-34132Y-4680D01*
X-34140D01*
X-34145Y-4681D01*
X-34149Y-4681D01*
X-34152Y-4683D01*
X-34154Y-4684D01*
X-34156Y-4685D01*
X-34157Y-4685D01*
X-34157Y-4686D01*
X-34160Y-4688D01*
X-34163Y-4691D01*
X-34167Y-4697D01*
X-34168Y-4699D01*
X-34169Y-4701D01*
X-34170Y-4703D01*
Y-4704D01*
X-34170Y-4706D01*
X-34171Y-4709D01*
X-34172Y-4717D01*
X-34173Y-4725D01*
X-34174Y-4734D01*
X-34174Y-4742D01*
Y-4749D01*
Y-4752D01*
Y-4754D01*
Y-4755D01*
Y-4756D01*
Y-4908D01*
X-34248D01*
Y-4775D01*
Y-4761D01*
X-34249Y-4749D01*
X-34250Y-4739D01*
X-34251Y-4731D01*
X-34252Y-4725D01*
X-34252Y-4720D01*
X-34253Y-4718D01*
Y-4717D01*
X-34256Y-4710D01*
X-34259Y-4705D01*
X-34262Y-4700D01*
X-34266Y-4696D01*
X-34268Y-4693D01*
X-34271Y-4691D01*
X-34272Y-4690D01*
X-34273Y-4689D01*
X-34278Y-4686D01*
X-34283Y-4684D01*
X-34288Y-4682D01*
X-34293Y-4681D01*
X-34297Y-4680D01*
X-34300Y-4680D01*
X-34302D01*
X-34310Y-4680D01*
X-34316Y-4682D01*
X-34322Y-4685D01*
X-34326Y-4688D01*
X-34329Y-4691D01*
X-34332Y-4693D01*
X-34333Y-4695D01*
X-34334Y-4696D01*
X-34335Y-4699D01*
X-34337Y-4701D01*
X-34338Y-4709D01*
X-34340Y-4718D01*
X-34341Y-4727D01*
X-34341Y-4735D01*
X-34342Y-4742D01*
Y-4745D01*
Y-4747D01*
Y-4749D01*
Y-4749D01*
Y-4908D01*
X-34416D01*
Y-4730D01*
X-34415Y-4716D01*
X-34414Y-4704D01*
X-34413Y-4694D01*
X-34412Y-4686D01*
X-34410Y-4680D01*
X-34409Y-4676D01*
X-34408Y-4673D01*
X-34408Y-4673D01*
X-34403Y-4664D01*
X-34398Y-4656D01*
X-34393Y-4650D01*
X-34388Y-4645D01*
X-34383Y-4641D01*
X-34379Y-4638D01*
X-34377Y-4636D01*
X-34376Y-4636D01*
X-34367Y-4631D01*
X-34358Y-4629D01*
X-34350Y-4626D01*
X-34342Y-4625D01*
X-34334Y-4624D01*
X-34329Y-4623D01*
X-34324D01*
X-34315Y-4624D01*
X-34307Y-4625D01*
X-34299Y-4626D01*
X-34292Y-4629D01*
X-34287Y-4631D01*
X-34282Y-4633D01*
X-34280Y-4634D01*
X-34278Y-4634D01*
X-34271Y-4639D01*
X-34263Y-4644D01*
X-34257Y-4650D01*
X-34251Y-4655D01*
X-34246Y-4660D01*
X-34242Y-4664D01*
X-34240Y-4667D01*
X-34239Y-4668D01*
X-34234Y-4660D01*
X-34228Y-4653D01*
X-34223Y-4648D01*
X-34218Y-4643D01*
X-34213Y-4639D01*
X-34210Y-4636D01*
X-34207Y-4635D01*
X-34206Y-4634D01*
X-34199Y-4630D01*
X-34191Y-4628D01*
X-34183Y-4626D01*
X-34176Y-4624D01*
X-34170Y-4624D01*
X-34165Y-4623D01*
X-34160D01*
X-34151Y-4624D01*
D02*
G37*
G36*
X-32429Y-4908D02*
X-32503D01*
Y-4769D01*
X-32504Y-4756D01*
X-32504Y-4746D01*
X-32505Y-4736D01*
X-32506Y-4729D01*
X-32507Y-4723D01*
X-32509Y-4719D01*
X-32510Y-4716D01*
Y-4716D01*
X-32512Y-4710D01*
X-32516Y-4704D01*
X-32519Y-4700D01*
X-32523Y-4696D01*
X-32526Y-4693D01*
X-32529Y-4691D01*
X-32530Y-4690D01*
X-32531Y-4689D01*
X-32536Y-4686D01*
X-32542Y-4684D01*
X-32547Y-4682D01*
X-32552Y-4681D01*
X-32557Y-4680D01*
X-32560Y-4680D01*
X-32563D01*
X-32569Y-4680D01*
X-32575Y-4681D01*
X-32579Y-4682D01*
X-32583Y-4683D01*
X-32586Y-4685D01*
X-32588Y-4686D01*
X-32590Y-4686D01*
X-32590Y-4687D01*
X-32594Y-4690D01*
X-32597Y-4693D01*
X-32602Y-4699D01*
X-32603Y-4702D01*
X-32604Y-4704D01*
X-32605Y-4705D01*
Y-4706D01*
X-32606Y-4709D01*
X-32607Y-4711D01*
X-32608Y-4719D01*
X-32608Y-4729D01*
X-32609Y-4738D01*
X-32610Y-4747D01*
Y-4751D01*
Y-4754D01*
Y-4757D01*
Y-4760D01*
Y-4761D01*
Y-4761D01*
Y-4908D01*
X-32683D01*
Y-4745D01*
Y-4731D01*
X-32683Y-4720D01*
X-32682Y-4711D01*
X-32682Y-4703D01*
X-32681Y-4698D01*
X-32680Y-4693D01*
X-32679Y-4690D01*
Y-4690D01*
X-32678Y-4683D01*
X-32676Y-4677D01*
X-32673Y-4671D01*
X-32671Y-4666D01*
X-32668Y-4663D01*
X-32667Y-4660D01*
X-32666Y-4658D01*
X-32665Y-4657D01*
X-32661Y-4652D01*
X-32656Y-4647D01*
X-32651Y-4643D01*
X-32646Y-4640D01*
X-32641Y-4637D01*
X-32637Y-4635D01*
X-32635Y-4634D01*
X-32634Y-4633D01*
X-32626Y-4630D01*
X-32618Y-4628D01*
X-32611Y-4625D01*
X-32603Y-4624D01*
X-32597Y-4624D01*
X-32592Y-4623D01*
X-32588D01*
X-32579Y-4624D01*
X-32570Y-4625D01*
X-32562Y-4627D01*
X-32554Y-4630D01*
X-32540Y-4636D01*
X-32533Y-4640D01*
X-32527Y-4644D01*
X-32522Y-4649D01*
X-32517Y-4653D01*
X-32513Y-4656D01*
X-32509Y-4659D01*
X-32507Y-4662D01*
X-32505Y-4664D01*
X-32504Y-4665D01*
X-32503Y-4666D01*
Y-4524D01*
X-32429D01*
Y-4908D01*
D02*
G37*
G36*
X-11756Y1375D02*
X-11738Y1373D01*
X-11730Y1371D01*
X-11723Y1369D01*
X-11715Y1368D01*
X-11709Y1366D01*
X-11704Y1364D01*
X-11698Y1362D01*
X-11694Y1361D01*
X-11690Y1359D01*
X-11688Y1358D01*
X-11685Y1357D01*
X-11684Y1356D01*
X-11684D01*
X-11666Y1346D01*
X-11659Y1340D01*
X-11652Y1334D01*
X-11645Y1328D01*
X-11639Y1322D01*
X-11634Y1316D01*
X-11629Y1311D01*
X-11625Y1305D01*
X-11621Y1300D01*
X-11618Y1296D01*
X-11615Y1292D01*
X-11613Y1288D01*
X-11612Y1286D01*
X-11611Y1285D01*
X-11610Y1284D01*
X-11606Y1275D01*
X-11602Y1266D01*
X-11596Y1248D01*
X-11592Y1230D01*
X-11589Y1213D01*
X-11588Y1206D01*
X-11587Y1199D01*
X-11586Y1193D01*
Y1187D01*
X-11585Y1183D01*
Y1180D01*
Y1178D01*
Y1177D01*
X-11587Y1157D01*
X-11589Y1138D01*
X-11593Y1121D01*
X-11594Y1112D01*
X-11597Y1105D01*
X-11599Y1099D01*
X-11600Y1092D01*
X-11603Y1087D01*
X-11604Y1083D01*
X-11605Y1080D01*
X-11607Y1077D01*
X-11608Y1075D01*
Y1075D01*
X-11617Y1058D01*
X-11628Y1044D01*
X-11639Y1031D01*
X-11650Y1021D01*
X-11655Y1016D01*
X-11660Y1013D01*
X-11664Y1009D01*
X-11668Y1007D01*
X-11670Y1005D01*
X-11673Y1003D01*
X-11674Y1003D01*
X-11675Y1002D01*
X-11684Y998D01*
X-11692Y994D01*
X-11710Y988D01*
X-11728Y983D01*
X-11744Y980D01*
X-11752Y979D01*
X-11759Y978D01*
X-11765Y978D01*
X-11770D01*
X-11774Y977D01*
X-11780D01*
X-11798Y978D01*
X-11815Y980D01*
X-11831Y983D01*
X-11845Y986D01*
X-11851Y988D01*
X-11856Y989D01*
X-11861Y991D01*
X-11866Y992D01*
X-11869Y993D01*
X-11871Y994D01*
X-11873Y995D01*
X-11874D01*
X-11890Y1001D01*
X-11904Y1009D01*
X-11916Y1016D01*
X-11927Y1022D01*
X-11935Y1028D01*
X-11937Y1030D01*
X-11940Y1032D01*
X-11942Y1034D01*
X-11943Y1035D01*
X-11945Y1036D01*
Y1190D01*
X-11777D01*
Y1125D01*
X-11866D01*
Y1076D01*
X-11860Y1071D01*
X-11852Y1066D01*
X-11845Y1063D01*
X-11839Y1059D01*
X-11833Y1056D01*
X-11828Y1054D01*
X-11825Y1053D01*
X-11825Y1053D01*
X-11824D01*
X-11815Y1049D01*
X-11806Y1047D01*
X-11798Y1045D01*
X-11791Y1044D01*
X-11784Y1044D01*
X-11780Y1043D01*
X-11775D01*
X-11766Y1044D01*
X-11758Y1045D01*
X-11750Y1046D01*
X-11742Y1049D01*
X-11728Y1054D01*
X-11723Y1057D01*
X-11717Y1060D01*
X-11712Y1064D01*
X-11708Y1066D01*
X-11704Y1070D01*
X-11701Y1072D01*
X-11699Y1074D01*
X-11697Y1076D01*
X-11696Y1077D01*
X-11695Y1077D01*
X-11690Y1084D01*
X-11685Y1092D01*
X-11681Y1100D01*
X-11678Y1108D01*
X-11673Y1125D01*
X-11669Y1142D01*
X-11668Y1150D01*
X-11667Y1157D01*
X-11666Y1164D01*
X-11666Y1170D01*
X-11665Y1174D01*
Y1178D01*
Y1180D01*
Y1181D01*
X-11666Y1192D01*
X-11666Y1203D01*
X-11668Y1213D01*
X-11670Y1223D01*
X-11672Y1231D01*
X-11675Y1239D01*
X-11678Y1246D01*
X-11680Y1253D01*
X-11683Y1258D01*
X-11685Y1263D01*
X-11688Y1267D01*
X-11690Y1271D01*
X-11692Y1273D01*
X-11694Y1275D01*
X-11694Y1276D01*
X-11695Y1277D01*
X-11701Y1282D01*
X-11707Y1288D01*
X-11714Y1292D01*
X-11720Y1296D01*
X-11727Y1299D01*
X-11734Y1302D01*
X-11746Y1306D01*
X-11753Y1307D01*
X-11758Y1308D01*
X-11763Y1308D01*
X-11767Y1309D01*
X-11771Y1309D01*
X-11776D01*
X-11788Y1309D01*
X-11799Y1307D01*
X-11808Y1304D01*
X-11816Y1301D01*
X-11822Y1298D01*
X-11827Y1296D01*
X-11830Y1293D01*
X-11831Y1293D01*
X-11839Y1286D01*
X-11846Y1279D01*
X-11851Y1272D01*
X-11855Y1265D01*
X-11859Y1258D01*
X-11861Y1253D01*
X-11862Y1250D01*
X-11862Y1249D01*
Y1248D01*
X-11940Y1263D01*
X-11937Y1272D01*
X-11934Y1282D01*
X-11931Y1290D01*
X-11926Y1298D01*
X-11922Y1306D01*
X-11918Y1312D01*
X-11913Y1318D01*
X-11909Y1324D01*
X-11905Y1329D01*
X-11901Y1333D01*
X-11897Y1337D01*
X-11894Y1340D01*
X-11891Y1342D01*
X-11889Y1344D01*
X-11888Y1345D01*
X-11887Y1346D01*
X-11880Y1351D01*
X-11871Y1356D01*
X-11862Y1359D01*
X-11853Y1363D01*
X-11835Y1368D01*
X-11817Y1372D01*
X-11809Y1373D01*
X-11801Y1374D01*
X-11794Y1374D01*
X-11787Y1375D01*
X-11782Y1376D01*
X-11776D01*
X-11756Y1375D01*
D02*
G37*
G36*
X-13241Y391D02*
X-13226Y389D01*
X-13213Y387D01*
X-13199Y384D01*
X-13188Y380D01*
X-13177Y376D01*
X-13167Y371D01*
X-13157Y366D01*
X-13149Y362D01*
X-13142Y357D01*
X-13136Y353D01*
X-13131Y349D01*
X-13127Y346D01*
X-13124Y344D01*
X-13123Y342D01*
X-13122Y341D01*
X-13114Y332D01*
X-13106Y322D01*
X-13099Y312D01*
X-13094Y301D01*
X-13090Y291D01*
X-13086Y281D01*
X-13082Y271D01*
X-13080Y262D01*
X-13077Y253D01*
X-13076Y245D01*
X-13075Y238D01*
X-13074Y231D01*
Y226D01*
X-13073Y223D01*
Y220D01*
Y219D01*
X-13074Y204D01*
X-13076Y189D01*
X-13080Y174D01*
X-13084Y160D01*
X-13090Y147D01*
X-13095Y134D01*
X-13101Y122D01*
X-13108Y111D01*
X-13114Y101D01*
X-13120Y92D01*
X-13126Y84D01*
X-13131Y78D01*
X-13136Y72D01*
X-13139Y68D01*
X-13141Y66D01*
X-13142Y65D01*
X-13067D01*
Y0D01*
X-13243D01*
Y62D01*
X-13228Y69D01*
X-13214Y77D01*
X-13202Y86D01*
X-13193Y94D01*
X-13185Y103D01*
X-13180Y109D01*
X-13178Y112D01*
X-13177Y113D01*
X-13176Y114D01*
X-13176Y115D01*
X-13168Y129D01*
X-13163Y144D01*
X-13159Y159D01*
X-13156Y172D01*
X-13155Y178D01*
X-13154Y184D01*
X-13154Y189D01*
Y193D01*
X-13153Y196D01*
Y199D01*
Y200D01*
Y201D01*
X-13154Y210D01*
X-13154Y219D01*
X-13157Y236D01*
X-13162Y250D01*
X-13164Y257D01*
X-13167Y263D01*
X-13169Y269D01*
X-13171Y274D01*
X-13173Y278D01*
X-13176Y281D01*
X-13177Y284D01*
X-13178Y286D01*
X-13179Y287D01*
Y288D01*
X-13184Y295D01*
X-13190Y300D01*
X-13196Y305D01*
X-13203Y310D01*
X-13209Y313D01*
X-13215Y316D01*
X-13228Y321D01*
X-13239Y323D01*
X-13244Y324D01*
X-13248Y325D01*
X-13252Y325D01*
X-13257D01*
X-13266Y325D01*
X-13274Y324D01*
X-13283Y322D01*
X-13290Y319D01*
X-13297Y316D01*
X-13303Y314D01*
X-13309Y310D01*
X-13314Y306D01*
X-13319Y303D01*
X-13323Y300D01*
X-13326Y296D01*
X-13329Y294D01*
X-13331Y291D01*
X-13333Y289D01*
X-13333Y288D01*
X-13334Y287D01*
X-13338Y280D01*
X-13343Y273D01*
X-13349Y258D01*
X-13354Y244D01*
X-13356Y230D01*
X-13358Y224D01*
X-13359Y219D01*
X-13359Y214D01*
Y209D01*
X-13360Y206D01*
Y203D01*
Y201D01*
Y201D01*
X-13359Y183D01*
X-13356Y167D01*
X-13353Y153D01*
X-13350Y146D01*
X-13349Y140D01*
X-13346Y135D01*
X-13344Y130D01*
X-13343Y125D01*
X-13340Y122D01*
X-13339Y119D01*
X-13338Y117D01*
X-13337Y116D01*
Y115D01*
X-13328Y103D01*
X-13317Y92D01*
X-13306Y82D01*
X-13295Y75D01*
X-13285Y69D01*
X-13282Y67D01*
X-13278Y65D01*
X-13275Y64D01*
X-13273Y63D01*
X-13271Y62D01*
X-13270D01*
Y0D01*
X-13446D01*
Y65D01*
X-13371D01*
X-13383Y78D01*
X-13394Y92D01*
X-13403Y106D01*
X-13411Y119D01*
X-13418Y133D01*
X-13423Y145D01*
X-13427Y158D01*
X-13431Y169D01*
X-13434Y180D01*
X-13436Y189D01*
X-13437Y198D01*
X-13439Y205D01*
X-13439Y211D01*
X-13440Y215D01*
Y218D01*
Y219D01*
X-13439Y233D01*
X-13437Y245D01*
X-13435Y258D01*
X-13432Y269D01*
X-13428Y280D01*
X-13424Y290D01*
X-13420Y300D01*
X-13415Y308D01*
X-13410Y316D01*
X-13406Y322D01*
X-13402Y328D01*
X-13398Y333D01*
X-13395Y337D01*
X-13393Y340D01*
X-13391Y341D01*
X-13390Y342D01*
X-13381Y351D01*
X-13370Y358D01*
X-13360Y365D01*
X-13349Y370D01*
X-13338Y375D01*
X-13326Y379D01*
X-13315Y382D01*
X-13305Y385D01*
X-13295Y387D01*
X-13286Y388D01*
X-13278Y390D01*
X-13270Y391D01*
X-13265D01*
X-13260Y391D01*
X-13257D01*
X-13241Y391D01*
D02*
G37*
G36*
X-13268Y1375D02*
X-13253Y1373D01*
X-13240Y1371D01*
X-13229Y1369D01*
X-13224Y1367D01*
X-13220Y1366D01*
X-13217Y1365D01*
X-13213Y1364D01*
X-13211Y1363D01*
X-13209Y1362D01*
X-13208Y1362D01*
X-13208D01*
X-13197Y1356D01*
X-13187Y1350D01*
X-13179Y1343D01*
X-13172Y1337D01*
X-13167Y1332D01*
X-13163Y1327D01*
X-13161Y1324D01*
X-13160Y1323D01*
Y1323D01*
X-13154Y1313D01*
X-13151Y1303D01*
X-13148Y1294D01*
X-13146Y1286D01*
X-13145Y1278D01*
X-13144Y1273D01*
Y1271D01*
Y1269D01*
Y1268D01*
Y1268D01*
X-13144Y1260D01*
X-13146Y1251D01*
X-13147Y1244D01*
X-13149Y1237D01*
X-13155Y1223D01*
X-13162Y1212D01*
X-13164Y1207D01*
X-13168Y1203D01*
X-13171Y1199D01*
X-13173Y1196D01*
X-13176Y1193D01*
X-13177Y1192D01*
X-13178Y1191D01*
X-13179Y1190D01*
X-13184Y1186D01*
X-13190Y1182D01*
X-13196Y1178D01*
X-13203Y1175D01*
X-13217Y1169D01*
X-13232Y1163D01*
X-13239Y1161D01*
X-13245Y1159D01*
X-13251Y1157D01*
X-13256Y1155D01*
X-13260Y1154D01*
X-13263Y1153D01*
X-13265Y1152D01*
X-13266D01*
X-13275Y1150D01*
X-13283Y1148D01*
X-13290Y1146D01*
X-13297Y1145D01*
X-13302Y1143D01*
X-13307Y1142D01*
X-13312Y1140D01*
X-13315Y1139D01*
X-13319Y1139D01*
X-13321Y1137D01*
X-13325Y1136D01*
X-13328Y1135D01*
X-13328D01*
X-13335Y1132D01*
X-13341Y1130D01*
X-13346Y1127D01*
X-13350Y1124D01*
X-13353Y1122D01*
X-13354Y1120D01*
X-13355Y1119D01*
X-13356Y1119D01*
X-13359Y1115D01*
X-13361Y1111D01*
X-13362Y1107D01*
X-13363Y1104D01*
X-13364Y1100D01*
X-13364Y1097D01*
Y1096D01*
Y1095D01*
X-13364Y1087D01*
X-13361Y1081D01*
X-13358Y1074D01*
X-13355Y1069D01*
X-13351Y1064D01*
X-13348Y1061D01*
X-13346Y1059D01*
X-13345Y1058D01*
X-13337Y1053D01*
X-13328Y1049D01*
X-13319Y1046D01*
X-13310Y1045D01*
X-13302Y1044D01*
X-13295Y1043D01*
X-13289D01*
X-13276Y1043D01*
X-13265Y1045D01*
X-13255Y1048D01*
X-13247Y1051D01*
X-13240Y1055D01*
X-13236Y1058D01*
X-13233Y1060D01*
X-13232Y1060D01*
X-13225Y1068D01*
X-13219Y1076D01*
X-13214Y1086D01*
X-13211Y1095D01*
X-13208Y1104D01*
X-13206Y1110D01*
X-13205Y1112D01*
Y1115D01*
X-13205Y1116D01*
Y1116D01*
X-13129Y1109D01*
X-13131Y1097D01*
X-13133Y1086D01*
X-13137Y1076D01*
X-13139Y1066D01*
X-13143Y1058D01*
X-13147Y1049D01*
X-13151Y1042D01*
X-13155Y1035D01*
X-13159Y1030D01*
X-13163Y1025D01*
X-13166Y1020D01*
X-13169Y1016D01*
X-13172Y1014D01*
X-13174Y1012D01*
X-13175Y1011D01*
X-13176Y1010D01*
X-13183Y1004D01*
X-13192Y999D01*
X-13201Y995D01*
X-13210Y991D01*
X-13219Y988D01*
X-13228Y985D01*
X-13247Y981D01*
X-13255Y980D01*
X-13263Y979D01*
X-13269Y978D01*
X-13275Y978D01*
X-13280Y977D01*
X-13288D01*
X-13305Y978D01*
X-13321Y979D01*
X-13336Y981D01*
X-13342Y983D01*
X-13348Y984D01*
X-13353Y985D01*
X-13358Y986D01*
X-13361Y988D01*
X-13365Y989D01*
X-13368Y990D01*
X-13369Y990D01*
X-13370Y991D01*
X-13371D01*
X-13383Y997D01*
X-13393Y1004D01*
X-13403Y1010D01*
X-13410Y1018D01*
X-13415Y1024D01*
X-13420Y1029D01*
X-13422Y1033D01*
X-13423Y1033D01*
Y1034D01*
X-13429Y1045D01*
X-13434Y1055D01*
X-13437Y1066D01*
X-13440Y1076D01*
X-13441Y1084D01*
X-13441Y1087D01*
X-13442Y1090D01*
Y1092D01*
Y1094D01*
Y1095D01*
Y1096D01*
X-13441Y1109D01*
X-13440Y1121D01*
X-13437Y1131D01*
X-13434Y1140D01*
X-13431Y1147D01*
X-13429Y1152D01*
X-13427Y1156D01*
X-13426Y1157D01*
X-13420Y1166D01*
X-13413Y1174D01*
X-13406Y1180D01*
X-13399Y1186D01*
X-13393Y1190D01*
X-13388Y1193D01*
X-13385Y1196D01*
X-13384Y1196D01*
X-13384D01*
X-13378Y1199D01*
X-13373Y1202D01*
X-13359Y1207D01*
X-13345Y1211D01*
X-13332Y1216D01*
X-13326Y1217D01*
X-13320Y1219D01*
X-13314Y1221D01*
X-13310Y1222D01*
X-13306Y1223D01*
X-13303Y1223D01*
X-13301Y1224D01*
X-13300D01*
X-13290Y1227D01*
X-13282Y1229D01*
X-13273Y1231D01*
X-13265Y1233D01*
X-13259Y1236D01*
X-13253Y1238D01*
X-13248Y1240D01*
X-13244Y1242D01*
X-13240Y1243D01*
X-13237Y1245D01*
X-13234Y1246D01*
X-13233Y1247D01*
X-13230Y1249D01*
X-13229Y1250D01*
X-13225Y1253D01*
X-13223Y1257D01*
X-13221Y1261D01*
X-13220Y1265D01*
X-13219Y1268D01*
X-13218Y1271D01*
Y1272D01*
Y1273D01*
X-13219Y1278D01*
X-13220Y1283D01*
X-13222Y1287D01*
X-13224Y1291D01*
X-13227Y1293D01*
X-13229Y1295D01*
X-13230Y1296D01*
X-13230Y1297D01*
X-13238Y1302D01*
X-13247Y1305D01*
X-13255Y1308D01*
X-13264Y1309D01*
X-13271Y1311D01*
X-13277Y1311D01*
X-13283D01*
X-13294Y1311D01*
X-13304Y1309D01*
X-13313Y1307D01*
X-13319Y1304D01*
X-13325Y1302D01*
X-13329Y1300D01*
X-13331Y1298D01*
X-13331Y1298D01*
X-13337Y1292D01*
X-13342Y1286D01*
X-13346Y1279D01*
X-13349Y1272D01*
X-13351Y1266D01*
X-13352Y1261D01*
X-13353Y1257D01*
Y1256D01*
Y1256D01*
X-13431Y1258D01*
X-13430Y1268D01*
X-13429Y1277D01*
X-13426Y1286D01*
X-13424Y1294D01*
X-13421Y1302D01*
X-13418Y1309D01*
X-13414Y1315D01*
X-13411Y1321D01*
X-13407Y1326D01*
X-13404Y1331D01*
X-13400Y1334D01*
X-13398Y1338D01*
X-13395Y1340D01*
X-13394Y1342D01*
X-13393Y1343D01*
X-13392Y1343D01*
X-13385Y1349D01*
X-13377Y1354D01*
X-13369Y1358D01*
X-13360Y1362D01*
X-13351Y1365D01*
X-13342Y1368D01*
X-13324Y1372D01*
X-13316Y1373D01*
X-13309Y1374D01*
X-13302Y1374D01*
X-13295Y1375D01*
X-13290Y1376D01*
X-13284D01*
X-13268Y1375D01*
D02*
G37*
G36*
X-12477Y179D02*
X-12537Y170D01*
X-12542Y175D01*
X-12547Y180D01*
X-12552Y184D01*
X-12557Y187D01*
X-12566Y192D01*
X-12575Y195D01*
X-12583Y197D01*
X-12588Y198D01*
X-12591Y199D01*
X-12594D01*
X-12603Y198D01*
X-12611Y196D01*
X-12618Y193D01*
X-12624Y190D01*
X-12629Y186D01*
X-12633Y183D01*
X-12635Y181D01*
X-12636Y180D01*
X-12641Y173D01*
X-12645Y165D01*
X-12648Y156D01*
X-12649Y147D01*
X-12651Y139D01*
X-12652Y133D01*
Y130D01*
Y129D01*
Y128D01*
Y127D01*
X-12651Y114D01*
X-12649Y102D01*
X-12647Y93D01*
X-12644Y85D01*
X-12641Y78D01*
X-12638Y74D01*
X-12636Y72D01*
X-12636Y70D01*
X-12629Y64D01*
X-12623Y59D01*
X-12616Y56D01*
X-12610Y54D01*
X-12604Y53D01*
X-12600Y52D01*
X-12597Y52D01*
X-12596D01*
X-12589Y52D01*
X-12582Y54D01*
X-12576Y56D01*
X-12571Y59D01*
X-12566Y62D01*
X-12563Y64D01*
X-12561Y65D01*
X-12560Y66D01*
X-12555Y72D01*
X-12551Y78D01*
X-12547Y85D01*
X-12545Y91D01*
X-12543Y97D01*
X-12542Y102D01*
X-12542Y104D01*
Y105D01*
X-12468Y98D01*
X-12470Y89D01*
X-12472Y80D01*
X-12477Y65D01*
X-12483Y52D01*
X-12487Y47D01*
X-12491Y41D01*
X-12494Y37D01*
X-12497Y33D01*
X-12500Y29D01*
X-12502Y26D01*
X-12505Y24D01*
X-12506Y22D01*
X-12507Y22D01*
X-12508Y21D01*
X-12515Y16D01*
X-12521Y12D01*
X-12528Y8D01*
X-12536Y5D01*
X-12551Y-1D01*
X-12564Y-4D01*
X-12571Y-5D01*
X-12576Y-6D01*
X-12582Y-6D01*
X-12586Y-7D01*
X-12590Y-7D01*
X-12595D01*
X-12607Y-7D01*
X-12619Y-5D01*
X-12629Y-3D01*
X-12639Y1D01*
X-12649Y4D01*
X-12657Y9D01*
X-12665Y13D01*
X-12672Y18D01*
X-12678Y23D01*
X-12684Y27D01*
X-12689Y32D01*
X-12693Y36D01*
X-12695Y39D01*
X-12698Y41D01*
X-12699Y43D01*
X-12699Y43D01*
X-12704Y51D01*
X-12709Y58D01*
X-12712Y65D01*
X-12715Y73D01*
X-12720Y87D01*
X-12724Y100D01*
X-12725Y106D01*
X-12725Y112D01*
X-12727Y117D01*
Y121D01*
X-12727Y124D01*
Y127D01*
Y128D01*
Y129D01*
X-12727Y139D01*
X-12725Y149D01*
X-12724Y159D01*
X-12722Y168D01*
X-12719Y175D01*
X-12716Y183D01*
X-12713Y190D01*
X-12710Y196D01*
X-12707Y202D01*
X-12704Y207D01*
X-12700Y211D01*
X-12698Y215D01*
X-12696Y218D01*
X-12694Y220D01*
X-12693Y221D01*
X-12693Y221D01*
X-12686Y228D01*
X-12679Y233D01*
X-12672Y238D01*
X-12665Y243D01*
X-12658Y246D01*
X-12651Y249D01*
X-12638Y253D01*
X-12632Y255D01*
X-12627Y256D01*
X-12622Y256D01*
X-12618Y257D01*
X-12614Y258D01*
X-12609D01*
X-12600Y257D01*
X-12591Y255D01*
X-12582Y254D01*
X-12574Y251D01*
X-12568Y249D01*
X-12563Y247D01*
X-12560Y245D01*
X-12559Y245D01*
X-12559D01*
X-12571Y310D01*
X-12710D01*
Y379D01*
X-12515D01*
X-12477Y179D01*
D02*
G37*
G36*
X-11996Y284D02*
X-11987Y283D01*
X-11979Y281D01*
X-11971Y278D01*
X-11956Y271D01*
X-11950Y266D01*
X-11943Y263D01*
X-11938Y259D01*
X-11933Y254D01*
X-11929Y251D01*
X-11926Y248D01*
X-11923Y244D01*
X-11921Y242D01*
X-11920Y241D01*
X-11919Y240D01*
Y279D01*
X-11851D01*
Y0D01*
X-11925D01*
Y135D01*
Y149D01*
X-11926Y161D01*
X-11927Y170D01*
X-11928Y179D01*
X-11929Y184D01*
X-11930Y189D01*
X-11931Y191D01*
Y192D01*
X-11933Y198D01*
X-11936Y204D01*
X-11940Y208D01*
X-11943Y212D01*
X-11946Y215D01*
X-11948Y217D01*
X-11950Y218D01*
X-11950Y219D01*
X-11956Y222D01*
X-11961Y224D01*
X-11966Y226D01*
X-11971Y227D01*
X-11975Y228D01*
X-11978Y228D01*
X-11986D01*
X-11990Y227D01*
X-11994Y226D01*
X-11997Y225D01*
X-11999Y224D01*
X-12001Y223D01*
X-12002Y223D01*
X-12003Y222D01*
X-12006Y220D01*
X-12008Y217D01*
X-12012Y211D01*
X-12013Y209D01*
X-12014Y206D01*
X-12015Y205D01*
Y204D01*
X-12016Y202D01*
X-12017Y199D01*
X-12018Y191D01*
X-12018Y183D01*
X-12019Y174D01*
X-12019Y165D01*
Y159D01*
Y156D01*
Y154D01*
Y153D01*
Y152D01*
Y0D01*
X-12093D01*
Y133D01*
Y147D01*
X-12094Y159D01*
X-12095Y169D01*
X-12096Y177D01*
X-12097Y183D01*
X-12098Y188D01*
X-12099Y190D01*
Y191D01*
X-12102Y198D01*
X-12104Y203D01*
X-12108Y208D01*
X-12111Y211D01*
X-12114Y215D01*
X-12116Y217D01*
X-12118Y218D01*
X-12118Y219D01*
X-12123Y222D01*
X-12129Y224D01*
X-12134Y226D01*
X-12138Y227D01*
X-12142Y228D01*
X-12145Y228D01*
X-12148D01*
X-12155Y228D01*
X-12162Y226D01*
X-12167Y223D01*
X-12172Y220D01*
X-12175Y217D01*
X-12177Y215D01*
X-12179Y213D01*
X-12179Y212D01*
X-12180Y209D01*
X-12182Y206D01*
X-12184Y199D01*
X-12185Y190D01*
X-12186Y181D01*
X-12187Y173D01*
X-12187Y165D01*
Y163D01*
Y160D01*
Y159D01*
Y159D01*
Y0D01*
X-12261D01*
Y178D01*
X-12260Y191D01*
X-12260Y204D01*
X-12259Y214D01*
X-12257Y221D01*
X-12255Y228D01*
X-12254Y232D01*
X-12254Y235D01*
X-12253Y235D01*
X-12249Y244D01*
X-12244Y251D01*
X-12238Y258D01*
X-12233Y263D01*
X-12228Y267D01*
X-12224Y270D01*
X-12222Y271D01*
X-12221Y272D01*
X-12213Y276D01*
X-12204Y279D01*
X-12195Y281D01*
X-12187Y283D01*
X-12180Y284D01*
X-12174Y285D01*
X-12169D01*
X-12160Y284D01*
X-12152Y283D01*
X-12144Y281D01*
X-12138Y279D01*
X-12132Y277D01*
X-12128Y275D01*
X-12125Y274D01*
X-12124Y274D01*
X-12116Y269D01*
X-12109Y264D01*
X-12102Y258D01*
X-12096Y253D01*
X-12091Y248D01*
X-12088Y244D01*
X-12086Y241D01*
X-12084Y240D01*
X-12079Y248D01*
X-12074Y255D01*
X-12068Y260D01*
X-12063Y265D01*
X-12059Y269D01*
X-12055Y271D01*
X-12053Y273D01*
X-12052Y274D01*
X-12044Y278D01*
X-12036Y280D01*
X-12028Y282D01*
X-12021Y284D01*
X-12015Y284D01*
X-12010Y285D01*
X-12006D01*
X-11996Y284D01*
D02*
G37*
G36*
X-12822Y984D02*
X-12900D01*
Y1147D01*
X-13060D01*
Y1212D01*
X-12900D01*
Y1303D01*
X-13086D01*
Y1368D01*
X-12822D01*
Y984D01*
D02*
G37*
G36*
X-11470Y0D02*
X-11637D01*
X-11646Y1D01*
X-11663D01*
X-11669Y1D01*
X-11680D01*
X-11684Y2D01*
X-11689D01*
X-11691Y2D01*
X-11694D01*
X-11705Y4D01*
X-11715Y7D01*
X-11724Y9D01*
X-11731Y13D01*
X-11738Y16D01*
X-11742Y18D01*
X-11745Y20D01*
X-11746Y21D01*
X-11754Y27D01*
X-11760Y33D01*
X-11766Y39D01*
X-11770Y46D01*
X-11774Y52D01*
X-11777Y56D01*
X-11779Y59D01*
X-11779Y60D01*
X-11783Y69D01*
X-11786Y78D01*
X-11789Y87D01*
X-11790Y95D01*
X-11791Y102D01*
X-11791Y107D01*
Y110D01*
Y110D01*
Y111D01*
X-11791Y123D01*
X-11789Y134D01*
X-11785Y144D01*
X-11782Y153D01*
X-11779Y159D01*
X-11775Y164D01*
X-11773Y168D01*
X-11772Y169D01*
X-11765Y178D01*
X-11756Y185D01*
X-11747Y191D01*
X-11739Y195D01*
X-11731Y199D01*
X-11724Y202D01*
X-11722Y203D01*
X-11720Y203D01*
X-11719Y204D01*
X-11719D01*
X-11728Y209D01*
X-11735Y214D01*
X-11742Y220D01*
X-11748Y225D01*
X-11751Y230D01*
X-11755Y234D01*
X-11757Y236D01*
X-11758Y238D01*
X-11762Y246D01*
X-11766Y255D01*
X-11769Y263D01*
X-11771Y271D01*
X-11772Y278D01*
X-11772Y282D01*
Y286D01*
Y286D01*
Y287D01*
X-11772Y296D01*
X-11771Y305D01*
X-11769Y312D01*
X-11766Y319D01*
X-11764Y324D01*
X-11762Y329D01*
X-11761Y331D01*
X-11760Y332D01*
X-11756Y339D01*
X-11751Y345D01*
X-11746Y351D01*
X-11741Y356D01*
X-11737Y359D01*
X-11734Y362D01*
X-11731Y364D01*
X-11731Y364D01*
X-11724Y369D01*
X-11717Y372D01*
X-11710Y375D01*
X-11704Y377D01*
X-11699Y379D01*
X-11695Y380D01*
X-11692Y380D01*
X-11691D01*
X-11681Y381D01*
X-11671Y382D01*
X-11660Y383D01*
X-11649Y384D01*
X-11639Y384D01*
X-11470D01*
Y0D01*
D02*
G37*
G36*
X-11150Y984D02*
X-11224D01*
Y1058D01*
X-11150D01*
Y984D01*
D02*
G37*
G36*
X-11271Y1125D02*
Y1061D01*
X-11429D01*
Y984D01*
X-11500D01*
Y1061D01*
X-11548D01*
Y1126D01*
X-11500D01*
Y1370D01*
X-11438D01*
X-11271Y1125D01*
D02*
G37*
G36*
X-32255Y-4574D02*
Y-4629D01*
X-32221D01*
Y-4688D01*
X-32255D01*
Y-4810D01*
Y-4817D01*
Y-4823D01*
Y-4829D01*
X-32255Y-4834D01*
Y-4843D01*
X-32256Y-4850D01*
X-32257Y-4856D01*
Y-4859D01*
X-32257Y-4861D01*
Y-4862D01*
X-32258Y-4868D01*
X-32260Y-4873D01*
X-32262Y-4878D01*
X-32263Y-4882D01*
X-32265Y-4886D01*
X-32266Y-4888D01*
X-32267Y-4890D01*
X-32267Y-4890D01*
X-32270Y-4894D01*
X-32274Y-4897D01*
X-32282Y-4903D01*
X-32285Y-4905D01*
X-32288Y-4906D01*
X-32290Y-4907D01*
X-32291Y-4907D01*
X-32297Y-4910D01*
X-32303Y-4911D01*
X-32309Y-4912D01*
X-32315Y-4913D01*
X-32320Y-4913D01*
X-32324Y-4914D01*
X-32327D01*
X-32339Y-4913D01*
X-32350Y-4912D01*
X-32360Y-4911D01*
X-32368Y-4908D01*
X-32375Y-4907D01*
X-32381Y-4905D01*
X-32384Y-4904D01*
X-32385Y-4903D01*
X-32385D01*
X-32379Y-4846D01*
X-32372Y-4848D01*
X-32366Y-4850D01*
X-32361Y-4851D01*
X-32356Y-4852D01*
X-32353Y-4852D01*
X-32351Y-4853D01*
X-32349D01*
X-32344Y-4852D01*
X-32340Y-4851D01*
X-32338Y-4850D01*
X-32336Y-4850D01*
X-32333Y-4846D01*
X-32331Y-4843D01*
X-32330Y-4841D01*
X-32330Y-4840D01*
Y-4839D01*
X-32329Y-4837D01*
Y-4832D01*
Y-4825D01*
X-32329Y-4819D01*
Y-4812D01*
Y-4806D01*
Y-4804D01*
Y-4802D01*
Y-4801D01*
Y-4801D01*
Y-4688D01*
X-32379D01*
Y-4629D01*
X-32329D01*
Y-4530D01*
X-32255Y-4574D01*
D02*
G37*
G36*
X-31566Y-4908D02*
X-31638D01*
Y-4655D01*
X-31794Y-4908D01*
X-31871D01*
Y-4524D01*
X-31800D01*
Y-4782D01*
X-31641Y-4524D01*
X-31566D01*
Y-4908D01*
D02*
G37*
G36*
X-36040Y-4624D02*
X-36031Y-4625D01*
X-36023Y-4626D01*
X-36016Y-4628D01*
X-36009Y-4629D01*
X-36003Y-4631D01*
X-35997Y-4633D01*
X-35993Y-4635D01*
X-35988Y-4637D01*
X-35985Y-4639D01*
X-35982Y-4640D01*
X-35979Y-4641D01*
X-35978Y-4642D01*
X-35977Y-4643D01*
X-35977D01*
X-35967Y-4651D01*
X-35960Y-4661D01*
X-35953Y-4671D01*
X-35947Y-4680D01*
X-35943Y-4689D01*
X-35942Y-4693D01*
X-35941Y-4696D01*
X-35940Y-4699D01*
X-35939Y-4701D01*
X-35938Y-4703D01*
Y-4703D01*
X-36004Y-4715D01*
X-36007Y-4709D01*
X-36010Y-4703D01*
X-36013Y-4698D01*
X-36016Y-4694D01*
X-36018Y-4691D01*
X-36021Y-4690D01*
X-36022Y-4689D01*
X-36022Y-4688D01*
X-36027Y-4685D01*
X-36032Y-4683D01*
X-36037Y-4682D01*
X-36042Y-4681D01*
X-36047Y-4680D01*
X-36050Y-4680D01*
X-36053D01*
X-36063Y-4680D01*
X-36072Y-4681D01*
X-36078Y-4683D01*
X-36084Y-4684D01*
X-36088Y-4686D01*
X-36091Y-4688D01*
X-36092Y-4689D01*
X-36093Y-4689D01*
X-36097Y-4693D01*
X-36099Y-4698D01*
X-36101Y-4703D01*
X-36103Y-4708D01*
X-36103Y-4713D01*
X-36104Y-4716D01*
Y-4719D01*
Y-4720D01*
Y-4727D01*
X-36100Y-4729D01*
X-36095Y-4730D01*
X-36084Y-4734D01*
X-36072Y-4736D01*
X-36061Y-4739D01*
X-36049Y-4742D01*
X-36044Y-4743D01*
X-36040Y-4744D01*
X-36037Y-4744D01*
X-36034Y-4745D01*
X-36032Y-4745D01*
X-36032D01*
X-36018Y-4748D01*
X-36006Y-4751D01*
X-35996Y-4754D01*
X-35988Y-4756D01*
X-35981Y-4759D01*
X-35977Y-4761D01*
X-35974Y-4762D01*
X-35973Y-4762D01*
X-35966Y-4766D01*
X-35960Y-4771D01*
X-35954Y-4776D01*
X-35950Y-4780D01*
X-35946Y-4784D01*
X-35944Y-4787D01*
X-35942Y-4790D01*
X-35942Y-4791D01*
X-35938Y-4798D01*
X-35935Y-4805D01*
X-35933Y-4812D01*
X-35932Y-4819D01*
X-35931Y-4824D01*
X-35931Y-4829D01*
Y-4831D01*
Y-4832D01*
X-35931Y-4839D01*
X-35932Y-4845D01*
X-35935Y-4857D01*
X-35938Y-4867D01*
X-35943Y-4875D01*
X-35947Y-4882D01*
X-35951Y-4887D01*
X-35954Y-4890D01*
X-35955Y-4891D01*
Y-4891D01*
X-35965Y-4899D01*
X-35976Y-4905D01*
X-35987Y-4908D01*
X-35998Y-4911D01*
X-36008Y-4913D01*
X-36012Y-4913D01*
X-36016D01*
X-36019Y-4914D01*
X-36023D01*
X-36032Y-4913D01*
X-36041Y-4912D01*
X-36048Y-4911D01*
X-36055Y-4910D01*
X-36061Y-4908D01*
X-36065Y-4906D01*
X-36068Y-4906D01*
X-36069Y-4905D01*
X-36077Y-4901D01*
X-36084Y-4897D01*
X-36091Y-4892D01*
X-36097Y-4888D01*
X-36102Y-4884D01*
X-36106Y-4881D01*
X-36108Y-4878D01*
X-36109Y-4878D01*
X-36110Y-4880D01*
X-36111Y-4883D01*
X-36112Y-4885D01*
X-36112Y-4886D01*
Y-4886D01*
X-36114Y-4891D01*
X-36115Y-4896D01*
X-36116Y-4900D01*
X-36117Y-4902D01*
X-36118Y-4905D01*
X-36119Y-4907D01*
X-36119Y-4907D01*
Y-4908D01*
X-36192D01*
X-36189Y-4901D01*
X-36186Y-4894D01*
X-36184Y-4888D01*
X-36182Y-4882D01*
X-36180Y-4878D01*
X-36179Y-4874D01*
X-36179Y-4872D01*
Y-4871D01*
X-36178Y-4864D01*
X-36177Y-4855D01*
X-36176Y-4846D01*
Y-4837D01*
X-36175Y-4830D01*
Y-4823D01*
Y-4820D01*
Y-4819D01*
Y-4817D01*
Y-4817D01*
X-36177Y-4731D01*
Y-4722D01*
X-36176Y-4714D01*
X-36175Y-4707D01*
X-36175Y-4700D01*
X-36174Y-4694D01*
X-36173Y-4689D01*
X-36173Y-4684D01*
X-36172Y-4680D01*
X-36170Y-4676D01*
X-36170Y-4673D01*
X-36168Y-4668D01*
X-36167Y-4666D01*
X-36167Y-4665D01*
X-36162Y-4659D01*
X-36157Y-4653D01*
X-36152Y-4648D01*
X-36145Y-4643D01*
X-36140Y-4640D01*
X-36136Y-4638D01*
X-36133Y-4636D01*
X-36133Y-4635D01*
X-36132D01*
X-36127Y-4633D01*
X-36122Y-4631D01*
X-36110Y-4628D01*
X-36098Y-4626D01*
X-36087Y-4625D01*
X-36076Y-4624D01*
X-36071D01*
X-36067Y-4623D01*
X-36049D01*
X-36040Y-4624D01*
D02*
G37*
G36*
X-12017Y984D02*
X-12094D01*
Y1152D01*
X-12246D01*
Y984D01*
X-12324D01*
Y1368D01*
X-12246D01*
Y1217D01*
X-12094D01*
Y1368D01*
X-12017D01*
Y984D01*
D02*
G37*
G36*
X-12384Y1202D02*
X-12482Y1202D01*
X-12496D01*
X-12502Y1203D01*
X-12510D01*
X-12513Y1203D01*
X-12516D01*
X-12510Y1198D01*
X-12505Y1192D01*
X-12498Y1185D01*
X-12492Y1178D01*
X-12486Y1172D01*
X-12482Y1167D01*
X-12478Y1163D01*
X-12478Y1162D01*
X-12477Y1162D01*
X-12374Y1043D01*
Y984D01*
X-12622D01*
Y1049D01*
X-12499D01*
X-12493Y1049D01*
X-12486D01*
X-12480Y1048D01*
X-12475D01*
X-12473Y1048D01*
X-12470D01*
X-12507Y1088D01*
X-12614Y1211D01*
Y1263D01*
X-12384D01*
Y1202D01*
D02*
G37*
G36*
X-35062Y-4624D02*
X-35052Y-4625D01*
X-35043Y-4627D01*
X-35034Y-4629D01*
X-35026Y-4632D01*
X-35019Y-4635D01*
X-35012Y-4639D01*
X-35005Y-4643D01*
X-35000Y-4646D01*
X-34995Y-4650D01*
X-34990Y-4654D01*
X-34987Y-4656D01*
X-34984Y-4659D01*
X-34982Y-4661D01*
X-34981Y-4662D01*
X-34980Y-4663D01*
X-34974Y-4670D01*
X-34969Y-4679D01*
X-34964Y-4687D01*
X-34959Y-4696D01*
X-34956Y-4705D01*
X-34953Y-4714D01*
X-34949Y-4731D01*
X-34947Y-4740D01*
X-34946Y-4747D01*
X-34946Y-4754D01*
X-34945Y-4759D01*
X-34944Y-4764D01*
Y-4768D01*
Y-4770D01*
Y-4771D01*
X-34945Y-4781D01*
X-34946Y-4792D01*
X-34947Y-4801D01*
X-34949Y-4810D01*
X-34951Y-4819D01*
X-34953Y-4827D01*
X-34956Y-4834D01*
X-34958Y-4841D01*
X-34961Y-4847D01*
X-34963Y-4852D01*
X-34966Y-4856D01*
X-34967Y-4860D01*
X-34969Y-4863D01*
X-34971Y-4865D01*
X-34971Y-4866D01*
X-34972Y-4867D01*
X-34979Y-4875D01*
X-34986Y-4882D01*
X-34994Y-4888D01*
X-35003Y-4894D01*
X-35012Y-4898D01*
X-35021Y-4902D01*
X-35030Y-4906D01*
X-35039Y-4908D01*
X-35047Y-4910D01*
X-35054Y-4911D01*
X-35062Y-4912D01*
X-35068Y-4913D01*
X-35073D01*
X-35076Y-4914D01*
X-35079D01*
X-35095Y-4913D01*
X-35110Y-4911D01*
X-35123Y-4907D01*
X-35134Y-4903D01*
X-35139Y-4901D01*
X-35143Y-4900D01*
X-35147Y-4898D01*
X-35150Y-4896D01*
X-35152Y-4895D01*
X-35154Y-4894D01*
X-35155Y-4893D01*
X-35155D01*
X-35166Y-4884D01*
X-35175Y-4875D01*
X-35183Y-4864D01*
X-35189Y-4854D01*
X-35194Y-4845D01*
X-35196Y-4841D01*
X-35198Y-4838D01*
X-35199Y-4835D01*
X-35200Y-4833D01*
X-35200Y-4832D01*
Y-4831D01*
X-35127Y-4819D01*
X-35124Y-4826D01*
X-35121Y-4833D01*
X-35119Y-4838D01*
X-35115Y-4842D01*
X-35113Y-4846D01*
X-35111Y-4848D01*
X-35109Y-4849D01*
X-35109Y-4850D01*
X-35104Y-4853D01*
X-35099Y-4855D01*
X-35094Y-4857D01*
X-35090Y-4858D01*
X-35086Y-4858D01*
X-35083Y-4859D01*
X-35080D01*
X-35071Y-4858D01*
X-35063Y-4856D01*
X-35055Y-4853D01*
X-35049Y-4850D01*
X-35044Y-4847D01*
X-35040Y-4844D01*
X-35038Y-4842D01*
X-35037Y-4841D01*
X-35032Y-4834D01*
X-35028Y-4826D01*
X-35024Y-4817D01*
X-35022Y-4809D01*
X-35021Y-4801D01*
X-35020Y-4796D01*
X-35020Y-4794D01*
Y-4792D01*
Y-4791D01*
Y-4790D01*
X-35204D01*
Y-4775D01*
X-35203Y-4761D01*
X-35201Y-4747D01*
X-35199Y-4735D01*
X-35196Y-4724D01*
X-35194Y-4714D01*
X-35190Y-4704D01*
X-35187Y-4696D01*
X-35184Y-4689D01*
X-35180Y-4682D01*
X-35178Y-4677D01*
X-35175Y-4673D01*
X-35173Y-4669D01*
X-35171Y-4666D01*
X-35170Y-4665D01*
X-35169Y-4665D01*
X-35163Y-4658D01*
X-35155Y-4651D01*
X-35147Y-4645D01*
X-35139Y-4641D01*
X-35131Y-4636D01*
X-35123Y-4633D01*
X-35115Y-4630D01*
X-35107Y-4628D01*
X-35100Y-4626D01*
X-35093Y-4625D01*
X-35087Y-4624D01*
X-35082Y-4624D01*
X-35078Y-4623D01*
X-35072D01*
X-35062Y-4624D01*
D02*
G37*
G36*
X-32848Y-4624D02*
X-32839Y-4625D01*
X-32831Y-4626D01*
X-32823Y-4628D01*
X-32817Y-4629D01*
X-32810Y-4631D01*
X-32805Y-4633D01*
X-32800Y-4635D01*
X-32796Y-4637D01*
X-32793Y-4639D01*
X-32789Y-4640D01*
X-32787Y-4641D01*
X-32785Y-4642D01*
X-32785Y-4643D01*
X-32784D01*
X-32775Y-4651D01*
X-32767Y-4661D01*
X-32761Y-4671D01*
X-32755Y-4680D01*
X-32751Y-4689D01*
X-32749Y-4693D01*
X-32748Y-4696D01*
X-32747Y-4699D01*
X-32747Y-4701D01*
X-32746Y-4703D01*
Y-4703D01*
X-32812Y-4715D01*
X-32815Y-4709D01*
X-32818Y-4703D01*
X-32820Y-4698D01*
X-32824Y-4694D01*
X-32826Y-4691D01*
X-32828Y-4690D01*
X-32829Y-4689D01*
X-32830Y-4688D01*
X-32834Y-4685D01*
X-32839Y-4683D01*
X-32845Y-4682D01*
X-32850Y-4681D01*
X-32854Y-4680D01*
X-32858Y-4680D01*
X-32861D01*
X-32871Y-4680D01*
X-32879Y-4681D01*
X-32886Y-4683D01*
X-32891Y-4684D01*
X-32895Y-4686D01*
X-32898Y-4688D01*
X-32900Y-4689D01*
X-32900Y-4689D01*
X-32904Y-4693D01*
X-32907Y-4698D01*
X-32909Y-4703D01*
X-32910Y-4708D01*
X-32911Y-4713D01*
X-32911Y-4716D01*
Y-4719D01*
Y-4720D01*
Y-4727D01*
X-32908Y-4729D01*
X-32903Y-4730D01*
X-32892Y-4734D01*
X-32880Y-4736D01*
X-32868Y-4739D01*
X-32857Y-4742D01*
X-32852Y-4743D01*
X-32848Y-4744D01*
X-32844Y-4744D01*
X-32842Y-4745D01*
X-32840Y-4745D01*
X-32839D01*
X-32826Y-4748D01*
X-32814Y-4751D01*
X-32804Y-4754D01*
X-32795Y-4756D01*
X-32789Y-4759D01*
X-32784Y-4761D01*
X-32782Y-4762D01*
X-32780Y-4762D01*
X-32773Y-4766D01*
X-32767Y-4771D01*
X-32762Y-4776D01*
X-32758Y-4780D01*
X-32754Y-4784D01*
X-32752Y-4787D01*
X-32750Y-4790D01*
X-32749Y-4791D01*
X-32746Y-4798D01*
X-32743Y-4805D01*
X-32741Y-4812D01*
X-32740Y-4819D01*
X-32739Y-4824D01*
X-32738Y-4829D01*
Y-4831D01*
Y-4832D01*
X-32739Y-4839D01*
X-32739Y-4845D01*
X-32742Y-4857D01*
X-32746Y-4867D01*
X-32751Y-4875D01*
X-32755Y-4882D01*
X-32759Y-4887D01*
X-32762Y-4890D01*
X-32763Y-4891D01*
Y-4891D01*
X-32773Y-4899D01*
X-32784Y-4905D01*
X-32795Y-4908D01*
X-32806Y-4911D01*
X-32815Y-4913D01*
X-32820Y-4913D01*
X-32823D01*
X-32827Y-4914D01*
X-32830D01*
X-32839Y-4913D01*
X-32848Y-4912D01*
X-32856Y-4911D01*
X-32863Y-4910D01*
X-32868Y-4908D01*
X-32873Y-4906D01*
X-32875Y-4906D01*
X-32877Y-4905D01*
X-32884Y-4901D01*
X-32892Y-4897D01*
X-32899Y-4892D01*
X-32905Y-4888D01*
X-32910Y-4884D01*
X-32914Y-4881D01*
X-32916Y-4878D01*
X-32917Y-4878D01*
X-32918Y-4880D01*
X-32919Y-4883D01*
X-32919Y-4885D01*
X-32920Y-4886D01*
Y-4886D01*
X-32921Y-4891D01*
X-32923Y-4896D01*
X-32924Y-4900D01*
X-32925Y-4902D01*
X-32926Y-4905D01*
X-32926Y-4907D01*
X-32927Y-4907D01*
Y-4908D01*
X-33000D01*
X-32996Y-4901D01*
X-32994Y-4894D01*
X-32991Y-4888D01*
X-32989Y-4882D01*
X-32988Y-4878D01*
X-32987Y-4874D01*
X-32986Y-4872D01*
Y-4871D01*
X-32985Y-4864D01*
X-32985Y-4855D01*
X-32984Y-4846D01*
Y-4837D01*
X-32983Y-4830D01*
Y-4823D01*
Y-4820D01*
Y-4819D01*
Y-4817D01*
Y-4817D01*
X-32984Y-4731D01*
Y-4722D01*
X-32984Y-4714D01*
X-32983Y-4707D01*
X-32982Y-4700D01*
X-32982Y-4694D01*
X-32981Y-4689D01*
X-32980Y-4684D01*
X-32979Y-4680D01*
X-32978Y-4676D01*
X-32978Y-4673D01*
X-32976Y-4668D01*
X-32975Y-4666D01*
X-32974Y-4665D01*
X-32970Y-4659D01*
X-32965Y-4653D01*
X-32959Y-4648D01*
X-32953Y-4643D01*
X-32948Y-4640D01*
X-32944Y-4638D01*
X-32941Y-4636D01*
X-32940Y-4635D01*
X-32940D01*
X-32935Y-4633D01*
X-32930Y-4631D01*
X-32918Y-4628D01*
X-32906Y-4626D01*
X-32894Y-4625D01*
X-32883Y-4624D01*
X-32879D01*
X-32875Y-4623D01*
X-32857D01*
X-32848Y-4624D01*
D02*
G37*
G36*
X-35613Y-4624D02*
X-35604Y-4625D01*
X-35595Y-4627D01*
X-35587Y-4630D01*
X-35573Y-4637D01*
X-35566Y-4641D01*
X-35560Y-4645D01*
X-35554Y-4649D01*
X-35549Y-4654D01*
X-35545Y-4657D01*
X-35542Y-4660D01*
X-35539Y-4664D01*
X-35537Y-4666D01*
X-35536Y-4667D01*
X-35536Y-4668D01*
Y-4629D01*
X-35468D01*
Y-4908D01*
X-35542D01*
Y-4773D01*
Y-4759D01*
X-35543Y-4747D01*
X-35543Y-4737D01*
X-35544Y-4729D01*
X-35545Y-4724D01*
X-35546Y-4719D01*
X-35547Y-4716D01*
Y-4716D01*
X-35550Y-4710D01*
X-35553Y-4704D01*
X-35556Y-4700D01*
X-35559Y-4696D01*
X-35562Y-4693D01*
X-35564Y-4691D01*
X-35566Y-4690D01*
X-35567Y-4689D01*
X-35572Y-4686D01*
X-35577Y-4684D01*
X-35582Y-4682D01*
X-35587Y-4681D01*
X-35591Y-4680D01*
X-35594Y-4680D01*
X-35602D01*
X-35607Y-4681D01*
X-35610Y-4681D01*
X-35614Y-4683D01*
X-35616Y-4684D01*
X-35618Y-4685D01*
X-35619Y-4685D01*
X-35619Y-4686D01*
X-35622Y-4688D01*
X-35625Y-4691D01*
X-35629Y-4697D01*
X-35630Y-4699D01*
X-35631Y-4701D01*
X-35632Y-4703D01*
Y-4704D01*
X-35632Y-4706D01*
X-35633Y-4709D01*
X-35634Y-4717D01*
X-35635Y-4725D01*
X-35635Y-4734D01*
X-35636Y-4742D01*
Y-4749D01*
Y-4752D01*
Y-4754D01*
Y-4755D01*
Y-4756D01*
Y-4908D01*
X-35710D01*
Y-4775D01*
Y-4761D01*
X-35711Y-4749D01*
X-35711Y-4739D01*
X-35713Y-4731D01*
X-35714Y-4725D01*
X-35714Y-4720D01*
X-35715Y-4718D01*
Y-4717D01*
X-35718Y-4710D01*
X-35721Y-4705D01*
X-35724Y-4700D01*
X-35728Y-4696D01*
X-35730Y-4693D01*
X-35733Y-4691D01*
X-35734Y-4690D01*
X-35735Y-4689D01*
X-35740Y-4686D01*
X-35745Y-4684D01*
X-35750Y-4682D01*
X-35755Y-4681D01*
X-35759Y-4680D01*
X-35761Y-4680D01*
X-35764D01*
X-35771Y-4680D01*
X-35778Y-4682D01*
X-35784Y-4685D01*
X-35788Y-4688D01*
X-35791Y-4691D01*
X-35794Y-4693D01*
X-35795Y-4695D01*
X-35796Y-4696D01*
X-35797Y-4699D01*
X-35799Y-4701D01*
X-35800Y-4709D01*
X-35802Y-4718D01*
X-35802Y-4727D01*
X-35803Y-4735D01*
X-35804Y-4742D01*
Y-4745D01*
Y-4747D01*
Y-4749D01*
Y-4749D01*
Y-4908D01*
X-35877D01*
Y-4730D01*
X-35877Y-4716D01*
X-35876Y-4704D01*
X-35875Y-4694D01*
X-35873Y-4686D01*
X-35872Y-4680D01*
X-35871Y-4676D01*
X-35870Y-4673D01*
X-35870Y-4673D01*
X-35865Y-4664D01*
X-35860Y-4656D01*
X-35855Y-4650D01*
X-35850Y-4645D01*
X-35845Y-4641D01*
X-35841Y-4638D01*
X-35839Y-4636D01*
X-35837Y-4636D01*
X-35829Y-4631D01*
X-35820Y-4629D01*
X-35812Y-4626D01*
X-35804Y-4625D01*
X-35796Y-4624D01*
X-35791Y-4623D01*
X-35786D01*
X-35777Y-4624D01*
X-35769Y-4625D01*
X-35761Y-4626D01*
X-35754Y-4629D01*
X-35749Y-4631D01*
X-35744Y-4633D01*
X-35741Y-4634D01*
X-35740Y-4634D01*
X-35733Y-4639D01*
X-35725Y-4644D01*
X-35719Y-4650D01*
X-35713Y-4655D01*
X-35708Y-4660D01*
X-35704Y-4664D01*
X-35702Y-4667D01*
X-35701Y-4668D01*
X-35696Y-4660D01*
X-35690Y-4653D01*
X-35685Y-4648D01*
X-35680Y-4643D01*
X-35675Y-4639D01*
X-35671Y-4636D01*
X-35669Y-4635D01*
X-35668Y-4634D01*
X-35660Y-4630D01*
X-35653Y-4628D01*
X-35645Y-4626D01*
X-35638Y-4624D01*
X-35632Y-4624D01*
X-35627Y-4623D01*
X-35622D01*
X-35613Y-4624D01*
D02*
G37*
G36*
X-32042Y-4624D02*
X-32033Y-4625D01*
X-32026Y-4626D01*
X-32018Y-4628D01*
X-32011Y-4629D01*
X-32005Y-4631D01*
X-32000Y-4633D01*
X-31995Y-4635D01*
X-31991Y-4637D01*
X-31987Y-4639D01*
X-31984Y-4640D01*
X-31982Y-4641D01*
X-31980Y-4642D01*
X-31980Y-4643D01*
X-31979D01*
X-31970Y-4651D01*
X-31962Y-4661D01*
X-31955Y-4671D01*
X-31950Y-4680D01*
X-31946Y-4689D01*
X-31944Y-4693D01*
X-31943Y-4696D01*
X-31942Y-4699D01*
X-31941Y-4701D01*
X-31941Y-4703D01*
Y-4703D01*
X-32007Y-4715D01*
X-32010Y-4709D01*
X-32012Y-4703D01*
X-32015Y-4698D01*
X-32018Y-4694D01*
X-32021Y-4691D01*
X-32023Y-4690D01*
X-32024Y-4689D01*
X-32025Y-4688D01*
X-32029Y-4685D01*
X-32034Y-4683D01*
X-32040Y-4682D01*
X-32045Y-4681D01*
X-32049Y-4680D01*
X-32052Y-4680D01*
X-32056D01*
X-32066Y-4680D01*
X-32074Y-4681D01*
X-32081Y-4683D01*
X-32086Y-4684D01*
X-32090Y-4686D01*
X-32093Y-4688D01*
X-32095Y-4689D01*
X-32095Y-4689D01*
X-32099Y-4693D01*
X-32102Y-4698D01*
X-32103Y-4703D01*
X-32105Y-4708D01*
X-32106Y-4713D01*
X-32106Y-4716D01*
Y-4719D01*
Y-4720D01*
Y-4727D01*
X-32102Y-4729D01*
X-32097Y-4730D01*
X-32087Y-4734D01*
X-32075Y-4736D01*
X-32063Y-4739D01*
X-32052Y-4742D01*
X-32047Y-4743D01*
X-32042Y-4744D01*
X-32039Y-4744D01*
X-32036Y-4745D01*
X-32035Y-4745D01*
X-32034D01*
X-32021Y-4748D01*
X-32008Y-4751D01*
X-31998Y-4754D01*
X-31990Y-4756D01*
X-31983Y-4759D01*
X-31979Y-4761D01*
X-31976Y-4762D01*
X-31975Y-4762D01*
X-31968Y-4766D01*
X-31962Y-4771D01*
X-31956Y-4776D01*
X-31952Y-4780D01*
X-31949Y-4784D01*
X-31946Y-4787D01*
X-31945Y-4790D01*
X-31944Y-4791D01*
X-31940Y-4798D01*
X-31937Y-4805D01*
X-31936Y-4812D01*
X-31935Y-4819D01*
X-31934Y-4824D01*
X-31933Y-4829D01*
Y-4831D01*
Y-4832D01*
X-31934Y-4839D01*
X-31934Y-4845D01*
X-31937Y-4857D01*
X-31941Y-4867D01*
X-31945Y-4875D01*
X-31950Y-4882D01*
X-31954Y-4887D01*
X-31956Y-4890D01*
X-31957Y-4891D01*
Y-4891D01*
X-31967Y-4899D01*
X-31979Y-4905D01*
X-31990Y-4908D01*
X-32001Y-4911D01*
X-32010Y-4913D01*
X-32015Y-4913D01*
X-32018D01*
X-32021Y-4914D01*
X-32025D01*
X-32034Y-4913D01*
X-32043Y-4912D01*
X-32051Y-4911D01*
X-32057Y-4910D01*
X-32063Y-4908D01*
X-32067Y-4906D01*
X-32070Y-4906D01*
X-32071Y-4905D01*
X-32079Y-4901D01*
X-32087Y-4897D01*
X-32093Y-4892D01*
X-32099Y-4888D01*
X-32104Y-4884D01*
X-32108Y-4881D01*
X-32111Y-4878D01*
X-32112Y-4878D01*
X-32112Y-4880D01*
X-32113Y-4883D01*
X-32114Y-4885D01*
X-32114Y-4886D01*
Y-4886D01*
X-32116Y-4891D01*
X-32117Y-4896D01*
X-32118Y-4900D01*
X-32119Y-4902D01*
X-32121Y-4905D01*
X-32121Y-4907D01*
X-32122Y-4907D01*
Y-4908D01*
X-32194D01*
X-32191Y-4901D01*
X-32188Y-4894D01*
X-32186Y-4888D01*
X-32184Y-4882D01*
X-32183Y-4878D01*
X-32182Y-4874D01*
X-32181Y-4872D01*
Y-4871D01*
X-32180Y-4864D01*
X-32179Y-4855D01*
X-32178Y-4846D01*
Y-4837D01*
X-32178Y-4830D01*
Y-4823D01*
Y-4820D01*
Y-4819D01*
Y-4817D01*
Y-4817D01*
X-32179Y-4731D01*
Y-4722D01*
X-32178Y-4714D01*
X-32178Y-4707D01*
X-32177Y-4700D01*
X-32177Y-4694D01*
X-32176Y-4689D01*
X-32175Y-4684D01*
X-32174Y-4680D01*
X-32173Y-4676D01*
X-32172Y-4673D01*
X-32171Y-4668D01*
X-32169Y-4666D01*
X-32169Y-4665D01*
X-32164Y-4659D01*
X-32159Y-4653D01*
X-32154Y-4648D01*
X-32148Y-4643D01*
X-32143Y-4640D01*
X-32138Y-4638D01*
X-32136Y-4636D01*
X-32135Y-4635D01*
X-32134D01*
X-32129Y-4633D01*
X-32124Y-4631D01*
X-32113Y-4628D01*
X-32101Y-4626D01*
X-32089Y-4625D01*
X-32078Y-4624D01*
X-32073D01*
X-32070Y-4623D01*
X-32051D01*
X-32042Y-4624D01*
D02*
G37*
G36*
X-13508Y984D02*
X-13586D01*
Y1100D01*
X-13648Y1165D01*
X-13754Y984D01*
X-13855D01*
X-13702Y1218D01*
X-13848Y1368D01*
X-13743D01*
X-13586Y1197D01*
Y1368D01*
X-13508D01*
Y984D01*
D02*
G37*
G36*
X-10953Y1370D02*
X-10944Y1369D01*
X-10927Y1367D01*
X-10913Y1362D01*
X-10906Y1360D01*
X-10900Y1357D01*
X-10894Y1355D01*
X-10890Y1352D01*
X-10886Y1350D01*
X-10882Y1348D01*
X-10879Y1346D01*
X-10878Y1345D01*
X-10877Y1344D01*
X-10876Y1344D01*
X-10870Y1338D01*
X-10865Y1333D01*
X-10860Y1326D01*
X-10855Y1319D01*
X-10848Y1304D01*
X-10843Y1291D01*
X-10841Y1283D01*
X-10840Y1277D01*
X-10838Y1272D01*
X-10837Y1267D01*
X-10836Y1262D01*
Y1260D01*
X-10836Y1257D01*
Y1257D01*
X-10909Y1250D01*
X-10910Y1261D01*
X-10912Y1270D01*
X-10914Y1278D01*
X-10917Y1285D01*
X-10919Y1289D01*
X-10922Y1293D01*
X-10923Y1295D01*
X-10924Y1296D01*
X-10929Y1300D01*
X-10936Y1303D01*
X-10942Y1306D01*
X-10948Y1308D01*
X-10953Y1309D01*
X-10957Y1309D01*
X-10961D01*
X-10969Y1309D01*
X-10977Y1307D01*
X-10983Y1305D01*
X-10988Y1303D01*
X-10992Y1301D01*
X-10995Y1298D01*
X-10997Y1297D01*
X-10998Y1296D01*
X-11002Y1291D01*
X-11005Y1285D01*
X-11008Y1278D01*
X-11009Y1272D01*
X-11010Y1267D01*
X-11011Y1262D01*
Y1259D01*
Y1258D01*
Y1258D01*
X-11010Y1250D01*
X-11009Y1242D01*
X-11006Y1234D01*
X-11003Y1227D01*
X-11000Y1221D01*
X-10998Y1217D01*
X-10996Y1214D01*
X-10995Y1213D01*
X-10993Y1210D01*
X-10990Y1206D01*
X-10985Y1201D01*
X-10981Y1196D01*
X-10971Y1186D01*
X-10961Y1175D01*
X-10951Y1165D01*
X-10947Y1161D01*
X-10942Y1157D01*
X-10939Y1154D01*
X-10937Y1152D01*
X-10935Y1150D01*
X-10934Y1150D01*
X-10923Y1139D01*
X-10913Y1129D01*
X-10904Y1120D01*
X-10896Y1111D01*
X-10888Y1103D01*
X-10881Y1095D01*
X-10875Y1089D01*
X-10870Y1082D01*
X-10866Y1076D01*
X-10862Y1071D01*
X-10858Y1067D01*
X-10856Y1064D01*
X-10854Y1061D01*
X-10853Y1059D01*
X-10852Y1058D01*
Y1058D01*
X-10845Y1045D01*
X-10839Y1031D01*
X-10835Y1019D01*
X-10831Y1008D01*
X-10829Y998D01*
X-10828Y994D01*
X-10828Y991D01*
X-10827Y988D01*
X-10827Y986D01*
Y985D01*
Y984D01*
X-11085D01*
Y1053D01*
X-10938D01*
X-10943Y1060D01*
X-10948Y1066D01*
X-10950Y1069D01*
X-10952Y1071D01*
X-10953Y1072D01*
X-10953Y1072D01*
X-10956Y1075D01*
X-10958Y1077D01*
X-10964Y1084D01*
X-10972Y1091D01*
X-10979Y1098D01*
X-10986Y1105D01*
X-10992Y1110D01*
X-10994Y1112D01*
X-10996Y1114D01*
X-10997Y1115D01*
X-10998Y1115D01*
X-11010Y1127D01*
X-11020Y1136D01*
X-11028Y1145D01*
X-11035Y1152D01*
X-11040Y1157D01*
X-11043Y1161D01*
X-11045Y1164D01*
X-11046Y1165D01*
X-11053Y1174D01*
X-11059Y1183D01*
X-11064Y1191D01*
X-11068Y1198D01*
X-11072Y1205D01*
X-11074Y1210D01*
X-11075Y1212D01*
X-11075Y1213D01*
X-11079Y1222D01*
X-11081Y1231D01*
X-11083Y1240D01*
X-11084Y1247D01*
X-11084Y1253D01*
X-11085Y1258D01*
Y1262D01*
Y1263D01*
X-11084Y1271D01*
X-11083Y1280D01*
X-11082Y1287D01*
X-11080Y1294D01*
X-11074Y1307D01*
X-11069Y1318D01*
X-11065Y1323D01*
X-11063Y1327D01*
X-11060Y1331D01*
X-11057Y1334D01*
X-11055Y1336D01*
X-11054Y1338D01*
X-11053Y1339D01*
X-11052Y1339D01*
X-11046Y1345D01*
X-11039Y1350D01*
X-11032Y1354D01*
X-11024Y1357D01*
X-11010Y1363D01*
X-10995Y1367D01*
X-10989Y1368D01*
X-10983Y1369D01*
X-10977Y1369D01*
X-10972Y1370D01*
X-10968Y1371D01*
X-10963D01*
X-10953Y1370D01*
D02*
G37*
G36*
X-34628Y-4624D02*
X-34619Y-4625D01*
X-34611Y-4627D01*
X-34603Y-4630D01*
X-34588Y-4637D01*
X-34581Y-4641D01*
X-34575Y-4645D01*
X-34570Y-4649D01*
X-34565Y-4654D01*
X-34561Y-4657D01*
X-34558Y-4660D01*
X-34555Y-4664D01*
X-34553Y-4666D01*
X-34551Y-4667D01*
X-34551Y-4668D01*
Y-4629D01*
X-34483D01*
Y-4908D01*
X-34557D01*
Y-4773D01*
Y-4759D01*
X-34558Y-4747D01*
X-34559Y-4737D01*
X-34560Y-4729D01*
X-34561Y-4724D01*
X-34561Y-4719D01*
X-34563Y-4716D01*
Y-4716D01*
X-34565Y-4710D01*
X-34568Y-4704D01*
X-34571Y-4700D01*
X-34575Y-4696D01*
X-34578Y-4693D01*
X-34580Y-4691D01*
X-34581Y-4690D01*
X-34582Y-4689D01*
X-34588Y-4686D01*
X-34593Y-4684D01*
X-34598Y-4682D01*
X-34603Y-4681D01*
X-34606Y-4680D01*
X-34610Y-4680D01*
X-34618D01*
X-34622Y-4681D01*
X-34626Y-4681D01*
X-34629Y-4683D01*
X-34631Y-4684D01*
X-34633Y-4685D01*
X-34634Y-4685D01*
X-34635Y-4686D01*
X-34638Y-4688D01*
X-34640Y-4691D01*
X-34644Y-4697D01*
X-34645Y-4699D01*
X-34646Y-4701D01*
X-34647Y-4703D01*
Y-4704D01*
X-34648Y-4706D01*
X-34649Y-4709D01*
X-34650Y-4717D01*
X-34650Y-4725D01*
X-34651Y-4734D01*
X-34651Y-4742D01*
Y-4749D01*
Y-4752D01*
Y-4754D01*
Y-4755D01*
Y-4756D01*
Y-4908D01*
X-34725D01*
Y-4775D01*
Y-4761D01*
X-34726Y-4749D01*
X-34727Y-4739D01*
X-34728Y-4731D01*
X-34729Y-4725D01*
X-34730Y-4720D01*
X-34731Y-4718D01*
Y-4717D01*
X-34734Y-4710D01*
X-34736Y-4705D01*
X-34740Y-4700D01*
X-34743Y-4696D01*
X-34746Y-4693D01*
X-34748Y-4691D01*
X-34750Y-4690D01*
X-34750Y-4689D01*
X-34755Y-4686D01*
X-34761Y-4684D01*
X-34766Y-4682D01*
X-34770Y-4681D01*
X-34774Y-4680D01*
X-34777Y-4680D01*
X-34780D01*
X-34787Y-4680D01*
X-34793Y-4682D01*
X-34799Y-4685D01*
X-34803Y-4688D01*
X-34807Y-4691D01*
X-34809Y-4693D01*
X-34811Y-4695D01*
X-34811Y-4696D01*
X-34812Y-4699D01*
X-34814Y-4701D01*
X-34816Y-4709D01*
X-34817Y-4718D01*
X-34818Y-4727D01*
X-34818Y-4735D01*
X-34819Y-4742D01*
Y-4745D01*
Y-4747D01*
Y-4749D01*
Y-4749D01*
Y-4908D01*
X-34893D01*
Y-4730D01*
X-34892Y-4716D01*
X-34892Y-4704D01*
X-34891Y-4694D01*
X-34889Y-4686D01*
X-34887Y-4680D01*
X-34886Y-4676D01*
X-34886Y-4673D01*
X-34885Y-4673D01*
X-34881Y-4664D01*
X-34876Y-4656D01*
X-34870Y-4650D01*
X-34865Y-4645D01*
X-34860Y-4641D01*
X-34856Y-4638D01*
X-34854Y-4636D01*
X-34853Y-4636D01*
X-34845Y-4631D01*
X-34836Y-4629D01*
X-34827Y-4626D01*
X-34819Y-4625D01*
X-34812Y-4624D01*
X-34806Y-4623D01*
X-34801D01*
X-34792Y-4624D01*
X-34784Y-4625D01*
X-34776Y-4626D01*
X-34770Y-4629D01*
X-34764Y-4631D01*
X-34760Y-4633D01*
X-34757Y-4634D01*
X-34756Y-4634D01*
X-34748Y-4639D01*
X-34741Y-4644D01*
X-34734Y-4650D01*
X-34728Y-4655D01*
X-34723Y-4660D01*
X-34720Y-4664D01*
X-34717Y-4667D01*
X-34716Y-4668D01*
X-34711Y-4660D01*
X-34706Y-4653D01*
X-34700Y-4648D01*
X-34695Y-4643D01*
X-34691Y-4639D01*
X-34687Y-4636D01*
X-34685Y-4635D01*
X-34684Y-4634D01*
X-34676Y-4630D01*
X-34668Y-4628D01*
X-34660Y-4626D01*
X-34653Y-4624D01*
X-34647Y-4624D01*
X-34642Y-4623D01*
X-34638D01*
X-34628Y-4624D01*
D02*
G37*
%LPC*%
G36*
X-35115Y-3534D02*
X-35120D01*
X-35131Y-3535D01*
X-35141Y-3538D01*
X-35149Y-3542D01*
X-35157Y-3546D01*
X-35163Y-3550D01*
X-35167Y-3554D01*
X-35170Y-3557D01*
X-35171Y-3557D01*
X-35178Y-3566D01*
X-35183Y-3577D01*
X-35187Y-3588D01*
X-35190Y-3598D01*
X-35192Y-3607D01*
X-35192Y-3615D01*
X-35193Y-3618D01*
Y-3620D01*
Y-3621D01*
Y-3622D01*
X-35047D01*
X-35047Y-3608D01*
X-35050Y-3595D01*
X-35053Y-3584D01*
X-35057Y-3575D01*
X-35061Y-3568D01*
X-35064Y-3563D01*
X-35067Y-3559D01*
X-35067Y-3558D01*
X-35075Y-3550D01*
X-35084Y-3544D01*
X-35093Y-3540D01*
X-35101Y-3537D01*
X-35109Y-3536D01*
X-35115Y-3534D01*
D02*
G37*
G36*
X-33405D02*
X-33410D01*
X-33421Y-3535D01*
X-33430Y-3538D01*
X-33439Y-3542D01*
X-33447Y-3546D01*
X-33453Y-3550D01*
X-33457Y-3554D01*
X-33460Y-3557D01*
X-33461Y-3557D01*
X-33467Y-3566D01*
X-33473Y-3577D01*
X-33477Y-3588D01*
X-33480Y-3598D01*
X-33481Y-3607D01*
X-33482Y-3615D01*
X-33483Y-3618D01*
Y-3620D01*
Y-3621D01*
Y-3622D01*
X-33336D01*
X-33337Y-3608D01*
X-33339Y-3595D01*
X-33342Y-3584D01*
X-33347Y-3575D01*
X-33351Y-3568D01*
X-33354Y-3563D01*
X-33356Y-3559D01*
X-33357Y-3558D01*
X-33365Y-3550D01*
X-33374Y-3544D01*
X-33383Y-3540D01*
X-33391Y-3537D01*
X-33399Y-3536D01*
X-33405Y-3534D01*
D02*
G37*
G36*
X-31644Y-5573D02*
X-31733D01*
X-31738Y-5574D01*
X-31750D01*
X-31755Y-5574D01*
X-31758D01*
X-31760Y-5575D01*
X-31760D01*
X-31767Y-5576D01*
X-31773Y-5579D01*
X-31778Y-5581D01*
X-31782Y-5584D01*
X-31785Y-5586D01*
X-31788Y-5588D01*
X-31789Y-5590D01*
X-31790Y-5590D01*
X-31793Y-5595D01*
X-31796Y-5600D01*
X-31798Y-5605D01*
X-31799Y-5610D01*
X-31800Y-5615D01*
X-31800Y-5618D01*
Y-5620D01*
Y-5621D01*
X-31800Y-5627D01*
X-31799Y-5633D01*
X-31798Y-5638D01*
X-31796Y-5642D01*
X-31795Y-5646D01*
X-31793Y-5648D01*
X-31793Y-5650D01*
X-31792Y-5650D01*
X-31789Y-5654D01*
X-31785Y-5657D01*
X-31778Y-5662D01*
X-31775Y-5664D01*
X-31773Y-5665D01*
X-31771Y-5666D01*
X-31770D01*
X-31768Y-5667D01*
X-31763Y-5668D01*
X-31759Y-5668D01*
X-31754Y-5669D01*
X-31742Y-5670D01*
X-31730Y-5670D01*
X-31719Y-5671D01*
X-31644D01*
Y-5573D01*
D02*
G37*
G36*
X-11429Y1258D02*
Y1126D01*
X-11340D01*
X-11429Y1258D01*
D02*
G37*
G36*
X-34463Y-3539D02*
X-34466D01*
X-34480Y-3540D01*
X-34493Y-3543D01*
X-34503Y-3548D01*
X-34513Y-3554D01*
X-34520Y-3559D01*
X-34526Y-3564D01*
X-34529Y-3567D01*
X-34531Y-3568D01*
X-34540Y-3580D01*
X-34546Y-3594D01*
X-34551Y-3608D01*
X-34554Y-3622D01*
X-34556Y-3634D01*
X-34557Y-3640D01*
Y-3644D01*
X-34557Y-3648D01*
Y-3651D01*
Y-3652D01*
Y-3653D01*
X-34556Y-3672D01*
X-34553Y-3690D01*
X-34549Y-3704D01*
X-34544Y-3716D01*
X-34539Y-3725D01*
X-34535Y-3733D01*
X-34532Y-3736D01*
X-34531Y-3738D01*
X-34520Y-3748D01*
X-34510Y-3755D01*
X-34499Y-3759D01*
X-34489Y-3763D01*
X-34480Y-3765D01*
X-34473Y-3766D01*
X-34470Y-3767D01*
X-34466D01*
X-34452Y-3765D01*
X-34440Y-3762D01*
X-34429Y-3758D01*
X-34420Y-3752D01*
X-34412Y-3747D01*
X-34406Y-3742D01*
X-34403Y-3739D01*
X-34401Y-3738D01*
X-34392Y-3726D01*
X-34387Y-3712D01*
X-34382Y-3698D01*
X-34378Y-3684D01*
X-34377Y-3672D01*
X-34376Y-3667D01*
Y-3662D01*
X-34375Y-3658D01*
Y-3655D01*
Y-3654D01*
Y-3653D01*
X-34377Y-3634D01*
X-34380Y-3617D01*
X-34384Y-3602D01*
X-34389Y-3590D01*
X-34393Y-3581D01*
X-34398Y-3574D01*
X-34401Y-3570D01*
X-34401Y-3568D01*
X-34412Y-3559D01*
X-34423Y-3551D01*
X-34434Y-3546D01*
X-34444Y-3543D01*
X-34453Y-3540D01*
X-34460Y-3540D01*
X-34463Y-3539D01*
D02*
G37*
G36*
X-32059Y-5664D02*
X-32063D01*
X-32071Y-5665D01*
X-32078Y-5667D01*
X-32085Y-5670D01*
X-32091Y-5672D01*
X-32095Y-5676D01*
X-32098Y-5678D01*
X-32101Y-5681D01*
X-32101Y-5681D01*
X-32106Y-5688D01*
X-32111Y-5696D01*
X-32113Y-5704D01*
X-32116Y-5712D01*
X-32117Y-5718D01*
X-32117Y-5725D01*
X-32118Y-5727D01*
Y-5728D01*
Y-5729D01*
Y-5730D01*
X-32008D01*
X-32008Y-5719D01*
X-32010Y-5710D01*
X-32012Y-5701D01*
X-32016Y-5695D01*
X-32018Y-5689D01*
X-32021Y-5685D01*
X-32023Y-5682D01*
X-32023Y-5682D01*
X-32030Y-5676D01*
X-32036Y-5671D01*
X-32043Y-5668D01*
X-32049Y-5666D01*
X-32055Y-5665D01*
X-32059Y-5664D01*
D02*
G37*
G36*
X-32851Y-3413D02*
X-32969D01*
X-32976Y-3414D01*
X-32992D01*
X-32999Y-3415D01*
X-33003D01*
X-33006Y-3415D01*
X-33006D01*
X-33015Y-3418D01*
X-33023Y-3420D01*
X-33030Y-3423D01*
X-33035Y-3427D01*
X-33040Y-3431D01*
X-33043Y-3433D01*
X-33045Y-3435D01*
X-33046Y-3436D01*
X-33050Y-3442D01*
X-33054Y-3449D01*
X-33056Y-3456D01*
X-33058Y-3463D01*
X-33059Y-3469D01*
X-33060Y-3473D01*
Y-3476D01*
Y-3477D01*
X-33059Y-3486D01*
X-33058Y-3493D01*
X-33056Y-3500D01*
X-33055Y-3506D01*
X-33052Y-3510D01*
X-33050Y-3513D01*
X-33049Y-3515D01*
X-33049Y-3516D01*
X-33044Y-3521D01*
X-33040Y-3526D01*
X-33030Y-3532D01*
X-33026Y-3534D01*
X-33023Y-3536D01*
X-33020Y-3537D01*
X-33020D01*
X-33016Y-3538D01*
X-33010Y-3540D01*
X-33004Y-3540D01*
X-32998Y-3541D01*
X-32982Y-3542D01*
X-32966Y-3543D01*
X-32952Y-3543D01*
X-32851D01*
Y-3413D01*
D02*
G37*
G36*
X-32656Y-4188D02*
X-32660D01*
X-32668Y-4188D01*
X-32676Y-4190D01*
X-32682Y-4193D01*
X-32688Y-4196D01*
X-32692Y-4199D01*
X-32696Y-4202D01*
X-32698Y-4204D01*
X-32698Y-4205D01*
X-32703Y-4212D01*
X-32708Y-4219D01*
X-32711Y-4228D01*
X-32713Y-4235D01*
X-32714Y-4242D01*
X-32714Y-4248D01*
X-32715Y-4250D01*
Y-4251D01*
Y-4253D01*
Y-4253D01*
X-32605D01*
X-32606Y-4243D01*
X-32607Y-4233D01*
X-32610Y-4225D01*
X-32613Y-4218D01*
X-32616Y-4213D01*
X-32618Y-4209D01*
X-32620Y-4206D01*
X-32621Y-4205D01*
X-32627Y-4199D01*
X-32633Y-4195D01*
X-32640Y-4192D01*
X-32646Y-4190D01*
X-32652Y-4189D01*
X-32656Y-4188D01*
D02*
G37*
G36*
X-32059D02*
X-32063D01*
X-32071Y-4188D01*
X-32078Y-4190D01*
X-32085Y-4193D01*
X-32091Y-4196D01*
X-32095Y-4199D01*
X-32098Y-4202D01*
X-32101Y-4204D01*
X-32101Y-4205D01*
X-32106Y-4212D01*
X-32111Y-4219D01*
X-32113Y-4228D01*
X-32116Y-4235D01*
X-32117Y-4242D01*
X-32117Y-4248D01*
X-32118Y-4250D01*
Y-4251D01*
Y-4253D01*
Y-4253D01*
X-32008D01*
X-32008Y-4243D01*
X-32010Y-4233D01*
X-32012Y-4225D01*
X-32016Y-4218D01*
X-32018Y-4213D01*
X-32021Y-4209D01*
X-32023Y-4206D01*
X-32023Y-4205D01*
X-32030Y-4199D01*
X-32036Y-4195D01*
X-32043Y-4192D01*
X-32049Y-4190D01*
X-32055Y-4189D01*
X-32059Y-4188D01*
D02*
G37*
G36*
X-33866Y-4283D02*
X-33867D01*
Y-4298D01*
Y-4306D01*
X-33866Y-4314D01*
X-33866Y-4320D01*
X-33865Y-4325D01*
X-33864Y-4329D01*
X-33864Y-4331D01*
X-33863Y-4333D01*
Y-4333D01*
X-33862Y-4338D01*
X-33859Y-4343D01*
X-33856Y-4347D01*
X-33853Y-4351D01*
X-33851Y-4354D01*
X-33848Y-4356D01*
X-33847Y-4357D01*
X-33846Y-4357D01*
X-33839Y-4362D01*
X-33832Y-4365D01*
X-33826Y-4367D01*
X-33820Y-4369D01*
X-33815Y-4370D01*
X-33811Y-4370D01*
X-33808D01*
X-33802Y-4370D01*
X-33796Y-4369D01*
X-33791Y-4367D01*
X-33787Y-4365D01*
X-33783Y-4362D01*
X-33781Y-4361D01*
X-33779Y-4360D01*
X-33778Y-4359D01*
X-33774Y-4355D01*
X-33772Y-4350D01*
X-33770Y-4346D01*
X-33769Y-4341D01*
X-33768Y-4338D01*
X-33767Y-4335D01*
Y-4333D01*
Y-4333D01*
X-33768Y-4327D01*
X-33769Y-4322D01*
X-33772Y-4318D01*
X-33774Y-4314D01*
X-33777Y-4311D01*
X-33779Y-4309D01*
X-33781Y-4308D01*
X-33781Y-4307D01*
X-33786Y-4305D01*
X-33791Y-4302D01*
X-33798Y-4300D01*
X-33804Y-4298D01*
X-33811Y-4296D01*
X-33816Y-4295D01*
X-33818Y-4295D01*
X-33820Y-4294D01*
X-33821D01*
X-33832Y-4292D01*
X-33841Y-4290D01*
X-33849Y-4288D01*
X-33856Y-4286D01*
X-33861Y-4284D01*
X-33864Y-4284D01*
X-33866Y-4283D01*
D02*
G37*
G36*
X-34327Y-4188D02*
X-34331D01*
X-34339Y-4188D01*
X-34346Y-4190D01*
X-34353Y-4193D01*
X-34358Y-4196D01*
X-34363Y-4199D01*
X-34366Y-4202D01*
X-34368Y-4204D01*
X-34369Y-4205D01*
X-34374Y-4212D01*
X-34378Y-4219D01*
X-34381Y-4228D01*
X-34383Y-4235D01*
X-34384Y-4242D01*
X-34385Y-4248D01*
X-34386Y-4250D01*
Y-4251D01*
Y-4253D01*
Y-4253D01*
X-34276D01*
X-34276Y-4243D01*
X-34278Y-4233D01*
X-34280Y-4225D01*
X-34283Y-4218D01*
X-34286Y-4213D01*
X-34289Y-4209D01*
X-34291Y-4206D01*
X-34291Y-4205D01*
X-34297Y-4199D01*
X-34304Y-4195D01*
X-34311Y-4192D01*
X-34317Y-4190D01*
X-34322Y-4189D01*
X-34327Y-4188D01*
D02*
G37*
G36*
X-36103Y-4775D02*
X-36104D01*
Y-4790D01*
Y-4799D01*
X-36103Y-4806D01*
X-36103Y-4812D01*
X-36102Y-4817D01*
X-36102Y-4821D01*
X-36101Y-4824D01*
X-36100Y-4825D01*
Y-4825D01*
X-36099Y-4830D01*
X-36096Y-4835D01*
X-36093Y-4839D01*
X-36091Y-4843D01*
X-36088Y-4846D01*
X-36086Y-4848D01*
X-36084Y-4849D01*
X-36083Y-4850D01*
X-36077Y-4854D01*
X-36069Y-4857D01*
X-36063Y-4859D01*
X-36057Y-4861D01*
X-36052Y-4862D01*
X-36048Y-4862D01*
X-36045D01*
X-36039Y-4862D01*
X-36033Y-4861D01*
X-36028Y-4859D01*
X-36024Y-4857D01*
X-36020Y-4855D01*
X-36018Y-4853D01*
X-36016Y-4852D01*
X-36016Y-4851D01*
X-36012Y-4847D01*
X-36009Y-4842D01*
X-36007Y-4838D01*
X-36006Y-4834D01*
X-36005Y-4830D01*
X-36004Y-4827D01*
Y-4825D01*
Y-4825D01*
X-36005Y-4819D01*
X-36007Y-4814D01*
X-36009Y-4810D01*
X-36012Y-4806D01*
X-36014Y-4803D01*
X-36016Y-4801D01*
X-36018Y-4800D01*
X-36018Y-4799D01*
X-36023Y-4797D01*
X-36028Y-4794D01*
X-36035Y-4792D01*
X-36042Y-4790D01*
X-36048Y-4789D01*
X-36053Y-4787D01*
X-36056Y-4787D01*
X-36057Y-4786D01*
X-36058D01*
X-36069Y-4784D01*
X-36078Y-4782D01*
X-36087Y-4780D01*
X-36093Y-4778D01*
X-36098Y-4776D01*
X-36101Y-4776D01*
X-36103Y-4775D01*
D02*
G37*
G36*
X-32911D02*
X-32911D01*
Y-4790D01*
Y-4799D01*
X-32911Y-4806D01*
X-32910Y-4812D01*
X-32910Y-4817D01*
X-32909Y-4821D01*
X-32909Y-4824D01*
X-32908Y-4825D01*
Y-4825D01*
X-32906Y-4830D01*
X-32904Y-4835D01*
X-32901Y-4839D01*
X-32898Y-4843D01*
X-32895Y-4846D01*
X-32893Y-4848D01*
X-32891Y-4849D01*
X-32891Y-4850D01*
X-32884Y-4854D01*
X-32877Y-4857D01*
X-32871Y-4859D01*
X-32865Y-4861D01*
X-32860Y-4862D01*
X-32856Y-4862D01*
X-32853D01*
X-32847Y-4862D01*
X-32840Y-4861D01*
X-32835Y-4859D01*
X-32832Y-4857D01*
X-32828Y-4855D01*
X-32825Y-4853D01*
X-32824Y-4852D01*
X-32823Y-4851D01*
X-32819Y-4847D01*
X-32817Y-4842D01*
X-32815Y-4838D01*
X-32814Y-4834D01*
X-32813Y-4830D01*
X-32812Y-4827D01*
Y-4825D01*
Y-4825D01*
X-32813Y-4819D01*
X-32814Y-4814D01*
X-32817Y-4810D01*
X-32819Y-4806D01*
X-32822Y-4803D01*
X-32824Y-4801D01*
X-32825Y-4800D01*
X-32826Y-4799D01*
X-32830Y-4797D01*
X-32836Y-4794D01*
X-32843Y-4792D01*
X-32849Y-4790D01*
X-32856Y-4789D01*
X-32861Y-4787D01*
X-32863Y-4787D01*
X-32865Y-4786D01*
X-32866D01*
X-32877Y-4784D01*
X-32886Y-4782D01*
X-32894Y-4780D01*
X-32900Y-4778D01*
X-32905Y-4776D01*
X-32909Y-4776D01*
X-32911Y-4775D01*
D02*
G37*
G36*
X-35072Y-4680D02*
X-35076D01*
X-35084Y-4680D01*
X-35092Y-4683D01*
X-35098Y-4685D01*
X-35104Y-4688D01*
X-35108Y-4691D01*
X-35111Y-4694D01*
X-35114Y-4696D01*
X-35114Y-4697D01*
X-35119Y-4704D01*
X-35124Y-4711D01*
X-35126Y-4720D01*
X-35129Y-4728D01*
X-35130Y-4734D01*
X-35130Y-4740D01*
X-35131Y-4742D01*
Y-4744D01*
Y-4745D01*
Y-4745D01*
X-35021D01*
X-35022Y-4735D01*
X-35023Y-4725D01*
X-35025Y-4717D01*
X-35029Y-4710D01*
X-35032Y-4705D01*
X-35034Y-4701D01*
X-35036Y-4698D01*
X-35037Y-4698D01*
X-35043Y-4691D01*
X-35049Y-4687D01*
X-35056Y-4684D01*
X-35062Y-4682D01*
X-35068Y-4681D01*
X-35072Y-4680D01*
D02*
G37*
G36*
X-32106Y-4775D02*
X-32106D01*
Y-4790D01*
Y-4799D01*
X-32106Y-4806D01*
X-32105Y-4812D01*
X-32104Y-4817D01*
X-32104Y-4821D01*
X-32103Y-4824D01*
X-32103Y-4825D01*
Y-4825D01*
X-32101Y-4830D01*
X-32098Y-4835D01*
X-32096Y-4839D01*
X-32093Y-4843D01*
X-32090Y-4846D01*
X-32088Y-4848D01*
X-32086Y-4849D01*
X-32086Y-4850D01*
X-32079Y-4854D01*
X-32072Y-4857D01*
X-32066Y-4859D01*
X-32060Y-4861D01*
X-32055Y-4862D01*
X-32051Y-4862D01*
X-32047D01*
X-32041Y-4862D01*
X-32035Y-4861D01*
X-32030Y-4859D01*
X-32026Y-4857D01*
X-32022Y-4855D01*
X-32020Y-4853D01*
X-32018Y-4852D01*
X-32018Y-4851D01*
X-32014Y-4847D01*
X-32011Y-4842D01*
X-32010Y-4838D01*
X-32008Y-4834D01*
X-32007Y-4830D01*
X-32007Y-4827D01*
Y-4825D01*
Y-4825D01*
X-32007Y-4819D01*
X-32009Y-4814D01*
X-32011Y-4810D01*
X-32014Y-4806D01*
X-32016Y-4803D01*
X-32018Y-4801D01*
X-32020Y-4800D01*
X-32021Y-4799D01*
X-32025Y-4797D01*
X-32031Y-4794D01*
X-32037Y-4792D01*
X-32044Y-4790D01*
X-32051Y-4789D01*
X-32056Y-4787D01*
X-32058Y-4787D01*
X-32060Y-4786D01*
X-32061D01*
X-32072Y-4784D01*
X-32081Y-4782D01*
X-32089Y-4780D01*
X-32095Y-4778D01*
X-32100Y-4776D01*
X-32103Y-4776D01*
X-32106Y-4775D01*
D02*
G37*
G36*
X-11548Y168D02*
X-11628D01*
X-11636Y167D01*
X-11643Y167D01*
X-11649D01*
X-11655Y166D01*
X-11660Y165D01*
X-11664Y165D01*
X-11668Y164D01*
X-11670Y164D01*
X-11675Y163D01*
X-11678Y162D01*
X-11678D01*
X-11684Y160D01*
X-11689Y157D01*
X-11693Y154D01*
X-11696Y151D01*
X-11699Y149D01*
X-11701Y147D01*
X-11702Y145D01*
X-11703Y144D01*
X-11705Y139D01*
X-11708Y134D01*
X-11709Y130D01*
X-11710Y125D01*
X-11711Y121D01*
X-11711Y118D01*
Y115D01*
Y115D01*
X-11711Y108D01*
X-11710Y101D01*
X-11708Y95D01*
X-11706Y91D01*
X-11704Y87D01*
X-11702Y84D01*
X-11701Y83D01*
X-11700Y82D01*
X-11696Y78D01*
X-11691Y75D01*
X-11686Y72D01*
X-11682Y70D01*
X-11678Y69D01*
X-11675Y68D01*
X-11673Y67D01*
X-11672D01*
X-11670Y67D01*
X-11666D01*
X-11659Y66D01*
X-11650Y65D01*
X-11642D01*
X-11633Y65D01*
X-11548D01*
Y168D01*
D02*
G37*
G36*
X-10949Y325D02*
X-10951D01*
X-10956Y325D01*
X-10961Y324D01*
X-10964Y322D01*
X-10968Y321D01*
X-10971Y319D01*
X-10973Y318D01*
X-10974Y317D01*
X-10974Y316D01*
X-10978Y312D01*
X-10981Y307D01*
X-10984Y302D01*
X-10987Y296D01*
X-10988Y291D01*
X-10990Y286D01*
X-10991Y284D01*
X-10991Y283D01*
Y282D01*
X-10992Y278D01*
X-10993Y271D01*
X-10994Y264D01*
X-10995Y257D01*
X-10997Y242D01*
X-10997Y226D01*
X-10998Y219D01*
Y212D01*
X-10998Y206D01*
Y200D01*
Y196D01*
Y192D01*
Y190D01*
Y189D01*
Y177D01*
X-10998Y165D01*
Y155D01*
X-10997Y145D01*
X-10997Y137D01*
X-10996Y129D01*
X-10995Y122D01*
X-10994Y115D01*
X-10994Y110D01*
X-10993Y105D01*
X-10992Y102D01*
X-10992Y98D01*
X-10991Y96D01*
Y94D01*
X-10991Y93D01*
Y93D01*
X-10988Y85D01*
X-10985Y79D01*
X-10983Y73D01*
X-10981Y69D01*
X-10978Y66D01*
X-10976Y64D01*
X-10975Y63D01*
X-10974Y62D01*
X-10971Y59D01*
X-10967Y57D01*
X-10963Y56D01*
X-10959Y55D01*
X-10956Y54D01*
X-10953Y54D01*
X-10951D01*
X-10946Y54D01*
X-10942Y55D01*
X-10938Y57D01*
X-10934Y58D01*
X-10932Y59D01*
X-10929Y61D01*
X-10928Y62D01*
X-10928Y62D01*
X-10924Y66D01*
X-10921Y71D01*
X-10918Y77D01*
X-10916Y82D01*
X-10914Y87D01*
X-10912Y92D01*
X-10912Y94D01*
X-10911Y95D01*
X-10910Y101D01*
X-10909Y107D01*
X-10908Y114D01*
X-10907Y121D01*
X-10906Y137D01*
X-10906Y152D01*
X-10905Y159D01*
Y167D01*
X-10904Y173D01*
Y178D01*
Y183D01*
Y186D01*
Y189D01*
Y189D01*
Y201D01*
X-10905Y213D01*
Y223D01*
X-10906Y233D01*
X-10906Y241D01*
X-10907Y250D01*
X-10907Y256D01*
X-10908Y263D01*
X-10909Y269D01*
X-10909Y273D01*
X-10910Y277D01*
X-10911Y280D01*
X-10911Y282D01*
Y285D01*
X-10912Y285D01*
Y286D01*
X-10914Y294D01*
X-10917Y300D01*
X-10919Y305D01*
X-10922Y310D01*
X-10924Y312D01*
X-10926Y315D01*
X-10927Y316D01*
X-10927Y316D01*
X-10931Y319D01*
X-10936Y321D01*
X-10939Y323D01*
X-10943Y324D01*
X-10946Y325D01*
X-10949Y325D01*
D02*
G37*
G36*
X-31698Y-3413D02*
X-31816D01*
X-31823Y-3414D01*
X-31839D01*
X-31846Y-3415D01*
X-31851D01*
X-31853Y-3415D01*
X-31853D01*
X-31862Y-3418D01*
X-31871Y-3420D01*
X-31877Y-3423D01*
X-31882Y-3427D01*
X-31887Y-3431D01*
X-31890Y-3433D01*
X-31892Y-3435D01*
X-31893Y-3436D01*
X-31897Y-3442D01*
X-31901Y-3449D01*
X-31903Y-3456D01*
X-31905Y-3463D01*
X-31906Y-3469D01*
X-31907Y-3473D01*
Y-3476D01*
Y-3477D01*
X-31906Y-3486D01*
X-31905Y-3493D01*
X-31903Y-3500D01*
X-31902Y-3506D01*
X-31899Y-3510D01*
X-31897Y-3513D01*
X-31896Y-3515D01*
X-31896Y-3516D01*
X-31891Y-3521D01*
X-31887Y-3526D01*
X-31877Y-3532D01*
X-31873Y-3534D01*
X-31870Y-3536D01*
X-31868Y-3537D01*
X-31867D01*
X-31863Y-3538D01*
X-31857Y-3540D01*
X-31851Y-3540D01*
X-31845Y-3541D01*
X-31829Y-3542D01*
X-31814Y-3543D01*
X-31799Y-3543D01*
X-31698D01*
Y-3413D01*
D02*
G37*
G36*
X-11548Y320D02*
X-11625D01*
X-11631Y320D01*
X-11645D01*
X-11649Y319D01*
X-11655D01*
X-11657Y319D01*
X-11658D01*
X-11664Y317D01*
X-11670Y316D01*
X-11675Y314D01*
X-11680Y311D01*
X-11683Y309D01*
X-11685Y307D01*
X-11686Y306D01*
X-11687Y305D01*
X-11690Y301D01*
X-11693Y296D01*
X-11695Y291D01*
X-11696Y287D01*
X-11696Y282D01*
X-11697Y279D01*
Y277D01*
Y276D01*
X-11696Y270D01*
X-11695Y264D01*
X-11693Y259D01*
X-11691Y254D01*
X-11689Y250D01*
X-11687Y248D01*
X-11686Y246D01*
X-11685Y246D01*
X-11681Y242D01*
X-11676Y239D01*
X-11671Y237D01*
X-11666Y235D01*
X-11661Y234D01*
X-11658Y233D01*
X-11655Y233D01*
X-11652D01*
X-11649Y232D01*
X-11632D01*
X-11622Y231D01*
X-11548D01*
Y320D01*
D02*
G37*
G36*
X-32438Y-5126D02*
Y-5258D01*
X-32349D01*
X-32438Y-5126D01*
D02*
G37*
G36*
X-11260Y228D02*
X-11261D01*
X-11271Y227D01*
X-11280Y225D01*
X-11287Y221D01*
X-11294Y218D01*
X-11299Y214D01*
X-11302Y210D01*
X-11305Y208D01*
X-11305Y207D01*
X-11309Y203D01*
X-11311Y198D01*
X-11316Y187D01*
X-11319Y176D01*
X-11321Y164D01*
X-11322Y154D01*
X-11322Y149D01*
X-11323Y145D01*
Y142D01*
Y140D01*
Y138D01*
Y138D01*
X-11322Y123D01*
X-11320Y109D01*
X-11317Y98D01*
X-11314Y89D01*
X-11311Y82D01*
X-11308Y77D01*
X-11306Y74D01*
X-11305Y73D01*
X-11298Y66D01*
X-11291Y61D01*
X-11284Y57D01*
X-11277Y55D01*
X-11271Y53D01*
X-11266Y53D01*
X-11263Y52D01*
X-11262D01*
X-11256Y53D01*
X-11251Y53D01*
X-11241Y57D01*
X-11232Y61D01*
X-11225Y67D01*
X-11220Y72D01*
X-11216Y76D01*
X-11214Y79D01*
X-11213Y80D01*
Y80D01*
X-11210Y84D01*
X-11209Y89D01*
X-11205Y99D01*
X-11203Y110D01*
X-11202Y120D01*
X-11201Y130D01*
Y134D01*
X-11200Y138D01*
Y140D01*
Y143D01*
Y144D01*
Y145D01*
X-11201Y159D01*
X-11203Y172D01*
X-11206Y183D01*
X-11209Y191D01*
X-11212Y198D01*
X-11215Y203D01*
X-11217Y206D01*
X-11217Y207D01*
X-11225Y214D01*
X-11232Y219D01*
X-11239Y223D01*
X-11246Y225D01*
X-11252Y227D01*
X-11257Y228D01*
X-11260Y228D01*
D02*
G37*
G36*
X-12888Y325D02*
X-12890D01*
X-12895Y325D01*
X-12900Y324D01*
X-12904Y322D01*
X-12907Y321D01*
X-12910Y319D01*
X-12912Y318D01*
X-12913Y317D01*
X-12914Y316D01*
X-12917Y312D01*
X-12920Y307D01*
X-12923Y302D01*
X-12926Y296D01*
X-12927Y291D01*
X-12929Y286D01*
X-12930Y284D01*
X-12930Y283D01*
Y282D01*
X-12931Y278D01*
X-12932Y271D01*
X-12934Y264D01*
X-12935Y257D01*
X-12936Y242D01*
X-12936Y226D01*
X-12937Y219D01*
Y212D01*
X-12937Y206D01*
Y200D01*
Y196D01*
Y192D01*
Y190D01*
Y189D01*
Y177D01*
X-12937Y165D01*
Y155D01*
X-12936Y145D01*
X-12936Y137D01*
X-12935Y129D01*
X-12934Y122D01*
X-12934Y115D01*
X-12933Y110D01*
X-12932Y105D01*
X-12931Y102D01*
X-12931Y98D01*
X-12930Y96D01*
Y94D01*
X-12930Y93D01*
Y93D01*
X-12927Y85D01*
X-12925Y79D01*
X-12922Y73D01*
X-12920Y69D01*
X-12917Y66D01*
X-12915Y64D01*
X-12914Y63D01*
X-12914Y62D01*
X-12910Y59D01*
X-12906Y57D01*
X-12902Y56D01*
X-12898Y55D01*
X-12895Y54D01*
X-12892Y54D01*
X-12890D01*
X-12885Y54D01*
X-12881Y55D01*
X-12877Y57D01*
X-12874Y58D01*
X-12871Y59D01*
X-12869Y61D01*
X-12868Y62D01*
X-12867Y62D01*
X-12864Y66D01*
X-12860Y71D01*
X-12858Y77D01*
X-12855Y82D01*
X-12853Y87D01*
X-12851Y92D01*
X-12851Y94D01*
X-12850Y95D01*
X-12849Y101D01*
X-12848Y107D01*
X-12847Y114D01*
X-12846Y121D01*
X-12845Y137D01*
X-12845Y152D01*
X-12844Y159D01*
Y167D01*
X-12844Y173D01*
Y178D01*
Y183D01*
Y186D01*
Y189D01*
Y189D01*
Y201D01*
X-12844Y213D01*
Y223D01*
X-12845Y233D01*
X-12845Y241D01*
X-12846Y250D01*
X-12846Y256D01*
X-12848Y263D01*
X-12848Y269D01*
X-12849Y273D01*
X-12849Y277D01*
X-12850Y280D01*
X-12850Y282D01*
Y285D01*
X-12851Y285D01*
Y286D01*
X-12853Y294D01*
X-12856Y300D01*
X-12858Y305D01*
X-12861Y310D01*
X-12863Y312D01*
X-12865Y315D01*
X-12866Y316D01*
X-12866Y316D01*
X-12870Y319D01*
X-12875Y321D01*
X-12879Y323D01*
X-12882Y324D01*
X-12885Y325D01*
X-12888Y325D01*
D02*
G37*
G36*
X-31967Y-5075D02*
X-31970D01*
X-31975Y-5075D01*
X-31979Y-5076D01*
X-31983Y-5078D01*
X-31986Y-5079D01*
X-31989Y-5081D01*
X-31991Y-5082D01*
X-31992Y-5083D01*
X-31993Y-5084D01*
X-31996Y-5088D01*
X-32000Y-5093D01*
X-32002Y-5098D01*
X-32005Y-5104D01*
X-32007Y-5109D01*
X-32008Y-5114D01*
X-32009Y-5116D01*
X-32010Y-5117D01*
Y-5117D01*
X-32011Y-5123D01*
X-32012Y-5129D01*
X-32013Y-5136D01*
X-32014Y-5143D01*
X-32015Y-5158D01*
X-32016Y-5174D01*
X-32016Y-5181D01*
Y-5188D01*
X-32017Y-5194D01*
Y-5200D01*
Y-5204D01*
Y-5208D01*
Y-5210D01*
Y-5211D01*
Y-5223D01*
X-32016Y-5235D01*
Y-5245D01*
X-32016Y-5255D01*
X-32015Y-5263D01*
X-32015Y-5271D01*
X-32013Y-5278D01*
X-32013Y-5285D01*
X-32012Y-5290D01*
X-32011Y-5295D01*
X-32011Y-5298D01*
X-32010Y-5302D01*
X-32010Y-5304D01*
Y-5306D01*
X-32009Y-5307D01*
Y-5307D01*
X-32007Y-5315D01*
X-32004Y-5321D01*
X-32001Y-5327D01*
X-31999Y-5331D01*
X-31997Y-5334D01*
X-31995Y-5336D01*
X-31993Y-5337D01*
X-31993Y-5338D01*
X-31989Y-5341D01*
X-31985Y-5343D01*
X-31981Y-5344D01*
X-31977Y-5345D01*
X-31975Y-5346D01*
X-31972Y-5346D01*
X-31970D01*
X-31965Y-5346D01*
X-31960Y-5345D01*
X-31956Y-5343D01*
X-31953Y-5342D01*
X-31950Y-5341D01*
X-31948Y-5339D01*
X-31947Y-5338D01*
X-31946Y-5338D01*
X-31943Y-5334D01*
X-31940Y-5329D01*
X-31937Y-5323D01*
X-31934Y-5318D01*
X-31932Y-5313D01*
X-31931Y-5308D01*
X-31930Y-5306D01*
X-31930Y-5305D01*
X-31929Y-5299D01*
X-31927Y-5293D01*
X-31926Y-5286D01*
X-31926Y-5279D01*
X-31925Y-5263D01*
X-31924Y-5248D01*
X-31924Y-5241D01*
Y-5234D01*
X-31923Y-5227D01*
Y-5222D01*
Y-5217D01*
Y-5214D01*
Y-5211D01*
Y-5211D01*
Y-5199D01*
X-31924Y-5187D01*
Y-5177D01*
X-31924Y-5167D01*
X-31925Y-5159D01*
X-31925Y-5150D01*
X-31926Y-5144D01*
X-31927Y-5137D01*
X-31927Y-5131D01*
X-31928Y-5127D01*
X-31929Y-5123D01*
X-31929Y-5120D01*
X-31930Y-5117D01*
Y-5115D01*
X-31930Y-5115D01*
Y-5114D01*
X-31932Y-5106D01*
X-31935Y-5100D01*
X-31937Y-5095D01*
X-31940Y-5090D01*
X-31942Y-5088D01*
X-31944Y-5085D01*
X-31945Y-5084D01*
X-31946Y-5084D01*
X-31950Y-5081D01*
X-31954Y-5079D01*
X-31958Y-5077D01*
X-31962Y-5076D01*
X-31965Y-5075D01*
X-31967Y-5075D01*
D02*
G37*
%LPD*%
D30*
X-16500Y-9750D02*
X-16106D01*
X-16300Y-9944D02*
Y-9550D01*
X-14589Y-11925D02*
X-2181D01*
X-16799D02*
Y-5075D01*
X-16720D02*
X-2181D01*
Y-11925D02*
Y-5075D01*
D50*
X-17335Y-5135D02*
X-17168D01*
X-17135Y-5168D01*
Y-5235D01*
X-17168Y-5268D01*
X-17335D01*
X-17302Y-5335D02*
X-17335Y-5368D01*
Y-5435D01*
X-17302Y-5468D01*
X-17268D01*
X-17235Y-5435D01*
Y-5402D01*
Y-5435D01*
X-17202Y-5468D01*
X-17168D01*
X-17135Y-5435D01*
Y-5368D01*
X-17168Y-5335D01*
M02*
