G04 Layer_Color=16711935*
%FSLAX24Y24*%
%MOIN*%
G70*
G01*
G75*
%ADD35R,0.0394X0.0394*%
%ADD36C,0.0394*%
%ADD68C,0.0671*%
%ADD69O,0.1261X0.0710*%
%ADD70C,0.0867*%
%ADD71C,0.0946*%
%ADD72C,0.0720*%
%ADD73C,0.1261*%
%ADD74C,0.1852*%
%ADD75C,0.0400*%
D35*
X19980Y-25787D02*
D03*
D36*
Y-25287D02*
D03*
X20480Y-25787D02*
D03*
Y-25287D02*
D03*
X20980Y-25787D02*
D03*
Y-25287D02*
D03*
X21480Y-25787D02*
D03*
Y-25287D02*
D03*
X21980Y-25787D02*
D03*
Y-25287D02*
D03*
D68*
X-30807Y-26614D02*
D03*
Y-24055D02*
D03*
X-29035Y-26614D02*
D03*
Y-24055D02*
D03*
X9449Y-26614D02*
D03*
Y-24055D02*
D03*
X11220Y-26614D02*
D03*
Y-24055D02*
D03*
X-14961Y-26576D02*
D03*
Y-24017D02*
D03*
X-13189Y-26576D02*
D03*
Y-24017D02*
D03*
X-27756Y-26614D02*
D03*
Y-24055D02*
D03*
X-25984Y-26614D02*
D03*
Y-24055D02*
D03*
X12500Y-26614D02*
D03*
Y-24055D02*
D03*
X14272Y-26614D02*
D03*
Y-24055D02*
D03*
X-4429Y-26614D02*
D03*
Y-24055D02*
D03*
X-2657Y-26614D02*
D03*
Y-24055D02*
D03*
X-39250Y-25500D02*
D03*
X-36250D02*
D03*
D69*
X-12750Y-13089D02*
D03*
Y-13876D02*
D03*
Y-14663D02*
D03*
Y-15451D02*
D03*
Y-16238D02*
D03*
Y-17026D02*
D03*
Y-17813D02*
D03*
Y-18600D02*
D03*
Y-19388D02*
D03*
Y-20175D02*
D03*
Y-20963D02*
D03*
Y-21750D02*
D03*
X-5250Y-21911D02*
D03*
Y-21124D02*
D03*
Y-20337D02*
D03*
Y-19549D02*
D03*
Y-18762D02*
D03*
Y-17974D02*
D03*
Y-17187D02*
D03*
Y-16400D02*
D03*
Y-15612D02*
D03*
Y-14825D02*
D03*
Y-14037D02*
D03*
Y-13250D02*
D03*
D70*
X-9055Y0D02*
D03*
X-15730Y-8500D02*
D03*
X-3250D02*
D03*
D71*
X-10055Y1000D02*
D03*
X-8055D02*
D03*
Y-1000D02*
D03*
X-10055D02*
D03*
D72*
X-9718Y-25594D02*
D03*
X-7998D02*
D03*
D73*
X-15608Y-11299D02*
D03*
D74*
X-18110Y-21260D02*
D03*
X-39370D02*
D03*
X-18110Y0D02*
D03*
X-39370D02*
D03*
X0D02*
D03*
X21260D02*
D03*
X0Y-21260D02*
D03*
X21260D02*
D03*
D75*
X-7874Y-4528D02*
D03*
X-8465Y-3937D02*
D03*
Y-3346D02*
D03*
X-7874Y-2953D02*
D03*
Y-2362D02*
D03*
Y-1772D02*
D03*
X-8465D02*
D03*
X-9646D02*
D03*
Y-2362D02*
D03*
Y-3150D02*
D03*
Y-3937D02*
D03*
Y-4528D02*
D03*
M02*
