G04 Layer_Physical_Order=2*
G04 Layer_Color=16711680*
%FSLAX24Y24*%
%MOIN*%
G70*
G01*
G75*
%ADD30C,0.0080*%
%ADD31C,0.0120*%
%ADD32C,0.0060*%
%ADD33C,0.0200*%
%ADD35R,0.0394X0.0394*%
%ADD36C,0.0394*%
%ADD37C,0.0591*%
%ADD38O,0.1181X0.0630*%
%ADD39C,0.0787*%
%ADD40C,0.0866*%
%ADD41C,0.1181*%
%ADD42C,0.1772*%
%ADD43C,0.0320*%
%ADD44C,0.0500*%
%ADD45C,0.0260*%
G36*
X-2595Y-26173D02*
X-2607Y-26198D01*
Y-26614D01*
X-2657D01*
Y-26664D01*
X-3050D01*
X-3043Y-26717D01*
X-3003Y-26814D01*
X-2969Y-26857D01*
X-2994Y-26907D01*
X-3489D01*
X-3868Y-26528D01*
Y-26401D01*
X-3868Y-26401D01*
X-3877Y-26358D01*
X-3901Y-26322D01*
X-3901Y-26322D01*
X-4051Y-26172D01*
X-4032Y-26126D01*
X-2643D01*
X-2595Y-26173D01*
D02*
G37*
G36*
X22712Y-27165D02*
Y-27437D01*
X5670D01*
X5651Y-27391D01*
X6622Y-26419D01*
X6622Y-26419D01*
X6647Y-26383D01*
X6655Y-26340D01*
Y-23316D01*
X6701Y-23297D01*
X7373Y-23968D01*
X7409Y-23993D01*
X7452Y-24001D01*
X7452Y-24001D01*
X9050D01*
X9083Y-24039D01*
X9080Y-24055D01*
X9093Y-24150D01*
X9130Y-24239D01*
X9188Y-24316D01*
X9265Y-24374D01*
X9353Y-24411D01*
X9449Y-24424D01*
X9544Y-24411D01*
X9633Y-24374D01*
X9709Y-24316D01*
X9768Y-24239D01*
X9805Y-24150D01*
X9817Y-24055D01*
X9805Y-23960D01*
X9768Y-23871D01*
X9709Y-23795D01*
X9633Y-23736D01*
X9544Y-23699D01*
X9449Y-23687D01*
X9353Y-23699D01*
X9265Y-23736D01*
X9211Y-23777D01*
X7498D01*
X6805Y-23083D01*
Y-14220D01*
X7166Y-13859D01*
X7166Y-13859D01*
X7190Y-13822D01*
X7199Y-13780D01*
Y-13583D01*
X7205Y-13574D01*
X7223Y-13484D01*
X7205Y-13395D01*
X7189Y-13371D01*
X7212Y-13326D01*
X7656D01*
X7751Y-13421D01*
X7738Y-13484D01*
X7753Y-13559D01*
X7713Y-13592D01*
X7712Y-13592D01*
X7668Y-13563D01*
X7579Y-13545D01*
X7489Y-13563D01*
X7413Y-13614D01*
X7362Y-13690D01*
X7344Y-13780D01*
X7362Y-13869D01*
X7413Y-13945D01*
X7467Y-13981D01*
Y-18967D01*
X7467Y-18967D01*
X7475Y-19010D01*
X7499Y-19046D01*
X12240Y-23787D01*
X12239Y-23795D01*
X12181Y-23871D01*
X12144Y-23960D01*
X12132Y-24055D01*
X12144Y-24150D01*
X12181Y-24239D01*
X12239Y-24316D01*
X12316Y-24374D01*
X12389Y-24404D01*
Y-26265D01*
X12316Y-26295D01*
X12239Y-26354D01*
X12181Y-26430D01*
X12144Y-26519D01*
X12132Y-26614D01*
X12144Y-26710D01*
X12181Y-26798D01*
X12239Y-26875D01*
X12316Y-26933D01*
X12405Y-26970D01*
X12500Y-26983D01*
X12595Y-26970D01*
X12684Y-26933D01*
X12761Y-26875D01*
X12819Y-26798D01*
X12856Y-26710D01*
X12868Y-26614D01*
X12856Y-26519D01*
X12819Y-26430D01*
X12761Y-26354D01*
X12684Y-26295D01*
X12613Y-26266D01*
Y-24404D01*
X12684Y-24374D01*
X12761Y-24316D01*
X12819Y-24239D01*
X12856Y-24150D01*
X12868Y-24055D01*
X12856Y-23960D01*
X12819Y-23871D01*
X12761Y-23795D01*
X12684Y-23736D01*
X12595Y-23699D01*
X12500Y-23687D01*
X12462Y-23692D01*
X7691Y-18920D01*
Y-13981D01*
X7745Y-13945D01*
X7795Y-13869D01*
X7813Y-13780D01*
X7798Y-13705D01*
X7838Y-13672D01*
X7839Y-13672D01*
X7883Y-13701D01*
X7972Y-13719D01*
X8062Y-13701D01*
X8138Y-13650D01*
X8189Y-13574D01*
X8207Y-13484D01*
X8189Y-13395D01*
X8138Y-13318D01*
X8062Y-13268D01*
X7972Y-13250D01*
X7909Y-13262D01*
X7869Y-13223D01*
X7889Y-13176D01*
X8506D01*
X8506Y-13176D01*
X8549Y-13168D01*
X8585Y-13144D01*
X8679Y-13050D01*
X8725Y-13074D01*
X8722Y-13091D01*
X8740Y-13180D01*
X8791Y-13256D01*
X8867Y-13307D01*
X8887Y-13311D01*
Y-13362D01*
X8867Y-13366D01*
X8791Y-13417D01*
X8740Y-13493D01*
X8722Y-13583D01*
X8740Y-13672D01*
X8791Y-13749D01*
X8800Y-13755D01*
Y-13805D01*
X8791Y-13811D01*
X8740Y-13887D01*
X8722Y-13976D01*
X8740Y-14066D01*
X8791Y-14142D01*
X8867Y-14193D01*
X8957Y-14211D01*
X9046Y-14193D01*
X9123Y-14142D01*
X9158Y-14089D01*
X9936D01*
X9972Y-14142D01*
X10048Y-14193D01*
X10138Y-14211D01*
X10228Y-14193D01*
X10304Y-14142D01*
X10354Y-14066D01*
X10372Y-13976D01*
X10354Y-13887D01*
X10304Y-13811D01*
X10228Y-13760D01*
X10231Y-13709D01*
X10256Y-13672D01*
X10274Y-13583D01*
X10256Y-13493D01*
X10231Y-13456D01*
X10228Y-13406D01*
X10304Y-13355D01*
X10354Y-13279D01*
X10372Y-13189D01*
X10354Y-13099D01*
X10304Y-13023D01*
X10228Y-12972D01*
X10138Y-12954D01*
X10048Y-12972D01*
X9972Y-13023D01*
X9936Y-13077D01*
X9188D01*
X9173Y-13001D01*
X9123Y-12925D01*
X9046Y-12874D01*
X8957Y-12856D01*
X8940Y-12859D01*
X8916Y-12813D01*
X11253Y-10476D01*
X11253Y-10476D01*
X11277Y-10440D01*
X11286Y-10397D01*
Y-9205D01*
X11286Y-9205D01*
X11277Y-9162D01*
X11253Y-9126D01*
X11253Y-9126D01*
X10458Y-8331D01*
X10471Y-8268D01*
X10453Y-8178D01*
X10402Y-8102D01*
X10326Y-8051D01*
X10236Y-8033D01*
X10146Y-8051D01*
X10070Y-8102D01*
X10020Y-8178D01*
X10002Y-8268D01*
X10020Y-8357D01*
X10070Y-8434D01*
X10146Y-8484D01*
X10166Y-8488D01*
Y-8539D01*
X10146Y-8543D01*
X10070Y-8594D01*
X10020Y-8670D01*
X10002Y-8760D01*
X10020Y-8850D01*
X10070Y-8926D01*
X10146Y-8977D01*
X10236Y-8994D01*
X10300Y-8982D01*
X10911Y-9594D01*
Y-10288D01*
X8398Y-12802D01*
X4310D01*
X4310Y-12802D01*
X4267Y-12811D01*
X4231Y-12835D01*
X3070Y-13995D01*
X3046Y-14032D01*
X3037Y-14075D01*
X3037Y-14075D01*
Y-15603D01*
X2513Y-16128D01*
X-2912D01*
X-4317Y-14723D01*
Y-14469D01*
X-4317Y-14468D01*
X-4326Y-14426D01*
X-4350Y-14389D01*
X-4350Y-14389D01*
X-4600Y-14139D01*
X-4599Y-14138D01*
X-4586Y-14037D01*
X-4599Y-13937D01*
X-4638Y-13843D01*
X-4700Y-13763D01*
X-4780Y-13701D01*
X-4854Y-13671D01*
Y-13617D01*
X-4780Y-13586D01*
X-4700Y-13525D01*
X-4638Y-13444D01*
X-4599Y-13350D01*
X-4586Y-13250D01*
X-4599Y-13149D01*
X-4638Y-13056D01*
X-4700Y-12975D01*
X-4780Y-12914D01*
X-4874Y-12875D01*
X-4974Y-12862D01*
X-5526D01*
X-5626Y-12875D01*
X-5720Y-12914D01*
X-5800Y-12975D01*
X-5862Y-13056D01*
X-5901Y-13149D01*
X-5914Y-13250D01*
X-5901Y-13350D01*
X-5862Y-13444D01*
X-5800Y-13525D01*
X-5720Y-13586D01*
X-5646Y-13617D01*
Y-13671D01*
X-5720Y-13701D01*
X-5800Y-13763D01*
X-5862Y-13843D01*
X-5901Y-13937D01*
X-5914Y-14037D01*
X-5901Y-14138D01*
X-5862Y-14232D01*
X-5800Y-14312D01*
X-5720Y-14374D01*
X-5686Y-14388D01*
Y-14442D01*
X-5735Y-14462D01*
X-5822Y-14529D01*
X-5888Y-14616D01*
X-5930Y-14716D01*
X-5938Y-14775D01*
X-5250D01*
Y-14875D01*
X-5938D01*
X-5930Y-14933D01*
X-5888Y-15034D01*
X-5822Y-15121D01*
X-5735Y-15187D01*
X-5686Y-15208D01*
Y-15262D01*
X-5720Y-15276D01*
X-5800Y-15338D01*
X-5862Y-15418D01*
X-5901Y-15512D01*
X-5914Y-15612D01*
X-5901Y-15713D01*
X-5862Y-15806D01*
X-5800Y-15887D01*
X-5720Y-15948D01*
X-5646Y-15979D01*
Y-16033D01*
X-5720Y-16063D01*
X-5800Y-16125D01*
X-5862Y-16205D01*
X-5901Y-16299D01*
X-5914Y-16400D01*
X-5901Y-16500D01*
X-5862Y-16594D01*
X-5800Y-16674D01*
X-5720Y-16736D01*
X-5686Y-16750D01*
Y-16804D01*
X-5735Y-16825D01*
X-5822Y-16891D01*
X-5888Y-16978D01*
X-5930Y-17079D01*
X-5938Y-17137D01*
X-5250D01*
X-4562D01*
X-4570Y-17079D01*
X-4612Y-16978D01*
X-4678Y-16891D01*
X-4765Y-16825D01*
X-4814Y-16804D01*
Y-16750D01*
X-4780Y-16736D01*
X-4700Y-16674D01*
X-4638Y-16594D01*
X-4604Y-16512D01*
X2612D01*
X2612Y-16512D01*
X2655Y-16503D01*
X2691Y-16479D01*
X3426Y-15744D01*
X3426Y-15744D01*
X3450Y-15708D01*
X3459Y-15665D01*
X3459Y-15665D01*
Y-14137D01*
X4419Y-13176D01*
X6555D01*
X6574Y-13223D01*
X6370Y-13426D01*
X6322Y-13412D01*
X6319Y-13395D01*
X6268Y-13318D01*
X6192Y-13268D01*
X6102Y-13250D01*
X6013Y-13268D01*
X5937Y-13318D01*
X5886Y-13395D01*
X5868Y-13484D01*
X5886Y-13574D01*
X5915Y-13618D01*
X5915Y-13618D01*
X5882Y-13658D01*
X5807Y-13643D01*
X5732Y-13658D01*
X5699Y-13618D01*
X5699Y-13618D01*
X5728Y-13574D01*
X5746Y-13484D01*
X5728Y-13395D01*
X5678Y-13318D01*
X5602Y-13268D01*
X5512Y-13250D01*
X5422Y-13268D01*
X5346Y-13318D01*
X5295Y-13395D01*
X5277Y-13484D01*
X5295Y-13574D01*
X5324Y-13618D01*
X5324Y-13618D01*
X5291Y-13658D01*
X5217Y-13643D01*
X5142Y-13658D01*
X5109Y-13618D01*
X5109Y-13618D01*
X5138Y-13574D01*
X5156Y-13484D01*
X5138Y-13395D01*
X5087Y-13318D01*
X5011Y-13268D01*
X4921Y-13250D01*
X4832Y-13268D01*
X4755Y-13318D01*
X4705Y-13395D01*
X4687Y-13484D01*
X4705Y-13574D01*
X4734Y-13618D01*
X4734Y-13618D01*
X4701Y-13658D01*
X4626Y-13643D01*
X4536Y-13661D01*
X4460Y-13712D01*
X4409Y-13788D01*
X4391Y-13878D01*
X4409Y-13968D01*
X4415Y-13977D01*
Y-15748D01*
X4415Y-15748D01*
X4424Y-15791D01*
X4448Y-15827D01*
X5203Y-16582D01*
Y-25971D01*
X-1627D01*
X-2263Y-25334D01*
X-2299Y-25310D01*
X-2342Y-25301D01*
X-2342Y-25301D01*
X-4864D01*
X-4864Y-25301D01*
X-4907Y-25310D01*
X-4944Y-25334D01*
X-4944Y-25334D01*
X-5678Y-26069D01*
X-10241D01*
X-10255Y-26048D01*
X-10255Y-26048D01*
X-11276Y-25027D01*
X-11312Y-25003D01*
X-11355Y-24995D01*
X-11355Y-24995D01*
X-19150D01*
X-19193Y-25003D01*
X-19229Y-25027D01*
X-19229Y-25027D01*
X-19989Y-25787D01*
X-20468D01*
X-20503Y-25733D01*
X-20580Y-25682D01*
X-20669Y-25664D01*
X-20759Y-25682D01*
X-20835Y-25733D01*
X-20886Y-25809D01*
X-20904Y-25899D01*
X-20886Y-25989D01*
X-20835Y-26065D01*
X-20759Y-26115D01*
X-20669Y-26133D01*
X-20580Y-26115D01*
X-20503Y-26065D01*
X-20468Y-26011D01*
X-19942D01*
X-19942Y-26011D01*
X-19899Y-26002D01*
X-19863Y-25978D01*
X-19758Y-25874D01*
X-19710Y-25888D01*
X-19705Y-25917D01*
X-19654Y-25993D01*
X-19578Y-26043D01*
X-19488Y-26061D01*
X-19398Y-26043D01*
X-19322Y-25993D01*
X-19287Y-25939D01*
X-18768D01*
X-18768Y-25939D01*
X-18725Y-25930D01*
X-18688Y-25906D01*
X-18617Y-25834D01*
X-18569Y-25849D01*
X-18563Y-25877D01*
X-18512Y-25953D01*
X-18436Y-26004D01*
X-18346Y-26022D01*
X-18257Y-26004D01*
X-18181Y-25953D01*
X-18145Y-25900D01*
X-17484D01*
X-17484Y-25900D01*
X-17441Y-25891D01*
X-17405Y-25867D01*
X-17372Y-25834D01*
X-17325Y-25849D01*
X-17319Y-25877D01*
X-17268Y-25953D01*
X-17192Y-26004D01*
X-17102Y-26022D01*
X-17013Y-26004D01*
X-16937Y-25953D01*
X-16901Y-25900D01*
X-11996D01*
X-11996Y-25900D01*
X-11953Y-25891D01*
X-11929Y-25875D01*
X-11876Y-25889D01*
X-11870Y-25917D01*
X-11819Y-25993D01*
X-11743Y-26043D01*
X-11654Y-26061D01*
X-11590Y-26049D01*
X-11446Y-26193D01*
X-11478Y-26232D01*
X-11524Y-26201D01*
X-11614Y-26183D01*
X-11704Y-26201D01*
X-11780Y-26251D01*
X-11831Y-26328D01*
X-11849Y-26417D01*
X-11831Y-26507D01*
X-11780Y-26583D01*
X-11704Y-26634D01*
X-11614Y-26652D01*
X-11551Y-26639D01*
X-11142Y-27048D01*
X-11142Y-27048D01*
X-11106Y-27072D01*
X-11063Y-27081D01*
X-11063Y-27081D01*
X-5359D01*
X-5359Y-27081D01*
X-5316Y-27072D01*
X-5279Y-27048D01*
X-4845Y-26614D01*
X-4795Y-26634D01*
X-4785Y-26710D01*
X-4748Y-26798D01*
X-4690Y-26875D01*
X-4613Y-26933D01*
X-4524Y-26970D01*
X-4429Y-26983D01*
X-4334Y-26970D01*
X-4245Y-26933D01*
X-4208Y-26905D01*
X-3873Y-27241D01*
X-3892Y-27287D01*
X-14233D01*
X-14693Y-26827D01*
X-14642Y-26760D01*
X-14605Y-26671D01*
X-14592Y-26576D01*
X-14605Y-26480D01*
X-14642Y-26391D01*
X-14700Y-26315D01*
X-14776Y-26257D01*
X-14802Y-26246D01*
X-14807Y-26240D01*
X-14843Y-26215D01*
X-14886Y-26207D01*
X-14917Y-26213D01*
X-14961Y-26207D01*
X-15056Y-26220D01*
X-15145Y-26257D01*
X-15221Y-26315D01*
X-15280Y-26391D01*
X-15316Y-26480D01*
X-15329Y-26576D01*
X-15316Y-26671D01*
X-15280Y-26760D01*
X-15221Y-26836D01*
X-15145Y-26895D01*
X-15056Y-26932D01*
X-14961Y-26944D01*
X-14901Y-26936D01*
X-14447Y-27391D01*
X-14466Y-27437D01*
X-40823D01*
Y1452D01*
X22712D01*
Y-27165D01*
D02*
G37*
%LPC*%
G36*
X-7998Y-25221D02*
X-8095Y-25234D01*
X-8185Y-25271D01*
X-8262Y-25330D01*
X-8321Y-25408D01*
X-8359Y-25498D01*
X-8371Y-25594D01*
X-8359Y-25691D01*
X-8321Y-25781D01*
X-8262Y-25858D01*
X-8185Y-25917D01*
X-8095Y-25955D01*
X-7998Y-25967D01*
X-7902Y-25955D01*
X-7812Y-25917D01*
X-7734Y-25858D01*
X-7675Y-25781D01*
X-7638Y-25691D01*
X-7625Y-25594D01*
X-7638Y-25498D01*
X-7675Y-25408D01*
X-7734Y-25330D01*
X-7812Y-25271D01*
X-7902Y-25234D01*
X-7998Y-25221D01*
D02*
G37*
G36*
X-35858Y-25550D02*
X-36200D01*
Y-25892D01*
X-36147Y-25885D01*
X-36051Y-25845D01*
X-35968Y-25782D01*
X-35905Y-25699D01*
X-35865Y-25603D01*
X-35858Y-25550D01*
D02*
G37*
G36*
X-36300D02*
X-36642D01*
X-36635Y-25603D01*
X-36595Y-25699D01*
X-36532Y-25782D01*
X-36449Y-25845D01*
X-36353Y-25885D01*
X-36300Y-25892D01*
Y-25550D01*
D02*
G37*
G36*
X11270Y-26222D02*
Y-26564D01*
X11613D01*
X11606Y-26511D01*
X11566Y-26415D01*
X11502Y-26332D01*
X11420Y-26269D01*
X11324Y-26229D01*
X11270Y-26222D01*
D02*
G37*
G36*
X11170Y-26222D02*
X11117Y-26229D01*
X11021Y-26269D01*
X10939Y-26332D01*
X10875Y-26415D01*
X10835Y-26511D01*
X10828Y-26564D01*
X11170D01*
Y-26222D01*
D02*
G37*
G36*
X-13239Y-26184D02*
X-13292Y-26191D01*
X-13388Y-26230D01*
X-13471Y-26294D01*
X-13534Y-26376D01*
X-13574Y-26472D01*
X-13581Y-26526D01*
X-13239D01*
Y-26184D01*
D02*
G37*
G36*
X-9718Y-25221D02*
X-9815Y-25234D01*
X-9905Y-25271D01*
X-9982Y-25330D01*
X-10041Y-25408D01*
X-10079Y-25498D01*
X-10091Y-25594D01*
X-10079Y-25691D01*
X-10041Y-25781D01*
X-9982Y-25858D01*
X-9905Y-25917D01*
X-9815Y-25955D01*
X-9718Y-25967D01*
X-9622Y-25955D01*
X-9532Y-25917D01*
X-9454Y-25858D01*
X-9395Y-25781D01*
X-9358Y-25691D01*
X-9345Y-25594D01*
X-9358Y-25498D01*
X-9395Y-25408D01*
X-9454Y-25330D01*
X-9532Y-25271D01*
X-9622Y-25234D01*
X-9718Y-25221D01*
D02*
G37*
G36*
X-13139Y-26184D02*
Y-26526D01*
X-12797D01*
X-12804Y-26472D01*
X-12844Y-26376D01*
X-12907Y-26294D01*
X-12990Y-26230D01*
X-13086Y-26191D01*
X-13139Y-26184D01*
D02*
G37*
G36*
X-39250Y-25132D02*
X-39345Y-25144D01*
X-39434Y-25181D01*
X-39511Y-25239D01*
X-39569Y-25316D01*
X-39606Y-25405D01*
X-39618Y-25500D01*
X-39606Y-25595D01*
X-39569Y-25684D01*
X-39511Y-25761D01*
X-39434Y-25819D01*
X-39345Y-25856D01*
X-39250Y-25868D01*
X-39155Y-25856D01*
X-39066Y-25819D01*
X-38989Y-25761D01*
X-38931Y-25684D01*
X-38894Y-25595D01*
X-38882Y-25500D01*
X-38894Y-25405D01*
X-38931Y-25316D01*
X-38989Y-25239D01*
X-39066Y-25181D01*
X-39155Y-25144D01*
X-39250Y-25132D01*
D02*
G37*
G36*
X-28643Y-24105D02*
X-28985D01*
Y-24447D01*
X-28932Y-24440D01*
X-28836Y-24400D01*
X-28754Y-24337D01*
X-28690Y-24254D01*
X-28650Y-24158D01*
X-28643Y-24105D01*
D02*
G37*
G36*
X-2265Y-24105D02*
X-2607D01*
Y-24447D01*
X-2554Y-24440D01*
X-2458Y-24400D01*
X-2376Y-24337D01*
X-2312Y-24254D01*
X-2272Y-24158D01*
X-2265Y-24105D01*
D02*
G37*
G36*
X14222Y-24105D02*
X13880D01*
X13887Y-24158D01*
X13926Y-24254D01*
X13990Y-24337D01*
X14072Y-24400D01*
X14168Y-24440D01*
X14222Y-24447D01*
Y-24105D01*
D02*
G37*
G36*
X-29085Y-24105D02*
X-29428D01*
X-29421Y-24158D01*
X-29381Y-24254D01*
X-29317Y-24337D01*
X-29235Y-24400D01*
X-29139Y-24440D01*
X-29085Y-24447D01*
Y-24105D01*
D02*
G37*
G36*
X14664Y-24105D02*
X14322D01*
Y-24447D01*
X14375Y-24440D01*
X14471Y-24400D01*
X14554Y-24337D01*
X14617Y-24254D01*
X14657Y-24158D01*
X14664Y-24105D01*
D02*
G37*
G36*
X-36200Y-25108D02*
Y-25450D01*
X-35858D01*
X-35865Y-25397D01*
X-35905Y-25301D01*
X-35968Y-25218D01*
X-36051Y-25155D01*
X-36147Y-25115D01*
X-36200Y-25108D01*
D02*
G37*
G36*
X-36300D02*
X-36353Y-25115D01*
X-36449Y-25155D01*
X-36532Y-25218D01*
X-36595Y-25301D01*
X-36635Y-25397D01*
X-36642Y-25450D01*
X-36300D01*
Y-25108D01*
D02*
G37*
G36*
X19882Y-23781D02*
X19792Y-23799D01*
X19716Y-23850D01*
X19665Y-23926D01*
X19647Y-24016D01*
X19665Y-24105D01*
X19716Y-24182D01*
X19792Y-24232D01*
X19882Y-24250D01*
X19972Y-24232D01*
X20048Y-24182D01*
X20084Y-24128D01*
X20859D01*
X21792Y-25061D01*
X21790Y-25097D01*
X21760Y-25136D01*
X21750Y-25139D01*
X21710D01*
X21700Y-25136D01*
X21671Y-25097D01*
X21615Y-25054D01*
X21550Y-25027D01*
X21480Y-25018D01*
X21411Y-25027D01*
X21346Y-25054D01*
X21290Y-25097D01*
X21260Y-25136D01*
X21250Y-25139D01*
X21210D01*
X21200Y-25136D01*
X21171Y-25097D01*
X21115Y-25054D01*
X21050Y-25027D01*
X20980Y-25018D01*
X20911Y-25027D01*
X20846Y-25054D01*
X20790Y-25097D01*
X20760Y-25136D01*
X20750Y-25139D01*
X20710D01*
X20700Y-25136D01*
X20671Y-25097D01*
X20615Y-25054D01*
X20550Y-25027D01*
X20480Y-25018D01*
X20411Y-25027D01*
X20346Y-25054D01*
X20290Y-25097D01*
X20260Y-25136D01*
X20250Y-25139D01*
X20210D01*
X20200Y-25136D01*
X20171Y-25097D01*
X20115Y-25054D01*
X20050Y-25027D01*
X19980Y-25018D01*
X19911Y-25027D01*
X19846Y-25054D01*
X19790Y-25097D01*
X19747Y-25153D01*
X19720Y-25218D01*
X19711Y-25287D01*
X19720Y-25357D01*
X19747Y-25422D01*
X19784Y-25471D01*
X19778Y-25498D01*
X19764Y-25521D01*
X19713D01*
Y-26054D01*
X20247D01*
Y-26046D01*
X20297Y-26021D01*
X20331Y-26047D01*
X20403Y-26077D01*
X20430Y-26080D01*
Y-25787D01*
X20530D01*
Y-26080D01*
X20558Y-26077D01*
X20630Y-26047D01*
X20692Y-25999D01*
X20705Y-25982D01*
X20755D01*
X20769Y-25999D01*
X20831Y-26047D01*
X20903Y-26077D01*
X20930Y-26080D01*
Y-25787D01*
X21030D01*
Y-26080D01*
X21058Y-26077D01*
X21130Y-26047D01*
X21192Y-25999D01*
X21218Y-25966D01*
X21280Y-25965D01*
X21290Y-25978D01*
X21346Y-26021D01*
X21411Y-26047D01*
X21480Y-26057D01*
X21550Y-26047D01*
X21615Y-26021D01*
X21671Y-25978D01*
X21700Y-25939D01*
X21710Y-25936D01*
X21750D01*
X21760Y-25939D01*
X21790Y-25978D01*
X21846Y-26021D01*
X21911Y-26047D01*
X21980Y-26057D01*
X22050Y-26047D01*
X22115Y-26021D01*
X22171Y-25978D01*
X22213Y-25922D01*
X22240Y-25857D01*
X22249Y-25787D01*
X22240Y-25718D01*
X22213Y-25653D01*
X22171Y-25597D01*
X22132Y-25568D01*
X22128Y-25557D01*
Y-25517D01*
X22132Y-25507D01*
X22171Y-25478D01*
X22213Y-25422D01*
X22229Y-25385D01*
X22256Y-25367D01*
X22281Y-25330D01*
X22289Y-25287D01*
X22281Y-25244D01*
X22256Y-25208D01*
X22222Y-25174D01*
X22213Y-25153D01*
X22171Y-25097D01*
X22115Y-25054D01*
X22094Y-25046D01*
X20985Y-23936D01*
X20948Y-23912D01*
X20906Y-23904D01*
X20906Y-23904D01*
X20084D01*
X20048Y-23850D01*
X19972Y-23799D01*
X19882Y-23781D01*
D02*
G37*
G36*
X-26034Y-24105D02*
X-26376D01*
X-26369Y-24158D01*
X-26330Y-24254D01*
X-26266Y-24337D01*
X-26184Y-24400D01*
X-26087Y-24440D01*
X-26034Y-24447D01*
Y-24105D01*
D02*
G37*
G36*
X11613Y-24105D02*
X11270D01*
Y-24447D01*
X11324Y-24440D01*
X11420Y-24400D01*
X11502Y-24337D01*
X11566Y-24254D01*
X11606Y-24158D01*
X11613Y-24105D01*
D02*
G37*
G36*
X-2707Y-26222D02*
X-2761Y-26229D01*
X-2857Y-26269D01*
X-2939Y-26332D01*
X-3003Y-26415D01*
X-3043Y-26511D01*
X-3050Y-26564D01*
X-2707D01*
Y-26222D01*
D02*
G37*
G36*
X-25592Y-26664D02*
X-25934D01*
Y-27006D01*
X-25881Y-26999D01*
X-25785Y-26959D01*
X-25702Y-26896D01*
X-25639Y-26814D01*
X-25599Y-26717D01*
X-25592Y-26664D01*
D02*
G37*
G36*
X-29085Y-26664D02*
X-29428D01*
X-29421Y-26717D01*
X-29381Y-26814D01*
X-29317Y-26896D01*
X-29235Y-26959D01*
X-29139Y-26999D01*
X-29085Y-27006D01*
Y-26664D01*
D02*
G37*
G36*
X-30807Y-26246D02*
X-30902Y-26258D01*
X-30991Y-26295D01*
X-31068Y-26354D01*
X-31126Y-26430D01*
X-31163Y-26519D01*
X-31176Y-26614D01*
X-31163Y-26710D01*
X-31126Y-26798D01*
X-31068Y-26875D01*
X-30991Y-26933D01*
X-30902Y-26970D01*
X-30807Y-26983D01*
X-30712Y-26970D01*
X-30623Y-26933D01*
X-30547Y-26875D01*
X-30488Y-26798D01*
X-30451Y-26710D01*
X-30439Y-26614D01*
X-30451Y-26519D01*
X-30488Y-26430D01*
X-30547Y-26354D01*
X-30623Y-26295D01*
X-30712Y-26258D01*
X-30807Y-26246D01*
D02*
G37*
G36*
X11170Y-26664D02*
X10828D01*
X10835Y-26717D01*
X10875Y-26814D01*
X10939Y-26896D01*
X11021Y-26959D01*
X11117Y-26999D01*
X11170Y-27006D01*
Y-26664D01*
D02*
G37*
G36*
X14664Y-26664D02*
X14322D01*
Y-27006D01*
X14375Y-26999D01*
X14471Y-26959D01*
X14554Y-26896D01*
X14617Y-26814D01*
X14657Y-26717D01*
X14664Y-26664D01*
D02*
G37*
G36*
X-26034Y-26664D02*
X-26376D01*
X-26369Y-26717D01*
X-26330Y-26814D01*
X-26266Y-26896D01*
X-26184Y-26959D01*
X-26087Y-26999D01*
X-26034Y-27006D01*
Y-26664D01*
D02*
G37*
G36*
X11613Y-26664D02*
X11270D01*
Y-27006D01*
X11324Y-26999D01*
X11420Y-26959D01*
X11502Y-26896D01*
X11566Y-26814D01*
X11606Y-26717D01*
X11613Y-26664D01*
D02*
G37*
G36*
X14222Y-26664D02*
X13880D01*
X13887Y-26717D01*
X13926Y-26814D01*
X13990Y-26896D01*
X14072Y-26959D01*
X14168Y-26999D01*
X14222Y-27006D01*
Y-26664D01*
D02*
G37*
G36*
X-28643Y-26664D02*
X-28985D01*
Y-27006D01*
X-28932Y-26999D01*
X-28836Y-26959D01*
X-28754Y-26896D01*
X-28690Y-26814D01*
X-28650Y-26717D01*
X-28643Y-26664D01*
D02*
G37*
G36*
X-27756Y-26246D02*
X-27851Y-26258D01*
X-27940Y-26295D01*
X-28016Y-26354D01*
X-28075Y-26430D01*
X-28112Y-26519D01*
X-28124Y-26614D01*
X-28112Y-26710D01*
X-28075Y-26798D01*
X-28016Y-26875D01*
X-27940Y-26933D01*
X-27851Y-26970D01*
X-27756Y-26983D01*
X-27661Y-26970D01*
X-27572Y-26933D01*
X-27495Y-26875D01*
X-27437Y-26798D01*
X-27400Y-26710D01*
X-27387Y-26614D01*
X-27400Y-26519D01*
X-27437Y-26430D01*
X-27495Y-26354D01*
X-27572Y-26295D01*
X-27661Y-26258D01*
X-27756Y-26246D01*
D02*
G37*
G36*
X14322Y-26222D02*
Y-26564D01*
X14664D01*
X14657Y-26511D01*
X14617Y-26415D01*
X14554Y-26332D01*
X14471Y-26269D01*
X14375Y-26229D01*
X14322Y-26222D01*
D02*
G37*
G36*
X14222D02*
X14168Y-26229D01*
X14072Y-26269D01*
X13990Y-26332D01*
X13926Y-26415D01*
X13887Y-26511D01*
X13880Y-26564D01*
X14222D01*
Y-26222D01*
D02*
G37*
G36*
X-28985D02*
Y-26564D01*
X-28643D01*
X-28650Y-26511D01*
X-28690Y-26415D01*
X-28754Y-26332D01*
X-28836Y-26269D01*
X-28932Y-26229D01*
X-28985Y-26222D01*
D02*
G37*
G36*
X-29085D02*
X-29139Y-26229D01*
X-29235Y-26269D01*
X-29317Y-26332D01*
X-29381Y-26415D01*
X-29421Y-26511D01*
X-29428Y-26564D01*
X-29085D01*
Y-26222D01*
D02*
G37*
G36*
X-25934D02*
Y-26564D01*
X-25592D01*
X-25599Y-26511D01*
X-25639Y-26415D01*
X-25702Y-26332D01*
X-25785Y-26269D01*
X-25881Y-26229D01*
X-25934Y-26222D01*
D02*
G37*
G36*
X-12797Y-26626D02*
X-13139D01*
Y-26968D01*
X-13086Y-26961D01*
X-12990Y-26921D01*
X-12907Y-26858D01*
X-12844Y-26775D01*
X-12804Y-26679D01*
X-12797Y-26626D01*
D02*
G37*
G36*
X9449Y-26246D02*
X9353Y-26258D01*
X9265Y-26295D01*
X9188Y-26354D01*
X9130Y-26430D01*
X9093Y-26519D01*
X9080Y-26614D01*
X9093Y-26710D01*
X9130Y-26798D01*
X9188Y-26875D01*
X9265Y-26933D01*
X9353Y-26970D01*
X9449Y-26983D01*
X9544Y-26970D01*
X9633Y-26933D01*
X9709Y-26875D01*
X9768Y-26798D01*
X9805Y-26710D01*
X9817Y-26614D01*
X9805Y-26519D01*
X9768Y-26430D01*
X9709Y-26354D01*
X9633Y-26295D01*
X9544Y-26258D01*
X9449Y-26246D01*
D02*
G37*
G36*
X-26034Y-26222D02*
X-26087Y-26229D01*
X-26184Y-26269D01*
X-26266Y-26332D01*
X-26330Y-26415D01*
X-26369Y-26511D01*
X-26376Y-26564D01*
X-26034D01*
Y-26222D01*
D02*
G37*
G36*
X-13239Y-26626D02*
X-13581D01*
X-13574Y-26679D01*
X-13534Y-26775D01*
X-13471Y-26858D01*
X-13388Y-26921D01*
X-13292Y-26961D01*
X-13239Y-26968D01*
Y-26626D01*
D02*
G37*
G36*
X-2707Y-24105D02*
X-3050D01*
X-3043Y-24158D01*
X-3003Y-24254D01*
X-2939Y-24337D01*
X-2857Y-24400D01*
X-2761Y-24440D01*
X-2707Y-24447D01*
Y-24105D01*
D02*
G37*
G36*
X14468Y-11675D02*
X14379Y-11693D01*
X14303Y-11744D01*
X14267Y-11797D01*
X13883D01*
X13847Y-11744D01*
X13771Y-11693D01*
X13681Y-11675D01*
X13591Y-11693D01*
X13515Y-11744D01*
X13464Y-11820D01*
X13447Y-11909D01*
X13464Y-11999D01*
X13515Y-12075D01*
X13591Y-12126D01*
X13681Y-12144D01*
X13771Y-12126D01*
X13847Y-12075D01*
X13883Y-12022D01*
X14267D01*
X14303Y-12075D01*
X14379Y-12126D01*
X14468Y-12144D01*
X14558Y-12126D01*
X14634Y-12075D01*
X14685Y-11999D01*
X14703Y-11909D01*
X14685Y-11820D01*
X14634Y-11744D01*
X14558Y-11693D01*
X14468Y-11675D01*
D02*
G37*
G36*
X-15608Y-10635D02*
X-15738Y-10648D01*
X-15862Y-10686D01*
X-15977Y-10747D01*
X-16078Y-10830D01*
X-16160Y-10930D01*
X-16221Y-11045D01*
X-16259Y-11170D01*
X-16272Y-11299D01*
X-16259Y-11429D01*
X-16221Y-11553D01*
X-16160Y-11668D01*
X-16078Y-11769D01*
X-15977Y-11851D01*
X-15862Y-11912D01*
X-15738Y-11950D01*
X-15608Y-11963D01*
X-15479Y-11950D01*
X-15354Y-11912D01*
X-15240Y-11851D01*
X-15139Y-11769D01*
X-15056Y-11668D01*
X-14995Y-11553D01*
X-14957Y-11429D01*
X-14945Y-11299D01*
X-14957Y-11170D01*
X-14995Y-11045D01*
X-15056Y-10930D01*
X-15139Y-10830D01*
X-15240Y-10747D01*
X-15354Y-10686D01*
X-15479Y-10648D01*
X-15608Y-10635D01*
D02*
G37*
G36*
X9525Y-8281D02*
X9435Y-8299D01*
X9359Y-8350D01*
X9308Y-8426D01*
X9290Y-8516D01*
X9308Y-8605D01*
X9352Y-8670D01*
Y-10088D01*
X9239Y-10201D01*
X9162Y-10216D01*
X9086Y-10267D01*
X9035Y-10343D01*
X9017Y-10433D01*
X9035Y-10523D01*
X9086Y-10599D01*
X9162Y-10650D01*
X9252Y-10668D01*
X9338Y-10650D01*
X9341Y-10653D01*
X9355Y-10704D01*
X7989Y-12070D01*
X-7122D01*
X-7165Y-12079D01*
X-7201Y-12103D01*
X-7201Y-12103D01*
X-9174Y-14076D01*
X-9198Y-14112D01*
X-9207Y-14155D01*
X-9207Y-14155D01*
Y-19549D01*
X-9216Y-19560D01*
X-9255Y-19584D01*
X-9331Y-19569D01*
X-9420Y-19586D01*
X-9497Y-19637D01*
X-9547Y-19713D01*
X-9565Y-19803D01*
X-9547Y-19893D01*
X-9497Y-19969D01*
X-9420Y-20020D01*
X-9331Y-20038D01*
X-9241Y-20020D01*
X-9165Y-19969D01*
X-9115Y-19894D01*
X-9110Y-19893D01*
X-9068D01*
X-9063Y-19894D01*
X-9013Y-19969D01*
X-8937Y-20020D01*
X-8847Y-20038D01*
X-8757Y-20020D01*
X-8681Y-19969D01*
X-8630Y-19893D01*
X-8613Y-19803D01*
X-8630Y-19713D01*
X-8681Y-19637D01*
X-8757Y-19586D01*
X-8802Y-19578D01*
Y-14276D01*
X-7001Y-12474D01*
X8110D01*
X8110Y-12474D01*
X8153Y-12466D01*
X8190Y-12442D01*
X9610Y-11021D01*
X9711D01*
X9711Y-11021D01*
X9754Y-11013D01*
X9791Y-10988D01*
X10512Y-10267D01*
X10512Y-10267D01*
X10519Y-10257D01*
X10523Y-10256D01*
X10599Y-10205D01*
X10650Y-10129D01*
X10668Y-10039D01*
X10650Y-9950D01*
X10599Y-9874D01*
X10523Y-9823D01*
X10433Y-9805D01*
X10343Y-9823D01*
X10267Y-9874D01*
X10223Y-9940D01*
X10173Y-9930D01*
X10158Y-9851D01*
X10107Y-9775D01*
X10031Y-9724D01*
X9941Y-9706D01*
X9851Y-9724D01*
X9775Y-9775D01*
X9748Y-9815D01*
X9698Y-9800D01*
Y-8670D01*
X9742Y-8605D01*
X9759Y-8516D01*
X9742Y-8426D01*
X9691Y-8350D01*
X9615Y-8299D01*
X9525Y-8281D01*
D02*
G37*
G36*
X-6102Y-10297D02*
X-6192Y-10315D01*
X-6268Y-10366D01*
X-6319Y-10442D01*
X-6337Y-10532D01*
X-6319Y-10621D01*
X-6268Y-10697D01*
X-6192Y-10748D01*
X-6102Y-10766D01*
X-6039Y-10753D01*
X-5886Y-10906D01*
X-5886Y-10906D01*
X-5850Y-10930D01*
X-5807Y-10939D01*
X-5418D01*
X-5382Y-10993D01*
X-5306Y-11043D01*
X-5217Y-11061D01*
X-5127Y-11043D01*
X-5051Y-10993D01*
X-5000Y-10916D01*
X-4982Y-10827D01*
X-5000Y-10737D01*
X-5051Y-10661D01*
X-5127Y-10610D01*
X-5217Y-10592D01*
X-5306Y-10610D01*
X-5382Y-10661D01*
X-5418Y-10715D01*
X-5761D01*
X-5880Y-10595D01*
X-5868Y-10532D01*
X-5886Y-10442D01*
X-5937Y-10366D01*
X-6013Y-10315D01*
X-6102Y-10297D01*
D02*
G37*
G36*
X21260Y-20299D02*
X21072Y-20318D01*
X20892Y-20373D01*
X20726Y-20461D01*
X20581Y-20581D01*
X20461Y-20726D01*
X20373Y-20892D01*
X20318Y-21072D01*
X20299Y-21260D01*
X20318Y-21447D01*
X20373Y-21627D01*
X20461Y-21793D01*
X20581Y-21939D01*
X20726Y-22058D01*
X20892Y-22147D01*
X21072Y-22202D01*
X21260Y-22220D01*
X21447Y-22202D01*
X21627Y-22147D01*
X21793Y-22058D01*
X21939Y-21939D01*
X22058Y-21793D01*
X22147Y-21627D01*
X22202Y-21447D01*
X22220Y-21260D01*
X22202Y-21072D01*
X22147Y-20892D01*
X22058Y-20726D01*
X21939Y-20581D01*
X21793Y-20461D01*
X21627Y-20373D01*
X21447Y-20318D01*
X21260Y-20299D01*
D02*
G37*
G36*
X-39370D02*
X-39557Y-20318D01*
X-39738Y-20373D01*
X-39904Y-20461D01*
X-40049Y-20581D01*
X-40169Y-20726D01*
X-40257Y-20892D01*
X-40312Y-21072D01*
X-40331Y-21260D01*
X-40312Y-21447D01*
X-40257Y-21627D01*
X-40169Y-21793D01*
X-40049Y-21939D01*
X-39904Y-22058D01*
X-39738Y-22147D01*
X-39557Y-22202D01*
X-39370Y-22220D01*
X-39183Y-22202D01*
X-39003Y-22147D01*
X-38836Y-22058D01*
X-38691Y-21939D01*
X-38571Y-21793D01*
X-38483Y-21627D01*
X-38428Y-21447D01*
X-38410Y-21260D01*
X-38428Y-21072D01*
X-38483Y-20892D01*
X-38571Y-20726D01*
X-38691Y-20581D01*
X-38836Y-20461D01*
X-39003Y-20373D01*
X-39183Y-20318D01*
X-39370Y-20299D01*
D02*
G37*
G36*
X-4562Y-17237D02*
X-5250D01*
X-5938D01*
X-5930Y-17295D01*
X-5888Y-17396D01*
X-5822Y-17483D01*
X-5735Y-17549D01*
X-5686Y-17570D01*
Y-17624D01*
X-5720Y-17638D01*
X-5800Y-17700D01*
X-5862Y-17780D01*
X-5901Y-17874D01*
X-5914Y-17974D01*
X-5901Y-18075D01*
X-5862Y-18169D01*
X-5800Y-18249D01*
X-5720Y-18311D01*
X-5646Y-18341D01*
Y-18395D01*
X-5720Y-18426D01*
X-5800Y-18487D01*
X-5862Y-18568D01*
X-5901Y-18661D01*
X-5914Y-18762D01*
X-5901Y-18862D01*
X-5862Y-18956D01*
X-5800Y-19036D01*
X-5720Y-19098D01*
X-5646Y-19128D01*
Y-19183D01*
X-5720Y-19213D01*
X-5800Y-19275D01*
X-5862Y-19355D01*
X-5901Y-19449D01*
X-5914Y-19549D01*
X-5901Y-19650D01*
X-5862Y-19743D01*
X-5800Y-19824D01*
X-5720Y-19885D01*
X-5646Y-19916D01*
Y-19970D01*
X-5720Y-20000D01*
X-5800Y-20062D01*
X-5862Y-20142D01*
X-5901Y-20236D01*
X-5914Y-20337D01*
X-5901Y-20437D01*
X-5862Y-20531D01*
X-5800Y-20611D01*
X-5720Y-20673D01*
X-5646Y-20703D01*
Y-20757D01*
X-5720Y-20788D01*
X-5800Y-20849D01*
X-5862Y-20930D01*
X-5901Y-21024D01*
X-5914Y-21124D01*
X-5901Y-21225D01*
X-5862Y-21318D01*
X-5800Y-21399D01*
X-5720Y-21460D01*
X-5646Y-21491D01*
Y-21545D01*
X-5720Y-21575D01*
X-5800Y-21637D01*
X-5862Y-21717D01*
X-5901Y-21811D01*
X-5914Y-21911D01*
X-5901Y-22012D01*
X-5862Y-22106D01*
X-5800Y-22186D01*
X-5720Y-22248D01*
X-5626Y-22286D01*
X-5526Y-22300D01*
X-4974D01*
X-4874Y-22286D01*
X-4780Y-22248D01*
X-4700Y-22186D01*
X-4638Y-22106D01*
X-4599Y-22012D01*
X-4586Y-21911D01*
X-4599Y-21811D01*
X-4638Y-21717D01*
X-4700Y-21637D01*
X-4780Y-21575D01*
X-4854Y-21545D01*
Y-21491D01*
X-4780Y-21460D01*
X-4700Y-21399D01*
X-4638Y-21318D01*
X-4599Y-21225D01*
X-4586Y-21124D01*
X-4599Y-21024D01*
X-4638Y-20930D01*
X-4700Y-20849D01*
X-4780Y-20788D01*
X-4854Y-20757D01*
Y-20703D01*
X-4780Y-20673D01*
X-4700Y-20611D01*
X-4638Y-20531D01*
X-4599Y-20437D01*
X-4586Y-20337D01*
X-4599Y-20236D01*
X-4638Y-20142D01*
X-4700Y-20062D01*
X-4780Y-20000D01*
X-4854Y-19970D01*
Y-19916D01*
X-4780Y-19885D01*
X-4700Y-19824D01*
X-4638Y-19743D01*
X-4599Y-19650D01*
X-4586Y-19549D01*
X-4599Y-19449D01*
X-4638Y-19355D01*
X-4700Y-19275D01*
X-4780Y-19213D01*
X-4854Y-19183D01*
Y-19128D01*
X-4780Y-19098D01*
X-4700Y-19036D01*
X-4638Y-18956D01*
X-4599Y-18862D01*
X-4586Y-18762D01*
X-4599Y-18661D01*
X-4638Y-18568D01*
X-4700Y-18487D01*
X-4780Y-18426D01*
X-4854Y-18395D01*
Y-18341D01*
X-4780Y-18311D01*
X-4700Y-18249D01*
X-4638Y-18169D01*
X-4599Y-18075D01*
X-4586Y-17974D01*
X-4599Y-17874D01*
X-4638Y-17780D01*
X-4700Y-17700D01*
X-4780Y-17638D01*
X-4814Y-17624D01*
Y-17570D01*
X-4765Y-17549D01*
X-4678Y-17483D01*
X-4612Y-17396D01*
X-4570Y-17295D01*
X-4562Y-17237D01*
D02*
G37*
G36*
X0Y-20299D02*
X-187Y-20318D01*
X-368Y-20373D01*
X-534Y-20461D01*
X-679Y-20581D01*
X-799Y-20726D01*
X-887Y-20892D01*
X-942Y-21072D01*
X-960Y-21260D01*
X-942Y-21447D01*
X-887Y-21627D01*
X-799Y-21793D01*
X-679Y-21939D01*
X-534Y-22058D01*
X-368Y-22147D01*
X-187Y-22202D01*
X0Y-22220D01*
X187Y-22202D01*
X368Y-22147D01*
X534Y-22058D01*
X679Y-21939D01*
X799Y-21793D01*
X887Y-21627D01*
X942Y-21447D01*
X960Y-21260D01*
X942Y-21072D01*
X887Y-20892D01*
X799Y-20726D01*
X679Y-20581D01*
X534Y-20461D01*
X368Y-20373D01*
X187Y-20318D01*
X0Y-20299D01*
D02*
G37*
G36*
X-18110D02*
X-18298Y-20318D01*
X-18478Y-20373D01*
X-18644Y-20461D01*
X-18789Y-20581D01*
X-18909Y-20726D01*
X-18998Y-20892D01*
X-19052Y-21072D01*
X-19071Y-21260D01*
X-19052Y-21447D01*
X-18998Y-21627D01*
X-18909Y-21793D01*
X-18789Y-21939D01*
X-18644Y-22058D01*
X-18478Y-22147D01*
X-18298Y-22202D01*
X-18110Y-22220D01*
X-17923Y-22202D01*
X-17743Y-22147D01*
X-17577Y-22058D01*
X-17431Y-21939D01*
X-17312Y-21793D01*
X-17223Y-21627D01*
X-17168Y-21447D01*
X-17150Y-21260D01*
X-17168Y-21072D01*
X-17223Y-20892D01*
X-17312Y-20726D01*
X-17431Y-20581D01*
X-17577Y-20461D01*
X-17743Y-20373D01*
X-17923Y-20318D01*
X-18110Y-20299D01*
D02*
G37*
G36*
X-7461Y-7206D02*
X-7550Y-7224D01*
X-7626Y-7275D01*
X-7677Y-7351D01*
X-7695Y-7441D01*
X-7677Y-7531D01*
X-7634Y-7596D01*
Y-7941D01*
X-7621Y-8004D01*
X-7623Y-8013D01*
X-7605Y-8103D01*
X-7554Y-8179D01*
X-7478Y-8230D01*
X-7402Y-8245D01*
X-7053Y-8594D01*
X-7072Y-8640D01*
X-8124D01*
X-8191Y-8653D01*
X-8247Y-8691D01*
X-8284Y-8747D01*
X-8298Y-8813D01*
X-8295Y-8826D01*
X-8886Y-9417D01*
X-8948Y-9429D01*
X-9024Y-9480D01*
X-9075Y-9556D01*
X-9093Y-9646D01*
X-9078Y-9718D01*
X-9109Y-9768D01*
X-10084D01*
X-10151Y-9781D01*
X-10207Y-9818D01*
X-10467Y-10078D01*
X-10793D01*
Y-8760D01*
X-10803Y-8709D01*
X-10831Y-8666D01*
X-10895Y-8602D01*
X-10888Y-8563D01*
X-10905Y-8473D01*
X-10956Y-8397D01*
X-11032Y-8346D01*
X-11122Y-8328D01*
X-11212Y-8346D01*
X-11288Y-8397D01*
X-11339Y-8473D01*
X-11357Y-8563D01*
X-11339Y-8653D01*
X-11288Y-8729D01*
X-11212Y-8780D01*
X-11122Y-8798D01*
X-11099Y-8793D01*
X-11058Y-8829D01*
Y-10078D01*
X-11640D01*
X-11645Y-10070D01*
X-11721Y-10020D01*
X-11811Y-10002D01*
X-11901Y-10020D01*
X-11966Y-10063D01*
X-20571D01*
X-20637Y-10076D01*
X-20693Y-10114D01*
X-22553Y-11973D01*
X-22629Y-11988D01*
X-22705Y-12039D01*
X-22756Y-12115D01*
X-22774Y-12205D01*
X-22756Y-12294D01*
X-22705Y-12371D01*
X-22629Y-12421D01*
X-22539Y-12439D01*
X-22450Y-12421D01*
X-22374Y-12371D01*
X-22323Y-12294D01*
X-22308Y-12218D01*
X-20499Y-10410D01*
X-11966D01*
X-11901Y-10453D01*
X-11811Y-10471D01*
X-11721Y-10453D01*
X-11679Y-10425D01*
X-10395D01*
X-10328Y-10411D01*
X-10272Y-10374D01*
X-10013Y-10114D01*
X-9013D01*
X-8948Y-10158D01*
X-8858Y-10175D01*
X-8769Y-10158D01*
X-8692Y-10107D01*
X-8642Y-10031D01*
X-8624Y-9941D01*
X-8642Y-9851D01*
X-8680Y-9793D01*
X-8642Y-9735D01*
X-8624Y-9646D01*
X-8642Y-9556D01*
X-8668Y-9516D01*
X-8137Y-8984D01*
X-8124Y-8987D01*
X-6743D01*
X-6678Y-9030D01*
X-6588Y-9048D01*
X-6498Y-9030D01*
X-6434Y-8987D01*
X-6245D01*
X-4701Y-10530D01*
Y-10574D01*
X-4744Y-10639D01*
X-4762Y-10728D01*
X-4744Y-10818D01*
X-4693Y-10894D01*
X-4617Y-10945D01*
X-4528Y-10963D01*
X-4438Y-10945D01*
X-4373Y-10902D01*
X-1994D01*
X-1928Y-10888D01*
X-1871Y-10851D01*
X1107Y-7873D01*
X1108Y-7871D01*
X1150Y-7843D01*
X1201Y-7767D01*
X1219Y-7677D01*
X1201Y-7587D01*
X1150Y-7511D01*
X1074Y-7461D01*
X984Y-7443D01*
X895Y-7461D01*
X818Y-7511D01*
X768Y-7587D01*
X750Y-7677D01*
X760Y-7729D01*
X-2066Y-10555D01*
X-4354D01*
Y-10459D01*
X-4367Y-10392D01*
X-4405Y-10336D01*
X-6050Y-8691D01*
X-6106Y-8653D01*
X-6173Y-8640D01*
X-6434D01*
X-6498Y-8597D01*
X-6575Y-8581D01*
X-7157Y-8000D01*
X-7172Y-7923D01*
X-7223Y-7847D01*
X-7287Y-7804D01*
Y-7596D01*
X-7244Y-7531D01*
X-7226Y-7441D01*
X-7244Y-7351D01*
X-7295Y-7275D01*
X-7371Y-7224D01*
X-7461Y-7206D01*
D02*
G37*
G36*
X0Y960D02*
X-187Y942D01*
X-368Y887D01*
X-534Y799D01*
X-679Y679D01*
X-799Y534D01*
X-887Y368D01*
X-942Y187D01*
X-960Y0D01*
X-942Y-187D01*
X-887Y-368D01*
X-799Y-534D01*
X-679Y-679D01*
X-534Y-799D01*
X-368Y-887D01*
X-187Y-942D01*
X0Y-960D01*
X187Y-942D01*
X368Y-887D01*
X534Y-799D01*
X679Y-679D01*
X799Y-534D01*
X887Y-368D01*
X942Y-187D01*
X960Y0D01*
X942Y187D01*
X887Y368D01*
X799Y534D01*
X679Y679D01*
X534Y799D01*
X368Y887D01*
X187Y942D01*
X0Y960D01*
D02*
G37*
G36*
X-18110D02*
X-18298Y942D01*
X-18478Y887D01*
X-18644Y799D01*
X-18789Y679D01*
X-18909Y534D01*
X-18998Y368D01*
X-19052Y187D01*
X-19071Y0D01*
X-19052Y-187D01*
X-18998Y-368D01*
X-18909Y-534D01*
X-18789Y-679D01*
X-18644Y-799D01*
X-18478Y-887D01*
X-18298Y-942D01*
X-18110Y-960D01*
X-17923Y-942D01*
X-17743Y-887D01*
X-17577Y-799D01*
X-17431Y-679D01*
X-17312Y-534D01*
X-17223Y-368D01*
X-17168Y-187D01*
X-17150Y0D01*
X-17168Y187D01*
X-17223Y368D01*
X-17312Y534D01*
X-17431Y679D01*
X-17577Y799D01*
X-17743Y887D01*
X-17923Y942D01*
X-18110Y960D01*
D02*
G37*
G36*
X-9055Y468D02*
X-9176Y452D01*
X-9289Y405D01*
X-9386Y331D01*
X-9460Y234D01*
X-9507Y121D01*
X-9523Y0D01*
X-9507Y-121D01*
X-9460Y-234D01*
X-9386Y-331D01*
X-9289Y-405D01*
X-9176Y-452D01*
X-9055Y-468D01*
X-8934Y-452D01*
X-8821Y-405D01*
X-8724Y-331D01*
X-8650Y-234D01*
X-8603Y-121D01*
X-8587Y0D01*
X-8603Y121D01*
X-8650Y234D01*
X-8724Y331D01*
X-8821Y405D01*
X-8934Y452D01*
X-9055Y468D01*
D02*
G37*
G36*
X21260Y960D02*
X21072Y942D01*
X20892Y887D01*
X20726Y799D01*
X20581Y679D01*
X20461Y534D01*
X20373Y368D01*
X20318Y187D01*
X20299Y0D01*
X20318Y-187D01*
X20373Y-368D01*
X20461Y-534D01*
X20581Y-679D01*
X20726Y-799D01*
X20892Y-887D01*
X21072Y-942D01*
X21260Y-960D01*
X21447Y-942D01*
X21627Y-887D01*
X21793Y-799D01*
X21939Y-679D01*
X22058Y-534D01*
X22147Y-368D01*
X22202Y-187D01*
X22220Y0D01*
X22202Y187D01*
X22147Y368D01*
X22058Y534D01*
X21939Y679D01*
X21793Y799D01*
X21627Y887D01*
X21447Y942D01*
X21260Y960D01*
D02*
G37*
G36*
X-39370D02*
X-39557Y942D01*
X-39738Y887D01*
X-39904Y799D01*
X-40049Y679D01*
X-40169Y534D01*
X-40257Y368D01*
X-40312Y187D01*
X-40331Y0D01*
X-40312Y-187D01*
X-40257Y-368D01*
X-40169Y-534D01*
X-40049Y-679D01*
X-39904Y-799D01*
X-39738Y-887D01*
X-39557Y-942D01*
X-39370Y-960D01*
X-39183Y-942D01*
X-39003Y-887D01*
X-38836Y-799D01*
X-38691Y-679D01*
X-38571Y-534D01*
X-38483Y-368D01*
X-38428Y-187D01*
X-38410Y0D01*
X-38428Y187D01*
X-38483Y368D01*
X-38571Y534D01*
X-38691Y679D01*
X-38836Y799D01*
X-39003Y887D01*
X-39183Y942D01*
X-39370Y960D01*
D02*
G37*
G36*
X-15730Y-8032D02*
X-15851Y-8048D01*
X-15964Y-8095D01*
X-16061Y-8169D01*
X-16135Y-8266D01*
X-16182Y-8379D01*
X-16198Y-8500D01*
X-16182Y-8621D01*
X-16135Y-8734D01*
X-16061Y-8831D01*
X-15964Y-8905D01*
X-15851Y-8952D01*
X-15730Y-8968D01*
X-15609Y-8952D01*
X-15496Y-8905D01*
X-15400Y-8831D01*
X-15325Y-8734D01*
X-15279Y-8621D01*
X-15263Y-8500D01*
X-15279Y-8379D01*
X-15325Y-8266D01*
X-15400Y-8169D01*
X-15496Y-8095D01*
X-15609Y-8048D01*
X-15730Y-8032D01*
D02*
G37*
G36*
X8295Y-8872D02*
X8206Y-8890D01*
X8129Y-8940D01*
X8079Y-9017D01*
X8061Y-9106D01*
X8073Y-9170D01*
X5890Y-11353D01*
X-10976D01*
X-10976Y-11353D01*
X-11019Y-11362D01*
X-11055Y-11386D01*
X-11055Y-11386D01*
X-11210Y-11540D01*
X-11273Y-11528D01*
X-11363Y-11546D01*
X-11439Y-11596D01*
X-11490Y-11672D01*
X-11508Y-11762D01*
X-11490Y-11852D01*
X-11474Y-11876D01*
X-11497Y-11920D01*
X-12938D01*
X-12938Y-11920D01*
X-12981Y-11929D01*
X-13017Y-11953D01*
X-13819Y-12755D01*
X-13844Y-12792D01*
X-13852Y-12835D01*
X-13852Y-12835D01*
Y-20062D01*
X-13852Y-20062D01*
X-13844Y-20105D01*
X-13819Y-20141D01*
X-13298Y-20662D01*
X-13300Y-20688D01*
X-13362Y-20768D01*
X-13401Y-20862D01*
X-13414Y-20963D01*
X-13401Y-21063D01*
X-13362Y-21157D01*
X-13300Y-21237D01*
X-13220Y-21299D01*
X-13146Y-21329D01*
Y-21383D01*
X-13220Y-21414D01*
X-13300Y-21475D01*
X-13362Y-21556D01*
X-13401Y-21649D01*
X-13414Y-21750D01*
X-13401Y-21851D01*
X-13362Y-21944D01*
X-13300Y-22025D01*
X-13220Y-22086D01*
X-13126Y-22125D01*
X-13026Y-22138D01*
X-12474D01*
X-12374Y-22125D01*
X-12280Y-22086D01*
X-12200Y-22025D01*
X-12138Y-21944D01*
X-12099Y-21851D01*
X-12086Y-21750D01*
X-12099Y-21649D01*
X-12138Y-21556D01*
X-12200Y-21475D01*
X-12280Y-21414D01*
X-12354Y-21383D01*
Y-21329D01*
X-12280Y-21299D01*
X-12200Y-21237D01*
X-12138Y-21157D01*
X-12099Y-21063D01*
X-12086Y-20963D01*
X-12099Y-20862D01*
X-12138Y-20768D01*
X-12200Y-20688D01*
X-12280Y-20626D01*
X-12314Y-20612D01*
Y-20558D01*
X-12265Y-20538D01*
X-12178Y-20471D01*
X-12112Y-20384D01*
X-12070Y-20284D01*
X-12062Y-20225D01*
X-12750D01*
Y-20125D01*
X-12062D01*
X-12070Y-20067D01*
X-12112Y-19966D01*
X-12178Y-19879D01*
X-12265Y-19813D01*
X-12314Y-19792D01*
Y-19738D01*
X-12280Y-19724D01*
X-12200Y-19662D01*
X-12138Y-19582D01*
X-12099Y-19488D01*
X-12086Y-19388D01*
X-12099Y-19287D01*
X-12138Y-19194D01*
X-12200Y-19113D01*
X-12280Y-19052D01*
X-12354Y-19021D01*
Y-18967D01*
X-12280Y-18937D01*
X-12200Y-18875D01*
X-12138Y-18795D01*
X-12099Y-18701D01*
X-12086Y-18600D01*
X-12099Y-18500D01*
X-12138Y-18406D01*
X-12200Y-18326D01*
X-12202Y-18300D01*
X-11062Y-17161D01*
X-11062Y-17161D01*
X-11038Y-17124D01*
X-11030Y-17081D01*
X-11030Y-17081D01*
Y-12524D01*
X-10976Y-12489D01*
X-10925Y-12413D01*
X-10907Y-12323D01*
X-10925Y-12233D01*
X-10976Y-12157D01*
X-11024Y-12125D01*
X-11033Y-12063D01*
X-10698Y-11727D01*
X6377D01*
X6377Y-11727D01*
X6420Y-11719D01*
X6456Y-11694D01*
X8232Y-9919D01*
X8295Y-9931D01*
X8385Y-9914D01*
X8461Y-9863D01*
X8512Y-9787D01*
X8530Y-9697D01*
X8512Y-9607D01*
X8461Y-9531D01*
X8385Y-9480D01*
X8295Y-9462D01*
X8206Y-9480D01*
X8129Y-9531D01*
X8079Y-9607D01*
X8061Y-9697D01*
X8073Y-9760D01*
X6331Y-11503D01*
X6122D01*
X6103Y-11457D01*
X8232Y-9328D01*
X8295Y-9341D01*
X8385Y-9323D01*
X8461Y-9272D01*
X8512Y-9196D01*
X8530Y-9106D01*
X8512Y-9017D01*
X8461Y-8940D01*
X8385Y-8890D01*
X8295Y-8872D01*
D02*
G37*
G36*
X5805Y-6736D02*
X5715Y-6754D01*
X5639Y-6805D01*
X5588Y-6881D01*
X5571Y-6970D01*
X5588Y-7060D01*
X5639Y-7136D01*
X5715Y-7187D01*
X5792Y-7202D01*
X6504Y-7915D01*
X6484Y-7965D01*
X6335D01*
X6319Y-7883D01*
X6268Y-7807D01*
X6192Y-7756D01*
X6102Y-7738D01*
X6013Y-7756D01*
X5937Y-7807D01*
X5886Y-7883D01*
X5868Y-7972D01*
X5886Y-8062D01*
X5937Y-8138D01*
X6013Y-8189D01*
X6102Y-8207D01*
X6192Y-8189D01*
X6195Y-8187D01*
X6207Y-8189D01*
X9744D01*
X9744Y-8189D01*
X9787Y-8181D01*
X9823Y-8156D01*
X10092Y-7888D01*
X10827D01*
X10827Y-7888D01*
X10870Y-7879D01*
X10906Y-7855D01*
X11583Y-7178D01*
X11623Y-7205D01*
X11713Y-7223D01*
X11802Y-7205D01*
X11878Y-7154D01*
X11929Y-7078D01*
X11947Y-6988D01*
X11929Y-6898D01*
X11878Y-6822D01*
X11802Y-6772D01*
X11713Y-6754D01*
X11623Y-6772D01*
X11547Y-6822D01*
X11496Y-6898D01*
X11484Y-6960D01*
X10780Y-7663D01*
X10046D01*
X10046Y-7663D01*
X10003Y-7672D01*
X9966Y-7696D01*
X9966Y-7696D01*
X9698Y-7965D01*
X8519D01*
X8496Y-7921D01*
X8512Y-7897D01*
X8530Y-7807D01*
X8512Y-7717D01*
X8461Y-7641D01*
X8385Y-7590D01*
X8295Y-7573D01*
X8206Y-7590D01*
X8141Y-7634D01*
X6714D01*
X6037Y-6957D01*
X6022Y-6881D01*
X5971Y-6805D01*
X5895Y-6754D01*
X5805Y-6736D01*
D02*
G37*
G36*
X-19370Y-8348D02*
X-19460Y-8366D01*
X-19536Y-8417D01*
X-19587Y-8493D01*
X-19605Y-8583D01*
X-19587Y-8672D01*
X-19536Y-8748D01*
X-19460Y-8799D01*
X-19370Y-8817D01*
X-19280Y-8799D01*
X-19204Y-8748D01*
X-19153Y-8672D01*
X-19136Y-8583D01*
X-19153Y-8493D01*
X-19204Y-8417D01*
X-19280Y-8366D01*
X-19370Y-8348D01*
D02*
G37*
G36*
X-13139Y-23624D02*
Y-23967D01*
X-12797D01*
X-12804Y-23913D01*
X-12844Y-23817D01*
X-12907Y-23735D01*
X-12990Y-23671D01*
X-13086Y-23631D01*
X-13139Y-23624D01*
D02*
G37*
G36*
X-13239Y-24067D02*
X-13581D01*
X-13574Y-24120D01*
X-13534Y-24216D01*
X-13471Y-24299D01*
X-13388Y-24362D01*
X-13292Y-24402D01*
X-13239Y-24409D01*
Y-24067D01*
D02*
G37*
G36*
X-12797D02*
X-13139D01*
Y-24409D01*
X-13086Y-24402D01*
X-12990Y-24362D01*
X-12907Y-24299D01*
X-12844Y-24216D01*
X-12804Y-24120D01*
X-12797Y-24067D01*
D02*
G37*
G36*
X-14961Y-23648D02*
X-15056Y-23661D01*
X-15145Y-23698D01*
X-15221Y-23756D01*
X-15280Y-23832D01*
X-15316Y-23921D01*
X-15329Y-24017D01*
X-15316Y-24112D01*
X-15280Y-24201D01*
X-15221Y-24277D01*
X-15145Y-24336D01*
X-15056Y-24372D01*
X-14961Y-24385D01*
X-14865Y-24372D01*
X-14776Y-24336D01*
X-14700Y-24277D01*
X-14642Y-24201D01*
X-14605Y-24112D01*
X-14592Y-24017D01*
X-14605Y-23921D01*
X-14642Y-23832D01*
X-14700Y-23756D01*
X-14776Y-23698D01*
X-14865Y-23661D01*
X-14961Y-23648D01*
D02*
G37*
G36*
X-25934Y-23663D02*
Y-24005D01*
X-25592D01*
X-25599Y-23952D01*
X-25639Y-23856D01*
X-25702Y-23773D01*
X-25785Y-23710D01*
X-25881Y-23670D01*
X-25934Y-23663D01*
D02*
G37*
G36*
X-26034Y-23663D02*
X-26087Y-23670D01*
X-26184Y-23710D01*
X-26266Y-23773D01*
X-26330Y-23856D01*
X-26369Y-23952D01*
X-26376Y-24005D01*
X-26034D01*
Y-23663D01*
D02*
G37*
G36*
X11170Y-24105D02*
X10828D01*
X10835Y-24158D01*
X10875Y-24254D01*
X10939Y-24337D01*
X11021Y-24400D01*
X11117Y-24440D01*
X11170Y-24447D01*
Y-24105D01*
D02*
G37*
G36*
X-25592Y-24105D02*
X-25934D01*
Y-24447D01*
X-25881Y-24440D01*
X-25785Y-24400D01*
X-25702Y-24337D01*
X-25639Y-24254D01*
X-25599Y-24158D01*
X-25592Y-24105D01*
D02*
G37*
G36*
X-30807Y-23687D02*
X-30902Y-23699D01*
X-30991Y-23736D01*
X-31068Y-23795D01*
X-31126Y-23871D01*
X-31163Y-23960D01*
X-31176Y-24055D01*
X-31163Y-24150D01*
X-31126Y-24239D01*
X-31068Y-24316D01*
X-30991Y-24374D01*
X-30902Y-24411D01*
X-30807Y-24424D01*
X-30712Y-24411D01*
X-30623Y-24374D01*
X-30547Y-24316D01*
X-30488Y-24239D01*
X-30451Y-24150D01*
X-30439Y-24055D01*
X-30451Y-23960D01*
X-30488Y-23871D01*
X-30547Y-23795D01*
X-30623Y-23736D01*
X-30712Y-23699D01*
X-30807Y-23687D01*
D02*
G37*
G36*
X-4429D02*
X-4524Y-23699D01*
X-4613Y-23736D01*
X-4690Y-23795D01*
X-4748Y-23871D01*
X-4785Y-23960D01*
X-4798Y-24055D01*
X-4785Y-24150D01*
X-4748Y-24239D01*
X-4690Y-24316D01*
X-4613Y-24374D01*
X-4524Y-24411D01*
X-4429Y-24424D01*
X-4334Y-24411D01*
X-4245Y-24374D01*
X-4169Y-24316D01*
X-4110Y-24239D01*
X-4073Y-24150D01*
X-4061Y-24055D01*
X-4073Y-23960D01*
X-4110Y-23871D01*
X-4169Y-23795D01*
X-4245Y-23736D01*
X-4334Y-23699D01*
X-4429Y-23687D01*
D02*
G37*
G36*
X-27756D02*
X-27851Y-23699D01*
X-27940Y-23736D01*
X-28016Y-23795D01*
X-28075Y-23871D01*
X-28112Y-23960D01*
X-28124Y-24055D01*
X-28112Y-24150D01*
X-28075Y-24239D01*
X-28016Y-24316D01*
X-27940Y-24374D01*
X-27851Y-24411D01*
X-27756Y-24424D01*
X-27661Y-24411D01*
X-27572Y-24374D01*
X-27495Y-24316D01*
X-27437Y-24239D01*
X-27400Y-24150D01*
X-27387Y-24055D01*
X-27400Y-23960D01*
X-27437Y-23871D01*
X-27495Y-23795D01*
X-27572Y-23736D01*
X-27661Y-23699D01*
X-27756Y-23687D01*
D02*
G37*
G36*
X-2607Y-23663D02*
Y-24005D01*
X-2265D01*
X-2272Y-23952D01*
X-2312Y-23856D01*
X-2376Y-23773D01*
X-2458Y-23710D01*
X-2554Y-23670D01*
X-2607Y-23663D01*
D02*
G37*
G36*
X-2707Y-23663D02*
X-2761Y-23670D01*
X-2857Y-23710D01*
X-2939Y-23773D01*
X-3003Y-23856D01*
X-3043Y-23952D01*
X-3050Y-24005D01*
X-2707D01*
Y-23663D01*
D02*
G37*
G36*
X11270Y-23663D02*
Y-24005D01*
X11613D01*
X11606Y-23952D01*
X11566Y-23856D01*
X11502Y-23773D01*
X11420Y-23710D01*
X11324Y-23670D01*
X11270Y-23663D01*
D02*
G37*
G36*
X11170Y-23663D02*
X11117Y-23670D01*
X11021Y-23710D01*
X10939Y-23773D01*
X10875Y-23856D01*
X10835Y-23952D01*
X10828Y-24005D01*
X11170D01*
Y-23663D01*
D02*
G37*
G36*
X-13239Y-23624D02*
X-13292Y-23631D01*
X-13388Y-23671D01*
X-13471Y-23735D01*
X-13534Y-23817D01*
X-13574Y-23913D01*
X-13581Y-23967D01*
X-13239D01*
Y-23624D01*
D02*
G37*
G36*
X14322Y-23663D02*
Y-24005D01*
X14664D01*
X14657Y-23952D01*
X14617Y-23856D01*
X14554Y-23773D01*
X14471Y-23710D01*
X14375Y-23670D01*
X14322Y-23663D01*
D02*
G37*
G36*
X14222D02*
X14168Y-23670D01*
X14072Y-23710D01*
X13990Y-23773D01*
X13926Y-23856D01*
X13887Y-23952D01*
X13880Y-24005D01*
X14222D01*
Y-23663D01*
D02*
G37*
G36*
X-28985D02*
Y-24005D01*
X-28643D01*
X-28650Y-23952D01*
X-28690Y-23856D01*
X-28754Y-23773D01*
X-28836Y-23710D01*
X-28932Y-23670D01*
X-28985Y-23663D01*
D02*
G37*
G36*
X-29085D02*
X-29139Y-23670D01*
X-29235Y-23710D01*
X-29317Y-23773D01*
X-29381Y-23856D01*
X-29421Y-23952D01*
X-29428Y-24005D01*
X-29085D01*
Y-23663D01*
D02*
G37*
%LPD*%
G36*
X-11385Y-12144D02*
X-11359D01*
X-11332Y-12194D01*
X-11358Y-12233D01*
X-11376Y-12323D01*
X-11358Y-12413D01*
X-11308Y-12489D01*
X-11254Y-12524D01*
Y-17035D01*
X-12009Y-17789D01*
X-12061Y-17772D01*
X-12070Y-17705D01*
X-12112Y-17604D01*
X-12178Y-17517D01*
X-12265Y-17451D01*
X-12314Y-17430D01*
Y-17376D01*
X-12280Y-17362D01*
X-12200Y-17300D01*
X-12138Y-17220D01*
X-12099Y-17126D01*
X-12086Y-17026D01*
X-12099Y-16925D01*
X-12138Y-16831D01*
X-12200Y-16751D01*
X-12280Y-16689D01*
X-12354Y-16659D01*
Y-16605D01*
X-12280Y-16574D01*
X-12200Y-16513D01*
X-12138Y-16432D01*
X-12099Y-16339D01*
X-12086Y-16238D01*
X-12099Y-16138D01*
X-12138Y-16044D01*
X-12200Y-15964D01*
X-12280Y-15902D01*
X-12354Y-15872D01*
Y-15817D01*
X-12280Y-15787D01*
X-12200Y-15725D01*
X-12138Y-15645D01*
X-12099Y-15551D01*
X-12086Y-15451D01*
X-12099Y-15350D01*
X-12138Y-15257D01*
X-12200Y-15176D01*
X-12280Y-15115D01*
X-12354Y-15084D01*
Y-15030D01*
X-12280Y-15000D01*
X-12200Y-14938D01*
X-12138Y-14858D01*
X-12099Y-14764D01*
X-12086Y-14663D01*
X-12099Y-14563D01*
X-12138Y-14469D01*
X-12200Y-14389D01*
X-12280Y-14327D01*
X-12354Y-14297D01*
Y-14243D01*
X-12280Y-14212D01*
X-12200Y-14151D01*
X-12138Y-14070D01*
X-12099Y-13976D01*
X-12086Y-13876D01*
X-12099Y-13775D01*
X-12138Y-13682D01*
X-12200Y-13601D01*
X-12280Y-13540D01*
X-12354Y-13509D01*
Y-13455D01*
X-12280Y-13425D01*
X-12200Y-13363D01*
X-12138Y-13283D01*
X-12099Y-13189D01*
X-12086Y-13089D01*
X-12099Y-12988D01*
X-12138Y-12894D01*
X-12200Y-12814D01*
X-12280Y-12752D01*
X-12374Y-12714D01*
X-12474Y-12700D01*
X-13026D01*
X-13126Y-12714D01*
X-13220Y-12752D01*
X-13300Y-12814D01*
X-13362Y-12894D01*
X-13401Y-12988D01*
X-13414Y-13089D01*
X-13401Y-13189D01*
X-13362Y-13283D01*
X-13300Y-13363D01*
X-13220Y-13425D01*
X-13146Y-13455D01*
Y-13509D01*
X-13220Y-13540D01*
X-13300Y-13601D01*
X-13362Y-13682D01*
X-13401Y-13775D01*
X-13414Y-13876D01*
X-13401Y-13976D01*
X-13362Y-14070D01*
X-13300Y-14151D01*
X-13220Y-14212D01*
X-13146Y-14243D01*
Y-14297D01*
X-13220Y-14327D01*
X-13300Y-14389D01*
X-13362Y-14469D01*
X-13401Y-14563D01*
X-13414Y-14663D01*
X-13401Y-14764D01*
X-13362Y-14858D01*
X-13300Y-14938D01*
X-13220Y-15000D01*
X-13146Y-15030D01*
Y-15084D01*
X-13220Y-15115D01*
X-13300Y-15176D01*
X-13362Y-15257D01*
X-13401Y-15350D01*
X-13414Y-15451D01*
X-13401Y-15551D01*
X-13362Y-15645D01*
X-13300Y-15725D01*
X-13220Y-15787D01*
X-13146Y-15817D01*
Y-15872D01*
X-13220Y-15902D01*
X-13300Y-15964D01*
X-13362Y-16044D01*
X-13401Y-16138D01*
X-13414Y-16238D01*
X-13401Y-16339D01*
X-13362Y-16432D01*
X-13300Y-16513D01*
X-13220Y-16574D01*
X-13146Y-16605D01*
Y-16659D01*
X-13220Y-16689D01*
X-13300Y-16751D01*
X-13362Y-16831D01*
X-13401Y-16925D01*
X-13414Y-17026D01*
X-13401Y-17126D01*
X-13362Y-17220D01*
X-13300Y-17300D01*
X-13220Y-17362D01*
X-13186Y-17376D01*
Y-17430D01*
X-13235Y-17451D01*
X-13322Y-17517D01*
X-13388Y-17604D01*
X-13430Y-17705D01*
X-13438Y-17763D01*
X-12750D01*
Y-17863D01*
X-13438D01*
X-13430Y-17921D01*
X-13388Y-18022D01*
X-13322Y-18109D01*
X-13235Y-18175D01*
X-13186Y-18196D01*
Y-18250D01*
X-13220Y-18264D01*
X-13300Y-18326D01*
X-13362Y-18406D01*
X-13401Y-18500D01*
X-13414Y-18600D01*
X-13401Y-18701D01*
X-13362Y-18795D01*
X-13300Y-18875D01*
X-13220Y-18937D01*
X-13146Y-18967D01*
Y-19021D01*
X-13220Y-19052D01*
X-13300Y-19113D01*
X-13362Y-19194D01*
X-13401Y-19287D01*
X-13414Y-19388D01*
X-13401Y-19488D01*
X-13362Y-19582D01*
X-13300Y-19662D01*
X-13220Y-19724D01*
X-13186Y-19738D01*
Y-19792D01*
X-13235Y-19813D01*
X-13322Y-19879D01*
X-13388Y-19966D01*
X-13430Y-20067D01*
X-13439Y-20134D01*
X-13491Y-20152D01*
X-13628Y-20015D01*
Y-12881D01*
X-12891Y-12144D01*
X-11385D01*
X-11385Y-12144D01*
D02*
G37*
D30*
X-9055Y-21949D02*
X-8366D01*
X-8268Y-22047D01*
X-9646Y-21949D02*
X-9055D01*
X-9744Y-22047D02*
X-9646Y-21949D01*
X6642Y-13878D02*
Y-13769D01*
X6543Y-26340D02*
Y-13930D01*
X6594Y-13878D01*
X4528Y-13976D02*
X4626Y-13878D01*
X4528Y-15748D02*
Y-13976D01*
X6324Y-26346D02*
Y-13766D01*
X5421Y-27249D02*
X6324Y-26346D01*
X6372Y-13718D02*
Y-13583D01*
X6324Y-13766D02*
X6372Y-13718D01*
X6693Y-14173D02*
X7087Y-13780D01*
X6693Y-23130D02*
Y-14173D01*
X7087Y-13780D02*
Y-13583D01*
X6988Y-13484D02*
X7087Y-13583D01*
X6693Y-23130D02*
X7452Y-23889D01*
X4528Y-13878D02*
X4626D01*
X4528Y-13878D02*
X4528Y-13878D01*
X-8932Y-19718D02*
X-8914Y-19701D01*
X-9331Y-19803D02*
X-9267D01*
X-9147Y-19683D01*
X-10558Y-24580D02*
Y-24554D01*
Y-24580D02*
X-10532Y-24606D01*
X5439Y-27019D02*
X6102Y-26356D01*
X-3536Y-27019D02*
X5439D01*
X-3981Y-26575D02*
Y-26401D01*
Y-26575D02*
X-3536Y-27019D01*
X5915Y-26331D02*
Y-15727D01*
X5475Y-26772D02*
X5915Y-26331D01*
X-1838Y-26772D02*
X5475D01*
X5765Y-26269D02*
Y-15789D01*
X5501Y-26533D02*
X5765Y-26269D01*
X-1860Y-26533D02*
X5501D01*
X5615Y-26207D02*
Y-16230D01*
X5439Y-26383D02*
X5615Y-26207D01*
X-1797Y-26383D02*
X5439D01*
X5465Y-26145D02*
Y-16390D01*
X5377Y-26233D02*
X5465Y-26145D01*
X-1735Y-26233D02*
X5377D01*
X5315Y-26083D02*
Y-16535D01*
X-1673Y-26083D02*
X5315D01*
X-2342Y-25414D02*
X-1673Y-26083D01*
X4528Y-15748D02*
X5315Y-16535D01*
X-2404Y-25564D02*
X-1735Y-26233D01*
X4921Y-15846D02*
X5465Y-16390D01*
X-2467Y-25714D02*
X-1797Y-26383D01*
X5217Y-15831D02*
X5615Y-16230D01*
X5217Y-15831D02*
Y-13780D01*
X-2529Y-25864D02*
X-1860Y-26533D01*
X5512Y-15536D02*
X5765Y-15789D01*
X5512Y-15536D02*
Y-13484D01*
X-2596Y-26014D02*
X-1838Y-26772D01*
X5807Y-15619D02*
X5915Y-15727D01*
X5807Y-15619D02*
Y-13780D01*
X5484Y-27399D02*
X6543Y-26340D01*
X-3706Y-27249D02*
X5421D01*
X-14280Y-27399D02*
X5484D01*
X-4386Y-26569D02*
X-3706Y-27249D01*
X-14886Y-26793D02*
X-14280Y-27399D01*
X8957Y-13976D02*
X10138D01*
X-6102Y-10532D02*
X-5807Y-10827D01*
X-5217D01*
X-8858Y-9547D02*
X-8124Y-8813D01*
X-8858Y-9646D02*
Y-9547D01*
X8957Y-13583D02*
X10039D01*
X-10728Y-6988D02*
X-10630Y-6890D01*
X-7461Y-7941D02*
X-7389Y-8013D01*
X-7461Y-7941D02*
X-7461Y-7941D01*
X8957Y-13091D02*
X9055Y-13189D01*
X10138D01*
X3346Y-15665D02*
Y-14090D01*
X2612Y-16400D02*
X3346Y-15665D01*
X-5250Y-16400D02*
X2612D01*
X3150Y-15650D02*
Y-14075D01*
X2559Y-16240D02*
X3150Y-15650D01*
X-2958Y-16240D02*
X2559D01*
X3150Y-14075D02*
X4310Y-12914D01*
X3346Y-14090D02*
X4372Y-13064D01*
X-4434Y-14764D02*
X-2958Y-16240D01*
X-4434Y-14764D02*
X-4429Y-14758D01*
Y-14468D01*
X-4860Y-14037D02*
X-4429Y-14468D01*
X-5250Y-14037D02*
X-4860D01*
X-8914Y-14229D02*
X-7047Y-12362D01*
X-8914Y-19701D02*
Y-14229D01*
X-8932Y-19718D02*
X-8847Y-19803D01*
X-9094Y-19626D02*
Y-14155D01*
X-9147Y-19679D02*
X-9094Y-19626D01*
X-9147Y-19683D02*
Y-19679D01*
X-9094Y-14155D02*
X-7122Y-12182D01*
X7702Y-13214D02*
X7972Y-13484D01*
X6741Y-13214D02*
X7702D01*
X6372Y-13583D02*
X6741Y-13214D01*
X4372Y-13064D02*
X8506D01*
X11174Y-10397D01*
X4310Y-12914D02*
X8444D01*
X11024Y-10335D01*
X5936Y-11465D02*
X8295Y-9106D01*
X-10976Y-11465D02*
X5936D01*
X6377Y-11615D02*
X8295Y-9697D01*
X-10744Y-11615D02*
X6377D01*
X-11161Y-12032D02*
X-10744Y-11615D01*
X-11273Y-11762D02*
X-10976Y-11465D01*
X8036Y-12182D02*
X9489Y-10729D01*
X9563Y-10909D02*
X9711D01*
X8110Y-12362D02*
X9563Y-10909D01*
X11174Y-10397D02*
Y-9205D01*
X11024Y-10335D02*
Y-9547D01*
X10236Y-8760D02*
X11024Y-9547D01*
X10236Y-8268D02*
X11174Y-9205D01*
X6207Y-8077D02*
X9744D01*
X6102Y-7972D02*
X6207Y-8077D01*
X9744D02*
X10046Y-7776D01*
X-11385Y-12032D02*
X-11161D01*
X-7122Y-12182D02*
X8036D01*
X-7047Y-12362D02*
X8110D01*
X-13740Y-12835D02*
X-12938Y-12032D01*
X-11385D01*
X-11385Y-12032D01*
X-13740Y-20062D02*
Y-12835D01*
Y-20062D02*
X-12839Y-20963D01*
X-11142Y-12323D02*
X-11142Y-12323D01*
X-11142Y-17081D02*
Y-12323D01*
X-12661Y-18600D02*
X-11142Y-17081D01*
X13681Y-11909D02*
X14468D01*
X19882Y-24016D02*
X20906D01*
X22177Y-25287D01*
X11614Y-6988D02*
X11713D01*
X10827Y-7776D02*
X11614Y-6988D01*
X10046Y-7776D02*
X10827D01*
X13287Y-9350D02*
X13287D01*
X13386Y-9252D01*
X14272Y-23888D02*
X14272Y-23889D01*
X10433Y-10187D02*
Y-10039D01*
X7579Y-18967D02*
X12501Y-23889D01*
X7579Y-18967D02*
Y-13780D01*
X6102Y-26356D02*
Y-13484D01*
X-4864Y-25414D02*
X-2342D01*
X-4802Y-25564D02*
X-2404D01*
X-4740Y-25714D02*
X-2467D01*
X-4678Y-25864D02*
X-2529D01*
X6102Y-13484D02*
Y-13386D01*
X4921Y-15846D02*
Y-13484D01*
X-12839Y-20963D02*
X-12750D01*
X-29033Y-26437D02*
Y-23878D01*
X-25982Y-26437D02*
Y-23878D01*
X-27181Y-26437D02*
X-25982D01*
X-27586Y-26032D02*
X-27181Y-26437D01*
X-27922Y-26032D02*
X-27586D01*
X-28327Y-26437D02*
X-27922Y-26032D01*
X-29033Y-26437D02*
X-28327D01*
X-29970Y-25500D02*
X-29033Y-26437D01*
X-36250Y-25500D02*
X-29970D01*
X12501Y-26448D02*
Y-23889D01*
X-7461Y-7441D02*
X-7461Y-7441D01*
X-7461Y-7941D02*
Y-7441D01*
X-3600Y-8543D02*
X-3404Y-8346D01*
X-5250Y-15187D02*
Y-14825D01*
X-5702Y-15187D02*
X-5250D01*
X-5951Y-15436D02*
X-5702Y-15187D01*
X-5951Y-16576D02*
Y-15436D01*
Y-16576D02*
X-5702Y-16825D01*
X-5250D01*
Y-17187D02*
Y-16825D01*
X-12750Y-18600D02*
X-12661D01*
X-12750Y-18175D02*
Y-17813D01*
X-13202Y-18175D02*
X-12750D01*
X-13451Y-18424D02*
X-13202Y-18175D01*
X-13451Y-19564D02*
Y-18424D01*
Y-19564D02*
X-13202Y-19813D01*
X-12750D01*
Y-20175D02*
Y-19813D01*
Y-20175D02*
X-11782D01*
X-14886Y-26793D02*
Y-26319D01*
X-11765Y-25557D02*
X-11542D01*
X-11996Y-25787D02*
X-11765Y-25557D01*
X-17102Y-25787D02*
X-11996D01*
X-18346D02*
X-17484D01*
X-17104Y-25407D01*
X-11480D01*
X-18768Y-25827D02*
X-18198Y-25257D01*
X-20669Y-25899D02*
X-19942D01*
X-19150Y-25107D02*
X-11355D01*
X-11480Y-25407D02*
X-10635Y-26252D01*
Y-26305D02*
Y-26252D01*
X-11542Y-25557D02*
X-10785Y-26314D01*
Y-26367D02*
Y-26314D01*
X-18198Y-25257D02*
X-11417D01*
X-10485Y-26190D01*
Y-26243D02*
Y-26190D01*
X-11355Y-25107D02*
X-10335Y-26127D01*
Y-26181D02*
Y-26127D01*
X-10485Y-26243D02*
X-10397Y-26331D01*
X-10635Y-26305D02*
X-10459Y-26481D01*
X-10785Y-26367D02*
X-10521Y-26631D01*
X-11654Y-25827D02*
X-10699Y-26781D01*
X-11614Y-26417D02*
X-11063Y-26969D01*
X-5359D01*
X-10397Y-26331D02*
X-5570D01*
X-10459Y-26481D02*
X-5508D01*
X-10521Y-26631D02*
X-5445D01*
X-10699Y-26781D02*
X-5383D01*
X-10335Y-26181D02*
X-5632D01*
X-4554Y-26164D02*
X-4218D01*
X-5359Y-26969D02*
X-4554Y-26164D01*
X-5383Y-26781D02*
X-4616Y-26014D01*
X-5445Y-26631D02*
X-4678Y-25864D01*
X-5508Y-26481D02*
X-4740Y-25714D01*
X-5570Y-26331D02*
X-4802Y-25564D01*
X-4616Y-26014D02*
X-2596D01*
X-5632Y-26181D02*
X-4864Y-25414D01*
X-4218Y-26164D02*
X-3981Y-26401D01*
X7452Y-23889D02*
X9445D01*
X-11782Y-20175D02*
X-9909Y-22047D01*
X-9744D01*
X-8268D02*
Y-20116D01*
X-5339Y-17187D01*
X-19942Y-25899D02*
X-19150Y-25107D01*
X-19488Y-25827D02*
X-18768D01*
X9941Y-10425D02*
Y-9941D01*
X9637Y-10729D02*
X9941Y-10425D01*
X9489Y-10729D02*
X9637D01*
X9711Y-10909D02*
X10433Y-10187D01*
D31*
X-11122Y-8563D02*
X-10925Y-8760D01*
Y-10251D02*
Y-8760D01*
D32*
X-10728Y-6988D02*
Y-6988D01*
D33*
X984Y-7750D02*
Y-7677D01*
X-1994Y-10728D02*
X984Y-7750D01*
X-4528Y-10728D02*
X-1994D01*
X-6173Y-8813D02*
X-4528Y-10459D01*
Y-10728D02*
Y-10459D01*
X-8858Y-9941D02*
Y-9646D01*
X-8858Y-9646D01*
X-10925Y-10251D02*
X-10395D01*
X-11811D02*
X-10925D01*
X-7389Y-8013D02*
X-6588Y-8813D01*
X-7461Y-7941D02*
Y-7441D01*
X-6588Y-8813D02*
X-6173D01*
X-8124D02*
X-6588D01*
X-10395Y-10251D02*
X-10084Y-9941D01*
X-8858D01*
X-9646Y-6693D02*
X-9646Y-6693D01*
X-20571Y-10236D02*
X-11827D01*
X-22539Y-12205D02*
X-20571Y-10236D01*
X9252Y-10433D02*
X9525Y-10160D01*
Y-8516D01*
X6642Y-7807D02*
X8295D01*
X5805Y-6970D02*
X6642Y-7807D01*
X-21457Y-7972D02*
X-21457Y-7972D01*
D35*
X19980Y-25787D02*
D03*
D36*
Y-25287D02*
D03*
X20480Y-25787D02*
D03*
Y-25287D02*
D03*
X20980Y-25787D02*
D03*
Y-25287D02*
D03*
X21480Y-25787D02*
D03*
Y-25287D02*
D03*
X21980Y-25787D02*
D03*
Y-25287D02*
D03*
D37*
X-30807Y-26614D02*
D03*
Y-24055D02*
D03*
X-29035Y-26614D02*
D03*
Y-24055D02*
D03*
X9449Y-26614D02*
D03*
Y-24055D02*
D03*
X11220Y-26614D02*
D03*
Y-24055D02*
D03*
X-14961Y-26576D02*
D03*
Y-24017D02*
D03*
X-13189Y-26576D02*
D03*
Y-24017D02*
D03*
X-27756Y-26614D02*
D03*
Y-24055D02*
D03*
X-25984Y-26614D02*
D03*
Y-24055D02*
D03*
X12500Y-26614D02*
D03*
Y-24055D02*
D03*
X14272Y-26614D02*
D03*
Y-24055D02*
D03*
X-4429Y-26614D02*
D03*
Y-24055D02*
D03*
X-2657Y-26614D02*
D03*
Y-24055D02*
D03*
X-39250Y-25500D02*
D03*
X-36250D02*
D03*
D38*
X-12750Y-13089D02*
D03*
Y-13876D02*
D03*
Y-14663D02*
D03*
Y-15451D02*
D03*
Y-16238D02*
D03*
Y-17026D02*
D03*
Y-17813D02*
D03*
Y-18600D02*
D03*
Y-19388D02*
D03*
Y-20175D02*
D03*
Y-20963D02*
D03*
Y-21750D02*
D03*
X-5250Y-21911D02*
D03*
Y-21124D02*
D03*
Y-20337D02*
D03*
Y-19549D02*
D03*
Y-18762D02*
D03*
Y-17974D02*
D03*
Y-17187D02*
D03*
Y-16400D02*
D03*
Y-15612D02*
D03*
Y-14825D02*
D03*
Y-14037D02*
D03*
Y-13250D02*
D03*
D39*
X-9055Y0D02*
D03*
X-15730Y-8500D02*
D03*
X-3250D02*
D03*
D40*
X-10055Y1000D02*
D03*
X-8055D02*
D03*
Y-1000D02*
D03*
X-10055D02*
D03*
D41*
X-15608Y-11299D02*
D03*
D42*
X-18110Y-21260D02*
D03*
X-39370D02*
D03*
X-18110Y0D02*
D03*
X-39370D02*
D03*
X0D02*
D03*
X21260D02*
D03*
X0Y-21260D02*
D03*
X21260D02*
D03*
D43*
X-9055Y-21949D02*
D03*
X6594Y-13878D02*
D03*
X5807D02*
D03*
X5217D02*
D03*
X4626D02*
D03*
X-9331Y-19803D02*
D03*
X-10728Y-6988D02*
D03*
X-3740Y-11122D02*
D03*
X-2953D02*
D03*
X-3346D02*
D03*
X-2953Y-10236D02*
D03*
X-3365D02*
D03*
X-3740D02*
D03*
X-9941Y-8957D02*
D03*
Y-9449D02*
D03*
Y-10433D02*
D03*
X-25591Y-13287D02*
D03*
X-4429Y-8563D02*
D03*
X-6594Y-7579D02*
D03*
X-6791Y-5413D02*
D03*
X-11024Y-5020D02*
D03*
X-10335D02*
D03*
X-7579Y-5413D02*
D03*
X10138Y-13976D02*
D03*
X8957D02*
D03*
X-5217Y-10827D02*
D03*
X-4528Y-10728D02*
D03*
X-8858Y-9646D02*
D03*
X10039Y-13583D02*
D03*
X8957D02*
D03*
X-8858Y-10433D02*
D03*
X-11122Y-8563D02*
D03*
X15059Y-8071D02*
D03*
Y-8760D02*
D03*
X1083Y-6988D02*
D03*
X3445D02*
D03*
X4035Y-5413D02*
D03*
X7972Y-5315D02*
D03*
X13780Y-3937D02*
D03*
X9843Y-3937D02*
D03*
X-1969Y-5906D02*
D03*
Y-3937D02*
D03*
X-11319Y-9843D02*
D03*
Y-10827D02*
D03*
X-11811Y-10236D02*
D03*
X-12205Y-12500D02*
D03*
X-9843Y-11122D02*
D03*
Y-12106D02*
D03*
X-14961Y-21850D02*
D03*
X-14272Y-21161D02*
D03*
X-12795Y-23425D02*
D03*
Y-22539D02*
D03*
X-11811D02*
D03*
X-6398Y-8169D02*
D03*
X-6201Y-9252D02*
D03*
X-7185Y-9744D02*
D03*
Y-10335D02*
D03*
X0Y-15256D02*
D03*
X1476Y-14272D02*
D03*
X492Y-13287D02*
D03*
X-6102Y-10532D02*
D03*
X-8858Y-9941D02*
D03*
X8957Y-13091D02*
D03*
X10138Y-13189D02*
D03*
X-5906Y-492D02*
D03*
X-11811D02*
D03*
Y-4921D02*
D03*
X-5906D02*
D03*
X-11811Y-3445D02*
D03*
X-5906D02*
D03*
X-9646Y-6693D02*
D03*
X-7874Y-4528D02*
D03*
X-8465Y-3937D02*
D03*
Y-3346D02*
D03*
X-7874Y-2953D02*
D03*
Y-2362D02*
D03*
Y-1772D02*
D03*
X-8465D02*
D03*
X-9646D02*
D03*
Y-2362D02*
D03*
Y-3150D02*
D03*
Y-3937D02*
D03*
Y-4528D02*
D03*
X3839Y-15650D02*
D03*
X2657D02*
D03*
X2657Y-14272D02*
D03*
X3839D02*
D03*
X3937Y-25591D02*
D03*
X-16535Y-24409D02*
D03*
X-13780D02*
D03*
X-23622Y-24803D02*
D03*
X-26772D02*
D03*
X-29921D02*
D03*
X-33465D02*
D03*
Y-26772D02*
D03*
X-37402D02*
D03*
X-40157D02*
D03*
Y-25197D02*
D03*
Y-22835D02*
D03*
X0Y-9449D02*
D03*
X-787Y-9055D02*
D03*
X-17717Y-10630D02*
D03*
Y-9843D02*
D03*
X-14173Y-10630D02*
D03*
Y-9843D02*
D03*
X-3150Y-7480D02*
D03*
X-1969Y-19685D02*
D03*
X-984Y-14272D02*
D03*
X-1969Y-15748D02*
D03*
X7087Y-17717D02*
D03*
X-1969Y-17717D02*
D03*
X8268Y-16142D02*
D03*
X4331D02*
D03*
X7087D02*
D03*
X7480Y-26378D02*
D03*
X4724Y-24409D02*
D03*
X4724Y-22047D02*
D03*
X7480Y-20079D02*
D03*
X4724D02*
D03*
X7480Y-24409D02*
D03*
Y-22047D02*
D03*
X13780Y-21654D02*
D03*
X9843Y-19685D02*
D03*
X17717Y-23622D02*
D03*
X19685Y-9843D02*
D03*
X15748D02*
D03*
X17717Y-7874D02*
D03*
X-7874Y-13780D02*
D03*
X-8268Y-12205D02*
D03*
X12992Y-12992D02*
D03*
X13780Y-13780D02*
D03*
Y-15748D02*
D03*
X8268Y-17717D02*
D03*
X9843Y-15748D02*
D03*
X2756Y-22441D02*
D03*
X1969D02*
D03*
X1969Y-20866D02*
D03*
X2756D02*
D03*
X3937Y-18504D02*
D03*
X3150Y-17717D02*
D03*
X0Y-24016D02*
D03*
Y-25492D02*
D03*
X-17323Y-13780D02*
D03*
X-18504D02*
D03*
X-16535Y-18898D02*
D03*
X-17323Y-19685D02*
D03*
X-15748D02*
D03*
X-16535Y-20472D02*
D03*
X-18504Y-17717D02*
D03*
Y-15748D02*
D03*
X-17323Y-17717D02*
D03*
Y-15748D02*
D03*
X-15748Y-13780D02*
D03*
X-11811Y-23425D02*
D03*
X-5906Y-23622D02*
D03*
X-7874Y-18898D02*
D03*
X-7480Y-20472D02*
D03*
X-9843Y-19685D02*
D03*
X-9882Y-17717D02*
D03*
X-7874D02*
D03*
X-9843Y-13780D02*
D03*
X-7874Y-15748D02*
D03*
X-9843D02*
D03*
X-25591Y-21654D02*
D03*
X-21654D02*
D03*
Y-19685D02*
D03*
Y-15748D02*
D03*
X-25591D02*
D03*
Y-19685D02*
D03*
X-33465Y-21654D02*
D03*
X-35433Y-19685D02*
D03*
X-37402Y-17717D02*
D03*
Y-13780D02*
D03*
X-33465D02*
D03*
X-31496Y-19685D02*
D03*
X-33465Y-17717D02*
D03*
X-29528D02*
D03*
X-31496Y-15748D02*
D03*
X-29528Y-13780D02*
D03*
X-27559Y-15748D02*
D03*
X-25591Y-9843D02*
D03*
X-37402D02*
D03*
X-29528Y-9843D02*
D03*
X-33465Y-9843D02*
D03*
X11811Y-21654D02*
D03*
Y-17717D02*
D03*
Y-13780D02*
D03*
X13780Y-17717D02*
D03*
X17717Y-19685D02*
D03*
Y-15748D02*
D03*
Y-11811D02*
D03*
X3150Y-9843D02*
D03*
Y-5906D02*
D03*
X11811D02*
D03*
X15748D02*
D03*
X19685D02*
D03*
X21654Y-26772D02*
D03*
Y-22835D02*
D03*
Y-19685D02*
D03*
Y-17717D02*
D03*
Y-15748D02*
D03*
Y-13780D02*
D03*
X21654Y-11811D02*
D03*
X21654Y-9843D02*
D03*
Y-7874D02*
D03*
Y-5906D02*
D03*
Y-3937D02*
D03*
Y-1969D02*
D03*
X17717D02*
D03*
X13780D02*
D03*
X9843D02*
D03*
X5906D02*
D03*
X0Y-5906D02*
D03*
X-3937D02*
D03*
X-13780D02*
D03*
X-17717D02*
D03*
X-21654D02*
D03*
X-25591D02*
D03*
X-37402D02*
D03*
X-29528D02*
D03*
X-33465Y-5906D02*
D03*
X1969Y-1969D02*
D03*
X-1969D02*
D03*
X-5906D02*
D03*
X-11811D02*
D03*
X-15748D02*
D03*
X-19685D02*
D03*
X-23622D02*
D03*
X-27559D02*
D03*
X-31496D02*
D03*
X-35433D02*
D03*
X-40157Y-19685D02*
D03*
Y-17717D02*
D03*
Y-15748D02*
D03*
Y-13780D02*
D03*
Y-11811D02*
D03*
Y-9843D02*
D03*
Y-7874D02*
D03*
Y-5906D02*
D03*
Y-3937D02*
D03*
Y-1969D02*
D03*
X-37402Y787D02*
D03*
X-35433D02*
D03*
X-33465D02*
D03*
X-31496D02*
D03*
X-29528D02*
D03*
X-27559D02*
D03*
X-25591D02*
D03*
X-23622D02*
D03*
X-21654D02*
D03*
X-19685D02*
D03*
X-16929D02*
D03*
X-15748D02*
D03*
X-13780D02*
D03*
X-11811D02*
D03*
X-11024D02*
D03*
X-7087D02*
D03*
X-5906D02*
D03*
X-3937D02*
D03*
X-1969D02*
D03*
X1969D02*
D03*
X19685D02*
D03*
X17717D02*
D03*
X15748D02*
D03*
X13780D02*
D03*
X11811D02*
D03*
X9843D02*
D03*
X7874D02*
D03*
X5906D02*
D03*
X3937D02*
D03*
X3031Y-11142D02*
D03*
X-591Y-11102D02*
D03*
X-5551Y-12677D02*
D03*
X-4921D02*
D03*
X-5610Y-11909D02*
D03*
X-6299D02*
D03*
X-1969Y-11890D02*
D03*
Y-12638D02*
D03*
X-591D02*
D03*
Y-11890D02*
D03*
X5827Y-12638D02*
D03*
X5807Y-11909D02*
D03*
X3051Y-12697D02*
D03*
X3051Y-11909D02*
D03*
X6102Y-7972D02*
D03*
X984Y-7677D02*
D03*
X-11142Y-12323D02*
D03*
X-11273Y-11762D02*
D03*
X-22539Y-12205D02*
D03*
X-19370Y-8583D02*
D03*
X14468Y-11909D02*
D03*
X13681D02*
D03*
X19882Y-24016D02*
D03*
X11713Y-6988D02*
D03*
X13287Y-9350D02*
D03*
X13583Y-9843D02*
D03*
X4626Y-4331D02*
D03*
X10433Y-10039D02*
D03*
X9252Y-10433D02*
D03*
X7972Y-13484D02*
D03*
X7579Y-13780D02*
D03*
X6988Y-13484D02*
D03*
X6102Y-13484D02*
D03*
X5512D02*
D03*
X10236Y-8760D02*
D03*
Y-8268D02*
D03*
X-20669Y-25899D02*
D03*
X-18346Y-25787D02*
D03*
X-17102D02*
D03*
X-6588Y-8813D02*
D03*
X-7461Y-7441D02*
D03*
X-7389Y-8013D02*
D03*
X8295Y-7807D02*
D03*
X5805Y-6970D02*
D03*
X9525Y-8516D02*
D03*
X8295Y-9697D02*
D03*
Y-9106D02*
D03*
X-11614Y-26417D02*
D03*
X-11654Y-25827D02*
D03*
X4921Y-13484D02*
D03*
X-20787Y-8484D02*
D03*
X-21457Y-7972D02*
D03*
X-23819Y-9350D02*
D03*
Y-10138D02*
D03*
X-9744Y-22047D02*
D03*
X-8268D02*
D03*
X-19488Y-25827D02*
D03*
X6988Y-6693D02*
D03*
X6398D02*
D03*
X9941Y-9941D02*
D03*
X-8847Y-19803D02*
D03*
D44*
X-10558Y-24554D02*
D03*
X-7108Y-24604D02*
D03*
D45*
X-8518Y-8412D02*
D03*
X-8990D02*
D03*
X-8510Y-7940D02*
D03*
X-8990D02*
D03*
M02*
