M48
;Layer_Color=9474304
;FILE_FORMAT=2:4
INCH,LZ
;TYPE=PLATED
T1F00S00C0.0130
T2F00S00C0.0140
T3F00S00C0.0150
T4F00S00C0.0236
T5F00S00C0.0280
T6F00S00C0.0315
T7F00S00C0.0354
T8F00S00C0.0433
T9F00S00C0.0512
T10F00S00C0.0591
T11F00S00C0.0630
T12F00S00C0.0945
T13F00S00C0.1378
;TYPE=NON_PLATED
T14F00S00C0.0600
%
T01
X-00899Y-008412
X-008518
X-00899Y-00794
T02
X00748Y-026378
Y-024409
Y-022047
X00748Y-020079
X009843Y-019685
X008268Y-017717
X011811
X01378
Y-021654
X011811
X017717Y-023622
X019882Y-024016
X021654Y-022835
Y-019685
Y-017717
X017717Y-019685
X021654Y-026772
X003937Y-025591
X004724Y-024409
X004724Y-022047
Y-020079
X003937Y-018504
X00315Y-017717
X002756Y-020866
X001969
X001969Y-022441
X002756
X0Y-024016
Y-025492
X-001969Y-019685
Y-017717
X-007874
X-007874Y-018898
X-00748Y-020472
X-008268Y-022047
X-005906Y-023622
X007087Y-017717
X-009882Y-017717
X-009843Y-019685
X-009331Y-019803
X-008847
X-009055Y-021949
X-009744Y-022047
X-011811Y-022539
X-011811Y-023425
X-012795
Y-022539
X-014961Y-02185
X-014272Y-021161
X-015748Y-019685
X-016535Y-018898
X-017323Y-019685
X-016535Y-020472
X-017323Y-017717
X-018504
X-021654Y-019685
Y-021654
X-023622Y-024803
X-020669Y-025899
X-019488Y-025827
X-018346Y-025787
X-017102
X-016535Y-024409
X-01378
X-011654Y-025827
X-011614Y-026417
X-026772Y-024803
X-029921
X-033465
Y-026772
X-037402
X-033465Y-021654
X-035433Y-019685
X-037402Y-017717
X-033465
X-031496Y-019685
X-029528Y-017717
X-025591Y-019685
Y-021654
X-040157Y-022835
Y-025197
Y-026772
Y-019685
Y-017717
Y-015748
Y-01378
Y-011811
Y-009843
Y-007874
Y-005906
Y-003937
Y-001969
X-035433
X-031496
X-027559
X-029528Y-005906
X-025591
Y-009843
Y-013287
Y-015748
X-027559
X-031496
X-033465Y-01378
X-037402
Y-009843
X-033465
X-029528Y-009843
X-029528Y-01378
X-033465Y-005906
X-037402Y-005906
X-021654
X-021457Y-007972
X-020787Y-008484
X-01937Y-008583
X-017717Y-009843
Y-01063
X-014173
Y-009843
X-011811Y-010236
X-011319Y-009843
Y-010827
X-011273Y-011762
X-011142Y-012323
X-012205Y-0125
X-009843Y-012106
Y-011122
X-009941Y-010433
Y-009449
Y-008957
X-011122Y-008563
X-010728Y-006988
X-009646Y-006693
X-009646Y-004528
Y-003937
Y-00315
Y-002362
Y-001772
X-011811Y-001969
Y-003445
Y-004921
X-011024Y-00502
X-010335
X-01378Y-005906
X-017717
X-015748Y-001969
X-019685
X-023622
X-023819Y-00935
Y-010138
X-022539Y-012205
X-021654Y-015748
X-018504
X-017323
X-017323Y-01378
X-018504
X-015748
X-009843
Y-015748
X-008858Y-010433
X-008858Y-009941
X-008858Y-009646
X-007185Y-009744
Y-010335
X-006102Y-010532
X-005217Y-010827
X-004528Y-010728
X-00374Y-011122
X-003346
X-002953
X-002953Y-010236
X-003365
X-00374
X-004429Y-008563
X-00315Y-00748
X-003937Y-005906
X-001969
Y-003937
X-001969Y-001969
X001969
X005906
X004626Y-004331
X004035Y-005413
X00315Y-005906
X003445Y-006988
X001083
X000984Y-007677
X0Y-005906
X0Y-009449
X-000787Y-009055
X-000591Y-011102
Y-01189
Y-012638
X-001969
Y-01189
X-000984Y-014272
X0Y-015256
X001476Y-014272
X002657
X003839
X004626Y-013878
X005217
X005807
X005512Y-013484
X006102
X006594Y-013878
X006988Y-013484
X005827Y-012638
X005807Y-011909
X004921Y-013484
X003051Y-012697
X003051Y-011909
X003031Y-011142
X00315Y-009843
X006102Y-007972
X005805Y-00697
X006398Y-006693
X006988
X007087Y-016142
X004331
X003839Y-01565
X002657
X000492Y-013287
X-001969Y-015748
X-007874Y-015748
Y-01378
X-008268Y-012205
X-006299Y-011909
X-00561
X-005551Y-012677
X-004921
X-006201Y-009252
X-006588Y-008813
X-006398Y-008169
X-006594Y-007579
X-007461Y-007441
X-007389Y-008013
X-007579Y-005413
X-006791
X-005906Y-004921
Y-003445
Y-001969
X-007874Y-001772
Y-002362
Y-002953
X-008465Y-003346
Y-003937
X-007874Y-004528
X-008465Y-001772
X009843Y-001969
Y-003937
X007972Y-005315
X008295Y-007807
Y-009106
Y-009697
X009252Y-010433
X009941Y-009941
X010433Y-010039
X010236Y-00876
Y-008268
X009525Y-008516
X011713Y-006988
X011811Y-005906
X01378Y-003937
Y-001969
X017717
X021654
Y-003937
Y-005906
X019685
Y-009843
X021654
Y-007874
X017717
X015059Y-008071
Y-00876
X015748Y-009843
X013583Y-009843
X013287Y-00935
X013681Y-011909
X014468
X012992Y-012992
X01378Y-01378
Y-015748
X011811Y-01378
X010138Y-013976
X010039Y-013583
X010138Y-013189
X008957Y-013091
Y-013583
Y-013976
X007972Y-013484
X007579Y-01378
X008268Y-016142
X009843Y-015748
X017717
Y-011811
X021654Y-011811
X021654Y-01378
Y-015748
X015748Y-005906
Y000787
X017717
X019685
X01378
X011811
X009843
X007874
X005906
X003937
X001969
X-001969
X-003937
X-005906
X-007087
X-005906Y-000492
X-011811
Y000787
X-011024
X-01378
X-015748
X-016929
X-019685
X-021654
X-023622
X-025591
X-027559
X-029528
X-031496
X-033465
X-035433
X-037402
T03
X-00851Y-00794
T04
X01998Y-025787
Y-025287
X02048
Y-025787
X02098
Y-025287
X02148
Y-025787
X02198
Y-025287
T05
X-007108Y-024604
X-010558Y-024554
T06
X-00525Y-021911
Y-021124
Y-020337
Y-019549
Y-018762
Y-017974
Y-017187
Y-0164
X-01275Y-017026
Y-017813
Y-0186
Y-019388
Y-020175
Y-020963
Y-02175
Y-016238
Y-015451
Y-014663
Y-013876
Y-013089
X-00525Y-01325
Y-014037
Y-014825
Y-015612
T07
X-03925Y-0255
X-03625
T08
X009449Y-026614
X01122
X0125
X014272
Y-024055
X0125
X01122
X009449
X-002657
X-004429
Y-026614
X-002657
X-013189Y-026576
X-014961
Y-024017
X-013189
X-025984Y-024055
X-027756
X-029035
X-030807
Y-026614
X-029035
X-027756
X-025984
T09
X-01573Y-0085
X-00325
T10
X-009055Y0
T11
X-010055Y-001
X-008055
Y001
X-010055
T12
X-015608Y-011299
T13
X02126Y-02126
X0
X-01811
X-03937
X02126Y0
X0
X-01811
X-03937
T14
X-007998Y-025594
X-009718
M30
