%FSLAX24Y24*%
%MOIN*%
G70*
G01*
G75*
G04 Layer_Physical_Order=1*
G04 Layer_Color=255*
%ADD10R,0.0354X0.0315*%
%ADD11R,0.0453X0.0236*%
%ADD12O,0.0827X0.0276*%
%ADD13R,0.0315X0.0354*%
%ADD14R,0.2185X0.2677*%
%ADD15R,0.0394X0.0945*%
%ADD16R,0.2200X0.0830*%
%ADD17R,0.0433X0.0551*%
%ADD18R,0.0551X0.0433*%
%ADD19R,0.0394X0.0512*%
%ADD20R,0.0236X0.0453*%
%ADD21R,0.1575X0.1181*%
%ADD22R,0.0571X0.0236*%
%ADD23R,0.1378X0.0787*%
%ADD24O,0.0827X0.0118*%
%ADD25O,0.0118X0.0827*%
%ADD26R,0.0532X0.0846*%
%ADD27R,0.1350X0.1850*%
%ADD28R,0.0200X0.0940*%
%ADD29R,0.0790X0.0980*%
%ADD30C,0.0080*%
%ADD31C,0.0500*%
%ADD32C,0.0100*%
%ADD33C,0.0120*%
%ADD34C,0.0800*%
%ADD35C,0.0200*%
%ADD36R,0.0591X0.0591*%
%ADD37C,0.0591*%
%ADD38C,0.2000*%
%ADD39R,0.0591X0.0591*%
%ADD40C,0.0394*%
%ADD41R,0.0394X0.0394*%
%ADD42C,0.0984*%
%ADD43C,0.0320*%
G36*
X36165Y41015D02*
X36895D01*
Y41152D01*
X36969Y41182D01*
X37076Y41075D01*
X37076Y41075D01*
X37113Y41051D01*
X37156Y41042D01*
X37156Y41042D01*
X37633D01*
Y40927D01*
X37633Y40927D01*
X37633D01*
X37591Y40866D01*
X37484Y40760D01*
X37460Y40723D01*
X37451Y40680D01*
X37451Y40680D01*
Y40047D01*
X37451Y40047D01*
X37460Y40004D01*
X37484Y39967D01*
X37651Y39801D01*
X37651Y39801D01*
X37687Y39776D01*
X37730Y39768D01*
X37730Y39768D01*
X37786D01*
X37811Y39730D01*
X37880Y39684D01*
X37961Y39668D01*
Y39592D01*
X37880Y39576D01*
X37811Y39530D01*
X37786Y39492D01*
X37560D01*
X36851Y40201D01*
X36886Y40285D01*
X36898Y40380D01*
X36886Y40475D01*
X36849Y40564D01*
X36791Y40641D01*
X36714Y40699D01*
X36625Y40736D01*
X36530Y40748D01*
X36435Y40736D01*
X36346Y40699D01*
X36269Y40641D01*
X36211Y40564D01*
X36181Y40492D01*
X35879D01*
X35849Y40564D01*
X35791Y40641D01*
X35714Y40699D01*
X35625Y40736D01*
X35530Y40748D01*
X35435Y40736D01*
X35346Y40699D01*
X35317Y40677D01*
X35237Y40716D01*
Y41044D01*
X35317Y41083D01*
X35346Y41061D01*
X35435Y41024D01*
X35530Y41012D01*
X35625Y41024D01*
X35714Y41061D01*
X35791Y41119D01*
X35849Y41196D01*
X35879Y41268D01*
X36165D01*
Y41015D01*
D02*
G37*
G36*
X37527Y42361D02*
X37931D01*
X37934Y42342D01*
X37959Y42306D01*
X38023Y42241D01*
X38023Y42241D01*
X38060Y42217D01*
X38103Y42208D01*
X38103Y42208D01*
X38133D01*
X38449Y41892D01*
X38419Y41818D01*
X38341D01*
Y41442D01*
X38395D01*
X38425Y41368D01*
X38201Y41144D01*
X38127Y41174D01*
Y41368D01*
X38127Y41381D01*
X38157Y41448D01*
Y41448D01*
X38157Y41449D01*
Y41656D01*
X37603D01*
Y41449D01*
X37603Y41448D01*
Y41448D01*
X37633Y41381D01*
X37633Y41368D01*
Y41267D01*
X37202D01*
X37009Y41459D01*
X36973Y41484D01*
X36930Y41492D01*
X36895Y41558D01*
Y41745D01*
X36165D01*
Y41492D01*
X35879D01*
X35849Y41564D01*
X35791Y41641D01*
X35714Y41699D01*
X35625Y41736D01*
X35530Y41748D01*
X35519Y41747D01*
X35481Y41823D01*
X36154Y42496D01*
X37527D01*
Y42361D01*
D02*
G37*
G36*
X39518Y40416D02*
Y39947D01*
X39518Y39947D01*
X39526Y39904D01*
X39551Y39868D01*
X39870Y39548D01*
X39870Y39548D01*
X39871Y39544D01*
X39824Y39473D01*
X39815Y39430D01*
X40323D01*
Y39330D01*
X39815D01*
X39824Y39287D01*
X39876Y39209D01*
X39955Y39156D01*
X39958Y39155D01*
X39965Y39091D01*
X39962Y39073D01*
X39898Y39030D01*
X39852Y38961D01*
X39836Y38880D01*
X39852Y38799D01*
X39898Y38730D01*
X39967Y38684D01*
X40048Y38668D01*
X40599D01*
X40680Y38684D01*
X40749Y38730D01*
X40795Y38799D01*
X40811Y38880D01*
X40795Y38961D01*
X40792Y38964D01*
X40781Y39053D01*
X40806Y39078D01*
X40926Y39198D01*
X40926Y39198D01*
X40950Y39234D01*
X40959Y39277D01*
X40959Y39277D01*
Y39483D01*
X40959Y39483D01*
X40950Y39526D01*
X40926Y39562D01*
X40926Y39562D01*
X40806Y39682D01*
X40800Y39688D01*
X40826Y39764D01*
X40829Y39768D01*
X41267D01*
Y38342D01*
X40983D01*
Y38477D01*
X40528D01*
Y37987D01*
X40528Y37983D01*
X40518Y37907D01*
X40499D01*
X40498Y37907D01*
X40498D01*
X40431Y37877D01*
X40418Y37877D01*
X40317D01*
Y37983D01*
X40432D01*
Y38477D01*
X39977D01*
Y37983D01*
X40092D01*
Y37877D01*
X39977D01*
Y37742D01*
X39783D01*
Y37877D01*
X39783D01*
X39794Y37953D01*
X39813D01*
Y38180D01*
X39556D01*
Y38230D01*
X39506D01*
Y38507D01*
X39299D01*
X39299D01*
X39298Y38507D01*
Y38507D01*
X39298Y38507D01*
X39232Y38477D01*
X39232Y38477D01*
X39232Y38477D01*
X39232Y38477D01*
X39152Y38477D01*
X39117D01*
Y38633D01*
X39108Y38676D01*
X39084Y38712D01*
X39084Y38712D01*
X38870Y38926D01*
Y39262D01*
X38872Y39275D01*
Y39983D01*
X38872Y39983D01*
X38864Y40026D01*
X38839Y40062D01*
X38839Y40062D01*
X38719Y40182D01*
X38713Y40188D01*
X38739Y40264D01*
X38743Y40268D01*
X39210D01*
X39210Y40268D01*
X39253Y40276D01*
X39289Y40301D01*
X39438Y40449D01*
X39518Y40416D01*
D02*
G37*
G36*
X50608Y41504D02*
Y38812D01*
X50528Y38807D01*
X50512Y38927D01*
X50455Y39063D01*
X50365Y39181D01*
X50248Y39271D01*
X50111Y39328D01*
X49964Y39347D01*
X49818Y39328D01*
X49681Y39271D01*
X49563Y39181D01*
X49503Y39103D01*
X49303D01*
Y39497D01*
X49837D01*
Y40819D01*
X49303D01*
Y41213D01*
X49503D01*
X49563Y41135D01*
X49681Y41045D01*
X49818Y40988D01*
X49964Y40969D01*
X50111Y40988D01*
X50248Y41045D01*
X50365Y41135D01*
X50455Y41252D01*
X50512Y41389D01*
X50528Y41509D01*
X50608Y41504D01*
D02*
G37*
G36*
X46142Y42952D02*
X46211Y42899D01*
Y42745D01*
X46547D01*
X46846Y42445D01*
X46945Y42369D01*
X47059Y42322D01*
X47182Y42306D01*
X47690D01*
X47712Y42289D01*
X47849Y42232D01*
X47996Y42213D01*
X48142Y42232D01*
X48279Y42289D01*
X48397Y42379D01*
X48457Y42457D01*
X49503D01*
X49563Y42379D01*
X49681Y42289D01*
X49818Y42232D01*
X49964Y42213D01*
X50111Y42232D01*
X50248Y42289D01*
X50365Y42379D01*
X50455Y42497D01*
X50512Y42633D01*
X50528Y42753D01*
X50608Y42748D01*
Y41568D01*
X50528Y41563D01*
X50512Y41683D01*
X50455Y41819D01*
X50365Y41937D01*
X50248Y42027D01*
X50111Y42084D01*
X49964Y42103D01*
X49818Y42084D01*
X49681Y42027D01*
X49563Y41937D01*
X49503Y41859D01*
X48457D01*
X48397Y41937D01*
X48279Y42027D01*
X48142Y42084D01*
X47996Y42103D01*
X47849Y42084D01*
X47712Y42027D01*
X47595Y41937D01*
X47505Y41819D01*
X47448Y41683D01*
X47429Y41536D01*
X47448Y41389D01*
X47505Y41252D01*
X47595Y41135D01*
X47712Y41045D01*
X47849Y40988D01*
X47996Y40969D01*
X48142Y40988D01*
X48279Y41045D01*
X48397Y41135D01*
X48457Y41213D01*
X48657D01*
Y40819D01*
X48123D01*
Y39497D01*
X48657D01*
Y39103D01*
X48457D01*
X48397Y39181D01*
X48279Y39271D01*
X48142Y39328D01*
X47996Y39347D01*
X47849Y39328D01*
X47712Y39271D01*
X47690Y39254D01*
X46967D01*
X46845Y39238D01*
X46730Y39191D01*
X46632Y39115D01*
X46547Y39030D01*
X46211D01*
Y38875D01*
X46142Y38822D01*
X46134Y38811D01*
X46054Y38839D01*
Y39598D01*
X46743D01*
Y42415D01*
X46054D01*
Y42936D01*
X46134Y42963D01*
X46142Y42952D01*
D02*
G37*
G36*
X39741Y45794D02*
X39571Y45624D01*
X39546Y45588D01*
X39538Y45545D01*
X39538Y45545D01*
Y44927D01*
X39538Y44927D01*
X39546Y44884D01*
X39571Y44848D01*
X39866Y44553D01*
X39866Y44553D01*
X39868Y44540D01*
X39824Y44473D01*
X39815Y44430D01*
X40323D01*
Y44330D01*
X39815D01*
X39824Y44287D01*
X39876Y44209D01*
X39955Y44156D01*
X39958Y44155D01*
X39965Y44091D01*
X39962Y44073D01*
X39898Y44030D01*
X39852Y43961D01*
X39836Y43880D01*
X39852Y43799D01*
X39898Y43730D01*
X39967Y43684D01*
X40048Y43668D01*
X40599D01*
X40680Y43684D01*
X40730Y43718D01*
X40947D01*
X40990Y43726D01*
X41026Y43751D01*
X41050Y43787D01*
X41059Y43830D01*
Y44433D01*
X41059Y44433D01*
X41050Y44476D01*
X41026Y44512D01*
X41026Y44512D01*
X40900Y44638D01*
X40933Y44718D01*
X41267D01*
Y43292D01*
X40933D01*
Y43427D01*
X40478D01*
Y42937D01*
X40478Y42933D01*
X40468Y42857D01*
X40449D01*
X40448Y42857D01*
X40448D01*
X40381Y42827D01*
X40368Y42827D01*
X40267D01*
Y42933D01*
X40382D01*
Y43427D01*
X39927D01*
Y42933D01*
X40042D01*
Y42827D01*
X39927D01*
Y42692D01*
X39733D01*
Y42827D01*
X39733D01*
X39744Y42903D01*
X39763D01*
Y43130D01*
X39506D01*
Y43180D01*
X39456D01*
Y43457D01*
X39249D01*
X39249D01*
X39248Y43457D01*
Y43457D01*
X39248Y43457D01*
X39182Y43427D01*
X39182Y43427D01*
X39182Y43427D01*
X39182Y43427D01*
X39102Y43427D01*
X39042D01*
Y43830D01*
Y44813D01*
X39042Y44813D01*
X39034Y44856D01*
X39009Y44892D01*
X39009Y44892D01*
X38719Y45182D01*
X38702Y45199D01*
X38700Y45218D01*
X38701Y45235D01*
X38714Y45290D01*
X38729Y45301D01*
X39159Y45731D01*
X39159Y45731D01*
X39184Y45767D01*
X39191Y45803D01*
X39199Y45818D01*
X39242Y45868D01*
X39710D01*
X39741Y45794D01*
D02*
G37*
G36*
X50608Y45504D02*
Y42812D01*
X50528Y42807D01*
X50512Y42927D01*
X50455Y43063D01*
X50365Y43181D01*
X50248Y43271D01*
X50111Y43328D01*
X49964Y43347D01*
X49818Y43328D01*
X49681Y43271D01*
X49563Y43181D01*
X49503Y43103D01*
X49303D01*
Y43497D01*
X49837D01*
Y44819D01*
X49303D01*
Y45213D01*
X49503D01*
X49563Y45135D01*
X49681Y45045D01*
X49818Y44988D01*
X49964Y44969D01*
X50111Y44988D01*
X50248Y45045D01*
X50365Y45135D01*
X50455Y45252D01*
X50512Y45389D01*
X50528Y45509D01*
X50608Y45504D01*
D02*
G37*
G36*
X34823Y44044D02*
Y42882D01*
X33951Y42009D01*
X33926Y41973D01*
X33918Y41930D01*
X33918Y41930D01*
Y40946D01*
X33898Y40939D01*
X33838Y40933D01*
X33796Y40996D01*
X33742Y41032D01*
Y41330D01*
X33742Y41330D01*
X33734Y41373D01*
X33709Y41409D01*
X33249Y41870D01*
X33279Y41944D01*
X33338D01*
X33338Y41944D01*
X33381Y41952D01*
X33417Y41977D01*
X34189Y42749D01*
X34189Y42749D01*
X34214Y42785D01*
X34222Y42828D01*
Y43595D01*
X34318Y43691D01*
X34343Y43696D01*
X34379Y43721D01*
X34609Y43951D01*
X34609Y43951D01*
X34634Y43987D01*
X34642Y44030D01*
X34642Y44030D01*
Y44031D01*
X34714Y44061D01*
X34743Y44083D01*
X34823Y44044D01*
D02*
G37*
G36*
X36211Y44196D02*
X36269Y44119D01*
X36346Y44061D01*
X36418Y44031D01*
Y43780D01*
X36418Y43780D01*
X36426Y43737D01*
X36451Y43701D01*
X37051Y43101D01*
X37051Y43101D01*
X37087Y43076D01*
X37130Y43068D01*
X37535D01*
Y42933D01*
X37535Y42933D01*
X37535D01*
X37530Y42855D01*
X37527D01*
Y42720D01*
X36108D01*
X36065Y42711D01*
X36028Y42687D01*
X36028Y42687D01*
X35045Y41704D01*
X35021Y41668D01*
X35013Y41625D01*
X35013Y41625D01*
Y39734D01*
X34939Y39703D01*
X34697Y39945D01*
X34676Y39959D01*
X34672Y40017D01*
X34678Y40046D01*
X34714Y40061D01*
X34791Y40119D01*
X34849Y40196D01*
X34886Y40285D01*
X34898Y40380D01*
X34886Y40475D01*
X34849Y40564D01*
X34791Y40641D01*
X34714Y40699D01*
X34625Y40736D01*
X34530Y40748D01*
X34435Y40736D01*
X34346Y40699D01*
X34269Y40641D01*
X34222Y40579D01*
X34162Y40590D01*
X34142Y40600D01*
Y40944D01*
X34165Y41015D01*
X34222Y41015D01*
X34895D01*
Y41745D01*
X34222D01*
X34165Y41745D01*
X34142Y41816D01*
Y41816D01*
Y41884D01*
X35015Y42756D01*
X35015Y42756D01*
X35039Y42792D01*
X35047Y42835D01*
X35047Y42835D01*
Y44026D01*
X35121Y44057D01*
X35342Y43836D01*
Y43627D01*
X35227D01*
Y43133D01*
X35668D01*
X35681Y43133D01*
X35748Y43103D01*
X35748D01*
X35749Y43103D01*
X35956D01*
Y43380D01*
Y43657D01*
X35749D01*
X35748Y43657D01*
X35748D01*
X35681Y43627D01*
X35668Y43627D01*
X35567D01*
Y43882D01*
X35567Y43882D01*
X35558Y43925D01*
X35552Y43934D01*
X35578Y44008D01*
X35589Y44019D01*
X35625Y44024D01*
X35714Y44061D01*
X35791Y44119D01*
X35849Y44196D01*
X35879Y44268D01*
X36181D01*
X36211Y44196D01*
D02*
G37*
G36*
X37351Y37551D02*
X37351Y37551D01*
X37387Y37526D01*
X37430Y37518D01*
X37577D01*
Y37383D01*
X37981D01*
X37984Y37364D01*
X38009Y37328D01*
X38094Y37243D01*
X38061Y37163D01*
X37930D01*
Y36906D01*
X37880D01*
Y36856D01*
X37603D01*
Y36649D01*
X37603Y36648D01*
Y36648D01*
X37633Y36581D01*
X37633Y36568D01*
Y36467D01*
X37352D01*
X37059Y36759D01*
X37023Y36784D01*
X36980Y36792D01*
X36980Y36792D01*
X36895D01*
Y37045D01*
X36165D01*
Y36792D01*
X35879D01*
X35849Y36864D01*
X35827Y36893D01*
X35866Y36973D01*
X35900D01*
X35900Y36973D01*
X35943Y36982D01*
X35979Y37006D01*
X36301Y37328D01*
X36326Y37364D01*
X36329Y37383D01*
X36733D01*
Y37868D01*
X37034D01*
X37351Y37551D01*
D02*
G37*
G36*
X30348Y37638D02*
X30348Y37638D01*
X30683D01*
X30740Y37558D01*
X30739Y37554D01*
X30749Y37503D01*
X30777Y37461D01*
X30820Y37432D01*
X30871Y37422D01*
X31113D01*
Y36894D01*
X30708Y36489D01*
X30628Y36522D01*
Y37180D01*
X30618Y37230D01*
X30590Y37273D01*
X30547Y37301D01*
X30497Y37311D01*
X30446Y37301D01*
X30431Y37291D01*
X30414Y37294D01*
X30362Y37329D01*
X30300Y37342D01*
X30235Y37411D01*
Y37597D01*
X30297Y37642D01*
X30299Y37642D01*
X30314Y37645D01*
X30348Y37638D01*
D02*
G37*
G36*
X33288Y38066D02*
Y37715D01*
X33131Y37557D01*
X33106Y37521D01*
X33098Y37478D01*
X33098Y37478D01*
Y34504D01*
X33089Y34496D01*
X33023Y34465D01*
X32824Y34665D01*
X32850Y34751D01*
X32860Y34753D01*
X32936Y34804D01*
X32987Y34880D01*
X33005Y34970D01*
X32987Y35060D01*
X32936Y35136D01*
X32882Y35172D01*
Y38367D01*
X32956Y38397D01*
X33288Y38066D01*
D02*
G37*
G36*
X39734Y35988D02*
X39571Y35824D01*
X39546Y35788D01*
X39538Y35745D01*
X39538Y35745D01*
Y35018D01*
X39538Y35018D01*
X39546Y34975D01*
X39571Y34939D01*
X39658Y34851D01*
X39658Y34851D01*
X39695Y34826D01*
X39738Y34818D01*
X39738Y34818D01*
X39801D01*
X39866Y34753D01*
X39868Y34740D01*
X39824Y34673D01*
X39815Y34630D01*
X40323D01*
Y34530D01*
X39815D01*
X39824Y34487D01*
X39876Y34409D01*
X39955Y34356D01*
X39958Y34355D01*
X39965Y34291D01*
X39962Y34273D01*
X39898Y34230D01*
X39852Y34161D01*
X39836Y34080D01*
X39852Y33999D01*
X39898Y33930D01*
X39967Y33884D01*
X40048Y33868D01*
X40599D01*
X40680Y33884D01*
X40749Y33930D01*
X40774Y33968D01*
X40850D01*
X40893Y33976D01*
X40929Y34001D01*
X40954Y34037D01*
X40962Y34080D01*
Y34679D01*
X40962Y34679D01*
X40954Y34722D01*
X40929Y34759D01*
X40806Y34882D01*
X40800Y34888D01*
X40833Y34968D01*
X41267D01*
Y33542D01*
X40983D01*
Y33677D01*
X40528D01*
Y33606D01*
X40448Y33563D01*
X40432Y33574D01*
Y33677D01*
X39977D01*
Y33224D01*
X39958Y33221D01*
X39922Y33196D01*
X39922Y33196D01*
X39893Y33167D01*
X39813Y33201D01*
Y33380D01*
X39556D01*
Y33430D01*
X39506D01*
Y33707D01*
X39299D01*
X39299D01*
X39298Y33707D01*
Y33707D01*
X39298Y33707D01*
X39232Y33677D01*
X39232Y33677D01*
X39232Y33677D01*
X39232Y33677D01*
X39152Y33677D01*
X38832D01*
Y33964D01*
X38839Y33971D01*
X38839Y33971D01*
X38864Y34007D01*
X38872Y34050D01*
X38872Y34050D01*
Y35183D01*
X38872Y35183D01*
X38864Y35226D01*
X38839Y35262D01*
X38839Y35262D01*
X38719Y35382D01*
X38713Y35388D01*
X38747Y35468D01*
X38965D01*
X38965Y35468D01*
X39008Y35476D01*
X39044Y35501D01*
X39159Y35616D01*
X39159Y35616D01*
X39184Y35652D01*
X39192Y35695D01*
Y36002D01*
X39227Y36068D01*
X39701D01*
X39734Y35988D01*
D02*
G37*
G36*
X50608Y37504D02*
Y34812D01*
X50528Y34807D01*
X50512Y34927D01*
X50455Y35063D01*
X50365Y35181D01*
X50248Y35271D01*
X50111Y35328D01*
X49964Y35347D01*
X49818Y35328D01*
X49681Y35271D01*
X49563Y35181D01*
X49503Y35103D01*
X49287D01*
Y35497D01*
X49837D01*
Y36819D01*
X49287D01*
Y37213D01*
X49503D01*
X49563Y37135D01*
X49681Y37045D01*
X49818Y36988D01*
X49964Y36969D01*
X50111Y36988D01*
X50248Y37045D01*
X50365Y37135D01*
X50455Y37252D01*
X50512Y37389D01*
X50528Y37509D01*
X50608Y37504D01*
D02*
G37*
G36*
X37811Y39230D02*
X37880Y39184D01*
X37961Y39168D01*
Y39092D01*
X37880Y39076D01*
X37811Y39030D01*
X37765Y38961D01*
X37749Y38880D01*
X37765Y38799D01*
X37811Y38730D01*
X37880Y38684D01*
X37961Y38668D01*
X37979D01*
X37989Y38644D01*
X38003Y38588D01*
X37984Y38560D01*
X37976Y38517D01*
X37914Y38477D01*
X37585D01*
Y38342D01*
X36733D01*
Y38426D01*
X36735Y38426D01*
X36771Y38451D01*
X37139Y38819D01*
X37164Y38855D01*
X37172Y38898D01*
X37172Y38898D01*
Y38945D01*
X37495Y39268D01*
X37513D01*
X37513Y39268D01*
X37513Y39268D01*
X37786D01*
X37811Y39230D01*
D02*
G37*
G36*
X31358Y41214D02*
X31892D01*
Y41226D01*
X31947Y41283D01*
X32322D01*
X32402Y41283D01*
X32402Y41283D01*
X32402Y41283D01*
X32402Y41283D01*
X32468Y41253D01*
X32468Y41253D01*
Y41253D01*
X32469Y41253D01*
X32676D01*
Y41530D01*
X32726D01*
Y41580D01*
X32983D01*
Y41705D01*
X33063Y41738D01*
X33518Y41284D01*
Y41032D01*
X33464Y40996D01*
X33413Y40920D01*
X33395Y40830D01*
X33413Y40740D01*
X33464Y40664D01*
X33540Y40613D01*
X33630Y40595D01*
X33720Y40613D01*
X33796Y40664D01*
X33838Y40727D01*
X33898Y40721D01*
X33918Y40714D01*
Y40576D01*
X33393Y40052D01*
X33330Y40065D01*
X33240Y40047D01*
X33164Y39996D01*
X33113Y39920D01*
X33095Y39830D01*
X33113Y39740D01*
X33164Y39664D01*
X33200Y39640D01*
X33176Y39560D01*
X33083D01*
X32684Y39959D01*
X32647Y39984D01*
X32604Y39992D01*
X32604Y39992D01*
X32497D01*
Y40104D01*
X32220D01*
Y40204D01*
X32497D01*
Y40410D01*
X32497Y40412D01*
X32497Y40412D01*
X32467Y40478D01*
X32467Y40478D01*
X32467D01*
X32467Y40478D01*
Y40933D01*
X31973D01*
Y40838D01*
X31870D01*
X31819Y40828D01*
X31776Y40799D01*
X31616Y40639D01*
X31307D01*
X31283Y40719D01*
X31306Y40734D01*
X31357Y40810D01*
X31375Y40900D01*
X31357Y40990D01*
X31306Y41066D01*
X31230Y41117D01*
X31140Y41135D01*
X31050Y41117D01*
X30974Y41066D01*
X30938Y41012D01*
X30880D01*
X30880Y41012D01*
X30837Y41004D01*
X30801Y40979D01*
X30801Y40979D01*
X30708Y40887D01*
X30628Y40920D01*
Y41171D01*
X30655Y41191D01*
X30728Y41214D01*
Y41214D01*
X30728Y41214D01*
X31262D01*
Y41794D01*
X31358D01*
Y41214D01*
D02*
G37*
G36*
X35669Y37901D02*
X35697Y37882D01*
Y37680D01*
X35954D01*
Y37580D01*
X35697D01*
Y37353D01*
X35904D01*
X35935Y37279D01*
X35853Y37197D01*
X35362D01*
X35362Y37197D01*
X35319Y37189D01*
X35302Y37178D01*
X35236Y37202D01*
X35222Y37213D01*
Y38234D01*
X35302Y38267D01*
X35669Y37901D01*
D02*
G37*
G36*
X28391Y37775D02*
X28416Y37746D01*
X28416Y37746D01*
Y37367D01*
X28352Y37322D01*
X28281Y37301D01*
D01*
X28233Y37293D01*
X28185Y37301D01*
D01*
X28185D01*
X28185D01*
X28134Y37311D01*
X28084Y37301D01*
Y37301D01*
X28084Y37301D01*
D01*
X28036Y37293D01*
X27988Y37301D01*
D01*
X27917Y37322D01*
X27853Y37367D01*
Y37726D01*
X27915Y37788D01*
X28300D01*
X28300Y37788D01*
X28343Y37796D01*
X28344Y37797D01*
X28391Y37775D01*
D02*
G37*
G36*
X38607Y47330D02*
X38618Y47246D01*
X38650Y47169D01*
X38702Y47102D01*
X38769Y47050D01*
X38846Y47018D01*
X38930Y47007D01*
X39153D01*
X39227Y46992D01*
X39227Y46927D01*
Y46616D01*
X39811D01*
X39862Y46554D01*
X39552Y46244D01*
X39227D01*
Y46168D01*
X39206D01*
X39163Y46160D01*
X39127Y46135D01*
X39127Y46135D01*
X39001Y46009D01*
X38976Y45973D01*
X38968Y45930D01*
X38968Y45930D01*
Y45856D01*
X38650Y45538D01*
X38593Y45576D01*
X38512Y45592D01*
X38350D01*
X38315Y45672D01*
X38339Y45700D01*
X38360Y45695D01*
X38450Y45713D01*
X38526Y45764D01*
X38577Y45840D01*
X38594Y45930D01*
X38584Y45981D01*
X38724Y46121D01*
X38750Y46160D01*
X38759Y46207D01*
Y46242D01*
X38933D01*
Y46618D01*
X38341D01*
Y46242D01*
X38341D01*
X38347Y46162D01*
X38270Y46147D01*
X38207Y46105D01*
X38158Y46119D01*
X38127Y46140D01*
Y46368D01*
X38127Y46381D01*
X38157Y46448D01*
Y46448D01*
X38157Y46449D01*
Y46656D01*
X37603D01*
Y46449D01*
X37603Y46448D01*
Y46448D01*
X37633Y46381D01*
X37633Y46368D01*
Y46240D01*
X37624Y46234D01*
X37624Y46234D01*
X37461Y46071D01*
X37461Y46071D01*
X37456Y46067D01*
X37002D01*
X36895Y46173D01*
Y46745D01*
X36165D01*
Y46492D01*
X35879D01*
X35849Y46564D01*
X35791Y46641D01*
X35714Y46699D01*
X35625Y46736D01*
X35530Y46748D01*
X35435Y46736D01*
X35346Y46699D01*
X35269Y46641D01*
X35211Y46564D01*
X35174Y46475D01*
X35162Y46380D01*
X35174Y46285D01*
X35211Y46196D01*
X35269Y46119D01*
X35346Y46061D01*
X35435Y46024D01*
X35530Y46012D01*
X35625Y46024D01*
X35714Y46061D01*
X35791Y46119D01*
X35849Y46196D01*
X35879Y46268D01*
X36165D01*
Y46015D01*
X36737D01*
X36876Y45875D01*
X36913Y45851D01*
X36956Y45842D01*
X36956Y45842D01*
X37428D01*
Y45010D01*
X37428Y45010D01*
X37436Y44967D01*
X37461Y44931D01*
X37591Y44801D01*
X37591Y44801D01*
X37627Y44776D01*
X37670Y44768D01*
X37670Y44768D01*
X37786D01*
X37811Y44730D01*
X37880Y44684D01*
X37961Y44668D01*
Y44592D01*
X37880Y44576D01*
X37811Y44530D01*
X37786Y44492D01*
X37576D01*
X36856Y45213D01*
X36886Y45285D01*
X36898Y45380D01*
X36886Y45475D01*
X36849Y45564D01*
X36791Y45641D01*
X36714Y45699D01*
X36625Y45736D01*
X36530Y45748D01*
X36435Y45736D01*
X36346Y45699D01*
X36269Y45641D01*
X36211Y45564D01*
X36181Y45492D01*
X35879D01*
X35849Y45564D01*
X35791Y45641D01*
X35714Y45699D01*
X35625Y45736D01*
X35530Y45748D01*
X35435Y45736D01*
X35346Y45699D01*
X35269Y45641D01*
X35211Y45564D01*
X35174Y45475D01*
X35162Y45380D01*
X35174Y45285D01*
X35204Y45213D01*
X35045Y45054D01*
X35021Y45018D01*
X35013Y44975D01*
X35013Y44975D01*
Y44734D01*
X34939Y44703D01*
X34777Y44865D01*
X34741Y44889D01*
X34698Y44897D01*
X34698Y44897D01*
X34362D01*
X34362Y44897D01*
X34319Y44889D01*
X34283Y44865D01*
X33777Y44359D01*
X33753Y44322D01*
X33744Y44279D01*
X33744Y44279D01*
Y43436D01*
X33312Y43004D01*
X33238Y43034D01*
Y43163D01*
X32622D01*
Y44175D01*
X32614Y44218D01*
X32589Y44254D01*
X32553Y44278D01*
X32549Y44279D01*
X32523Y44284D01*
Y44422D01*
X32068D01*
Y43928D01*
X32398D01*
Y42984D01*
X32371Y42960D01*
X32324Y42934D01*
X32289Y42941D01*
X32289Y42941D01*
X31627D01*
X31584Y42933D01*
X31547Y42908D01*
X31547Y42908D01*
X31498Y42859D01*
X31386D01*
X31353Y42939D01*
X31538Y43124D01*
X31602Y43161D01*
Y43161D01*
X31602Y43161D01*
X32313D01*
Y43537D01*
X31602D01*
Y43461D01*
X31561Y43453D01*
X31525Y43428D01*
X31525Y43428D01*
X31288Y43191D01*
X31208Y43225D01*
Y43928D01*
X31323D01*
Y44071D01*
X31359Y44096D01*
X31437Y44173D01*
X31447Y44173D01*
X31517Y44148D01*
Y43928D01*
X31972D01*
Y44422D01*
X31857D01*
Y44770D01*
X31857Y44770D01*
X31848Y44813D01*
X31824Y44849D01*
X31824Y44849D01*
X31795Y44878D01*
Y45242D01*
X32038D01*
Y45309D01*
X32112Y45339D01*
X32258Y45193D01*
X32245Y45130D01*
X32263Y45040D01*
X32314Y44964D01*
X32390Y44913D01*
X32480Y44895D01*
X32570Y44913D01*
X32646Y44964D01*
X32697Y45040D01*
X32715Y45130D01*
X32697Y45220D01*
X32646Y45296D01*
X32570Y45347D01*
X32480Y45365D01*
X32417Y45352D01*
X32190Y45578D01*
Y45594D01*
X32182Y45637D01*
X32157Y45673D01*
X32157Y45673D01*
X31371Y46459D01*
X31335Y46484D01*
X31292Y46492D01*
X31292Y46492D01*
X29821D01*
X29778Y46546D01*
X29806Y46622D01*
X29825Y46624D01*
X29914Y46661D01*
X29991Y46719D01*
X30049Y46796D01*
X30086Y46885D01*
X30098Y46980D01*
X30086Y47075D01*
X30049Y47164D01*
X29991Y47241D01*
X29914Y47299D01*
X29825Y47336D01*
X29773Y47343D01*
X29778Y47423D01*
X30682D01*
X30687Y47343D01*
X30635Y47336D01*
X30546Y47299D01*
X30469Y47241D01*
X30411Y47164D01*
X30374Y47075D01*
X30362Y46980D01*
X30374Y46885D01*
X30411Y46796D01*
X30469Y46719D01*
X30546Y46661D01*
X30635Y46624D01*
X30730Y46612D01*
X30825Y46624D01*
X30914Y46661D01*
X30991Y46719D01*
X31049Y46796D01*
X31086Y46885D01*
X31098Y46980D01*
X31086Y47075D01*
X31049Y47164D01*
X30991Y47241D01*
X30914Y47299D01*
X30825Y47336D01*
X30773Y47343D01*
X30778Y47423D01*
X31682D01*
X31687Y47343D01*
X31635Y47336D01*
X31546Y47299D01*
X31469Y47241D01*
X31411Y47164D01*
X31374Y47075D01*
X31362Y46980D01*
X31374Y46885D01*
X31411Y46796D01*
X31469Y46719D01*
X31546Y46661D01*
X31635Y46624D01*
X31730Y46612D01*
X31825Y46624D01*
X31914Y46661D01*
X31991Y46719D01*
X32049Y46796D01*
X32086Y46885D01*
X32098Y46980D01*
X32086Y47075D01*
X32049Y47164D01*
X31991Y47241D01*
X31914Y47299D01*
X31825Y47336D01*
X31773Y47343D01*
X31778Y47423D01*
X31967D01*
X32365Y47025D01*
Y46615D01*
X33095D01*
Y46841D01*
X33165Y46895D01*
X33241Y46993D01*
X33288Y47107D01*
X33304Y47230D01*
X33289Y47343D01*
X33298Y47373D01*
X33331Y47423D01*
X38607D01*
Y47330D01*
D02*
G37*
G36*
X49902Y48492D02*
X50067Y48442D01*
X50219Y48361D01*
X50352Y48252D01*
X50461Y48118D01*
X50542Y47966D01*
X50592Y47802D01*
X50609Y47636D01*
X50608Y47630D01*
Y45568D01*
X50528Y45563D01*
X50512Y45683D01*
X50455Y45819D01*
X50365Y45937D01*
X50248Y46027D01*
X50111Y46084D01*
X49964Y46103D01*
X49818Y46084D01*
X49681Y46027D01*
X49563Y45937D01*
X49503Y45859D01*
X48457D01*
X48397Y45937D01*
X48279Y46027D01*
X48142Y46084D01*
X47996Y46103D01*
X47849Y46084D01*
X47712Y46027D01*
X47595Y45937D01*
X47505Y45819D01*
X47448Y45683D01*
X47429Y45536D01*
X47448Y45389D01*
X47505Y45252D01*
X47595Y45135D01*
X47712Y45045D01*
X47849Y44988D01*
X47996Y44969D01*
X48142Y44988D01*
X48279Y45045D01*
X48397Y45135D01*
X48457Y45213D01*
X48657D01*
Y44819D01*
X48123D01*
Y43497D01*
X48657D01*
Y43103D01*
X48457D01*
X48397Y43181D01*
X48279Y43271D01*
X48142Y43328D01*
X47996Y43347D01*
X47849Y43328D01*
X47712Y43271D01*
X47690Y43254D01*
X47457D01*
X47377Y43334D01*
Y43668D01*
X47377Y43681D01*
X47407Y43748D01*
Y43748D01*
X47407Y43749D01*
Y43956D01*
X46853D01*
Y43856D01*
X46773Y43809D01*
X46744Y43825D01*
Y43830D01*
X46211D01*
Y43675D01*
X46142Y43622D01*
X46134Y43611D01*
X46054Y43639D01*
Y44398D01*
X46743D01*
Y47215D01*
X46054D01*
Y47330D01*
X46038Y47453D01*
X46008Y47524D01*
X46058Y47604D01*
X46482D01*
Y48256D01*
X45948D01*
Y48052D01*
X45830D01*
X45783Y48043D01*
X45743Y48017D01*
X45654Y47927D01*
X45348Y48232D01*
X45250Y48307D01*
X45136Y48355D01*
X45013Y48371D01*
X19287D01*
X19164Y48355D01*
X19050Y48307D01*
X18952Y48232D01*
X18335Y47615D01*
X18318Y47593D01*
X18295Y47575D01*
X18219Y47477D01*
X18172Y47363D01*
X18156Y47240D01*
Y46765D01*
X17467D01*
Y43948D01*
X19793D01*
Y46765D01*
X19793Y46765D01*
X19793D01*
X19829Y46830D01*
X20081Y47082D01*
X20155Y47052D01*
Y46380D01*
X21705D01*
Y46559D01*
X21778Y46581D01*
X21798Y46564D01*
X21804Y46554D01*
X21828Y46538D01*
X21837Y46530D01*
Y46400D01*
X21848Y46349D01*
X21876Y46306D01*
X22246Y45936D01*
X22289Y45908D01*
X22317Y45902D01*
Y45783D01*
X22772D01*
Y46277D01*
X22317D01*
X22317Y46277D01*
Y46277D01*
X22249Y46308D01*
X22103Y46455D01*
Y46532D01*
X22136Y46554D01*
X22187Y46630D01*
X22205Y46720D01*
X22187Y46810D01*
X22136Y46886D01*
X22060Y46937D01*
X21970Y46955D01*
X21880Y46937D01*
X21804Y46886D01*
X21785Y46857D01*
X21705Y46881D01*
Y47355D01*
X21705Y47355D01*
X21705D01*
X21705Y47355D01*
X21734Y47423D01*
X22331D01*
X22350Y47403D01*
X22378Y47343D01*
X22360Y47300D01*
X22351Y47230D01*
X22360Y47160D01*
X22387Y47095D01*
X22430Y47040D01*
X22444Y47029D01*
Y46931D01*
X22430Y46920D01*
X22387Y46865D01*
X22360Y46800D01*
X22351Y46730D01*
X22360Y46660D01*
X22387Y46595D01*
X22430Y46540D01*
X22486Y46497D01*
X22550Y46470D01*
X22620Y46461D01*
X22690Y46470D01*
X22712Y46479D01*
X22842Y46349D01*
X22868Y46277D01*
X22868D01*
X22868Y46277D01*
Y45783D01*
X23323D01*
Y45918D01*
X23517D01*
Y45783D01*
X23958D01*
X23971Y45783D01*
X24038Y45753D01*
X24038D01*
X24040Y45753D01*
X24246D01*
Y46030D01*
Y46307D01*
X24040D01*
X24038Y46307D01*
X24038D01*
X23971Y46277D01*
X23958Y46277D01*
X23517D01*
Y46142D01*
X23323D01*
Y46277D01*
X23203D01*
X23199Y46297D01*
X23175Y46334D01*
X23126Y46383D01*
X23156Y46466D01*
X23190Y46470D01*
X23255Y46497D01*
X23310Y46540D01*
X23322Y46554D01*
X23419D01*
X23430Y46540D01*
X23486Y46497D01*
X23550Y46470D01*
X23620Y46461D01*
X23690Y46470D01*
X23755Y46497D01*
X23810Y46540D01*
X23822Y46554D01*
X23919D01*
X23930Y46540D01*
X23986Y46497D01*
X24050Y46470D01*
X24120Y46461D01*
X24190Y46470D01*
X24255Y46497D01*
X24310Y46540D01*
X24322Y46554D01*
X24419D01*
X24430Y46540D01*
X24486Y46497D01*
X24550Y46470D01*
X24620Y46461D01*
X24690Y46470D01*
X24755Y46497D01*
X24810Y46540D01*
X24853Y46595D01*
X24880Y46660D01*
X24889Y46730D01*
X24880Y46800D01*
X24853Y46865D01*
X24839Y46883D01*
X24878Y46963D01*
X24887D01*
Y47423D01*
X28269D01*
X28300Y47349D01*
X27669Y46718D01*
X27589Y46749D01*
Y46772D01*
X26878D01*
Y46694D01*
X26846Y46688D01*
X26809Y46663D01*
X26809Y46663D01*
X26803Y46657D01*
X26723Y46690D01*
Y46733D01*
X26229D01*
Y46292D01*
X26229Y46279D01*
X26199Y46212D01*
Y46212D01*
X26199Y46211D01*
Y46004D01*
X26753D01*
Y46211D01*
X26753Y46212D01*
Y46212D01*
X26723Y46279D01*
X26723Y46292D01*
Y46318D01*
X26803Y46393D01*
X26810D01*
X26810D01*
X26886Y46396D01*
X27589D01*
Y46472D01*
X27693D01*
X27693Y46472D01*
X27736Y46480D01*
X27773Y46505D01*
X28257Y46989D01*
X28335Y46954D01*
X28345Y46877D01*
X28385Y46781D01*
X28448Y46698D01*
X28531Y46635D01*
X28627Y46595D01*
X28680Y46588D01*
Y46980D01*
X28780D01*
Y46588D01*
X28833Y46595D01*
X28929Y46635D01*
X29012Y46698D01*
X29075Y46781D01*
X29084Y46801D01*
X29162Y46816D01*
X29678Y46301D01*
X29714Y46276D01*
X29757Y46268D01*
X29757Y46268D01*
X31245D01*
X31821Y45692D01*
X31791Y45618D01*
X31462D01*
Y45890D01*
X31462Y45890D01*
X31454Y45933D01*
X31429Y45969D01*
X31279Y46119D01*
X31243Y46144D01*
X31200Y46152D01*
X31200Y46152D01*
X29915D01*
X29873Y46144D01*
X29838Y46120D01*
X29691D01*
X29629Y46120D01*
X29620D01*
X29611D01*
X29549Y46120D01*
X29038D01*
Y45429D01*
X29213D01*
Y45343D01*
X29007Y45137D01*
X28681D01*
Y44984D01*
X28459Y44763D01*
X27967D01*
Y44387D01*
X28559D01*
Y44546D01*
X28775Y44761D01*
X28865D01*
Y44389D01*
X28681D01*
Y44013D01*
X29274D01*
Y44389D01*
X29089D01*
Y44761D01*
X29274D01*
Y45087D01*
X29404Y45217D01*
X29404Y45217D01*
X29428Y45254D01*
X29437Y45297D01*
Y45373D01*
X29494Y45429D01*
X29549D01*
X29611Y45429D01*
X29620D01*
X29629D01*
X29691Y45429D01*
X30202D01*
Y45928D01*
X30402D01*
Y45616D01*
X31088D01*
Y45244D01*
X30402D01*
X30402Y45244D01*
Y45244D01*
X30402Y45244D01*
X30331Y45265D01*
X30320Y45273D01*
X30230Y45290D01*
X30140Y45273D01*
X30064Y45222D01*
X30013Y45146D01*
X29995Y45056D01*
X30013Y44966D01*
X30064Y44890D01*
X30135Y44843D01*
X30136Y44837D01*
X30088Y44763D01*
X29567D01*
Y44387D01*
X30029D01*
X30317Y44099D01*
Y43928D01*
X30772D01*
Y44422D01*
X30738D01*
X30705Y44502D01*
X30791Y44588D01*
X30870Y44580D01*
X30874Y44574D01*
X30950Y44523D01*
X31040Y44505D01*
X31130Y44523D01*
X31168Y44549D01*
X31248Y44506D01*
Y44422D01*
X30868D01*
Y43928D01*
X30984D01*
Y43234D01*
X30912Y43163D01*
X30581D01*
X30567Y43184D01*
X30567Y43184D01*
X30322Y43428D01*
X30313Y43434D01*
Y43537D01*
X29602D01*
Y43469D01*
X29528Y43461D01*
X29485Y43453D01*
X29449Y43428D01*
X29449Y43428D01*
X29384Y43363D01*
X29267D01*
Y43478D01*
X28773D01*
Y43023D01*
X28773Y43023D01*
X28773D01*
X28773Y43023D01*
X28743Y42957D01*
X28743Y42957D01*
X28743Y42955D01*
Y42749D01*
X29297D01*
Y42955D01*
X29297Y42957D01*
X29297Y42957D01*
X29267Y43023D01*
X29267Y43023D01*
X29267D01*
X29267Y43023D01*
Y43138D01*
X29430D01*
X29430Y43138D01*
X29473Y43147D01*
X29509Y43171D01*
X29522Y43184D01*
X29602Y43161D01*
Y43161D01*
X30272D01*
X30375Y43058D01*
Y42886D01*
X30343Y42819D01*
X30329Y42819D01*
X30008D01*
Y42601D01*
X29958D01*
Y42551D01*
X29572D01*
Y42485D01*
X29368D01*
X29297Y42546D01*
Y42649D01*
X29070D01*
Y42442D01*
X29174D01*
X29205Y42368D01*
X28646Y41808D01*
X28624Y41776D01*
X28589Y41726D01*
X28551Y41722D01*
X28533Y41720D01*
X28533D01*
X28528Y41721D01*
X28478Y41711D01*
Y41711D01*
X28478Y41711D01*
D01*
X28430Y41702D01*
X28382Y41711D01*
D01*
X28382D01*
X28382D01*
X28331Y41721D01*
X28281Y41711D01*
Y41711D01*
X28281Y41711D01*
D01*
X28233Y41702D01*
X28185Y41711D01*
D01*
X28185D01*
X28185D01*
X28134Y41721D01*
X28084Y41711D01*
Y41711D01*
X28084Y41711D01*
D01*
X28036Y41702D01*
X27988Y41711D01*
D01*
X27988D01*
X27988D01*
X27937Y41721D01*
X27887Y41711D01*
Y41711D01*
X27887Y41711D01*
D01*
X27866Y41707D01*
X27830Y41757D01*
X27833Y41792D01*
X27841Y41798D01*
X27920Y41813D01*
X27996Y41864D01*
X28047Y41940D01*
X28065Y42030D01*
X28047Y42120D01*
X27996Y42196D01*
X27920Y42247D01*
X27830Y42265D01*
X27801Y42259D01*
X27737Y42322D01*
X27743Y42342D01*
X27759Y42363D01*
X27970D01*
Y42630D01*
X27641D01*
X27582Y42598D01*
X27565Y42598D01*
X27480Y42615D01*
X27390Y42597D01*
X27387Y42595D01*
X27307Y42637D01*
Y42912D01*
X27307D01*
X27307Y42912D01*
X27307Y42912D01*
D01*
X27307Y42912D01*
X27307Y42912D01*
X27277Y42979D01*
Y43433D01*
X27277D01*
X27239Y43507D01*
X27240Y43507D01*
X27251Y43511D01*
X27329Y43507D01*
X27364Y43454D01*
X27381Y43443D01*
X27386Y43417D01*
X27411Y43381D01*
X27601Y43191D01*
X27601Y43191D01*
X27637Y43167D01*
X27675Y43159D01*
Y42996D01*
X27645D01*
Y42730D01*
X28396D01*
Y42996D01*
X28366D01*
Y43557D01*
X27815D01*
X27764Y43619D01*
X27765Y43620D01*
X27747Y43710D01*
X27696Y43786D01*
X27620Y43837D01*
X27602Y43840D01*
Y44013D01*
X27674D01*
Y44389D01*
X27489D01*
Y44761D01*
X27674D01*
Y45137D01*
X27081D01*
X27081Y45137D01*
Y45137D01*
X27003Y45146D01*
X26889Y45259D01*
X26853Y45284D01*
X26810Y45292D01*
X26810Y45292D01*
X26073D01*
Y45427D01*
X25698D01*
X25618Y45427D01*
X25618Y45427D01*
X25618Y45427D01*
X25618Y45427D01*
X25552Y45457D01*
X25552Y45457D01*
Y45457D01*
X25551Y45457D01*
X25345D01*
Y45180D01*
X25245D01*
Y45457D01*
X25037D01*
Y45457D01*
X25003D01*
Y45457D01*
X24796D01*
Y45180D01*
X24696D01*
Y45457D01*
X24582D01*
Y45480D01*
X24574Y45523D01*
X24549Y45559D01*
X24513Y45584D01*
X24470Y45592D01*
X22205D01*
X22205Y45592D01*
X22162Y45584D01*
X22125Y45559D01*
X22125Y45559D01*
X21765Y45199D01*
X21741Y45163D01*
X21732Y45120D01*
X21732Y45120D01*
Y44177D01*
X21656D01*
X21608Y44199D01*
X21589Y44246D01*
Y45135D01*
X20071D01*
Y44208D01*
X20247D01*
X20278Y44134D01*
X19523Y43380D01*
X19261D01*
Y43106D01*
X19248Y43089D01*
X19216Y43011D01*
X19205Y42928D01*
Y42837D01*
X19216Y42754D01*
X19248Y42676D01*
X19261Y42659D01*
Y42295D01*
X19794D01*
Y42659D01*
X19807Y42676D01*
X19839Y42754D01*
X19844Y42787D01*
X20874Y43818D01*
X21560D01*
X21584Y43794D01*
X21617Y43738D01*
Y43683D01*
X21617Y43604D01*
Y43603D01*
Y43492D01*
X21130D01*
X21087Y43484D01*
X21051Y43459D01*
X21051Y43459D01*
X20651Y43059D01*
X20626Y43023D01*
X20618Y42980D01*
X20618Y42980D01*
Y42852D01*
X20071D01*
Y42038D01*
X18977D01*
X18934Y42118D01*
X18949Y42140D01*
X18967Y42230D01*
X18949Y42320D01*
X18898Y42396D01*
X18822Y42447D01*
X18732Y42465D01*
X18642Y42447D01*
X18566Y42396D01*
X18531Y42342D01*
X17999D01*
Y43380D01*
X17466D01*
Y42295D01*
X17649D01*
X17653Y42288D01*
X17791Y42151D01*
X17791Y42151D01*
X17827Y42126D01*
X17870Y42118D01*
X17869Y42038D01*
X17280D01*
X17197Y42027D01*
X17119Y41995D01*
X17052Y41944D01*
X16979Y41871D01*
X16928Y41804D01*
X16896Y41726D01*
X16885Y41643D01*
Y40242D01*
X15812D01*
Y40456D01*
X15278D01*
Y39804D01*
X15812D01*
Y40018D01*
X16885D01*
Y38586D01*
X16885Y38586D01*
X16885Y38586D01*
X16888Y38560D01*
X16896Y38502D01*
X16896Y38502D01*
X16896Y38502D01*
X16913Y38461D01*
X16928Y38424D01*
X16928Y38424D01*
X16928Y38424D01*
X16961Y38382D01*
X16979Y38357D01*
X16979Y38357D01*
X16979Y38357D01*
X17021Y38316D01*
X16990Y38242D01*
X16780D01*
Y37975D01*
X17106D01*
Y38128D01*
X17186Y38156D01*
X17206Y38140D01*
X17234Y38119D01*
X17234Y38119D01*
X17234Y38119D01*
X17271Y38103D01*
X17312Y38086D01*
X17312Y38086D01*
X17312Y38086D01*
X17341Y38083D01*
X17395Y38075D01*
X17400D01*
Y37537D01*
Y36446D01*
X17037D01*
X16954Y36435D01*
X16876Y36402D01*
X16809Y36351D01*
X16802Y36344D01*
X16750Y36277D01*
X16718Y36199D01*
X16707Y36116D01*
Y35730D01*
X16718Y35646D01*
X16750Y35569D01*
X16802Y35502D01*
X16869Y35450D01*
X16946Y35418D01*
X17030Y35407D01*
X17114Y35418D01*
X17191Y35450D01*
X17258Y35502D01*
X17310Y35569D01*
X17342Y35646D01*
X17353Y35730D01*
Y35800D01*
X17456D01*
Y35580D01*
X17989D01*
Y35703D01*
X18063Y35734D01*
X18085Y35712D01*
X18141Y35675D01*
X18184Y35666D01*
Y35548D01*
X18876D01*
Y36109D01*
X18906D01*
Y36375D01*
X18154D01*
Y36294D01*
X18074Y36254D01*
X18045Y36276D01*
Y37537D01*
Y38398D01*
X18034Y38482D01*
X18011Y38538D01*
X18048Y38618D01*
X18570D01*
Y40057D01*
X18620D01*
Y40107D01*
X19813D01*
Y41393D01*
X20306D01*
X20389Y41404D01*
X20467Y41436D01*
X20534Y41487D01*
X20948Y41902D01*
X20966Y41925D01*
X21589D01*
Y42235D01*
X21639Y42255D01*
X21669Y42261D01*
X21740Y42213D01*
X21830Y42195D01*
X21920Y42213D01*
X21996Y42264D01*
X22013Y42290D01*
X22093Y42266D01*
Y42097D01*
X22320D01*
Y42354D01*
X22420D01*
Y42097D01*
X22607D01*
X22647Y42097D01*
X22687Y42033D01*
X22687Y42033D01*
Y41853D01*
X22895D01*
Y42130D01*
Y42407D01*
X22727D01*
X22687Y42407D01*
X22647Y42471D01*
Y42611D01*
X22647Y42612D01*
Y42612D01*
X22617Y42679D01*
X22617Y42692D01*
Y43133D01*
X22617Y43133D01*
D01*
X22623Y43183D01*
X22623D01*
X22623Y43211D01*
Y43318D01*
X22876D01*
X22901Y43280D01*
X22966Y43237D01*
X22968Y43219D01*
X22961Y43155D01*
X22958Y43154D01*
X22880Y43101D01*
X22827Y43023D01*
X22819Y42980D01*
X23835D01*
X23826Y43023D01*
X23774Y43101D01*
X23695Y43154D01*
X23693Y43155D01*
X23685Y43219D01*
X23688Y43237D01*
X23752Y43280D01*
X23798Y43349D01*
X23814Y43430D01*
X23798Y43511D01*
X23752Y43580D01*
X23684Y43626D01*
X23602Y43642D01*
Y43718D01*
X23684Y43734D01*
X23752Y43780D01*
X23768Y43804D01*
X23848Y43779D01*
Y43768D01*
X23848Y43768D01*
X23856Y43725D01*
X23881Y43689D01*
X24278Y43292D01*
Y42928D01*
X24278Y42928D01*
X24286Y42885D01*
X24311Y42849D01*
X24708Y42451D01*
X24678Y42377D01*
X24368D01*
Y41883D01*
X24463D01*
Y41760D01*
X24473Y41709D01*
X24502Y41666D01*
X25031Y41137D01*
X25083Y41083D01*
X25083D01*
X25083Y41083D01*
Y40642D01*
X25083Y40629D01*
X25053Y40562D01*
Y40562D01*
X25053Y40561D01*
Y40354D01*
X25330D01*
Y40304D01*
X25380D01*
Y40047D01*
X25573D01*
X25607Y40047D01*
X25686Y40047D01*
X25687D01*
X25880D01*
Y40304D01*
X25980D01*
Y40047D01*
X26207D01*
X26207Y40047D01*
Y40047D01*
X26279Y40023D01*
X26284Y40019D01*
X26322Y39994D01*
X26311Y39978D01*
X26309Y39966D01*
X26815D01*
Y39866D01*
X26265D01*
X26237Y39831D01*
X25119D01*
X25096Y39866D01*
X25020Y39917D01*
X24930Y39935D01*
X24840Y39917D01*
X24764Y39866D01*
X24713Y39790D01*
X24695Y39700D01*
X24713Y39610D01*
X24764Y39534D01*
X24770Y39530D01*
Y39450D01*
X24764Y39446D01*
X24713Y39370D01*
X24695Y39280D01*
X24713Y39190D01*
X24764Y39114D01*
X24840Y39063D01*
X24930Y39045D01*
X25020Y39063D01*
X25096Y39114D01*
X25147Y39190D01*
X25165Y39280D01*
X25153Y39340D01*
X25223Y39410D01*
X25536D01*
X25560Y39330D01*
X25509Y39296D01*
X25458Y39220D01*
X25440Y39130D01*
X25448Y39091D01*
X25215Y38858D01*
X24766D01*
Y39012D01*
X24075D01*
Y38451D01*
X24045D01*
Y38185D01*
X24420D01*
Y38135D01*
X24470D01*
Y37818D01*
X24796D01*
X24818Y37747D01*
Y37280D01*
X24818Y37280D01*
X24826Y37237D01*
X24851Y37201D01*
X25101Y36951D01*
X25101Y36951D01*
X25117Y36940D01*
Y36783D01*
X25508D01*
Y36677D01*
X25117D01*
Y36183D01*
X25571D01*
X25638Y36153D01*
X25638Y36153D01*
X25638Y36153D01*
X25638Y36153D01*
Y36153D01*
X25638Y36153D01*
Y36153D01*
X25846D01*
Y36430D01*
X25896D01*
Y36480D01*
X26153D01*
Y36707D01*
X26143D01*
X26123Y36783D01*
X26165Y36845D01*
X26193Y36858D01*
X26203Y36860D01*
X26244Y36833D01*
X26294Y36823D01*
X26326D01*
X26383Y36766D01*
Y36742D01*
X26383Y36729D01*
X26353Y36662D01*
Y36662D01*
X26353Y36661D01*
Y36454D01*
X26907D01*
Y36628D01*
X26987Y36661D01*
X27117Y36531D01*
Y36280D01*
Y35828D01*
X27084Y35806D01*
X27033Y35730D01*
X27015Y35640D01*
X27033Y35550D01*
X27084Y35474D01*
X27160Y35423D01*
X27250Y35405D01*
X27340Y35423D01*
X27416Y35474D01*
X27467Y35550D01*
X27485Y35640D01*
X27467Y35730D01*
X27416Y35806D01*
X27383Y35828D01*
Y36147D01*
X28039D01*
X28063Y36067D01*
X28051Y36059D01*
X28051Y36059D01*
X27631Y35639D01*
X27606Y35603D01*
X27598Y35560D01*
X27598Y35560D01*
Y35177D01*
X27482D01*
Y35042D01*
X27289D01*
Y35177D01*
X26835D01*
X26767Y35207D01*
X26767Y35207D01*
X26767Y35207D01*
X26767Y35207D01*
Y35207D01*
X26767Y35207D01*
Y35207D01*
X26560D01*
Y34930D01*
X26510D01*
Y34880D01*
X26252D01*
Y34653D01*
X26521D01*
X26551Y34579D01*
X26351Y34378D01*
X26326Y34342D01*
X26318Y34299D01*
X26318Y34299D01*
Y33715D01*
X25260D01*
Y32745D01*
X27600D01*
Y33715D01*
X26542D01*
Y34252D01*
X26973Y34683D01*
X27289D01*
Y34818D01*
X27482D01*
Y34683D01*
X27937D01*
Y35177D01*
X27822D01*
Y35513D01*
X28176Y35868D01*
X28346D01*
X28379Y35788D01*
X28182Y35590D01*
X28157Y35554D01*
X28149Y35511D01*
X28149Y35511D01*
Y35177D01*
X28034D01*
Y34683D01*
X28489D01*
Y34818D01*
X28682D01*
Y34683D01*
X28998D01*
X29892Y33789D01*
X29862Y33715D01*
X29000D01*
Y32745D01*
X31340D01*
Y33715D01*
X30272D01*
X30249Y33749D01*
X30249Y33749D01*
X29420Y34579D01*
X29450Y34653D01*
X29719D01*
Y34880D01*
X29461D01*
Y34930D01*
X29411D01*
Y35207D01*
X29204D01*
Y35207D01*
X29204Y35207D01*
X29204Y35207D01*
D01*
X29204Y35207D01*
X29204Y35207D01*
X29136Y35177D01*
X28682D01*
Y35042D01*
X28489D01*
Y35177D01*
X28373D01*
Y35465D01*
X28576Y35668D01*
X30158D01*
X30158Y35668D01*
X30201Y35676D01*
X30237Y35701D01*
X31304Y36768D01*
X31328Y36804D01*
X31337Y36847D01*
X31337Y36847D01*
Y37422D01*
X31579D01*
X31658Y37362D01*
Y33270D01*
X31658Y33270D01*
X31666Y33227D01*
X31691Y33191D01*
X31921Y32961D01*
X31921Y32961D01*
X31957Y32936D01*
X32000Y32928D01*
X32046Y32918D01*
X32053Y32835D01*
X32031Y32825D01*
X31948Y32762D01*
X31885Y32679D01*
X31845Y32583D01*
X31838Y32530D01*
X32622D01*
X32615Y32583D01*
X32575Y32679D01*
X32512Y32762D01*
X32429Y32825D01*
X32375Y32848D01*
X32391Y32928D01*
X33624D01*
X33904Y32647D01*
X33874Y32575D01*
X33862Y32480D01*
X33874Y32385D01*
X33911Y32296D01*
X33969Y32219D01*
X34046Y32161D01*
X34135Y32124D01*
X34230Y32112D01*
X34325Y32124D01*
X34414Y32161D01*
X34491Y32219D01*
X34549Y32296D01*
X34586Y32385D01*
X34598Y32480D01*
X34586Y32575D01*
X34549Y32664D01*
X34491Y32741D01*
X34414Y32799D01*
X34325Y32836D01*
X34310Y32838D01*
X34316Y32918D01*
X34634D01*
X34904Y32647D01*
X34874Y32575D01*
X34862Y32480D01*
X34874Y32385D01*
X34911Y32296D01*
X34969Y32219D01*
X35046Y32161D01*
X35135Y32124D01*
X35230Y32112D01*
X35325Y32124D01*
X35414Y32161D01*
X35491Y32219D01*
X35549Y32296D01*
X35586Y32385D01*
X35598Y32480D01*
X35586Y32575D01*
X35549Y32664D01*
X35491Y32741D01*
X35414Y32799D01*
X35325Y32836D01*
X35230Y32848D01*
X35135Y32836D01*
X35063Y32806D01*
X34759Y33109D01*
X34723Y33134D01*
X34680Y33142D01*
X34680Y33142D01*
X34521D01*
X34494Y33210D01*
X34493Y33222D01*
X34549Y33296D01*
X34586Y33385D01*
X34598Y33480D01*
X34586Y33575D01*
X34549Y33664D01*
X34491Y33741D01*
X34414Y33799D01*
X34325Y33836D01*
X34230Y33848D01*
X34135Y33836D01*
X34063Y33806D01*
X33948Y33920D01*
X33972Y33976D01*
X33985Y33997D01*
X34070Y34013D01*
X34146Y34064D01*
X34197Y34140D01*
X34215Y34230D01*
X34197Y34320D01*
X34146Y34396D01*
X34070Y34447D01*
X33980Y34465D01*
X33967Y34462D01*
X33472Y34956D01*
Y35345D01*
X33629Y35503D01*
X33629Y35503D01*
X33654Y35539D01*
X33662Y35582D01*
X33662Y35582D01*
Y38262D01*
X33654Y38305D01*
X33629Y38341D01*
X33629Y38341D01*
X33430Y38541D01*
X33459Y38611D01*
X33531Y38613D01*
X33564Y38564D01*
X33640Y38513D01*
X33730Y38495D01*
X33820Y38513D01*
X33896Y38564D01*
X33947Y38640D01*
X33965Y38730D01*
X33947Y38820D01*
X33896Y38896D01*
X33820Y38947D01*
X33730Y38965D01*
X33640Y38947D01*
X33564Y38896D01*
X33528Y38842D01*
X33376D01*
X33107Y39112D01*
X33137Y39186D01*
X33592D01*
X33592Y39186D01*
X33635Y39195D01*
X33671Y39219D01*
X34056Y39603D01*
X34148D01*
X34204Y39547D01*
X34174Y39475D01*
X34162Y39380D01*
X34174Y39285D01*
X34211Y39196D01*
X34269Y39119D01*
X34346Y39061D01*
X34435Y39024D01*
X34530Y39012D01*
X34625Y39024D01*
X34714Y39061D01*
X34743Y39083D01*
X34823Y39044D01*
Y37576D01*
X34444Y37197D01*
X34189D01*
X34189Y37197D01*
X34146Y37189D01*
X34110Y37165D01*
X34110Y37165D01*
X34045Y37100D01*
X34021Y37064D01*
X34013Y37021D01*
X34013Y37021D01*
Y35085D01*
X34013Y35085D01*
X34021Y35042D01*
X34045Y35006D01*
X34204Y34847D01*
X34174Y34775D01*
X34162Y34680D01*
X34174Y34585D01*
X34211Y34496D01*
X34269Y34419D01*
X34346Y34361D01*
X34435Y34324D01*
X34530Y34312D01*
X34625Y34324D01*
X34714Y34361D01*
X34791Y34419D01*
X34849Y34496D01*
X34855Y34510D01*
X34949Y34529D01*
X35283Y34195D01*
X35283Y34195D01*
X35319Y34171D01*
X35362Y34163D01*
X35362Y34163D01*
X36789D01*
X37418Y33534D01*
Y32942D01*
X37365D01*
X37322Y32934D01*
X37286Y32909D01*
X37286Y32909D01*
X37143Y32767D01*
X37080Y32779D01*
X36990Y32761D01*
X36914Y32711D01*
X36863Y32634D01*
X36845Y32545D01*
X36863Y32455D01*
X36914Y32379D01*
X36990Y32328D01*
X37080Y32310D01*
X37170Y32328D01*
X37246Y32379D01*
X37297Y32455D01*
X37315Y32545D01*
X37302Y32608D01*
X37412Y32718D01*
X37577D01*
Y32583D01*
X38032D01*
Y33077D01*
X37642D01*
Y33183D01*
X38032D01*
Y33677D01*
X37912D01*
X37908Y33699D01*
X37884Y33735D01*
X37884Y33735D01*
X36892Y34726D01*
X36886Y34775D01*
X36849Y34864D01*
X36791Y34941D01*
X36714Y34999D01*
X36625Y35036D01*
X36530Y35048D01*
X36435Y35036D01*
X36346Y34999D01*
X36269Y34941D01*
X36211Y34864D01*
X36181Y34792D01*
X35879D01*
X35849Y34864D01*
X35791Y34941D01*
X35714Y34999D01*
X35625Y35036D01*
X35530Y35048D01*
X35435Y35036D01*
X35346Y34999D01*
X35269Y34941D01*
X35211Y34864D01*
X35191Y34817D01*
X35106Y34782D01*
X35094Y34783D01*
X35087Y34788D01*
Y35634D01*
X35167Y35640D01*
X35174Y35585D01*
X35211Y35496D01*
X35269Y35419D01*
X35346Y35361D01*
X35435Y35324D01*
X35530Y35312D01*
X35625Y35324D01*
X35714Y35361D01*
X35791Y35419D01*
X35849Y35496D01*
X35879Y35568D01*
X36181D01*
X36211Y35496D01*
X36269Y35419D01*
X36346Y35361D01*
X36435Y35324D01*
X36530Y35312D01*
X36625Y35324D01*
X36714Y35361D01*
X36791Y35419D01*
X36823Y35422D01*
X37744Y34501D01*
X37780Y34476D01*
X37780Y34476D01*
X37811Y34430D01*
X37880Y34384D01*
X37961Y34368D01*
Y34292D01*
X37880Y34276D01*
X37811Y34230D01*
X37765Y34161D01*
X37749Y34080D01*
X37765Y33999D01*
X37811Y33930D01*
X37880Y33884D01*
X37961Y33868D01*
X38512D01*
X38528Y33871D01*
X38608Y33806D01*
Y33747D01*
X38583Y33677D01*
X38128D01*
Y33183D01*
X38243D01*
Y33077D01*
X38128D01*
Y32583D01*
X38583D01*
Y33018D01*
X38747D01*
Y32880D01*
X39004D01*
Y32830D01*
X39054D01*
Y32553D01*
X39261D01*
X39261D01*
X39262Y32553D01*
Y32553D01*
X39262Y32553D01*
X39328Y32583D01*
X39328Y32583D01*
X39328Y32583D01*
X39328Y32583D01*
X39408Y32583D01*
X39783D01*
Y32647D01*
X39802Y32696D01*
X39876Y32726D01*
X39947Y32688D01*
Y32553D01*
X40154D01*
Y32830D01*
X40254D01*
Y32553D01*
X40462D01*
Y32553D01*
X40462Y32553D01*
X40462Y32553D01*
D01*
X40462Y32553D01*
X40462Y32553D01*
X40529Y32583D01*
X40983D01*
Y33077D01*
X40592D01*
Y33183D01*
X40983D01*
Y33318D01*
X41267D01*
Y33145D01*
X43593D01*
Y34908D01*
X43666Y34939D01*
X43968Y34637D01*
Y34233D01*
X43783D01*
Y33778D01*
X44277D01*
Y34233D01*
X44192D01*
Y34684D01*
X44192Y34684D01*
X44184Y34727D01*
X44159Y34763D01*
X44159Y34763D01*
X43745Y35178D01*
Y35937D01*
X43745Y35937D01*
X43736Y35980D01*
X43712Y36017D01*
X43712Y36017D01*
X43647Y36081D01*
X43611Y36105D01*
X43568Y36114D01*
X43568Y36114D01*
X41292D01*
X41249Y36105D01*
X41213Y36081D01*
X41213Y36081D01*
X40845Y35713D01*
X40755Y35720D01*
X40749Y35730D01*
X40680Y35776D01*
X40599Y35792D01*
X40267D01*
X40237Y35866D01*
X40422Y36051D01*
X40422Y36051D01*
X40446Y36088D01*
X40454Y36127D01*
X40727D01*
Y36531D01*
X40746Y36534D01*
X40782Y36559D01*
X41305Y37082D01*
X41329Y37118D01*
X41338Y37161D01*
X41338Y37161D01*
Y37543D01*
X41728D01*
X41921Y37351D01*
X41957Y37326D01*
X41977Y37322D01*
Y37183D01*
X42432D01*
Y37677D01*
X41977D01*
X41977Y37677D01*
Y37677D01*
X41898Y37690D01*
X41854Y37735D01*
X41818Y37759D01*
X41775Y37768D01*
X41775Y37768D01*
X41290D01*
X41290Y37768D01*
X41247Y37759D01*
X41211Y37735D01*
X41211Y37735D01*
X41146Y37670D01*
X41122Y37634D01*
X41113Y37591D01*
X41113Y37591D01*
Y37207D01*
X40801Y36895D01*
X40727Y36926D01*
Y37133D01*
X40233D01*
Y37018D01*
X40126D01*
X40083Y37009D01*
X40046Y36985D01*
X40046Y36985D01*
X39925Y36863D01*
X39921Y36859D01*
X39918Y36856D01*
X39897Y36836D01*
X39826Y36854D01*
X39819Y36863D01*
X39819Y36889D01*
Y36891D01*
X39819Y36891D01*
X39819Y36893D01*
Y37192D01*
X39227D01*
Y36816D01*
X39748D01*
X39748D01*
X39750Y36816D01*
X39786D01*
X39808Y36816D01*
X39813D01*
X39813D01*
X39814Y36816D01*
X39818Y36815D01*
X39820Y36814D01*
X39837Y36810D01*
X39863Y36803D01*
X39870Y36797D01*
X39887Y36774D01*
X39888Y36750D01*
X39888Y36773D01*
D01*
X39888Y36780D01*
X39888Y36780D01*
X39888Y36780D01*
X39888Y36747D01*
Y36491D01*
X39881Y36485D01*
X39819Y36444D01*
Y36444D01*
X39819Y36444D01*
X39227D01*
Y36368D01*
X39206D01*
X39163Y36360D01*
X39127Y36335D01*
X39127Y36335D01*
X39001Y36209D01*
X38976Y36173D01*
X38968Y36130D01*
X38968Y36130D01*
Y35741D01*
X38919Y35692D01*
X38687D01*
X38662Y35730D01*
X38593Y35776D01*
X38512Y35792D01*
X38086D01*
X38055Y35866D01*
X38307Y36118D01*
X38355D01*
X38355Y36118D01*
X38398Y36126D01*
X38435Y36151D01*
X38716Y36433D01*
X38716Y36433D01*
X38723Y36442D01*
X38933D01*
Y36818D01*
X38749D01*
Y36858D01*
X38741Y36901D01*
X38716Y36938D01*
X38716Y36938D01*
X38345Y37309D01*
X38376Y37383D01*
X38583D01*
Y37544D01*
X38592Y37551D01*
X38673Y37631D01*
X38747Y37601D01*
Y37353D01*
X38954D01*
Y37630D01*
X39054D01*
Y37353D01*
X39261D01*
X39261D01*
X39262Y37353D01*
Y37353D01*
X39262Y37353D01*
X39328Y37383D01*
X39328Y37383D01*
X39328Y37383D01*
X39328Y37383D01*
X39408Y37383D01*
X39783D01*
Y37518D01*
X39977D01*
Y37383D01*
X40418D01*
X40431Y37383D01*
X40498Y37353D01*
X40498D01*
X40499Y37353D01*
X40706D01*
Y37630D01*
X40756D01*
Y37680D01*
X41013D01*
Y37907D01*
X40994D01*
Y37907D01*
X40983Y37983D01*
X40983Y37987D01*
Y38118D01*
X41267D01*
Y37945D01*
X43593D01*
Y38337D01*
X43666Y38368D01*
X43741Y38294D01*
X43783Y38233D01*
X43783D01*
X43783Y38233D01*
Y37778D01*
X44277D01*
Y38233D01*
X44116D01*
X44109Y38242D01*
X44109Y38242D01*
X43745Y38607D01*
Y40737D01*
X43745Y40737D01*
X43736Y40780D01*
X43712Y40817D01*
X43712Y40817D01*
X43647Y40881D01*
X43611Y40905D01*
X43568Y40914D01*
X43568Y40914D01*
X41292D01*
X41292Y40914D01*
X41249Y40905D01*
X41213Y40881D01*
X41213Y40881D01*
X41148Y40817D01*
X41124Y40780D01*
X41115Y40737D01*
X41115Y40737D01*
Y40624D01*
X40984Y40492D01*
X40774D01*
X40749Y40530D01*
X40680Y40576D01*
X40599Y40592D01*
X40249D01*
X40218Y40666D01*
X40559Y41007D01*
X40559Y41007D01*
X40584Y41044D01*
X40592Y41086D01*
X40654Y41127D01*
X40727D01*
Y41401D01*
X40807Y41434D01*
X41151Y41091D01*
X41151Y41091D01*
X41187Y41066D01*
X41230Y41058D01*
X41880D01*
X41880Y41058D01*
X41923Y41066D01*
X41959Y41091D01*
X42284Y41415D01*
X42284Y41415D01*
X42308Y41451D01*
X42317Y41494D01*
X42317Y41494D01*
Y41983D01*
X42432D01*
Y42477D01*
X41977D01*
Y41983D01*
X42092D01*
Y41541D01*
X41834Y41282D01*
X41276D01*
X40857Y41701D01*
X40821Y41726D01*
X40778Y41734D01*
X40727Y41789D01*
Y42133D01*
X40233D01*
Y41991D01*
X40224Y41985D01*
X39871Y41632D01*
X39669D01*
X39626Y41624D01*
X39590Y41599D01*
X39590Y41599D01*
X39444Y41453D01*
X39437Y41444D01*
X39227D01*
Y41068D01*
X39411D01*
Y40739D01*
X39164Y40492D01*
X38687D01*
X38662Y40530D01*
X38593Y40576D01*
X38512Y40592D01*
X38064D01*
X38030Y40672D01*
X38141Y40782D01*
X38146Y40783D01*
X38182Y40808D01*
X38716Y41342D01*
X38741Y41378D01*
X38749Y41421D01*
X38824Y41442D01*
X38933D01*
Y41818D01*
X38808D01*
X38749Y41863D01*
X38741Y41906D01*
X38716Y41942D01*
X38716Y41942D01*
X38372Y42287D01*
X38403Y42361D01*
X38533D01*
Y42730D01*
X38604Y42775D01*
X38613Y42775D01*
X38650Y42768D01*
X38697D01*
Y42630D01*
X38954D01*
Y42580D01*
X39004D01*
Y42303D01*
X39212D01*
Y42303D01*
X39212Y42303D01*
X39212Y42303D01*
D01*
X39212Y42303D01*
X39212Y42303D01*
X39279Y42333D01*
X39733D01*
Y42468D01*
X39927D01*
Y42333D01*
X40368D01*
X40381Y42333D01*
X40448Y42303D01*
X40448D01*
X40449Y42303D01*
X40656D01*
Y42580D01*
X40706D01*
Y42630D01*
X40963D01*
Y42857D01*
X40944D01*
Y42857D01*
X40933Y42933D01*
X40933Y42937D01*
Y43068D01*
X41267D01*
Y42745D01*
X43593D01*
Y43337D01*
X43666Y43368D01*
X43741Y43294D01*
X43783Y43233D01*
X43783D01*
X43783Y43233D01*
Y42778D01*
X44277D01*
Y43233D01*
X44116D01*
X44109Y43242D01*
X44109Y43242D01*
X43745Y43607D01*
Y45537D01*
X43745Y45537D01*
X43736Y45580D01*
X43712Y45617D01*
X43712Y45617D01*
X43647Y45681D01*
X43611Y45705D01*
X43568Y45714D01*
X43568Y45714D01*
X41292D01*
X41249Y45705D01*
X41213Y45681D01*
X41213Y45681D01*
X40974Y45442D01*
X40798D01*
X40795Y45461D01*
X40749Y45530D01*
X40680Y45576D01*
X40599Y45592D01*
X40577D01*
X40534Y45670D01*
X40534Y45672D01*
X40542Y45713D01*
Y45927D01*
X40727D01*
Y46310D01*
X40807D01*
X41201Y45916D01*
X41237Y45892D01*
X41280Y45884D01*
X41280Y45884D01*
X41680D01*
X41680Y45884D01*
X41723Y45892D01*
X41759Y45916D01*
X42234Y46391D01*
X42258Y46427D01*
X42267Y46470D01*
X42267Y46470D01*
Y46783D01*
X42432D01*
Y47277D01*
X41977D01*
Y46783D01*
X42042D01*
Y46517D01*
X41634Y46108D01*
X41326D01*
X40933Y46501D01*
X40897Y46526D01*
X40854Y46534D01*
X40854Y46534D01*
X40727D01*
Y46933D01*
X40233D01*
Y46768D01*
X40123D01*
X40080Y46759D01*
X40043Y46735D01*
X40043Y46735D01*
X39882Y46573D01*
X39819Y46624D01*
Y46992D01*
X39547D01*
X39520Y47072D01*
X39558Y47102D01*
X39610Y47169D01*
X39642Y47246D01*
X39653Y47330D01*
Y47423D01*
X44817D01*
X44950Y47289D01*
X44920Y47215D01*
X44417D01*
Y44398D01*
X45106D01*
Y42415D01*
X44546D01*
X44516Y42489D01*
X44762Y42735D01*
X44762Y42735D01*
X44768Y42745D01*
X44949D01*
Y43830D01*
X44416D01*
Y42745D01*
X44416Y42745D01*
X44416D01*
X44385Y42676D01*
X44351Y42642D01*
X44277Y42673D01*
Y42682D01*
X43783D01*
Y42227D01*
X44277D01*
Y42283D01*
X44322Y42342D01*
X44337Y42345D01*
X44404Y42305D01*
X44417Y42290D01*
Y39598D01*
X45106D01*
Y37615D01*
X44665D01*
X44634Y37689D01*
X44762Y37816D01*
X44762Y37816D01*
X44786Y37853D01*
X44795Y37896D01*
Y37945D01*
X44949D01*
Y39030D01*
X44416D01*
Y37945D01*
X44459D01*
X44493Y37865D01*
X44343Y37715D01*
X44277Y37682D01*
X44277Y37682D01*
Y37682D01*
X44277Y37682D01*
X43783D01*
Y37227D01*
X44277D01*
Y37347D01*
X44297Y37351D01*
X44334Y37375D01*
X44344Y37385D01*
X44417Y37354D01*
Y34798D01*
X46743D01*
Y37228D01*
X46799Y37285D01*
X46823Y37285D01*
X47026D01*
Y37542D01*
X47076D01*
Y37592D01*
X47353D01*
Y37798D01*
X47353Y37800D01*
Y37800D01*
X47323Y37867D01*
X47323Y37880D01*
Y38306D01*
X47690D01*
X47712Y38289D01*
X47849Y38232D01*
X47996Y38213D01*
X48142Y38232D01*
X48279Y38289D01*
X48397Y38379D01*
X48457Y38457D01*
X49503D01*
X49563Y38379D01*
X49681Y38289D01*
X49818Y38232D01*
X49964Y38213D01*
X50111Y38232D01*
X50248Y38289D01*
X50365Y38379D01*
X50455Y38497D01*
X50512Y38633D01*
X50528Y38753D01*
X50608Y38748D01*
Y37568D01*
X50528Y37563D01*
X50512Y37683D01*
X50455Y37819D01*
X50365Y37937D01*
X50248Y38027D01*
X50111Y38084D01*
X49964Y38103D01*
X49818Y38084D01*
X49681Y38027D01*
X49563Y37937D01*
X49503Y37859D01*
X48457D01*
X48397Y37937D01*
X48279Y38027D01*
X48142Y38084D01*
X47996Y38103D01*
X47849Y38084D01*
X47712Y38027D01*
X47595Y37937D01*
X47505Y37819D01*
X47448Y37683D01*
X47433Y37570D01*
X47403Y37572D01*
Y37500D01*
X47433Y37502D01*
X47448Y37389D01*
X47505Y37252D01*
X47595Y37135D01*
X47712Y37045D01*
X47849Y36988D01*
X47996Y36969D01*
X48142Y36988D01*
X48279Y37045D01*
X48397Y37135D01*
X48457Y37213D01*
X48641D01*
Y36819D01*
X48123D01*
Y35497D01*
X48641D01*
Y35103D01*
X48457D01*
X48397Y35181D01*
X48279Y35271D01*
X48142Y35328D01*
X47996Y35347D01*
X47849Y35328D01*
X47712Y35271D01*
X47595Y35181D01*
X47505Y35063D01*
X47448Y34927D01*
X47429Y34780D01*
X47442Y34682D01*
X46824Y34065D01*
X46744Y34098D01*
Y34230D01*
X46211D01*
Y33865D01*
X46198Y33848D01*
X46166Y33771D01*
X46155Y33687D01*
X46166Y33604D01*
X46198Y33526D01*
X46211Y33509D01*
Y33145D01*
X46723D01*
X46744Y33145D01*
X46803Y33092D01*
Y33004D01*
X47357D01*
Y33211D01*
X47357Y33212D01*
Y33212D01*
X47327Y33279D01*
X47327Y33292D01*
Y33655D01*
X47898Y34226D01*
X47996Y34213D01*
X48142Y34232D01*
X48279Y34289D01*
X48397Y34379D01*
X48457Y34457D01*
X49503D01*
X49563Y34379D01*
X49681Y34289D01*
X49818Y34232D01*
X49964Y34213D01*
X50111Y34232D01*
X50248Y34289D01*
X50365Y34379D01*
X50455Y34497D01*
X50512Y34633D01*
X50528Y34753D01*
X50608Y34748D01*
Y32630D01*
X50611Y32613D01*
X50596Y32458D01*
X50546Y32294D01*
X50464Y32142D01*
X50355Y32008D01*
X50222Y31899D01*
X50070Y31818D01*
X49905Y31768D01*
X49739Y31751D01*
X49733Y31752D01*
X14459D01*
X14450Y31832D01*
X14562Y31859D01*
X14717Y31924D01*
X14861Y32012D01*
X14989Y32121D01*
X15098Y32249D01*
X15186Y32393D01*
X15251Y32548D01*
X15290Y32712D01*
X15303Y32880D01*
X15290Y33048D01*
X15251Y33212D01*
X15186Y33367D01*
X15098Y33511D01*
X14989Y33639D01*
X14861Y33748D01*
X14717Y33836D01*
X14562Y33901D01*
X14398Y33940D01*
X14230Y33953D01*
X14062Y33940D01*
X13898Y33901D01*
X13743Y33836D01*
X13599Y33748D01*
X13471Y33639D01*
X13362Y33511D01*
X13274Y33367D01*
X13209Y33212D01*
X13170Y33048D01*
X13157Y32880D01*
X13170Y32712D01*
X13209Y32548D01*
X13274Y32393D01*
X13362Y32249D01*
X13471Y32121D01*
X13599Y32012D01*
X13743Y31924D01*
X13898Y31859D01*
X14010Y31832D01*
X14001Y31752D01*
X13825D01*
X13820Y31751D01*
X13653Y31768D01*
X13489Y31818D01*
X13337Y31899D01*
X13203Y32008D01*
X13094Y32142D01*
X13013Y32294D01*
X12963Y32458D01*
X12946Y32625D01*
X12947Y32630D01*
Y47630D01*
X12946Y47635D01*
X12963Y47802D01*
X13013Y47966D01*
X13094Y48118D01*
X13203Y48252D01*
X13337Y48361D01*
X13489Y48442D01*
X13653Y48492D01*
X13820Y48509D01*
X13825Y48508D01*
X14001D01*
X14010Y48428D01*
X13898Y48401D01*
X13743Y48336D01*
X13599Y48248D01*
X13471Y48139D01*
X13362Y48011D01*
X13274Y47867D01*
X13209Y47712D01*
X13170Y47548D01*
X13157Y47380D01*
X13170Y47212D01*
X13209Y47048D01*
X13274Y46893D01*
X13362Y46749D01*
X13471Y46621D01*
X13599Y46512D01*
X13743Y46424D01*
X13898Y46359D01*
X14062Y46320D01*
X14230Y46307D01*
X14398Y46320D01*
X14562Y46359D01*
X14717Y46424D01*
X14861Y46512D01*
X14989Y46621D01*
X15098Y46749D01*
X15186Y46893D01*
X15251Y47048D01*
X15290Y47212D01*
X15303Y47380D01*
X15290Y47548D01*
X15251Y47712D01*
X15186Y47867D01*
X15098Y48011D01*
X14989Y48139D01*
X14861Y48248D01*
X14717Y48336D01*
X14562Y48401D01*
X14450Y48428D01*
X14459Y48508D01*
X48735D01*
X48744Y48428D01*
X48633Y48401D01*
X48477Y48336D01*
X48333Y48248D01*
X48205Y48139D01*
X48096Y48011D01*
X48008Y47867D01*
X47943Y47712D01*
X47904Y47548D01*
X47891Y47380D01*
X47904Y47212D01*
X47943Y47048D01*
X48008Y46893D01*
X48096Y46749D01*
X48205Y46621D01*
X48333Y46512D01*
X48477Y46424D01*
X48633Y46359D01*
X48796Y46320D01*
X48964Y46307D01*
X49132Y46320D01*
X49296Y46359D01*
X49452Y46424D01*
X49595Y46512D01*
X49723Y46621D01*
X49833Y46749D01*
X49921Y46893D01*
X49985Y47048D01*
X50024Y47212D01*
X50038Y47380D01*
X50024Y47548D01*
X49985Y47712D01*
X49921Y47867D01*
X49833Y48011D01*
X49723Y48139D01*
X49595Y48248D01*
X49452Y48336D01*
X49296Y48401D01*
X49184Y48428D01*
X49193Y48508D01*
X49730D01*
X49735Y48509D01*
X49902Y48492D01*
D02*
G37*
%LPC*%
G36*
X18906Y36742D02*
X18580D01*
Y36475D01*
X18906D01*
Y36742D01*
D02*
G37*
G36*
X42983Y37677D02*
X42528D01*
Y37183D01*
X42574D01*
X42643Y37154D01*
X42652Y37111D01*
X42676Y37075D01*
X42758Y36994D01*
X42758Y36994D01*
X42794Y36969D01*
X42837Y36961D01*
X43061D01*
Y36530D01*
X43594D01*
Y37615D01*
X43061D01*
X43061Y37615D01*
Y37615D01*
X42983Y37621D01*
Y37677D01*
D02*
G37*
G36*
X37830Y37163D02*
X37603D01*
Y36956D01*
X37830D01*
Y37163D01*
D02*
G37*
G36*
X13730Y37947D02*
X13583Y37928D01*
X13447Y37871D01*
X13329Y37781D01*
X13239Y37663D01*
X13182Y37527D01*
X13163Y37380D01*
X13182Y37233D01*
X13239Y37097D01*
X13329Y36979D01*
X13447Y36889D01*
X13583Y36832D01*
X13730Y36813D01*
X13877Y36832D01*
X14013Y36889D01*
X14131Y36979D01*
X14221Y37097D01*
X14278Y37233D01*
X14297Y37380D01*
X14278Y37527D01*
X14221Y37663D01*
X14131Y37781D01*
X14013Y37871D01*
X13877Y37928D01*
X13730Y37947D01*
D02*
G37*
G36*
X23895Y36907D02*
X23687D01*
Y36680D01*
X23895D01*
Y36907D01*
D02*
G37*
G36*
X19468Y36695D02*
X19221D01*
Y36173D01*
X19468D01*
Y36695D01*
D02*
G37*
G36*
X26153Y36380D02*
X25946D01*
Y36153D01*
X26153D01*
Y36380D01*
D02*
G37*
G36*
X26907Y36354D02*
X26680D01*
Y36147D01*
X26907D01*
Y36354D01*
D02*
G37*
G36*
X19815Y36695D02*
X19568D01*
Y36173D01*
X19815D01*
Y36695D01*
D02*
G37*
G36*
X18480Y36742D02*
X18154D01*
Y36475D01*
X18480D01*
Y36742D01*
D02*
G37*
G36*
X37830Y46963D02*
X37603D01*
Y46756D01*
X37830D01*
Y46963D01*
D02*
G37*
G36*
X20280Y36882D02*
X19964D01*
Y36409D01*
X20280D01*
Y36882D01*
D02*
G37*
G36*
X47507Y46704D02*
X47280D01*
Y46497D01*
X47507D01*
Y46704D01*
D02*
G37*
G36*
X39606Y38507D02*
Y38280D01*
X39813D01*
Y38507D01*
X39606D01*
D02*
G37*
G36*
X21942Y38556D02*
X21675D01*
Y38230D01*
X21942D01*
Y38556D01*
D02*
G37*
G36*
X16680Y38242D02*
X16354D01*
Y37975D01*
X16680D01*
Y38242D01*
D02*
G37*
G36*
X21942Y39506D02*
X21675D01*
Y39180D01*
X21942D01*
Y39506D01*
D02*
G37*
G36*
Y39080D02*
X21675D01*
Y38754D01*
X21942D01*
Y39080D01*
D02*
G37*
G36*
X19813Y40007D02*
X18670D01*
Y38618D01*
X19813D01*
Y40007D01*
D02*
G37*
G36*
X24370Y38085D02*
X24045D01*
Y37818D01*
X24370D01*
Y38085D01*
D02*
G37*
G36*
X47180Y46704D02*
X46953D01*
Y46497D01*
X47180D01*
Y46704D01*
D02*
G37*
G36*
X21746Y37307D02*
Y37080D01*
X21953D01*
Y37307D01*
X21746D01*
D02*
G37*
G36*
X15698Y37947D02*
X15552Y37928D01*
X15415Y37871D01*
X15298Y37781D01*
X15207Y37663D01*
X15151Y37527D01*
X15145Y37479D01*
X14486Y36821D01*
X14435Y36754D01*
X14403Y36676D01*
X14401Y36663D01*
X13857D01*
Y35341D01*
X14401D01*
X14403Y35328D01*
X14435Y35250D01*
X14486Y35183D01*
X14649Y35021D01*
X14618Y34947D01*
X14191D01*
X14131Y35025D01*
X14013Y35115D01*
X13877Y35172D01*
X13730Y35191D01*
X13583Y35172D01*
X13447Y35115D01*
X13329Y35025D01*
X13239Y34908D01*
X13182Y34771D01*
X13163Y34624D01*
X13182Y34477D01*
X13239Y34341D01*
X13329Y34223D01*
X13447Y34133D01*
X13583Y34076D01*
X13730Y34057D01*
X13877Y34076D01*
X14013Y34133D01*
X14131Y34223D01*
X14191Y34301D01*
X15238D01*
X15298Y34223D01*
X15415Y34133D01*
X15552Y34076D01*
X15698Y34057D01*
X15796Y34070D01*
X16491Y33375D01*
X16558Y33324D01*
X16636Y33291D01*
X16719Y33280D01*
X17458D01*
Y32195D01*
X19783D01*
Y35012D01*
X17458D01*
Y33926D01*
X16853D01*
X16253Y34526D01*
X16265Y34624D01*
X16246Y34771D01*
X16190Y34908D01*
X16099Y35025D01*
X15982Y35115D01*
X15845Y35172D01*
X15698Y35191D01*
X15552Y35172D01*
X15452Y35130D01*
X15315Y35268D01*
X15345Y35341D01*
X15572D01*
Y36663D01*
X15345D01*
X15315Y36737D01*
X15452Y36874D01*
X15552Y36832D01*
X15698Y36813D01*
X15845Y36832D01*
X15982Y36889D01*
X16099Y36979D01*
X16190Y37097D01*
X16242Y37223D01*
X16384D01*
Y37048D01*
X17076D01*
Y37609D01*
X17106D01*
Y37875D01*
X16354D01*
Y37609D01*
X16384D01*
Y37447D01*
X16257D01*
X16246Y37527D01*
X16190Y37663D01*
X16099Y37781D01*
X15982Y37871D01*
X15845Y37928D01*
X15698Y37947D01*
D02*
G37*
G36*
X21942Y38130D02*
X21675D01*
Y37804D01*
X21942D01*
Y38130D01*
D02*
G37*
G36*
X41013Y37580D02*
X40806D01*
Y37353D01*
X41013D01*
Y37580D01*
D02*
G37*
G36*
X47353Y37492D02*
X47126D01*
Y37285D01*
X47353D01*
Y37492D01*
D02*
G37*
G36*
X26580Y36354D02*
X26353D01*
Y36147D01*
X26580D01*
Y36354D01*
D02*
G37*
G36*
X35230Y33848D02*
X35135Y33836D01*
X35046Y33799D01*
X34969Y33741D01*
X34911Y33664D01*
X34874Y33575D01*
X34862Y33480D01*
X34874Y33385D01*
X34911Y33296D01*
X34969Y33219D01*
X35046Y33161D01*
X35135Y33124D01*
X35230Y33112D01*
X35325Y33124D01*
X35414Y33161D01*
X35491Y33219D01*
X35549Y33296D01*
X35586Y33385D01*
X35598Y33480D01*
X35586Y33575D01*
X35549Y33664D01*
X35491Y33741D01*
X35414Y33799D01*
X35325Y33836D01*
X35230Y33848D01*
D02*
G37*
G36*
X24202Y36907D02*
X24202D01*
X24201Y36907D01*
X23995D01*
Y36630D01*
X23945D01*
Y36580D01*
X23687D01*
Y36387D01*
Y36386D01*
X23687Y36307D01*
X23687Y36273D01*
Y36080D01*
X23945D01*
Y36030D01*
X23995D01*
Y35753D01*
X24057D01*
X24115Y35700D01*
X24115Y35673D01*
Y34580D01*
X24468D01*
Y33530D01*
X24115D01*
Y33082D01*
X21545D01*
Y33530D01*
X21192D01*
Y34580D01*
X21545D01*
Y35700D01*
X20615D01*
Y34580D01*
X20968D01*
Y33530D01*
X20615D01*
Y32410D01*
X21545D01*
Y32858D01*
X24115D01*
Y32410D01*
X25045D01*
Y33530D01*
X24692D01*
Y34580D01*
X25045D01*
Y35700D01*
X24608D01*
Y35783D01*
X24723D01*
Y36277D01*
X24608D01*
Y36383D01*
X24723D01*
Y36877D01*
X24282D01*
X24270Y36877D01*
X24202Y36907D01*
D02*
G37*
G36*
X47357Y32904D02*
X47130D01*
Y32697D01*
X47357D01*
Y32904D01*
D02*
G37*
G36*
X36595Y33845D02*
X35865D01*
Y33115D01*
X36595D01*
Y33845D01*
D02*
G37*
G36*
X21970Y34473D02*
X21886Y34462D01*
X21809Y34430D01*
X21742Y34378D01*
X21690Y34311D01*
X21658Y34234D01*
X21647Y34150D01*
X21658Y34066D01*
X21690Y33989D01*
X21742Y33922D01*
X21809Y33870D01*
X21886Y33838D01*
X21970Y33827D01*
X22054Y33838D01*
X22131Y33870D01*
X22198Y33922D01*
X22250Y33989D01*
X22282Y34066D01*
X22293Y34150D01*
X22282Y34234D01*
X22250Y34311D01*
X22198Y34378D01*
X22131Y34430D01*
X22054Y34462D01*
X21970Y34473D01*
D02*
G37*
G36*
X44949Y34230D02*
X44416D01*
Y33667D01*
X44277D01*
Y33682D01*
X43783D01*
Y33227D01*
X44277D01*
Y33442D01*
X44416D01*
Y33145D01*
X44949D01*
Y34230D01*
D02*
G37*
G36*
X39606Y33707D02*
Y33480D01*
X39813D01*
Y33707D01*
X39606D01*
D02*
G37*
G36*
X32622Y32430D02*
X32280D01*
Y32088D01*
X32333Y32095D01*
X32429Y32135D01*
X32512Y32198D01*
X32575Y32281D01*
X32615Y32377D01*
X32622Y32430D01*
D02*
G37*
G36*
X32180D02*
X31838D01*
X31845Y32377D01*
X31885Y32281D01*
X31948Y32198D01*
X32031Y32135D01*
X32127Y32095D01*
X32180Y32088D01*
Y32430D01*
D02*
G37*
G36*
X48964Y34053D02*
X48796Y34040D01*
X48633Y34001D01*
X48477Y33936D01*
X48333Y33848D01*
X48205Y33739D01*
X48096Y33611D01*
X48008Y33467D01*
X47943Y33312D01*
X47904Y33148D01*
X47891Y32980D01*
X47904Y32812D01*
X47943Y32648D01*
X48008Y32493D01*
X48096Y32349D01*
X48205Y32221D01*
X48333Y32112D01*
X48477Y32024D01*
X48633Y31959D01*
X48796Y31920D01*
X48964Y31907D01*
X49132Y31920D01*
X49296Y31959D01*
X49452Y32024D01*
X49595Y32112D01*
X49723Y32221D01*
X49833Y32349D01*
X49921Y32493D01*
X49985Y32648D01*
X50024Y32812D01*
X50038Y32980D01*
X50024Y33148D01*
X49985Y33312D01*
X49921Y33467D01*
X49833Y33611D01*
X49723Y33739D01*
X49595Y33848D01*
X49452Y33936D01*
X49296Y34001D01*
X49132Y34040D01*
X48964Y34053D01*
D02*
G37*
G36*
X33230Y32848D02*
X33135Y32836D01*
X33046Y32799D01*
X32969Y32741D01*
X32911Y32664D01*
X32874Y32575D01*
X32862Y32480D01*
X32874Y32385D01*
X32911Y32296D01*
X32969Y32219D01*
X33046Y32161D01*
X33135Y32124D01*
X33230Y32112D01*
X33325Y32124D01*
X33414Y32161D01*
X33491Y32219D01*
X33549Y32296D01*
X33586Y32385D01*
X33598Y32480D01*
X33586Y32575D01*
X33549Y32664D01*
X33491Y32741D01*
X33414Y32799D01*
X33325Y32836D01*
X33230Y32848D01*
D02*
G37*
G36*
X47030Y32904D02*
X46803D01*
Y32697D01*
X47030D01*
Y32904D01*
D02*
G37*
G36*
X38954Y32780D02*
X38747D01*
Y32553D01*
X38954D01*
Y32780D01*
D02*
G37*
G36*
X36230Y32848D02*
X36135Y32836D01*
X36046Y32799D01*
X35969Y32741D01*
X35911Y32664D01*
X35874Y32575D01*
X35862Y32480D01*
X35874Y32385D01*
X35911Y32296D01*
X35969Y32219D01*
X36046Y32161D01*
X36135Y32124D01*
X36230Y32112D01*
X36325Y32124D01*
X36414Y32161D01*
X36491Y32219D01*
X36549Y32296D01*
X36586Y32385D01*
X36598Y32480D01*
X36586Y32575D01*
X36549Y32664D01*
X36491Y32741D01*
X36414Y32799D01*
X36325Y32836D01*
X36230Y32848D01*
D02*
G37*
G36*
X38157Y46963D02*
X37930D01*
Y46756D01*
X38157D01*
Y46963D01*
D02*
G37*
G36*
X23895Y35980D02*
X23687D01*
Y35826D01*
Y35826D01*
X23687Y35814D01*
X23687Y35812D01*
X23684Y35790D01*
X23680Y35783D01*
X23675Y35773D01*
X23673Y35770D01*
X23673Y35770D01*
D01*
X23667Y35759D01*
X23665Y35757D01*
X23661Y35749D01*
X23658Y35743D01*
X23658Y35743D01*
X23656Y35743D01*
X23656Y35743D01*
X23656Y35743D01*
X23656D01*
X23653Y35742D01*
X23638Y35737D01*
X23638Y35737D01*
X23625Y35733D01*
X23609Y35731D01*
X23605Y35730D01*
X23604D01*
X23583Y35730D01*
X23582D01*
X23500D01*
Y35210D01*
X23650D01*
Y35657D01*
Y35657D01*
X23650Y35669D01*
X23650Y35671D01*
X23653Y35693D01*
X23657Y35700D01*
X23662Y35710D01*
X23664Y35712D01*
X23664Y35713D01*
D01*
X23670Y35723D01*
X23672Y35726D01*
X23676Y35734D01*
X23679Y35740D01*
X23680Y35740D01*
X23681Y35740D01*
X23681Y35740D01*
X23682Y35740D01*
X23682D01*
X23684Y35741D01*
X23699Y35746D01*
X23699Y35746D01*
X23712Y35750D01*
X23728Y35752D01*
X23733Y35753D01*
X23733D01*
X23754Y35753D01*
X23755D01*
X23895D01*
Y35980D01*
D02*
G37*
G36*
X30711Y35207D02*
Y34980D01*
X30919D01*
Y35207D01*
X30711D01*
D02*
G37*
G36*
X19468Y36073D02*
X19221D01*
Y35550D01*
X19468D01*
Y36073D01*
D02*
G37*
G36*
X20696Y36309D02*
X20380D01*
Y35836D01*
X20696D01*
Y36309D01*
D02*
G37*
G36*
X20280D02*
X19964D01*
Y35836D01*
X20280D01*
Y36309D01*
D02*
G37*
G36*
X19815Y36073D02*
X19568D01*
Y35550D01*
X19815D01*
Y36073D01*
D02*
G37*
G36*
X47112Y48256D02*
X46578D01*
Y47604D01*
X46733D01*
Y47513D01*
X46733Y47513D01*
X46741Y47471D01*
X46766Y47434D01*
X46974Y47226D01*
X46974Y47226D01*
X46983Y47220D01*
Y47092D01*
X46983Y47079D01*
X46953Y47012D01*
Y47012D01*
X46953Y47011D01*
Y46804D01*
X47507D01*
Y47011D01*
X47507Y47012D01*
Y47012D01*
X47477Y47079D01*
X47477Y47092D01*
Y47533D01*
X47133D01*
X47112Y47604D01*
X47112Y47604D01*
X47112D01*
X47112Y47604D01*
Y48256D01*
D02*
G37*
G36*
X30404Y35207D02*
X30404D01*
X30336Y35177D01*
X30324Y35177D01*
X29882D01*
Y34683D01*
X29983D01*
X29983Y34683D01*
X29987Y34659D01*
X29989Y34658D01*
X29989Y34656D01*
X30003Y34636D01*
X30016Y34616D01*
X30146Y34486D01*
X30175Y34467D01*
X30372Y34282D01*
X30365Y34250D01*
X30383Y34160D01*
X30434Y34084D01*
X30510Y34033D01*
X30600Y34015D01*
X30690Y34033D01*
X30766Y34084D01*
X30817Y34160D01*
X30835Y34250D01*
X30817Y34340D01*
X30766Y34416D01*
X30690Y34467D01*
X30600Y34485D01*
X30554Y34475D01*
X30450Y34573D01*
X30481Y34653D01*
X30611D01*
Y34930D01*
Y35207D01*
X30405D01*
X30404Y35207D01*
D02*
G37*
G36*
X23690Y34473D02*
X23606Y34462D01*
X23529Y34430D01*
X23462Y34378D01*
X23410Y34311D01*
X23378Y34234D01*
X23367Y34150D01*
X23378Y34066D01*
X23410Y33989D01*
X23462Y33922D01*
X23529Y33870D01*
X23606Y33838D01*
X23690Y33827D01*
X23774Y33838D01*
X23851Y33870D01*
X23918Y33922D01*
X23970Y33989D01*
X24002Y34066D01*
X24013Y34150D01*
X24002Y34234D01*
X23970Y34311D01*
X23918Y34378D01*
X23851Y34430D01*
X23774Y34462D01*
X23690Y34473D01*
D02*
G37*
G36*
X23650Y35110D02*
X23500D01*
Y34590D01*
X23650D01*
Y35110D01*
D02*
G37*
G36*
X29719Y35207D02*
X29511D01*
Y34980D01*
X29719D01*
Y35207D01*
D02*
G37*
G36*
X26460D02*
X26252D01*
Y34980D01*
X26460D01*
Y35207D01*
D02*
G37*
G36*
X30919Y34880D02*
X30711D01*
Y34653D01*
X30919D01*
Y34880D01*
D02*
G37*
G36*
X42983Y47277D02*
X42528D01*
Y46783D01*
X42983D01*
X42983Y46783D01*
X43061Y46777D01*
Y46130D01*
X43594D01*
Y47215D01*
X43061D01*
X43061Y47215D01*
Y47215D01*
X42983Y47221D01*
Y47277D01*
D02*
G37*
G36*
X36056Y43657D02*
Y43430D01*
X36263D01*
Y43657D01*
X36056D01*
D02*
G37*
G36*
X27619Y45786D02*
X27283D01*
Y45618D01*
X27619D01*
Y45786D01*
D02*
G37*
G36*
X39556Y43457D02*
Y43230D01*
X39763D01*
Y43457D01*
X39556D01*
D02*
G37*
G36*
X14664Y44096D02*
X13827D01*
Y43455D01*
X14664D01*
Y44096D01*
D02*
G37*
G36*
X47407Y44263D02*
X47180D01*
Y44056D01*
X47407D01*
Y44263D01*
D02*
G37*
G36*
X47080D02*
X46853D01*
Y44056D01*
X47080D01*
Y44263D01*
D02*
G37*
G36*
X15602Y44096D02*
X14764D01*
Y43455D01*
X15602D01*
Y44096D01*
D02*
G37*
G36*
X13780Y43358D02*
Y42818D01*
X14320D01*
X14314Y42884D01*
X14280Y42995D01*
X14225Y43098D01*
X14151Y43189D01*
X14061Y43263D01*
X13958Y43317D01*
X13846Y43351D01*
X13780Y43358D01*
D02*
G37*
G36*
X13680D02*
X13614Y43351D01*
X13502Y43317D01*
X13399Y43263D01*
X13309Y43189D01*
X13235Y43098D01*
X13180Y42995D01*
X13146Y42884D01*
X13140Y42818D01*
X13680D01*
Y43358D01*
D02*
G37*
G36*
X23835Y42880D02*
X23377D01*
Y42688D01*
X23602D01*
X23695Y42706D01*
X23774Y42759D01*
X23826Y42837D01*
X23835Y42880D01*
D02*
G37*
G36*
X15648Y43358D02*
X15582Y43351D01*
X15471Y43317D01*
X15368Y43263D01*
X15278Y43189D01*
X15204Y43098D01*
X15149Y42995D01*
X15115Y42884D01*
X15108Y42818D01*
X15648D01*
Y43358D01*
D02*
G37*
G36*
X36263Y43330D02*
X36056D01*
Y43103D01*
X36263D01*
Y43330D01*
D02*
G37*
G36*
X28514Y46398D02*
X27803D01*
Y46022D01*
X28128D01*
X28136Y46012D01*
X28151Y45991D01*
X28169Y45972D01*
X28178Y45962D01*
X28165Y45900D01*
X28183Y45810D01*
X28234Y45734D01*
X28310Y45683D01*
X28400Y45665D01*
X28490Y45683D01*
X28566Y45734D01*
X28617Y45810D01*
X28635Y45900D01*
X28617Y45990D01*
X28566Y46066D01*
X28514Y46101D01*
Y46398D01*
D02*
G37*
G36*
X15748Y43358D02*
Y42818D01*
X16289D01*
X16282Y42884D01*
X16248Y42995D01*
X16193Y43098D01*
X16119Y43189D01*
X16029Y43263D01*
X15926Y43317D01*
X15815Y43351D01*
X15748Y43358D01*
D02*
G37*
G36*
X21705Y46280D02*
X20980D01*
Y45305D01*
X21705D01*
Y46280D01*
D02*
G37*
G36*
X20880D02*
X20155D01*
Y45305D01*
X20880D01*
Y46280D01*
D02*
G37*
G36*
X34530Y45748D02*
X34435Y45736D01*
X34346Y45699D01*
X34269Y45641D01*
X34211Y45564D01*
X34174Y45475D01*
X34162Y45380D01*
X34174Y45285D01*
X34211Y45196D01*
X34269Y45119D01*
X34346Y45061D01*
X34435Y45024D01*
X34530Y45012D01*
X34625Y45024D01*
X34714Y45061D01*
X34791Y45119D01*
X34849Y45196D01*
X34886Y45285D01*
X34898Y45380D01*
X34886Y45475D01*
X34849Y45564D01*
X34791Y45641D01*
X34714Y45699D01*
X34625Y45736D01*
X34530Y45748D01*
D02*
G37*
G36*
X13680Y46114D02*
X13614Y46107D01*
X13502Y46073D01*
X13399Y46018D01*
X13309Y45944D01*
X13235Y45854D01*
X13180Y45751D01*
X13146Y45640D01*
X13140Y45574D01*
X13680D01*
Y46114D01*
D02*
G37*
G36*
X15748D02*
Y45574D01*
X16289D01*
X16282Y45640D01*
X16248Y45751D01*
X16193Y45854D01*
X16119Y45944D01*
X16029Y46018D01*
X15926Y46073D01*
X15815Y46107D01*
X15748Y46114D01*
D02*
G37*
G36*
X15648D02*
X15582Y46107D01*
X15471Y46073D01*
X15368Y46018D01*
X15278Y45944D01*
X15204Y45854D01*
X15149Y45751D01*
X15115Y45640D01*
X15108Y45574D01*
X15648D01*
Y46114D01*
D02*
G37*
G36*
X13780D02*
Y45574D01*
X14320D01*
X14314Y45640D01*
X14280Y45751D01*
X14225Y45854D01*
X14151Y45944D01*
X14061Y46018D01*
X13958Y46073D01*
X13846Y46107D01*
X13780Y46114D01*
D02*
G37*
G36*
X13680Y45474D02*
X13140D01*
X13146Y45408D01*
X13180Y45296D01*
X13235Y45193D01*
X13309Y45103D01*
X13399Y45029D01*
X13502Y44974D01*
X13614Y44940D01*
X13680Y44934D01*
Y45474D01*
D02*
G37*
G36*
X15602Y44836D02*
X14764D01*
Y44196D01*
X15602D01*
Y44836D01*
D02*
G37*
G36*
X14664D02*
X13827D01*
Y44196D01*
X14664D01*
Y44836D01*
D02*
G37*
G36*
X14320Y45474D02*
X13780D01*
Y44934D01*
X13846Y44940D01*
X13958Y44974D01*
X14061Y45029D01*
X14151Y45103D01*
X14225Y45193D01*
X14280Y45296D01*
X14314Y45408D01*
X14320Y45474D01*
D02*
G37*
G36*
X27183Y45786D02*
X26848D01*
Y45618D01*
X27183D01*
Y45786D01*
D02*
G37*
G36*
X16289Y45474D02*
X15748D01*
Y44934D01*
X15815Y44940D01*
X15926Y44974D01*
X16029Y45029D01*
X16119Y45103D01*
X16193Y45193D01*
X16248Y45296D01*
X16282Y45408D01*
X16289Y45474D01*
D02*
G37*
G36*
X15648D02*
X15108D01*
X15115Y45408D01*
X15149Y45296D01*
X15204Y45193D01*
X15278Y45103D01*
X15368Y45029D01*
X15471Y44974D01*
X15582Y44940D01*
X15648Y44934D01*
Y45474D01*
D02*
G37*
G36*
X23277Y42880D02*
X22819D01*
X22827Y42837D01*
X22880Y42759D01*
X22958Y42706D01*
X23051Y42688D01*
X23277D01*
Y42880D01*
D02*
G37*
G36*
X27183Y46054D02*
X26848D01*
Y45886D01*
X27183D01*
Y46054D01*
D02*
G37*
G36*
X27619D02*
X27283D01*
Y45886D01*
X27619D01*
Y46054D01*
D02*
G37*
G36*
X15556Y41157D02*
Y40930D01*
X15763D01*
Y41157D01*
X15556D01*
D02*
G37*
G36*
X24553Y45980D02*
X24346D01*
Y45753D01*
X24553D01*
Y45980D01*
D02*
G37*
G36*
X26753Y45904D02*
X26526D01*
Y45697D01*
X26753D01*
Y45904D01*
D02*
G37*
G36*
X42983Y42477D02*
X42528D01*
Y41983D01*
X42664D01*
X42676Y41964D01*
X42847Y41794D01*
X42883Y41769D01*
X42926Y41761D01*
X42926Y41761D01*
X43061D01*
Y41330D01*
X43594D01*
Y42415D01*
X43061D01*
X43061Y42415D01*
Y42415D01*
X42983Y42421D01*
Y42477D01*
D02*
G37*
G36*
X32983Y41480D02*
X32776D01*
Y41253D01*
X32983D01*
Y41480D01*
D02*
G37*
G36*
X24150Y40215D02*
X24060Y40197D01*
X23984Y40146D01*
X23980Y40140D01*
X23900D01*
X23896Y40146D01*
X23820Y40197D01*
X23730Y40215D01*
X23640Y40197D01*
X23564Y40146D01*
X23513Y40070D01*
X23495Y39980D01*
X23503Y39944D01*
X23441Y39872D01*
X23236D01*
X23236Y39872D01*
X23193Y39864D01*
X23156Y39839D01*
X23156Y39839D01*
X22651Y39334D01*
X22627Y39297D01*
X22618Y39255D01*
X22618Y39255D01*
Y38862D01*
X22489Y38733D01*
X22173D01*
Y38278D01*
X22667D01*
Y38594D01*
X22765Y38692D01*
X22770Y38695D01*
X22871Y38695D01*
X22876Y38692D01*
X22973Y38594D01*
Y38278D01*
X23467D01*
Y38733D01*
X23151D01*
X23022Y38862D01*
Y39134D01*
X23357Y39468D01*
X23754D01*
X23754Y39468D01*
X23797Y39476D01*
X23834Y39501D01*
X24090Y39757D01*
X24150Y39745D01*
X24240Y39763D01*
X24316Y39814D01*
X24367Y39890D01*
X24385Y39980D01*
X24367Y40070D01*
X24316Y40146D01*
X24240Y40197D01*
X24150Y40215D01*
D02*
G37*
G36*
X24346Y46307D02*
Y46080D01*
X24553D01*
Y46307D01*
X24346D01*
D02*
G37*
G36*
X25280Y40254D02*
X25053D01*
Y40047D01*
X25280D01*
Y40254D01*
D02*
G37*
G36*
X34895Y46745D02*
X34165D01*
Y46015D01*
X34895D01*
Y46745D01*
D02*
G37*
G36*
X22550Y41643D02*
X21190D01*
X21139Y41632D01*
X21096Y41604D01*
X20036Y40544D01*
X20008Y40501D01*
X19997Y40450D01*
Y38850D01*
X20008Y38799D01*
X20036Y38756D01*
X20706Y38086D01*
X20748Y38058D01*
Y37834D01*
X20902D01*
Y37660D01*
X20912Y37609D01*
X20941Y37566D01*
X21012Y37495D01*
Y37277D01*
X20917D01*
Y37163D01*
X20780D01*
X20724Y37219D01*
X20681Y37248D01*
X20666Y37251D01*
Y37994D01*
X19994D01*
Y37361D01*
X19914Y37328D01*
X19785Y37458D01*
Y38080D01*
X19251D01*
Y36995D01*
X19785D01*
X19785Y36995D01*
Y36995D01*
X19865Y37012D01*
X19879Y37003D01*
X19930Y36993D01*
X20531D01*
X20554Y36962D01*
X20514Y36882D01*
X20380D01*
Y36409D01*
X20696D01*
Y36822D01*
X20721Y36888D01*
X20770Y36897D01*
X20917D01*
Y36783D01*
X21012D01*
Y36677D01*
X20917D01*
Y36183D01*
X21372D01*
Y36677D01*
X21341D01*
X21308Y36757D01*
X21334Y36783D01*
X21358D01*
X21371Y36783D01*
X21438Y36753D01*
X21438D01*
X21440Y36753D01*
X21458D01*
X21468Y36677D01*
X21468Y36673D01*
Y36183D01*
X21923D01*
Y36184D01*
X21997Y36214D01*
X22098Y36114D01*
Y35700D01*
X22040D01*
Y34620D01*
X23250D01*
Y34590D01*
X23400D01*
Y35160D01*
Y35730D01*
X23250D01*
Y35700D01*
X23045D01*
X23012Y35780D01*
X23273Y36041D01*
X23298Y36078D01*
X23300Y36091D01*
X23382D01*
Y36683D01*
X23306D01*
Y37688D01*
X23324Y37714D01*
X23326Y37727D01*
X23467D01*
Y38182D01*
X22973D01*
Y37727D01*
X23048D01*
X23066Y37668D01*
X23015Y37599D01*
X23002D01*
X22870D01*
Y37273D01*
Y36947D01*
X23002D01*
X23038Y36947D01*
X23082Y36885D01*
X23082Y36885D01*
Y36683D01*
X23006D01*
Y36091D01*
X22751Y35836D01*
X22726Y35799D01*
X22641Y35778D01*
X22632Y35781D01*
Y35971D01*
X22632Y36012D01*
X22634Y36091D01*
X22634Y36091D01*
D01*
X22634D01*
X22634Y36122D01*
Y36683D01*
X22558D01*
Y36885D01*
X22602Y36947D01*
X22638Y36947D01*
X22770D01*
Y37273D01*
Y37599D01*
X22638D01*
X22625Y37599D01*
X22575Y37668D01*
X22593Y37727D01*
X22593Y37727D01*
X22667D01*
Y38182D01*
X22173D01*
Y37727D01*
X22314D01*
X22317Y37714D01*
X22334Y37688D01*
Y36683D01*
X22258D01*
Y36375D01*
X22184Y36345D01*
X22019Y36509D01*
X21983Y36534D01*
X21940Y36542D01*
X21923Y36620D01*
Y36673D01*
X21923Y36677D01*
X21934Y36753D01*
X21953D01*
Y36980D01*
X21696D01*
Y37030D01*
X21646D01*
Y37307D01*
X21440D01*
X21438Y37307D01*
X21438D01*
X21371Y37277D01*
X21358Y37277D01*
X21277D01*
Y37550D01*
X21267Y37601D01*
X21238Y37644D01*
X21167Y37715D01*
Y37834D01*
X21309D01*
Y37804D01*
X21575D01*
Y38180D01*
Y38556D01*
X21309D01*
Y38526D01*
X21167D01*
Y38784D01*
X21309D01*
Y38754D01*
X21575D01*
Y39130D01*
Y39506D01*
X21309D01*
Y39476D01*
X20748D01*
Y38784D01*
X20902D01*
Y38526D01*
X20748D01*
Y38524D01*
X20674Y38493D01*
X20263Y38905D01*
Y40395D01*
X21245Y41377D01*
X22495D01*
X22813Y41059D01*
X22805Y41020D01*
X22823Y40930D01*
X22874Y40854D01*
X22950Y40803D01*
X23040Y40785D01*
X23130Y40803D01*
X23206Y40854D01*
X23257Y40930D01*
X23275Y41020D01*
X23257Y41110D01*
X23206Y41186D01*
X23130Y41237D01*
X23040Y41255D01*
X23001Y41247D01*
X22644Y41604D01*
X22601Y41632D01*
X22550Y41643D01*
D02*
G37*
G36*
X15763Y40830D02*
X15556D01*
Y40603D01*
X15763D01*
Y40830D01*
D02*
G37*
G36*
X15248Y41157D02*
X15248D01*
X15181Y41127D01*
X15168Y41127D01*
X14727D01*
Y40633D01*
X14842D01*
Y40472D01*
X14836Y40465D01*
X14830Y40456D01*
X14648D01*
Y39804D01*
X15182D01*
Y40456D01*
X15067D01*
Y40576D01*
X15123Y40633D01*
X15168D01*
X15181Y40633D01*
X15248Y40603D01*
X15248D01*
X15249Y40603D01*
X15456D01*
Y40880D01*
Y41157D01*
X15249D01*
X15248Y41157D01*
D02*
G37*
G36*
X40963Y42530D02*
X40756D01*
Y42303D01*
X40963D01*
Y42530D01*
D02*
G37*
G36*
X38904D02*
X38697D01*
Y42303D01*
X38904D01*
Y42530D01*
D02*
G37*
G36*
X16289Y42718D02*
X15748D01*
Y42178D01*
X15815Y42184D01*
X15926Y42218D01*
X16029Y42273D01*
X16119Y42347D01*
X16193Y42437D01*
X16248Y42540D01*
X16282Y42652D01*
X16289Y42718D01*
D02*
G37*
G36*
X28396Y42630D02*
X28070D01*
Y42363D01*
X28396D01*
Y42630D01*
D02*
G37*
G36*
X29908Y42819D02*
X29572D01*
Y42651D01*
X29908D01*
Y42819D01*
D02*
G37*
G36*
X28970Y42649D02*
X28743D01*
Y42442D01*
X28970D01*
Y42649D01*
D02*
G37*
G36*
X23202Y42407D02*
X23202D01*
X23201Y42407D01*
X22995D01*
Y42130D01*
Y41853D01*
X23201D01*
X23202Y41853D01*
X23202D01*
X23270Y41883D01*
X23282Y41883D01*
X23559D01*
X23717Y41724D01*
X23714Y41696D01*
X23663Y41620D01*
X23645Y41530D01*
X23663Y41440D01*
X23714Y41364D01*
X23790Y41313D01*
X23880Y41295D01*
X23970Y41313D01*
X24046Y41364D01*
X24097Y41440D01*
X24115Y41530D01*
X24097Y41620D01*
X24046Y41696D01*
X23989Y41733D01*
X23984Y41763D01*
X23959Y41799D01*
X23959Y41799D01*
X23950Y41809D01*
X23980Y41883D01*
X24272D01*
Y42377D01*
X23817D01*
Y42242D01*
X23723D01*
Y42377D01*
X23282D01*
X23270Y42377D01*
X23202Y42407D01*
D02*
G37*
G36*
X39819Y42192D02*
X39227D01*
Y41816D01*
X39819D01*
Y42192D01*
D02*
G37*
G36*
X38157Y41963D02*
X37930D01*
Y41756D01*
X38157D01*
Y41963D01*
D02*
G37*
G36*
X37830D02*
X37603D01*
Y41756D01*
X37830D01*
Y41963D01*
D02*
G37*
G36*
X26426Y45904D02*
X26199D01*
Y45697D01*
X26426D01*
Y45904D01*
D02*
G37*
G36*
X15648Y42718D02*
X15108D01*
X15115Y42652D01*
X15149Y42540D01*
X15204Y42437D01*
X15278Y42347D01*
X15368Y42273D01*
X15471Y42218D01*
X15582Y42184D01*
X15648Y42178D01*
Y42718D01*
D02*
G37*
G36*
X14320D02*
X13780D01*
Y42178D01*
X13846Y42184D01*
X13958Y42218D01*
X14061Y42273D01*
X14151Y42347D01*
X14225Y42437D01*
X14280Y42540D01*
X14314Y42652D01*
X14320Y42718D01*
D02*
G37*
G36*
X13680D02*
X13140D01*
X13146Y42652D01*
X13180Y42540D01*
X13235Y42437D01*
X13309Y42347D01*
X13399Y42273D01*
X13502Y42218D01*
X13614Y42184D01*
X13680Y42178D01*
Y42718D01*
D02*
G37*
%LPD*%
D10*
X26480Y42106D02*
D03*
Y41554D02*
D03*
X40480Y46154D02*
D03*
Y46706D02*
D03*
Y41354D02*
D03*
Y41906D02*
D03*
Y36354D02*
D03*
Y36906D02*
D03*
X47080Y32954D02*
D03*
Y33506D02*
D03*
X47076Y37542D02*
D03*
Y38093D02*
D03*
X37880Y36906D02*
D03*
Y36354D02*
D03*
Y41706D02*
D03*
Y41154D02*
D03*
X37880Y46706D02*
D03*
Y46154D02*
D03*
X27030Y43206D02*
D03*
Y42654D02*
D03*
X47130Y44006D02*
D03*
Y43454D02*
D03*
X25930Y40304D02*
D03*
Y40856D02*
D03*
X25330D02*
D03*
Y40304D02*
D03*
X25220Y37554D02*
D03*
Y38106D02*
D03*
X25820Y37554D02*
D03*
Y38106D02*
D03*
X26630Y36404D02*
D03*
Y36956D02*
D03*
X32220Y40706D02*
D03*
Y40154D02*
D03*
X22420Y37954D02*
D03*
Y38506D02*
D03*
X26420Y44506D02*
D03*
Y43954D02*
D03*
X23220Y37954D02*
D03*
Y38506D02*
D03*
X22370Y42354D02*
D03*
Y42906D02*
D03*
X47230Y47306D02*
D03*
Y46754D02*
D03*
X22370Y45006D02*
D03*
Y44454D02*
D03*
X29020Y43250D02*
D03*
Y42699D02*
D03*
X26420Y42654D02*
D03*
Y43206D02*
D03*
X26476Y46506D02*
D03*
Y45954D02*
D03*
X44030Y42454D02*
D03*
Y43006D02*
D03*
Y37454D02*
D03*
Y38006D02*
D03*
Y33454D02*
D03*
Y34006D02*
D03*
D11*
X39523Y46056D02*
D03*
Y46804D02*
D03*
X38637Y46430D02*
D03*
X39523Y41256D02*
D03*
Y42004D02*
D03*
X38637Y41630D02*
D03*
X39523Y36256D02*
D03*
Y37004D02*
D03*
X38637Y36630D02*
D03*
X28977Y44949D02*
D03*
Y44201D02*
D03*
X29863Y44575D02*
D03*
X27377Y44949D02*
D03*
Y44201D02*
D03*
X28263Y44575D02*
D03*
D12*
X38237Y40380D02*
D03*
Y39880D02*
D03*
Y39380D02*
D03*
Y38880D02*
D03*
X40323Y40380D02*
D03*
Y39880D02*
D03*
Y39380D02*
D03*
Y38880D02*
D03*
X38237Y45380D02*
D03*
Y44880D02*
D03*
Y44380D02*
D03*
Y43880D02*
D03*
X40323Y45380D02*
D03*
Y44880D02*
D03*
Y44380D02*
D03*
Y43880D02*
D03*
X38237Y35580D02*
D03*
Y35080D02*
D03*
Y34580D02*
D03*
Y34080D02*
D03*
X40323Y35580D02*
D03*
Y35080D02*
D03*
Y34580D02*
D03*
Y34080D02*
D03*
X23327Y44430D02*
D03*
Y43930D02*
D03*
Y43430D02*
D03*
Y42930D02*
D03*
X25413Y44430D02*
D03*
Y43930D02*
D03*
Y43430D02*
D03*
Y42930D02*
D03*
D13*
X39004Y37630D02*
D03*
X39556D02*
D03*
X39556Y33430D02*
D03*
X39004D02*
D03*
X37754Y42608D02*
D03*
X38306D02*
D03*
X39004Y32830D02*
D03*
X39556D02*
D03*
X37804Y37630D02*
D03*
X38356D02*
D03*
X37804Y32830D02*
D03*
X38356D02*
D03*
X40204Y32830D02*
D03*
X40756D02*
D03*
X35954Y37630D02*
D03*
X36506D02*
D03*
X35954Y38530D02*
D03*
X36506D02*
D03*
X36006Y43380D02*
D03*
X35454D02*
D03*
X42204Y37430D02*
D03*
X42756D02*
D03*
X21145Y37030D02*
D03*
X21696D02*
D03*
X24496Y36030D02*
D03*
X23945D02*
D03*
X38954Y42580D02*
D03*
X39506D02*
D03*
X39506Y43180D02*
D03*
X38954D02*
D03*
X39556Y38230D02*
D03*
X39004D02*
D03*
X26510Y34930D02*
D03*
X27061D02*
D03*
X29461D02*
D03*
X28910D02*
D03*
X24296Y46030D02*
D03*
X23745D02*
D03*
X30661Y34930D02*
D03*
X30110D02*
D03*
X21145Y36430D02*
D03*
X21696D02*
D03*
X25345Y37030D02*
D03*
X25896D02*
D03*
X25345Y36430D02*
D03*
X25896D02*
D03*
X21845Y43430D02*
D03*
X22396D02*
D03*
Y43930D02*
D03*
X21845D02*
D03*
X23945Y36630D02*
D03*
X24496D02*
D03*
X30545Y44175D02*
D03*
X31096D02*
D03*
X24596Y42130D02*
D03*
X24045D02*
D03*
X25245D02*
D03*
X25796D02*
D03*
X31745Y44175D02*
D03*
X32296D02*
D03*
X23646Y45180D02*
D03*
X23095D02*
D03*
X23496Y42130D02*
D03*
X22945D02*
D03*
X24746Y45180D02*
D03*
X24195D02*
D03*
X42756Y47030D02*
D03*
X42204D02*
D03*
X42756Y42230D02*
D03*
X42204D02*
D03*
X38314Y43180D02*
D03*
X37763D02*
D03*
X40706D02*
D03*
X40154D02*
D03*
X40154Y42580D02*
D03*
X40706D02*
D03*
X38364Y38230D02*
D03*
X37813D02*
D03*
X40756D02*
D03*
X40204D02*
D03*
X38356Y33430D02*
D03*
X37804D02*
D03*
X40756D02*
D03*
X40204D02*
D03*
X40204Y37630D02*
D03*
X40756D02*
D03*
X27710Y34930D02*
D03*
X28261D02*
D03*
X23096Y46030D02*
D03*
X22545D02*
D03*
X25295Y45180D02*
D03*
X25846D02*
D03*
X32726Y41530D02*
D03*
X32174D02*
D03*
X15506Y40880D02*
D03*
X14954D02*
D03*
D14*
X45580Y36207D02*
D03*
Y41007D02*
D03*
Y45807D02*
D03*
X42430Y39353D02*
D03*
X18630Y45357D02*
D03*
X18620Y33603D02*
D03*
X42430Y34553D02*
D03*
Y44153D02*
D03*
X18620Y40057D02*
D03*
D15*
X46478Y33687D02*
D03*
X44682D02*
D03*
X46478Y38487D02*
D03*
X44682D02*
D03*
X46478Y43287D02*
D03*
X44682D02*
D03*
X41532Y41873D02*
D03*
X43328D02*
D03*
X19528Y42837D02*
D03*
X17732D02*
D03*
X17723Y36123D02*
D03*
X19518D02*
D03*
X41532Y37073D02*
D03*
X43328D02*
D03*
X41532Y46673D02*
D03*
X43328D02*
D03*
X19518Y37537D02*
D03*
X17723D02*
D03*
D16*
X26430Y33230D02*
D03*
X30170D02*
D03*
D17*
X21625Y38180D02*
D03*
X21035D02*
D03*
X29915Y45775D02*
D03*
X29325D02*
D03*
X21035Y39130D02*
D03*
X21625D02*
D03*
D18*
X28020Y42680D02*
D03*
Y43270D02*
D03*
X16730Y37335D02*
D03*
Y37925D02*
D03*
X18530Y35835D02*
D03*
Y36425D02*
D03*
X24420Y38135D02*
D03*
Y38725D02*
D03*
D19*
X46845Y47930D02*
D03*
X46215D02*
D03*
X30995Y41540D02*
D03*
X31625D02*
D03*
X15545Y40130D02*
D03*
X14915D02*
D03*
D20*
X22446Y36387D02*
D03*
X23194D02*
D03*
X22820Y37273D02*
D03*
D21*
X14714Y36002D02*
D03*
Y44146D02*
D03*
X48980Y44158D02*
D03*
Y40158D02*
D03*
Y36158D02*
D03*
D22*
X31683Y45430D02*
D03*
X30758Y45056D02*
D03*
Y45804D02*
D03*
X29958Y43349D02*
D03*
Y42601D02*
D03*
X30883Y42975D02*
D03*
X31958Y43349D02*
D03*
Y42601D02*
D03*
X32883Y42975D02*
D03*
X27233Y46584D02*
D03*
Y45836D02*
D03*
X28158Y46210D02*
D03*
D23*
X20830Y42388D02*
D03*
Y44672D02*
D03*
D24*
X26815Y40506D02*
D03*
Y40310D02*
D03*
Y40113D02*
D03*
Y39916D02*
D03*
Y39325D02*
D03*
Y39128D02*
D03*
Y38932D02*
D03*
Y38735D02*
D03*
Y38538D02*
D03*
Y38341D02*
D03*
Y38144D02*
D03*
Y37947D02*
D03*
Y37750D02*
D03*
Y37554D02*
D03*
X31225D02*
D03*
Y37750D02*
D03*
Y37947D02*
D03*
Y38144D02*
D03*
Y38341D02*
D03*
Y38538D02*
D03*
Y38735D02*
D03*
Y38932D02*
D03*
Y39128D02*
D03*
Y39325D02*
D03*
Y39522D02*
D03*
Y39719D02*
D03*
Y39916D02*
D03*
Y40113D02*
D03*
Y40310D02*
D03*
Y40506D02*
D03*
X26815Y39719D02*
D03*
Y39522D02*
D03*
D25*
X27544Y36825D02*
D03*
X27741D02*
D03*
X27937D02*
D03*
X28134D02*
D03*
X28331D02*
D03*
X28528D02*
D03*
X28725D02*
D03*
X28922D02*
D03*
X29119D02*
D03*
X29315D02*
D03*
X29512D02*
D03*
X29709D02*
D03*
X29906D02*
D03*
X30103D02*
D03*
X30300D02*
D03*
X30497D02*
D03*
Y41235D02*
D03*
X30300D02*
D03*
X30103D02*
D03*
X29906D02*
D03*
X29709D02*
D03*
X29512D02*
D03*
X29315D02*
D03*
X29119D02*
D03*
X28922D02*
D03*
X28725D02*
D03*
X28528D02*
D03*
X28331D02*
D03*
X28134D02*
D03*
X27937D02*
D03*
X27741D02*
D03*
X27544D02*
D03*
D26*
X20330Y37501D02*
D03*
Y36359D02*
D03*
D27*
X20930Y46330D02*
D03*
D28*
X22520Y35160D02*
D03*
X22830D02*
D03*
X22210D02*
D03*
X23140D02*
D03*
X23450D02*
D03*
D29*
X21080Y35140D02*
D03*
X24580Y32970D02*
D03*
X21080D02*
D03*
X24580Y35140D02*
D03*
D30*
X14915Y40130D02*
Y40386D01*
X14954Y40425D01*
Y40880D01*
X15545Y40130D02*
X17208D01*
X46845Y47513D02*
X47053Y47306D01*
X46845Y47513D02*
Y47930D01*
X47053Y47306D02*
X47230D01*
X20130Y36445D02*
X20230Y36345D01*
X35748Y37980D02*
X37080D01*
X35310Y38418D02*
X35748Y37980D01*
X35310Y38418D02*
Y38789D01*
X35125Y38975D02*
X35310Y38789D01*
X35580Y38530D02*
X35954D01*
X34935Y37530D02*
Y39548D01*
X35110Y37045D02*
Y38960D01*
X34975Y36910D02*
X35110Y37045D01*
X34491Y37085D02*
X34935Y37530D01*
X34189Y37085D02*
X34491D01*
X34125Y37021D02*
X34189Y37085D01*
X34975Y34662D02*
Y36910D01*
X35110Y38960D02*
X35125Y38975D01*
X32684Y39128D02*
X33550Y38262D01*
Y35582D02*
Y38262D01*
X32581Y38932D02*
X33400Y38112D01*
Y37668D02*
Y38112D01*
X33210Y37478D02*
X33400Y37668D01*
X33330Y38730D02*
X33730D01*
X33210Y34500D02*
Y37478D01*
X32770Y34970D02*
Y38530D01*
X32042Y38538D02*
X32500Y38080D01*
Y34830D02*
Y38080D01*
X32220Y34490D02*
Y38121D01*
X31770Y33270D02*
Y37857D01*
X36238Y38307D02*
X36315Y38230D01*
X36238Y38307D02*
Y38737D01*
X35595Y39380D02*
X36238Y38737D01*
X36315Y38230D02*
X37813D01*
X37448Y39380D02*
X38237D01*
X37060Y38992D02*
X37448Y39380D01*
X37060Y38898D02*
Y38992D01*
X36692Y38530D02*
X37060Y38898D01*
X36506Y38530D02*
X36692D01*
X35125Y36085D02*
Y36848D01*
X35362Y37085D01*
X35125Y36085D02*
X35530Y35680D01*
X34125Y35085D02*
Y37021D01*
X35362Y37085D02*
X35900D01*
X36222Y37407D01*
Y37504D01*
X36348Y37630D01*
X34975Y34662D02*
X35362Y34275D01*
X34125Y35085D02*
X34530Y34680D01*
X36348Y37630D02*
X36506D01*
X35530Y36680D02*
X36530D01*
X35530Y35680D02*
X36530D01*
X38261Y36230D02*
X38355D01*
X37713Y35683D02*
X38261Y36230D01*
X38355D02*
X38637Y36512D01*
X36980Y36680D02*
X37306Y36354D01*
X36530Y36680D02*
X36980D01*
X37306Y36354D02*
X37880D01*
X36530Y40363D02*
Y40380D01*
Y40363D02*
X37513Y39380D01*
X37563Y40047D02*
X37730Y39880D01*
X37563Y40047D02*
Y40680D01*
X37713Y40513D02*
X38087Y40887D01*
X37713Y40247D02*
Y40513D01*
Y40247D02*
X37832Y40128D01*
X38615D01*
X38087Y40887D02*
X38103D01*
X38637Y41421D01*
X37563Y40680D02*
X37880Y40997D01*
X37156Y41154D02*
X37880D01*
X38637Y41421D02*
Y41630D01*
X36108Y42608D02*
X37754D01*
X35125Y41625D02*
X36108Y42608D01*
X37080Y37980D02*
X37430Y37630D01*
X17106Y41643D02*
X17208D01*
X31225Y39325D02*
X32735D01*
X33330Y38730D01*
X32553Y39719D02*
X32974Y39298D01*
X31225Y39719D02*
X32553D01*
X33592Y39298D02*
X34009Y39715D01*
X32974Y39298D02*
X33592D01*
X32604Y39880D02*
X33036Y39448D01*
X31906Y39880D02*
X32604D01*
X33036Y39448D02*
X33530D01*
X32565Y38735D02*
X32770Y38530D01*
X31225Y38735D02*
X32565D01*
X31225Y38932D02*
X32581D01*
X31225Y39128D02*
X32684D01*
X35125Y44975D02*
X35530Y45380D01*
X35125Y44212D02*
Y44975D01*
Y44212D02*
X35454Y43882D01*
Y43380D02*
Y43882D01*
X17732Y42368D02*
X17870Y42230D01*
X17732Y42368D02*
Y42837D01*
X17870Y42230D02*
X18732D01*
X18670Y47280D02*
X18820D01*
X20665Y42230D02*
X20689Y42255D01*
X20730Y42388D02*
Y42980D01*
X20720Y42286D02*
Y42388D01*
X20830D02*
X21788D01*
X21830Y42430D01*
X24390Y42928D02*
Y43338D01*
X24540Y43170D02*
X25230Y42480D01*
X24540Y43170D02*
Y43600D01*
X33530Y39448D02*
X33947Y39865D01*
X33530Y39448D02*
X33612Y39530D01*
X34009Y39715D02*
X34195D01*
X34530Y39380D01*
X32654Y40154D02*
X32830Y40330D01*
X32220Y40154D02*
X32654D01*
X33330Y39830D02*
X34030Y40530D01*
Y41930D01*
X33947Y39865D02*
X34618D01*
X34935Y39548D01*
X33630Y40830D02*
Y41330D01*
X33054Y41906D02*
X33630Y41330D01*
X30377Y41906D02*
X33054D01*
X30233Y42056D02*
X33338D01*
X34110Y42828D01*
X29906Y41729D02*
X30233Y42056D01*
X30174Y41703D02*
X30377Y41906D01*
X32446Y42530D02*
X33430D01*
X32289Y42373D02*
X32446Y42530D01*
X29368Y42373D02*
X32289D01*
X31627Y42829D02*
X32289D01*
X31360Y44255D02*
Y45010D01*
X31280Y44175D02*
X31360Y44255D01*
X31096Y44175D02*
X31280D01*
X31225Y38538D02*
X32042D01*
X32000Y38341D02*
X32220Y38121D01*
X31225Y38341D02*
X32000D01*
X31680Y37947D02*
X31770Y37857D01*
X31225Y37947D02*
X31680D01*
X31870Y39916D02*
X31906Y39880D01*
X31225Y39916D02*
X31870D01*
X34110Y42828D02*
Y43642D01*
X31793Y40154D02*
X32220D01*
X31638Y40310D02*
X31793Y40154D01*
X30213Y40113D02*
X31225D01*
X30530Y38030D02*
Y39220D01*
X31225Y36847D02*
Y37554D01*
X30158Y35780D02*
X31225Y36847D01*
X34030Y41930D02*
X34935Y42835D01*
Y44548D01*
X34698Y44785D02*
X34935Y44548D01*
X34362Y44785D02*
X34698D01*
X33856Y44279D02*
X34362Y44785D01*
X33856Y43389D02*
Y44279D01*
X33214Y42747D02*
X33856Y43389D01*
X32371Y42747D02*
X33214D01*
X32510Y42975D02*
X32883D01*
X32510D02*
Y44175D01*
X32296D02*
X32510D01*
X37130Y43180D02*
X37763D01*
X36530Y43780D02*
X37130Y43180D01*
X37530Y44380D02*
X38237D01*
X36530Y45380D02*
X37530Y44380D01*
X32289Y42829D02*
X32371Y42747D01*
X31544D02*
X31627Y42829D01*
X30552Y42747D02*
X31544D01*
X30487Y42811D02*
X30552Y42747D01*
X30487Y42811D02*
Y43105D01*
X30243Y43349D02*
X30487Y43105D01*
X29958Y43349D02*
X30243D01*
X31230Y42975D02*
X31604Y43349D01*
X30883Y42975D02*
X31230D01*
X31604Y43349D02*
X31958D01*
X31096Y43188D02*
Y44175D01*
X30883Y42975D02*
X31096Y43188D01*
X28725Y41729D02*
X29368Y42373D01*
X34300Y43800D02*
X34530Y44030D01*
X34268Y43800D02*
X34300D01*
X34110Y43642D02*
X34268Y43800D01*
X34530Y44030D02*
Y44380D01*
X35125Y38975D02*
Y41625D01*
X30000Y44575D02*
X30400Y44175D01*
X30230Y45056D02*
X30758D01*
X30720Y39522D02*
X31225D01*
X30440Y39802D02*
X30720Y39522D01*
X30040Y39710D02*
X30530Y39220D01*
X30040Y39710D02*
Y39940D01*
X30213Y40113D01*
X29560Y40194D02*
Y40730D01*
X29076Y39710D02*
X29560Y40194D01*
X28560Y39710D02*
X29076D01*
X28270Y40000D02*
X28560Y39710D01*
X30690Y40710D02*
X30880Y40900D01*
X29799Y40710D02*
X30690D01*
X28090Y40000D02*
X28270D01*
X27770Y39680D02*
X28090Y40000D01*
X27770Y38200D02*
Y39680D01*
X27741Y40774D02*
Y41235D01*
X27677Y40711D02*
X27741Y40774D01*
X27473Y40711D02*
X27677D01*
X27260Y40924D02*
X27473Y40711D01*
X27260Y40924D02*
Y41132D01*
X26980Y41412D02*
X27260Y41132D01*
X28540Y40340D02*
X28740Y40140D01*
X28540Y40340D02*
Y40921D01*
X29709Y40800D02*
X29799Y40710D01*
X29709Y40800D02*
Y41235D01*
X29130Y40460D02*
X29290D01*
X29512Y40778D02*
X29560Y40730D01*
X28922Y40668D02*
X29130Y40460D01*
X28922Y40668D02*
Y41235D01*
X28260Y40470D02*
X28331Y40541D01*
X29119Y36825D02*
Y39115D01*
X28040Y39560D02*
X28700Y38900D01*
X30880Y40900D02*
X31140D01*
X28725Y41235D02*
Y41729D01*
X27544Y41744D02*
X27830Y42030D01*
X27544Y41235D02*
Y41744D01*
X29512Y40778D02*
Y41235D01*
X21080Y32970D02*
Y35140D01*
Y32970D02*
X24580D01*
X27741Y37772D02*
X27868Y37900D01*
X27741Y36825D02*
Y37772D01*
X27868Y37900D02*
X28300D01*
X28430Y38030D01*
X27130Y37130D02*
X27435Y36825D01*
X28700Y37918D02*
Y38900D01*
X28528Y37746D02*
X28700Y37918D01*
X28528Y36825D02*
Y37746D01*
X29880Y38218D02*
Y38680D01*
Y38218D02*
X30348Y37750D01*
X31225D01*
X32500Y34830D02*
X33640Y33690D01*
X30497Y36382D02*
Y36825D01*
X30095Y35980D02*
X30497Y36382D01*
X28130Y35980D02*
X30095D01*
X28530Y35780D02*
X30158D01*
X31225Y40310D02*
X31638D01*
X30103Y41703D02*
X30174D01*
X30103Y41235D02*
Y41703D01*
X29906Y41235D02*
Y41729D01*
X30802Y41540D02*
X30995D01*
X30497Y41235D02*
X30802Y41540D01*
X44682Y37896D02*
Y38487D01*
X44377Y37591D02*
X44682Y37896D01*
X44377Y37577D02*
Y37591D01*
X44254Y37454D02*
X44377Y37577D01*
X44030Y37454D02*
X44254D01*
X43633Y38561D02*
Y40737D01*
Y38561D02*
X44030Y38163D01*
Y38006D02*
Y38163D01*
Y42454D02*
X44322D01*
X44682Y42815D01*
Y43287D01*
X44030Y43006D02*
Y43163D01*
X43633Y43561D02*
X44030Y43163D01*
X43633Y43561D02*
Y45537D01*
X26290Y38106D02*
X26329Y38144D01*
X25820Y38106D02*
X26290D01*
X25820Y37554D02*
X26310D01*
X26329Y38144D02*
X26810D01*
X26310Y37554D02*
X26311Y37554D01*
X26815D01*
X23754Y39580D02*
X24150Y39976D01*
X23310Y39580D02*
X23754D01*
X22910Y39180D02*
X23310Y39580D01*
X24150Y39976D02*
Y39980D01*
X24930Y39280D02*
X24934D01*
X24949Y39719D02*
X26815D01*
X24930Y39700D02*
X24949Y39719D01*
X25176Y39522D02*
X26815D01*
X24934Y39280D02*
X25176Y39522D01*
X22910Y38816D02*
Y39180D01*
X23880Y41530D02*
Y41720D01*
X25528Y41382D02*
Y42337D01*
X23730Y39960D02*
Y39980D01*
X20730Y42980D02*
X21130Y43380D01*
X20799Y43930D02*
X21845D01*
X25036Y38106D02*
X25220D01*
X24930Y38000D02*
X25036Y38106D01*
X24930Y37280D02*
Y38000D01*
Y37280D02*
X25180Y37030D01*
X25345D01*
X41903Y35080D02*
X42430Y34553D01*
X41457Y43180D02*
X42430Y44153D01*
X41532Y37023D02*
Y37495D01*
X39280Y39481D02*
Y39580D01*
Y39481D02*
X39556Y39206D01*
X39280Y34530D02*
X39504Y34306D01*
X39556D01*
X39880Y32900D02*
Y32996D01*
X39810Y32830D02*
X39880Y32900D01*
X39556Y32830D02*
X39810D01*
X39880Y32996D02*
X40001Y33117D01*
X40137D01*
X41532Y41873D02*
Y42345D01*
X41298Y42580D02*
X41532Y42345D01*
X40706Y42580D02*
X41298D01*
X42756Y42044D02*
X42926Y41873D01*
X42756Y42044D02*
Y42230D01*
X42926Y41873D02*
X43328D01*
X38804Y42104D02*
X38954Y42254D01*
X38637Y41630D02*
Y41863D01*
X38179Y42321D02*
X38637Y41863D01*
X38103Y42321D02*
X38179D01*
X38038Y42385D02*
X38103Y42321D01*
X38038Y42385D02*
Y43403D01*
X38954Y42254D02*
Y42580D01*
X39206Y42880D02*
X39506Y42580D01*
X38650Y42880D02*
X39206D01*
X39506Y42580D02*
X40154D01*
X38650Y42880D02*
Y42993D01*
X38463Y43180D02*
X38650Y42993D01*
X37406Y46706D02*
X37880D01*
X39080Y45930D02*
X39206Y46056D01*
X39080Y45810D02*
Y45930D01*
X38650Y45380D02*
X39080Y45810D01*
X39650Y44927D02*
X39945Y44632D01*
X39650Y44927D02*
Y45545D01*
X40193Y46088D01*
X39945Y45628D02*
X40345D01*
X39800Y45483D02*
X39945Y45628D01*
X39800Y45277D02*
Y45483D01*
Y45277D02*
X39900Y45177D01*
Y45050D02*
Y45177D01*
Y45050D02*
X40120Y44830D01*
X25230Y42480D02*
X25385D01*
X25528Y42337D01*
X26180Y41830D02*
X26723D01*
X26904Y41554D02*
X26980Y41630D01*
X26480Y41554D02*
X26904D01*
X26980Y41412D02*
Y41630D01*
X26526Y41030D02*
X26815Y40740D01*
X27207Y42654D02*
X27719D01*
X26815Y40506D02*
Y40740D01*
X27719Y42654D02*
X27745Y42680D01*
X27490Y43660D02*
X27530Y43620D01*
X27745Y42680D02*
X28020D01*
X33980Y34230D02*
Y34290D01*
X33360Y34910D02*
X33980Y34290D01*
X23930Y37580D02*
X24420Y38070D01*
X37365Y32830D02*
X37530D01*
X37080Y32545D02*
X37365Y32830D01*
X27435Y36825D02*
X27544D01*
X33210Y34500D02*
X34230Y33480D01*
X32220Y34490D02*
X33230Y33480D01*
X31770Y33270D02*
X32000Y33040D01*
X33670D01*
X23220Y37757D02*
Y37954D01*
X23194Y37731D02*
X23220Y37757D01*
X23194Y36387D02*
Y37731D01*
X22446Y36387D02*
Y37731D01*
X22910Y38816D02*
X23220Y38506D01*
X23194Y36121D02*
Y36387D01*
X22830Y35757D02*
X23194Y36121D01*
X22830Y35160D02*
Y35757D01*
X22446Y36121D02*
Y36387D01*
Y36121D02*
X22520Y36047D01*
Y35160D02*
Y36047D01*
X21696Y36430D02*
X21940D01*
X22210Y36160D01*
Y35160D02*
Y36160D01*
X26430Y34299D02*
X27061Y34930D01*
X28261Y35511D02*
X28530Y35780D01*
X27710Y35560D02*
X28130Y35980D01*
X27710Y34930D02*
Y35560D01*
X33640Y33470D02*
Y33690D01*
Y33470D02*
X34080Y33030D01*
X34680D01*
X31200Y45170D02*
X31360Y45010D01*
X25620Y36530D02*
Y37280D01*
X25520Y36430D02*
X25620Y36530D01*
X27207Y42654D02*
X27210Y42657D01*
X27030Y42654D02*
X27207D01*
X34680Y33030D02*
X35230Y32480D01*
X37530Y32830D02*
Y33580D01*
X38356Y32830D02*
Y33430D01*
X36835Y34275D02*
X37530Y33580D01*
X36780Y34680D02*
X37804Y33656D01*
Y33430D02*
Y33656D01*
X40697Y34832D02*
X40850Y34679D01*
X39945Y34832D02*
X40697D01*
X39847Y34930D02*
X39945Y34832D01*
X39738Y34930D02*
X39847D01*
X39650Y35018D02*
X39738Y34930D01*
X39650Y35018D02*
Y35745D01*
X39800Y35080D02*
Y35683D01*
X39650Y35745D02*
X39883Y35978D01*
X40040Y35828D02*
X40343Y36131D01*
X39945Y35828D02*
X40040D01*
X39800Y35683D02*
X39945Y35828D01*
X39883Y35978D02*
X39978D01*
X40193Y36193D01*
Y36557D01*
X40273Y36638D01*
X40703D01*
X41226Y37161D01*
X39800Y35080D02*
X40323D01*
X38750Y33430D02*
X39004D01*
X38720Y33460D02*
X38750Y33430D01*
X38720Y33460D02*
Y34010D01*
X28261Y34930D02*
Y35511D01*
X35362Y34275D02*
X36835D01*
X35530Y34680D02*
X36530D01*
X33360Y34910D02*
Y35392D01*
X33550Y35582D01*
X37530Y32830D02*
X37804D01*
X36530Y34680D02*
X36780D01*
X37430Y37630D02*
X37804D01*
X35530Y41380D02*
X36530D01*
X35530Y40380D02*
X36530D01*
X36930Y41380D02*
X37156Y41154D01*
X36530Y41380D02*
X36930D01*
X37730Y39880D02*
X38237D01*
X37880Y40997D02*
Y41154D01*
X38306Y43180D02*
X38463D01*
X39523Y40693D02*
Y41256D01*
X39210Y40380D02*
X39523Y40693D01*
X39938Y40778D02*
X40193Y41033D01*
X39883Y40778D02*
X39938D01*
X39630Y40525D02*
X39883Y40778D01*
X39630Y39947D02*
Y40525D01*
Y39947D02*
X39949Y39628D01*
X40702D01*
X40847Y39483D01*
Y39277D02*
Y39483D01*
X40702Y39132D02*
X40847Y39277D01*
X41775Y37655D02*
X42000Y37430D01*
X41290Y37655D02*
X41775D01*
X41226Y37591D02*
X41290Y37655D01*
X41226Y37161D02*
Y37591D01*
X44080Y34106D02*
Y34684D01*
X43633Y35131D02*
X44080Y34684D01*
X40323Y39880D02*
X41618D01*
X38930Y43830D02*
Y44813D01*
X38615Y45128D02*
X38930Y44813D01*
X37782Y45128D02*
X38615D01*
X38237Y45380D02*
X38650D01*
X37670Y44880D02*
X38237D01*
X37540Y45010D02*
X37670Y44880D01*
X37503Y45954D02*
X37540Y45992D01*
X36956Y45954D02*
X37503D01*
X37540Y45010D02*
Y45992D01*
X37703Y46154D01*
X37880D01*
X36530Y35680D02*
X36723D01*
X37823Y34580D01*
X38237D01*
X37823Y35080D02*
X38237D01*
X37563Y35340D02*
X37823Y35080D01*
X37563Y35340D02*
Y35880D01*
X37713Y35477D02*
Y35683D01*
Y35477D02*
X37858Y35332D01*
X38611D01*
X37563Y35880D02*
X37880Y36197D01*
X38611Y35332D02*
X38760Y35183D01*
Y34050D02*
Y35183D01*
X37880Y36197D02*
Y36354D01*
X35595Y39380D02*
X36530D01*
X35530D02*
X35595D01*
X38615Y40128D02*
X38760Y39983D01*
X38237Y40380D02*
X39210D01*
X38088Y38517D02*
X38237Y38666D01*
X38088Y37407D02*
Y38517D01*
X38237Y38666D02*
Y38880D01*
X38088Y37407D02*
X38637Y36858D01*
X38356Y37630D02*
Y38230D01*
X36530Y43780D02*
Y44380D01*
X35530Y45380D02*
X36530D01*
X38038Y43403D02*
X38237Y43601D01*
X38337Y43830D02*
X38930D01*
Y43204D02*
Y43830D01*
X38237Y43601D02*
Y43880D01*
X39780Y44330D02*
X40423D01*
X39506Y44056D02*
X39780Y44330D01*
X39506Y43180D02*
Y44056D01*
X40706Y43180D02*
X41457D01*
X35530Y44380D02*
X36530D01*
X35530Y46380D02*
X36530D01*
X36956Y45954D01*
X37703Y45207D02*
X37782Y45128D01*
X15744Y37335D02*
X16730D01*
X15698Y37380D02*
X15744Y37335D01*
X15698Y37380D02*
X15909D01*
X45013Y47897D02*
X45485D01*
X41753Y44830D02*
X42430Y44153D01*
X43568Y45602D02*
X43633Y45537D01*
X20740Y47900D02*
X31810D01*
X31813Y47897D02*
X32730Y46980D01*
X31810Y47900D02*
X31813Y47897D01*
X43633Y35131D02*
Y35937D01*
X28898Y47385D02*
X29135Y47148D01*
X28495Y47385D02*
X28898D01*
X27693Y46584D02*
X28495Y47385D01*
X27233Y46584D02*
X27693D01*
X28230Y46070D02*
X28400Y45900D01*
X39206Y46056D02*
X39523D01*
X29135Y47002D02*
Y47148D01*
X41680Y45996D02*
X42154Y46470D01*
X41280Y45996D02*
X41680D01*
X40854Y46422D02*
X41280Y45996D01*
X40257Y46422D02*
X40854D01*
X40193Y46357D02*
X40257Y46422D01*
X40193Y46088D02*
Y46357D01*
X39945Y44632D02*
X40747D01*
X41292Y36002D02*
X43568D01*
X38306Y42785D02*
X38306Y42785D01*
X38306Y42608D02*
Y42785D01*
X38306Y42785D02*
Y43180D01*
X38758Y38880D02*
Y39272D01*
X38760Y39275D01*
Y39983D01*
X38826Y37943D02*
X39480D01*
X38513Y37630D02*
X38826Y37943D01*
X38356Y37630D02*
X38513D01*
X39480Y37943D02*
X39556Y37867D01*
Y37630D02*
Y37867D01*
X41230Y41170D02*
X41880D01*
X40778Y41622D02*
X41230Y41170D01*
X40257Y41622D02*
X40778D01*
X40021Y40628D02*
X40480Y41086D01*
X39945Y40628D02*
X40021D01*
X39800Y40483D02*
X39945Y40628D01*
X39800Y39990D02*
Y40483D01*
X43568Y40802D02*
X43633Y40737D01*
X41292Y40802D02*
X43568D01*
X41227Y40737D02*
X41292Y40802D01*
X41227Y40577D02*
Y40737D01*
X42204Y41494D02*
Y42230D01*
X41880Y41170D02*
X42204Y41494D01*
X38637Y36630D02*
Y36858D01*
Y36512D02*
Y36630D01*
X39206Y36256D02*
X39523D01*
X39080Y36130D02*
X39206Y36256D01*
X39080Y35695D02*
Y36130D01*
X38965Y35580D02*
X39080Y35695D01*
X38237Y35580D02*
X38965D01*
X38720Y34010D02*
X38760Y34050D01*
X39816Y36256D02*
X40000Y36440D01*
X39523Y36256D02*
X39816D01*
X39556Y34306D02*
X39830Y34580D01*
X39556Y33430D02*
Y34306D01*
X39830Y34580D02*
X40323D01*
X38237Y38880D02*
X38758D01*
X39556Y38230D02*
Y39206D01*
X39730Y39380D01*
X40323D01*
X38758Y38880D02*
X39004Y38633D01*
Y38230D02*
Y38633D01*
X39523Y41256D02*
Y41374D01*
X39669Y41520D01*
X39917D01*
X40303Y41906D01*
X40480D01*
X40193Y41557D02*
X40257Y41622D01*
X40193Y41033D02*
Y41557D01*
X40480Y41086D02*
Y41354D01*
X39800Y39990D02*
X39910Y39880D01*
X40323D01*
X40438Y39132D02*
X40702D01*
X40323Y39018D02*
X40438Y39132D01*
X40323Y38880D02*
Y39018D01*
X40154Y42580D02*
Y43180D01*
X38356Y33130D02*
X39433D01*
X39556Y33007D01*
Y32830D02*
Y33007D01*
X40137Y33117D02*
X40204Y33184D01*
Y33430D01*
X40756D02*
X42215D01*
X40204D02*
X40362D01*
X40480Y33312D01*
Y32948D02*
Y33312D01*
Y32948D02*
X40598Y32830D01*
X40756D01*
X41030Y40380D02*
X41227Y40577D01*
X40323Y40380D02*
X41030D01*
X40756Y38230D02*
X42215D01*
X42837Y37073D02*
X43328D01*
X42756Y37154D02*
X42837Y37073D01*
X42756Y37154D02*
Y37430D01*
X42000D02*
X42204D01*
X40204Y37630D02*
Y38230D01*
X39556Y37630D02*
X40204D01*
X40126Y36906D02*
X40480D01*
X40000Y36780D02*
X40126Y36906D01*
X40000Y36440D02*
Y36780D01*
X38650Y34080D02*
X38720Y34010D01*
X38237Y34080D02*
X38650D01*
X40850D02*
Y34679D01*
X40323Y34080D02*
X40850D01*
X40343Y36131D02*
Y36226D01*
X40472Y36354D01*
X40323Y35080D02*
X41903D01*
X43568Y36002D02*
X43633Y35937D01*
X40870Y35580D02*
X41292Y36002D01*
X40323Y35580D02*
X40870D01*
X40472Y36354D02*
X40480D01*
X44550Y33554D02*
X44682Y33687D01*
X44080Y33554D02*
X44550D01*
Y43154D02*
X44682Y43287D01*
X39523Y46056D02*
X40123Y46656D01*
X40430Y45713D02*
Y46104D01*
X40345Y45628D02*
X40430Y45713D01*
X40154Y42580D02*
X40154Y42580D01*
X40154Y42580D02*
X40154Y42580D01*
X40123Y46656D02*
X40430D01*
X41020Y45330D02*
X41292Y45602D01*
X40423Y45330D02*
X41020D01*
X42154Y46470D02*
Y46980D01*
X41292Y45602D02*
X43568D01*
X40423Y43830D02*
X40947D01*
X38930Y43204D02*
X38954Y43180D01*
X40947Y43830D02*
Y44433D01*
X40747Y44632D02*
X40947Y44433D01*
X40120Y44830D02*
X41753D01*
X42995Y47006D02*
X43328Y46673D01*
X42780Y47006D02*
X42995D01*
X28230Y46070D02*
Y46210D01*
X27370Y43780D02*
Y44201D01*
X30930Y44850D02*
Y45056D01*
X26810Y37947D02*
Y38144D01*
X25720Y37380D02*
X25820D01*
X28528Y40921D02*
X28540D01*
X18530Y39980D02*
X18620Y39890D01*
X18313Y40363D02*
X18413Y40263D01*
X17930Y40747D02*
X18013Y40663D01*
X17930Y40747D02*
X17963Y40780D01*
X18230Y40280D02*
X18313Y40363D01*
X18270Y40407D02*
X18313Y40363D01*
X18630Y40680D01*
X18513Y40163D02*
X18530Y40147D01*
X18413Y40263D02*
X18513Y40163D01*
X20730Y44672D02*
Y44722D01*
Y44672D02*
Y44722D01*
X18737Y40173D02*
X18743Y40180D01*
X18430Y40280D02*
X18630D01*
X18413Y40263D02*
X18430Y40280D01*
X18743Y40180D02*
X18893Y40030D01*
X18620Y40057D02*
X18737Y40173D01*
X18013Y40663D02*
X18270Y40407D01*
X18330Y40180D02*
X18413Y40263D01*
X18330Y40180D02*
X18530Y39980D01*
Y40147D01*
X28528Y40921D02*
X28540D01*
X25720Y37380D02*
X25820D01*
X26810Y37947D02*
Y38144D01*
X27370Y43780D02*
Y44201D01*
X28230Y46070D02*
Y46210D01*
X23496Y42104D02*
X23880Y41720D01*
X20130Y36445D02*
X20220Y36535D01*
X24420Y38070D02*
Y38135D01*
X22820Y36867D02*
Y37273D01*
X20720Y42286D02*
X20823Y42388D01*
X20830D01*
X20720D02*
X20730D01*
X20823D01*
X18520Y45680D02*
Y47130D01*
X27370Y43780D02*
X27490Y43660D01*
X25040Y42278D02*
X25245Y42130D01*
X30758Y45056D02*
X30930D01*
X21845Y43410D02*
Y43430D01*
X33670Y33040D02*
X34230Y32480D01*
X23096Y46030D02*
Y46254D01*
X22620Y46730D02*
X23096Y46254D01*
X28528Y40921D02*
Y41235D01*
X23095Y44955D02*
Y45180D01*
X23090Y44950D02*
X23095Y44955D01*
X23090Y44430D02*
X23327D01*
X27377Y44201D02*
X27490D01*
Y43460D02*
X27680Y43270D01*
X28020D01*
X23496Y42104D02*
Y42130D01*
X24810Y43430D02*
X25413D01*
X27370Y44201D02*
X27377D01*
X28158Y46210D02*
X28230D01*
X26420Y42654D02*
Y42930D01*
X29915Y45775D02*
Y46040D01*
X25345Y36430D02*
X25520D01*
X25620Y37280D02*
X25720Y37380D01*
X25820D02*
Y37554D01*
X18630Y45110D02*
Y45357D01*
X20730Y44672D02*
X20830D01*
X26810Y37947D02*
X26815D01*
X26810Y38144D02*
X26815D01*
X23096Y46030D02*
X23745D01*
X26420Y43206D02*
Y43954D01*
X23646Y45180D02*
X24195D01*
X29528Y43349D02*
X29958D01*
X29430Y43250D02*
X29528Y43349D01*
X29020Y43250D02*
X29430D01*
X24580Y32970D02*
Y35140D01*
X24496Y35624D02*
Y36030D01*
Y35624D02*
X24580Y35540D01*
Y35140D02*
Y35540D01*
X24496Y36030D02*
Y36630D01*
X26815Y37554D02*
Y37750D01*
X25220Y37554D02*
X25820D01*
X25220Y38106D02*
X25820D01*
X22396Y43430D02*
X23327D01*
X22396Y43176D02*
Y43430D01*
X22370Y43150D02*
X22396Y43176D01*
X22370Y42906D02*
Y43150D01*
X23496Y42130D02*
X24045D01*
X22370Y45006D02*
X22640D01*
X26888Y46584D02*
X27233D01*
X26810Y46506D02*
X26888Y46584D01*
X30758Y44713D02*
Y45056D01*
X30545Y44500D02*
X30758Y44713D01*
X30545Y44175D02*
Y44500D01*
X30400Y44175D02*
X30545D01*
X29863Y44575D02*
X30000D01*
X26364Y42654D02*
X26420D01*
X20665Y44065D02*
X20799Y43930D01*
X19130Y40267D02*
Y40280D01*
X18142D02*
X18230D01*
X18893Y40030D02*
X19130Y40267D01*
X17963Y40780D02*
X18130D01*
X18630Y40680D02*
Y40780D01*
X22420Y37757D02*
X22446Y37731D01*
X22420Y37757D02*
Y37954D01*
Y38506D02*
X22730Y38816D01*
X23530Y39760D02*
X23730Y39960D01*
X21795Y43380D02*
X21845Y43430D01*
X18620Y39890D02*
Y40057D01*
X27061Y34930D02*
X27710D01*
X26430Y33230D02*
Y34299D01*
X28261Y34930D02*
X28910D01*
X30170Y33670D01*
Y33230D02*
Y33670D01*
X22730Y38816D02*
Y39255D01*
X23236Y39760D01*
X23530D01*
X25413Y42735D02*
Y42930D01*
X22396Y43930D02*
Y44170D01*
X22370Y44196D02*
X22396Y44170D01*
X22370Y44196D02*
Y44454D01*
X22396Y43930D02*
X23327D01*
X25413D02*
X25900D01*
X25924Y43954D01*
X26420D01*
Y44506D02*
Y44710D01*
X22640Y45006D02*
X22814Y45180D01*
X23095D01*
X23090Y44430D02*
Y44950D01*
Y44430D02*
Y44950D01*
X25796Y42130D02*
X25840D01*
X25796D02*
Y42353D01*
X25413Y42735D02*
X25796Y42353D01*
X24870Y43930D02*
X25413D01*
X24540Y43600D02*
X24870Y43930D01*
X23327Y44430D02*
X23854D01*
X24195Y43915D02*
Y45180D01*
X23854Y44430D02*
X23960Y44324D01*
Y43768D02*
Y44324D01*
Y43768D02*
X24390Y43338D01*
X24195Y43915D02*
X24230Y43880D01*
X31200Y46040D02*
X31350Y45890D01*
X27490Y43460D02*
Y43660D01*
Y43460D02*
Y43660D01*
X28977Y44201D02*
Y44949D01*
X25840Y42130D02*
X26364Y42654D01*
X26630Y47603D02*
X26924Y47897D01*
X21845Y43930D02*
Y45120D01*
X22205Y45480D01*
X24470D01*
Y44890D02*
Y45480D01*
X26240Y44890D02*
X26420Y44710D01*
X24470Y44890D02*
X26240D01*
X26476Y46506D02*
X26810D01*
X27241Y44230D02*
X27270Y44201D01*
X27370D01*
X26420Y42930D02*
X26730D01*
X27000Y43200D01*
X28263Y44575D02*
X28430D01*
X28804Y44949D01*
X28977D01*
X30930Y44850D02*
X31040Y44740D01*
X29915Y46040D02*
X31200D01*
X29915D02*
X31200D01*
X31745Y44175D02*
Y44770D01*
X31683Y44832D02*
X31745Y44770D01*
X31683Y44832D02*
Y45430D01*
X30758Y45804D02*
X31120D01*
X31200Y45724D01*
X31350Y45430D02*
Y45890D01*
Y45430D02*
X31683D01*
X31200Y45170D02*
Y45724D01*
X25413Y44430D02*
X25840D01*
X26040Y44230D01*
X24390Y42928D02*
X25040Y42278D01*
X27000Y43200D02*
Y43610D01*
X27490Y43660D02*
Y44201D01*
Y43660D02*
Y44201D01*
X26040Y44230D02*
X27241D01*
X27377Y44201D02*
Y44949D01*
X27041D02*
X27377D01*
X25846Y45180D02*
X26810D01*
X27041Y44949D01*
X28977D02*
X29325Y45297D01*
Y45775D01*
X29135Y47002D02*
X29757Y46380D01*
X31292D01*
X32078Y45594D01*
Y45532D02*
Y45594D01*
Y45532D02*
X32480Y45130D01*
X28331Y40541D02*
Y41235D01*
X21130Y43380D02*
X21795D01*
X18520Y45680D02*
X18630Y45790D01*
X20737Y47897D01*
X20740Y47900D01*
X18520Y45110D02*
X18630D01*
X18520Y47130D02*
X18630Y47240D01*
X18670Y47280D01*
X18520Y45110D02*
Y45680D01*
X20689Y42255D02*
X20696D01*
X20625Y42190D02*
X20689Y42255D01*
X20720Y42286D01*
Y42130D02*
Y42278D01*
Y42286D01*
X20696Y42255D02*
X20720Y42278D01*
X20830Y42388D01*
X31625Y41540D02*
X32164D01*
X32174Y41530D01*
D31*
X17208Y40130D02*
Y41643D01*
Y38586D02*
Y40130D01*
X46903Y33687D02*
X47996Y34780D01*
X46478Y33687D02*
X46903D01*
X14517Y43555D02*
X14714D01*
X13730Y42768D02*
X14517Y43555D01*
X14714D02*
Y44146D01*
X15502Y42768D02*
X15698D01*
X14714Y43555D02*
X15502Y42768D01*
X13730Y45524D02*
X13927D01*
X14714Y44736D01*
X15464Y45486D02*
X15502Y45524D01*
X14714Y44736D02*
X15464Y45486D01*
X15502Y45524D02*
X15698D01*
X14714Y44146D02*
Y44736D01*
X15330Y34624D02*
Y34796D01*
Y34624D02*
X15698D01*
X13730D02*
X15330D01*
X14714Y35411D02*
X15330Y34796D01*
X14714Y35411D02*
Y36002D01*
X15502Y37380D02*
X15698D01*
X14714Y36593D02*
X15502Y37380D01*
X14714Y36002D02*
Y36593D01*
X38930Y47497D02*
X39330Y47897D01*
Y47330D02*
Y47897D01*
X38930Y47330D02*
Y47497D01*
Y47330D02*
X39330D01*
X17280Y41715D02*
X20306D01*
X20720Y42130D01*
X17030Y35730D02*
Y36116D01*
X17037Y36123D01*
X17723D01*
X15698Y34624D02*
X16719Y33603D01*
X48964Y36142D02*
Y37536D01*
X20730Y44130D02*
Y44672D01*
Y44722D01*
Y44672D02*
Y44722D01*
Y44130D02*
Y44672D01*
X48980Y42780D02*
Y45536D01*
Y38780D02*
Y41520D01*
X20665Y44065D02*
X20730Y44130D01*
X19528Y42928D02*
X20665Y44065D01*
X19528Y42837D02*
Y42928D01*
X17723Y37537D02*
Y38398D01*
X17208Y38586D02*
X17395Y38398D01*
X17723D01*
X17208Y41643D02*
X17280Y41715D01*
X16719Y33603D02*
X18620D01*
X47996Y42780D02*
X48980D01*
X49964D01*
X47996Y45536D02*
X48980D01*
X49964D01*
X48964Y41536D02*
X48980Y41520D01*
X47996Y38780D02*
X48980D01*
X49964D01*
X47996Y41536D02*
X48964D01*
X49964D01*
X48964Y34780D02*
Y36142D01*
X47996Y34780D02*
X48964D01*
X49964D01*
X47996Y37536D02*
X48964D01*
X49964D01*
X17723Y36123D02*
Y37537D01*
D32*
X45580Y47330D02*
Y47680D01*
X45830Y47930D01*
X46215D01*
X38360Y45930D02*
X38637Y46207D01*
X38068Y45638D02*
X38360Y45930D01*
X38637Y46207D02*
Y46430D01*
X37703Y45487D02*
X37854Y45638D01*
X37703Y45207D02*
Y45487D01*
X37854Y45638D02*
X38068D01*
D33*
X13496Y42896D02*
X13996Y42396D01*
X14480Y43880D02*
Y44274D01*
X15464Y45486D02*
Y45652D01*
Y45258D02*
Y45486D01*
X21625Y38180D02*
Y39130D01*
X21035Y38180D02*
Y39130D01*
X23327Y42930D02*
X24090D01*
X29982Y42577D02*
X31933D01*
X29590Y38143D02*
X30103Y37630D01*
Y36825D02*
Y37630D01*
X31933Y42577D02*
X31958Y42601D01*
X29958D02*
X29982Y42577D01*
X29890Y40020D02*
Y40316D01*
X29590Y39720D02*
X29890Y40020D01*
X29590Y38143D02*
Y39720D01*
X29890Y40316D02*
X30080Y40506D01*
X31225D01*
X26990Y40953D02*
X27550Y40393D01*
Y39288D02*
Y40393D01*
X27390Y39128D02*
X27550Y39288D01*
X25870Y39325D02*
X26815D01*
X25675Y39130D02*
X25870Y39325D01*
X24010Y39220D02*
X25094Y40304D01*
X24010Y38240D02*
Y39220D01*
X26815Y39128D02*
X27390D01*
X26815Y40113D02*
X27280D01*
X27360Y40033D01*
Y39405D02*
Y40033D01*
X27280Y39325D02*
X27360Y39405D01*
X26815Y39325D02*
X27280D01*
X28691Y42800D02*
Y43409D01*
X27740Y44360D02*
X28691Y43409D01*
Y42800D02*
X28791Y42699D01*
X29430D02*
X29528Y42601D01*
X29020Y42699D02*
X29430D01*
X20550Y32350D02*
Y36535D01*
Y32350D02*
X31140D01*
X26880Y36956D02*
X27250Y36586D01*
X26630Y36956D02*
X26880D01*
X27250Y36280D02*
Y36586D01*
Y36280D02*
X30000D01*
X30103Y36383D01*
X31870Y40706D02*
X32220D01*
X31671Y40506D02*
X31870Y40706D01*
X25270Y38725D02*
X25675Y39130D01*
X24010Y38240D02*
X24115Y38135D01*
X24660Y40304D02*
X25094D01*
X23264Y41700D02*
X24660Y40304D01*
X21190Y41510D02*
X22550D01*
X20880Y41700D02*
X23264D01*
X22080Y41785D02*
X22370Y42075D01*
X20965Y41785D02*
X22080D01*
X20130Y40450D02*
X21190Y41510D01*
X19910Y40780D02*
X20830Y41700D01*
X22550Y41510D02*
X23040Y41020D01*
X24420Y38725D02*
X25270D01*
X24510Y37240D02*
X24960Y36790D01*
Y36150D02*
Y36790D01*
X30390Y37370D02*
X30710D01*
X30300Y37280D02*
X30390Y37370D01*
X30300Y36825D02*
Y37280D01*
X26853Y42654D02*
X27030D01*
X26730Y42532D02*
X26853Y42654D01*
X26730Y42446D02*
Y42532D01*
X26651Y42367D02*
X26730Y42446D01*
X26584Y42367D02*
X26651D01*
X26480Y42263D02*
X26584Y42367D01*
X26480Y42106D02*
Y42263D01*
X26890Y42240D02*
X27340D01*
X26787Y42137D02*
X26890Y42240D01*
X26787Y41894D02*
Y42137D01*
X26723Y41830D02*
X26787Y41894D01*
X27340Y42240D02*
X27420Y42320D01*
X26990Y40953D02*
Y41020D01*
X25930Y41580D02*
X26180Y41830D01*
X25930Y40856D02*
Y41580D01*
X27480Y42380D02*
X27520D01*
X26250Y40240D02*
Y40766D01*
X26160Y40856D02*
X26250Y40766D01*
X25930Y40856D02*
X26160D01*
X30710Y37370D02*
X30950Y37130D01*
X30661Y35901D02*
X31420Y36660D01*
X30661Y35565D02*
Y35901D01*
Y34930D02*
Y35565D01*
X30586Y35490D02*
X30661Y35565D01*
X29751Y35490D02*
X30586D01*
X24115Y38135D02*
X24420D01*
Y37616D02*
Y38070D01*
X23945Y37140D02*
X24420Y37616D01*
X24320Y37240D02*
X24510D01*
X23945Y36865D02*
Y37140D01*
X26294Y36956D02*
X26630D01*
X26220Y37030D02*
X26294Y36956D01*
X25896Y37030D02*
X26220D01*
X30590Y33780D02*
X31400D01*
Y32610D02*
Y33780D01*
X31140Y32350D02*
X31400Y32610D01*
X28730Y45650D02*
Y46980D01*
X28110Y45610D02*
X28690D01*
X27884Y45836D02*
X28110Y45610D01*
X18386Y40036D02*
X18630Y39792D01*
X18513Y40163D02*
X18630Y40280D01*
X20930Y46080D02*
X21780D01*
X18630Y40280D02*
X18737Y40173D01*
X18230Y40280D02*
X18430D01*
X18386Y40036D02*
X18513Y40163D01*
X18386Y40036D02*
X18493Y39930D01*
X18737Y40173D02*
X19130Y39780D01*
X18493Y39930D02*
X18630Y39792D01*
X18130Y39780D02*
Y40268D01*
X20130Y38850D02*
Y40450D01*
Y38850D02*
X20800Y38180D01*
X30240Y34580D02*
X30248D01*
X30600Y34250D01*
X30110Y34710D02*
X30248Y34580D01*
X27250Y35640D02*
Y36280D01*
X28791Y42699D02*
X29020D01*
X25094Y40304D02*
X25330D01*
X20830Y41700D02*
X20880D01*
X20965Y41785D01*
X20430Y41250D02*
X20880Y41700D01*
X18630Y40280D02*
X19130Y40780D01*
X18220Y39870D02*
X18386Y40036D01*
X18142Y40280D02*
X18386Y40036D01*
X30103Y36383D02*
Y36825D01*
X30110Y34710D02*
Y34930D01*
X18630Y39780D02*
Y39792D01*
X23945Y36630D02*
Y36865D01*
X24320Y37240D01*
X24960Y36150D02*
X25120Y35990D01*
X25726D01*
X25896Y36160D01*
Y36430D01*
X19518Y37537D02*
X19930Y37125D01*
X25673Y45954D02*
X26476D01*
X25295Y45576D02*
X25673Y45954D01*
X31225Y40506D02*
X31671D01*
X20800Y38180D02*
X21035D01*
X30110Y34710D02*
X30240Y34580D01*
X29461Y34909D02*
Y34930D01*
X20220Y36535D02*
X20550D01*
X26250Y40240D02*
X26377Y40113D01*
X26815D01*
X29461Y35200D02*
X29751Y35490D01*
X29461Y34930D02*
Y35200D01*
X24296Y45830D02*
Y46030D01*
X25330Y40856D02*
Y41026D01*
X24596Y41760D02*
X25330Y41026D01*
X24596Y41760D02*
Y42130D01*
X18130Y40268D02*
X18142Y40280D01*
X26476Y45836D02*
Y45954D01*
X27233Y45836D02*
X27520D01*
X22370Y42075D02*
Y42354D01*
X21970Y46400D02*
Y46720D01*
Y46400D02*
X22340Y46030D01*
X22545D01*
X20930Y46080D02*
Y46330D01*
X21780Y46080D02*
X21930Y45930D01*
X23450Y35160D02*
Y35840D01*
X23640Y36030D01*
X23945D01*
X26014Y39916D02*
X26815D01*
X25930Y40000D02*
X26014Y39916D01*
X25930Y40000D02*
Y40304D01*
X23327Y42712D02*
Y42930D01*
X22945Y42330D02*
X23327Y42712D01*
X22945Y42130D02*
Y42330D01*
X22764Y42130D02*
X22945D01*
X22540Y42354D02*
X22764Y42130D01*
X22370Y42354D02*
X22540D01*
X24746Y45180D02*
X25295D01*
X25620Y40304D02*
X25930D01*
X25620Y40304D02*
X25620Y40304D01*
X25330Y40304D02*
X25620D01*
X26630Y35720D02*
Y36404D01*
X26510Y35600D02*
X26630Y35720D01*
X26510Y34930D02*
Y35600D01*
X26276Y36404D02*
X26630D01*
X26250Y36430D02*
X26276Y36404D01*
X25896Y36430D02*
X26250D01*
X23945Y36320D02*
Y36630D01*
X23945Y36320D02*
X23945Y36320D01*
X23945Y36030D02*
Y36320D01*
X21625Y37630D02*
Y38180D01*
Y37630D02*
X21696Y37560D01*
Y37030D02*
Y37560D01*
X21035Y37660D02*
Y38180D01*
Y37660D02*
X21145Y37550D01*
Y37030D02*
Y37550D01*
X20725Y37030D02*
X21145D01*
X20630Y37125D02*
X20725Y37030D01*
X19930Y37125D02*
X20630D01*
X21145Y36430D02*
Y37030D01*
X25330Y40856D02*
X25930D01*
X21930Y45930D02*
X22190Y45670D01*
X24746Y45180D02*
Y45552D01*
X24644Y45654D02*
X24746Y45552D01*
X24472Y45654D02*
X24644D01*
X24296Y45830D02*
X24472Y45654D01*
X25295Y45180D02*
Y45576D01*
X24136Y45670D02*
X24296Y45830D01*
X22190Y45670D02*
X24136D01*
X27520Y45836D02*
X27740Y45616D01*
X28690Y45610D02*
X28730Y45650D01*
X27520Y45836D02*
X27884D01*
X27740Y44360D02*
Y45616D01*
X28020Y42680D02*
X28510D01*
X28530Y42699D01*
X28791D01*
X26476Y45836D02*
X27233D01*
X29528Y42601D02*
X29958D01*
D34*
X39330Y47897D02*
X45013D01*
X32163D02*
X39330D01*
X45580Y36207D02*
Y41007D01*
X46674Y38487D02*
X46967Y38780D01*
X47996D01*
X46478Y38487D02*
X46674D01*
Y43287D02*
X47182Y42780D01*
X47996D01*
X46478Y43287D02*
X46674D01*
X45580Y41007D02*
Y45807D01*
X31813Y47897D02*
X32163D01*
X26924D02*
X31813D01*
X45580Y45807D02*
Y47330D01*
X45013Y47897D02*
X45580Y47330D01*
X48964Y36142D02*
X48980Y36158D01*
X32163Y47897D02*
X32830Y47230D01*
X18630Y45357D02*
Y45790D01*
Y46397D01*
X19287Y47897D02*
X20130D01*
X20737D01*
X26924D01*
X18630Y46397D02*
Y47240D01*
Y46397D02*
X20130Y47897D01*
X18670Y47280D02*
X19287Y47897D01*
D35*
X17723Y36123D02*
X17919D01*
X18208Y35835D01*
X18530D01*
D36*
X36530Y36680D02*
D03*
Y46380D02*
D03*
Y41380D02*
D03*
X34530Y36680D02*
D03*
Y41380D02*
D03*
Y46380D02*
D03*
D37*
X36530Y35680D02*
D03*
Y34680D02*
D03*
Y45380D02*
D03*
Y44380D02*
D03*
Y40380D02*
D03*
Y39380D02*
D03*
X28730Y46980D02*
D03*
X29730D02*
D03*
X30730D02*
D03*
X31730D02*
D03*
X35530Y36680D02*
D03*
X34530Y35680D02*
D03*
X35530D02*
D03*
X34530Y34680D02*
D03*
X35530D02*
D03*
X32230Y32480D02*
D03*
Y33480D02*
D03*
X33230Y32480D02*
D03*
Y33480D02*
D03*
X34230Y32480D02*
D03*
Y33480D02*
D03*
X35230Y32480D02*
D03*
Y33480D02*
D03*
X36230Y32480D02*
D03*
X35530Y41380D02*
D03*
X34530Y40380D02*
D03*
X35530D02*
D03*
X34530Y39380D02*
D03*
X35530D02*
D03*
Y46380D02*
D03*
X34530Y45380D02*
D03*
X35530D02*
D03*
X34530Y44380D02*
D03*
X35530D02*
D03*
D38*
X14230Y32880D02*
D03*
X48964Y32980D02*
D03*
X14230Y47380D02*
D03*
X48964D02*
D03*
D39*
X32730Y46980D02*
D03*
X36230Y33480D02*
D03*
D40*
X22620Y46730D02*
D03*
Y47230D02*
D03*
X23120Y46730D02*
D03*
Y47230D02*
D03*
X23620Y46730D02*
D03*
Y47230D02*
D03*
X24120Y46730D02*
D03*
Y47230D02*
D03*
X24620Y46730D02*
D03*
D41*
Y47230D02*
D03*
D42*
X13730Y37380D02*
D03*
Y34624D02*
D03*
X15698Y37380D02*
D03*
Y34624D02*
D03*
X13730Y45524D02*
D03*
Y42768D02*
D03*
X15698Y45524D02*
D03*
Y42768D02*
D03*
X49964Y42780D02*
D03*
Y45536D02*
D03*
X47996Y42780D02*
D03*
Y45536D02*
D03*
X49964Y38780D02*
D03*
Y41536D02*
D03*
X47996Y38780D02*
D03*
Y41536D02*
D03*
X49964Y34780D02*
D03*
Y37536D02*
D03*
X47996Y34780D02*
D03*
Y37536D02*
D03*
D43*
X14230Y39630D02*
D03*
Y41130D02*
D03*
X16230D02*
D03*
X47730Y46530D02*
D03*
X20230Y35130D02*
D03*
X44530Y32830D02*
D03*
X18730Y37130D02*
D03*
X44084Y41130D02*
D03*
Y36130D02*
D03*
X43980Y45880D02*
D03*
X40934Y45811D02*
D03*
X33230Y44630D02*
D03*
X18730Y43380D02*
D03*
X25480Y45880D02*
D03*
X29696Y45130D02*
D03*
X15520Y47990D02*
D03*
X16230Y32380D02*
D03*
X47730Y44630D02*
D03*
Y43880D02*
D03*
X16230Y39630D02*
D03*
Y36130D02*
D03*
X48980Y42130D02*
D03*
X47730Y40630D02*
D03*
Y39880D02*
D03*
X37480Y32130D02*
D03*
X45480Y33630D02*
D03*
X38730Y32130D02*
D03*
X35580Y38530D02*
D03*
X33730Y38730D02*
D03*
X34380Y38530D02*
D03*
X37293Y37130D02*
D03*
X37330Y38880D02*
D03*
Y40880D02*
D03*
Y42130D02*
D03*
X38360Y45930D02*
D03*
X39330Y43930D02*
D03*
X46130Y36530D02*
D03*
X45730D02*
D03*
X38930Y47330D02*
D03*
X39330D02*
D03*
X18732Y42230D02*
D03*
X18820Y47280D02*
D03*
X21830Y42430D02*
D03*
X24090Y42930D02*
D03*
X32830Y40330D02*
D03*
X33330Y39830D02*
D03*
X33630Y40830D02*
D03*
X33130Y41030D02*
D03*
X34380Y42780D02*
D03*
X33430Y42530D02*
D03*
X30230Y45056D02*
D03*
X30440Y39802D02*
D03*
X29290Y40460D02*
D03*
X28260Y40470D02*
D03*
X29119Y39115D02*
D03*
X28040Y39560D02*
D03*
X28740Y40140D02*
D03*
X29430Y42699D02*
D03*
X17030Y35730D02*
D03*
X17037Y36123D02*
D03*
X27130Y37130D02*
D03*
X28430Y38030D02*
D03*
X30530D02*
D03*
X29880Y38680D02*
D03*
X27770Y38200D02*
D03*
X28030Y37530D02*
D03*
X32770Y34970D02*
D03*
X31140Y40900D02*
D03*
X25675Y39130D02*
D03*
X24150Y39980D02*
D03*
X24930Y39280D02*
D03*
Y39700D02*
D03*
X23040Y41020D02*
D03*
X23880Y41530D02*
D03*
X25528Y41382D02*
D03*
X23730Y39980D02*
D03*
X42930Y34530D02*
D03*
X42430D02*
D03*
X41930D02*
D03*
Y35030D02*
D03*
X42430D02*
D03*
X42930D02*
D03*
Y38780D02*
D03*
X42430D02*
D03*
X41930D02*
D03*
Y39280D02*
D03*
X42430D02*
D03*
X42930D02*
D03*
X43030Y43730D02*
D03*
X42530D02*
D03*
X42030D02*
D03*
Y43230D02*
D03*
X42530D02*
D03*
X43030D02*
D03*
X41530Y36880D02*
D03*
Y37280D02*
D03*
X41532Y42080D02*
D03*
X41530Y41680D02*
D03*
Y46930D02*
D03*
X39280Y39580D02*
D03*
Y34530D02*
D03*
X38804Y42104D02*
D03*
X37406Y46706D02*
D03*
X26990Y41020D02*
D03*
X26526Y41030D02*
D03*
X26980Y41630D02*
D03*
X27830Y42030D02*
D03*
X27480Y42380D02*
D03*
X27530Y43620D02*
D03*
X23600Y40610D02*
D03*
X33980Y34230D02*
D03*
X30950Y37130D02*
D03*
X31420Y36660D02*
D03*
X23930Y37580D02*
D03*
X37080Y32545D02*
D03*
X28380Y42030D02*
D03*
X22130Y33530D02*
D03*
X28400Y45900D02*
D03*
X34380Y43530D02*
D03*
X33130Y37780D02*
D03*
X23630Y32530D02*
D03*
X22130D02*
D03*
X25630Y46780D02*
D03*
X35380Y42780D02*
D03*
X50214Y35780D02*
D03*
Y36530D02*
D03*
Y40530D02*
D03*
Y39780D02*
D03*
X21530Y40130D02*
D03*
X20480D02*
D03*
X23630Y33530D02*
D03*
X20230Y32380D02*
D03*
X25630Y34280D02*
D03*
Y35280D02*
D03*
X16130Y47030D02*
D03*
X47714Y36530D02*
D03*
Y35780D02*
D03*
X41530Y46530D02*
D03*
X32630Y45780D02*
D03*
X35380Y37530D02*
D03*
X34380Y37780D02*
D03*
X19830Y47280D02*
D03*
X22820Y36867D02*
D03*
X30600Y34250D02*
D03*
X27250Y35640D02*
D03*
X21930Y45930D02*
D03*
X24810Y43430D02*
D03*
X20430Y41250D02*
D03*
X21970Y46720D02*
D03*
X19130Y39780D02*
D03*
X18630D02*
D03*
X18130D02*
D03*
X19130Y40280D02*
D03*
X18142D02*
D03*
X18630D02*
D03*
X18130Y40780D02*
D03*
X18630D02*
D03*
X19130D02*
D03*
X24230Y43880D02*
D03*
X31040Y44740D02*
D03*
X27000Y43610D02*
D03*
X32480Y45130D02*
D03*
X50230Y43880D02*
D03*
Y44630D02*
D03*
X20000Y40870D02*
D03*
X31230Y35630D02*
D03*
X30930Y32130D02*
D03*
X29330D02*
D03*
X27730D02*
D03*
X26130D02*
D03*
M02*
