%FSLAX24Y24*%
%MOIN*%
G70*
G01*
G75*
G04 Layer_Color=8388736*
%ADD10R,0.0354X0.0315*%
%ADD11R,0.0453X0.0236*%
%ADD12O,0.0827X0.0276*%
%ADD13R,0.0315X0.0354*%
%ADD14R,0.2185X0.2677*%
%ADD15R,0.0394X0.0945*%
%ADD16R,0.2200X0.0830*%
%ADD17R,0.0433X0.0551*%
%ADD18R,0.0551X0.0433*%
%ADD19R,0.0394X0.0512*%
%ADD20R,0.0236X0.0453*%
%ADD21R,0.1575X0.1181*%
%ADD22R,0.0571X0.0236*%
%ADD23R,0.1378X0.0787*%
%ADD24O,0.0827X0.0118*%
%ADD25O,0.0118X0.0827*%
%ADD26R,0.0532X0.0846*%
%ADD27R,0.1350X0.1850*%
%ADD28R,0.0200X0.0940*%
%ADD29R,0.0790X0.0980*%
%ADD30C,0.0080*%
%ADD31C,0.0500*%
%ADD32C,0.0100*%
%ADD33C,0.0120*%
%ADD34C,0.0800*%
%ADD35C,0.0200*%
%ADD36R,0.0591X0.0591*%
%ADD37C,0.0591*%
%ADD38C,0.2000*%
%ADD39R,0.0591X0.0591*%
%ADD40C,0.0394*%
%ADD41R,0.0394X0.0394*%
%ADD42C,0.0984*%
%ADD43C,0.0320*%
%ADD44R,0.1614X0.0787*%
%ADD45R,0.0787X0.1614*%
%ADD46C,0.0098*%
%ADD47C,0.0236*%
%ADD48C,0.0079*%
%ADD49R,0.0434X0.0395*%
%ADD50R,0.0533X0.0316*%
%ADD51O,0.0907X0.0356*%
%ADD52R,0.0395X0.0434*%
%ADD53R,0.2265X0.2757*%
%ADD54R,0.0474X0.1025*%
%ADD55R,0.2280X0.0910*%
%ADD56R,0.0513X0.0631*%
%ADD57R,0.0631X0.0513*%
%ADD58R,0.0474X0.0592*%
%ADD59R,0.0316X0.0533*%
%ADD60R,0.1655X0.1261*%
%ADD61R,0.0651X0.0316*%
%ADD62R,0.1458X0.0867*%
%ADD63R,0.0612X0.0926*%
%ADD64R,0.1430X0.1930*%
%ADD65R,0.0320X0.1060*%
%ADD66R,0.0910X0.1100*%
%ADD67R,0.0671X0.0671*%
%ADD68C,0.0671*%
%ADD69C,0.2080*%
%ADD70R,0.0671X0.0671*%
%ADD71C,0.0514*%
%ADD72R,0.0514X0.0514*%
%ADD73C,0.1064*%
%ADD74C,0.0500*%
%ADD75C,0.0400*%
D24*
X26815Y40506D02*
D03*
Y40310D02*
D03*
Y40113D02*
D03*
Y39916D02*
D03*
Y39325D02*
D03*
Y39128D02*
D03*
Y38932D02*
D03*
Y38735D02*
D03*
Y38538D02*
D03*
Y38341D02*
D03*
Y38144D02*
D03*
Y37947D02*
D03*
Y37750D02*
D03*
Y37554D02*
D03*
X31225D02*
D03*
Y37750D02*
D03*
Y37947D02*
D03*
Y38144D02*
D03*
Y38341D02*
D03*
Y38538D02*
D03*
Y38735D02*
D03*
Y38932D02*
D03*
Y39128D02*
D03*
Y39325D02*
D03*
Y39522D02*
D03*
Y39719D02*
D03*
Y39916D02*
D03*
Y40113D02*
D03*
Y40310D02*
D03*
Y40506D02*
D03*
X26815Y39719D02*
D03*
Y39522D02*
D03*
D25*
X27544Y36825D02*
D03*
X27741D02*
D03*
X27937D02*
D03*
X28134D02*
D03*
X28331D02*
D03*
X28528D02*
D03*
X28725D02*
D03*
X28922D02*
D03*
X29119D02*
D03*
X29315D02*
D03*
X29512D02*
D03*
X29709D02*
D03*
X29906D02*
D03*
X30103D02*
D03*
X30300D02*
D03*
X30497D02*
D03*
Y41235D02*
D03*
X30300D02*
D03*
X30103D02*
D03*
X29906D02*
D03*
X29709D02*
D03*
X29512D02*
D03*
X29315D02*
D03*
X29119D02*
D03*
X28922D02*
D03*
X28725D02*
D03*
X28528D02*
D03*
X28331D02*
D03*
X28134D02*
D03*
X27937D02*
D03*
X27741D02*
D03*
X27544D02*
D03*
D49*
X26480Y42106D02*
D03*
Y41554D02*
D03*
X40480Y46154D02*
D03*
Y46706D02*
D03*
Y41354D02*
D03*
Y41906D02*
D03*
Y36354D02*
D03*
Y36906D02*
D03*
X47080Y32954D02*
D03*
Y33506D02*
D03*
X47076Y37542D02*
D03*
Y38093D02*
D03*
X37880Y36906D02*
D03*
Y36354D02*
D03*
Y41706D02*
D03*
Y41154D02*
D03*
X37880Y46706D02*
D03*
Y46154D02*
D03*
X27030Y43206D02*
D03*
Y42654D02*
D03*
X47130Y44006D02*
D03*
Y43454D02*
D03*
X25930Y40304D02*
D03*
Y40856D02*
D03*
X25330D02*
D03*
Y40304D02*
D03*
X25220Y37554D02*
D03*
Y38106D02*
D03*
X25820Y37554D02*
D03*
Y38106D02*
D03*
X26630Y36404D02*
D03*
Y36956D02*
D03*
X32220Y40706D02*
D03*
Y40154D02*
D03*
X22420Y37954D02*
D03*
Y38506D02*
D03*
X26420Y44506D02*
D03*
Y43954D02*
D03*
X23220Y37954D02*
D03*
Y38506D02*
D03*
X22370Y42354D02*
D03*
Y42906D02*
D03*
X47230Y47306D02*
D03*
Y46754D02*
D03*
X22370Y45006D02*
D03*
Y44454D02*
D03*
X29020Y43250D02*
D03*
Y42699D02*
D03*
X26420Y42654D02*
D03*
Y43206D02*
D03*
X26476Y46506D02*
D03*
Y45954D02*
D03*
X44030Y42454D02*
D03*
Y43006D02*
D03*
Y37454D02*
D03*
Y38006D02*
D03*
Y33454D02*
D03*
Y34006D02*
D03*
D50*
X39523Y46056D02*
D03*
Y46804D02*
D03*
X38637Y46430D02*
D03*
X39523Y41256D02*
D03*
Y42004D02*
D03*
X38637Y41630D02*
D03*
X39523Y36256D02*
D03*
Y37004D02*
D03*
X38637Y36630D02*
D03*
X28977Y44949D02*
D03*
Y44201D02*
D03*
X29863Y44575D02*
D03*
X27377Y44949D02*
D03*
Y44201D02*
D03*
X28263Y44575D02*
D03*
D51*
X38237Y40380D02*
D03*
Y39880D02*
D03*
Y39380D02*
D03*
Y38880D02*
D03*
X40323Y40380D02*
D03*
Y39880D02*
D03*
Y39380D02*
D03*
Y38880D02*
D03*
X38237Y45380D02*
D03*
Y44880D02*
D03*
Y44380D02*
D03*
Y43880D02*
D03*
X40323Y45380D02*
D03*
Y44880D02*
D03*
Y44380D02*
D03*
Y43880D02*
D03*
X38237Y35580D02*
D03*
Y35080D02*
D03*
Y34580D02*
D03*
Y34080D02*
D03*
X40323Y35580D02*
D03*
Y35080D02*
D03*
Y34580D02*
D03*
Y34080D02*
D03*
X23327Y44430D02*
D03*
Y43930D02*
D03*
Y43430D02*
D03*
Y42930D02*
D03*
X25413Y44430D02*
D03*
Y43930D02*
D03*
Y43430D02*
D03*
Y42930D02*
D03*
D52*
X39004Y37630D02*
D03*
X39556D02*
D03*
X39556Y33430D02*
D03*
X39004D02*
D03*
X37754Y42608D02*
D03*
X38306D02*
D03*
X39004Y32830D02*
D03*
X39556D02*
D03*
X37804Y37630D02*
D03*
X38356D02*
D03*
X37804Y32830D02*
D03*
X38356D02*
D03*
X40204Y32830D02*
D03*
X40756D02*
D03*
X35954Y37630D02*
D03*
X36506D02*
D03*
X35954Y38530D02*
D03*
X36506D02*
D03*
X36006Y43380D02*
D03*
X35454D02*
D03*
X42204Y37430D02*
D03*
X42756D02*
D03*
X21145Y37030D02*
D03*
X21696D02*
D03*
X24496Y36030D02*
D03*
X23945D02*
D03*
X38954Y42580D02*
D03*
X39506D02*
D03*
X39506Y43180D02*
D03*
X38954D02*
D03*
X39556Y38230D02*
D03*
X39004D02*
D03*
X26510Y34930D02*
D03*
X27061D02*
D03*
X29461D02*
D03*
X28910D02*
D03*
X24296Y46030D02*
D03*
X23745D02*
D03*
X30661Y34930D02*
D03*
X30110D02*
D03*
X21145Y36430D02*
D03*
X21696D02*
D03*
X25345Y37030D02*
D03*
X25896D02*
D03*
X25345Y36430D02*
D03*
X25896D02*
D03*
X21845Y43430D02*
D03*
X22396D02*
D03*
Y43930D02*
D03*
X21845D02*
D03*
X23945Y36630D02*
D03*
X24496D02*
D03*
X30545Y44175D02*
D03*
X31096D02*
D03*
X24596Y42130D02*
D03*
X24045D02*
D03*
X25245D02*
D03*
X25796D02*
D03*
X31745Y44175D02*
D03*
X32296D02*
D03*
X23646Y45180D02*
D03*
X23095D02*
D03*
X23496Y42130D02*
D03*
X22945D02*
D03*
X24746Y45180D02*
D03*
X24195D02*
D03*
X42756Y47030D02*
D03*
X42204D02*
D03*
X42756Y42230D02*
D03*
X42204D02*
D03*
X38314Y43180D02*
D03*
X37763D02*
D03*
X40706D02*
D03*
X40154D02*
D03*
X40154Y42580D02*
D03*
X40706D02*
D03*
X38364Y38230D02*
D03*
X37813D02*
D03*
X40756D02*
D03*
X40204D02*
D03*
X38356Y33430D02*
D03*
X37804D02*
D03*
X40756D02*
D03*
X40204D02*
D03*
X40204Y37630D02*
D03*
X40756D02*
D03*
X27710Y34930D02*
D03*
X28261D02*
D03*
X23096Y46030D02*
D03*
X22545D02*
D03*
X25295Y45180D02*
D03*
X25846D02*
D03*
X32726Y41530D02*
D03*
X32174D02*
D03*
X15506Y40880D02*
D03*
X14954D02*
D03*
D53*
X45580Y36207D02*
D03*
Y41007D02*
D03*
Y45807D02*
D03*
X42430Y39353D02*
D03*
X18630Y45357D02*
D03*
X18620Y33603D02*
D03*
X42430Y34553D02*
D03*
Y44153D02*
D03*
X18620Y40057D02*
D03*
D54*
X46478Y33687D02*
D03*
X44682D02*
D03*
X46478Y38487D02*
D03*
X44682D02*
D03*
X46478Y43287D02*
D03*
X44682D02*
D03*
X41532Y41873D02*
D03*
X43328D02*
D03*
X19528Y42837D02*
D03*
X17732D02*
D03*
X17723Y36123D02*
D03*
X19518D02*
D03*
X41532Y37073D02*
D03*
X43328D02*
D03*
X41532Y46673D02*
D03*
X43328D02*
D03*
X19518Y37537D02*
D03*
X17723D02*
D03*
D55*
X26430Y33230D02*
D03*
X30170D02*
D03*
D56*
X21625Y38180D02*
D03*
X21035D02*
D03*
X29915Y45775D02*
D03*
X29325D02*
D03*
X21035Y39130D02*
D03*
X21625D02*
D03*
D57*
X28020Y42680D02*
D03*
Y43270D02*
D03*
X16730Y37335D02*
D03*
Y37925D02*
D03*
X18530Y35835D02*
D03*
Y36425D02*
D03*
X24420Y38135D02*
D03*
Y38725D02*
D03*
D58*
X46845Y47930D02*
D03*
X46215D02*
D03*
X30995Y41540D02*
D03*
X31625D02*
D03*
X15545Y40130D02*
D03*
X14915D02*
D03*
D59*
X22446Y36387D02*
D03*
X23194D02*
D03*
X22820Y37273D02*
D03*
D60*
X14714Y36002D02*
D03*
Y44146D02*
D03*
X48980Y44158D02*
D03*
Y40158D02*
D03*
Y36158D02*
D03*
D61*
X31683Y45430D02*
D03*
X30758Y45056D02*
D03*
Y45804D02*
D03*
X29958Y43349D02*
D03*
Y42601D02*
D03*
X30883Y42975D02*
D03*
X31958Y43349D02*
D03*
Y42601D02*
D03*
X32883Y42975D02*
D03*
X27233Y46584D02*
D03*
Y45836D02*
D03*
X28158Y46210D02*
D03*
D62*
X20830Y42388D02*
D03*
Y44672D02*
D03*
D63*
X20330Y37501D02*
D03*
Y36359D02*
D03*
D64*
X20930Y46330D02*
D03*
D65*
X22520Y35160D02*
D03*
X22830D02*
D03*
X22210D02*
D03*
X23140D02*
D03*
X23450D02*
D03*
D66*
X21080Y35140D02*
D03*
X24580Y32970D02*
D03*
X21080D02*
D03*
X24580Y35140D02*
D03*
D67*
X36530Y36680D02*
D03*
Y46380D02*
D03*
Y41380D02*
D03*
X34530Y36680D02*
D03*
Y41380D02*
D03*
Y46380D02*
D03*
D68*
X36530Y35680D02*
D03*
Y34680D02*
D03*
Y45380D02*
D03*
Y44380D02*
D03*
Y40380D02*
D03*
Y39380D02*
D03*
X28730Y46980D02*
D03*
X29730D02*
D03*
X30730D02*
D03*
X31730D02*
D03*
X35530Y36680D02*
D03*
X34530Y35680D02*
D03*
X35530D02*
D03*
X34530Y34680D02*
D03*
X35530D02*
D03*
X32230Y32480D02*
D03*
Y33480D02*
D03*
X33230Y32480D02*
D03*
Y33480D02*
D03*
X34230Y32480D02*
D03*
Y33480D02*
D03*
X35230Y32480D02*
D03*
Y33480D02*
D03*
X36230Y32480D02*
D03*
X35530Y41380D02*
D03*
X34530Y40380D02*
D03*
X35530D02*
D03*
X34530Y39380D02*
D03*
X35530D02*
D03*
Y46380D02*
D03*
X34530Y45380D02*
D03*
X35530D02*
D03*
X34530Y44380D02*
D03*
X35530D02*
D03*
D69*
X14230Y32880D02*
D03*
X48964Y32980D02*
D03*
X14230Y47380D02*
D03*
X48964D02*
D03*
D70*
X32730Y46980D02*
D03*
X36230Y33480D02*
D03*
D71*
X22620Y46730D02*
D03*
Y47230D02*
D03*
X23120Y46730D02*
D03*
Y47230D02*
D03*
X23620Y46730D02*
D03*
Y47230D02*
D03*
X24120Y46730D02*
D03*
Y47230D02*
D03*
X24620Y46730D02*
D03*
D72*
Y47230D02*
D03*
D73*
X13730Y37380D02*
D03*
Y34624D02*
D03*
X15698Y37380D02*
D03*
Y34624D02*
D03*
X13730Y45524D02*
D03*
Y42768D02*
D03*
X15698Y45524D02*
D03*
Y42768D02*
D03*
X49964Y42780D02*
D03*
Y45536D02*
D03*
X47996Y42780D02*
D03*
Y45536D02*
D03*
X49964Y38780D02*
D03*
Y41536D02*
D03*
X47996Y38780D02*
D03*
Y41536D02*
D03*
X49964Y34780D02*
D03*
Y37536D02*
D03*
X47996Y34780D02*
D03*
Y37536D02*
D03*
D74*
X21970Y34150D02*
D03*
X23690D02*
D03*
D75*
X46130Y36530D02*
D03*
X45730D02*
D03*
X42930Y34530D02*
D03*
X42430D02*
D03*
X41930D02*
D03*
Y35030D02*
D03*
X42430D02*
D03*
X42930D02*
D03*
Y38780D02*
D03*
X42430D02*
D03*
X41930D02*
D03*
Y39280D02*
D03*
X42430D02*
D03*
X42930D02*
D03*
X43030Y43730D02*
D03*
X42530D02*
D03*
X42030D02*
D03*
Y43230D02*
D03*
X42530D02*
D03*
X43030D02*
D03*
X19130Y39780D02*
D03*
X18630D02*
D03*
X18130D02*
D03*
X19130Y40280D02*
D03*
X18142D02*
D03*
X18630D02*
D03*
X18130Y40780D02*
D03*
X18630D02*
D03*
X19130D02*
D03*
M02*
