M48
;Layer_Color=9474304
;FILE_FORMAT=2:4
INCH,LZ
;TYPE=PLATED
T1F00S00C0.0140
T2F00S00C0.0236
T3F00S00C0.0354
T4F00S00C0.0400
T5F00S00C0.0728
T6F00S00C0.1300
;TYPE=NON_PLATED
T7F00S00C0.0500
%
T01
X01423Y03963
Y04113
X01623
Y03963
X01813Y03978
X01863
X01913
Y04028
X01863
X018142
X01813Y04078
X01863
X01913
X02Y04087
X02043Y04125
X02048Y04013
X02153
X02373Y03998
X02415
X02493Y0397
Y03928
X025675Y03913
X025528Y041382
X026526Y04103
X02699Y04102
X02698Y04163
X02783Y04203
X02838
X02748Y04238
X02753Y04362
X027Y04361
X02481Y04343
X02423Y04388
X02409Y04293
X02388Y04153
X0236Y04061
X02304Y04102
X02183Y04243
X018732Y04223
X01873Y04338
X02193Y04593
X02197Y04672
X02563Y04678
X02548Y04588
X0284Y0459
X029696Y04513
X03023Y045056
X03104Y04474
X02943Y042699
X02929Y04046
X02874Y04014
X02826Y04047
X02804Y03956
X029119Y039115
X02988Y03868
X03053Y03803
X03095Y03713
X03123Y03563
X0306Y03425
X03093Y03213
X02933
X02773
X02613
X02563Y03428
Y03528
X02725Y03564
X02713Y03713
X02803Y03753
X02843Y03803
X02777Y0382
X03044Y039802
X03114Y0409
X02393Y03758
X02282Y036867
X02213Y03353
Y03253
X02363
Y03353
X02023Y03238
Y03513
X01873Y03713
X017037Y036123
X01703Y03573
X01623Y03613
Y03238
X03277Y03497
X03398Y03423
X03438Y03778
Y03853
X03373Y03873
X03333Y03983
X03283Y04033
X03313Y04103
X03363Y04083
X03343Y04253
X03438Y04278
Y04353
X03538Y04278
X03733Y04213
Y04088
Y03888
X037293Y03713
X03538Y03753
X03558Y03853
X03313Y03778
X03142Y03666
X03248Y04513
X03263Y04578
X03323Y04463
X037406Y046706
X03836Y04593
X040934Y045811
X04153Y04653
X04398Y04588
X04303Y04373
X04253
X04203
Y04323
X04253
X04303
X041532Y04208
X04153Y04168
X04193Y03928
Y03878
X04243
X04293
Y03928
X04243
X04153Y03728
Y03688
X04193Y03503
Y03453
X04243
X04293
Y03503
X04243
X044084Y03613
X04573Y03653
X04613
X04548Y03363
X04453Y03283
X03873Y03213
X03748
X03708Y032545
X03928Y03453
Y03958
X038804Y042104
X03933Y04393
X044084Y04113
X04773Y04063
Y03988
X050214Y03978
Y04053
X04898Y04213
X04773Y04388
Y04463
Y04653
X05023Y04463
Y04388
X050214Y03653
Y03578
X047714
Y03653
X04153Y04693
X03933Y04733
X03893
X01983Y04728
X01882
X01613Y04703
X01552Y04799
T02
X02262Y04673
X02312
X02362
X02412
X02462
Y04723
X02412
X02362
X02312
X02262
T03
X03653Y03468
Y03568
Y03668
Y03938
Y04038
Y04138
Y04438
Y04538
Y04638
T04
X03223Y03248
Y03348
X03323
Y03248
X03423
Y03348
X03523
Y03248
X03623
Y03348
X03553Y03468
Y03568
Y03668
X03453
Y03568
Y03468
Y03938
Y04038
Y04138
X03553
Y04038
Y03938
Y04438
Y04538
Y04638
X03453
Y04538
Y04438
X03273Y04698
X03173
X03073
X02973
X02873
T05
X01373Y034624
Y03738
Y042768
Y045524
X015698
Y042768
Y03738
Y034624
X047996Y03478
X049964
Y037536
Y03878
X047996
Y037536
Y041536
Y04278
X049964
Y041536
Y045536
X047996
T06
X01423Y03288
X048964Y03298
Y04738
X01423
T07
X02197Y03415
X02369
M30
