%FSLAX24Y24*%
%MOIN*%
G70*
G01*
G75*
G04 Layer_Color=16711935*
%ADD10R,0.0354X0.0315*%
%ADD11R,0.0453X0.0236*%
%ADD12O,0.0827X0.0276*%
%ADD13R,0.0315X0.0354*%
%ADD14R,0.2185X0.2677*%
%ADD15R,0.0394X0.0945*%
%ADD16R,0.2200X0.0830*%
%ADD17R,0.0433X0.0551*%
%ADD18R,0.0551X0.0433*%
%ADD19R,0.0394X0.0512*%
%ADD20R,0.0236X0.0453*%
%ADD21R,0.1575X0.1181*%
%ADD22R,0.0571X0.0236*%
%ADD23R,0.1378X0.0787*%
%ADD24O,0.0827X0.0118*%
%ADD25O,0.0118X0.0827*%
%ADD26R,0.0532X0.0846*%
%ADD27R,0.1350X0.1850*%
%ADD28R,0.0200X0.0940*%
%ADD29R,0.0790X0.0980*%
%ADD30C,0.0080*%
%ADD31C,0.0500*%
%ADD32C,0.0100*%
%ADD33C,0.0120*%
%ADD34C,0.0800*%
%ADD35C,0.0200*%
%ADD36R,0.0591X0.0591*%
%ADD37C,0.0591*%
%ADD38C,0.2000*%
%ADD39R,0.0591X0.0591*%
%ADD40C,0.0394*%
%ADD41R,0.0394X0.0394*%
%ADD42C,0.0984*%
%ADD43C,0.0320*%
%ADD44R,0.1614X0.0787*%
%ADD45R,0.0787X0.1614*%
%ADD46C,0.0098*%
%ADD47C,0.0236*%
%ADD48C,0.0079*%
%ADD49R,0.0434X0.0395*%
%ADD50R,0.0533X0.0316*%
%ADD51O,0.0907X0.0356*%
%ADD52R,0.0395X0.0434*%
%ADD53R,0.2265X0.2757*%
%ADD54R,0.0474X0.1025*%
%ADD55R,0.2280X0.0910*%
%ADD56R,0.0513X0.0631*%
%ADD57R,0.0631X0.0513*%
%ADD58R,0.0474X0.0592*%
%ADD59R,0.0316X0.0533*%
%ADD60R,0.1655X0.1261*%
%ADD61R,0.0651X0.0316*%
%ADD62R,0.1458X0.0867*%
%ADD63R,0.0612X0.0926*%
%ADD64R,0.1430X0.1930*%
%ADD65R,0.0320X0.1060*%
%ADD66R,0.0910X0.1100*%
%ADD67R,0.0671X0.0671*%
%ADD68C,0.0671*%
%ADD69C,0.2080*%
%ADD70R,0.0671X0.0671*%
%ADD71C,0.0514*%
%ADD72R,0.0514X0.0514*%
%ADD73C,0.1064*%
%ADD74C,0.0500*%
%ADD75C,0.0400*%
%ADD76R,0.1694X0.0867*%
%ADD77R,0.0867X0.1694*%
D67*
X36530Y36680D02*
D03*
Y46380D02*
D03*
Y41380D02*
D03*
X34530Y36680D02*
D03*
Y41380D02*
D03*
Y46380D02*
D03*
D68*
X36530Y35680D02*
D03*
Y34680D02*
D03*
Y45380D02*
D03*
Y44380D02*
D03*
Y40380D02*
D03*
Y39380D02*
D03*
X28730Y46980D02*
D03*
X29730D02*
D03*
X30730D02*
D03*
X31730D02*
D03*
X35530Y36680D02*
D03*
X34530Y35680D02*
D03*
X35530D02*
D03*
X34530Y34680D02*
D03*
X35530D02*
D03*
X32230Y32480D02*
D03*
Y33480D02*
D03*
X33230Y32480D02*
D03*
Y33480D02*
D03*
X34230Y32480D02*
D03*
Y33480D02*
D03*
X35230Y32480D02*
D03*
Y33480D02*
D03*
X36230Y32480D02*
D03*
X35530Y41380D02*
D03*
X34530Y40380D02*
D03*
X35530D02*
D03*
X34530Y39380D02*
D03*
X35530D02*
D03*
Y46380D02*
D03*
X34530Y45380D02*
D03*
X35530D02*
D03*
X34530Y44380D02*
D03*
X35530D02*
D03*
D69*
X14230Y32880D02*
D03*
X48964Y32980D02*
D03*
X14230Y47380D02*
D03*
X48964D02*
D03*
D70*
X32730Y46980D02*
D03*
X36230Y33480D02*
D03*
D71*
X22620Y46730D02*
D03*
Y47230D02*
D03*
X23120Y46730D02*
D03*
Y47230D02*
D03*
X23620Y46730D02*
D03*
Y47230D02*
D03*
X24120Y46730D02*
D03*
Y47230D02*
D03*
X24620Y46730D02*
D03*
D72*
Y47230D02*
D03*
D73*
X13730Y37380D02*
D03*
Y34624D02*
D03*
X15698Y37380D02*
D03*
Y34624D02*
D03*
X13730Y45524D02*
D03*
Y42768D02*
D03*
X15698Y45524D02*
D03*
Y42768D02*
D03*
X49964Y42780D02*
D03*
Y45536D02*
D03*
X47996Y42780D02*
D03*
Y45536D02*
D03*
X49964Y38780D02*
D03*
Y41536D02*
D03*
X47996Y38780D02*
D03*
Y41536D02*
D03*
X49964Y34780D02*
D03*
Y37536D02*
D03*
X47996Y34780D02*
D03*
Y37536D02*
D03*
D74*
X21970Y34150D02*
D03*
X23690D02*
D03*
D75*
X18730Y43380D02*
D03*
X39330Y43930D02*
D03*
X46130Y36530D02*
D03*
X45730D02*
D03*
X38930Y47330D02*
D03*
X39330D02*
D03*
D76*
X46243Y36530D02*
D03*
X42817D02*
D03*
D77*
X39130Y46843D02*
D03*
Y43417D02*
D03*
X18730Y46843D02*
D03*
Y43417D02*
D03*
Y34817D02*
D03*
Y38243D02*
D03*
M02*
