%FSLAX24Y24*%
%MOIN*%
G70*
G01*
G75*
G04 Layer_Physical_Order=2*
G04 Layer_Color=16711680*
%ADD10R,0.0354X0.0315*%
%ADD11R,0.0453X0.0236*%
%ADD12O,0.0827X0.0276*%
%ADD13R,0.0315X0.0354*%
%ADD14R,0.2185X0.2677*%
%ADD15R,0.0394X0.0945*%
%ADD16R,0.2200X0.0830*%
%ADD17R,0.0433X0.0551*%
%ADD18R,0.0551X0.0433*%
%ADD19R,0.0394X0.0512*%
%ADD20R,0.0236X0.0453*%
%ADD21R,0.1575X0.1181*%
%ADD22R,0.0571X0.0236*%
%ADD23R,0.1378X0.0787*%
%ADD24O,0.0827X0.0118*%
%ADD25O,0.0118X0.0827*%
%ADD26R,0.0532X0.0846*%
%ADD27R,0.1350X0.1850*%
%ADD28R,0.0200X0.0940*%
%ADD29R,0.0790X0.0980*%
%ADD30C,0.0080*%
%ADD31C,0.0500*%
%ADD32C,0.0100*%
%ADD33C,0.0120*%
%ADD34C,0.0800*%
%ADD35C,0.0200*%
%ADD36R,0.0591X0.0591*%
%ADD37C,0.0591*%
%ADD38C,0.2000*%
%ADD39R,0.0591X0.0591*%
%ADD40C,0.0394*%
%ADD41R,0.0394X0.0394*%
%ADD42C,0.0984*%
%ADD43C,0.0320*%
%ADD44R,0.1614X0.0787*%
%ADD45R,0.0787X0.1614*%
G36*
X25916Y46796D02*
Y46383D01*
X25885Y46345D01*
X25692D01*
X24887Y47151D01*
Y47497D01*
X24541D01*
X24224Y47814D01*
X24254Y47888D01*
X24824D01*
X25916Y46796D01*
D02*
G37*
G36*
X49902Y48492D02*
X50067Y48442D01*
X50219Y48361D01*
X50352Y48252D01*
X50461Y48118D01*
X50542Y47966D01*
X50592Y47802D01*
X50609Y47636D01*
X50608Y47630D01*
Y45568D01*
X50533Y45563D01*
X50530Y45563D01*
X50528Y45563D01*
X50528Y45563D01*
X50525Y45586D01*
Y45586D01*
X50512Y45683D01*
X50455Y45819D01*
X50365Y45937D01*
X50248Y46027D01*
X50111Y46084D01*
X49964Y46103D01*
X49818Y46084D01*
X49681Y46027D01*
X49563Y45937D01*
X49473Y45819D01*
X49417Y45683D01*
X49397Y45536D01*
X49417Y45389D01*
X49473Y45252D01*
X49563Y45135D01*
X49681Y45045D01*
X49818Y44988D01*
X49964Y44969D01*
X50111Y44988D01*
X50248Y45045D01*
X50365Y45135D01*
X50455Y45252D01*
X50512Y45389D01*
X50525Y45486D01*
Y45486D01*
X50528Y45509D01*
X50528Y45509D01*
X50530Y45509D01*
X50533Y45508D01*
X50608Y45504D01*
Y42812D01*
X50533Y42807D01*
X50530Y42807D01*
X50528Y42807D01*
X50528Y42807D01*
X50525Y42830D01*
Y42830D01*
X50512Y42927D01*
X50455Y43063D01*
X50365Y43181D01*
X50248Y43271D01*
X50111Y43328D01*
X49964Y43347D01*
X49818Y43328D01*
X49681Y43271D01*
X49563Y43181D01*
X49473Y43063D01*
X49417Y42927D01*
X49397Y42780D01*
X49417Y42633D01*
X49473Y42497D01*
X49563Y42379D01*
X49681Y42289D01*
X49818Y42232D01*
X49964Y42213D01*
X50111Y42232D01*
X50248Y42289D01*
X50365Y42379D01*
X50455Y42497D01*
X50512Y42633D01*
X50525Y42730D01*
Y42730D01*
X50528Y42753D01*
X50528Y42753D01*
X50530Y42753D01*
X50533Y42753D01*
X50608Y42748D01*
Y41568D01*
X50533Y41563D01*
X50530Y41563D01*
X50528Y41563D01*
X50528Y41563D01*
X50525Y41586D01*
Y41586D01*
X50512Y41683D01*
X50455Y41819D01*
X50365Y41937D01*
X50248Y42027D01*
X50111Y42084D01*
X49964Y42103D01*
X49818Y42084D01*
X49681Y42027D01*
X49563Y41937D01*
X49473Y41819D01*
X49417Y41683D01*
X49397Y41536D01*
X49417Y41389D01*
X49473Y41252D01*
X49563Y41135D01*
X49681Y41045D01*
X49818Y40988D01*
X49964Y40969D01*
X50111Y40988D01*
X50248Y41045D01*
X50365Y41135D01*
X50455Y41252D01*
X50512Y41389D01*
X50525Y41486D01*
Y41486D01*
X50528Y41509D01*
X50528Y41509D01*
X50530Y41509D01*
X50533Y41508D01*
X50608Y41504D01*
Y38812D01*
X50533Y38807D01*
X50530Y38807D01*
X50528Y38807D01*
X50528Y38807D01*
X50525Y38830D01*
Y38830D01*
X50512Y38927D01*
X50455Y39063D01*
X50365Y39181D01*
X50248Y39271D01*
X50111Y39328D01*
X49964Y39347D01*
X49818Y39328D01*
X49681Y39271D01*
X49563Y39181D01*
X49473Y39063D01*
X49417Y38927D01*
X49397Y38780D01*
X49417Y38633D01*
X49473Y38497D01*
X49563Y38379D01*
X49681Y38289D01*
X49818Y38232D01*
X49964Y38213D01*
X50111Y38232D01*
X50248Y38289D01*
X50365Y38379D01*
X50455Y38497D01*
X50512Y38633D01*
X50525Y38730D01*
Y38730D01*
X50528Y38753D01*
X50528Y38753D01*
X50530Y38753D01*
X50533Y38753D01*
X50608Y38748D01*
Y37568D01*
X50533Y37563D01*
X50530Y37563D01*
X50528Y37563D01*
X50528Y37563D01*
X50525Y37586D01*
Y37586D01*
X50512Y37683D01*
X50455Y37819D01*
X50365Y37937D01*
X50248Y38027D01*
X50111Y38084D01*
X49964Y38103D01*
X49818Y38084D01*
X49681Y38027D01*
X49563Y37937D01*
X49473Y37819D01*
X49417Y37683D01*
X49397Y37536D01*
X49417Y37389D01*
X49473Y37252D01*
X49563Y37135D01*
X49681Y37045D01*
X49818Y36988D01*
X49964Y36969D01*
X50111Y36988D01*
X50248Y37045D01*
X50365Y37135D01*
X50455Y37252D01*
X50512Y37389D01*
X50525Y37486D01*
Y37486D01*
X50528Y37509D01*
X50528Y37509D01*
X50530Y37509D01*
X50533Y37508D01*
X50608Y37504D01*
Y34812D01*
X50533Y34807D01*
X50530Y34807D01*
X50528Y34807D01*
X50528Y34807D01*
X50525Y34830D01*
Y34830D01*
X50512Y34927D01*
X50455Y35063D01*
X50365Y35181D01*
X50248Y35271D01*
X50111Y35328D01*
X49964Y35347D01*
X49818Y35328D01*
X49681Y35271D01*
X49563Y35181D01*
X49473Y35063D01*
X49417Y34927D01*
X49397Y34780D01*
X49417Y34633D01*
X49473Y34497D01*
X49563Y34379D01*
X49681Y34289D01*
X49818Y34232D01*
X49964Y34213D01*
X50111Y34232D01*
X50248Y34289D01*
X50365Y34379D01*
X50455Y34497D01*
X50512Y34633D01*
X50525Y34730D01*
Y34730D01*
X50528Y34753D01*
X50528Y34753D01*
X50530Y34753D01*
X50533Y34753D01*
X50608Y34748D01*
Y32630D01*
X50611Y32613D01*
X50596Y32458D01*
X50546Y32294D01*
X50464Y32142D01*
X50355Y32008D01*
X50222Y31899D01*
X50070Y31818D01*
X49905Y31768D01*
X49739Y31751D01*
X49733Y31752D01*
X36536D01*
X36520Y31832D01*
X36539Y31845D01*
X37017Y32323D01*
X37080Y32310D01*
X37170Y32328D01*
X37246Y32379D01*
X37297Y32455D01*
X37315Y32545D01*
X37297Y32634D01*
X37246Y32711D01*
X37170Y32761D01*
X37080Y32779D01*
X36990Y32761D01*
X36914Y32711D01*
X36863Y32634D01*
X36845Y32545D01*
X36858Y32481D01*
X36576Y32199D01*
X36515Y32252D01*
X36549Y32296D01*
X36586Y32385D01*
X36598Y32480D01*
X36586Y32575D01*
X36549Y32664D01*
X36491Y32741D01*
X36414Y32799D01*
X36325Y32836D01*
X36230Y32848D01*
X36135Y32836D01*
X36063Y32806D01*
X35812Y33057D01*
X35867Y33115D01*
X36595D01*
Y33845D01*
X35950D01*
X35561Y34235D01*
X35589Y34319D01*
X35625Y34324D01*
X35714Y34361D01*
X35791Y34419D01*
X35849Y34496D01*
X35886Y34585D01*
X35898Y34680D01*
X35886Y34775D01*
X35849Y34864D01*
X35791Y34941D01*
X35714Y34999D01*
X35625Y35036D01*
X35530Y35048D01*
X35435Y35036D01*
X35346Y34999D01*
X35269Y34941D01*
X35211Y34864D01*
X35174Y34775D01*
X35162Y34680D01*
X35174Y34585D01*
X35211Y34496D01*
X35233Y34467D01*
X35194Y34387D01*
X34866D01*
X34827Y34467D01*
X34849Y34496D01*
X34886Y34585D01*
X34898Y34680D01*
X34886Y34775D01*
X34849Y34864D01*
X34791Y34941D01*
X34714Y34999D01*
X34625Y35036D01*
X34530Y35048D01*
X34435Y35036D01*
X34346Y34999D01*
X34269Y34941D01*
X34211Y34864D01*
X34181Y34792D01*
X33895D01*
X31952Y36735D01*
Y37151D01*
X32026Y37181D01*
X33607Y35601D01*
X33643Y35576D01*
X33686Y35568D01*
X33686Y35568D01*
X34181D01*
X34211Y35496D01*
X34269Y35419D01*
X34346Y35361D01*
X34435Y35324D01*
X34530Y35312D01*
X34625Y35324D01*
X34714Y35361D01*
X34791Y35419D01*
X34849Y35496D01*
X34886Y35585D01*
X34898Y35680D01*
X34886Y35775D01*
X34849Y35864D01*
X34791Y35941D01*
X34714Y35999D01*
X34625Y36036D01*
X34530Y36048D01*
X34435Y36036D01*
X34346Y35999D01*
X34269Y35941D01*
X34211Y35864D01*
X34181Y35792D01*
X33733D01*
X33031Y36494D01*
X33061Y36568D01*
X34165D01*
Y36315D01*
X34895D01*
Y37045D01*
X34165D01*
Y36792D01*
X32945D01*
X30808Y38929D01*
X30771Y38954D01*
X30728Y38962D01*
X30728Y38962D01*
X30319D01*
X29277Y40004D01*
X29307Y40078D01*
X29440D01*
X29440Y40078D01*
X29483Y40086D01*
X29519Y40111D01*
X29869Y40461D01*
X29869Y40461D01*
X29894Y40497D01*
X29902Y40540D01*
X29902Y40540D01*
Y40594D01*
X30248Y40939D01*
X30328Y40906D01*
Y40004D01*
X30274Y39968D01*
X30223Y39892D01*
X30205Y39802D01*
X30223Y39712D01*
X30274Y39636D01*
X30350Y39585D01*
X30440Y39568D01*
X30530Y39585D01*
X30606Y39636D01*
X30657Y39712D01*
X30675Y39802D01*
X30657Y39892D01*
X30606Y39968D01*
X30552Y40004D01*
Y40917D01*
X33903Y44268D01*
X34181D01*
X34211Y44196D01*
X34269Y44119D01*
X34346Y44061D01*
X34435Y44024D01*
X34530Y44012D01*
X34625Y44024D01*
X34714Y44061D01*
X34791Y44119D01*
X34849Y44196D01*
X34886Y44285D01*
X34898Y44380D01*
X34886Y44475D01*
X34849Y44564D01*
X34791Y44641D01*
X34714Y44699D01*
X34625Y44736D01*
X34530Y44748D01*
X34435Y44736D01*
X34346Y44699D01*
X34269Y44641D01*
X34211Y44564D01*
X34181Y44492D01*
X33914D01*
X33881Y44572D01*
X34363Y45054D01*
X34435Y45024D01*
X34530Y45012D01*
X34625Y45024D01*
X34714Y45061D01*
X34791Y45119D01*
X34849Y45196D01*
X34886Y45285D01*
X34898Y45380D01*
X34886Y45475D01*
X34849Y45564D01*
X34791Y45641D01*
X34714Y45699D01*
X34625Y45736D01*
X34530Y45748D01*
X34435Y45736D01*
X34346Y45699D01*
X34269Y45641D01*
X34211Y45564D01*
X34174Y45475D01*
X34162Y45380D01*
X34174Y45285D01*
X34204Y45213D01*
X29711Y40719D01*
X29686Y40683D01*
X29678Y40640D01*
X29678Y40640D01*
Y40586D01*
X29597Y40506D01*
X29510Y40532D01*
X29507Y40550D01*
X29456Y40626D01*
X29402Y40662D01*
Y41094D01*
X34323Y46015D01*
X34895D01*
Y46745D01*
X34165D01*
Y46173D01*
X29211Y41219D01*
X29186Y41183D01*
X29178Y41140D01*
X29178Y41140D01*
Y40662D01*
X29124Y40626D01*
X29073Y40550D01*
X29071Y40540D01*
X28985Y40514D01*
X28949Y40549D01*
X28913Y40574D01*
X28870Y40582D01*
X28870Y40582D01*
X28462D01*
X28426Y40636D01*
X28350Y40687D01*
X28260Y40705D01*
X28180Y40689D01*
X28148Y40698D01*
X28100Y40724D01*
Y41428D01*
X28100Y41428D01*
X28092Y41471D01*
X28067Y41507D01*
X28067Y41507D01*
X27856Y41719D01*
X27882Y41806D01*
X27920Y41813D01*
X27996Y41864D01*
X28047Y41940D01*
X28065Y42030D01*
X28052Y42093D01*
X28226Y42268D01*
X29730D01*
X29730Y42268D01*
X29773Y42276D01*
X29809Y42301D01*
X32417Y44908D01*
X32480Y44895D01*
X32570Y44913D01*
X32646Y44964D01*
X32697Y45040D01*
X32715Y45130D01*
X32697Y45220D01*
X32646Y45296D01*
X32570Y45347D01*
X32480Y45365D01*
X32390Y45347D01*
X32314Y45296D01*
X32263Y45220D01*
X32245Y45130D01*
X32258Y45067D01*
X29684Y42492D01*
X28180D01*
X28180Y42492D01*
X28137Y42484D01*
X28101Y42459D01*
X28101Y42459D01*
X27893Y42252D01*
X27830Y42265D01*
X27764Y42251D01*
X27749Y42260D01*
X27710Y42299D01*
X27701Y42314D01*
X27715Y42380D01*
X27697Y42470D01*
X27646Y42546D01*
X27570Y42597D01*
X27480Y42615D01*
X27459Y42610D01*
X26073Y43996D01*
Y45910D01*
X26062Y45961D01*
X26036Y46000D01*
X26044Y46035D01*
X26062Y46080D01*
X28065D01*
X28112Y46006D01*
X28112Y46000D01*
X28081Y45979D01*
X28081Y45979D01*
X27881Y45779D01*
X27856Y45743D01*
X27848Y45700D01*
X27848Y45700D01*
Y44616D01*
X27063Y43832D01*
X27000Y43845D01*
X26910Y43827D01*
X26834Y43776D01*
X26783Y43700D01*
X26765Y43610D01*
X26783Y43520D01*
X26834Y43444D01*
X26910Y43393D01*
X27000Y43375D01*
X27090Y43393D01*
X27166Y43444D01*
X27217Y43520D01*
X27225Y43563D01*
X27307D01*
X27313Y43530D01*
X27364Y43454D01*
X27440Y43403D01*
X27530Y43385D01*
X27620Y43403D01*
X27696Y43454D01*
X27732Y43508D01*
X29490D01*
X29490Y43508D01*
X29533Y43516D01*
X29569Y43541D01*
X30579Y44551D01*
X30579Y44551D01*
X30604Y44587D01*
X30612Y44630D01*
X30612Y44630D01*
Y46552D01*
X30692Y46617D01*
X30730Y46612D01*
X30825Y46624D01*
X30914Y46661D01*
X30991Y46719D01*
X31049Y46796D01*
X31086Y46885D01*
X31098Y46980D01*
X31086Y47075D01*
X31049Y47164D01*
X30991Y47241D01*
X30914Y47299D01*
X30825Y47336D01*
X30730Y47348D01*
X30635Y47336D01*
X30546Y47299D01*
X30469Y47241D01*
X30413Y47166D01*
X30378Y47160D01*
X30325Y47166D01*
X30309Y47189D01*
X30309Y47189D01*
X30034Y47465D01*
X29998Y47489D01*
X29955Y47497D01*
X29955Y47497D01*
X29535D01*
X29492Y47489D01*
X29456Y47465D01*
X29456Y47465D01*
X29154Y47163D01*
X29108Y47172D01*
X29068Y47189D01*
X29012Y47262D01*
X28929Y47325D01*
X28833Y47365D01*
X28780Y47372D01*
Y46980D01*
X28730D01*
Y46930D01*
X28338D01*
X28345Y46877D01*
X28385Y46781D01*
X28448Y46698D01*
X28531Y46635D01*
X28622Y46597D01*
X28628Y46593D01*
X28660Y46510D01*
X28650Y46495D01*
X26140D01*
Y46842D01*
X26131Y46885D01*
X26107Y46921D01*
X26107Y46921D01*
X24949Y48079D01*
X24913Y48104D01*
X24870Y48112D01*
X24870Y48112D01*
X21900D01*
X21857Y48104D01*
X21821Y48079D01*
X21821Y48079D01*
X21501Y47759D01*
X21476Y47723D01*
X21468Y47680D01*
X21468Y47680D01*
Y47266D01*
X20414Y46212D01*
X20230D01*
X20187Y46204D01*
X20150Y46179D01*
X20150Y46179D01*
X19865Y45894D01*
X19841Y45858D01*
X19832Y45815D01*
X19832Y45815D01*
Y43716D01*
X19832Y43716D01*
X19841Y43673D01*
X19865Y43637D01*
X21109Y42392D01*
X21076Y42312D01*
X18950D01*
X18949Y42320D01*
X18898Y42396D01*
X18846Y42430D01*
X18871Y42510D01*
X19224D01*
Y43367D01*
X18236D01*
Y42510D01*
X18594D01*
X18618Y42430D01*
X18566Y42396D01*
X18516Y42320D01*
X18498Y42230D01*
X18516Y42140D01*
X18566Y42064D01*
X18642Y42013D01*
X18732Y41995D01*
X18822Y42013D01*
X18898Y42064D01*
X18914Y42088D01*
X21632D01*
X21639Y42081D01*
X21639Y42081D01*
X21675Y42056D01*
X21718Y42048D01*
X21718Y42048D01*
X22788D01*
X22788Y42048D01*
X22816Y42053D01*
X23637Y41233D01*
X23604Y41153D01*
X23228D01*
X23206Y41186D01*
X23130Y41237D01*
X23040Y41255D01*
X22950Y41237D01*
X22874Y41186D01*
X22823Y41110D01*
X22805Y41020D01*
X22823Y40930D01*
X22874Y40854D01*
X22950Y40803D01*
X23040Y40785D01*
X23130Y40803D01*
X23206Y40854D01*
X23228Y40887D01*
X26098D01*
X26149Y40898D01*
X26192Y40926D01*
X26232Y40966D01*
X26297Y40947D01*
X26313Y40934D01*
X26360Y40864D01*
X26390Y40844D01*
X27274Y39960D01*
Y38202D01*
X27274Y38202D01*
X27283Y38159D01*
X27307Y38123D01*
X27609Y37821D01*
X27645Y37796D01*
X27688Y37788D01*
X27688Y37788D01*
X28045D01*
X28153Y37681D01*
X28153Y37681D01*
X28189Y37656D01*
X28232Y37648D01*
X28232Y37648D01*
X29766D01*
X29766Y37648D01*
X29809Y37656D01*
X29845Y37681D01*
X30219Y38054D01*
X30263Y38040D01*
X30298Y38020D01*
X30313Y37940D01*
X30364Y37864D01*
X30418Y37828D01*
Y36915D01*
X30418Y36915D01*
X30426Y36872D01*
X30451Y36836D01*
X31528Y35759D01*
Y34240D01*
X31528Y34240D01*
X31536Y34197D01*
X31561Y34161D01*
X31915Y33806D01*
X31915Y33806D01*
X31920Y33803D01*
X31925Y33796D01*
X31942Y33717D01*
X31940Y33702D01*
X31911Y33664D01*
X31874Y33575D01*
X31862Y33480D01*
X31874Y33385D01*
X31911Y33296D01*
X31969Y33219D01*
X32046Y33161D01*
X32135Y33124D01*
X32230Y33112D01*
X32325Y33124D01*
X32414Y33161D01*
X32443Y33183D01*
X32523Y33144D01*
Y33075D01*
X32523Y33075D01*
X32532Y33032D01*
X32556Y32995D01*
X32904Y32647D01*
X32874Y32575D01*
X32862Y32480D01*
X32874Y32385D01*
X32911Y32296D01*
X32969Y32219D01*
X33046Y32161D01*
X33135Y32124D01*
X33190Y32117D01*
X33184Y32037D01*
X32402D01*
X32386Y32117D01*
X32429Y32135D01*
X32512Y32198D01*
X32575Y32281D01*
X32615Y32377D01*
X32622Y32430D01*
X32230D01*
Y32480D01*
X32180D01*
Y32872D01*
X32127Y32865D01*
X32031Y32825D01*
X31948Y32762D01*
X31885Y32679D01*
X31845Y32583D01*
X31834Y32498D01*
X31787Y32472D01*
X31752Y32466D01*
X30824Y33395D01*
Y33934D01*
X30949Y34059D01*
X30949Y34059D01*
X30974Y34095D01*
X30982Y34138D01*
Y34362D01*
X30974Y34405D01*
X30949Y34441D01*
X30949Y34441D01*
X30791Y34599D01*
X30755Y34624D01*
X30712Y34632D01*
X30712Y34632D01*
X28657D01*
X27632Y35657D01*
Y35752D01*
X27632Y35752D01*
X27624Y35795D01*
X27599Y35831D01*
X27599Y35831D01*
X27592Y35838D01*
Y36780D01*
X27592Y36780D01*
X27584Y36823D01*
X27559Y36859D01*
X27559Y36859D01*
X27352Y37067D01*
X27365Y37130D01*
X27347Y37220D01*
X27296Y37296D01*
X27220Y37347D01*
X27130Y37365D01*
X27040Y37347D01*
X26964Y37296D01*
X26913Y37220D01*
X26895Y37130D01*
X26913Y37040D01*
X26964Y36964D01*
X27040Y36913D01*
X27130Y36895D01*
X27193Y36908D01*
X27368Y36734D01*
Y35927D01*
X27288Y35867D01*
X27250Y35875D01*
X27211Y35867D01*
X25807Y37270D01*
Y38942D01*
X25841Y38964D01*
X25891Y39040D01*
X25909Y39130D01*
X25891Y39220D01*
X25841Y39296D01*
X25764Y39347D01*
X25675Y39365D01*
X25585Y39347D01*
X25509Y39296D01*
X25458Y39220D01*
X25440Y39130D01*
X25458Y39040D01*
X25509Y38964D01*
X25542Y38942D01*
Y37215D01*
X25552Y37165D01*
X25581Y37122D01*
X27023Y35679D01*
X27015Y35640D01*
X27033Y35550D01*
X27084Y35474D01*
X27160Y35423D01*
X27250Y35405D01*
X27289Y35413D01*
X28546Y34156D01*
X28589Y34128D01*
X28640Y34117D01*
X30412D01*
X30434Y34084D01*
X30510Y34033D01*
X30528Y34030D01*
X30600Y33980D01*
X30600Y33980D01*
Y33348D01*
X30600Y33348D01*
X30608Y33305D01*
X30633Y33269D01*
X32056Y31845D01*
X32056Y31845D01*
X32076Y31832D01*
X32059Y31752D01*
X14459D01*
X14450Y31832D01*
X14562Y31859D01*
X14717Y31924D01*
X14861Y32012D01*
X14989Y32121D01*
X15098Y32249D01*
X15186Y32393D01*
X15251Y32548D01*
X15290Y32712D01*
X15303Y32880D01*
X15290Y33048D01*
X15251Y33212D01*
X15186Y33367D01*
X15098Y33511D01*
X14989Y33639D01*
X14861Y33748D01*
X14717Y33836D01*
X14562Y33901D01*
X14398Y33940D01*
X14230Y33953D01*
X14062Y33940D01*
X13898Y33901D01*
X13743Y33836D01*
X13599Y33748D01*
X13471Y33639D01*
X13362Y33511D01*
X13274Y33367D01*
X13209Y33212D01*
X13170Y33048D01*
X13157Y32880D01*
X13170Y32712D01*
X13209Y32548D01*
X13274Y32393D01*
X13362Y32249D01*
X13471Y32121D01*
X13599Y32012D01*
X13743Y31924D01*
X13898Y31859D01*
X14010Y31832D01*
X14001Y31752D01*
X13825D01*
X13820Y31751D01*
X13653Y31768D01*
X13489Y31818D01*
X13337Y31899D01*
X13203Y32008D01*
X13094Y32142D01*
X13013Y32294D01*
X12963Y32458D01*
X12946Y32625D01*
X12947Y32630D01*
Y47630D01*
X12946Y47635D01*
X12963Y47802D01*
X13013Y47966D01*
X13094Y48118D01*
X13203Y48252D01*
X13337Y48361D01*
X13489Y48442D01*
X13653Y48492D01*
X13820Y48509D01*
X13825Y48508D01*
X14001D01*
X14010Y48428D01*
X13898Y48401D01*
X13743Y48336D01*
X13599Y48248D01*
X13471Y48139D01*
X13362Y48011D01*
X13274Y47867D01*
X13209Y47712D01*
X13170Y47548D01*
X13157Y47380D01*
X13170Y47212D01*
X13209Y47048D01*
X13274Y46893D01*
X13362Y46749D01*
X13471Y46621D01*
X13599Y46512D01*
X13743Y46424D01*
X13898Y46359D01*
X14062Y46320D01*
X14230Y46307D01*
X14398Y46320D01*
X14562Y46359D01*
X14717Y46424D01*
X14861Y46512D01*
X14989Y46621D01*
X15098Y46749D01*
X15186Y46893D01*
X15251Y47048D01*
X15290Y47212D01*
X15303Y47380D01*
X15290Y47548D01*
X15251Y47712D01*
X15186Y47867D01*
X15098Y48011D01*
X14989Y48139D01*
X14861Y48248D01*
X14717Y48336D01*
X14562Y48401D01*
X14450Y48428D01*
X14459Y48508D01*
X48735D01*
X48744Y48428D01*
X48633Y48401D01*
X48477Y48336D01*
X48333Y48248D01*
X48205Y48139D01*
X48096Y48011D01*
X48008Y47867D01*
X47943Y47712D01*
X47904Y47548D01*
X47891Y47380D01*
X47904Y47212D01*
X47943Y47048D01*
X48008Y46893D01*
X48096Y46749D01*
X48205Y46621D01*
X48333Y46512D01*
X48477Y46424D01*
X48633Y46359D01*
X48796Y46320D01*
X48964Y46307D01*
X49132Y46320D01*
X49296Y46359D01*
X49452Y46424D01*
X49595Y46512D01*
X49723Y46621D01*
X49833Y46749D01*
X49921Y46893D01*
X49985Y47048D01*
X50024Y47212D01*
X50038Y47380D01*
X50024Y47548D01*
X49985Y47712D01*
X49921Y47867D01*
X49833Y48011D01*
X49723Y48139D01*
X49595Y48248D01*
X49452Y48336D01*
X49296Y48401D01*
X49184Y48428D01*
X49193Y48508D01*
X49730D01*
X49735Y48509D01*
X49902Y48492D01*
D02*
G37*
G36*
X25544Y46119D02*
X25807Y45855D01*
Y43941D01*
X25818Y43891D01*
X25846Y43848D01*
X27196Y42498D01*
X27195Y42493D01*
X27106Y42468D01*
X24732Y44842D01*
Y46488D01*
X24755Y46497D01*
X24810Y46540D01*
X24853Y46595D01*
X24880Y46660D01*
X24881Y46668D01*
X24966Y46697D01*
X25544Y46119D01*
D02*
G37*
G36*
X30098Y46770D02*
X30118Y46760D01*
Y45258D01*
X30064Y45222D01*
X30013Y45146D01*
X29995Y45056D01*
X30013Y44966D01*
X30064Y44890D01*
X30140Y44839D01*
X30230Y44821D01*
X30308Y44837D01*
X30388Y44803D01*
Y44676D01*
X29444Y43732D01*
X27732D01*
X27696Y43786D01*
X27620Y43837D01*
X27530Y43855D01*
X27513Y43851D01*
X27473Y43925D01*
X28039Y44491D01*
X28064Y44527D01*
X28072Y44570D01*
X28072Y44570D01*
Y45654D01*
X28160Y45741D01*
X28234Y45734D01*
X28310Y45683D01*
X28400Y45665D01*
X28490Y45683D01*
X28566Y45734D01*
X28617Y45810D01*
X28635Y45900D01*
X28617Y45990D01*
X28610Y46000D01*
X28653Y46080D01*
X28963D01*
X29013Y46090D01*
X29056Y46119D01*
X29583Y46646D01*
X29635Y46624D01*
X29730Y46612D01*
X29825Y46624D01*
X29914Y46661D01*
X29991Y46719D01*
X30038Y46781D01*
X30098Y46770D01*
D02*
G37*
G36*
X22012Y47879D02*
X22041Y47806D01*
X22010Y47775D01*
X21981Y47732D01*
X21971Y47681D01*
Y46955D01*
X21970Y46955D01*
X21880Y46937D01*
X21804Y46886D01*
X21753Y46810D01*
X21735Y46720D01*
X21753Y46630D01*
X21804Y46554D01*
X21880Y46503D01*
X21970Y46485D01*
X22060Y46503D01*
X22136Y46554D01*
X22187Y46630D01*
X22205Y46720D01*
X22197Y46759D01*
X22197Y46760D01*
X22226Y46803D01*
X22236Y46853D01*
Y47626D01*
X22295Y47685D01*
X23977D01*
X24060Y47602D01*
X24049Y47548D01*
X24034Y47516D01*
X23970Y47489D01*
X23908Y47442D01*
X23832D01*
X23770Y47489D01*
X23698Y47519D01*
X23670Y47523D01*
Y47230D01*
X23570D01*
Y47523D01*
X23543Y47519D01*
X23470Y47489D01*
X23408Y47442D01*
X23402Y47433D01*
X23310Y47420D01*
X23255Y47463D01*
X23190Y47490D01*
X23120Y47499D01*
X23050Y47490D01*
X22986Y47463D01*
X22930Y47420D01*
X22919Y47406D01*
X22822D01*
X22810Y47420D01*
X22755Y47463D01*
X22690Y47490D01*
X22620Y47499D01*
X22550Y47490D01*
X22486Y47463D01*
X22430Y47420D01*
X22387Y47365D01*
X22360Y47300D01*
X22351Y47230D01*
X22360Y47160D01*
X22387Y47095D01*
X22430Y47040D01*
X22444Y47029D01*
Y46931D01*
X22430Y46920D01*
X22387Y46865D01*
X22360Y46800D01*
X22351Y46730D01*
X22360Y46660D01*
X22387Y46595D01*
X22430Y46540D01*
X22486Y46497D01*
X22508Y46488D01*
Y46372D01*
X22508Y46372D01*
X22517Y46329D01*
X22541Y46292D01*
X24944Y43889D01*
X24931Y43845D01*
X24908Y43812D01*
X24533D01*
X24465Y43880D01*
X24447Y43970D01*
X24396Y44046D01*
X24320Y44097D01*
X24230Y44115D01*
X24140Y44097D01*
X24064Y44046D01*
X24013Y43970D01*
X23995Y43880D01*
X24013Y43790D01*
X24064Y43714D01*
X24140Y43663D01*
X24230Y43645D01*
X24293Y43658D01*
X24331Y43621D01*
X24331Y43621D01*
X24367Y43596D01*
X24410Y43588D01*
X24557D01*
X24591Y43508D01*
X24575Y43430D01*
X24593Y43340D01*
X24644Y43264D01*
X24646Y43245D01*
X23801Y42399D01*
X23776Y42363D01*
X23768Y42320D01*
X23768Y42320D01*
Y41732D01*
X23714Y41696D01*
X23670Y41630D01*
X23589Y41597D01*
X22907Y42279D01*
X22871Y42304D01*
X22828Y42312D01*
X22785Y42304D01*
X22749Y42279D01*
X22749Y42279D01*
X22742Y42272D01*
X22083D01*
X22049Y42352D01*
X22065Y42430D01*
X22047Y42520D01*
X21996Y42596D01*
X21920Y42647D01*
X21830Y42665D01*
X21740Y42647D01*
X21664Y42596D01*
X21628Y42542D01*
X21276D01*
X20056Y43762D01*
Y45768D01*
X20276Y45988D01*
X20460D01*
X20460Y45988D01*
X20503Y45996D01*
X20539Y46021D01*
X21659Y47141D01*
X21659Y47141D01*
X21684Y47177D01*
X21692Y47220D01*
Y47634D01*
X21944Y47886D01*
X22012Y47879D01*
D02*
G37*
G36*
X31578Y37205D02*
Y36626D01*
X31578Y36626D01*
X31586Y36583D01*
X31611Y36547D01*
X32904Y35253D01*
X32860Y35187D01*
X32770Y35204D01*
X32680Y35187D01*
X32604Y35136D01*
X32553Y35060D01*
X32535Y34970D01*
X32553Y34880D01*
X32604Y34804D01*
X32680Y34753D01*
X32770Y34735D01*
X32833Y34748D01*
X33701Y33881D01*
X33701Y33881D01*
X33737Y33856D01*
X33780Y33848D01*
X33780Y33848D01*
X33978D01*
X34005Y33768D01*
X33969Y33741D01*
X33911Y33664D01*
X33874Y33575D01*
X33862Y33480D01*
X33874Y33385D01*
X33911Y33296D01*
X33969Y33219D01*
X34046Y33161D01*
X34135Y33124D01*
X34230Y33112D01*
X34325Y33124D01*
X34414Y33161D01*
X34491Y33219D01*
X34549Y33296D01*
X34586Y33385D01*
X34598Y33480D01*
X34586Y33575D01*
X34549Y33664D01*
X34491Y33741D01*
X34455Y33768D01*
X34482Y33848D01*
X34704D01*
X34904Y33647D01*
X34874Y33575D01*
X34862Y33480D01*
X34874Y33385D01*
X34911Y33296D01*
X34969Y33219D01*
X35046Y33161D01*
X35135Y33124D01*
X35230Y33112D01*
X35325Y33124D01*
X35414Y33161D01*
X35443Y33183D01*
X35523Y33144D01*
Y33075D01*
X35523Y33075D01*
X35532Y33032D01*
X35556Y32995D01*
X35904Y32647D01*
X35874Y32575D01*
X35862Y32480D01*
X35874Y32385D01*
X35911Y32296D01*
X35969Y32219D01*
X36046Y32161D01*
X36135Y32124D01*
X36190Y32117D01*
X36184Y32037D01*
X35276D01*
X35270Y32117D01*
X35325Y32124D01*
X35414Y32161D01*
X35491Y32219D01*
X35549Y32296D01*
X35586Y32385D01*
X35598Y32480D01*
X35586Y32575D01*
X35549Y32664D01*
X35491Y32741D01*
X35414Y32799D01*
X35325Y32836D01*
X35230Y32848D01*
X35135Y32836D01*
X35046Y32799D01*
X34969Y32741D01*
X34911Y32664D01*
X34874Y32575D01*
X34862Y32480D01*
X34874Y32385D01*
X34911Y32296D01*
X34969Y32219D01*
X35046Y32161D01*
X35135Y32124D01*
X35190Y32117D01*
X35184Y32037D01*
X34276D01*
X34270Y32117D01*
X34325Y32124D01*
X34414Y32161D01*
X34491Y32219D01*
X34549Y32296D01*
X34586Y32385D01*
X34598Y32480D01*
X34586Y32575D01*
X34549Y32664D01*
X34491Y32741D01*
X34414Y32799D01*
X34325Y32836D01*
X34230Y32848D01*
X34135Y32836D01*
X34046Y32799D01*
X33969Y32741D01*
X33911Y32664D01*
X33874Y32575D01*
X33862Y32480D01*
X33874Y32385D01*
X33911Y32296D01*
X33969Y32219D01*
X34046Y32161D01*
X34135Y32124D01*
X34190Y32117D01*
X34184Y32037D01*
X33276D01*
X33270Y32117D01*
X33325Y32124D01*
X33414Y32161D01*
X33491Y32219D01*
X33549Y32296D01*
X33586Y32385D01*
X33598Y32480D01*
X33586Y32575D01*
X33549Y32664D01*
X33491Y32741D01*
X33414Y32799D01*
X33325Y32836D01*
X33230Y32848D01*
X33135Y32836D01*
X33063Y32806D01*
X32747Y33121D01*
Y33760D01*
X32747Y33760D01*
X32739Y33803D01*
X32715Y33839D01*
X32715Y33839D01*
X32589Y33965D01*
X32553Y33989D01*
X32510Y33997D01*
X32510Y33997D01*
X32041D01*
X31752Y34286D01*
Y35805D01*
X31752Y35805D01*
X31744Y35848D01*
X31719Y35884D01*
X30642Y36962D01*
Y37828D01*
X30696Y37864D01*
X30740Y37930D01*
X30821Y37963D01*
X31578Y37205D01*
D02*
G37*
%LPC*%
G36*
X18680Y39150D02*
X18236D01*
Y38293D01*
X18680D01*
Y39150D01*
D02*
G37*
G36*
X33330Y40065D02*
X33240Y40047D01*
X33164Y39996D01*
X33113Y39920D01*
X33095Y39830D01*
X33113Y39740D01*
X33164Y39664D01*
X33218Y39628D01*
Y39130D01*
X33218Y39130D01*
X33226Y39087D01*
X33251Y39051D01*
X33508Y38793D01*
X33495Y38730D01*
X33513Y38640D01*
X33564Y38564D01*
X33640Y38513D01*
X33730Y38495D01*
X33820Y38513D01*
X33896Y38564D01*
X33947Y38640D01*
X33965Y38730D01*
X33947Y38820D01*
X33896Y38896D01*
X33820Y38947D01*
X33730Y38965D01*
X33667Y38952D01*
X33442Y39176D01*
Y39628D01*
X33496Y39664D01*
X33547Y39740D01*
X33565Y39830D01*
X33547Y39920D01*
X33496Y39996D01*
X33420Y40047D01*
X33330Y40065D01*
D02*
G37*
G36*
X19224Y39150D02*
X18780D01*
Y38293D01*
X19224D01*
Y39150D01*
D02*
G37*
G36*
X18680Y38193D02*
X18236D01*
Y37336D01*
X18680D01*
Y38193D01*
D02*
G37*
G36*
X47996Y38103D02*
X47849Y38084D01*
X47712Y38027D01*
X47595Y37937D01*
X47505Y37819D01*
X47448Y37683D01*
X47429Y37536D01*
X47448Y37389D01*
X47505Y37252D01*
X47595Y37135D01*
X47712Y37045D01*
X47849Y36988D01*
X47996Y36969D01*
X48142Y36988D01*
X48279Y37045D01*
X48397Y37135D01*
X48487Y37252D01*
X48543Y37389D01*
X48563Y37536D01*
X48543Y37683D01*
X48487Y37819D01*
X48397Y37937D01*
X48279Y38027D01*
X48142Y38084D01*
X47996Y38103D01*
D02*
G37*
G36*
X19224Y38193D02*
X18780D01*
Y37336D01*
X19224D01*
Y38193D01*
D02*
G37*
G36*
X42930Y39754D02*
X41930D01*
X41807Y39738D01*
X41693Y39691D01*
X41595Y39615D01*
X41519Y39517D01*
X41472Y39403D01*
X41456Y39280D01*
Y38780D01*
X41472Y38657D01*
X41519Y38543D01*
X41595Y38445D01*
X41693Y38369D01*
X41807Y38322D01*
X41930Y38306D01*
X47690D01*
X47712Y38289D01*
X47849Y38232D01*
X47996Y38213D01*
X48142Y38232D01*
X48279Y38289D01*
X48397Y38379D01*
X48487Y38497D01*
X48543Y38633D01*
X48563Y38780D01*
X48543Y38927D01*
X48487Y39063D01*
X48397Y39181D01*
X48279Y39271D01*
X48142Y39328D01*
X47996Y39347D01*
X47849Y39328D01*
X47712Y39271D01*
X47690Y39254D01*
X43404D01*
Y39280D01*
X43388Y39403D01*
X43341Y39517D01*
X43265Y39615D01*
X43167Y39691D01*
X43053Y39738D01*
X42930Y39754D01*
D02*
G37*
G36*
X15698Y37947D02*
X15552Y37928D01*
X15415Y37871D01*
X15298Y37781D01*
X15207Y37663D01*
X15151Y37527D01*
X15146Y37492D01*
X14282D01*
X14278Y37527D01*
X14221Y37663D01*
X14131Y37781D01*
X14013Y37871D01*
X13877Y37928D01*
X13730Y37947D01*
X13583Y37928D01*
X13447Y37871D01*
X13329Y37781D01*
X13239Y37663D01*
X13182Y37527D01*
X13163Y37380D01*
X13182Y37233D01*
X13239Y37097D01*
X13329Y36979D01*
X13447Y36889D01*
X13583Y36832D01*
X13618Y36828D01*
Y35176D01*
X13583Y35172D01*
X13447Y35115D01*
X13329Y35025D01*
X13239Y34908D01*
X13182Y34771D01*
X13163Y34624D01*
X13182Y34477D01*
X13239Y34341D01*
X13329Y34223D01*
X13447Y34133D01*
X13583Y34076D01*
X13730Y34057D01*
X13877Y34076D01*
X14013Y34133D01*
X14131Y34223D01*
X14221Y34341D01*
X14278Y34477D01*
X14297Y34624D01*
X14278Y34771D01*
X14221Y34908D01*
X14131Y35025D01*
X14013Y35115D01*
X13877Y35172D01*
X13842Y35176D01*
Y36828D01*
X13877Y36832D01*
X14013Y36889D01*
X14131Y36979D01*
X14221Y37097D01*
X14278Y37233D01*
X14282Y37268D01*
X15146D01*
X15151Y37233D01*
X15207Y37097D01*
X15298Y36979D01*
X15415Y36889D01*
X15552Y36832D01*
X15698Y36813D01*
X15845Y36832D01*
X15982Y36889D01*
X16099Y36979D01*
X16190Y37097D01*
X16246Y37233D01*
X16265Y37380D01*
X16246Y37527D01*
X16190Y37663D01*
X16099Y37781D01*
X15982Y37871D01*
X15845Y37928D01*
X15698Y37947D01*
D02*
G37*
G36*
X33430Y42765D02*
X33340Y42747D01*
X33264Y42696D01*
X33213Y42620D01*
X33195Y42530D01*
X33213Y42440D01*
X33264Y42364D01*
X33340Y42313D01*
X33430Y42295D01*
X33452Y42300D01*
X34165Y41587D01*
Y41095D01*
Y41095D01*
Y41094D01*
X34165Y41077D01*
X34155Y41008D01*
X34151Y41005D01*
X34138Y40992D01*
X34107Y40962D01*
X33689Y41379D01*
X33653Y41404D01*
X33610Y41412D01*
X33610Y41412D01*
X33018D01*
X32975Y41404D01*
X32939Y41379D01*
X32939Y41379D01*
X32572Y41012D01*
X31342D01*
X31306Y41066D01*
X31230Y41117D01*
X31140Y41135D01*
X31050Y41117D01*
X30974Y41066D01*
X30923Y40990D01*
X30905Y40900D01*
X30923Y40810D01*
X30974Y40734D01*
X31050Y40683D01*
X31140Y40665D01*
X31230Y40683D01*
X31306Y40734D01*
X31342Y40788D01*
X32618D01*
X32618Y40788D01*
X32661Y40796D01*
X32697Y40821D01*
X33065Y41188D01*
X33551D01*
X33602Y41127D01*
X33579Y41054D01*
X33540Y41047D01*
X33464Y40996D01*
X33413Y40920D01*
X33395Y40830D01*
X33413Y40740D01*
X33464Y40664D01*
X33518Y40628D01*
Y40280D01*
X33518Y40280D01*
X33526Y40237D01*
X33551Y40201D01*
X34204Y39547D01*
X34174Y39475D01*
X34162Y39380D01*
X34174Y39285D01*
X34211Y39196D01*
X34269Y39119D01*
X34346Y39061D01*
X34435Y39024D01*
X34530Y39012D01*
X34625Y39024D01*
X34714Y39061D01*
X34791Y39119D01*
X34849Y39196D01*
X34886Y39285D01*
X34898Y39380D01*
X34886Y39475D01*
X34849Y39564D01*
X34791Y39641D01*
X34714Y39699D01*
X34625Y39736D01*
X34530Y39748D01*
X34435Y39736D01*
X34363Y39706D01*
X33742Y40326D01*
Y40628D01*
X33796Y40664D01*
X33847Y40740D01*
X33855Y40783D01*
X33942Y40809D01*
X34204Y40547D01*
X34174Y40475D01*
X34162Y40380D01*
X34174Y40285D01*
X34211Y40196D01*
X34269Y40119D01*
X34346Y40061D01*
X34435Y40024D01*
X34530Y40012D01*
X34625Y40024D01*
X34714Y40061D01*
X34791Y40119D01*
X34849Y40196D01*
X34886Y40285D01*
X34898Y40380D01*
X34886Y40475D01*
X34849Y40564D01*
X34791Y40641D01*
X34714Y40699D01*
X34625Y40736D01*
X34530Y40748D01*
X34435Y40736D01*
X34363Y40706D01*
X34112Y40957D01*
X34142Y40988D01*
X34155Y41002D01*
X34158Y41005D01*
X34227Y41015D01*
X34244Y41015D01*
X34245D01*
X34245D01*
X34895D01*
Y41745D01*
X34323D01*
X33639Y42429D01*
X33647Y42440D01*
X33665Y42530D01*
X33647Y42620D01*
X33596Y42696D01*
X33520Y42747D01*
X33430Y42765D01*
D02*
G37*
G36*
X24150Y40215D02*
X24060Y40197D01*
X23984Y40146D01*
X23980Y40140D01*
X23900D01*
X23896Y40146D01*
X23820Y40197D01*
X23730Y40215D01*
X23640Y40197D01*
X23564Y40146D01*
X23513Y40070D01*
X23495Y39980D01*
X23513Y39890D01*
X23564Y39814D01*
X23640Y39763D01*
X23682Y39755D01*
X23738Y39705D01*
X23746Y39663D01*
X23771Y39626D01*
X24076Y39321D01*
X24076Y39321D01*
X24113Y39296D01*
X24155Y39288D01*
X24689D01*
X24695Y39280D01*
X24713Y39190D01*
X24764Y39114D01*
X24840Y39063D01*
X24930Y39045D01*
X25020Y39063D01*
X25096Y39114D01*
X25147Y39190D01*
X25165Y39280D01*
X25147Y39370D01*
X25096Y39446D01*
X25090Y39450D01*
Y39530D01*
X25096Y39534D01*
X25147Y39610D01*
X25165Y39700D01*
X25147Y39790D01*
X25096Y39866D01*
X25020Y39917D01*
X24930Y39935D01*
X24840Y39917D01*
X24764Y39866D01*
X24713Y39790D01*
X24695Y39700D01*
X24689Y39692D01*
X24354D01*
X24324Y39727D01*
X24316Y39814D01*
X24367Y39890D01*
X24385Y39980D01*
X24367Y40070D01*
X24316Y40146D01*
X24240Y40197D01*
X24150Y40215D01*
D02*
G37*
G36*
X35530Y41748D02*
X35435Y41736D01*
X35346Y41699D01*
X35269Y41641D01*
X35211Y41564D01*
X35174Y41475D01*
X35162Y41380D01*
X35174Y41285D01*
X35211Y41196D01*
X35269Y41119D01*
X35346Y41061D01*
X35435Y41024D01*
X35530Y41012D01*
X35625Y41024D01*
X35714Y41061D01*
X35791Y41119D01*
X35849Y41196D01*
X35886Y41285D01*
X35898Y41380D01*
X35886Y41475D01*
X35849Y41564D01*
X35791Y41641D01*
X35714Y41699D01*
X35625Y41736D01*
X35530Y41748D01*
D02*
G37*
G36*
X47996Y42103D02*
X47849Y42084D01*
X47712Y42027D01*
X47595Y41937D01*
X47505Y41819D01*
X47448Y41683D01*
X47429Y41536D01*
X47448Y41389D01*
X47505Y41252D01*
X47595Y41135D01*
X47712Y41045D01*
X47849Y40988D01*
X47996Y40969D01*
X48142Y40988D01*
X48279Y41045D01*
X48397Y41135D01*
X48487Y41252D01*
X48543Y41389D01*
X48563Y41536D01*
X48543Y41683D01*
X48487Y41819D01*
X48397Y41937D01*
X48279Y42027D01*
X48142Y42084D01*
X47996Y42103D01*
D02*
G37*
G36*
X36530Y39748D02*
X36435Y39736D01*
X36346Y39699D01*
X36269Y39641D01*
X36211Y39564D01*
X36174Y39475D01*
X36162Y39380D01*
X36174Y39285D01*
X36211Y39196D01*
X36269Y39119D01*
X36346Y39061D01*
X36435Y39024D01*
X36530Y39012D01*
X36625Y39024D01*
X36714Y39061D01*
X36791Y39119D01*
X36849Y39196D01*
X36886Y39285D01*
X36898Y39380D01*
X36886Y39475D01*
X36849Y39564D01*
X36791Y39641D01*
X36714Y39699D01*
X36625Y39736D01*
X36530Y39748D01*
D02*
G37*
G36*
X35530D02*
X35435Y39736D01*
X35346Y39699D01*
X35269Y39641D01*
X35211Y39564D01*
X35174Y39475D01*
X35162Y39380D01*
X35174Y39285D01*
X35211Y39196D01*
X35269Y39119D01*
X35346Y39061D01*
X35435Y39024D01*
X35530Y39012D01*
X35625Y39024D01*
X35714Y39061D01*
X35791Y39119D01*
X35849Y39196D01*
X35886Y39285D01*
X35898Y39380D01*
X35886Y39475D01*
X35849Y39564D01*
X35791Y39641D01*
X35714Y39699D01*
X35625Y39736D01*
X35530Y39748D01*
D02*
G37*
G36*
X36530Y40748D02*
X36435Y40736D01*
X36346Y40699D01*
X36269Y40641D01*
X36211Y40564D01*
X36174Y40475D01*
X36162Y40380D01*
X36174Y40285D01*
X36211Y40196D01*
X36269Y40119D01*
X36346Y40061D01*
X36435Y40024D01*
X36530Y40012D01*
X36625Y40024D01*
X36714Y40061D01*
X36791Y40119D01*
X36849Y40196D01*
X36886Y40285D01*
X36898Y40380D01*
X36886Y40475D01*
X36849Y40564D01*
X36791Y40641D01*
X36714Y40699D01*
X36625Y40736D01*
X36530Y40748D01*
D02*
G37*
G36*
X35530D02*
X35435Y40736D01*
X35346Y40699D01*
X35269Y40641D01*
X35211Y40564D01*
X35174Y40475D01*
X35162Y40380D01*
X35174Y40285D01*
X35211Y40196D01*
X35269Y40119D01*
X35346Y40061D01*
X35435Y40024D01*
X35530Y40012D01*
X35625Y40024D01*
X35714Y40061D01*
X35791Y40119D01*
X35849Y40196D01*
X35886Y40285D01*
X35898Y40380D01*
X35886Y40475D01*
X35849Y40564D01*
X35791Y40641D01*
X35714Y40699D01*
X35625Y40736D01*
X35530Y40748D01*
D02*
G37*
G36*
X43724Y37024D02*
X42867D01*
Y36580D01*
X43724D01*
Y37024D01*
D02*
G37*
G36*
X17030Y36453D02*
X16946Y36442D01*
X16869Y36410D01*
X16802Y36358D01*
X16750Y36291D01*
X16718Y36214D01*
X16707Y36130D01*
Y35730D01*
X16714Y35676D01*
Y35591D01*
X16725Y35507D01*
X16758Y35429D01*
X16809Y35362D01*
X17582Y34589D01*
X17616Y34564D01*
X17649Y34538D01*
X17727Y34506D01*
X17810Y34495D01*
X18266D01*
Y33940D01*
X19194D01*
Y35694D01*
X18266D01*
Y35140D01*
X17944D01*
X17360Y35724D01*
Y36123D01*
X17349Y36206D01*
X17317Y36284D01*
X17265Y36351D01*
X17258Y36358D01*
X17191Y36410D01*
X17114Y36442D01*
X17030Y36453D01*
D02*
G37*
G36*
X23690Y34473D02*
X23606Y34462D01*
X23529Y34430D01*
X23462Y34378D01*
X23410Y34311D01*
X23378Y34234D01*
X23367Y34150D01*
X23378Y34066D01*
X23410Y33989D01*
X23462Y33922D01*
X23529Y33870D01*
X23606Y33838D01*
X23690Y33827D01*
X23774Y33838D01*
X23851Y33870D01*
X23918Y33922D01*
X23970Y33989D01*
X24002Y34066D01*
X24013Y34150D01*
X24002Y34234D01*
X23970Y34311D01*
X23918Y34378D01*
X23851Y34430D01*
X23774Y34462D01*
X23690Y34473D01*
D02*
G37*
G36*
X36530Y35048D02*
X36435Y35036D01*
X36346Y34999D01*
X36269Y34941D01*
X36211Y34864D01*
X36174Y34775D01*
X36162Y34680D01*
X36174Y34585D01*
X36211Y34496D01*
X36269Y34419D01*
X36346Y34361D01*
X36435Y34324D01*
X36530Y34312D01*
X36625Y34324D01*
X36714Y34361D01*
X36791Y34419D01*
X36849Y34496D01*
X36886Y34585D01*
X36898Y34680D01*
X36886Y34775D01*
X36849Y34864D01*
X36791Y34941D01*
X36714Y34999D01*
X36625Y35036D01*
X36530Y35048D01*
D02*
G37*
G36*
X15698Y35191D02*
X15552Y35172D01*
X15415Y35115D01*
X15298Y35025D01*
X15207Y34908D01*
X15151Y34771D01*
X15132Y34624D01*
X15151Y34477D01*
X15207Y34341D01*
X15298Y34223D01*
X15415Y34133D01*
X15552Y34076D01*
X15698Y34057D01*
X15845Y34076D01*
X15982Y34133D01*
X16099Y34223D01*
X16190Y34341D01*
X16246Y34477D01*
X16265Y34624D01*
X16246Y34771D01*
X16190Y34908D01*
X16099Y35025D01*
X15982Y35115D01*
X15845Y35172D01*
X15698Y35191D01*
D02*
G37*
G36*
X32280Y32872D02*
Y32530D01*
X32622D01*
X32615Y32583D01*
X32575Y32679D01*
X32512Y32762D01*
X32429Y32825D01*
X32333Y32865D01*
X32280Y32872D01*
D02*
G37*
G36*
X48964Y34053D02*
X48796Y34040D01*
X48633Y34001D01*
X48477Y33936D01*
X48333Y33848D01*
X48205Y33739D01*
X48096Y33611D01*
X48008Y33467D01*
X47943Y33312D01*
X47904Y33148D01*
X47891Y32980D01*
X47904Y32812D01*
X47943Y32648D01*
X48008Y32493D01*
X48096Y32349D01*
X48205Y32221D01*
X48333Y32112D01*
X48477Y32024D01*
X48633Y31959D01*
X48796Y31920D01*
X48964Y31907D01*
X49132Y31920D01*
X49296Y31959D01*
X49452Y32024D01*
X49595Y32112D01*
X49723Y32221D01*
X49833Y32349D01*
X49921Y32493D01*
X49985Y32648D01*
X50024Y32812D01*
X50038Y32980D01*
X50024Y33148D01*
X49985Y33312D01*
X49921Y33467D01*
X49833Y33611D01*
X49723Y33739D01*
X49595Y33848D01*
X49452Y33936D01*
X49296Y34001D01*
X49132Y34040D01*
X48964Y34053D01*
D02*
G37*
G36*
X21970Y34473D02*
X21886Y34462D01*
X21809Y34430D01*
X21742Y34378D01*
X21690Y34311D01*
X21658Y34234D01*
X21647Y34150D01*
X21658Y34066D01*
X21690Y33989D01*
X21742Y33922D01*
X21809Y33870D01*
X21886Y33838D01*
X21970Y33827D01*
X22054Y33838D01*
X22131Y33870D01*
X22198Y33922D01*
X22250Y33989D01*
X22282Y34066D01*
X22293Y34150D01*
X22282Y34234D01*
X22250Y34311D01*
X22198Y34378D01*
X22131Y34430D01*
X22054Y34462D01*
X21970Y34473D01*
D02*
G37*
G36*
X33230Y33848D02*
X33135Y33836D01*
X33046Y33799D01*
X32969Y33741D01*
X32911Y33664D01*
X32874Y33575D01*
X32862Y33480D01*
X32874Y33385D01*
X32911Y33296D01*
X32969Y33219D01*
X33046Y33161D01*
X33135Y33124D01*
X33230Y33112D01*
X33325Y33124D01*
X33414Y33161D01*
X33491Y33219D01*
X33549Y33296D01*
X33586Y33385D01*
X33598Y33480D01*
X33586Y33575D01*
X33549Y33664D01*
X33491Y33741D01*
X33414Y33799D01*
X33325Y33836D01*
X33230Y33848D01*
D02*
G37*
G36*
X35530Y36048D02*
X35435Y36036D01*
X35346Y35999D01*
X35269Y35941D01*
X35211Y35864D01*
X35174Y35775D01*
X35162Y35680D01*
X35174Y35585D01*
X35211Y35496D01*
X35269Y35419D01*
X35346Y35361D01*
X35435Y35324D01*
X35530Y35312D01*
X35625Y35324D01*
X35714Y35361D01*
X35791Y35419D01*
X35849Y35496D01*
X35886Y35585D01*
X35898Y35680D01*
X35886Y35775D01*
X35849Y35864D01*
X35791Y35941D01*
X35714Y35999D01*
X35625Y36036D01*
X35530Y36048D01*
D02*
G37*
G36*
Y37048D02*
X35435Y37036D01*
X35346Y36999D01*
X35269Y36941D01*
X35211Y36864D01*
X35174Y36775D01*
X35162Y36680D01*
X35174Y36585D01*
X35211Y36496D01*
X35269Y36419D01*
X35346Y36361D01*
X35435Y36324D01*
X35530Y36312D01*
X35625Y36324D01*
X35714Y36361D01*
X35791Y36419D01*
X35849Y36496D01*
X35886Y36585D01*
X35898Y36680D01*
X35886Y36775D01*
X35849Y36864D01*
X35791Y36941D01*
X35714Y36999D01*
X35625Y37036D01*
X35530Y37048D01*
D02*
G37*
G36*
X47120Y36994D02*
X45366D01*
Y36066D01*
X47120D01*
Y36994D01*
D02*
G37*
G36*
X42767Y37024D02*
X41910D01*
Y36580D01*
X42767D01*
Y37024D01*
D02*
G37*
G36*
X36895Y37045D02*
X36165D01*
Y36315D01*
X36895D01*
Y37045D01*
D02*
G37*
G36*
X42930Y35504D02*
X42007D01*
X41968Y35499D01*
X41930Y35504D01*
X41807Y35488D01*
X41693Y35441D01*
X41595Y35365D01*
X41519Y35267D01*
X41472Y35153D01*
X41456Y35030D01*
Y34530D01*
X41472Y34407D01*
X41519Y34293D01*
X41595Y34195D01*
X41693Y34119D01*
X41807Y34072D01*
X41930Y34056D01*
X42930D01*
X43053Y34072D01*
X43167Y34119D01*
X43265Y34195D01*
X43341Y34293D01*
X43346Y34306D01*
X47690D01*
X47712Y34289D01*
X47849Y34232D01*
X47996Y34213D01*
X48142Y34232D01*
X48279Y34289D01*
X48397Y34379D01*
X48487Y34497D01*
X48543Y34633D01*
X48563Y34780D01*
X48543Y34927D01*
X48487Y35063D01*
X48397Y35181D01*
X48279Y35271D01*
X48142Y35328D01*
X47996Y35347D01*
X47849Y35328D01*
X47712Y35271D01*
X47690Y35254D01*
X43346D01*
X43341Y35267D01*
X43265Y35365D01*
X43167Y35441D01*
X43053Y35488D01*
X42930Y35504D01*
D02*
G37*
G36*
X36530Y36048D02*
X36435Y36036D01*
X36346Y35999D01*
X36269Y35941D01*
X36211Y35864D01*
X36174Y35775D01*
X36162Y35680D01*
X36174Y35585D01*
X36211Y35496D01*
X36269Y35419D01*
X36346Y35361D01*
X36435Y35324D01*
X36530Y35312D01*
X36625Y35324D01*
X36714Y35361D01*
X36791Y35419D01*
X36849Y35496D01*
X36886Y35585D01*
X36898Y35680D01*
X36886Y35775D01*
X36849Y35864D01*
X36791Y35941D01*
X36714Y35999D01*
X36625Y36036D01*
X36530Y36048D01*
D02*
G37*
G36*
X43724Y36480D02*
X42867D01*
Y36036D01*
X43724D01*
Y36480D01*
D02*
G37*
G36*
X42767D02*
X41910D01*
Y36036D01*
X42767D01*
Y36480D01*
D02*
G37*
G36*
X36895Y41745D02*
X36165D01*
Y41015D01*
X36895D01*
Y41745D01*
D02*
G37*
G36*
X35530Y45748D02*
X35435Y45736D01*
X35346Y45699D01*
X35269Y45641D01*
X35211Y45564D01*
X35174Y45475D01*
X35162Y45380D01*
X35174Y45285D01*
X35211Y45196D01*
X35269Y45119D01*
X35346Y45061D01*
X35435Y45024D01*
X35530Y45012D01*
X35625Y45024D01*
X35714Y45061D01*
X35791Y45119D01*
X35849Y45196D01*
X35886Y45285D01*
X35898Y45380D01*
X35886Y45475D01*
X35849Y45564D01*
X35791Y45641D01*
X35714Y45699D01*
X35625Y45736D01*
X35530Y45748D01*
D02*
G37*
G36*
X47996Y46103D02*
X47849Y46084D01*
X47712Y46027D01*
X47595Y45937D01*
X47505Y45819D01*
X47448Y45683D01*
X47429Y45536D01*
X47448Y45389D01*
X47505Y45252D01*
X47595Y45135D01*
X47712Y45045D01*
X47849Y44988D01*
X47996Y44969D01*
X48142Y44988D01*
X48279Y45045D01*
X48397Y45135D01*
X48487Y45252D01*
X48543Y45389D01*
X48563Y45536D01*
X48543Y45683D01*
X48487Y45819D01*
X48397Y45937D01*
X48279Y46027D01*
X48142Y46084D01*
X47996Y46103D01*
D02*
G37*
G36*
X13680Y46114D02*
X13614Y46107D01*
X13502Y46073D01*
X13399Y46018D01*
X13309Y45944D01*
X13235Y45854D01*
X13180Y45751D01*
X13146Y45640D01*
X13140Y45574D01*
X13680D01*
Y46114D01*
D02*
G37*
G36*
X36530Y45748D02*
X36435Y45736D01*
X36346Y45699D01*
X36269Y45641D01*
X36211Y45564D01*
X36174Y45475D01*
X36162Y45380D01*
X36174Y45285D01*
X36211Y45196D01*
X36269Y45119D01*
X36346Y45061D01*
X36435Y45024D01*
X36530Y45012D01*
X36625Y45024D01*
X36714Y45061D01*
X36791Y45119D01*
X36849Y45196D01*
X36886Y45285D01*
X36898Y45380D01*
X36886Y45475D01*
X36849Y45564D01*
X36791Y45641D01*
X36714Y45699D01*
X36625Y45736D01*
X36530Y45748D01*
D02*
G37*
G36*
X14320Y45474D02*
X13780D01*
Y44934D01*
X13846Y44940D01*
X13958Y44974D01*
X14061Y45029D01*
X14151Y45103D01*
X14225Y45193D01*
X14280Y45296D01*
X14314Y45408D01*
X14320Y45474D01*
D02*
G37*
G36*
X13680D02*
X13140D01*
X13146Y45408D01*
X13180Y45296D01*
X13235Y45193D01*
X13309Y45103D01*
X13399Y45029D01*
X13502Y44974D01*
X13614Y44940D01*
X13680Y44934D01*
Y45474D01*
D02*
G37*
G36*
X16289D02*
X15748D01*
Y44934D01*
X15815Y44940D01*
X15926Y44974D01*
X16029Y45029D01*
X16119Y45103D01*
X16193Y45193D01*
X16248Y45296D01*
X16282Y45408D01*
X16289Y45474D01*
D02*
G37*
G36*
X15648D02*
X15108D01*
X15115Y45408D01*
X15149Y45296D01*
X15204Y45193D01*
X15278Y45103D01*
X15368Y45029D01*
X15471Y44974D01*
X15582Y44940D01*
X15648Y44934D01*
Y45474D01*
D02*
G37*
G36*
X13780Y46114D02*
Y45574D01*
X14320D01*
X14314Y45640D01*
X14280Y45751D01*
X14225Y45854D01*
X14151Y45944D01*
X14061Y46018D01*
X13958Y46073D01*
X13846Y46107D01*
X13780Y46114D01*
D02*
G37*
G36*
X39594Y47720D02*
X38666D01*
Y46052D01*
X38555D01*
X38526Y46096D01*
X38450Y46147D01*
X38360Y46165D01*
X38270Y46147D01*
X38194Y46096D01*
X38143Y46020D01*
X38125Y45930D01*
X38143Y45840D01*
X38194Y45764D01*
X38270Y45713D01*
X38360Y45695D01*
X38450Y45713D01*
X38526Y45764D01*
X38555Y45808D01*
X39130D01*
X39177Y45817D01*
X39217Y45843D01*
X39243Y45883D01*
X39252Y45930D01*
Y45966D01*
X39594D01*
Y47720D01*
D02*
G37*
G36*
X36895Y46745D02*
X36165D01*
Y46015D01*
X36895D01*
Y46745D01*
D02*
G37*
G36*
X28680Y47372D02*
X28627Y47365D01*
X28531Y47325D01*
X28448Y47262D01*
X28385Y47179D01*
X28345Y47083D01*
X28338Y47030D01*
X28680D01*
Y47372D01*
D02*
G37*
G36*
X33095Y47345D02*
X32365D01*
Y46615D01*
X33095D01*
Y47345D01*
D02*
G37*
G36*
X15748Y46114D02*
Y45574D01*
X16289D01*
X16282Y45640D01*
X16248Y45751D01*
X16193Y45854D01*
X16119Y45944D01*
X16029Y46018D01*
X15926Y46073D01*
X15815Y46107D01*
X15748Y46114D01*
D02*
G37*
G36*
X15648D02*
X15582Y46107D01*
X15471Y46073D01*
X15368Y46018D01*
X15278Y45944D01*
X15204Y45854D01*
X15149Y45751D01*
X15115Y45640D01*
X15108Y45574D01*
X15648D01*
Y46114D01*
D02*
G37*
G36*
X35530Y46748D02*
X35435Y46736D01*
X35346Y46699D01*
X35269Y46641D01*
X35211Y46564D01*
X35174Y46475D01*
X35162Y46380D01*
X35174Y46285D01*
X35211Y46196D01*
X35269Y46119D01*
X35346Y46061D01*
X35435Y46024D01*
X35530Y46012D01*
X35625Y46024D01*
X35714Y46061D01*
X35791Y46119D01*
X35849Y46196D01*
X35886Y46285D01*
X35898Y46380D01*
X35886Y46475D01*
X35849Y46564D01*
X35791Y46641D01*
X35714Y46699D01*
X35625Y46736D01*
X35530Y46748D01*
D02*
G37*
G36*
X19194Y47720D02*
X18266D01*
Y45966D01*
X19194D01*
Y46957D01*
X19830D01*
X19914Y46968D01*
X19991Y47000D01*
X20058Y47052D01*
X20110Y47119D01*
X20142Y47196D01*
X20153Y47280D01*
X20142Y47364D01*
X20110Y47441D01*
X20058Y47508D01*
X19991Y47560D01*
X19914Y47592D01*
X19830Y47603D01*
X19194D01*
Y47720D01*
D02*
G37*
G36*
X31730Y47348D02*
X31635Y47336D01*
X31546Y47299D01*
X31469Y47241D01*
X31411Y47164D01*
X31374Y47075D01*
X31362Y46980D01*
X31374Y46885D01*
X31411Y46796D01*
X31469Y46719D01*
X31546Y46661D01*
X31618Y46631D01*
Y45156D01*
X31316Y44855D01*
X31237Y44860D01*
X31206Y44906D01*
X31130Y44957D01*
X31040Y44975D01*
X30950Y44957D01*
X30874Y44906D01*
X30823Y44830D01*
X30805Y44740D01*
X30823Y44650D01*
X30874Y44574D01*
X30950Y44523D01*
X31040Y44505D01*
X31130Y44523D01*
X31206Y44574D01*
X31242Y44628D01*
X31360D01*
X31360Y44628D01*
X31403Y44636D01*
X31439Y44661D01*
X31809Y45031D01*
X31834Y45067D01*
X31842Y45110D01*
X31842Y45110D01*
Y46631D01*
X31914Y46661D01*
X31991Y46719D01*
X32049Y46796D01*
X32086Y46885D01*
X32098Y46980D01*
X32086Y47075D01*
X32049Y47164D01*
X31991Y47241D01*
X31914Y47299D01*
X31825Y47336D01*
X31730Y47348D01*
D02*
G37*
G36*
X39080Y43367D02*
X38636D01*
Y42510D01*
X39080D01*
Y43367D01*
D02*
G37*
G36*
X43030Y44204D02*
X42030D01*
X41907Y44188D01*
X41793Y44141D01*
X41695Y44065D01*
X41619Y43967D01*
X41572Y43853D01*
X41556Y43730D01*
Y43653D01*
Y43230D01*
X41572Y43107D01*
X41619Y42993D01*
X41695Y42895D01*
X41793Y42819D01*
X41907Y42772D01*
X42030Y42756D01*
X45934D01*
X46245Y42445D01*
X46343Y42369D01*
X46457Y42322D01*
X46580Y42306D01*
X47690D01*
X47712Y42289D01*
X47849Y42232D01*
X47996Y42213D01*
X48142Y42232D01*
X48279Y42289D01*
X48397Y42379D01*
X48487Y42497D01*
X48543Y42633D01*
X48563Y42780D01*
X48543Y42927D01*
X48487Y43063D01*
X48397Y43181D01*
X48279Y43271D01*
X48142Y43328D01*
X47996Y43347D01*
X47849Y43328D01*
X47712Y43271D01*
X47690Y43254D01*
X46776D01*
X46465Y43565D01*
X46367Y43641D01*
X46253Y43688D01*
X46130Y43704D01*
X43504D01*
Y43730D01*
X43488Y43853D01*
X43441Y43967D01*
X43365Y44065D01*
X43267Y44141D01*
X43153Y44188D01*
X43030Y44204D01*
D02*
G37*
G36*
X13680Y43358D02*
X13614Y43351D01*
X13502Y43317D01*
X13399Y43263D01*
X13309Y43189D01*
X13235Y43098D01*
X13180Y42995D01*
X13146Y42884D01*
X13140Y42818D01*
X13680D01*
Y43358D01*
D02*
G37*
G36*
X39624Y43367D02*
X39180D01*
Y42510D01*
X39624D01*
Y43367D01*
D02*
G37*
G36*
X14320Y42718D02*
X13780D01*
Y42178D01*
X13846Y42184D01*
X13958Y42218D01*
X14061Y42273D01*
X14151Y42347D01*
X14225Y42437D01*
X14280Y42540D01*
X14314Y42652D01*
X14320Y42718D01*
D02*
G37*
G36*
X13680D02*
X13140D01*
X13146Y42652D01*
X13180Y42540D01*
X13235Y42437D01*
X13309Y42347D01*
X13399Y42273D01*
X13502Y42218D01*
X13614Y42184D01*
X13680Y42178D01*
Y42718D01*
D02*
G37*
G36*
X16289D02*
X15748D01*
Y42178D01*
X15815Y42184D01*
X15926Y42218D01*
X16029Y42273D01*
X16119Y42347D01*
X16193Y42437D01*
X16248Y42540D01*
X16282Y42652D01*
X16289Y42718D01*
D02*
G37*
G36*
X15648D02*
X15108D01*
X15115Y42652D01*
X15149Y42540D01*
X15204Y42437D01*
X15278Y42347D01*
X15368Y42273D01*
X15471Y42218D01*
X15582Y42184D01*
X15648Y42178D01*
Y42718D01*
D02*
G37*
G36*
X13780Y43358D02*
Y42818D01*
X14320D01*
X14314Y42884D01*
X14280Y42995D01*
X14225Y43098D01*
X14151Y43189D01*
X14061Y43263D01*
X13958Y43317D01*
X13846Y43351D01*
X13780Y43358D01*
D02*
G37*
G36*
X39624Y44324D02*
X39180D01*
Y43467D01*
X39624D01*
Y44324D01*
D02*
G37*
G36*
X39080D02*
X38636D01*
Y43467D01*
X39080D01*
Y44324D01*
D02*
G37*
G36*
X36530Y44748D02*
X36435Y44736D01*
X36346Y44699D01*
X36269Y44641D01*
X36211Y44564D01*
X36174Y44475D01*
X36162Y44380D01*
X36174Y44285D01*
X36211Y44196D01*
X36269Y44119D01*
X36346Y44061D01*
X36435Y44024D01*
X36530Y44012D01*
X36625Y44024D01*
X36714Y44061D01*
X36791Y44119D01*
X36849Y44196D01*
X36886Y44285D01*
X36898Y44380D01*
X36886Y44475D01*
X36849Y44564D01*
X36791Y44641D01*
X36714Y44699D01*
X36625Y44736D01*
X36530Y44748D01*
D02*
G37*
G36*
X35530D02*
X35435Y44736D01*
X35346Y44699D01*
X35269Y44641D01*
X35211Y44564D01*
X35174Y44475D01*
X35162Y44380D01*
X35174Y44285D01*
X35211Y44196D01*
X35269Y44119D01*
X35346Y44061D01*
X35435Y44024D01*
X35530Y44012D01*
X35625Y44024D01*
X35714Y44061D01*
X35791Y44119D01*
X35849Y44196D01*
X35886Y44285D01*
X35898Y44380D01*
X35886Y44475D01*
X35849Y44564D01*
X35791Y44641D01*
X35714Y44699D01*
X35625Y44736D01*
X35530Y44748D01*
D02*
G37*
G36*
X15748Y43358D02*
Y42818D01*
X16289D01*
X16282Y42884D01*
X16248Y42995D01*
X16193Y43098D01*
X16119Y43189D01*
X16029Y43263D01*
X15926Y43317D01*
X15815Y43351D01*
X15748Y43358D01*
D02*
G37*
G36*
X15648D02*
X15582Y43351D01*
X15471Y43317D01*
X15368Y43263D01*
X15278Y43189D01*
X15204Y43098D01*
X15149Y42995D01*
X15115Y42884D01*
X15108Y42818D01*
X15648D01*
Y43358D01*
D02*
G37*
G36*
X19224Y44324D02*
X18780D01*
Y43467D01*
X19224D01*
Y44324D01*
D02*
G37*
G36*
X18680D02*
X18236D01*
Y43467D01*
X18680D01*
Y44324D01*
D02*
G37*
%LPD*%
D30*
X21967Y36867D02*
X22820D01*
X20230Y35130D02*
X21967Y36867D01*
X33330Y39130D02*
X33730Y38730D01*
X13730Y34624D02*
Y37380D01*
X15698D01*
X18732Y42230D02*
X18762Y42200D01*
X21678D01*
X21718Y42160D01*
X22788D01*
X22828Y42200D01*
X21230Y42430D02*
X21830D01*
X19944Y43716D02*
X21230Y42430D01*
X23768Y41260D02*
X23992D01*
X22828Y42200D02*
X23768Y41260D01*
X24114Y41382D02*
X25528D01*
X23992Y41260D02*
X24114Y41382D01*
X23880Y41530D02*
Y42320D01*
X25080Y43030D02*
X26480Y41630D01*
X22620Y46372D02*
X27610Y41382D01*
X24120Y45084D02*
X27838Y41366D01*
X24620Y44796D02*
X27988Y41428D01*
X24620Y44796D02*
Y46730D01*
X24120Y45084D02*
Y46730D01*
X22620Y46372D02*
Y46730D01*
X26480Y41630D02*
X26980D01*
X23880Y42320D02*
X24810Y43250D01*
Y43430D01*
X27988Y40246D02*
Y41428D01*
X27838Y39762D02*
Y41366D01*
X27610Y39040D02*
Y41382D01*
X19944Y43716D02*
Y45815D01*
X20230Y46100D01*
X20460D01*
X21580Y47220D01*
X33330Y39130D02*
Y39830D01*
X33630Y40280D02*
Y40830D01*
X33610Y41300D02*
X34530Y40380D01*
X33018Y41300D02*
X33610D01*
X33630Y40280D02*
X34530Y39380D01*
X32618Y40900D02*
X33018Y41300D01*
X31140Y40900D02*
X32618D01*
X33430Y42480D02*
Y42530D01*
X30230Y45056D02*
Y47110D01*
X30440Y39802D02*
Y40964D01*
X29290Y40460D02*
Y41140D01*
X34530Y46380D01*
X28260Y40470D02*
X28870D01*
X27988Y40246D02*
X29119Y39115D01*
X27838Y39762D02*
X28040Y39560D01*
X27970Y38680D02*
X29880D01*
X28740Y40140D02*
X28982D01*
X30272Y38850D01*
X28870Y40470D02*
X29150Y40190D01*
X29730Y42380D02*
X32480Y45130D01*
X28352Y37952D02*
X29746D01*
X27130Y37130D02*
X27480Y36780D01*
Y35792D02*
Y36780D01*
Y35792D02*
X27520Y35752D01*
Y35610D02*
Y35752D01*
X28352Y37952D02*
X28430Y38030D01*
X27688Y37900D02*
X28092D01*
X27386Y38202D02*
X27688Y37900D01*
X27386Y38202D02*
Y40006D01*
X29766Y37760D02*
X30306Y38300D01*
X28232Y37760D02*
X29766D01*
X28092Y37900D02*
X28232Y37760D01*
X28318Y38300D02*
X29882D01*
X30282Y38700D01*
X28218Y38200D02*
X28318Y38300D01*
X27770Y38200D02*
X28218D01*
X30306Y38300D02*
X30642D01*
X30530Y36915D02*
Y38030D01*
X30642Y38300D02*
X31690Y37252D01*
X30604Y38550D02*
X31840Y37314D01*
X30666Y38700D02*
X33686Y35680D01*
X30728Y38850D02*
X32898Y36680D01*
X29746Y37952D02*
X30344Y38550D01*
X30282Y38700D02*
X30666D01*
X26444Y40949D02*
X27386Y40006D01*
X26444Y40949D02*
X26526Y41030D01*
X30344Y38550D02*
X30604D01*
X31840Y36688D02*
Y37314D01*
Y36688D02*
X33848Y34680D01*
X34530D01*
X31690Y36626D02*
Y37252D01*
X30530Y36915D02*
X31640Y35805D01*
X31690Y36626D02*
X33786Y34530D01*
X34107D01*
X33686Y35680D02*
X34530D01*
X30272Y38850D02*
X30728D01*
X32898Y36680D02*
X34530D01*
X34107Y34530D02*
X34362Y34275D01*
X27610Y39040D02*
X27970Y38680D01*
X32770Y34970D02*
X33780Y33960D01*
X34362Y34275D02*
X35362D01*
X33430Y42480D02*
X34530Y41380D01*
X30440Y40964D02*
X33856Y44380D01*
X24030Y39860D02*
X24150Y39980D01*
X24810Y39400D02*
X24930Y39280D01*
X24810Y39580D02*
X24930Y39700D01*
X23730Y39980D02*
X23850Y39860D01*
X37380Y46680D02*
X37406Y46706D01*
X27830Y42030D02*
X28180Y42380D01*
X27530Y43620D02*
X29490D01*
X33780Y33960D02*
X34750D01*
X35230Y33480D01*
X33980Y34230D02*
X34040D01*
X34145Y34125D01*
X31640Y34240D02*
Y35805D01*
Y34240D02*
X31995Y33885D01*
X32510D01*
X30712Y33348D02*
Y33980D01*
X30870Y34138D01*
Y34362D01*
X30712Y34520D02*
X30870Y34362D01*
X28610Y34520D02*
X30712D01*
X32510Y33885D02*
X32635Y33760D01*
X27520Y35610D02*
X28610Y34520D01*
X22820Y36867D02*
X23533Y37580D01*
X23930D01*
X35362Y34275D02*
X36157Y33480D01*
X36230D01*
X34145Y34125D02*
X35158D01*
X35635Y33075D02*
Y33648D01*
X35158Y34125D02*
X35635Y33648D01*
Y33075D02*
X36230Y32480D01*
X32135Y31925D02*
X36460D01*
X37080Y32545D01*
X30712Y33348D02*
X32135Y31925D01*
X32635Y33075D02*
X33230Y32480D01*
X32635Y33075D02*
Y33760D01*
X29955Y47385D02*
X30230Y47110D01*
X29535Y47385D02*
X29955D01*
X29140Y46990D02*
X29535Y47385D01*
X30500Y46750D02*
X30730Y46980D01*
X30500Y44630D02*
Y46750D01*
X31730Y45110D02*
Y46980D01*
X29140Y46755D02*
Y46990D01*
X28768Y46383D02*
X29140Y46755D01*
X26028Y46383D02*
X28768D01*
X26028D02*
Y46842D01*
X24870Y48000D02*
X26028Y46842D01*
X28160Y45900D02*
X28400D01*
X21900Y48000D02*
X24870D01*
X21580Y47680D02*
X21900Y48000D01*
X21580Y47220D02*
Y47680D01*
X33856Y44380D02*
X34530D01*
X29790Y40640D02*
X34530Y45380D01*
X29790Y40540D02*
Y40640D01*
X29440Y40190D02*
X29790Y40540D01*
X29150Y40190D02*
X29440D01*
X27960Y45700D02*
X28160Y45900D01*
X27960Y44570D02*
Y45700D01*
X18630Y40780D02*
X19130D01*
X18130D02*
X18630D01*
Y40280D02*
X19130D01*
X18380Y40030D02*
X18630Y40280D01*
X24155Y39400D02*
X24810D01*
X23850Y39705D02*
X24155Y39400D01*
X23850Y39705D02*
Y39860D01*
X24230Y39580D02*
X24810D01*
X24030Y39780D02*
X24230Y39580D01*
X24030Y39780D02*
Y39860D01*
X24230Y43880D02*
X24410Y43700D01*
X24922D01*
X25080Y43542D01*
Y43030D02*
Y43542D01*
X29490Y43620D02*
X30500Y44630D01*
X27000Y43610D02*
X27960Y44570D01*
X31040Y44740D02*
X31360D01*
X31730Y45110D01*
X28180Y42380D02*
X29730D01*
D31*
X17037Y35591D02*
Y36123D01*
X17030Y35730D02*
Y36130D01*
X17037Y35591D02*
X17810Y34817D01*
X18730D01*
X17030Y36130D02*
X17037Y36123D01*
X18745Y47355D02*
X18820Y47280D01*
X19830D01*
D32*
X39130Y45930D02*
Y46843D01*
X38360Y45930D02*
X39130D01*
D33*
X23040Y41020D02*
X26098D01*
X26398Y41320D01*
X26646D01*
X21110Y42930D02*
X24090D01*
X20130Y43910D02*
Y45680D01*
Y43910D02*
X21110Y42930D01*
X20300Y45930D02*
X21930D01*
X20130Y45760D02*
X20300Y45930D01*
X20130Y45680D02*
Y45760D01*
Y45680D02*
X21893D01*
X25675Y37215D02*
X27250Y35640D01*
X25675Y37215D02*
Y39130D01*
X26946Y41020D02*
X26990D01*
X26646Y41320D02*
X26946Y41020D01*
X27480Y42380D02*
Y42401D01*
X25940Y43941D02*
X27480Y42401D01*
X26830Y43320D02*
X30120D01*
X30950Y37130D02*
X31420Y36660D01*
X28640Y34250D02*
X30600D01*
X27250Y35640D02*
X28640Y34250D01*
X25940Y43941D02*
Y45910D01*
X32160Y46710D02*
Y47250D01*
X31855Y47555D02*
X32160Y47250D01*
X30965Y47555D02*
X31855D01*
X32160Y46710D02*
X32320Y46550D01*
X33780D01*
X34270Y47040D01*
X30965Y47555D02*
X31160Y47360D01*
Y45550D02*
Y47360D01*
X29305Y47555D02*
X30965D01*
X28730Y46980D02*
X29305Y47555D01*
X28963Y46213D02*
X29730Y46980D01*
X34810Y47040D02*
X35100Y46750D01*
X34270Y47040D02*
X34810D01*
X21893Y45680D02*
X22293Y46080D01*
X19130Y40780D02*
X19600Y41250D01*
X18630Y40280D02*
X19130Y40780D01*
X24620Y47230D02*
X25638Y46213D01*
X25940Y45910D01*
X23290Y47560D02*
X23620Y47230D01*
X22410Y47560D02*
X23290D01*
X22293Y47443D02*
X22410Y47560D01*
X22293Y46080D02*
Y47443D01*
X30670Y45060D02*
X31160Y45550D01*
X19600Y41250D02*
X20430D01*
X24032Y47818D02*
X24620Y47230D01*
X22240Y47818D02*
X24032D01*
X22103Y47681D02*
X22240Y47818D01*
X22103Y46853D02*
Y47681D01*
X21970Y46720D02*
X22103Y46853D01*
X23620Y47230D02*
X24120D01*
X25638Y46213D02*
X28963D01*
X26630Y43520D02*
Y44878D01*
Y43520D02*
X26830Y43320D01*
X30670Y43870D02*
Y45060D01*
X30120Y43320D02*
X30670Y43870D01*
X19130Y40780D02*
X19220Y40870D01*
X20000D01*
D34*
X42930Y34976D02*
X43126Y34780D01*
X42903Y35003D02*
X42930Y34976D01*
Y35030D01*
Y34530D02*
Y34976D01*
X41980Y35003D02*
X42903D01*
X42430Y35030D02*
X42930D01*
X42007D02*
X42430D01*
Y34530D02*
X42930D01*
X41930D02*
X42430D01*
X41930D02*
Y35030D01*
X43126Y34780D02*
X47996D01*
X41980Y35003D02*
X42007Y35030D01*
X42930Y38780D02*
X47996D01*
X42430D02*
X42930D01*
X41930Y39280D02*
X42430Y38780D01*
X41930D02*
X42430D01*
X41930D02*
Y39280D01*
X42430D01*
X42930Y38780D02*
Y39280D01*
X42430D02*
X42930D01*
X43030Y43230D02*
X46130D01*
X43030D02*
Y43730D01*
X42530Y43230D02*
X43030D01*
X42453D02*
X42530D01*
X42030D02*
X42453D01*
X42030Y43653D02*
X42453Y43230D01*
X42030Y43730D02*
X42530D01*
X43030D01*
X42030Y43653D02*
Y43730D01*
Y43230D02*
Y43653D01*
X46580Y42780D02*
X47996D01*
X46130Y43230D02*
X46580Y42780D01*
D36*
X36530Y36680D02*
D03*
Y46380D02*
D03*
Y41380D02*
D03*
X34530Y36680D02*
D03*
Y41380D02*
D03*
Y46380D02*
D03*
D37*
X36530Y35680D02*
D03*
Y34680D02*
D03*
Y45380D02*
D03*
Y44380D02*
D03*
Y40380D02*
D03*
Y39380D02*
D03*
X28730Y46980D02*
D03*
X29730D02*
D03*
X30730D02*
D03*
X31730D02*
D03*
X35530Y36680D02*
D03*
X34530Y35680D02*
D03*
X35530D02*
D03*
X34530Y34680D02*
D03*
X35530D02*
D03*
X32230Y32480D02*
D03*
Y33480D02*
D03*
X33230Y32480D02*
D03*
Y33480D02*
D03*
X34230Y32480D02*
D03*
Y33480D02*
D03*
X35230Y32480D02*
D03*
Y33480D02*
D03*
X36230Y32480D02*
D03*
X35530Y41380D02*
D03*
X34530Y40380D02*
D03*
X35530D02*
D03*
X34530Y39380D02*
D03*
X35530D02*
D03*
Y46380D02*
D03*
X34530Y45380D02*
D03*
X35530D02*
D03*
X34530Y44380D02*
D03*
X35530D02*
D03*
D38*
X14230Y32880D02*
D03*
X48964Y32980D02*
D03*
X14230Y47380D02*
D03*
X48964D02*
D03*
D39*
X32730Y46980D02*
D03*
X36230Y33480D02*
D03*
D40*
X22620Y46730D02*
D03*
Y47230D02*
D03*
X23120Y46730D02*
D03*
Y47230D02*
D03*
X23620Y46730D02*
D03*
Y47230D02*
D03*
X24120Y46730D02*
D03*
Y47230D02*
D03*
X24620Y46730D02*
D03*
D41*
Y47230D02*
D03*
D42*
X13730Y37380D02*
D03*
Y34624D02*
D03*
X15698Y37380D02*
D03*
Y34624D02*
D03*
X13730Y45524D02*
D03*
Y42768D02*
D03*
X15698Y45524D02*
D03*
Y42768D02*
D03*
X49964Y42780D02*
D03*
Y45536D02*
D03*
X47996Y42780D02*
D03*
Y45536D02*
D03*
X49964Y38780D02*
D03*
Y41536D02*
D03*
X47996Y38780D02*
D03*
Y41536D02*
D03*
X49964Y34780D02*
D03*
Y37536D02*
D03*
X47996Y34780D02*
D03*
Y37536D02*
D03*
D43*
X14230Y39630D02*
D03*
Y41130D02*
D03*
X16230D02*
D03*
X47730Y46530D02*
D03*
X20230Y35130D02*
D03*
X44530Y32830D02*
D03*
X18730Y37130D02*
D03*
X44084Y41130D02*
D03*
Y36130D02*
D03*
X43980Y45880D02*
D03*
X40934Y45811D02*
D03*
X33230Y44630D02*
D03*
X18730Y43380D02*
D03*
X25480Y45880D02*
D03*
X29696Y45130D02*
D03*
X15520Y47990D02*
D03*
X16230Y32380D02*
D03*
X47730Y44630D02*
D03*
Y43880D02*
D03*
X16230Y39630D02*
D03*
Y36130D02*
D03*
X48980Y42130D02*
D03*
X47730Y40630D02*
D03*
Y39880D02*
D03*
X37480Y32130D02*
D03*
X45480Y33630D02*
D03*
X38730Y32130D02*
D03*
X35580Y38530D02*
D03*
X33730Y38730D02*
D03*
X34380Y38530D02*
D03*
X37293Y37130D02*
D03*
X37330Y38880D02*
D03*
Y40880D02*
D03*
Y42130D02*
D03*
X38360Y45930D02*
D03*
X39330Y43930D02*
D03*
X46130Y36530D02*
D03*
X45730D02*
D03*
X38930Y47330D02*
D03*
X39330D02*
D03*
X18732Y42230D02*
D03*
X18820Y47280D02*
D03*
X21830Y42430D02*
D03*
X24090Y42930D02*
D03*
X32830Y40330D02*
D03*
X33330Y39830D02*
D03*
X33630Y40830D02*
D03*
X33130Y41030D02*
D03*
X34380Y42780D02*
D03*
X33430Y42530D02*
D03*
X30230Y45056D02*
D03*
X30440Y39802D02*
D03*
X29290Y40460D02*
D03*
X28260Y40470D02*
D03*
X29119Y39115D02*
D03*
X28040Y39560D02*
D03*
X28740Y40140D02*
D03*
X29430Y42699D02*
D03*
X17030Y35730D02*
D03*
X17037Y36123D02*
D03*
X27130Y37130D02*
D03*
X28430Y38030D02*
D03*
X30530D02*
D03*
X29880Y38680D02*
D03*
X27770Y38200D02*
D03*
X28030Y37530D02*
D03*
X32770Y34970D02*
D03*
X31140Y40900D02*
D03*
X25675Y39130D02*
D03*
X24150Y39980D02*
D03*
X24930Y39280D02*
D03*
Y39700D02*
D03*
X23040Y41020D02*
D03*
X23880Y41530D02*
D03*
X25528Y41382D02*
D03*
X23730Y39980D02*
D03*
X42930Y34530D02*
D03*
X42430D02*
D03*
X41930D02*
D03*
Y35030D02*
D03*
X42430D02*
D03*
X42930D02*
D03*
Y38780D02*
D03*
X42430D02*
D03*
X41930D02*
D03*
Y39280D02*
D03*
X42430D02*
D03*
X42930D02*
D03*
X43030Y43730D02*
D03*
X42530D02*
D03*
X42030D02*
D03*
Y43230D02*
D03*
X42530D02*
D03*
X43030D02*
D03*
X41530Y36880D02*
D03*
Y37280D02*
D03*
X41532Y42080D02*
D03*
X41530Y41680D02*
D03*
Y46930D02*
D03*
X39280Y39580D02*
D03*
Y34530D02*
D03*
X38804Y42104D02*
D03*
X37406Y46706D02*
D03*
X26990Y41020D02*
D03*
X26526Y41030D02*
D03*
X26980Y41630D02*
D03*
X27830Y42030D02*
D03*
X27480Y42380D02*
D03*
X27530Y43620D02*
D03*
X23600Y40610D02*
D03*
X33980Y34230D02*
D03*
X30950Y37130D02*
D03*
X31420Y36660D02*
D03*
X23930Y37580D02*
D03*
X37080Y32545D02*
D03*
X28380Y42030D02*
D03*
X22130Y33530D02*
D03*
X28400Y45900D02*
D03*
X34380Y43530D02*
D03*
X33130Y37780D02*
D03*
X23630Y32530D02*
D03*
X22130D02*
D03*
X25630Y46780D02*
D03*
X35380Y42780D02*
D03*
X50214Y35780D02*
D03*
Y36530D02*
D03*
Y40530D02*
D03*
Y39780D02*
D03*
X21530Y40130D02*
D03*
X20480D02*
D03*
X23630Y33530D02*
D03*
X20230Y32380D02*
D03*
X25630Y34280D02*
D03*
Y35280D02*
D03*
X16130Y47030D02*
D03*
X47714Y36530D02*
D03*
Y35780D02*
D03*
X41530Y46530D02*
D03*
X32630Y45780D02*
D03*
X35380Y37530D02*
D03*
X34380Y37780D02*
D03*
X19830Y47280D02*
D03*
X22820Y36867D02*
D03*
X30600Y34250D02*
D03*
X27250Y35640D02*
D03*
X21930Y45930D02*
D03*
X24810Y43430D02*
D03*
X20430Y41250D02*
D03*
X21970Y46720D02*
D03*
X19130Y39780D02*
D03*
X18630D02*
D03*
X18130D02*
D03*
X19130Y40280D02*
D03*
X18142D02*
D03*
X18630D02*
D03*
X18130Y40780D02*
D03*
X18630D02*
D03*
X19130D02*
D03*
X24230Y43880D02*
D03*
X31040Y44740D02*
D03*
X27000Y43610D02*
D03*
X32480Y45130D02*
D03*
X50230Y43880D02*
D03*
Y44630D02*
D03*
X20000Y40870D02*
D03*
X31230Y35630D02*
D03*
X30930Y32130D02*
D03*
X29330D02*
D03*
X27730D02*
D03*
X26130D02*
D03*
D44*
X46243Y36530D02*
D03*
X42817D02*
D03*
D45*
X39130Y46843D02*
D03*
Y43417D02*
D03*
X18730Y46843D02*
D03*
Y43417D02*
D03*
Y34817D02*
D03*
Y38243D02*
D03*
M02*
