G04 Layer_Physical_Order=2*
G04 Layer_Color=16711680*
%FSLAX24Y24*%
%MOIN*%
G70*
G01*
G75*
%ADD10R,0.0315X0.0354*%
%ADD11R,0.0551X0.0591*%
%ADD12R,0.0256X0.0157*%
%ADD13R,0.0984X0.0965*%
%ADD18C,0.0060*%
%ADD20C,0.0080*%
%ADD21C,0.0394*%
%ADD22R,0.0394X0.0394*%
%ADD23R,0.0591X0.0591*%
%ADD24C,0.0591*%
%ADD25C,0.0370*%
%ADD26C,0.0340*%
%ADD27R,0.0354X0.0315*%
%ADD28R,0.0571X0.0236*%
%ADD29R,0.0551X0.0472*%
%ADD30R,0.0315X0.0551*%
%ADD31R,0.0394X0.1575*%
%ADD32O,0.0827X0.0276*%
%ADD33C,0.0250*%
%ADD34C,0.0500*%
%ADD35C,0.0120*%
G36*
X178664Y125306D02*
X178638Y125267D01*
X178622Y125186D01*
X178638Y125105D01*
X178684Y125036D01*
X178753Y124990D01*
X178834Y124974D01*
X179136D01*
X179157Y124960D01*
X179251Y124941D01*
X179345Y124960D01*
X179366Y124974D01*
X179385D01*
X179466Y124990D01*
X179535Y125036D01*
X179581Y125105D01*
X179597Y125186D01*
X179581Y125267D01*
X179535Y125336D01*
X179466Y125382D01*
X179385Y125398D01*
X179366D01*
X179345Y125412D01*
X179284Y125424D01*
X179289Y125474D01*
X179385D01*
X179466Y125490D01*
X179497Y125511D01*
X180283Y124726D01*
X180280Y124691D01*
X180227Y124611D01*
X180208Y124518D01*
X180227Y124424D01*
X180280Y124345D01*
X180359Y124292D01*
X180453Y124273D01*
X180546Y124292D01*
X180626Y124345D01*
X180679Y124424D01*
X180697Y124518D01*
X180687Y124571D01*
X180734Y124591D01*
X180770Y124536D01*
X180839Y124490D01*
X180920Y124474D01*
X181471D01*
X181553Y124490D01*
X181621Y124536D01*
X181667Y124605D01*
X181683Y124686D01*
X181675Y124727D01*
X181716Y124777D01*
X181942D01*
Y124671D01*
X182219D01*
Y124621D01*
X182269D01*
Y124364D01*
X182497D01*
Y124378D01*
X182547Y124405D01*
X182580Y124382D01*
X182673Y124364D01*
X182734Y124376D01*
X182784Y124338D01*
Y124245D01*
X182721Y124182D01*
X182467D01*
Y124297D01*
X181972D01*
Y124275D01*
X181662D01*
X181621Y124336D01*
X181553Y124382D01*
X181471Y124398D01*
X180920D01*
X180839Y124382D01*
X180770Y124336D01*
X180725Y124267D01*
X180708Y124186D01*
X180725Y124105D01*
X180770Y124036D01*
X180839Y123990D01*
X180920Y123974D01*
X181471D01*
X181553Y123990D01*
X181621Y124036D01*
X181631Y124051D01*
X181972D01*
Y123914D01*
X178264D01*
Y124020D01*
X177987D01*
Y124120D01*
X178264D01*
Y124252D01*
X178273Y124258D01*
X178354Y124339D01*
X178354Y124339D01*
X178378Y124375D01*
X178387Y124418D01*
Y125512D01*
X178437Y125533D01*
X178664Y125306D01*
D02*
G37*
G36*
X183433Y131407D02*
X183438Y131380D01*
X183453Y131357D01*
X183826Y130984D01*
Y130325D01*
Y128523D01*
X183819Y128514D01*
X183776Y128488D01*
X183701Y128503D01*
X183607Y128484D01*
X183528Y128431D01*
X183475Y128352D01*
X183456Y128258D01*
X183475Y128164D01*
X183528Y128085D01*
Y128037D01*
X183475Y127958D01*
X183456Y127864D01*
X183475Y127771D01*
X183528Y127691D01*
X183607Y127638D01*
X183701Y127619D01*
X183776Y127634D01*
X183819Y127608D01*
X183826Y127599D01*
Y127436D01*
X183776Y127405D01*
X183701Y127420D01*
X183607Y127401D01*
X183528Y127348D01*
X183510Y127321D01*
X183446Y127315D01*
X182974Y127787D01*
X182993Y127834D01*
X183239D01*
Y128525D01*
X182874D01*
X182860Y128539D01*
X182823Y128563D01*
X182780Y128572D01*
X182780Y128572D01*
X182467D01*
Y128687D01*
X181972D01*
Y128371D01*
X181958Y128357D01*
X181646D01*
X181621Y128395D01*
X181553Y128441D01*
X181471Y128457D01*
X180920D01*
X180839Y128441D01*
X180770Y128395D01*
X180725Y128326D01*
X180708Y128245D01*
X180725Y128164D01*
X180744Y128135D01*
X180717Y128085D01*
X180191D01*
X179849Y128428D01*
X179847Y128436D01*
X179825Y128470D01*
X179375Y128919D01*
X179342Y128941D01*
X179303Y128949D01*
X178264D01*
Y129138D01*
X177987D01*
Y129238D01*
X178264D01*
Y129401D01*
X178278Y129410D01*
X178336Y129468D01*
X178359Y129501D01*
X178366Y129540D01*
Y130597D01*
X178413Y130616D01*
X178588Y130441D01*
Y130304D01*
X178596Y130261D01*
X178620Y130225D01*
X178650Y130205D01*
X178684Y130154D01*
X178753Y130108D01*
X178834Y130092D01*
X179217D01*
X179226Y130086D01*
X179320Y130067D01*
X179414Y130086D01*
X179440Y130103D01*
X179466Y130108D01*
X179535Y130154D01*
X179581Y130223D01*
X179597Y130304D01*
X179581Y130385D01*
X179535Y130454D01*
X179497Y130479D01*
X179493Y130485D01*
X179414Y130538D01*
X179387Y130543D01*
X179385Y130592D01*
X179466Y130608D01*
X179535Y130654D01*
X179581Y130659D01*
X180225Y130015D01*
X180208Y129931D01*
X180227Y129837D01*
X180280Y129758D01*
X180359Y129705D01*
X180453Y129686D01*
X180546Y129705D01*
X180626Y129758D01*
X180660Y129810D01*
X180679Y129807D01*
X180710Y129795D01*
X180725Y129723D01*
X180770Y129654D01*
X180839Y129608D01*
X180920Y129592D01*
X181471D01*
X181553Y129608D01*
X181621Y129654D01*
X181667Y129723D01*
X181683Y129804D01*
X181667Y129885D01*
X181621Y129954D01*
X181553Y130000D01*
X181471Y130016D01*
X180920D01*
X180898Y130012D01*
X180856Y130054D01*
X180880Y130100D01*
X180920Y130092D01*
X181471D01*
X181553Y130108D01*
X181621Y130154D01*
X181667Y130223D01*
X181683Y130304D01*
X181667Y130385D01*
X181621Y130454D01*
X181553Y130500D01*
X181471Y130516D01*
X180920D01*
X180839Y130500D01*
X180770Y130454D01*
X180738Y130406D01*
X180688D01*
X179485Y131608D01*
X179452Y131630D01*
X179413Y131638D01*
X176656D01*
X176617Y131630D01*
X176584Y131608D01*
X174692Y129716D01*
X174670Y129683D01*
X174662Y129644D01*
Y129511D01*
X174591Y129464D01*
X174538Y129385D01*
X174520Y129291D01*
X174538Y129197D01*
X174591Y129118D01*
X174671Y129065D01*
X174764Y129046D01*
X174858Y129065D01*
X174937Y129118D01*
X174990Y129197D01*
X175009Y129291D01*
X174990Y129385D01*
X174989Y129386D01*
X175025Y129422D01*
X175044Y129410D01*
X175138Y129391D01*
X175231Y129410D01*
X175277Y129440D01*
X175327Y129414D01*
Y129187D01*
X175335Y129148D01*
X175357Y129115D01*
X175402Y129070D01*
X175386Y128986D01*
X175404Y128892D01*
X175457Y128813D01*
X175537Y128760D01*
X175630Y128741D01*
X175724Y128760D01*
X175803Y128813D01*
X175856Y128892D01*
X175875Y128986D01*
X175856Y129079D01*
X175810Y129149D01*
X175805Y129163D01*
X175818Y129209D01*
X175872Y129246D01*
X175925Y129325D01*
X175929Y129344D01*
X177051D01*
Y128961D01*
X177137D01*
X177186Y128951D01*
X177195Y128908D01*
X177219Y128871D01*
X177327Y128763D01*
X177308Y128717D01*
X177021D01*
Y128510D01*
X177298D01*
Y128410D01*
X177021D01*
Y128410D01*
X176975Y128390D01*
X176458Y128908D01*
X176421Y128932D01*
X176409Y128934D01*
X176364Y129001D01*
X176285Y129054D01*
X176191Y129073D01*
X176098Y129054D01*
X176018Y129001D01*
X175965Y128922D01*
X175947Y128828D01*
X175965Y128735D01*
X176018Y128655D01*
X176098Y128602D01*
X176191Y128584D01*
X176285Y128602D01*
X176364Y128655D01*
X176390Y128658D01*
X177036Y128013D01*
X177032Y127990D01*
X176979Y127973D01*
X176594Y128358D01*
X176558Y128382D01*
X176515Y128391D01*
X176515Y128391D01*
X175720D01*
X175720Y128391D01*
X175677Y128382D01*
X175641Y128358D01*
X175641Y128358D01*
X175623Y128341D01*
X175551Y128355D01*
X175458Y128336D01*
X175378Y128283D01*
X175325Y128204D01*
X175306Y128110D01*
X175325Y128017D01*
X175361Y127963D01*
X175367Y127916D01*
X175354Y127893D01*
X175318Y127858D01*
X175247Y127872D01*
X175153Y127854D01*
X175123Y127834D01*
X175073Y127860D01*
Y128125D01*
X175144Y128173D01*
X175197Y128252D01*
X175216Y128346D01*
X175197Y128440D01*
X175169Y128482D01*
X175172Y128534D01*
X175252Y128587D01*
X175305Y128666D01*
X175323Y128760D01*
X175305Y128853D01*
X175252Y128933D01*
X175172Y128986D01*
X175079Y129005D01*
X174985Y128986D01*
X174906Y128933D01*
X174853Y128853D01*
X174834Y128760D01*
X174838Y128739D01*
X174629Y128530D01*
X174607Y128497D01*
X174599Y128458D01*
Y128234D01*
X174607Y128195D01*
X174629Y128162D01*
X174722Y128068D01*
Y127836D01*
X174648D01*
Y127943D01*
X174632Y128019D01*
X174589Y128084D01*
X174394Y128279D01*
X174380Y128352D01*
X174361Y128379D01*
Y128505D01*
X174333D01*
Y128583D01*
X174323Y128630D01*
X174359Y128680D01*
X174381D01*
Y129056D01*
X174079D01*
X174026Y129067D01*
X173972Y129056D01*
X173670D01*
Y128680D01*
X173827D01*
Y128535D01*
X173633D01*
Y128258D01*
Y127981D01*
X173840D01*
Y128272D01*
X173866Y128295D01*
X173890Y128301D01*
X173906Y128285D01*
Y128011D01*
X174100D01*
X174225Y127886D01*
X174204Y127836D01*
X174103D01*
Y127177D01*
X174037D01*
Y127420D01*
X173661D01*
X173286D01*
Y127075D01*
X173286Y127075D01*
X173286D01*
X173270Y127031D01*
X172869Y126630D01*
X172847Y126597D01*
X172839Y126558D01*
Y125264D01*
X172806Y125251D01*
X172751Y125208D01*
X172708Y125152D01*
X172681Y125087D01*
X172672Y125018D01*
X172681Y124948D01*
X172708Y124883D01*
X172751Y124827D01*
X172789Y124798D01*
X172793Y124788D01*
Y124748D01*
X172789Y124738D01*
X172751Y124708D01*
X172708Y124652D01*
X172681Y124587D01*
X172672Y124518D01*
X172681Y124448D01*
X172708Y124383D01*
X172751Y124327D01*
X172806Y124285D01*
X172871Y124258D01*
X172941Y124249D01*
X173011Y124258D01*
X173076Y124285D01*
X173131Y124327D01*
X173161Y124366D01*
X173171Y124370D01*
X173211D01*
X173221Y124366D01*
X173251Y124327D01*
X173306Y124285D01*
X173371Y124258D01*
X173441Y124249D01*
X173511Y124258D01*
X173576Y124285D01*
X173631Y124327D01*
X173674Y124383D01*
X173701Y124448D01*
X173710Y124518D01*
X173701Y124587D01*
X173674Y124652D01*
X173631Y124708D01*
X173593Y124738D01*
X173589Y124748D01*
Y124788D01*
X173593Y124798D01*
X173631Y124827D01*
X173661Y124866D01*
X173671Y124870D01*
X173711D01*
X173721Y124866D01*
X173751Y124827D01*
X173806Y124785D01*
X173871Y124758D01*
X173941Y124749D01*
X174011Y124758D01*
X174076Y124785D01*
X174131Y124827D01*
X174161Y124866D01*
X174171Y124870D01*
X174211D01*
X174221Y124866D01*
X174251Y124827D01*
X174306Y124785D01*
X174371Y124758D01*
X174441Y124749D01*
X174511Y124758D01*
X174576Y124785D01*
X174631Y124827D01*
X174661Y124866D01*
X174671Y124870D01*
X174711D01*
X174721Y124866D01*
X174745Y124835D01*
X174738Y124807D01*
X174724Y124785D01*
X174674D01*
Y124251D01*
X175208D01*
Y124785D01*
X175158D01*
X175144Y124807D01*
X175137Y124835D01*
X175174Y124883D01*
X175201Y124948D01*
X175210Y125018D01*
X175201Y125087D01*
X175174Y125152D01*
X175131Y125208D01*
X175076Y125251D01*
X175011Y125278D01*
X174941Y125287D01*
X174871Y125278D01*
X174806Y125251D01*
X174751Y125208D01*
X174721Y125169D01*
X174711Y125166D01*
X174671D01*
X174661Y125169D01*
X174631Y125208D01*
X174576Y125251D01*
X174511Y125278D01*
X174441Y125287D01*
X174371Y125278D01*
X174306Y125251D01*
X174251Y125208D01*
X174221Y125169D01*
X174211Y125166D01*
X174171D01*
X174161Y125169D01*
X174131Y125208D01*
X174076Y125251D01*
X174011Y125278D01*
X173941Y125287D01*
X173871Y125278D01*
X173806Y125251D01*
X173751Y125208D01*
X173721Y125169D01*
X173711Y125166D01*
X173671D01*
X173661Y125169D01*
X173631Y125208D01*
X173576Y125251D01*
X173511Y125278D01*
X173441Y125287D01*
X173371Y125278D01*
X173306Y125251D01*
X173251Y125208D01*
X173221Y125169D01*
X173211Y125166D01*
X173171D01*
X173161Y125169D01*
X173131Y125208D01*
X173076Y125251D01*
X173043Y125264D01*
Y126483D01*
X173055Y126491D01*
X173105Y126465D01*
Y126265D01*
X173332D01*
Y126522D01*
X173432D01*
Y126265D01*
X173492D01*
X173517Y126215D01*
X173505Y126199D01*
X173135D01*
Y125744D01*
X173629D01*
Y125980D01*
X173924Y126275D01*
X174494D01*
Y126500D01*
X174508Y126509D01*
X174530Y126542D01*
X174530Y126545D01*
X174639D01*
X174678Y126553D01*
X174711Y126575D01*
X174734Y126608D01*
X174741Y126647D01*
Y126816D01*
X175471D01*
X175505Y126780D01*
X175505Y126766D01*
Y126572D01*
X175782D01*
X176059D01*
X176059Y126776D01*
X176068Y126799D01*
X176078Y126822D01*
X176155Y126874D01*
X176208Y126953D01*
X176227Y127047D01*
X176208Y127140D01*
X176155Y127220D01*
X176076Y127273D01*
X176021Y127284D01*
X176005Y127338D01*
X176045Y127378D01*
X176068Y127376D01*
X176147Y127323D01*
X176241Y127304D01*
X176334Y127323D01*
X176414Y127376D01*
X176439Y127414D01*
X176489Y127399D01*
Y125619D01*
X176439Y125580D01*
X176382Y125592D01*
X176288Y125573D01*
X176259Y125553D01*
X176029Y125783D01*
Y126199D01*
X175535D01*
Y126083D01*
X175361D01*
Y126218D01*
X174669D01*
Y125606D01*
X175361D01*
Y125859D01*
X175535D01*
Y125744D01*
X175751D01*
X176139Y125356D01*
X176137Y125347D01*
X176156Y125253D01*
X176209Y125174D01*
X176288Y125121D01*
X176382Y125102D01*
X176476Y125121D01*
X176506Y125141D01*
X176550Y125117D01*
Y124056D01*
X176558Y124017D01*
X176580Y123984D01*
X176954Y123610D01*
X176987Y123588D01*
X177026Y123580D01*
X183053D01*
X183092Y123588D01*
X183125Y123610D01*
X183471Y123957D01*
X183493Y123990D01*
X183501Y124029D01*
Y124770D01*
X183493Y124809D01*
X183471Y124843D01*
X183254Y125060D01*
X183275Y125110D01*
X183344D01*
X183569Y124885D01*
X183555Y124813D01*
X183573Y124719D01*
X183626Y124640D01*
X183694Y124595D01*
X183697Y124581D01*
Y124553D01*
X183694Y124539D01*
X183626Y124494D01*
X183573Y124414D01*
X183555Y124321D01*
X183573Y124227D01*
X183626Y124148D01*
X183706Y124095D01*
X183799Y124076D01*
X183893Y124095D01*
X183972Y124148D01*
X184025Y124227D01*
X184044Y124321D01*
X184025Y124414D01*
X183972Y124494D01*
X183905Y124539D01*
X183901Y124553D01*
Y124581D01*
X183905Y124595D01*
X183972Y124640D01*
X184025Y124719D01*
X184044Y124813D01*
X184025Y124907D01*
X183972Y124986D01*
X183893Y125039D01*
X183799Y125058D01*
X183727Y125043D01*
X183583Y125188D01*
X183602Y125234D01*
X184486D01*
Y123361D01*
X168370D01*
Y131805D01*
X183433D01*
Y131407D01*
D02*
G37*
G36*
X184486Y125305D02*
X183464D01*
X183433Y125326D01*
X183406Y125331D01*
Y125994D01*
X183898D01*
Y127038D01*
X183927Y127082D01*
X183945Y127175D01*
X183927Y127269D01*
X183898Y127313D01*
Y127667D01*
X183701Y127864D01*
Y128258D01*
X183898Y128455D01*
Y130325D01*
Y131014D01*
X183504Y131407D01*
Y131805D01*
X184486D01*
Y125305D01*
D02*
G37*
G36*
X177348Y125643D02*
X177575D01*
X177575Y125643D01*
Y125643D01*
X177617Y125622D01*
X177701Y125538D01*
X177738Y125513D01*
X177740Y125513D01*
Y125122D01*
X177836D01*
Y124849D01*
X177740D01*
Y124642D01*
X177545D01*
Y124849D01*
X177400D01*
Y125122D01*
X177545D01*
Y125577D01*
X177109D01*
X177098Y125593D01*
X177124Y125643D01*
X177248D01*
Y125901D01*
X177348D01*
Y125643D01*
D02*
G37*
G36*
X181972Y127681D02*
X182369D01*
X182396Y127631D01*
X182367Y127589D01*
X182349Y127495D01*
X182353Y127476D01*
X182321Y127438D01*
X182269D01*
Y127230D01*
X182511D01*
X182547Y127260D01*
X182593Y127250D01*
X182665Y127265D01*
X182784Y127146D01*
Y126811D01*
X182714Y126741D01*
X182467D01*
Y126856D01*
X182107D01*
X182103Y126857D01*
X182103Y126857D01*
X181646D01*
X181621Y126895D01*
X181553Y126941D01*
X181471Y126957D01*
X180920D01*
X180839Y126941D01*
X180770Y126895D01*
X180725Y126826D01*
X180708Y126745D01*
X180725Y126664D01*
X180770Y126595D01*
X180839Y126549D01*
X180920Y126533D01*
X181471D01*
X181553Y126549D01*
X181621Y126595D01*
X181646Y126633D01*
X181972D01*
Y126401D01*
X182467D01*
Y126517D01*
X182761D01*
X182761Y126517D01*
X182804Y126525D01*
X182840Y126550D01*
X182904Y126613D01*
X183199D01*
X183374Y126438D01*
X183381Y126404D01*
X183392Y126387D01*
Y126063D01*
X183378Y126060D01*
X183355Y126045D01*
X183340Y126021D01*
X183334Y125994D01*
Y125776D01*
X183331Y125773D01*
X183289Y125711D01*
X183239Y125726D01*
Y125966D01*
X182835D01*
X182673Y126128D01*
X182636Y126152D01*
X182593Y126160D01*
X182593Y126160D01*
X182467D01*
Y126207D01*
X181972D01*
Y126160D01*
X181558D01*
X181558Y126160D01*
X181515Y126152D01*
X181479Y126128D01*
X181479Y126128D01*
X181249Y125898D01*
X180920D01*
X180839Y125882D01*
X180770Y125836D01*
X180725Y125767D01*
X180708Y125686D01*
X180725Y125605D01*
X180770Y125536D01*
X180839Y125490D01*
X180920Y125474D01*
X181471D01*
X181553Y125490D01*
X181621Y125536D01*
X181667Y125605D01*
X181683Y125686D01*
X181667Y125767D01*
X181621Y125836D01*
X181604Y125848D01*
X181598Y125901D01*
X181630Y125936D01*
X181972D01*
Y125752D01*
X182467D01*
Y125936D01*
X182547D01*
X182784Y125699D01*
Y125457D01*
X182734Y125431D01*
X182721Y125440D01*
X182678Y125448D01*
X182678Y125448D01*
X182467D01*
Y125656D01*
X181972D01*
Y125201D01*
X182326D01*
X182337Y125199D01*
X182380D01*
X182380Y125199D01*
X182391Y125201D01*
X182467D01*
Y125224D01*
X182632D01*
X182695Y125161D01*
X182674Y125111D01*
X181708D01*
X181676Y125149D01*
X181683Y125186D01*
X181667Y125267D01*
X181621Y125336D01*
X181553Y125382D01*
X181471Y125398D01*
X180920D01*
X180839Y125382D01*
X180770Y125336D01*
X180725Y125267D01*
X180708Y125186D01*
X180725Y125105D01*
X180770Y125036D01*
X180839Y124990D01*
X180920Y124974D01*
X181248D01*
X181282Y124940D01*
X181264Y124908D01*
X181256Y124898D01*
X180920D01*
X180839Y124882D01*
X180770Y124836D01*
X180725Y124767D01*
X180708Y124686D01*
X180717Y124645D01*
X180669Y124625D01*
X180626Y124691D01*
X180561Y124734D01*
X180556Y124757D01*
X180532Y124794D01*
X180532Y124794D01*
X179586Y125740D01*
X179581Y125767D01*
X179535Y125836D01*
X179466Y125882D01*
X179385Y125898D01*
X178834D01*
X178753Y125882D01*
X178684Y125836D01*
X178638Y125767D01*
X178630Y125727D01*
X178576Y125711D01*
X178307Y125980D01*
X178270Y126004D01*
X178234Y126011D01*
Y126128D01*
X177740D01*
Y126128D01*
X177698Y126146D01*
Y126327D01*
X177703Y126345D01*
X177743Y126371D01*
X177937D01*
Y126629D01*
X177987D01*
Y126679D01*
X178264D01*
Y126817D01*
X178289Y126833D01*
X178354Y126898D01*
X178354Y126898D01*
X178378Y126934D01*
X178387Y126977D01*
X178387Y126977D01*
Y127988D01*
X178433Y128007D01*
X178470Y127969D01*
Y127745D01*
X178479Y127702D01*
X178503Y127666D01*
X178539Y127641D01*
X178582Y127633D01*
X178659D01*
X178684Y127595D01*
X178753Y127549D01*
X178834Y127533D01*
X179235D01*
X179256Y127519D01*
X179349Y127500D01*
X179443Y127519D01*
X179522Y127572D01*
X179575Y127651D01*
X179577Y127658D01*
X179581Y127664D01*
X179592Y127722D01*
X179645Y127741D01*
X180225Y127161D01*
X180208Y127077D01*
X180227Y126983D01*
X180280Y126904D01*
X180359Y126851D01*
X180453Y126832D01*
X180546Y126851D01*
X180626Y126904D01*
X180679Y126983D01*
X180697Y127077D01*
X180687Y127130D01*
X180734Y127150D01*
X180770Y127095D01*
X180839Y127049D01*
X180920Y127033D01*
X181471D01*
X181553Y127049D01*
X181621Y127095D01*
X181667Y127164D01*
X181683Y127245D01*
X181678Y127272D01*
X181804Y127398D01*
X181826Y127431D01*
X181834Y127470D01*
Y127821D01*
X181826Y127860D01*
X181804Y127893D01*
X181646Y128051D01*
X181642Y128058D01*
X181640Y128086D01*
X181681Y128133D01*
X181972D01*
Y127681D01*
D02*
G37*
G36*
X177021Y131008D02*
Y130761D01*
X177248D01*
Y131019D01*
X177348D01*
Y130761D01*
X177575D01*
Y130761D01*
X177607Y130774D01*
X177728Y130653D01*
X177740Y130645D01*
Y130580D01*
X177545D01*
Y130695D01*
X177051D01*
Y130240D01*
X177186D01*
Y129967D01*
X177051D01*
Y129851D01*
X176431D01*
X176394Y129907D01*
X176314Y129960D01*
X176221Y129979D01*
X176127Y129960D01*
X176047Y129907D01*
X175994Y129828D01*
X175976Y129734D01*
X175994Y129641D01*
X176023Y129597D01*
X175997Y129547D01*
X175902D01*
X175872Y129592D01*
X175793Y129645D01*
X175699Y129664D01*
X175678Y129659D01*
X175653Y129705D01*
X176975Y131027D01*
X177021Y131008D01*
D02*
G37*
%LPC*%
G36*
X178780Y127026D02*
X178686Y127008D01*
X178606Y126955D01*
X178553Y126875D01*
X178535Y126782D01*
X178553Y126688D01*
X178606Y126608D01*
X178686Y126555D01*
X178780Y126537D01*
X178798Y126540D01*
X178834Y126533D01*
X179385D01*
X179466Y126549D01*
X179535Y126595D01*
X179581Y126664D01*
X179597Y126745D01*
X179581Y126826D01*
X179535Y126895D01*
X179466Y126941D01*
X179385Y126957D01*
X178949D01*
X178873Y127008D01*
X178780Y127026D01*
D02*
G37*
G36*
X178264Y126579D02*
X178037D01*
Y126371D01*
X178264D01*
Y126579D01*
D02*
G37*
G36*
X170856Y126633D02*
X170530D01*
Y126288D01*
X170856D01*
Y126633D01*
D02*
G37*
G36*
X171281D02*
X170956D01*
Y126288D01*
X171281D01*
Y126633D01*
D02*
G37*
G36*
X170856Y127078D02*
X170530D01*
Y126733D01*
X170856D01*
Y127078D01*
D02*
G37*
G36*
X182169Y127130D02*
X181942D01*
Y126923D01*
X182169D01*
Y127130D01*
D02*
G37*
G36*
X182497D02*
X182269D01*
Y126923D01*
X182497D01*
Y127130D01*
D02*
G37*
G36*
X171281Y127078D02*
X170956D01*
Y126733D01*
X171281D01*
Y127078D01*
D02*
G37*
G36*
X170856Y127519D02*
X170530D01*
Y127174D01*
X170856D01*
Y127519D01*
D02*
G37*
G36*
X182169Y124571D02*
X181942D01*
Y124364D01*
X182169D01*
Y124571D01*
D02*
G37*
G36*
X170856Y125747D02*
X170530D01*
Y125402D01*
X170856D01*
Y125747D01*
D02*
G37*
G36*
X178796Y124467D02*
X178702Y124449D01*
X178623Y124395D01*
X178570Y124316D01*
X178551Y124222D01*
X178570Y124129D01*
X178623Y124049D01*
X178702Y123996D01*
X178796Y123978D01*
X178806Y123980D01*
X178834Y123974D01*
X179385D01*
X179466Y123990D01*
X179535Y124036D01*
X179581Y124105D01*
X179597Y124186D01*
X179581Y124267D01*
X179535Y124336D01*
X179466Y124382D01*
X179385Y124398D01*
X178965D01*
X178890Y124449D01*
X178796Y124467D01*
D02*
G37*
G36*
X169937Y124394D02*
X169842Y124381D01*
X169753Y124345D01*
X169676Y124286D01*
X169618Y124210D01*
X169581Y124121D01*
X169569Y124026D01*
X169581Y123930D01*
X169618Y123841D01*
X169676Y123765D01*
X169753Y123707D01*
X169842Y123670D01*
X169937Y123657D01*
X170032Y123670D01*
X170121Y123707D01*
X170198Y123765D01*
X170256Y123841D01*
X170293Y123930D01*
X170305Y124026D01*
X170293Y124121D01*
X170256Y124210D01*
X170198Y124286D01*
X170121Y124345D01*
X170032Y124381D01*
X169937Y124394D01*
D02*
G37*
G36*
X170937D02*
X170842Y124381D01*
X170753Y124345D01*
X170676Y124286D01*
X170618Y124210D01*
X170581Y124121D01*
X170569Y124026D01*
X170581Y123930D01*
X170618Y123841D01*
X170676Y123765D01*
X170753Y123707D01*
X170842Y123670D01*
X170937Y123657D01*
X171032Y123670D01*
X171121Y123707D01*
X171198Y123765D01*
X171256Y123841D01*
X171293Y123930D01*
X171305Y124026D01*
X171293Y124121D01*
X171256Y124210D01*
X171198Y124286D01*
X171121Y124345D01*
X171032Y124381D01*
X170937Y124394D01*
D02*
G37*
G36*
X175732Y126472D02*
X175505D01*
Y126265D01*
X175732D01*
Y126472D01*
D02*
G37*
G36*
X176059D02*
X175832D01*
Y126265D01*
X176059D01*
Y126472D01*
D02*
G37*
G36*
X171281Y126193D02*
X170956D01*
Y125847D01*
X171281D01*
Y126193D01*
D02*
G37*
G36*
Y125747D02*
X170956D01*
Y125402D01*
X171281D01*
Y125747D01*
D02*
G37*
G36*
X170856Y126193D02*
X170530D01*
Y125847D01*
X170856D01*
Y126193D01*
D02*
G37*
G36*
X178780Y129585D02*
X178686Y129567D01*
X178607Y129514D01*
X178553Y129434D01*
X178535Y129341D01*
X178553Y129247D01*
X178607Y129167D01*
X178686Y129114D01*
X178780Y129096D01*
X178798Y129099D01*
X178834Y129092D01*
X179385D01*
X179466Y129108D01*
X179535Y129154D01*
X179581Y129223D01*
X179597Y129304D01*
X179581Y129385D01*
X179535Y129454D01*
X179466Y129500D01*
X179385Y129516D01*
X178949D01*
X178873Y129567D01*
X178780Y129585D01*
D02*
G37*
G36*
X170856Y129736D02*
X170530D01*
Y129391D01*
X170856D01*
Y129736D01*
D02*
G37*
G36*
X171281Y129291D02*
X170956D01*
Y128945D01*
X171281D01*
Y129291D01*
D02*
G37*
G36*
Y128850D02*
X170956D01*
Y128505D01*
X171281D01*
Y128850D01*
D02*
G37*
G36*
X170856Y129291D02*
X170530D01*
Y128945D01*
X170856D01*
Y129291D01*
D02*
G37*
G36*
X171281Y129736D02*
X170956D01*
Y129391D01*
X171281D01*
Y129736D01*
D02*
G37*
G36*
X182467Y131246D02*
X181972D01*
Y131131D01*
X181410D01*
X181410Y131131D01*
X181368Y131122D01*
X181331Y131098D01*
X181331Y131098D01*
X181249Y131016D01*
X180920D01*
X180839Y131000D01*
X180770Y130954D01*
X180725Y130885D01*
X180708Y130804D01*
X180725Y130723D01*
X180770Y130654D01*
X180839Y130608D01*
X180920Y130592D01*
X181471D01*
X181553Y130608D01*
X181621Y130654D01*
X181667Y130723D01*
X181683Y130804D01*
X181673Y130857D01*
X181708Y130907D01*
X181972D01*
Y130791D01*
X182288D01*
X182338Y130741D01*
X182319Y130695D01*
X181972D01*
Y130240D01*
X182303D01*
X182496Y130047D01*
X182475Y129997D01*
X182455Y129997D01*
X182269D01*
Y129739D01*
X182219D01*
Y129689D01*
X181942D01*
Y129482D01*
X182221D01*
X182246Y129432D01*
X182234Y129415D01*
X182107D01*
X182103Y129416D01*
X182103Y129416D01*
X181646D01*
X181621Y129454D01*
X181553Y129500D01*
X181471Y129516D01*
X180920D01*
X180839Y129500D01*
X180770Y129454D01*
X180725Y129385D01*
X180708Y129304D01*
X180725Y129223D01*
X180770Y129154D01*
X180839Y129108D01*
X180920Y129092D01*
X181471D01*
X181553Y129108D01*
X181621Y129154D01*
X181646Y129192D01*
X181972D01*
Y128961D01*
X182467D01*
Y129306D01*
X182566Y129405D01*
X182638Y129391D01*
X182710Y129405D01*
X182784Y129331D01*
Y129051D01*
X183239D01*
Y129660D01*
X183278Y129692D01*
X183307Y129686D01*
X183401Y129705D01*
X183480Y129758D01*
X183533Y129837D01*
X183552Y129931D01*
X183533Y130025D01*
X183480Y130104D01*
X183401Y130157D01*
X183307Y130176D01*
X183213Y130157D01*
X183134Y130104D01*
X183087Y130033D01*
X182798D01*
X182467Y130365D01*
Y130627D01*
X182484Y130642D01*
X182484Y130642D01*
X182784D01*
Y130271D01*
X183239D01*
Y130962D01*
X182784D01*
Y130866D01*
X182531D01*
X182467Y130930D01*
Y131246D01*
D02*
G37*
G36*
X171693Y131184D02*
X170413D01*
X170411Y131183D01*
X170408Y131183D01*
X170397Y131180D01*
X170386Y131178D01*
X170384Y131177D01*
X170381Y131176D01*
X170200Y131085D01*
X169134D01*
X169107Y131080D01*
X169083Y131064D01*
X169068Y131041D01*
X169062Y131014D01*
Y130226D01*
X169068Y130199D01*
X169083Y130176D01*
X169107Y130160D01*
X169134Y130155D01*
X170315D01*
X170322Y130156D01*
X170329Y130156D01*
X170335Y130159D01*
X170342Y130160D01*
X170348Y130164D01*
X170355Y130167D01*
X170360Y130172D01*
X170365Y130176D01*
X170369Y130182D01*
X170374Y130187D01*
X170482Y130348D01*
X170530Y130334D01*
Y130276D01*
X170905D01*
X171281D01*
Y130414D01*
X171304Y130421D01*
X171347Y130383D01*
Y129861D01*
X171370D01*
Y129706D01*
X171347D01*
Y128975D01*
X171370D01*
Y128820D01*
X171347D01*
Y128089D01*
X171370D01*
Y127934D01*
X171347D01*
Y127204D01*
X171370D01*
Y127048D01*
X171347D01*
Y126318D01*
X171370D01*
Y126163D01*
X171347D01*
Y125432D01*
X171512D01*
X171531Y125386D01*
X171267Y125122D01*
X170277D01*
Y125168D01*
X169893D01*
Y125956D01*
X169804D01*
X169772Y125994D01*
X169754Y126088D01*
X169701Y126167D01*
X169621Y126220D01*
X169561Y126232D01*
X169549Y126286D01*
X169599Y126324D01*
X169658Y126400D01*
X169694Y126489D01*
X169707Y126585D01*
X169694Y126680D01*
X169660Y126762D01*
X170003Y127105D01*
X170025Y127138D01*
X170033Y127177D01*
Y128366D01*
X170025Y128405D01*
X170003Y128438D01*
X169836Y128605D01*
X169803Y128627D01*
X169764Y128635D01*
X169471D01*
X169441Y128681D01*
Y129046D01*
X169523Y129081D01*
X169599Y129139D01*
X169658Y129215D01*
X169694Y129304D01*
X169707Y129400D01*
X169694Y129495D01*
X169658Y129584D01*
X169599Y129660D01*
X169523Y129719D01*
X169434Y129755D01*
X169339Y129768D01*
X169243Y129755D01*
X169154Y129719D01*
X169078Y129660D01*
X169020Y129584D01*
X168983Y129495D01*
X168970Y129400D01*
X168983Y129304D01*
X169020Y129215D01*
X169078Y129139D01*
X169154Y129081D01*
X169237Y129046D01*
Y128761D01*
X169152Y128744D01*
X169068Y128688D01*
X169012Y128603D01*
X168992Y128504D01*
X169012Y128404D01*
X169068Y128320D01*
X169134Y128276D01*
Y128220D01*
X169068Y128176D01*
X169012Y128092D01*
X168992Y127992D01*
X169012Y127893D01*
X169068Y127808D01*
X169134Y127764D01*
Y127708D01*
X169068Y127664D01*
X169012Y127580D01*
X168992Y127480D01*
X169012Y127381D01*
X169068Y127296D01*
X169152Y127240D01*
X169252Y127220D01*
X169351Y127240D01*
X169436Y127296D01*
X169492Y127381D01*
X169508Y127461D01*
X169536Y127487D01*
X169560Y127493D01*
X169646Y127476D01*
X169745Y127496D01*
X169785Y127522D01*
X169829Y127499D01*
Y127219D01*
X169516Y126906D01*
X169434Y126941D01*
X169339Y126953D01*
X169243Y126941D01*
X169154Y126904D01*
X169078Y126845D01*
X169020Y126769D01*
X168983Y126680D01*
X168970Y126585D01*
X168983Y126489D01*
X169020Y126400D01*
X169078Y126324D01*
X169126Y126287D01*
X169113Y126235D01*
X169040Y126220D01*
X168961Y126167D01*
X168959Y126164D01*
X168937D01*
X168910Y126158D01*
X168887Y126143D01*
X168871Y126120D01*
X168866Y126093D01*
Y125956D01*
X168769D01*
Y124851D01*
X169893D01*
Y124871D01*
X170277D01*
Y124918D01*
X171309D01*
X171348Y124925D01*
X171381Y124948D01*
X171765Y125331D01*
X171787Y125365D01*
X171795Y125404D01*
X171831Y125432D01*
X172038D01*
Y126163D01*
X172016D01*
Y126318D01*
X172038D01*
Y127048D01*
X172016D01*
Y127204D01*
X172038D01*
Y127934D01*
X172016D01*
Y128089D01*
X172038D01*
Y128820D01*
X172016D01*
Y128975D01*
X172038D01*
Y129110D01*
X172745D01*
Y129054D01*
X173456D01*
Y129430D01*
X172745D01*
Y129375D01*
X172038D01*
Y129706D01*
X172016D01*
Y129861D01*
X172038D01*
Y130571D01*
X172039Y130571D01*
X172054Y130594D01*
X172060Y130622D01*
Y130817D01*
X172054Y130844D01*
X172039Y130867D01*
X171743Y131163D01*
X171720Y131178D01*
X171693Y131184D01*
D02*
G37*
G36*
X171281Y130176D02*
X170956D01*
Y129831D01*
X171281D01*
Y130176D01*
D02*
G37*
G36*
X182169Y129997D02*
X181942D01*
Y129789D01*
X182169D01*
Y129997D01*
D02*
G37*
G36*
X170856Y130176D02*
X170530D01*
Y129831D01*
X170856D01*
Y130176D01*
D02*
G37*
G36*
X170856Y127964D02*
X170530D01*
Y127619D01*
X170856D01*
Y127964D01*
D02*
G37*
G36*
X171281Y127519D02*
X170956D01*
Y127174D01*
X171281D01*
Y127519D01*
D02*
G37*
G36*
X174037Y127866D02*
X173711D01*
Y127520D01*
X174037D01*
Y127866D01*
D02*
G37*
G36*
X182169Y127438D02*
X181942D01*
Y127230D01*
X182169D01*
Y127438D01*
D02*
G37*
G36*
X173611Y127866D02*
X173286D01*
Y127520D01*
X173611D01*
Y127866D01*
D02*
G37*
G36*
X171281Y127964D02*
X170956D01*
Y127619D01*
X171281D01*
Y127964D01*
D02*
G37*
G36*
X173533Y128535D02*
X173325D01*
Y128308D01*
X173533D01*
Y128535D01*
D02*
G37*
G36*
X170856Y128850D02*
X170530D01*
Y128505D01*
X170856D01*
Y128850D01*
D02*
G37*
G36*
X171281Y128405D02*
X170956D01*
Y128059D01*
X171281D01*
Y128405D01*
D02*
G37*
G36*
X173533Y128208D02*
X173325D01*
Y127981D01*
X173533D01*
Y128208D01*
D02*
G37*
G36*
X170856Y128405D02*
X170530D01*
Y128059D01*
X170856D01*
Y128405D01*
D02*
G37*
%LPD*%
G36*
X169626Y125108D02*
X168937D01*
Y126093D01*
X169626D01*
Y125108D01*
D02*
G37*
G36*
X171890Y130915D02*
X171988Y130817D01*
Y130622D01*
X171743D01*
Y130226D01*
X171643D01*
Y130622D01*
X171317D01*
Y130522D01*
X171251D01*
Y130592D01*
X170560D01*
Y130522D01*
X170512D01*
X170315Y130226D01*
X169134D01*
Y131014D01*
X170217D01*
X170413Y131112D01*
X171693D01*
X171890Y130915D01*
D02*
G37*
D10*
X173583Y128258D02*
D03*
X174134D02*
D03*
D11*
X174449Y127470D02*
D03*
X173661D02*
D03*
X171693Y130226D02*
D03*
X170906D02*
D03*
X171693Y129341D02*
D03*
X170906D02*
D03*
X171693Y128455D02*
D03*
X170906D02*
D03*
X171693Y127569D02*
D03*
X170906D02*
D03*
X171693Y126683D02*
D03*
X170906D02*
D03*
X171693Y125797D02*
D03*
X170906D02*
D03*
D12*
X170079Y125787D02*
D03*
Y125531D02*
D03*
Y125276D02*
D03*
Y125020D02*
D03*
D13*
X169331Y125404D02*
D03*
D18*
X177800Y130725D02*
X178206D01*
X175429Y129531D02*
X175524Y129626D01*
Y129721D01*
X177080Y131276D01*
X177517D01*
X177575Y131218D01*
Y130950D02*
Y131218D01*
Y130950D02*
X177800Y130725D01*
X175138Y129636D02*
X176908Y131406D01*
X179360D01*
X174764Y129644D02*
X176656Y131536D01*
X179413D01*
X174764Y129291D02*
Y129644D01*
X179360Y131406D02*
X180962Y129804D01*
X179413Y131536D02*
X180645Y130304D01*
X169931Y127177D02*
Y128366D01*
X169415Y128420D02*
Y128533D01*
X169319Y129468D02*
X169363Y129424D01*
X169339Y128496D02*
Y129400D01*
Y126585D02*
X169931Y127177D01*
X169764Y128533D02*
X169931Y128366D01*
X169415Y128533D02*
X169764D01*
X175429Y129187D02*
Y129531D01*
Y129187D02*
X175630Y128986D01*
X175699Y129419D02*
Y129430D01*
X175715Y129445D01*
X177517D01*
X176039Y127949D02*
X176406D01*
X176721Y127634D01*
Y125573D02*
Y127634D01*
X176129Y127819D02*
X176353D01*
X176591Y127580D01*
Y125520D02*
Y127580D01*
X175003Y128760D02*
X175079D01*
X174701Y128458D02*
X175003Y128760D01*
X174701Y128234D02*
Y128458D01*
Y128234D02*
X174824Y128111D01*
Y127484D02*
Y128111D01*
Y127484D02*
X175081Y127227D01*
X175538D01*
X176129Y127819D01*
X176591Y125520D02*
X176652Y125459D01*
Y124056D02*
Y125459D01*
Y124056D02*
X177026Y123682D01*
X183053D01*
X183399Y124029D01*
Y124770D01*
X183161Y125009D02*
X183399Y124770D01*
X181358Y125009D02*
X183161D01*
X181196Y125171D02*
X181358Y125009D01*
X181196Y125171D02*
Y125186D01*
X174971Y127521D02*
Y128346D01*
Y127521D02*
X175135Y127357D01*
X175448D01*
X176039Y127949D01*
X176721Y125573D02*
X176782Y125513D01*
Y124110D02*
Y125513D01*
Y124110D02*
X177080Y123812D01*
X182999D01*
X183269Y124083D01*
Y124717D01*
X183107Y124879D02*
X183269Y124717D01*
X181388Y124879D02*
X183107D01*
X181196Y124686D02*
X181388Y124879D01*
X174698Y126918D02*
X175853D01*
X175982Y127047D01*
X173459Y127075D02*
X174810D01*
X172941Y126558D02*
X173459Y127075D01*
X174639Y126859D02*
X174698Y126918D01*
X178264Y129540D02*
Y130666D01*
X177710Y129387D02*
X177805Y129482D01*
X178206Y130725D02*
X178264Y130666D01*
X178206Y129482D02*
X178264Y129540D01*
X177805Y129482D02*
X178206D01*
X180962Y129804D02*
X181196D01*
X179582Y130802D02*
X180453Y129931D01*
X179109Y130802D02*
X179582D01*
X179109D02*
Y130804D01*
X180645Y130304D02*
X181196D01*
X182756Y129931D02*
X183307D01*
X182219Y130468D02*
X182756Y129931D01*
X177580Y128935D02*
Y129382D01*
X177517Y129445D02*
X177580Y129382D01*
X178155Y129188D02*
X178603Y129637D01*
X177987Y129188D02*
X178155D01*
X178603Y129637D02*
Y129804D01*
X180077Y126681D02*
X180520D01*
X179831Y126927D02*
X180077Y126681D01*
X179831Y126927D02*
Y126930D01*
X182047Y127007D02*
X182219Y127180D01*
X178596Y124686D02*
X179109D01*
X178621Y127245D02*
X179109D01*
X178596Y124542D02*
Y124686D01*
X174149Y126581D02*
X174436D01*
X177580Y128935D02*
X177798Y128717D01*
X177710Y128989D02*
Y129387D01*
Y128989D02*
X177852Y128847D01*
X181196Y127245D02*
X181507D01*
X178603Y129804D02*
X179109D01*
X179493D01*
Y129625D02*
Y129804D01*
Y129625D02*
X179783Y129334D01*
X182047Y129566D02*
X182219Y129739D01*
X179783Y129334D02*
X180614D01*
X180846Y129566D01*
X182047D01*
X180646Y124248D02*
X180832Y124434D01*
X180060Y124248D02*
X180646D01*
X180520Y126681D02*
X180846Y127007D01*
X182047D01*
X179109Y127245D02*
X179516D01*
X179831Y126930D01*
X181570Y127983D02*
X181732Y127821D01*
X181507Y127245D02*
X181732Y127470D01*
Y127821D01*
X179109Y127745D02*
X179349D01*
X179109Y124686D02*
X179622D01*
X180060Y124248D01*
X177987Y126629D02*
Y126718D01*
X178621Y127061D02*
Y127245D01*
X178277Y126718D02*
X178621Y127061D01*
X174149Y126581D02*
X174214Y126647D01*
X174639D01*
Y126859D01*
X180832Y124434D02*
X182032D01*
X182219Y124621D01*
X177987Y126718D02*
X178277D01*
X178282Y124228D02*
X178596Y124542D01*
X172941Y125215D02*
Y126558D01*
X171693Y125404D02*
Y125797D01*
Y125404D02*
X171693Y125404D01*
X170079Y125020D02*
X171309D01*
X171693Y125404D01*
X179753Y128379D02*
X180149Y127983D01*
X181570D01*
X180203Y127745D02*
X181196D01*
X179753Y128379D02*
Y128397D01*
X177852Y128847D02*
X179303D01*
X179753Y128397D01*
X177798Y128717D02*
X179249D01*
X179623Y128344D01*
Y128325D02*
Y128344D01*
Y128325D02*
X180203Y127745D01*
X179284Y128245D02*
X180453Y127077D01*
X179109Y128245D02*
X179284D01*
X177298Y124621D02*
Y125349D01*
Y124621D02*
X177298Y124621D01*
D20*
X176191Y128828D02*
X176378D01*
X177298Y127908D01*
X176515Y128279D02*
X177011Y127782D01*
X175720Y128279D02*
X176515D01*
X176452Y128129D02*
X176861Y127720D01*
X176022Y128129D02*
X176452D01*
X177011Y127705D02*
Y127782D01*
X175551Y128110D02*
X175720Y128279D01*
X176861Y125635D02*
Y127720D01*
X174810Y127075D02*
X175583D01*
X176057Y127549D01*
X176241D01*
X175721Y127828D02*
X176022Y128129D01*
X175447Y127828D02*
X175721D01*
X175247Y127627D02*
X175447Y127828D01*
X177011Y127705D02*
X177033Y127683D01*
Y127405D02*
Y127683D01*
X177011Y127383D02*
X177033Y127405D01*
X176861Y125635D02*
X177147Y125349D01*
X177011Y126977D02*
X177076Y126913D01*
X177011Y126977D02*
Y127383D01*
X182768Y124070D02*
X183076Y124378D01*
X182219Y124070D02*
X182768D01*
X183390Y125222D02*
X183799Y124813D01*
X182792Y125222D02*
X183390D01*
X182678Y125336D02*
X182792Y125222D01*
X182405Y125336D02*
X182678D01*
X177076Y126913D02*
X177175D01*
X176306Y125347D02*
X176382D01*
X177147Y125349D02*
X177298D01*
X177781Y125617D02*
X178210D01*
X177585Y125812D02*
X177781Y125617D01*
X177585Y125812D02*
Y126342D01*
X177298Y129739D02*
Y130468D01*
X178251Y130937D02*
X178700Y130488D01*
Y130304D02*
Y130488D01*
X177987Y130937D02*
X178251D01*
X177298Y130468D02*
X177987D01*
Y130937D02*
Y131019D01*
X182219Y129218D02*
X182638Y129636D01*
X182877Y129396D01*
X177298Y129739D02*
X177987D01*
X176221Y129734D02*
X176225Y129739D01*
X176250D01*
X177298Y129739D02*
X177355Y129683D01*
X177298Y129739D02*
X177298Y129739D01*
X176250Y129744D02*
X176255Y129739D01*
X177298D01*
X177764Y128192D02*
X178194D01*
X177585Y128371D02*
X177764Y128192D01*
X177585Y128371D02*
Y128663D01*
X177298Y127908D02*
X177987D01*
X177298Y128951D02*
X177585Y128663D01*
X177298Y130468D02*
X177298Y130468D01*
X182219Y126629D02*
X182761D01*
X182103Y126745D02*
X182219Y126629D01*
X181196Y126745D02*
X182103D01*
X183105Y130664D02*
Y130754D01*
X182780Y128460D02*
X183076Y128164D01*
X182219Y128460D02*
X182780D01*
X181410Y131019D02*
X182219D01*
X181196Y130804D02*
X181410Y131019D01*
X179109Y125686D02*
X179481D01*
X182219Y127908D02*
Y127993D01*
X177987Y127908D02*
X177987Y127908D01*
Y127180D02*
Y127908D01*
X177987Y127180D02*
X177987Y127180D01*
X177298Y127180D02*
X177298Y127180D01*
X178780Y126745D02*
X179109D01*
X178582Y127745D02*
Y128016D01*
X182219Y124070D02*
X182312Y124163D01*
X174980Y125955D02*
X174997Y125971D01*
X173382D02*
X173461D01*
X174110Y126620D01*
X183012Y125502D02*
Y125630D01*
X182219Y131019D02*
X182484Y130754D01*
X183105D01*
X178274Y126977D02*
Y128112D01*
X178194Y128192D02*
X178274Y128112D01*
X177987Y128460D02*
X178124D01*
Y128425D02*
Y128460D01*
Y128425D02*
X178206Y128343D01*
X178255D01*
X178582Y128016D01*
X177298Y128951D02*
Y129188D01*
X177931Y129683D02*
X177987Y129739D01*
X178700Y130304D02*
X179109D01*
X178582Y127745D02*
X179109D01*
X182005Y128245D02*
X182219Y128460D01*
X181196Y128245D02*
X182005D01*
X183427Y127175D02*
X183701D01*
X182694Y127908D02*
X183427Y127175D01*
X182219Y127908D02*
X182694D01*
X182593Y127495D02*
X183012Y127077D01*
Y126959D02*
Y127077D01*
X177106Y126093D02*
X177205Y126191D01*
X177106Y126093D02*
X177298Y125901D01*
X178780Y126745D02*
Y126782D01*
X177298Y126629D02*
Y126790D01*
X177298Y127180D02*
X177987D01*
X177689Y126821D02*
X177781Y126913D01*
X178210D02*
X178274Y126977D01*
X177781Y126913D02*
X178210D01*
X178210Y125617D02*
X178274Y125552D01*
X177689Y126629D02*
Y126821D01*
X177298Y126629D02*
X177689D01*
X174997Y125971D02*
X175682D01*
X176306Y125347D01*
X177205Y126191D02*
X177205D01*
X177298Y126629D02*
X177585Y126342D01*
X182593Y126048D02*
X183012Y125630D01*
X181558Y126048D02*
X182593D01*
X181196Y125686D02*
X181558Y126048D01*
X180453Y124518D02*
Y124715D01*
X179481Y125686D02*
X180453Y124715D01*
X181284Y124163D02*
X182312D01*
X183012Y126959D02*
X183051Y126919D01*
X183504Y126467D01*
X182761Y126629D02*
X183051Y126919D01*
X182219Y125428D02*
X182337Y125311D01*
X182380D01*
X182405Y125336D01*
X182803Y124609D02*
X183012Y124400D01*
X182673Y124609D02*
X182803D01*
X178942Y125186D02*
X179109D01*
X177987Y125901D02*
X178227D01*
X178942Y125186D01*
X177987Y126629D02*
X178327Y126289D01*
X177298Y124070D02*
X177566Y124337D01*
X178194D01*
X177948Y124530D02*
X177948Y124530D01*
Y125258D01*
X178194Y124337D02*
X178274Y124418D01*
Y125552D01*
X178386Y124114D02*
X178430Y124070D01*
X178386Y124114D02*
Y124124D01*
X177987Y124070D02*
X178430D01*
X175682Y126522D02*
X175902Y126742D01*
X176281D01*
X177175Y126913D02*
X177298Y126790D01*
X179073Y124222D02*
X179109Y124186D01*
X178796Y124222D02*
X179073D01*
X183484Y126447D02*
X183504Y126467D01*
X183484Y126447D02*
X183504Y126427D01*
Y125600D02*
Y126427D01*
X181196Y129304D02*
X182103D01*
X182219Y129188D01*
Y129218D01*
X182877Y129396D02*
X183012D01*
X177259Y124530D02*
X177948D01*
D21*
X172941Y125018D02*
D03*
Y124518D02*
D03*
X173441Y125018D02*
D03*
Y124518D02*
D03*
X173941Y125018D02*
D03*
Y124518D02*
D03*
X174441Y125018D02*
D03*
Y124518D02*
D03*
X174941Y125018D02*
D03*
D22*
Y124518D02*
D03*
D23*
X168937Y124026D02*
D03*
D24*
X169937D02*
D03*
X170937D02*
D03*
X169339Y126585D02*
D03*
Y129400D02*
D03*
D25*
X169252Y128504D02*
D03*
Y127992D02*
D03*
Y127480D02*
D03*
X169646Y127736D02*
D03*
Y128248D02*
D03*
D26*
X174764Y129291D02*
D03*
X175699Y129419D02*
D03*
X176732Y130413D02*
D03*
X175630Y128986D02*
D03*
X176191Y128828D02*
D03*
X175551Y128110D02*
D03*
X183799Y124321D02*
D03*
Y124813D02*
D03*
X175247Y127627D02*
D03*
X174971Y128346D02*
D03*
X176241Y127549D02*
D03*
X173854Y127487D02*
D03*
X176382Y125347D02*
D03*
X180453Y129931D02*
D03*
X182638Y129636D02*
D03*
X173720Y129232D02*
D03*
X175138Y129636D02*
D03*
X175079Y128760D02*
D03*
X176221Y129734D02*
D03*
X178780Y129341D02*
D03*
X169134Y125600D02*
D03*
X184193Y130915D02*
D03*
Y130522D02*
D03*
Y127864D02*
D03*
Y128258D02*
D03*
X184291Y125600D02*
D03*
X183898D02*
D03*
X183701Y127864D02*
D03*
Y131604D02*
D03*
X184193Y131407D02*
D03*
X183307Y129931D02*
D03*
X183701Y128258D02*
D03*
X180453Y124518D02*
D03*
Y127077D02*
D03*
X183701Y127175D02*
D03*
X182593Y127495D02*
D03*
X178780Y126782D02*
D03*
X179320Y130312D02*
D03*
X179349Y127745D02*
D03*
X179251Y125186D02*
D03*
X177205Y126191D02*
D03*
X182673Y124609D02*
D03*
X178327Y126289D02*
D03*
X178386Y124124D02*
D03*
X169134Y125207D02*
D03*
X169528D02*
D03*
Y125600D02*
D03*
X169134Y125994D02*
D03*
X169528D02*
D03*
X171791Y123632D02*
D03*
X172776D02*
D03*
X173760D02*
D03*
X172283Y124124D02*
D03*
X172658Y126382D02*
D03*
X170118Y130817D02*
D03*
X169724D02*
D03*
X169331D02*
D03*
Y130423D02*
D03*
X169724D02*
D03*
X170118D02*
D03*
X176281Y126742D02*
D03*
X175982Y127047D02*
D03*
X174154Y128258D02*
D03*
X168642Y126978D02*
D03*
X168642Y127470D02*
D03*
Y128061D02*
D03*
Y128750D02*
D03*
Y129341D02*
D03*
X170118Y129242D02*
D03*
X178839Y126280D02*
D03*
X174744Y123632D02*
D03*
X175728D02*
D03*
X176516D02*
D03*
X175728Y124222D02*
D03*
X180453Y125600D02*
D03*
X172283Y123632D02*
D03*
X170709Y130226D02*
D03*
X170709Y129341D02*
D03*
X178796Y124222D02*
D03*
X170709Y124715D02*
D03*
X171201D02*
D03*
X171628Y124702D02*
D03*
X172638Y125797D02*
D03*
X172185Y124911D02*
D03*
X172244Y125394D02*
D03*
X170709Y128258D02*
D03*
X180059Y128455D02*
D03*
X183504Y125600D02*
D03*
X170807Y125305D02*
D03*
Y125797D02*
D03*
Y126585D02*
D03*
X170906Y127470D02*
D03*
D27*
X177987Y124621D02*
D03*
Y124070D02*
D03*
X182219Y124070D02*
D03*
Y124621D02*
D03*
Y126629D02*
D03*
Y127180D02*
D03*
X182219Y129188D02*
D03*
Y129739D02*
D03*
X182219Y125979D02*
D03*
Y125428D02*
D03*
Y128460D02*
D03*
Y127908D02*
D03*
X182219Y131019D02*
D03*
Y130468D02*
D03*
X177987Y127180D02*
D03*
Y126629D02*
D03*
X177298Y130468D02*
D03*
Y131019D02*
D03*
X177987Y125349D02*
D03*
Y125901D02*
D03*
X177298Y125901D02*
D03*
Y125349D02*
D03*
X177987Y127908D02*
D03*
Y128460D02*
D03*
X177987Y130468D02*
D03*
Y131019D02*
D03*
X177298Y128460D02*
D03*
Y127908D02*
D03*
X177987Y129188D02*
D03*
Y129739D02*
D03*
X177298Y124621D02*
D03*
Y124070D02*
D03*
Y127180D02*
D03*
Y126629D02*
D03*
Y129739D02*
D03*
Y129188D02*
D03*
X175782Y125971D02*
D03*
Y126522D02*
D03*
X173382Y125971D02*
D03*
Y126522D02*
D03*
D28*
X174026Y129616D02*
D03*
Y128868D02*
D03*
X173100Y129242D02*
D03*
D29*
X175015Y125912D02*
D03*
X174149D02*
D03*
Y126581D02*
D03*
X175015D02*
D03*
D30*
X183012Y125620D02*
D03*
Y124400D02*
D03*
Y128179D02*
D03*
Y126959D02*
D03*
Y130617D02*
D03*
Y129396D02*
D03*
D31*
X168740Y130718D02*
D03*
D32*
X181196Y125686D02*
D03*
Y125186D02*
D03*
Y124686D02*
D03*
Y124186D02*
D03*
X179109Y125686D02*
D03*
Y125186D02*
D03*
Y124686D02*
D03*
Y124186D02*
D03*
X181196Y128245D02*
D03*
Y127745D02*
D03*
Y127245D02*
D03*
Y126745D02*
D03*
X179109Y128245D02*
D03*
Y127745D02*
D03*
Y127245D02*
D03*
Y126745D02*
D03*
X181196Y130804D02*
D03*
Y130304D02*
D03*
Y129804D02*
D03*
Y129304D02*
D03*
X179109Y130804D02*
D03*
Y130304D02*
D03*
Y129804D02*
D03*
Y129304D02*
D03*
D33*
X174134Y128258D02*
Y128583D01*
X174026Y128474D02*
X174134Y128583D01*
X174449Y127470D02*
Y127943D01*
X174144Y128248D02*
X174449Y127943D01*
X174026Y128474D02*
Y128868D01*
D34*
X171693Y125797D02*
Y126683D01*
Y127569D01*
Y128455D01*
Y129341D01*
Y130226D01*
D35*
X171791Y129242D02*
X173169D01*
X171693Y129341D02*
X171791Y129242D01*
M02*
