G04 Layer_Color=8388736*
%FSLAX24Y24*%
%MOIN*%
G70*
G01*
G75*
%ADD12R,0.0256X0.0157*%
%ADD14O,0.0118X0.0827*%
%ADD15O,0.0827X0.0118*%
%ADD21C,0.0394*%
%ADD22R,0.0394X0.0394*%
%ADD24C,0.0591*%
%ADD25C,0.0370*%
%ADD41R,0.0415X0.0454*%
%ADD42R,0.0651X0.0691*%
%ADD43R,0.1084X0.1065*%
%ADD44R,0.2069X0.2069*%
%ADD45R,0.1675X0.1675*%
%ADD46R,0.0691X0.0691*%
%ADD47C,0.0691*%
D12*
X178716Y130438D02*
D03*
Y130182D02*
D03*
Y129926D02*
D03*
Y129670D02*
D03*
X181471Y125320D02*
D03*
Y125064D02*
D03*
Y124808D02*
D03*
Y124552D02*
D03*
Y127879D02*
D03*
Y127623D02*
D03*
Y127367D02*
D03*
Y127111D02*
D03*
Y130438D02*
D03*
Y130182D02*
D03*
Y129926D02*
D03*
Y129670D02*
D03*
X178716Y125320D02*
D03*
Y125064D02*
D03*
Y124808D02*
D03*
Y124552D02*
D03*
Y127879D02*
D03*
Y127623D02*
D03*
Y127367D02*
D03*
Y127111D02*
D03*
D14*
X173465Y130463D02*
D03*
X173661D02*
D03*
X173858D02*
D03*
X174055D02*
D03*
X174252D02*
D03*
X174449D02*
D03*
X174646D02*
D03*
X174843D02*
D03*
X175039D02*
D03*
X175236D02*
D03*
X175433D02*
D03*
X175630D02*
D03*
X175827D02*
D03*
X176024D02*
D03*
X176220D02*
D03*
X176417D02*
D03*
Y126053D02*
D03*
X176220D02*
D03*
X176024D02*
D03*
X175827D02*
D03*
X175630D02*
D03*
X175433D02*
D03*
X175236D02*
D03*
X175039D02*
D03*
X174843D02*
D03*
X174646D02*
D03*
X174449D02*
D03*
X174252D02*
D03*
X174055D02*
D03*
X173858D02*
D03*
X173661D02*
D03*
X173465D02*
D03*
D15*
X177146Y129734D02*
D03*
Y129537D02*
D03*
Y129341D02*
D03*
Y129144D02*
D03*
Y128947D02*
D03*
Y128750D02*
D03*
Y128553D02*
D03*
Y128356D02*
D03*
Y128159D02*
D03*
Y127963D02*
D03*
Y127766D02*
D03*
Y127569D02*
D03*
Y127372D02*
D03*
Y127175D02*
D03*
Y126978D02*
D03*
Y126782D02*
D03*
X172736D02*
D03*
Y126978D02*
D03*
Y127175D02*
D03*
Y127372D02*
D03*
Y127569D02*
D03*
Y127766D02*
D03*
Y127963D02*
D03*
Y128159D02*
D03*
Y128356D02*
D03*
Y128553D02*
D03*
Y128750D02*
D03*
Y128947D02*
D03*
Y129144D02*
D03*
Y129341D02*
D03*
Y129537D02*
D03*
Y129734D02*
D03*
D21*
X172941Y125018D02*
D03*
Y124518D02*
D03*
X173441Y125018D02*
D03*
Y124518D02*
D03*
X173941Y125018D02*
D03*
Y124518D02*
D03*
X174441Y125018D02*
D03*
Y124518D02*
D03*
X174941Y125018D02*
D03*
D22*
Y124518D02*
D03*
D24*
X169339Y126585D02*
D03*
Y129400D02*
D03*
D25*
X169252Y128504D02*
D03*
Y127992D02*
D03*
Y127480D02*
D03*
X169646Y127736D02*
D03*
Y128248D02*
D03*
D41*
X171122Y129833D02*
D03*
X171673D02*
D03*
X171220Y127470D02*
D03*
X171772D02*
D03*
X177126Y125600D02*
D03*
X177677D02*
D03*
X171220Y126093D02*
D03*
X171772D02*
D03*
X175846Y124911D02*
D03*
X176398D02*
D03*
X177972Y130423D02*
D03*
X177421D02*
D03*
X172402Y130522D02*
D03*
X172953D02*
D03*
X171772Y126781D02*
D03*
X171220D02*
D03*
X171220Y125404D02*
D03*
X171772D02*
D03*
X177126Y124911D02*
D03*
X177677D02*
D03*
X171122Y130522D02*
D03*
X171673D02*
D03*
D42*
X170906Y128258D02*
D03*
X171693D02*
D03*
D43*
X179464Y130054D02*
D03*
X182219Y124936D02*
D03*
Y127495D02*
D03*
Y130054D02*
D03*
X179464Y124936D02*
D03*
Y127495D02*
D03*
D44*
X169429Y130817D02*
D03*
Y125502D02*
D03*
D45*
X183701Y129341D02*
D03*
Y126782D02*
D03*
Y124518D02*
D03*
D46*
X168937Y124026D02*
D03*
D47*
X169937D02*
D03*
X170937D02*
D03*
M02*
