M48
;Layer_Color=9474304
;FILE_FORMAT=2:4
INCH,LZ
;TYPE=PLATED
T1F00S00C0.0160
T2F00S00C0.0173
T3F00S00C0.0236
T4F00S00C0.0354
T5F00S00C0.0394
%
T01
X183799Y124321
Y124813
X182673Y124609
X180453Y124518
X178796Y124222
X178386Y124124
X176516Y123632
X175728
Y124222
X174744Y123632
X17376
X172776
X172283
Y124124
X172185Y124911
X171628Y124702
X171201Y124715
X170709
X171791Y123632
X170807Y125305
Y125797
Y126585
X170906Y12747
X170709Y128258
Y129341
X170118Y129242
X170118Y130423
X169724
X169331
Y130817
X169724
X170118
X170709Y130226
X168642Y129341
Y12875
Y128061
Y12747
X168642Y126978
X169134Y125994
Y1256
Y125207
X169528
Y1256
Y125994
X172638Y125797
X172658Y126382
X172244Y125394
X173854Y127487
X174154Y128258
X174971Y128346
X175079Y12876
X17563Y128986
X175699Y129419
X175138Y129636
X174764Y129291
X17372Y129232
X176191Y128828
X176221Y129734
X176732Y130413
X17932Y130312
X17878Y129341
X179349Y127745
X180059Y128455
X180453Y127077
X180453Y1256
X179251Y125186
X178839Y12628
X178327Y126289
X17878Y126782
X177205Y126191
X176281Y126742
X175982Y127047
X176241Y127549
X175247Y127627
X175551Y12811
X176382Y125347
X183504Y1256
X183898Y1256
X184291
X183701Y127175
Y127864
Y128258
X184193
Y127864
X182593Y127495
X182638Y129636
X183307Y129931
X184193Y130522
Y130915
Y131407
X183701Y131604
X180453Y129931
T02
X169646Y127736
Y128248
X169252Y128504
Y127992
Y12748
T03
X174941Y124518
X174441
X173941
X173441
X172941
Y125018
X173441
X173941
X174441
X174941
T04
X170937Y124026
X169937
X168937
T05
X169339Y126585
Y1294
M30
