G04 Layer_Color=65535*
%FSLAX24Y24*%
%MOIN*%
G70*
G01*
G75*
%ADD36C,0.0098*%
%ADD37C,0.0236*%
%ADD38C,0.0079*%
%ADD39C,0.0100*%
%ADD40C,0.0050*%
G36*
X180240Y131276D02*
X180192D01*
X180191Y131477D01*
X180141Y131276D01*
X180091D01*
X180041Y131477D01*
Y131276D01*
X179993D01*
Y131532D01*
X180070D01*
X180116Y131357D01*
X180162Y131532D01*
X180240D01*
Y131276D01*
D02*
G37*
G36*
X179777D02*
X179721D01*
X179629Y131532D01*
X179685D01*
X179750Y131343D01*
X179813Y131532D01*
X179868D01*
X179777Y131276D01*
D02*
G37*
G36*
X180592Y131374D02*
X180660Y131276D01*
X180600D01*
X180562Y131334D01*
X180524Y131276D01*
X180467D01*
X180534Y131372D01*
X180470Y131462D01*
X180530D01*
X180562Y131410D01*
X180597Y131462D01*
X180654D01*
X180592Y131374D01*
D02*
G37*
G36*
X170441Y129468D02*
X170385D01*
X170363Y129527D01*
X170260D01*
X170239Y129468D01*
X170184D01*
X170283Y129725D01*
X170338D01*
X170441Y129468D01*
D02*
G37*
G36*
X170071Y129724D02*
X170079Y129724D01*
X170086Y129723D01*
X170093Y129723D01*
X170100Y129722D01*
X170100D01*
X170102Y129722D01*
X170105Y129721D01*
X170108Y129720D01*
X170112Y129718D01*
X170117Y129716D01*
X170122Y129714D01*
X170126Y129711D01*
X170127Y129711D01*
X170128Y129710D01*
X170130Y129708D01*
X170133Y129706D01*
X170136Y129702D01*
X170139Y129699D01*
X170143Y129695D01*
X170146Y129690D01*
X170146Y129689D01*
X170147Y129688D01*
X170148Y129685D01*
X170150Y129681D01*
X170151Y129676D01*
X170153Y129672D01*
X170154Y129666D01*
X170154Y129660D01*
Y129659D01*
Y129659D01*
Y129657D01*
X170154Y129654D01*
X170153Y129649D01*
X170151Y129644D01*
X170150Y129638D01*
X170147Y129633D01*
X170144Y129627D01*
X170144Y129626D01*
X170142Y129624D01*
X170140Y129622D01*
X170137Y129618D01*
X170134Y129615D01*
X170129Y129611D01*
X170124Y129608D01*
X170118Y129604D01*
X170118D01*
X170119Y129604D01*
X170120Y129604D01*
X170122Y129603D01*
X170126Y129601D01*
X170131Y129599D01*
X170137Y129596D01*
X170143Y129592D01*
X170149Y129587D01*
X170154Y129581D01*
X170154Y129580D01*
X170156Y129578D01*
X170158Y129575D01*
X170160Y129570D01*
X170162Y129564D01*
X170165Y129558D01*
X170166Y129551D01*
X170166Y129543D01*
Y129542D01*
Y129542D01*
Y129540D01*
X170166Y129536D01*
X170165Y129532D01*
X170165Y129527D01*
X170163Y129521D01*
X170161Y129515D01*
X170158Y129508D01*
X170158Y129508D01*
X170157Y129506D01*
X170155Y129503D01*
X170152Y129499D01*
X170149Y129495D01*
X170145Y129491D01*
X170141Y129486D01*
X170136Y129482D01*
X170135Y129482D01*
X170134Y129481D01*
X170131Y129479D01*
X170127Y129477D01*
X170121Y129475D01*
X170115Y129473D01*
X170109Y129471D01*
X170101Y129470D01*
X170100D01*
X170098Y129470D01*
X170095D01*
X170092Y129469D01*
X170085D01*
X170081Y129469D01*
X170070D01*
X170063Y129468D01*
X169952D01*
Y129725D01*
X170065D01*
X170071Y129724D01*
D02*
G37*
G36*
X179532Y131533D02*
X179535Y131533D01*
X179539Y131533D01*
X179543Y131532D01*
X179547Y131531D01*
X179556Y131528D01*
X179561Y131526D01*
X179566Y131524D01*
X179571Y131521D01*
X179575Y131518D01*
X179580Y131514D01*
X179584Y131510D01*
X179585Y131510D01*
X179585Y131510D01*
X179586Y131509D01*
X179587Y131507D01*
X179590Y131503D01*
X179594Y131498D01*
X179597Y131492D01*
X179599Y131484D01*
X179602Y131476D01*
X179602Y131472D01*
X179602Y131468D01*
Y131467D01*
Y131466D01*
X179602Y131465D01*
X179602Y131462D01*
X179601Y131459D01*
X179601Y131456D01*
X179599Y131452D01*
X179598Y131448D01*
X179596Y131444D01*
X179594Y131440D01*
X179591Y131435D01*
X179587Y131431D01*
X179582Y131426D01*
X179578Y131422D01*
X179572Y131418D01*
X179565Y131414D01*
X179566D01*
X179566Y131413D01*
X179568D01*
X179569Y131413D01*
X179573Y131412D01*
X179578Y131409D01*
X179584Y131406D01*
X179589Y131403D01*
X179595Y131398D01*
X179601Y131392D01*
X179601Y131392D01*
X179603Y131389D01*
X179605Y131386D01*
X179607Y131381D01*
X179610Y131376D01*
X179612Y131369D01*
X179613Y131361D01*
X179614Y131353D01*
Y131352D01*
Y131351D01*
Y131349D01*
X179613Y131347D01*
X179613Y131344D01*
X179612Y131341D01*
X179612Y131337D01*
X179611Y131333D01*
X179608Y131324D01*
X179606Y131319D01*
X179604Y131314D01*
X179601Y131309D01*
X179597Y131304D01*
X179594Y131299D01*
X179589Y131295D01*
X179589Y131295D01*
X179588Y131294D01*
X179586Y131293D01*
X179585Y131291D01*
X179582Y131290D01*
X179579Y131288D01*
X179576Y131285D01*
X179572Y131283D01*
X179568Y131281D01*
X179563Y131279D01*
X179558Y131277D01*
X179553Y131275D01*
X179547Y131274D01*
X179541Y131272D01*
X179534Y131272D01*
X179528Y131271D01*
X179524D01*
X179522Y131272D01*
X179519Y131272D01*
X179515Y131272D01*
X179512Y131273D01*
X179507Y131274D01*
X179498Y131276D01*
X179489Y131280D01*
X179484Y131282D01*
X179479Y131285D01*
X179474Y131288D01*
X179470Y131291D01*
X179470Y131292D01*
X179469Y131292D01*
X179468Y131294D01*
X179466Y131295D01*
X179464Y131297D01*
X179463Y131299D01*
X179460Y131302D01*
X179458Y131305D01*
X179456Y131309D01*
X179453Y131313D01*
X179449Y131322D01*
X179446Y131332D01*
X179444Y131338D01*
X179444Y131344D01*
X179491Y131349D01*
Y131349D01*
Y131349D01*
X179491Y131346D01*
X179492Y131343D01*
X179493Y131339D01*
X179495Y131335D01*
X179497Y131330D01*
X179500Y131325D01*
X179503Y131321D01*
X179504Y131321D01*
X179505Y131320D01*
X179507Y131318D01*
X179510Y131317D01*
X179514Y131315D01*
X179518Y131314D01*
X179522Y131312D01*
X179527Y131312D01*
X179528D01*
X179530Y131312D01*
X179532Y131313D01*
X179536Y131314D01*
X179540Y131315D01*
X179544Y131317D01*
X179549Y131320D01*
X179553Y131324D01*
X179553Y131324D01*
X179555Y131326D01*
X179556Y131328D01*
X179558Y131332D01*
X179560Y131336D01*
X179562Y131342D01*
X179563Y131348D01*
X179564Y131355D01*
Y131355D01*
Y131356D01*
Y131358D01*
X179563Y131361D01*
X179562Y131366D01*
X179561Y131371D01*
X179559Y131375D01*
X179557Y131380D01*
X179553Y131385D01*
X179553Y131385D01*
X179551Y131386D01*
X179549Y131388D01*
X179547Y131390D01*
X179543Y131392D01*
X179539Y131394D01*
X179534Y131395D01*
X179529Y131396D01*
X179525D01*
X179523Y131395D01*
X179520Y131395D01*
X179515Y131394D01*
X179511Y131393D01*
X179507Y131392D01*
X179512Y131432D01*
X179515D01*
X179519Y131432D01*
X179523Y131432D01*
X179528Y131433D01*
X179533Y131435D01*
X179538Y131437D01*
X179542Y131440D01*
X179543Y131440D01*
X179544Y131442D01*
X179546Y131444D01*
X179548Y131447D01*
X179550Y131450D01*
X179552Y131454D01*
X179553Y131459D01*
X179553Y131465D01*
Y131465D01*
Y131467D01*
X179553Y131469D01*
X179552Y131472D01*
X179551Y131475D01*
X179550Y131479D01*
X179548Y131482D01*
X179545Y131485D01*
X179545Y131486D01*
X179544Y131486D01*
X179542Y131488D01*
X179540Y131489D01*
X179537Y131490D01*
X179534Y131492D01*
X179529Y131493D01*
X179525Y131493D01*
X179522D01*
X179520Y131493D01*
X179517Y131492D01*
X179514Y131491D01*
X179510Y131489D01*
X179507Y131487D01*
X179503Y131484D01*
X179503Y131484D01*
X179502Y131483D01*
X179500Y131480D01*
X179498Y131477D01*
X179497Y131474D01*
X179495Y131470D01*
X179494Y131465D01*
X179492Y131459D01*
X179447Y131466D01*
Y131466D01*
X179448Y131467D01*
Y131468D01*
X179448Y131470D01*
X179449Y131474D01*
X179451Y131480D01*
X179453Y131486D01*
X179455Y131492D01*
X179458Y131498D01*
X179461Y131503D01*
X179462Y131504D01*
X179463Y131506D01*
X179465Y131508D01*
X179468Y131511D01*
X179472Y131515D01*
X179477Y131519D01*
X179482Y131522D01*
X179488Y131526D01*
X179488D01*
X179489Y131526D01*
X179491Y131527D01*
X179495Y131528D01*
X179499Y131530D01*
X179505Y131531D01*
X179511Y131533D01*
X179518Y131533D01*
X179526Y131534D01*
X179529D01*
X179532Y131533D01*
D02*
G37*
G36*
X178581D02*
X178585Y131533D01*
X178588Y131533D01*
X178592Y131532D01*
X178597Y131531D01*
X178606Y131529D01*
X178616Y131525D01*
X178621Y131523D01*
X178626Y131520D01*
X178630Y131517D01*
X178634Y131513D01*
X178635Y131513D01*
X178636Y131512D01*
X178636Y131511D01*
X178638Y131509D01*
X178640Y131507D01*
X178641Y131505D01*
X178643Y131502D01*
X178646Y131499D01*
X178649Y131492D01*
X178653Y131483D01*
X178654Y131478D01*
X178655Y131473D01*
X178656Y131467D01*
X178656Y131462D01*
Y131461D01*
Y131459D01*
X178656Y131456D01*
X178656Y131452D01*
X178655Y131446D01*
X178654Y131441D01*
X178652Y131435D01*
X178650Y131429D01*
X178650Y131428D01*
X178649Y131426D01*
X178647Y131423D01*
X178645Y131419D01*
X178643Y131414D01*
X178639Y131409D01*
X178635Y131403D01*
X178630Y131396D01*
X178630Y131396D01*
X178629Y131394D01*
X178626Y131392D01*
X178623Y131388D01*
X178619Y131383D01*
X178613Y131378D01*
X178606Y131371D01*
X178598Y131363D01*
X178598Y131363D01*
X178597Y131363D01*
X178596Y131362D01*
X178595Y131360D01*
X178590Y131356D01*
X178586Y131352D01*
X178581Y131347D01*
X178576Y131342D01*
X178572Y131338D01*
X178570Y131336D01*
X178569Y131335D01*
X178568Y131335D01*
X178568Y131334D01*
X178566Y131332D01*
X178565Y131331D01*
X178562Y131327D01*
X178559Y131322D01*
X178656D01*
Y131276D01*
X178484D01*
Y131277D01*
Y131277D01*
X178485Y131279D01*
X178485Y131281D01*
X178485Y131283D01*
X178486Y131285D01*
X178487Y131292D01*
X178489Y131299D01*
X178492Y131308D01*
X178496Y131317D01*
X178501Y131325D01*
Y131325D01*
X178502Y131326D01*
X178502Y131328D01*
X178504Y131329D01*
X178505Y131332D01*
X178508Y131334D01*
X178510Y131338D01*
X178513Y131341D01*
X178516Y131346D01*
X178521Y131350D01*
X178525Y131355D01*
X178530Y131361D01*
X178536Y131366D01*
X178542Y131373D01*
X178549Y131379D01*
X178556Y131386D01*
X178556Y131387D01*
X178558Y131388D01*
X178559Y131389D01*
X178561Y131392D01*
X178564Y131394D01*
X178567Y131397D01*
X178574Y131403D01*
X178580Y131410D01*
X178587Y131418D01*
X178590Y131420D01*
X178593Y131424D01*
X178595Y131426D01*
X178597Y131429D01*
X178597Y131429D01*
X178598Y131431D01*
X178600Y131434D01*
X178602Y131438D01*
X178604Y131443D01*
X178606Y131448D01*
X178607Y131453D01*
X178607Y131459D01*
Y131459D01*
Y131459D01*
Y131461D01*
X178607Y131465D01*
X178606Y131468D01*
X178605Y131472D01*
X178603Y131476D01*
X178601Y131480D01*
X178598Y131484D01*
X178598Y131484D01*
X178597Y131486D01*
X178595Y131487D01*
X178592Y131489D01*
X178588Y131490D01*
X178584Y131492D01*
X178579Y131493D01*
X178574Y131493D01*
X178571D01*
X178568Y131493D01*
X178565Y131492D01*
X178561Y131491D01*
X178557Y131489D01*
X178553Y131487D01*
X178549Y131484D01*
X178549Y131483D01*
X178548Y131482D01*
X178546Y131480D01*
X178545Y131476D01*
X178543Y131472D01*
X178541Y131467D01*
X178540Y131460D01*
X178539Y131453D01*
X178490Y131458D01*
Y131458D01*
X178491Y131460D01*
Y131462D01*
X178491Y131465D01*
X178492Y131468D01*
X178493Y131472D01*
X178494Y131476D01*
X178495Y131480D01*
X178499Y131490D01*
X178503Y131499D01*
X178506Y131504D01*
X178509Y131509D01*
X178513Y131512D01*
X178517Y131516D01*
X178518Y131516D01*
X178518Y131517D01*
X178519Y131517D01*
X178521Y131519D01*
X178523Y131520D01*
X178526Y131521D01*
X178529Y131523D01*
X178533Y131525D01*
X178537Y131527D01*
X178542Y131528D01*
X178551Y131531D01*
X178563Y131533D01*
X178569Y131533D01*
X178575Y131534D01*
X178579D01*
X178581Y131533D01*
D02*
G37*
G36*
X178779D02*
X178782Y131533D01*
X178785Y131532D01*
X178789Y131531D01*
X178794Y131530D01*
X178798Y131529D01*
X178803Y131527D01*
X178808Y131525D01*
X178812Y131523D01*
X178817Y131519D01*
X178822Y131516D01*
X178827Y131512D01*
X178831Y131507D01*
X178831Y131507D01*
X178832Y131506D01*
X178833Y131504D01*
X178835Y131501D01*
X178836Y131497D01*
X178839Y131493D01*
X178841Y131488D01*
X178843Y131482D01*
X178845Y131475D01*
X178848Y131467D01*
X178850Y131459D01*
X178852Y131449D01*
X178854Y131439D01*
X178855Y131428D01*
X178855Y131416D01*
X178856Y131402D01*
Y131402D01*
Y131402D01*
Y131400D01*
Y131399D01*
Y131395D01*
X178855Y131391D01*
X178855Y131385D01*
X178854Y131378D01*
X178854Y131370D01*
X178853Y131362D01*
X178851Y131354D01*
X178849Y131345D01*
X178848Y131336D01*
X178845Y131328D01*
X178842Y131319D01*
X178839Y131311D01*
X178835Y131304D01*
X178831Y131298D01*
X178830Y131297D01*
X178829Y131297D01*
X178828Y131295D01*
X178827Y131294D01*
X178825Y131292D01*
X178822Y131290D01*
X178819Y131287D01*
X178815Y131285D01*
X178811Y131282D01*
X178807Y131280D01*
X178802Y131277D01*
X178797Y131275D01*
X178792Y131274D01*
X178785Y131272D01*
X178779Y131272D01*
X178772Y131271D01*
X178771D01*
X178769Y131272D01*
X178766D01*
X178763Y131272D01*
X178760Y131273D01*
X178755Y131274D01*
X178751Y131275D01*
X178746Y131277D01*
X178741Y131278D01*
X178736Y131281D01*
X178731Y131284D01*
X178726Y131287D01*
X178721Y131291D01*
X178717Y131295D01*
X178712Y131300D01*
X178712Y131300D01*
X178711Y131301D01*
X178710Y131303D01*
X178709Y131305D01*
X178707Y131309D01*
X178705Y131313D01*
X178703Y131318D01*
X178701Y131324D01*
X178699Y131330D01*
X178697Y131338D01*
X178695Y131346D01*
X178693Y131355D01*
X178692Y131366D01*
X178691Y131377D01*
X178690Y131389D01*
X178690Y131403D01*
Y131403D01*
Y131403D01*
Y131405D01*
Y131406D01*
Y131410D01*
X178690Y131415D01*
X178690Y131420D01*
X178691Y131428D01*
X178692Y131435D01*
X178693Y131443D01*
X178694Y131452D01*
X178696Y131460D01*
X178698Y131469D01*
X178700Y131477D01*
X178703Y131486D01*
X178706Y131493D01*
X178710Y131501D01*
X178714Y131507D01*
X178715Y131507D01*
X178715Y131508D01*
X178717Y131510D01*
X178718Y131511D01*
X178720Y131513D01*
X178723Y131516D01*
X178726Y131518D01*
X178730Y131520D01*
X178734Y131523D01*
X178738Y131525D01*
X178743Y131527D01*
X178748Y131530D01*
X178753Y131531D01*
X178760Y131533D01*
X178766Y131533D01*
X178772Y131534D01*
X178776D01*
X178779Y131533D01*
D02*
G37*
G36*
X179130Y131276D02*
X179074D01*
X179052Y131334D01*
X178949D01*
X178928Y131276D01*
X178873D01*
X178973Y131532D01*
X179027D01*
X179130Y131276D01*
D02*
G37*
G36*
X180372Y131466D02*
X180375D01*
X180382Y131465D01*
X180390Y131464D01*
X180398Y131463D01*
X180406Y131460D01*
X180409Y131459D01*
X180413Y131458D01*
X180413D01*
X180413Y131457D01*
X180415Y131456D01*
X180418Y131455D01*
X180422Y131453D01*
X180426Y131450D01*
X180429Y131446D01*
X180433Y131442D01*
X180436Y131438D01*
X180436Y131438D01*
X180437Y131436D01*
X180438Y131433D01*
X180438Y131431D01*
X180439Y131428D01*
X180440Y131426D01*
X180440Y131422D01*
X180441Y131419D01*
X180441Y131415D01*
X180442Y131410D01*
X180442Y131405D01*
X180442Y131400D01*
Y131394D01*
X180442Y131337D01*
Y131336D01*
Y131336D01*
Y131335D01*
Y131333D01*
Y131328D01*
X180442Y131323D01*
Y131317D01*
X180443Y131311D01*
X180443Y131305D01*
X180444Y131301D01*
Y131300D01*
X180444Y131299D01*
X180445Y131296D01*
X180446Y131293D01*
X180447Y131290D01*
X180449Y131285D01*
X180450Y131281D01*
X180453Y131276D01*
X180404D01*
Y131277D01*
X180404Y131277D01*
X180403Y131278D01*
X180403Y131280D01*
X180402Y131282D01*
X180401Y131284D01*
X180400Y131287D01*
X180399Y131291D01*
Y131291D01*
X180399Y131291D01*
X180399Y131293D01*
X180398Y131295D01*
X180398Y131296D01*
X180397Y131296D01*
X180395Y131294D01*
X180393Y131292D01*
X180389Y131290D01*
X180385Y131287D01*
X180381Y131283D01*
X180376Y131281D01*
X180371Y131278D01*
X180370Y131278D01*
X180368Y131277D01*
X180365Y131276D01*
X180361Y131275D01*
X180357Y131274D01*
X180352Y131273D01*
X180346Y131272D01*
X180340Y131272D01*
X180337D01*
X180335Y131272D01*
X180333D01*
X180330Y131273D01*
X180324Y131274D01*
X180316Y131276D01*
X180309Y131278D01*
X180301Y131282D01*
X180295Y131287D01*
Y131288D01*
X180294Y131288D01*
X180292Y131290D01*
X180289Y131294D01*
X180287Y131298D01*
X180284Y131304D01*
X180281Y131310D01*
X180279Y131318D01*
X180279Y131322D01*
X180278Y131327D01*
Y131327D01*
Y131329D01*
X180279Y131332D01*
X180279Y131336D01*
X180280Y131340D01*
X180281Y131345D01*
X180283Y131349D01*
X180286Y131354D01*
X180286Y131355D01*
X180287Y131356D01*
X180289Y131359D01*
X180291Y131361D01*
X180294Y131364D01*
X180298Y131368D01*
X180302Y131371D01*
X180306Y131373D01*
X180307Y131373D01*
X180309Y131374D01*
X180312Y131375D01*
X180316Y131377D01*
X180322Y131379D01*
X180329Y131381D01*
X180337Y131383D01*
X180346Y131385D01*
X180346D01*
X180347Y131385D01*
X180349Y131385D01*
X180351Y131386D01*
X180354Y131386D01*
X180358Y131387D01*
X180365Y131389D01*
X180373Y131391D01*
X180381Y131392D01*
X180388Y131395D01*
X180391Y131396D01*
X180394Y131397D01*
Y131402D01*
Y131402D01*
Y131404D01*
X180393Y131406D01*
X180393Y131410D01*
X180392Y131413D01*
X180391Y131416D01*
X180389Y131419D01*
X180386Y131422D01*
X180386Y131422D01*
X180385Y131423D01*
X180383Y131424D01*
X180380Y131425D01*
X180377Y131426D01*
X180372Y131427D01*
X180367Y131428D01*
X180360Y131428D01*
X180358D01*
X180356Y131428D01*
X180353Y131428D01*
X180349Y131427D01*
X180346Y131426D01*
X180342Y131425D01*
X180339Y131423D01*
X180339Y131422D01*
X180338Y131422D01*
X180337Y131420D01*
X180335Y131419D01*
X180333Y131416D01*
X180331Y131413D01*
X180329Y131409D01*
X180328Y131405D01*
X180284Y131413D01*
Y131413D01*
X180284Y131414D01*
X180284Y131415D01*
X180285Y131417D01*
X180286Y131419D01*
X180287Y131422D01*
X180289Y131428D01*
X180293Y131434D01*
X180298Y131441D01*
X180303Y131447D01*
X180309Y131453D01*
X180309D01*
X180310Y131453D01*
X180311Y131454D01*
X180312Y131455D01*
X180315Y131456D01*
X180317Y131457D01*
X180320Y131458D01*
X180323Y131459D01*
X180326Y131460D01*
X180331Y131462D01*
X180335Y131463D01*
X180340Y131464D01*
X180345Y131465D01*
X180351Y131465D01*
X180357Y131466D01*
X180369D01*
X180372Y131466D01*
D02*
G37*
G36*
X179372Y131276D02*
X179323D01*
Y131462D01*
X179322Y131461D01*
X179322Y131460D01*
X179320Y131459D01*
X179318Y131457D01*
X179315Y131455D01*
X179312Y131453D01*
X179309Y131450D01*
X179305Y131447D01*
X179300Y131445D01*
X179295Y131442D01*
X179290Y131438D01*
X179285Y131435D01*
X179273Y131430D01*
X179259Y131425D01*
Y131469D01*
X179260D01*
X179260Y131469D01*
X179261Y131470D01*
X179263Y131470D01*
X179266Y131472D01*
X179272Y131474D01*
X179278Y131477D01*
X179285Y131481D01*
X179293Y131486D01*
X179301Y131492D01*
X179301Y131493D01*
X179302Y131493D01*
X179303Y131494D01*
X179305Y131496D01*
X179309Y131499D01*
X179313Y131504D01*
X179318Y131510D01*
X179323Y131517D01*
X179328Y131525D01*
X179332Y131534D01*
X179372D01*
Y131276D01*
D02*
G37*
G36*
X170654Y129681D02*
X170578D01*
Y129468D01*
X170526D01*
Y129681D01*
X170451D01*
Y129725D01*
X170654D01*
Y129681D01*
D02*
G37*
G36*
X170624Y131753D02*
X170691D01*
Y131708D01*
X170624D01*
Y131641D01*
X170579D01*
Y131708D01*
X170512D01*
Y131753D01*
X170579D01*
Y131820D01*
X170624D01*
Y131753D01*
D02*
G37*
G36*
X169820Y127072D02*
X169824Y127071D01*
X169829Y127071D01*
X169834Y127070D01*
X169839Y127069D01*
X169851Y127067D01*
X169863Y127063D01*
X169870Y127061D01*
X169876Y127059D01*
X169881Y127056D01*
X169886Y127052D01*
X169887Y127052D01*
X169887Y127051D01*
X169889Y127050D01*
X169891Y127048D01*
X169893Y127046D01*
X169895Y127044D01*
X169898Y127041D01*
X169901Y127037D01*
X169904Y127034D01*
X169907Y127030D01*
X169910Y127025D01*
X169912Y127020D01*
X169915Y127015D01*
X169917Y127009D01*
X169920Y127003D01*
X169921Y126997D01*
X169870Y126987D01*
Y126988D01*
X169869Y126988D01*
X169869Y126990D01*
X169867Y126993D01*
X169865Y126998D01*
X169862Y127003D01*
X169859Y127007D01*
X169854Y127012D01*
X169849Y127017D01*
X169848Y127017D01*
X169846Y127019D01*
X169843Y127020D01*
X169839Y127022D01*
X169833Y127025D01*
X169827Y127026D01*
X169820Y127027D01*
X169812Y127028D01*
X169809D01*
X169806Y127027D01*
X169803Y127027D01*
X169800Y127027D01*
X169796Y127026D01*
X169792Y127025D01*
X169784Y127023D01*
X169779Y127021D01*
X169775Y127019D01*
X169771Y127016D01*
X169766Y127013D01*
X169762Y127010D01*
X169758Y127006D01*
X169758Y127006D01*
X169757Y127005D01*
X169756Y127004D01*
X169755Y127002D01*
X169753Y127000D01*
X169752Y126997D01*
X169750Y126994D01*
X169748Y126990D01*
X169746Y126986D01*
X169745Y126981D01*
X169743Y126976D01*
X169741Y126970D01*
X169740Y126964D01*
X169739Y126957D01*
X169739Y126950D01*
X169738Y126942D01*
Y126942D01*
Y126940D01*
Y126938D01*
X169739Y126935D01*
X169739Y126931D01*
X169739Y126926D01*
X169740Y126921D01*
X169741Y126916D01*
X169743Y126905D01*
X169747Y126894D01*
X169749Y126888D01*
X169752Y126883D01*
X169755Y126878D01*
X169758Y126873D01*
X169759Y126873D01*
X169759Y126872D01*
X169761Y126871D01*
X169762Y126869D01*
X169764Y126868D01*
X169766Y126866D01*
X169769Y126864D01*
X169773Y126862D01*
X169776Y126859D01*
X169780Y126858D01*
X169789Y126854D01*
X169795Y126852D01*
X169800Y126851D01*
X169806Y126851D01*
X169812Y126850D01*
X169815D01*
X169818Y126851D01*
X169822Y126851D01*
X169827Y126852D01*
X169832Y126853D01*
X169838Y126854D01*
X169844Y126857D01*
X169845D01*
X169845Y126857D01*
X169847Y126858D01*
X169850Y126859D01*
X169854Y126861D01*
X169858Y126863D01*
X169863Y126866D01*
X169868Y126869D01*
X169872Y126872D01*
Y126905D01*
X169813D01*
Y126948D01*
X169924D01*
Y126845D01*
X169924Y126845D01*
X169923Y126844D01*
X169921Y126843D01*
X169920Y126841D01*
X169918Y126840D01*
X169913Y126836D01*
X169906Y126832D01*
X169897Y126827D01*
X169888Y126822D01*
X169877Y126818D01*
X169877D01*
X169876Y126818D01*
X169874Y126817D01*
X169872Y126816D01*
X169869Y126815D01*
X169866Y126814D01*
X169862Y126813D01*
X169858Y126812D01*
X169849Y126810D01*
X169838Y126808D01*
X169827Y126807D01*
X169815Y126806D01*
X169811D01*
X169808Y126807D01*
X169805D01*
X169800Y126807D01*
X169796Y126808D01*
X169791Y126808D01*
X169780Y126810D01*
X169768Y126813D01*
X169756Y126817D01*
X169751Y126820D01*
X169745Y126823D01*
X169744Y126823D01*
X169743Y126824D01*
X169742Y126825D01*
X169740Y126826D01*
X169737Y126828D01*
X169735Y126830D01*
X169731Y126832D01*
X169728Y126835D01*
X169721Y126842D01*
X169713Y126851D01*
X169706Y126860D01*
X169700Y126871D01*
Y126872D01*
X169699Y126873D01*
X169698Y126875D01*
X169698Y126877D01*
X169697Y126880D01*
X169695Y126883D01*
X169694Y126887D01*
X169692Y126892D01*
X169691Y126896D01*
X169690Y126902D01*
X169687Y126914D01*
X169686Y126926D01*
X169685Y126940D01*
Y126940D01*
Y126942D01*
Y126944D01*
X169685Y126946D01*
Y126950D01*
X169686Y126954D01*
X169687Y126959D01*
X169687Y126964D01*
X169689Y126975D01*
X169692Y126987D01*
X169696Y126999D01*
X169699Y127005D01*
X169702Y127011D01*
X169702Y127011D01*
X169702Y127012D01*
X169704Y127014D01*
X169705Y127016D01*
X169706Y127019D01*
X169709Y127022D01*
X169711Y127025D01*
X169714Y127029D01*
X169717Y127032D01*
X169721Y127036D01*
X169725Y127040D01*
X169729Y127044D01*
X169734Y127048D01*
X169739Y127052D01*
X169751Y127059D01*
X169751D01*
X169752Y127060D01*
X169753Y127060D01*
X169755Y127061D01*
X169758Y127062D01*
X169760Y127063D01*
X169764Y127064D01*
X169768Y127066D01*
X169772Y127067D01*
X169776Y127068D01*
X169782Y127069D01*
X169787Y127070D01*
X169799Y127072D01*
X169812Y127072D01*
X169816D01*
X169820Y127072D01*
D02*
G37*
G36*
X180978Y124148D02*
X180982Y124148D01*
X180986Y124147D01*
X180990Y124146D01*
X180995Y124145D01*
X181000Y124144D01*
X181005Y124142D01*
X181011Y124140D01*
X181016Y124137D01*
X181022Y124134D01*
X181027Y124130D01*
X181032Y124125D01*
X181036Y124121D01*
X181037Y124120D01*
X181038Y124120D01*
X181039Y124118D01*
X181040Y124115D01*
X181042Y124113D01*
X181044Y124109D01*
X181046Y124105D01*
X181048Y124100D01*
X181050Y124094D01*
X181053Y124088D01*
X181055Y124081D01*
X181056Y124074D01*
X181058Y124066D01*
X181059Y124057D01*
X181060Y124047D01*
Y124037D01*
X180937D01*
Y124037D01*
Y124036D01*
Y124035D01*
X180937Y124033D01*
X180938Y124030D01*
X180938Y124024D01*
X180940Y124019D01*
X180942Y124013D01*
X180945Y124008D01*
X180948Y124003D01*
X180949Y124003D01*
X180951Y124001D01*
X180953Y123999D01*
X180956Y123997D01*
X180960Y123995D01*
X180965Y123993D01*
X180971Y123992D01*
X180977Y123991D01*
X180979D01*
X180981Y123992D01*
X180984Y123992D01*
X180986Y123993D01*
X180990Y123994D01*
X180993Y123995D01*
X180996Y123997D01*
X180996Y123998D01*
X180998Y123999D01*
X180999Y124000D01*
X181001Y124002D01*
X181003Y124005D01*
X181005Y124009D01*
X181006Y124013D01*
X181008Y124018D01*
X181057Y124010D01*
Y124009D01*
X181057Y124009D01*
X181056Y124007D01*
X181055Y124005D01*
X181054Y124003D01*
X181053Y124000D01*
X181050Y123995D01*
X181046Y123988D01*
X181040Y123981D01*
X181034Y123975D01*
X181027Y123969D01*
X181027D01*
X181026Y123968D01*
X181025Y123968D01*
X181023Y123966D01*
X181022Y123965D01*
X181019Y123964D01*
X181016Y123963D01*
X181013Y123962D01*
X181006Y123959D01*
X180997Y123957D01*
X180987Y123955D01*
X180976Y123955D01*
X180974D01*
X180972Y123955D01*
X180969D01*
X180965Y123956D01*
X180960Y123956D01*
X180955Y123957D01*
X180949Y123959D01*
X180944Y123960D01*
X180938Y123962D01*
X180932Y123965D01*
X180926Y123968D01*
X180920Y123972D01*
X180914Y123976D01*
X180910Y123980D01*
X180905Y123986D01*
X180904Y123986D01*
X180904Y123987D01*
X180903Y123989D01*
X180902Y123990D01*
X180901Y123993D01*
X180899Y123996D01*
X180897Y123999D01*
X180896Y124003D01*
X180894Y124008D01*
X180892Y124013D01*
X180891Y124018D01*
X180890Y124024D01*
X180888Y124030D01*
X180887Y124036D01*
X180887Y124043D01*
X180887Y124050D01*
Y124050D01*
Y124052D01*
Y124054D01*
X180887Y124058D01*
X180887Y124061D01*
X180888Y124066D01*
X180888Y124071D01*
X180890Y124076D01*
X180892Y124088D01*
X180894Y124094D01*
X180897Y124100D01*
X180900Y124106D01*
X180903Y124111D01*
X180907Y124117D01*
X180911Y124122D01*
X180911Y124123D01*
X180912Y124123D01*
X180913Y124125D01*
X180915Y124126D01*
X180917Y124128D01*
X180920Y124130D01*
X180924Y124133D01*
X180927Y124135D01*
X180931Y124138D01*
X180936Y124140D01*
X180941Y124143D01*
X180947Y124144D01*
X180952Y124146D01*
X180958Y124147D01*
X180965Y124148D01*
X180971Y124148D01*
X180975D01*
X180978Y124148D01*
D02*
G37*
G36*
X180333Y124120D02*
X180333Y124120D01*
X180334Y124121D01*
X180335Y124123D01*
X180337Y124124D01*
X180339Y124127D01*
X180342Y124129D01*
X180345Y124131D01*
X180349Y124134D01*
X180353Y124137D01*
X180357Y124140D01*
X180367Y124144D01*
X180372Y124146D01*
X180377Y124147D01*
X180383Y124148D01*
X180389Y124148D01*
X180392D01*
X180396Y124148D01*
X180400Y124148D01*
X180404Y124147D01*
X180409Y124145D01*
X180415Y124144D01*
X180420Y124142D01*
X180421Y124141D01*
X180422Y124141D01*
X180425Y124139D01*
X180428Y124137D01*
X180431Y124135D01*
X180434Y124133D01*
X180438Y124129D01*
X180441Y124126D01*
X180441Y124125D01*
X180442Y124124D01*
X180443Y124122D01*
X180444Y124120D01*
X180446Y124116D01*
X180448Y124113D01*
X180449Y124108D01*
X180450Y124104D01*
Y124104D01*
X180451Y124102D01*
X180451Y124099D01*
X180452Y124095D01*
X180452Y124090D01*
X180453Y124084D01*
X180453Y124076D01*
Y124067D01*
Y123959D01*
X180404D01*
Y124056D01*
Y124057D01*
Y124057D01*
Y124059D01*
Y124061D01*
Y124063D01*
Y124066D01*
X180403Y124072D01*
X180403Y124078D01*
X180403Y124084D01*
X180402Y124090D01*
X180401Y124091D01*
X180401Y124093D01*
Y124094D01*
X180400Y124095D01*
X180399Y124096D01*
X180399Y124098D01*
X180395Y124102D01*
X180393Y124104D01*
X180391Y124106D01*
X180390Y124106D01*
X180390Y124107D01*
X180388Y124107D01*
X180386Y124108D01*
X180383Y124109D01*
X180380Y124110D01*
X180377Y124110D01*
X180373Y124111D01*
X180371D01*
X180369Y124110D01*
X180366Y124110D01*
X180362Y124109D01*
X180359Y124108D01*
X180355Y124107D01*
X180351Y124104D01*
X180351Y124104D01*
X180350Y124103D01*
X180348Y124102D01*
X180346Y124100D01*
X180343Y124097D01*
X180341Y124094D01*
X180339Y124091D01*
X180337Y124087D01*
Y124086D01*
X180336Y124084D01*
X180336Y124082D01*
X180335Y124078D01*
X180334Y124073D01*
X180333Y124067D01*
X180333Y124060D01*
X180333Y124051D01*
Y123959D01*
X180283D01*
Y124215D01*
X180333D01*
Y124120D01*
D02*
G37*
G36*
X180144Y124214D02*
X180154D01*
X180164Y124214D01*
X180175Y124213D01*
X180179Y124212D01*
X180184Y124212D01*
X180187Y124211D01*
X180190Y124211D01*
X180191D01*
X180191Y124210D01*
X180192Y124210D01*
X180194Y124209D01*
X180198Y124208D01*
X180203Y124205D01*
X180209Y124202D01*
X180215Y124198D01*
X180221Y124192D01*
X180227Y124185D01*
Y124185D01*
X180228Y124185D01*
X180228Y124184D01*
X180229Y124182D01*
X180231Y124180D01*
X180232Y124178D01*
X180233Y124175D01*
X180235Y124172D01*
X180237Y124165D01*
X180240Y124157D01*
X180241Y124147D01*
X180242Y124136D01*
Y124135D01*
Y124135D01*
Y124134D01*
Y124132D01*
X180242Y124130D01*
Y124127D01*
X180241Y124122D01*
X180240Y124116D01*
X180238Y124109D01*
X180236Y124102D01*
X180233Y124096D01*
X180233Y124095D01*
X180232Y124093D01*
X180230Y124090D01*
X180227Y124087D01*
X180224Y124083D01*
X180220Y124079D01*
X180216Y124074D01*
X180211Y124071D01*
X180211Y124070D01*
X180209Y124069D01*
X180207Y124068D01*
X180203Y124066D01*
X180199Y124064D01*
X180195Y124062D01*
X180190Y124060D01*
X180185Y124059D01*
X180184D01*
X180183Y124058D01*
X180181D01*
X180179Y124058D01*
X180177Y124057D01*
X180174Y124057D01*
X180171D01*
X180168Y124057D01*
X180164Y124056D01*
X180159Y124056D01*
X180154Y124056D01*
X180149D01*
X180144Y124055D01*
X180098D01*
Y123959D01*
X180046D01*
Y124215D01*
X180140D01*
X180144Y124214D01*
D02*
G37*
G36*
X170176Y126811D02*
X170124D01*
X170020Y126980D01*
Y126811D01*
X169973D01*
Y127067D01*
X170022D01*
X170128Y126895D01*
Y127067D01*
X170176D01*
Y126811D01*
D02*
G37*
G36*
X172060Y123970D02*
X172188D01*
Y123927D01*
X172008D01*
Y124181D01*
X172060D01*
Y123970D01*
D02*
G37*
G36*
X169835Y129468D02*
X169779D01*
X169687Y129725D01*
X169743D01*
X169808Y129535D01*
X169871Y129725D01*
X169926D01*
X169835Y129468D01*
D02*
G37*
G36*
X171866Y124188D02*
X171870Y124187D01*
X171875Y124187D01*
X171880Y124186D01*
X171886Y124185D01*
X171892Y124183D01*
X171898Y124181D01*
X171904Y124179D01*
X171911Y124176D01*
X171917Y124173D01*
X171923Y124170D01*
X171929Y124165D01*
X171935Y124160D01*
X171935D01*
X171936Y124160D01*
X171937Y124158D01*
X171938Y124157D01*
X171939Y124155D01*
X171941Y124153D01*
X171945Y124148D01*
X171949Y124141D01*
X171953Y124133D01*
X171957Y124124D01*
X171961Y124113D01*
X171910Y124101D01*
Y124101D01*
X171910Y124102D01*
Y124103D01*
X171909Y124104D01*
X171908Y124108D01*
X171906Y124112D01*
X171903Y124117D01*
X171900Y124123D01*
X171896Y124128D01*
X171891Y124132D01*
X171890Y124133D01*
X171888Y124134D01*
X171885Y124136D01*
X171881Y124138D01*
X171876Y124140D01*
X171870Y124142D01*
X171863Y124144D01*
X171856Y124144D01*
X171853D01*
X171851Y124144D01*
X171849Y124143D01*
X171846Y124143D01*
X171840Y124141D01*
X171832Y124139D01*
X171825Y124135D01*
X171821Y124133D01*
X171817Y124130D01*
X171813Y124127D01*
X171810Y124123D01*
Y124123D01*
X171809Y124122D01*
X171808Y124121D01*
X171807Y124119D01*
X171806Y124117D01*
X171804Y124114D01*
X171803Y124111D01*
X171801Y124107D01*
X171799Y124103D01*
X171798Y124098D01*
X171796Y124093D01*
X171795Y124087D01*
X171794Y124080D01*
X171793Y124073D01*
X171793Y124065D01*
X171792Y124057D01*
Y124056D01*
Y124054D01*
Y124052D01*
X171793Y124049D01*
Y124045D01*
X171794Y124040D01*
X171794Y124035D01*
X171795Y124030D01*
X171797Y124018D01*
X171800Y124007D01*
X171802Y124001D01*
X171804Y123996D01*
X171807Y123991D01*
X171810Y123987D01*
X171810Y123987D01*
X171811Y123986D01*
X171812Y123985D01*
X171813Y123984D01*
X171817Y123981D01*
X171822Y123977D01*
X171828Y123973D01*
X171836Y123970D01*
X171845Y123967D01*
X171850Y123967D01*
X171855Y123967D01*
X171857D01*
X171858Y123967D01*
X171862Y123967D01*
X171867Y123968D01*
X171872Y123970D01*
X171878Y123972D01*
X171884Y123975D01*
X171890Y123980D01*
X171891Y123980D01*
X171893Y123982D01*
X171895Y123985D01*
X171898Y123990D01*
X171902Y123996D01*
X171905Y124003D01*
X171909Y124011D01*
X171912Y124021D01*
X171962Y124006D01*
Y124005D01*
X171962Y124004D01*
X171961Y124002D01*
X171960Y123999D01*
X171958Y123995D01*
X171957Y123991D01*
X171955Y123987D01*
X171953Y123982D01*
X171947Y123972D01*
X171941Y123962D01*
X171933Y123952D01*
X171928Y123947D01*
X171923Y123943D01*
X171923Y123943D01*
X171922Y123942D01*
X171921Y123941D01*
X171919Y123940D01*
X171916Y123938D01*
X171913Y123937D01*
X171909Y123935D01*
X171905Y123933D01*
X171900Y123931D01*
X171895Y123929D01*
X171889Y123928D01*
X171883Y123926D01*
X171877Y123925D01*
X171870Y123923D01*
X171863Y123923D01*
X171855Y123923D01*
X171853D01*
X171851Y123923D01*
X171847Y123923D01*
X171843Y123924D01*
X171838Y123925D01*
X171832Y123926D01*
X171826Y123927D01*
X171819Y123929D01*
X171813Y123931D01*
X171806Y123934D01*
X171799Y123938D01*
X171792Y123941D01*
X171785Y123946D01*
X171778Y123951D01*
X171772Y123958D01*
X171771Y123958D01*
X171770Y123959D01*
X171769Y123961D01*
X171767Y123964D01*
X171764Y123967D01*
X171761Y123972D01*
X171758Y123977D01*
X171755Y123983D01*
X171752Y123989D01*
X171750Y123996D01*
X171747Y124004D01*
X171744Y124013D01*
X171742Y124022D01*
X171741Y124031D01*
X171740Y124042D01*
X171739Y124053D01*
Y124053D01*
Y124054D01*
Y124056D01*
X171740Y124059D01*
Y124064D01*
X171740Y124069D01*
X171741Y124075D01*
X171742Y124082D01*
X171743Y124090D01*
X171745Y124097D01*
X171747Y124106D01*
X171750Y124114D01*
X171753Y124122D01*
X171757Y124130D01*
X171761Y124138D01*
X171766Y124145D01*
X171772Y124152D01*
X171772Y124153D01*
X171774Y124154D01*
X171775Y124156D01*
X171778Y124158D01*
X171781Y124161D01*
X171785Y124164D01*
X171790Y124167D01*
X171795Y124170D01*
X171801Y124174D01*
X171808Y124177D01*
X171815Y124180D01*
X171822Y124182D01*
X171831Y124185D01*
X171839Y124187D01*
X171849Y124188D01*
X171859Y124188D01*
X171863D01*
X171866Y124188D01*
D02*
G37*
G36*
X170336Y127067D02*
X170343Y127066D01*
X170351Y127066D01*
X170359Y127065D01*
X170367Y127064D01*
X170374Y127062D01*
X170374D01*
X170375Y127062D01*
X170376Y127061D01*
X170377Y127061D01*
X170382Y127059D01*
X170387Y127056D01*
X170393Y127053D01*
X170400Y127049D01*
X170406Y127044D01*
X170412Y127038D01*
X170412D01*
X170413Y127037D01*
X170415Y127035D01*
X170418Y127032D01*
X170421Y127027D01*
X170425Y127021D01*
X170429Y127014D01*
X170433Y127006D01*
X170437Y126997D01*
Y126996D01*
X170437Y126996D01*
X170437Y126994D01*
X170438Y126992D01*
X170438Y126990D01*
X170439Y126987D01*
X170440Y126984D01*
X170441Y126980D01*
X170442Y126976D01*
X170442Y126971D01*
X170443Y126966D01*
X170444Y126961D01*
X170445Y126949D01*
X170445Y126936D01*
Y126936D01*
Y126935D01*
Y126933D01*
Y126931D01*
X170445Y126928D01*
Y126925D01*
X170444Y126922D01*
X170444Y126918D01*
X170443Y126909D01*
X170442Y126900D01*
X170439Y126891D01*
X170437Y126882D01*
Y126882D01*
X170437Y126881D01*
X170436Y126879D01*
X170435Y126877D01*
X170434Y126875D01*
X170433Y126872D01*
X170430Y126866D01*
X170426Y126859D01*
X170421Y126851D01*
X170416Y126844D01*
X170410Y126837D01*
X170409Y126836D01*
X170407Y126834D01*
X170404Y126832D01*
X170400Y126829D01*
X170395Y126826D01*
X170389Y126822D01*
X170381Y126819D01*
X170373Y126816D01*
X170373D01*
X170373Y126816D01*
X170371D01*
X170370Y126815D01*
X170366Y126815D01*
X170361Y126814D01*
X170355Y126812D01*
X170347Y126812D01*
X170338Y126811D01*
X170328Y126811D01*
X170231D01*
Y127067D01*
X170333D01*
X170336Y127067D01*
D02*
G37*
G36*
X171607Y124188D02*
X171611Y124187D01*
X171616Y124187D01*
X171620Y124186D01*
X171626Y124185D01*
X171638Y124183D01*
X171644Y124181D01*
X171650Y124179D01*
X171656Y124177D01*
X171661Y124174D01*
X171666Y124170D01*
X171671Y124167D01*
X171671Y124166D01*
X171672Y124165D01*
X171673Y124164D01*
X171675Y124163D01*
X171677Y124161D01*
X171679Y124158D01*
X171681Y124155D01*
X171684Y124152D01*
X171686Y124148D01*
X171688Y124144D01*
X171690Y124139D01*
X171692Y124134D01*
X171694Y124128D01*
X171695Y124123D01*
X171697Y124117D01*
X171697Y124110D01*
X171645Y124108D01*
Y124108D01*
Y124109D01*
X171644Y124111D01*
X171644Y124115D01*
X171642Y124119D01*
X171640Y124124D01*
X171638Y124128D01*
X171634Y124133D01*
X171631Y124136D01*
X171630Y124137D01*
X171629Y124138D01*
X171626Y124139D01*
X171623Y124141D01*
X171618Y124142D01*
X171613Y124144D01*
X171606Y124145D01*
X171598Y124145D01*
X171594D01*
X171590Y124145D01*
X171586Y124144D01*
X171580Y124143D01*
X171574Y124141D01*
X171569Y124139D01*
X171563Y124135D01*
X171563Y124135D01*
X171562Y124134D01*
X171561Y124133D01*
X171559Y124131D01*
X171558Y124129D01*
X171556Y124126D01*
X171556Y124123D01*
X171555Y124120D01*
Y124119D01*
Y124118D01*
X171556Y124116D01*
X171556Y124114D01*
X171557Y124112D01*
X171558Y124109D01*
X171560Y124107D01*
X171563Y124104D01*
X171563Y124104D01*
X171565Y124103D01*
X171566Y124102D01*
X171568Y124101D01*
X171570Y124100D01*
X171572Y124099D01*
X171575Y124098D01*
X171579Y124096D01*
X171583Y124095D01*
X171587Y124093D01*
X171592Y124092D01*
X171597Y124090D01*
X171603Y124089D01*
X171610Y124087D01*
X171610D01*
X171612Y124087D01*
X171614Y124086D01*
X171616Y124086D01*
X171619Y124085D01*
X171623Y124084D01*
X171627Y124083D01*
X171631Y124081D01*
X171640Y124079D01*
X171649Y124076D01*
X171658Y124072D01*
X171662Y124070D01*
X171666Y124069D01*
X171666D01*
X171666Y124068D01*
X171668Y124067D01*
X171672Y124064D01*
X171676Y124061D01*
X171680Y124058D01*
X171685Y124053D01*
X171690Y124048D01*
X171694Y124042D01*
X171694Y124041D01*
X171695Y124039D01*
X171697Y124036D01*
X171699Y124031D01*
X171701Y124025D01*
X171703Y124018D01*
X171704Y124010D01*
X171704Y124002D01*
Y124001D01*
Y124000D01*
Y123999D01*
Y123998D01*
X171704Y123996D01*
X171704Y123993D01*
X171703Y123988D01*
X171701Y123982D01*
X171699Y123975D01*
X171696Y123967D01*
X171692Y123960D01*
Y123960D01*
X171691Y123959D01*
X171690Y123957D01*
X171687Y123953D01*
X171683Y123949D01*
X171678Y123945D01*
X171672Y123940D01*
X171665Y123936D01*
X171657Y123932D01*
X171657D01*
X171656Y123931D01*
X171655Y123931D01*
X171653Y123930D01*
X171651Y123929D01*
X171648Y123929D01*
X171645Y123928D01*
X171642Y123927D01*
X171638Y123926D01*
X171634Y123925D01*
X171624Y123924D01*
X171613Y123923D01*
X171602Y123922D01*
X171597D01*
X171593Y123923D01*
X171589Y123923D01*
X171585Y123923D01*
X171580Y123924D01*
X171574Y123925D01*
X171562Y123928D01*
X171556Y123930D01*
X171550Y123932D01*
X171543Y123934D01*
X171537Y123937D01*
X171532Y123940D01*
X171527Y123945D01*
X171526Y123945D01*
X171526Y123946D01*
X171524Y123947D01*
X171523Y123949D01*
X171520Y123951D01*
X171518Y123954D01*
X171516Y123958D01*
X171513Y123961D01*
X171510Y123966D01*
X171508Y123970D01*
X171505Y123976D01*
X171503Y123982D01*
X171501Y123988D01*
X171499Y123995D01*
X171497Y124003D01*
X171496Y124010D01*
X171546Y124015D01*
Y124015D01*
X171547Y124014D01*
Y124013D01*
X171547Y124011D01*
X171549Y124007D01*
X171550Y124001D01*
X171553Y123995D01*
X171556Y123989D01*
X171560Y123983D01*
X171565Y123978D01*
X171565Y123977D01*
X171567Y123976D01*
X171570Y123974D01*
X171574Y123972D01*
X171580Y123970D01*
X171586Y123968D01*
X171594Y123966D01*
X171602Y123966D01*
X171606D01*
X171611Y123967D01*
X171616Y123967D01*
X171622Y123969D01*
X171629Y123970D01*
X171634Y123973D01*
X171640Y123976D01*
X171640Y123977D01*
X171642Y123978D01*
X171644Y123980D01*
X171646Y123983D01*
X171649Y123987D01*
X171651Y123992D01*
X171652Y123996D01*
X171653Y124001D01*
Y124002D01*
Y124003D01*
X171652Y124004D01*
X171652Y124007D01*
X171651Y124009D01*
X171650Y124012D01*
X171649Y124014D01*
X171647Y124017D01*
X171647Y124017D01*
X171646Y124018D01*
X171645Y124019D01*
X171643Y124020D01*
X171640Y124022D01*
X171637Y124024D01*
X171633Y124026D01*
X171629Y124028D01*
X171628D01*
X171627Y124029D01*
X171624Y124029D01*
X171622Y124030D01*
X171620Y124030D01*
X171617Y124031D01*
X171614Y124032D01*
X171611Y124033D01*
X171607Y124034D01*
X171603Y124035D01*
X171598Y124036D01*
X171593Y124038D01*
X171587Y124039D01*
X171587D01*
X171585Y124040D01*
X171583Y124040D01*
X171580Y124041D01*
X171577Y124042D01*
X171573Y124043D01*
X171569Y124045D01*
X171564Y124046D01*
X171555Y124050D01*
X171545Y124054D01*
X171540Y124057D01*
X171536Y124059D01*
X171532Y124062D01*
X171529Y124064D01*
X171529Y124065D01*
X171528Y124066D01*
X171527Y124067D01*
X171525Y124068D01*
X171523Y124070D01*
X171522Y124073D01*
X171519Y124076D01*
X171518Y124079D01*
X171513Y124087D01*
X171509Y124096D01*
X171508Y124100D01*
X171507Y124105D01*
X171506Y124111D01*
X171506Y124116D01*
Y124117D01*
Y124117D01*
Y124118D01*
Y124120D01*
X171506Y124123D01*
X171507Y124128D01*
X171508Y124134D01*
X171510Y124140D01*
X171513Y124147D01*
X171516Y124153D01*
Y124153D01*
X171517Y124154D01*
X171519Y124156D01*
X171521Y124159D01*
X171525Y124162D01*
X171529Y124167D01*
X171535Y124171D01*
X171541Y124175D01*
X171548Y124179D01*
X171549D01*
X171549Y124179D01*
X171550Y124180D01*
X171552Y124180D01*
X171554Y124181D01*
X171556Y124182D01*
X171559Y124182D01*
X171563Y124184D01*
X171570Y124185D01*
X171579Y124187D01*
X171588Y124188D01*
X171599Y124188D01*
X171603D01*
X171607Y124188D01*
D02*
G37*
G36*
X177105Y131108D02*
X176979D01*
X176640Y131396D01*
Y131108D01*
X176473Y131108D01*
Y131620D01*
X176591D01*
X176938Y131325D01*
Y131616D01*
X177105Y131707D01*
Y131108D01*
D02*
G37*
G36*
X177670Y124470D02*
X177674Y124469D01*
X177677Y124469D01*
X177681Y124468D01*
X177685Y124467D01*
X177695Y124465D01*
X177699Y124463D01*
X177705Y124460D01*
X177709Y124458D01*
X177714Y124455D01*
X177719Y124451D01*
X177723Y124447D01*
X177723Y124446D01*
X177723Y124446D01*
X177724Y124445D01*
X177726Y124443D01*
X177729Y124440D01*
X177732Y124435D01*
X177735Y124428D01*
X177738Y124421D01*
X177740Y124413D01*
X177740Y124409D01*
X177741Y124404D01*
Y124404D01*
Y124403D01*
X177740Y124401D01*
X177740Y124399D01*
X177740Y124396D01*
X177739Y124392D01*
X177738Y124389D01*
X177736Y124385D01*
X177734Y124381D01*
X177732Y124376D01*
X177729Y124372D01*
X177725Y124367D01*
X177721Y124363D01*
X177716Y124358D01*
X177710Y124354D01*
X177704Y124350D01*
X177704D01*
X177705Y124350D01*
X177706D01*
X177707Y124349D01*
X177712Y124348D01*
X177716Y124346D01*
X177722Y124343D01*
X177728Y124339D01*
X177734Y124334D01*
X177739Y124329D01*
X177740Y124328D01*
X177741Y124326D01*
X177743Y124322D01*
X177746Y124318D01*
X177748Y124312D01*
X177750Y124305D01*
X177752Y124298D01*
X177752Y124289D01*
Y124289D01*
Y124288D01*
Y124286D01*
X177752Y124284D01*
X177752Y124281D01*
X177751Y124277D01*
X177750Y124273D01*
X177749Y124269D01*
X177746Y124260D01*
X177744Y124256D01*
X177742Y124250D01*
X177739Y124246D01*
X177736Y124241D01*
X177732Y124236D01*
X177727Y124231D01*
X177727Y124231D01*
X177726Y124230D01*
X177725Y124229D01*
X177723Y124228D01*
X177720Y124226D01*
X177718Y124224D01*
X177714Y124222D01*
X177710Y124220D01*
X177706Y124217D01*
X177702Y124215D01*
X177696Y124213D01*
X177691Y124211D01*
X177685Y124210D01*
X177679Y124209D01*
X177673Y124208D01*
X177666Y124208D01*
X177663D01*
X177660Y124208D01*
X177657Y124209D01*
X177654Y124209D01*
X177650Y124210D01*
X177646Y124210D01*
X177637Y124213D01*
X177627Y124216D01*
X177622Y124219D01*
X177618Y124221D01*
X177613Y124224D01*
X177608Y124228D01*
X177608Y124228D01*
X177607Y124229D01*
X177606Y124230D01*
X177605Y124231D01*
X177603Y124233D01*
X177601Y124236D01*
X177599Y124239D01*
X177596Y124242D01*
X177594Y124246D01*
X177592Y124249D01*
X177588Y124258D01*
X177584Y124268D01*
X177583Y124274D01*
X177582Y124280D01*
X177629Y124286D01*
Y124285D01*
Y124285D01*
X177630Y124283D01*
X177631Y124280D01*
X177632Y124276D01*
X177633Y124271D01*
X177635Y124266D01*
X177638Y124262D01*
X177642Y124258D01*
X177642Y124257D01*
X177643Y124256D01*
X177646Y124255D01*
X177648Y124253D01*
X177652Y124251D01*
X177656Y124250D01*
X177660Y124249D01*
X177666Y124248D01*
X177666D01*
X177668Y124249D01*
X177671Y124249D01*
X177675Y124250D01*
X177679Y124251D01*
X177683Y124253D01*
X177687Y124256D01*
X177691Y124260D01*
X177692Y124260D01*
X177693Y124262D01*
X177695Y124265D01*
X177697Y124268D01*
X177699Y124273D01*
X177700Y124278D01*
X177702Y124284D01*
X177702Y124291D01*
Y124292D01*
Y124292D01*
Y124294D01*
X177702Y124298D01*
X177701Y124302D01*
X177699Y124307D01*
X177697Y124312D01*
X177695Y124317D01*
X177692Y124321D01*
X177691Y124321D01*
X177690Y124323D01*
X177687Y124325D01*
X177685Y124327D01*
X177681Y124329D01*
X177677Y124330D01*
X177673Y124332D01*
X177668Y124332D01*
X177664D01*
X177661Y124332D01*
X177658Y124331D01*
X177654Y124331D01*
X177650Y124330D01*
X177645Y124328D01*
X177650Y124368D01*
X177653D01*
X177657Y124368D01*
X177662Y124369D01*
X177666Y124370D01*
X177672Y124371D01*
X177676Y124374D01*
X177681Y124377D01*
X177681Y124377D01*
X177683Y124378D01*
X177684Y124380D01*
X177686Y124383D01*
X177688Y124387D01*
X177690Y124391D01*
X177691Y124395D01*
X177692Y124401D01*
Y124402D01*
Y124403D01*
X177691Y124405D01*
X177690Y124408D01*
X177690Y124412D01*
X177688Y124415D01*
X177686Y124419D01*
X177684Y124422D01*
X177683Y124422D01*
X177682Y124423D01*
X177681Y124424D01*
X177678Y124426D01*
X177675Y124427D01*
X177672Y124428D01*
X177668Y124429D01*
X177663Y124429D01*
X177661D01*
X177659Y124429D01*
X177656Y124428D01*
X177652Y124427D01*
X177649Y124426D01*
X177645Y124424D01*
X177642Y124421D01*
X177641Y124420D01*
X177640Y124419D01*
X177639Y124417D01*
X177637Y124414D01*
X177635Y124411D01*
X177633Y124406D01*
X177632Y124401D01*
X177631Y124395D01*
X177586Y124402D01*
Y124403D01*
X177586Y124404D01*
Y124405D01*
X177586Y124406D01*
X177588Y124411D01*
X177589Y124416D01*
X177591Y124422D01*
X177594Y124428D01*
X177596Y124434D01*
X177600Y124440D01*
X177600Y124441D01*
X177602Y124442D01*
X177604Y124445D01*
X177607Y124448D01*
X177611Y124451D01*
X177615Y124455D01*
X177621Y124459D01*
X177626Y124462D01*
X177627D01*
X177627Y124462D01*
X177629Y124463D01*
X177633Y124465D01*
X177638Y124466D01*
X177643Y124468D01*
X177650Y124469D01*
X177657Y124470D01*
X177665Y124470D01*
X177668D01*
X177670Y124470D01*
D02*
G37*
G36*
X177372D02*
X177375Y124469D01*
X177379Y124469D01*
X177383Y124468D01*
X177387Y124467D01*
X177396Y124465D01*
X177401Y124463D01*
X177406Y124460D01*
X177411Y124458D01*
X177415Y124455D01*
X177420Y124451D01*
X177424Y124447D01*
X177424Y124446D01*
X177425Y124446D01*
X177426Y124445D01*
X177427Y124443D01*
X177430Y124440D01*
X177433Y124435D01*
X177437Y124428D01*
X177439Y124421D01*
X177441Y124413D01*
X177442Y124409D01*
X177442Y124404D01*
Y124404D01*
Y124403D01*
X177442Y124401D01*
X177441Y124399D01*
X177441Y124396D01*
X177440Y124392D01*
X177439Y124389D01*
X177438Y124385D01*
X177436Y124381D01*
X177433Y124376D01*
X177430Y124372D01*
X177427Y124367D01*
X177422Y124363D01*
X177417Y124358D01*
X177412Y124354D01*
X177405Y124350D01*
X177406D01*
X177406Y124350D01*
X177407D01*
X177409Y124349D01*
X177413Y124348D01*
X177418Y124346D01*
X177423Y124343D01*
X177429Y124339D01*
X177435Y124334D01*
X177440Y124329D01*
X177441Y124328D01*
X177443Y124326D01*
X177444Y124322D01*
X177447Y124318D01*
X177450Y124312D01*
X177451Y124305D01*
X177453Y124298D01*
X177454Y124289D01*
Y124289D01*
Y124288D01*
Y124286D01*
X177453Y124284D01*
X177453Y124281D01*
X177452Y124277D01*
X177451Y124273D01*
X177451Y124269D01*
X177448Y124260D01*
X177446Y124256D01*
X177443Y124250D01*
X177440Y124246D01*
X177437Y124241D01*
X177433Y124236D01*
X177429Y124231D01*
X177428Y124231D01*
X177428Y124230D01*
X177426Y124229D01*
X177424Y124228D01*
X177422Y124226D01*
X177419Y124224D01*
X177416Y124222D01*
X177412Y124220D01*
X177408Y124217D01*
X177403Y124215D01*
X177398Y124213D01*
X177393Y124211D01*
X177387Y124210D01*
X177381Y124209D01*
X177374Y124208D01*
X177367Y124208D01*
X177364D01*
X177362Y124208D01*
X177359Y124209D01*
X177355Y124209D01*
X177352Y124210D01*
X177347Y124210D01*
X177338Y124213D01*
X177329Y124216D01*
X177323Y124219D01*
X177319Y124221D01*
X177314Y124224D01*
X177310Y124228D01*
X177309Y124228D01*
X177309Y124229D01*
X177308Y124230D01*
X177306Y124231D01*
X177304Y124233D01*
X177302Y124236D01*
X177300Y124239D01*
X177298Y124242D01*
X177296Y124246D01*
X177293Y124249D01*
X177289Y124258D01*
X177286Y124268D01*
X177284Y124274D01*
X177283Y124280D01*
X177331Y124286D01*
Y124285D01*
Y124285D01*
X177331Y124283D01*
X177332Y124280D01*
X177333Y124276D01*
X177335Y124271D01*
X177337Y124266D01*
X177340Y124262D01*
X177343Y124258D01*
X177343Y124257D01*
X177345Y124256D01*
X177347Y124255D01*
X177350Y124253D01*
X177353Y124251D01*
X177357Y124250D01*
X177362Y124249D01*
X177367Y124248D01*
X177368D01*
X177370Y124249D01*
X177372Y124249D01*
X177376Y124250D01*
X177380Y124251D01*
X177384Y124253D01*
X177389Y124256D01*
X177393Y124260D01*
X177393Y124260D01*
X177394Y124262D01*
X177396Y124265D01*
X177398Y124268D01*
X177400Y124273D01*
X177402Y124278D01*
X177403Y124284D01*
X177403Y124291D01*
Y124292D01*
Y124292D01*
Y124294D01*
X177403Y124298D01*
X177402Y124302D01*
X177401Y124307D01*
X177399Y124312D01*
X177396Y124317D01*
X177393Y124321D01*
X177393Y124321D01*
X177391Y124323D01*
X177389Y124325D01*
X177386Y124327D01*
X177383Y124329D01*
X177379Y124330D01*
X177374Y124332D01*
X177369Y124332D01*
X177365D01*
X177363Y124332D01*
X177359Y124331D01*
X177355Y124331D01*
X177351Y124330D01*
X177346Y124328D01*
X177352Y124368D01*
X177355D01*
X177359Y124368D01*
X177363Y124369D01*
X177368Y124370D01*
X177373Y124371D01*
X177378Y124374D01*
X177382Y124377D01*
X177383Y124377D01*
X177384Y124378D01*
X177386Y124380D01*
X177388Y124383D01*
X177390Y124387D01*
X177391Y124391D01*
X177393Y124395D01*
X177393Y124401D01*
Y124402D01*
Y124403D01*
X177393Y124405D01*
X177392Y124408D01*
X177391Y124412D01*
X177390Y124415D01*
X177388Y124419D01*
X177385Y124422D01*
X177385Y124422D01*
X177384Y124423D01*
X177382Y124424D01*
X177380Y124426D01*
X177377Y124427D01*
X177373Y124428D01*
X177369Y124429D01*
X177364Y124429D01*
X177362D01*
X177360Y124429D01*
X177357Y124428D01*
X177354Y124427D01*
X177350Y124426D01*
X177346Y124424D01*
X177343Y124421D01*
X177343Y124420D01*
X177342Y124419D01*
X177340Y124417D01*
X177338Y124414D01*
X177336Y124411D01*
X177335Y124406D01*
X177333Y124401D01*
X177332Y124395D01*
X177287Y124402D01*
Y124403D01*
X177288Y124404D01*
Y124405D01*
X177288Y124406D01*
X177289Y124411D01*
X177290Y124416D01*
X177293Y124422D01*
X177295Y124428D01*
X177298Y124434D01*
X177301Y124440D01*
X177302Y124441D01*
X177303Y124442D01*
X177305Y124445D01*
X177308Y124448D01*
X177312Y124451D01*
X177316Y124455D01*
X177322Y124459D01*
X177328Y124462D01*
X177328D01*
X177329Y124462D01*
X177331Y124463D01*
X177335Y124465D01*
X177339Y124466D01*
X177345Y124468D01*
X177351Y124469D01*
X177358Y124470D01*
X177366Y124470D01*
X177369D01*
X177372Y124470D01*
D02*
G37*
G36*
X177915Y124213D02*
X177860D01*
X177768Y124469D01*
X177824D01*
X177889Y124279D01*
X177951Y124469D01*
X178006D01*
X177915Y124213D01*
D02*
G37*
G36*
X178050Y126378D02*
X177998D01*
X177894Y126547D01*
Y126378D01*
X177847D01*
Y126634D01*
X177896D01*
X178002Y126462D01*
Y126634D01*
X178050D01*
Y126378D01*
D02*
G37*
G36*
X178210Y126634D02*
X178217Y126633D01*
X178225Y126633D01*
X178233Y126632D01*
X178241Y126631D01*
X178248Y126629D01*
X178248D01*
X178249Y126628D01*
X178250Y126628D01*
X178251Y126628D01*
X178256Y126626D01*
X178261Y126623D01*
X178267Y126620D01*
X178274Y126616D01*
X178280Y126611D01*
X178286Y126605D01*
X178286D01*
X178287Y126604D01*
X178289Y126602D01*
X178292Y126598D01*
X178295Y126594D01*
X178299Y126588D01*
X178303Y126581D01*
X178307Y126573D01*
X178311Y126564D01*
Y126563D01*
X178311Y126563D01*
X178311Y126561D01*
X178312Y126559D01*
X178312Y126557D01*
X178313Y126554D01*
X178314Y126551D01*
X178315Y126547D01*
X178316Y126543D01*
X178316Y126538D01*
X178317Y126533D01*
X178318Y126528D01*
X178319Y126516D01*
X178319Y126503D01*
Y126503D01*
Y126502D01*
Y126500D01*
Y126498D01*
X178319Y126495D01*
Y126492D01*
X178318Y126489D01*
X178318Y126485D01*
X178317Y126476D01*
X178316Y126467D01*
X178313Y126458D01*
X178311Y126449D01*
Y126449D01*
X178311Y126448D01*
X178310Y126446D01*
X178309Y126444D01*
X178308Y126442D01*
X178307Y126439D01*
X178304Y126433D01*
X178300Y126426D01*
X178295Y126418D01*
X178290Y126411D01*
X178284Y126403D01*
X178283Y126403D01*
X178281Y126401D01*
X178278Y126399D01*
X178274Y126396D01*
X178269Y126393D01*
X178263Y126389D01*
X178255Y126386D01*
X178247Y126383D01*
X178247D01*
X178247Y126383D01*
X178245D01*
X178244Y126382D01*
X178240Y126382D01*
X178235Y126381D01*
X178229Y126379D01*
X178221Y126379D01*
X178212Y126378D01*
X178202Y126378D01*
X178105D01*
Y126634D01*
X178207D01*
X178210Y126634D01*
D02*
G37*
G36*
X177544Y124213D02*
X177495D01*
Y124262D01*
X177544D01*
Y124213D01*
D02*
G37*
G36*
X182234Y124035D02*
X182242Y124035D01*
X182249Y124034D01*
X182256Y124034D01*
X182263Y124033D01*
X182263D01*
X182265Y124033D01*
X182268Y124032D01*
X182271Y124031D01*
X182276Y124029D01*
X182280Y124027D01*
X182285Y124025D01*
X182289Y124022D01*
X182290Y124022D01*
X182291Y124021D01*
X182293Y124019D01*
X182296Y124017D01*
X182299Y124013D01*
X182303Y124010D01*
X182306Y124006D01*
X182309Y124001D01*
X182309Y124000D01*
X182310Y123999D01*
X182311Y123996D01*
X182313Y123992D01*
X182314Y123987D01*
X182316Y123983D01*
X182317Y123977D01*
X182317Y123971D01*
Y123970D01*
Y123970D01*
Y123968D01*
X182317Y123965D01*
X182316Y123960D01*
X182314Y123955D01*
X182313Y123949D01*
X182310Y123944D01*
X182307Y123938D01*
X182307Y123937D01*
X182305Y123935D01*
X182303Y123933D01*
X182300Y123929D01*
X182297Y123926D01*
X182292Y123922D01*
X182287Y123919D01*
X182281Y123915D01*
X182281D01*
X182282Y123915D01*
X182283Y123915D01*
X182285Y123914D01*
X182289Y123912D01*
X182294Y123910D01*
X182300Y123907D01*
X182306Y123903D01*
X182312Y123898D01*
X182317Y123892D01*
X182317Y123891D01*
X182319Y123889D01*
X182321Y123886D01*
X182323Y123881D01*
X182325Y123875D01*
X182328Y123869D01*
X182329Y123862D01*
X182330Y123854D01*
Y123853D01*
Y123853D01*
Y123851D01*
X182329Y123847D01*
X182328Y123843D01*
X182328Y123838D01*
X182326Y123832D01*
X182324Y123826D01*
X182321Y123819D01*
X182321Y123819D01*
X182320Y123817D01*
X182318Y123814D01*
X182315Y123810D01*
X182313Y123806D01*
X182308Y123802D01*
X182304Y123797D01*
X182299Y123793D01*
X182298Y123793D01*
X182297Y123792D01*
X182294Y123790D01*
X182290Y123788D01*
X182284Y123786D01*
X182278Y123784D01*
X182272Y123782D01*
X182264Y123781D01*
X182263D01*
X182261Y123781D01*
X182258D01*
X182255Y123780D01*
X182248D01*
X182244Y123780D01*
X182233D01*
X182226Y123780D01*
X182115D01*
Y124036D01*
X182228D01*
X182234Y124035D01*
D02*
G37*
G36*
X170648Y124950D02*
X170551D01*
Y125000D01*
X170648D01*
Y124950D01*
D02*
G37*
G36*
X182604Y123780D02*
X182548D01*
X182526Y123838D01*
X182423D01*
X182402Y123780D01*
X182347D01*
X182446Y124036D01*
X182501D01*
X182604Y123780D01*
D02*
G37*
G36*
X181998D02*
X181942D01*
X181850Y124036D01*
X181906D01*
X181971Y123846D01*
X182034Y124036D01*
X182089D01*
X181998Y123780D01*
D02*
G37*
G36*
X182817Y123992D02*
X182741D01*
Y123780D01*
X182690D01*
Y123992D01*
X182614D01*
Y124036D01*
X182817D01*
Y123992D01*
D02*
G37*
G36*
X177694Y126638D02*
X177698Y126638D01*
X177703Y126638D01*
X177708Y126637D01*
X177713Y126636D01*
X177725Y126634D01*
X177737Y126630D01*
X177744Y126628D01*
X177750Y126625D01*
X177755Y126623D01*
X177760Y126619D01*
X177761Y126618D01*
X177761Y126618D01*
X177763Y126617D01*
X177765Y126615D01*
X177767Y126613D01*
X177769Y126611D01*
X177772Y126608D01*
X177775Y126604D01*
X177778Y126601D01*
X177781Y126597D01*
X177784Y126592D01*
X177786Y126587D01*
X177789Y126582D01*
X177791Y126576D01*
X177794Y126570D01*
X177795Y126564D01*
X177744Y126554D01*
Y126554D01*
X177743Y126555D01*
X177743Y126557D01*
X177741Y126560D01*
X177739Y126565D01*
X177736Y126570D01*
X177733Y126574D01*
X177728Y126579D01*
X177723Y126584D01*
X177722Y126584D01*
X177720Y126586D01*
X177717Y126587D01*
X177713Y126589D01*
X177707Y126591D01*
X177701Y126593D01*
X177694Y126594D01*
X177686Y126595D01*
X177683D01*
X177680Y126594D01*
X177677Y126594D01*
X177674Y126594D01*
X177670Y126593D01*
X177666Y126592D01*
X177658Y126590D01*
X177653Y126588D01*
X177649Y126586D01*
X177645Y126583D01*
X177640Y126580D01*
X177636Y126577D01*
X177632Y126573D01*
X177632Y126573D01*
X177631Y126572D01*
X177630Y126571D01*
X177629Y126569D01*
X177628Y126567D01*
X177626Y126564D01*
X177624Y126561D01*
X177622Y126557D01*
X177620Y126553D01*
X177619Y126548D01*
X177617Y126543D01*
X177615Y126537D01*
X177614Y126531D01*
X177613Y126524D01*
X177613Y126517D01*
X177612Y126509D01*
Y126509D01*
Y126507D01*
Y126504D01*
X177613Y126502D01*
X177613Y126497D01*
X177613Y126493D01*
X177614Y126488D01*
X177615Y126483D01*
X177617Y126472D01*
X177621Y126460D01*
X177623Y126455D01*
X177626Y126450D01*
X177629Y126445D01*
X177632Y126440D01*
X177633Y126440D01*
X177633Y126439D01*
X177635Y126438D01*
X177636Y126436D01*
X177638Y126435D01*
X177640Y126433D01*
X177643Y126431D01*
X177647Y126429D01*
X177650Y126426D01*
X177654Y126425D01*
X177663Y126421D01*
X177669Y126419D01*
X177674Y126418D01*
X177680Y126418D01*
X177686Y126417D01*
X177689D01*
X177692Y126418D01*
X177696Y126418D01*
X177701Y126419D01*
X177706Y126420D01*
X177712Y126421D01*
X177718Y126423D01*
X177719D01*
X177719Y126424D01*
X177721Y126425D01*
X177724Y126426D01*
X177728Y126428D01*
X177732Y126430D01*
X177737Y126433D01*
X177742Y126436D01*
X177746Y126439D01*
Y126472D01*
X177687D01*
Y126515D01*
X177798D01*
Y126412D01*
X177798Y126412D01*
X177797Y126411D01*
X177795Y126410D01*
X177794Y126408D01*
X177792Y126407D01*
X177787Y126403D01*
X177780Y126399D01*
X177771Y126394D01*
X177762Y126389D01*
X177751Y126385D01*
X177751D01*
X177750Y126385D01*
X177748Y126384D01*
X177746Y126383D01*
X177743Y126382D01*
X177740Y126381D01*
X177736Y126380D01*
X177732Y126379D01*
X177723Y126377D01*
X177712Y126375D01*
X177701Y126374D01*
X177689Y126373D01*
X177685D01*
X177682Y126374D01*
X177679D01*
X177674Y126374D01*
X177670Y126375D01*
X177665Y126375D01*
X177654Y126377D01*
X177642Y126380D01*
X177630Y126384D01*
X177625Y126387D01*
X177619Y126390D01*
X177618Y126390D01*
X177618Y126391D01*
X177616Y126392D01*
X177614Y126393D01*
X177611Y126395D01*
X177609Y126397D01*
X177605Y126399D01*
X177602Y126402D01*
X177595Y126409D01*
X177587Y126418D01*
X177580Y126427D01*
X177574Y126438D01*
Y126439D01*
X177573Y126440D01*
X177572Y126442D01*
X177572Y126444D01*
X177571Y126447D01*
X177569Y126450D01*
X177568Y126454D01*
X177566Y126459D01*
X177565Y126463D01*
X177564Y126469D01*
X177561Y126480D01*
X177560Y126493D01*
X177559Y126507D01*
Y126507D01*
Y126509D01*
Y126511D01*
X177559Y126513D01*
Y126517D01*
X177560Y126521D01*
X177561Y126526D01*
X177561Y126531D01*
X177563Y126541D01*
X177566Y126554D01*
X177570Y126566D01*
X177573Y126572D01*
X177576Y126578D01*
X177576Y126578D01*
X177576Y126579D01*
X177578Y126581D01*
X177579Y126583D01*
X177581Y126586D01*
X177583Y126588D01*
X177585Y126592D01*
X177588Y126596D01*
X177591Y126599D01*
X177595Y126603D01*
X177599Y126607D01*
X177603Y126611D01*
X177608Y126615D01*
X177613Y126619D01*
X177625Y126626D01*
X177625D01*
X177626Y126627D01*
X177627Y126627D01*
X177629Y126628D01*
X177632Y126629D01*
X177634Y126630D01*
X177638Y126631D01*
X177642Y126633D01*
X177646Y126634D01*
X177650Y126635D01*
X177656Y126636D01*
X177661Y126637D01*
X177673Y126638D01*
X177686Y126639D01*
X177690D01*
X177694Y126638D01*
D02*
G37*
G36*
X177682Y131492D02*
X177354D01*
Y131423D01*
X177724D01*
X177618Y131304D01*
X177354D01*
Y131235D01*
X177779D01*
X177663Y131107D01*
X177186D01*
Y131620D01*
X177796D01*
X177682Y131492D01*
D02*
G37*
G36*
X174941Y131363D02*
X174796Y131107D01*
X174286D01*
Y131620D01*
X174796D01*
X174941Y131363D01*
D02*
G37*
G36*
X173725Y131502D02*
Y131218D01*
X173616D01*
X173765Y131108D01*
X173555D01*
X173532Y131134D01*
X173507Y131108D01*
X173186D01*
X173069Y131224D01*
Y131502D01*
X173186Y131620D01*
X173606D01*
X173725Y131502D01*
D02*
G37*
G36*
X171552Y131108D02*
X171385D01*
Y131424D01*
X171212Y131168D01*
X171106D01*
X170935Y131424D01*
Y131110D01*
X170768Y131022D01*
Y131620D01*
X170949D01*
X171159Y131325D01*
X171369Y131620D01*
X171552D01*
Y131108D01*
D02*
G37*
G36*
X176395Y131501D02*
Y131225D01*
X176277Y131108D01*
X175857D01*
X175740Y131224D01*
Y131502D01*
X175857Y131620D01*
X176277D01*
X176395Y131501D01*
D02*
G37*
G36*
X175658Y131458D02*
X175572Y131344D01*
X175658Y131261D01*
Y131022D01*
X175490Y131110D01*
Y131233D01*
X175449Y131273D01*
X175177D01*
Y131108D01*
X175009D01*
Y131620D01*
X175541D01*
X175658Y131458D01*
D02*
G37*
G36*
X180223Y127618D02*
X180230Y127618D01*
X180238Y127617D01*
X180246Y127616D01*
X180254Y127615D01*
X180261Y127613D01*
X180261D01*
X180262Y127613D01*
X180263Y127612D01*
X180265Y127612D01*
X180269Y127610D01*
X180274Y127608D01*
X180280Y127604D01*
X180287Y127600D01*
X180293Y127595D01*
X180299Y127589D01*
X180300D01*
X180300Y127589D01*
X180302Y127586D01*
X180305Y127583D01*
X180308Y127578D01*
X180312Y127572D01*
X180316Y127565D01*
X180320Y127557D01*
X180324Y127548D01*
Y127548D01*
X180324Y127547D01*
X180325Y127545D01*
X180325Y127544D01*
X180326Y127541D01*
X180326Y127538D01*
X180327Y127535D01*
X180328Y127531D01*
X180329Y127527D01*
X180330Y127522D01*
X180330Y127518D01*
X180331Y127512D01*
X180332Y127501D01*
X180332Y127488D01*
Y127487D01*
Y127486D01*
Y127485D01*
Y127482D01*
X180332Y127479D01*
Y127477D01*
X180332Y127473D01*
X180331Y127469D01*
X180330Y127460D01*
X180329Y127451D01*
X180327Y127442D01*
X180324Y127433D01*
Y127433D01*
X180324Y127432D01*
X180323Y127431D01*
X180322Y127428D01*
X180322Y127426D01*
X180320Y127424D01*
X180317Y127417D01*
X180313Y127410D01*
X180309Y127402D01*
X180303Y127395D01*
X180297Y127388D01*
X180296Y127387D01*
X180294Y127386D01*
X180291Y127383D01*
X180287Y127380D01*
X180282Y127377D01*
X180276Y127374D01*
X180269Y127370D01*
X180261Y127367D01*
X180260D01*
X180260Y127367D01*
X180259D01*
X180258Y127367D01*
X180254Y127366D01*
X180248Y127365D01*
X180242Y127364D01*
X180234Y127363D01*
X180225Y127363D01*
X180215Y127362D01*
X180118D01*
Y127618D01*
X180220D01*
X180223Y127618D01*
D02*
G37*
G36*
X178339Y127741D02*
X178343Y127740D01*
X178348Y127740D01*
X178353Y127739D01*
X178358Y127739D01*
X178370Y127736D01*
X178376Y127734D01*
X178382Y127732D01*
X178388Y127730D01*
X178393Y127727D01*
X178399Y127723D01*
X178403Y127720D01*
X178404Y127719D01*
X178404Y127719D01*
X178406Y127717D01*
X178407Y127716D01*
X178409Y127714D01*
X178411Y127711D01*
X178413Y127708D01*
X178416Y127705D01*
X178418Y127701D01*
X178420Y127697D01*
X178423Y127692D01*
X178424Y127687D01*
X178426Y127682D01*
X178428Y127676D01*
X178429Y127670D01*
X178429Y127663D01*
X178377Y127661D01*
Y127662D01*
Y127662D01*
X178377Y127665D01*
X178376Y127668D01*
X178375Y127672D01*
X178373Y127677D01*
X178370Y127681D01*
X178367Y127686D01*
X178363Y127689D01*
X178363Y127690D01*
X178361Y127691D01*
X178359Y127692D01*
X178355Y127694D01*
X178350Y127695D01*
X178345Y127697D01*
X178338Y127698D01*
X178330Y127698D01*
X178327D01*
X178323Y127698D01*
X178318Y127697D01*
X178312Y127696D01*
X178306Y127694D01*
X178301Y127692D01*
X178296Y127689D01*
X178295Y127688D01*
X178295Y127688D01*
X178293Y127686D01*
X178292Y127685D01*
X178290Y127682D01*
X178289Y127679D01*
X178288Y127676D01*
X178288Y127673D01*
Y127672D01*
Y127671D01*
X178288Y127669D01*
X178289Y127668D01*
X178289Y127665D01*
X178291Y127662D01*
X178292Y127660D01*
X178295Y127657D01*
X178295Y127657D01*
X178297Y127656D01*
X178298Y127655D01*
X178300Y127654D01*
X178302Y127653D01*
X178305Y127652D01*
X178308Y127651D01*
X178311Y127649D01*
X178315Y127648D01*
X178319Y127646D01*
X178324Y127645D01*
X178330Y127643D01*
X178336Y127642D01*
X178342Y127640D01*
X178343D01*
X178344Y127640D01*
X178346Y127639D01*
X178349Y127639D01*
X178352Y127638D01*
X178355Y127637D01*
X178359Y127636D01*
X178363Y127635D01*
X178372Y127632D01*
X178382Y127629D01*
X178390Y127625D01*
X178394Y127624D01*
X178398Y127622D01*
X178398D01*
X178399Y127621D01*
X178401Y127620D01*
X178404Y127618D01*
X178408Y127615D01*
X178413Y127611D01*
X178417Y127606D01*
X178422Y127601D01*
X178426Y127595D01*
X178427Y127595D01*
X178428Y127592D01*
X178430Y127589D01*
X178431Y127584D01*
X178433Y127578D01*
X178435Y127571D01*
X178436Y127564D01*
X178437Y127555D01*
Y127554D01*
Y127554D01*
Y127552D01*
Y127551D01*
X178436Y127549D01*
X178436Y127547D01*
X178435Y127541D01*
X178434Y127535D01*
X178431Y127528D01*
X178428Y127521D01*
X178424Y127513D01*
Y127513D01*
X178423Y127513D01*
X178422Y127510D01*
X178419Y127507D01*
X178415Y127503D01*
X178410Y127498D01*
X178404Y127493D01*
X178397Y127489D01*
X178389Y127485D01*
X178389D01*
X178388Y127484D01*
X178387Y127484D01*
X178385Y127483D01*
X178383Y127483D01*
X178380Y127482D01*
X178377Y127481D01*
X178374Y127480D01*
X178370Y127479D01*
X178366Y127478D01*
X178356Y127477D01*
X178346Y127476D01*
X178334Y127476D01*
X178329D01*
X178326Y127476D01*
X178322Y127476D01*
X178317Y127477D01*
X178312Y127477D01*
X178306Y127478D01*
X178294Y127481D01*
X178288Y127483D01*
X178282Y127485D01*
X178276Y127487D01*
X178270Y127490D01*
X178264Y127494D01*
X178259Y127498D01*
X178259Y127498D01*
X178258Y127499D01*
X178256Y127500D01*
X178255Y127502D01*
X178253Y127504D01*
X178251Y127507D01*
X178248Y127511D01*
X178245Y127514D01*
X178243Y127519D01*
X178240Y127524D01*
X178238Y127529D01*
X178235Y127535D01*
X178233Y127541D01*
X178231Y127548D01*
X178229Y127556D01*
X178228Y127564D01*
X178279Y127568D01*
Y127568D01*
X178279Y127567D01*
Y127566D01*
X178279Y127564D01*
X178281Y127560D01*
X178283Y127554D01*
X178285Y127548D01*
X178288Y127542D01*
X178292Y127536D01*
X178297Y127531D01*
X178298Y127531D01*
X178299Y127529D01*
X178302Y127527D01*
X178307Y127525D01*
X178312Y127523D01*
X178319Y127521D01*
X178326Y127520D01*
X178335Y127519D01*
X178339D01*
X178343Y127520D01*
X178349Y127521D01*
X178355Y127522D01*
X178361Y127524D01*
X178367Y127526D01*
X178372Y127530D01*
X178373Y127530D01*
X178374Y127531D01*
X178376Y127534D01*
X178379Y127537D01*
X178381Y127540D01*
X178383Y127545D01*
X178384Y127549D01*
X178385Y127554D01*
Y127555D01*
Y127556D01*
X178384Y127558D01*
X178384Y127560D01*
X178383Y127562D01*
X178383Y127565D01*
X178381Y127567D01*
X178379Y127570D01*
X178379Y127570D01*
X178378Y127571D01*
X178377Y127572D01*
X178375Y127574D01*
X178373Y127575D01*
X178369Y127577D01*
X178366Y127579D01*
X178361Y127581D01*
X178360D01*
X178359Y127582D01*
X178356Y127582D01*
X178355Y127583D01*
X178352Y127584D01*
X178350Y127584D01*
X178347Y127585D01*
X178343Y127586D01*
X178340Y127587D01*
X178335Y127588D01*
X178330Y127589D01*
X178325Y127591D01*
X178319Y127592D01*
X178319D01*
X178318Y127593D01*
X178315Y127594D01*
X178313Y127594D01*
X178309Y127595D01*
X178305Y127596D01*
X178301Y127598D01*
X178296Y127599D01*
X178287Y127603D01*
X178278Y127608D01*
X178273Y127610D01*
X178269Y127612D01*
X178265Y127615D01*
X178261Y127618D01*
X178261Y127618D01*
X178260Y127619D01*
X178259Y127620D01*
X178258Y127621D01*
X178256Y127624D01*
X178254Y127626D01*
X178252Y127629D01*
X178250Y127632D01*
X178245Y127640D01*
X178242Y127649D01*
X178240Y127653D01*
X178239Y127658D01*
X178238Y127664D01*
X178238Y127669D01*
Y127670D01*
Y127670D01*
Y127671D01*
Y127673D01*
X178239Y127676D01*
X178239Y127681D01*
X178241Y127687D01*
X178242Y127693D01*
X178245Y127700D01*
X178249Y127706D01*
Y127706D01*
X178249Y127707D01*
X178251Y127709D01*
X178253Y127712D01*
X178257Y127716D01*
X178261Y127720D01*
X178267Y127724D01*
X178273Y127728D01*
X178281Y127732D01*
X178281D01*
X178282Y127732D01*
X178283Y127733D01*
X178284Y127733D01*
X178286Y127734D01*
X178289Y127735D01*
X178292Y127736D01*
X178295Y127737D01*
X178302Y127738D01*
X178311Y127740D01*
X178320Y127741D01*
X178331Y127741D01*
X178336D01*
X178339Y127741D01*
D02*
G37*
G36*
X178363Y127268D02*
X178367Y127268D01*
X178372Y127268D01*
X178377Y127267D01*
X178383Y127266D01*
X178394Y127264D01*
X178407Y127260D01*
X178413Y127258D01*
X178419Y127255D01*
X178424Y127252D01*
X178430Y127249D01*
X178430Y127248D01*
X178431Y127248D01*
X178432Y127247D01*
X178434Y127245D01*
X178436Y127243D01*
X178439Y127241D01*
X178441Y127238D01*
X178444Y127234D01*
X178447Y127231D01*
X178450Y127227D01*
X178453Y127222D01*
X178456Y127217D01*
X178458Y127212D01*
X178461Y127206D01*
X178463Y127200D01*
X178464Y127194D01*
X178413Y127184D01*
Y127184D01*
X178413Y127185D01*
X178412Y127187D01*
X178410Y127190D01*
X178408Y127195D01*
X178406Y127200D01*
X178402Y127204D01*
X178397Y127209D01*
X178392Y127214D01*
X178392Y127214D01*
X178390Y127215D01*
X178386Y127217D01*
X178382Y127219D01*
X178377Y127221D01*
X178370Y127223D01*
X178363Y127224D01*
X178355Y127225D01*
X178352D01*
X178350Y127224D01*
X178347Y127224D01*
X178343Y127224D01*
X178340Y127223D01*
X178336Y127222D01*
X178327Y127220D01*
X178323Y127218D01*
X178318Y127215D01*
X178314Y127213D01*
X178309Y127210D01*
X178305Y127207D01*
X178301Y127203D01*
X178301Y127202D01*
X178300Y127202D01*
X178299Y127201D01*
X178298Y127199D01*
X178297Y127197D01*
X178295Y127194D01*
X178293Y127191D01*
X178292Y127187D01*
X178290Y127183D01*
X178288Y127178D01*
X178286Y127173D01*
X178285Y127167D01*
X178283Y127161D01*
X178282Y127154D01*
X178282Y127147D01*
X178282Y127139D01*
Y127138D01*
Y127137D01*
Y127134D01*
X178282Y127131D01*
X178282Y127127D01*
X178283Y127123D01*
X178283Y127118D01*
X178284Y127113D01*
X178286Y127102D01*
X178290Y127090D01*
X178292Y127085D01*
X178295Y127080D01*
X178298Y127074D01*
X178302Y127070D01*
X178302Y127070D01*
X178303Y127069D01*
X178304Y127068D01*
X178305Y127066D01*
X178308Y127065D01*
X178310Y127063D01*
X178313Y127061D01*
X178316Y127059D01*
X178320Y127056D01*
X178323Y127054D01*
X178333Y127051D01*
X178338Y127049D01*
X178343Y127048D01*
X178349Y127047D01*
X178355Y127047D01*
X178358D01*
X178361Y127047D01*
X178365Y127048D01*
X178370Y127049D01*
X178376Y127050D01*
X178382Y127051D01*
X178387Y127053D01*
X178388D01*
X178388Y127054D01*
X178390Y127054D01*
X178393Y127056D01*
X178397Y127058D01*
X178402Y127060D01*
X178406Y127063D01*
X178411Y127066D01*
X178416Y127069D01*
Y127102D01*
X178356D01*
Y127145D01*
X178468D01*
Y127042D01*
X178467Y127042D01*
X178466Y127041D01*
X178465Y127040D01*
X178463Y127038D01*
X178461Y127037D01*
X178456Y127033D01*
X178449Y127029D01*
X178441Y127024D01*
X178431Y127019D01*
X178420Y127015D01*
X178420D01*
X178419Y127015D01*
X178417Y127014D01*
X178415Y127013D01*
X178412Y127012D01*
X178409Y127011D01*
X178405Y127010D01*
X178401Y127009D01*
X178392Y127007D01*
X178381Y127005D01*
X178370Y127003D01*
X178358Y127003D01*
X178354D01*
X178352Y127003D01*
X178348D01*
X178344Y127004D01*
X178339Y127005D01*
X178334Y127005D01*
X178323Y127007D01*
X178312Y127010D01*
X178299Y127014D01*
X178294Y127017D01*
X178288Y127020D01*
X178288Y127020D01*
X178287Y127020D01*
X178285Y127022D01*
X178283Y127023D01*
X178281Y127025D01*
X178278Y127027D01*
X178275Y127029D01*
X178271Y127032D01*
X178264Y127039D01*
X178256Y127047D01*
X178249Y127057D01*
X178243Y127068D01*
Y127069D01*
X178242Y127070D01*
X178242Y127072D01*
X178241Y127074D01*
X178240Y127077D01*
X178238Y127080D01*
X178237Y127084D01*
X178236Y127089D01*
X178234Y127093D01*
X178233Y127099D01*
X178231Y127110D01*
X178229Y127123D01*
X178228Y127137D01*
Y127137D01*
Y127138D01*
Y127141D01*
X178229Y127143D01*
Y127147D01*
X178229Y127151D01*
X178230Y127156D01*
X178231Y127161D01*
X178232Y127171D01*
X178235Y127184D01*
X178239Y127196D01*
X178242Y127202D01*
X178245Y127208D01*
X178245Y127208D01*
X178246Y127209D01*
X178247Y127211D01*
X178248Y127213D01*
X178250Y127215D01*
X178252Y127218D01*
X178255Y127222D01*
X178257Y127225D01*
X178261Y127229D01*
X178264Y127233D01*
X178268Y127237D01*
X178273Y127241D01*
X178278Y127245D01*
X178282Y127249D01*
X178294Y127256D01*
X178294D01*
X178295Y127257D01*
X178296Y127257D01*
X178298Y127258D01*
X178301Y127259D01*
X178303Y127260D01*
X178307Y127261D01*
X178311Y127262D01*
X178315Y127264D01*
X178320Y127265D01*
X178325Y127266D01*
X178330Y127267D01*
X178342Y127268D01*
X178355Y127269D01*
X178360D01*
X178363Y127268D01*
D02*
G37*
G36*
X172987Y131458D02*
X172901Y131344D01*
X172987Y131261D01*
Y131022D01*
X172820Y131110D01*
Y131233D01*
X172778Y131273D01*
X172506D01*
Y131108D01*
X172339D01*
Y131620D01*
X172870D01*
X172987Y131458D01*
D02*
G37*
G36*
X172255Y131503D02*
Y131022D01*
X172087Y131110D01*
Y131250D01*
X171804D01*
Y131107D01*
X171636Y131108D01*
Y131503D01*
X171754Y131620D01*
X172137D01*
X172255Y131503D01*
D02*
G37*
G36*
X173908Y124079D02*
X173912D01*
X173917Y124079D01*
X173921D01*
X173931Y124078D01*
X173941Y124077D01*
X173950Y124075D01*
X173954Y124074D01*
X173958Y124073D01*
X173958D01*
X173959Y124072D01*
X173961Y124071D01*
X173964Y124069D01*
X173969Y124067D01*
X173974Y124063D01*
X173978Y124059D01*
X173983Y124054D01*
X173988Y124048D01*
Y124048D01*
X173988Y124047D01*
X173989Y124046D01*
X173989Y124045D01*
X173991Y124041D01*
X173993Y124036D01*
X173995Y124031D01*
X173997Y124024D01*
X173999Y124016D01*
X173999Y124008D01*
Y124008D01*
Y124007D01*
Y124005D01*
X173999Y124003D01*
Y124001D01*
X173998Y123998D01*
X173997Y123991D01*
X173995Y123984D01*
X173992Y123976D01*
X173988Y123968D01*
X173985Y123964D01*
X173982Y123960D01*
X173982Y123960D01*
X173981Y123960D01*
X173980Y123958D01*
X173979Y123957D01*
X173977Y123956D01*
X173975Y123954D01*
X173972Y123952D01*
X173969Y123950D01*
X173966Y123948D01*
X173962Y123946D01*
X173958Y123944D01*
X173954Y123942D01*
X173948Y123941D01*
X173943Y123939D01*
X173938Y123938D01*
X173931Y123937D01*
X173932D01*
X173932Y123936D01*
X173934Y123935D01*
X173937Y123933D01*
X173941Y123930D01*
X173945Y123927D01*
X173950Y123924D01*
X173955Y123920D01*
X173959Y123915D01*
X173959Y123915D01*
X173961Y123913D01*
X173963Y123910D01*
X173966Y123905D01*
X173971Y123900D01*
X173973Y123896D01*
X173976Y123893D01*
X173979Y123888D01*
X173982Y123884D01*
X173985Y123879D01*
X173988Y123874D01*
X174020Y123824D01*
X173958D01*
X173921Y123879D01*
X173920Y123880D01*
X173920Y123881D01*
X173919Y123882D01*
X173917Y123884D01*
X173916Y123886D01*
X173914Y123889D01*
X173910Y123895D01*
X173905Y123902D01*
X173901Y123908D01*
X173897Y123913D01*
X173895Y123915D01*
X173893Y123917D01*
X173893Y123917D01*
X173892Y123918D01*
X173891Y123920D01*
X173889Y123921D01*
X173886Y123923D01*
X173884Y123925D01*
X173881Y123926D01*
X173878Y123928D01*
X173877D01*
X173876Y123928D01*
X173874Y123929D01*
X173871Y123929D01*
X173868Y123930D01*
X173863Y123930D01*
X173858Y123931D01*
X173841D01*
Y123824D01*
X173790D01*
Y124080D01*
X173905D01*
X173908Y124079D01*
D02*
G37*
G36*
X180787Y126707D02*
X180790Y126707D01*
X180794Y126706D01*
X180799Y126706D01*
X180808Y126705D01*
X180817Y126702D01*
X180826Y126699D01*
X180830Y126697D01*
X180834Y126695D01*
X180834D01*
X180835Y126694D01*
X180837Y126693D01*
X180840Y126690D01*
X180844Y126686D01*
X180848Y126681D01*
X180853Y126675D01*
X180857Y126667D01*
X180860Y126659D01*
X180813Y126650D01*
Y126650D01*
X180813Y126652D01*
X180812Y126654D01*
X180811Y126656D01*
X180809Y126659D01*
X180807Y126662D01*
X180805Y126664D01*
X180802Y126666D01*
X180801Y126667D01*
X180800Y126668D01*
X180798Y126668D01*
X180796Y126669D01*
X180793Y126670D01*
X180789Y126672D01*
X180784Y126672D01*
X180778Y126672D01*
X180775D01*
X180771Y126672D01*
X180767Y126672D01*
X180763Y126671D01*
X180758Y126670D01*
X180754Y126669D01*
X180750Y126667D01*
X180750D01*
X180750Y126666D01*
X180748Y126664D01*
X180746Y126661D01*
X180745Y126659D01*
X180745Y126657D01*
Y126656D01*
Y126656D01*
X180746Y126654D01*
X180747Y126651D01*
X180748Y126649D01*
X180750Y126648D01*
X180750Y126648D01*
X180752Y126647D01*
X180752Y126646D01*
X180754Y126646D01*
X180756Y126645D01*
X180758Y126644D01*
X180761Y126643D01*
X180764Y126642D01*
X180767Y126641D01*
X180772Y126640D01*
X180777Y126639D01*
X180782Y126637D01*
X180789Y126636D01*
X180796Y126634D01*
X180796D01*
X180797Y126633D01*
X180799Y126633D01*
X180802Y126632D01*
X180805Y126631D01*
X180809Y126631D01*
X180817Y126628D01*
X180826Y126625D01*
X180835Y126621D01*
X180840Y126619D01*
X180844Y126617D01*
X180847Y126614D01*
X180850Y126612D01*
X180851Y126611D01*
X180853Y126610D01*
X180855Y126607D01*
X180858Y126603D01*
X180861Y126598D01*
X180863Y126591D01*
X180865Y126584D01*
X180866Y126576D01*
Y126575D01*
Y126575D01*
Y126573D01*
X180865Y126571D01*
X180865Y126569D01*
X180865Y126567D01*
X180863Y126561D01*
X180861Y126554D01*
X180859Y126550D01*
X180857Y126547D01*
X180854Y126543D01*
X180851Y126539D01*
X180848Y126535D01*
X180844Y126532D01*
X180844Y126531D01*
X180843Y126531D01*
X180842Y126530D01*
X180840Y126529D01*
X180838Y126528D01*
X180835Y126526D01*
X180832Y126524D01*
X180828Y126523D01*
X180824Y126521D01*
X180820Y126520D01*
X180814Y126518D01*
X180809Y126517D01*
X180803Y126515D01*
X180796Y126514D01*
X180789Y126514D01*
X180781Y126514D01*
X180778D01*
X180775Y126514D01*
X180772D01*
X180768Y126514D01*
X180764Y126515D01*
X180760Y126515D01*
X180750Y126517D01*
X180740Y126520D01*
X180730Y126524D01*
X180726Y126526D01*
X180721Y126529D01*
X180721Y126529D01*
X180720Y126530D01*
X180719Y126530D01*
X180718Y126532D01*
X180714Y126535D01*
X180709Y126540D01*
X180705Y126546D01*
X180700Y126553D01*
X180696Y126561D01*
X180693Y126571D01*
X180742Y126578D01*
Y126577D01*
X180743Y126576D01*
X180743Y126573D01*
X180744Y126570D01*
X180746Y126566D01*
X180749Y126563D01*
X180751Y126559D01*
X180754Y126556D01*
X180755Y126556D01*
X180756Y126555D01*
X180759Y126554D01*
X180762Y126553D01*
X180765Y126551D01*
X180770Y126550D01*
X180775Y126549D01*
X180781Y126549D01*
X180784D01*
X180788Y126549D01*
X180792Y126550D01*
X180797Y126551D01*
X180801Y126552D01*
X180806Y126554D01*
X180810Y126556D01*
X180810Y126556D01*
X180811Y126557D01*
X180812Y126558D01*
X180813Y126559D01*
X180814Y126561D01*
X180816Y126564D01*
X180816Y126566D01*
X180817Y126569D01*
Y126569D01*
Y126570D01*
X180816Y126572D01*
X180815Y126575D01*
X180813Y126578D01*
X180812Y126579D01*
X180811Y126579D01*
X180810Y126581D01*
X180807Y126581D01*
X180804Y126582D01*
X180801Y126584D01*
X180797Y126585D01*
X180796D01*
X180794Y126585D01*
X180791Y126586D01*
X180787Y126587D01*
X180782Y126588D01*
X180777Y126589D01*
X180771Y126591D01*
X180765Y126593D01*
X180752Y126596D01*
X180746Y126598D01*
X180740Y126601D01*
X180734Y126602D01*
X180729Y126605D01*
X180725Y126607D01*
X180721Y126609D01*
X180721Y126609D01*
X180720Y126609D01*
X180719Y126610D01*
X180718Y126612D01*
X180714Y126615D01*
X180710Y126620D01*
X180706Y126626D01*
X180703Y126633D01*
X180701Y126637D01*
X180700Y126641D01*
X180700Y126646D01*
X180699Y126650D01*
Y126651D01*
Y126652D01*
Y126653D01*
X180700Y126655D01*
X180700Y126656D01*
X180700Y126659D01*
X180702Y126665D01*
X180704Y126671D01*
X180707Y126678D01*
X180709Y126681D01*
X180712Y126685D01*
X180715Y126688D01*
X180718Y126691D01*
X180719Y126691D01*
X180719Y126692D01*
X180720Y126692D01*
X180722Y126693D01*
X180724Y126695D01*
X180726Y126696D01*
X180729Y126697D01*
X180733Y126699D01*
X180737Y126701D01*
X180741Y126702D01*
X180746Y126704D01*
X180751Y126705D01*
X180757Y126706D01*
X180763Y126707D01*
X180770Y126707D01*
X180784D01*
X180787Y126707D01*
D02*
G37*
G36*
X180787Y129328D02*
X180791Y129328D01*
X180795Y129327D01*
X180799Y129327D01*
X180808Y129325D01*
X180818Y129323D01*
X180827Y129320D01*
X180831Y129318D01*
X180834Y129316D01*
X180835D01*
X180835Y129315D01*
X180837Y129313D01*
X180841Y129311D01*
X180844Y129306D01*
X180849Y129302D01*
X180853Y129295D01*
X180857Y129288D01*
X180860Y129279D01*
X180814Y129271D01*
Y129271D01*
X180813Y129273D01*
X180812Y129275D01*
X180811Y129277D01*
X180810Y129280D01*
X180807Y129282D01*
X180805Y129285D01*
X180802Y129287D01*
X180802Y129288D01*
X180801Y129288D01*
X180799Y129289D01*
X180796Y129290D01*
X180793Y129291D01*
X180789Y129292D01*
X180784Y129293D01*
X180779Y129293D01*
X180775D01*
X180772Y129293D01*
X180768Y129292D01*
X180763Y129292D01*
X180759Y129291D01*
X180754Y129289D01*
X180751Y129288D01*
X180750D01*
X180750Y129287D01*
X180748Y129285D01*
X180746Y129282D01*
X180746Y129280D01*
X180745Y129278D01*
Y129277D01*
Y129277D01*
X180746Y129275D01*
X180747Y129272D01*
X180749Y129270D01*
X180750Y129269D01*
X180750Y129268D01*
X180752Y129268D01*
X180753Y129267D01*
X180754Y129267D01*
X180756Y129266D01*
X180758Y129265D01*
X180761Y129264D01*
X180764Y129263D01*
X180768Y129262D01*
X180772Y129261D01*
X180777Y129259D01*
X180783Y129258D01*
X180789Y129257D01*
X180796Y129255D01*
X180796D01*
X180798Y129254D01*
X180800Y129254D01*
X180802Y129253D01*
X180806Y129252D01*
X180809Y129251D01*
X180817Y129249D01*
X180827Y129245D01*
X180835Y129242D01*
X180840Y129239D01*
X180844Y129238D01*
X180847Y129235D01*
X180851Y129233D01*
X180851Y129232D01*
X180853Y129231D01*
X180855Y129228D01*
X180858Y129224D01*
X180861Y129218D01*
X180864Y129212D01*
X180865Y129205D01*
X180866Y129197D01*
Y129196D01*
Y129195D01*
Y129194D01*
X180866Y129192D01*
X180865Y129190D01*
X180865Y129188D01*
X180864Y129181D01*
X180861Y129175D01*
X180859Y129171D01*
X180857Y129167D01*
X180855Y129164D01*
X180852Y129160D01*
X180848Y129156D01*
X180845Y129153D01*
X180844Y129152D01*
X180844Y129152D01*
X180843Y129151D01*
X180841Y129150D01*
X180838Y129148D01*
X180836Y129147D01*
X180833Y129145D01*
X180829Y129144D01*
X180825Y129142D01*
X180820Y129140D01*
X180815Y129138D01*
X180809Y129137D01*
X180803Y129136D01*
X180796Y129135D01*
X180789Y129135D01*
X180782Y129134D01*
X180778D01*
X180776Y129135D01*
X180772D01*
X180769Y129135D01*
X180764Y129136D01*
X180760Y129136D01*
X180750Y129138D01*
X180740Y129141D01*
X180730Y129144D01*
X180726Y129147D01*
X180722Y129150D01*
X180721Y129150D01*
X180720Y129150D01*
X180719Y129151D01*
X180718Y129153D01*
X180714Y129156D01*
X180710Y129161D01*
X180705Y129167D01*
X180700Y129174D01*
X180696Y129182D01*
X180693Y129191D01*
X180742Y129199D01*
Y129198D01*
X180743Y129197D01*
X180744Y129194D01*
X180745Y129191D01*
X180747Y129187D01*
X180749Y129184D01*
X180752Y129180D01*
X180755Y129177D01*
X180755Y129177D01*
X180757Y129176D01*
X180759Y129175D01*
X180762Y129174D01*
X180766Y129172D01*
X180770Y129171D01*
X180776Y129170D01*
X180782Y129170D01*
X180785D01*
X180789Y129170D01*
X180793Y129171D01*
X180797Y129171D01*
X180802Y129173D01*
X180806Y129174D01*
X180810Y129177D01*
X180811Y129177D01*
X180811Y129178D01*
X180813Y129179D01*
X180814Y129180D01*
X180815Y129182D01*
X180816Y129184D01*
X180817Y129187D01*
X180817Y129190D01*
Y129190D01*
Y129191D01*
X180817Y129193D01*
X180816Y129196D01*
X180813Y129199D01*
X180813Y129200D01*
X180811Y129200D01*
X180810Y129201D01*
X180808Y129202D01*
X180805Y129203D01*
X180801Y129204D01*
X180797Y129205D01*
X180796D01*
X180794Y129206D01*
X180791Y129207D01*
X180787Y129208D01*
X180783Y129209D01*
X180777Y129210D01*
X180771Y129212D01*
X180765Y129214D01*
X180752Y129217D01*
X180746Y129219D01*
X180740Y129221D01*
X180734Y129223D01*
X180729Y129225D01*
X180725Y129228D01*
X180722Y129229D01*
X180721Y129230D01*
X180720Y129230D01*
X180720Y129231D01*
X180718Y129232D01*
X180715Y129236D01*
X180711Y129241D01*
X180707Y129247D01*
X180703Y129254D01*
X180702Y129258D01*
X180701Y129262D01*
X180700Y129267D01*
X180700Y129271D01*
Y129272D01*
Y129272D01*
Y129274D01*
X180700Y129275D01*
X180700Y129277D01*
X180701Y129280D01*
X180702Y129285D01*
X180704Y129292D01*
X180708Y129298D01*
X180710Y129302D01*
X180712Y129305D01*
X180715Y129309D01*
X180719Y129312D01*
X180719Y129312D01*
X180719Y129312D01*
X180720Y129313D01*
X180722Y129314D01*
X180724Y129315D01*
X180727Y129317D01*
X180730Y129318D01*
X180733Y129320D01*
X180737Y129322D01*
X180742Y129323D01*
X180746Y129325D01*
X180752Y129326D01*
X180757Y129327D01*
X180764Y129328D01*
X180770Y129328D01*
X180784D01*
X180787Y129328D01*
D02*
G37*
G36*
X173094Y124079D02*
X173098D01*
X173102Y124079D01*
X173107D01*
X173116Y124078D01*
X173126Y124077D01*
X173135Y124075D01*
X173140Y124074D01*
X173143Y124073D01*
X173144D01*
X173144Y124072D01*
X173146Y124071D01*
X173150Y124069D01*
X173154Y124067D01*
X173159Y124063D01*
X173164Y124059D01*
X173168Y124054D01*
X173173Y124048D01*
Y124048D01*
X173173Y124047D01*
X173174Y124046D01*
X173175Y124045D01*
X173177Y124041D01*
X173179Y124036D01*
X173181Y124031D01*
X173182Y124024D01*
X173184Y124016D01*
X173184Y124008D01*
Y124008D01*
Y124007D01*
Y124005D01*
X173184Y124003D01*
Y124001D01*
X173184Y123998D01*
X173182Y123991D01*
X173180Y123984D01*
X173177Y123976D01*
X173173Y123968D01*
X173170Y123964D01*
X173167Y123960D01*
X173167Y123960D01*
X173167Y123960D01*
X173165Y123958D01*
X173164Y123957D01*
X173162Y123956D01*
X173160Y123954D01*
X173158Y123952D01*
X173155Y123950D01*
X173151Y123948D01*
X173147Y123946D01*
X173143Y123944D01*
X173139Y123942D01*
X173134Y123941D01*
X173128Y123939D01*
X173123Y123938D01*
X173117Y123937D01*
X173117D01*
X173117Y123936D01*
X173120Y123935D01*
X173123Y123933D01*
X173126Y123930D01*
X173131Y123927D01*
X173135Y123924D01*
X173140Y123920D01*
X173144Y123915D01*
X173144Y123915D01*
X173146Y123913D01*
X173148Y123910D01*
X173152Y123905D01*
X173156Y123900D01*
X173158Y123896D01*
X173161Y123893D01*
X173164Y123888D01*
X173167Y123884D01*
X173170Y123879D01*
X173174Y123874D01*
X173205Y123824D01*
X173143D01*
X173106Y123879D01*
X173105Y123880D01*
X173105Y123881D01*
X173104Y123882D01*
X173103Y123884D01*
X173101Y123886D01*
X173099Y123889D01*
X173095Y123895D01*
X173090Y123902D01*
X173086Y123908D01*
X173082Y123913D01*
X173080Y123915D01*
X173078Y123917D01*
X173078Y123917D01*
X173077Y123918D01*
X173076Y123920D01*
X173074Y123921D01*
X173071Y123923D01*
X173069Y123925D01*
X173066Y123926D01*
X173063Y123928D01*
X173063D01*
X173061Y123928D01*
X173060Y123929D01*
X173057Y123929D01*
X173053Y123930D01*
X173048Y123930D01*
X173043Y123931D01*
X173027D01*
Y123824D01*
X172975D01*
Y124080D01*
X173090D01*
X173094Y124079D01*
D02*
G37*
G36*
X181327Y126773D02*
X181335Y126773D01*
X181342Y126773D01*
X181349Y126772D01*
X181355Y126771D01*
X181356D01*
X181358Y126771D01*
X181361Y126770D01*
X181364Y126769D01*
X181368Y126767D01*
X181373Y126766D01*
X181378Y126763D01*
X181382Y126760D01*
X181382Y126760D01*
X181384Y126759D01*
X181386Y126757D01*
X181389Y126755D01*
X181392Y126752D01*
X181395Y126748D01*
X181399Y126744D01*
X181402Y126739D01*
X181402Y126738D01*
X181403Y126737D01*
X181404Y126734D01*
X181406Y126730D01*
X181407Y126726D01*
X181409Y126721D01*
X181409Y126715D01*
X181410Y126709D01*
Y126709D01*
Y126708D01*
Y126706D01*
X181409Y126703D01*
X181409Y126698D01*
X181407Y126693D01*
X181406Y126687D01*
X181403Y126682D01*
X181400Y126676D01*
X181399Y126675D01*
X181398Y126673D01*
X181396Y126671D01*
X181393Y126668D01*
X181389Y126664D01*
X181385Y126660D01*
X181380Y126657D01*
X181374Y126653D01*
X181374D01*
X181375Y126653D01*
X181376Y126653D01*
X181378Y126652D01*
X181382Y126650D01*
X181387Y126648D01*
X181393Y126645D01*
X181399Y126641D01*
X181405Y126636D01*
X181410Y126630D01*
X181410Y126629D01*
X181412Y126627D01*
X181414Y126624D01*
X181416Y126619D01*
X181418Y126614D01*
X181420Y126607D01*
X181422Y126600D01*
X181422Y126592D01*
Y126591D01*
Y126591D01*
Y126589D01*
X181422Y126585D01*
X181421Y126581D01*
X181420Y126576D01*
X181419Y126570D01*
X181417Y126564D01*
X181414Y126558D01*
X181414Y126557D01*
X181413Y126555D01*
X181411Y126552D01*
X181408Y126548D01*
X181405Y126544D01*
X181401Y126540D01*
X181397Y126535D01*
X181392Y126531D01*
X181391Y126531D01*
X181389Y126530D01*
X181386Y126528D01*
X181382Y126526D01*
X181377Y126524D01*
X181371Y126522D01*
X181365Y126520D01*
X181357Y126519D01*
X181356D01*
X181354Y126519D01*
X181351D01*
X181348Y126518D01*
X181341D01*
X181336Y126518D01*
X181325D01*
X181319Y126518D01*
X181208D01*
Y126774D01*
X181321D01*
X181327Y126773D01*
D02*
G37*
G36*
X175088Y124084D02*
X175092Y124084D01*
X175096Y124083D01*
X175102Y124083D01*
X175107Y124082D01*
X175119Y124080D01*
X175131Y124076D01*
X175138Y124074D01*
X175143Y124071D01*
X175149Y124068D01*
X175154Y124065D01*
X175155Y124064D01*
X175155Y124064D01*
X175157Y124062D01*
X175159Y124061D01*
X175161Y124059D01*
X175163Y124056D01*
X175166Y124053D01*
X175169Y124050D01*
X175172Y124046D01*
X175175Y124042D01*
X175177Y124038D01*
X175180Y124033D01*
X175183Y124028D01*
X175185Y124022D01*
X175187Y124016D01*
X175189Y124009D01*
X175138Y124000D01*
Y124000D01*
X175137Y124001D01*
X175136Y124003D01*
X175135Y124006D01*
X175133Y124011D01*
X175130Y124015D01*
X175126Y124020D01*
X175122Y124025D01*
X175117Y124029D01*
X175116Y124030D01*
X175114Y124031D01*
X175111Y124033D01*
X175107Y124035D01*
X175101Y124037D01*
X175095Y124039D01*
X175088Y124040D01*
X175080Y124041D01*
X175076D01*
X175074Y124040D01*
X175071Y124040D01*
X175068Y124039D01*
X175064Y124039D01*
X175060Y124038D01*
X175052Y124035D01*
X175047Y124033D01*
X175043Y124031D01*
X175038Y124029D01*
X175034Y124026D01*
X175030Y124022D01*
X175026Y124019D01*
X175025Y124018D01*
X175025Y124018D01*
X175024Y124016D01*
X175023Y124015D01*
X175021Y124012D01*
X175019Y124010D01*
X175018Y124006D01*
X175016Y124003D01*
X175014Y123998D01*
X175012Y123994D01*
X175011Y123988D01*
X175009Y123983D01*
X175008Y123977D01*
X175007Y123969D01*
X175007Y123962D01*
X175006Y123955D01*
Y123954D01*
Y123953D01*
Y123950D01*
X175007Y123947D01*
X175007Y123943D01*
X175007Y123939D01*
X175008Y123934D01*
X175009Y123929D01*
X175011Y123918D01*
X175015Y123906D01*
X175017Y123901D01*
X175019Y123895D01*
X175023Y123890D01*
X175026Y123886D01*
X175027Y123885D01*
X175027Y123885D01*
X175028Y123884D01*
X175030Y123882D01*
X175032Y123881D01*
X175034Y123878D01*
X175037Y123877D01*
X175041Y123874D01*
X175044Y123872D01*
X175048Y123870D01*
X175057Y123867D01*
X175062Y123865D01*
X175068Y123864D01*
X175074Y123863D01*
X175079Y123863D01*
X175082D01*
X175085Y123863D01*
X175090Y123864D01*
X175095Y123864D01*
X175100Y123866D01*
X175106Y123867D01*
X175112Y123869D01*
X175112D01*
X175113Y123870D01*
X175115Y123870D01*
X175118Y123872D01*
X175122Y123874D01*
X175126Y123876D01*
X175131Y123878D01*
X175136Y123881D01*
X175140Y123885D01*
Y123918D01*
X175081D01*
Y123961D01*
X175192D01*
Y123858D01*
X175192Y123857D01*
X175190Y123857D01*
X175189Y123856D01*
X175187Y123854D01*
X175186Y123853D01*
X175180Y123849D01*
X175173Y123845D01*
X175165Y123840D01*
X175156Y123835D01*
X175145Y123831D01*
X175145D01*
X175143Y123830D01*
X175142Y123830D01*
X175140Y123829D01*
X175137Y123828D01*
X175133Y123827D01*
X175130Y123826D01*
X175126Y123825D01*
X175116Y123823D01*
X175106Y123821D01*
X175095Y123819D01*
X175083Y123819D01*
X175079D01*
X175076Y123819D01*
X175072D01*
X175068Y123820D01*
X175064Y123820D01*
X175059Y123821D01*
X175048Y123823D01*
X175036Y123826D01*
X175024Y123830D01*
X175018Y123833D01*
X175012Y123836D01*
X175012Y123836D01*
X175011Y123836D01*
X175009Y123837D01*
X175008Y123839D01*
X175005Y123840D01*
X175002Y123843D01*
X174999Y123845D01*
X174996Y123848D01*
X174988Y123855D01*
X174981Y123863D01*
X174974Y123873D01*
X174968Y123884D01*
Y123884D01*
X174967Y123885D01*
X174966Y123887D01*
X174965Y123890D01*
X174964Y123893D01*
X174963Y123896D01*
X174962Y123900D01*
X174960Y123904D01*
X174959Y123909D01*
X174958Y123915D01*
X174955Y123926D01*
X174954Y123939D01*
X174953Y123952D01*
Y123953D01*
Y123954D01*
Y123957D01*
X174953Y123959D01*
Y123963D01*
X174954Y123967D01*
X174954Y123971D01*
X174955Y123977D01*
X174957Y123987D01*
X174960Y123999D01*
X174964Y124012D01*
X174967Y124018D01*
X174970Y124024D01*
X174970Y124024D01*
X174970Y124025D01*
X174971Y124026D01*
X174972Y124029D01*
X174974Y124031D01*
X174977Y124034D01*
X174979Y124038D01*
X174982Y124041D01*
X174985Y124045D01*
X174989Y124049D01*
X174993Y124053D01*
X174997Y124057D01*
X175002Y124061D01*
X175007Y124065D01*
X175018Y124072D01*
X175019D01*
X175019Y124072D01*
X175021Y124073D01*
X175023Y124074D01*
X175025Y124075D01*
X175028Y124076D01*
X175032Y124077D01*
X175035Y124078D01*
X175039Y124079D01*
X175044Y124080D01*
X175049Y124082D01*
X175055Y124083D01*
X175066Y124084D01*
X175080Y124085D01*
X175084D01*
X175088Y124084D01*
D02*
G37*
G36*
X173637D02*
X173641Y124084D01*
X173646Y124083D01*
X173651Y124083D01*
X173656Y124082D01*
X173668Y124080D01*
X173680Y124076D01*
X173687Y124074D01*
X173693Y124071D01*
X173698Y124068D01*
X173703Y124065D01*
X173704Y124064D01*
X173705Y124064D01*
X173706Y124062D01*
X173708Y124061D01*
X173710Y124059D01*
X173712Y124056D01*
X173715Y124053D01*
X173718Y124050D01*
X173721Y124046D01*
X173724Y124042D01*
X173727Y124038D01*
X173729Y124033D01*
X173732Y124028D01*
X173734Y124022D01*
X173737Y124016D01*
X173738Y124009D01*
X173687Y124000D01*
Y124000D01*
X173686Y124001D01*
X173686Y124003D01*
X173684Y124006D01*
X173682Y124011D01*
X173679Y124015D01*
X173676Y124020D01*
X173671Y124025D01*
X173666Y124029D01*
X173665Y124030D01*
X173663Y124031D01*
X173660Y124033D01*
X173656Y124035D01*
X173650Y124037D01*
X173644Y124039D01*
X173637Y124040D01*
X173629Y124041D01*
X173626D01*
X173623Y124040D01*
X173621Y124040D01*
X173617Y124039D01*
X173613Y124039D01*
X173609Y124038D01*
X173601Y124035D01*
X173596Y124033D01*
X173592Y124031D01*
X173588Y124029D01*
X173583Y124026D01*
X173579Y124022D01*
X173575Y124019D01*
X173575Y124018D01*
X173574Y124018D01*
X173573Y124016D01*
X173572Y124015D01*
X173571Y124012D01*
X173569Y124010D01*
X173567Y124006D01*
X173565Y124003D01*
X173564Y123998D01*
X173562Y123994D01*
X173560Y123988D01*
X173558Y123983D01*
X173557Y123977D01*
X173556Y123969D01*
X173556Y123962D01*
X173555Y123955D01*
Y123954D01*
Y123953D01*
Y123950D01*
X173556Y123947D01*
X173556Y123943D01*
X173557Y123939D01*
X173557Y123934D01*
X173558Y123929D01*
X173560Y123918D01*
X173564Y123906D01*
X173566Y123901D01*
X173569Y123895D01*
X173572Y123890D01*
X173575Y123886D01*
X173576Y123885D01*
X173576Y123885D01*
X173578Y123884D01*
X173579Y123882D01*
X173581Y123881D01*
X173584Y123878D01*
X173586Y123877D01*
X173590Y123874D01*
X173594Y123872D01*
X173597Y123870D01*
X173606Y123867D01*
X173612Y123865D01*
X173617Y123864D01*
X173623Y123863D01*
X173629Y123863D01*
X173632D01*
X173635Y123863D01*
X173639Y123864D01*
X173644Y123864D01*
X173649Y123866D01*
X173655Y123867D01*
X173661Y123869D01*
X173662D01*
X173662Y123870D01*
X173664Y123870D01*
X173667Y123872D01*
X173671Y123874D01*
X173675Y123876D01*
X173680Y123878D01*
X173685Y123881D01*
X173689Y123885D01*
Y123918D01*
X173630D01*
Y123961D01*
X173742D01*
Y123858D01*
X173741Y123857D01*
X173740Y123857D01*
X173739Y123856D01*
X173737Y123854D01*
X173735Y123853D01*
X173730Y123849D01*
X173723Y123845D01*
X173715Y123840D01*
X173705Y123835D01*
X173694Y123831D01*
X173694D01*
X173693Y123830D01*
X173691Y123830D01*
X173689Y123829D01*
X173686Y123828D01*
X173683Y123827D01*
X173679Y123826D01*
X173675Y123825D01*
X173666Y123823D01*
X173655Y123821D01*
X173644Y123819D01*
X173632Y123819D01*
X173628D01*
X173625Y123819D01*
X173622D01*
X173618Y123820D01*
X173613Y123820D01*
X173608Y123821D01*
X173597Y123823D01*
X173585Y123826D01*
X173573Y123830D01*
X173568Y123833D01*
X173562Y123836D01*
X173561Y123836D01*
X173561Y123836D01*
X173559Y123837D01*
X173557Y123839D01*
X173554Y123840D01*
X173552Y123843D01*
X173548Y123845D01*
X173545Y123848D01*
X173538Y123855D01*
X173530Y123863D01*
X173523Y123873D01*
X173517Y123884D01*
Y123884D01*
X173516Y123885D01*
X173515Y123887D01*
X173515Y123890D01*
X173514Y123893D01*
X173512Y123896D01*
X173511Y123900D01*
X173510Y123904D01*
X173508Y123909D01*
X173507Y123915D01*
X173504Y123926D01*
X173503Y123939D01*
X173502Y123952D01*
Y123953D01*
Y123954D01*
Y123957D01*
X173502Y123959D01*
Y123963D01*
X173503Y123967D01*
X173504Y123971D01*
X173504Y123977D01*
X173506Y123987D01*
X173509Y123999D01*
X173513Y124012D01*
X173516Y124018D01*
X173519Y124024D01*
X173519Y124024D01*
X173520Y124025D01*
X173521Y124026D01*
X173522Y124029D01*
X173524Y124031D01*
X173526Y124034D01*
X173528Y124038D01*
X173531Y124041D01*
X173534Y124045D01*
X173538Y124049D01*
X173542Y124053D01*
X173547Y124057D01*
X173551Y124061D01*
X173556Y124065D01*
X173568Y124072D01*
X173568D01*
X173569Y124072D01*
X173570Y124073D01*
X173572Y124074D01*
X173575Y124075D01*
X173577Y124076D01*
X173581Y124077D01*
X173585Y124078D01*
X173589Y124079D01*
X173594Y124080D01*
X173599Y124082D01*
X173604Y124083D01*
X173616Y124084D01*
X173629Y124085D01*
X173633D01*
X173637Y124084D01*
D02*
G37*
G36*
X174278Y123824D02*
X174223D01*
X174200Y123882D01*
X174097D01*
X174076Y123824D01*
X174022D01*
X174121Y124080D01*
X174176D01*
X174278Y123824D01*
D02*
G37*
G36*
X180341Y129300D02*
X180342Y129300D01*
X180342Y129301D01*
X180344Y129302D01*
X180345Y129304D01*
X180348Y129306D01*
X180350Y129309D01*
X180354Y129311D01*
X180357Y129314D01*
X180361Y129317D01*
X180366Y129319D01*
X180375Y129324D01*
X180380Y129326D01*
X180386Y129327D01*
X180392Y129328D01*
X180398Y129328D01*
X180401D01*
X180404Y129328D01*
X180408Y129328D01*
X180413Y129327D01*
X180418Y129325D01*
X180423Y129324D01*
X180429Y129322D01*
X180429Y129321D01*
X180431Y129321D01*
X180433Y129319D01*
X180436Y129317D01*
X180440Y129315D01*
X180443Y129312D01*
X180446Y129309D01*
X180449Y129306D01*
X180450Y129305D01*
X180450Y129304D01*
X180451Y129302D01*
X180453Y129299D01*
X180455Y129296D01*
X180456Y129292D01*
X180458Y129288D01*
X180459Y129284D01*
Y129284D01*
X180459Y129282D01*
X180460Y129279D01*
X180460Y129275D01*
X180461Y129270D01*
X180461Y129264D01*
X180461Y129256D01*
Y129247D01*
Y129138D01*
X180412D01*
Y129236D01*
Y129237D01*
Y129237D01*
Y129239D01*
Y129241D01*
Y129243D01*
Y129246D01*
X180412Y129252D01*
X180411Y129258D01*
X180411Y129264D01*
X180410Y129269D01*
X180410Y129271D01*
X180409Y129273D01*
Y129274D01*
X180409Y129275D01*
X180408Y129276D01*
X180407Y129278D01*
X180404Y129282D01*
X180402Y129284D01*
X180399Y129286D01*
X180399Y129286D01*
X180398Y129286D01*
X180396Y129287D01*
X180394Y129288D01*
X180392Y129289D01*
X180389Y129290D01*
X180385Y129290D01*
X180382Y129291D01*
X180379D01*
X180377Y129290D01*
X180374Y129290D01*
X180371Y129289D01*
X180367Y129288D01*
X180363Y129286D01*
X180360Y129284D01*
X180359Y129284D01*
X180358Y129283D01*
X180356Y129282D01*
X180354Y129280D01*
X180352Y129277D01*
X180350Y129274D01*
X180347Y129271D01*
X180346Y129267D01*
Y129266D01*
X180345Y129264D01*
X180344Y129262D01*
X180343Y129258D01*
X180343Y129253D01*
X180342Y129247D01*
X180342Y129239D01*
X180341Y129231D01*
Y129138D01*
X180292D01*
Y129395D01*
X180341D01*
Y129300D01*
D02*
G37*
G36*
X180592Y129328D02*
X180595D01*
X180602Y129327D01*
X180610Y129326D01*
X180618Y129325D01*
X180626Y129323D01*
X180629Y129322D01*
X180632Y129320D01*
X180633D01*
X180633Y129320D01*
X180635Y129319D01*
X180638Y129317D01*
X180641Y129315D01*
X180645Y129312D01*
X180649Y129309D01*
X180652Y129305D01*
X180655Y129301D01*
X180656Y129300D01*
X180656Y129298D01*
X180658Y129295D01*
X180658Y129293D01*
X180659Y129291D01*
X180659Y129288D01*
X180660Y129285D01*
X180660Y129281D01*
X180661Y129277D01*
X180661Y129272D01*
X180662Y129268D01*
X180662Y129262D01*
Y129257D01*
X180661Y129199D01*
Y129199D01*
Y129198D01*
Y129197D01*
Y129195D01*
Y129191D01*
X180662Y129185D01*
Y129180D01*
X180662Y129174D01*
X180663Y129168D01*
X180663Y129163D01*
Y129163D01*
X180664Y129161D01*
X180665Y129158D01*
X180665Y129156D01*
X180667Y129152D01*
X180668Y129148D01*
X180670Y129143D01*
X180672Y129138D01*
X180624D01*
Y129139D01*
X180623Y129139D01*
X180623Y129141D01*
X180622Y129142D01*
X180622Y129144D01*
X180621Y129147D01*
X180620Y129150D01*
X180619Y129153D01*
Y129153D01*
X180619Y129154D01*
X180618Y129155D01*
X180618Y129157D01*
X180617Y129158D01*
X180616Y129158D01*
X180615Y129157D01*
X180612Y129154D01*
X180609Y129152D01*
X180605Y129149D01*
X180601Y129146D01*
X180595Y129143D01*
X180590Y129140D01*
X180589Y129140D01*
X180588Y129140D01*
X180585Y129138D01*
X180581Y129137D01*
X180576Y129136D01*
X180571Y129136D01*
X180565Y129135D01*
X180559Y129134D01*
X180557D01*
X180555Y129135D01*
X180552D01*
X180549Y129135D01*
X180543Y129136D01*
X180536Y129138D01*
X180528Y129141D01*
X180521Y129144D01*
X180514Y129150D01*
Y129150D01*
X180514Y129150D01*
X180512Y129153D01*
X180509Y129156D01*
X180506Y129160D01*
X180503Y129166D01*
X180501Y129173D01*
X180499Y129180D01*
X180498Y129184D01*
X180498Y129189D01*
Y129190D01*
Y129191D01*
X180498Y129194D01*
X180499Y129198D01*
X180500Y129202D01*
X180501Y129207D01*
X180503Y129212D01*
X180505Y129217D01*
X180506Y129217D01*
X180507Y129219D01*
X180508Y129221D01*
X180511Y129224D01*
X180514Y129227D01*
X180517Y129230D01*
X180521Y129233D01*
X180526Y129235D01*
X180527Y129236D01*
X180529Y129237D01*
X180532Y129238D01*
X180536Y129239D01*
X180542Y129241D01*
X180548Y129243D01*
X180557Y129245D01*
X180565Y129247D01*
X180566D01*
X180567Y129247D01*
X180569Y129248D01*
X180571Y129248D01*
X180574Y129248D01*
X180577Y129249D01*
X180585Y129251D01*
X180592Y129253D01*
X180601Y129255D01*
X180608Y129257D01*
X180611Y129258D01*
X180613Y129259D01*
Y129264D01*
Y129265D01*
Y129266D01*
X180613Y129269D01*
X180613Y129272D01*
X180612Y129275D01*
X180611Y129279D01*
X180609Y129282D01*
X180606Y129284D01*
X180606Y129285D01*
X180605Y129285D01*
X180603Y129286D01*
X180600Y129288D01*
X180596Y129289D01*
X180592Y129289D01*
X180586Y129290D01*
X180580Y129291D01*
X180578D01*
X180575Y129290D01*
X180572Y129290D01*
X180569Y129289D01*
X180565Y129288D01*
X180562Y129287D01*
X180559Y129285D01*
X180559Y129285D01*
X180558Y129284D01*
X180557Y129283D01*
X180555Y129281D01*
X180553Y129278D01*
X180551Y129275D01*
X180549Y129271D01*
X180547Y129267D01*
X180503Y129275D01*
Y129275D01*
X180504Y129276D01*
X180504Y129278D01*
X180505Y129279D01*
X180505Y129282D01*
X180507Y129284D01*
X180509Y129290D01*
X180513Y129296D01*
X180517Y129303D01*
X180522Y129309D01*
X180529Y129315D01*
X180529D01*
X180530Y129316D01*
X180531Y129316D01*
X180532Y129317D01*
X180534Y129318D01*
X180537Y129319D01*
X180539Y129321D01*
X180542Y129322D01*
X180546Y129323D01*
X180550Y129324D01*
X180555Y129325D01*
X180560Y129326D01*
X180565Y129327D01*
X180571Y129328D01*
X180577Y129328D01*
X180589D01*
X180592Y129328D01*
D02*
G37*
G36*
X174552Y123824D02*
X174504D01*
X174504Y124025D01*
X174453Y123824D01*
X174403D01*
X174353Y124025D01*
Y123824D01*
X174305D01*
Y124080D01*
X174383D01*
X174429Y123905D01*
X174474Y124080D01*
X174552D01*
Y123824D01*
D02*
G37*
G36*
X180153Y129394D02*
X180162D01*
X180173Y129393D01*
X180183Y129393D01*
X180188Y129392D01*
X180192Y129392D01*
X180196Y129391D01*
X180199Y129390D01*
X180199D01*
X180200Y129390D01*
X180201Y129390D01*
X180202Y129389D01*
X180207Y129387D01*
X180212Y129385D01*
X180217Y129382D01*
X180224Y129377D01*
X180229Y129372D01*
X180235Y129365D01*
Y129365D01*
X180236Y129365D01*
X180237Y129363D01*
X180238Y129362D01*
X180239Y129360D01*
X180240Y129358D01*
X180242Y129355D01*
X180243Y129352D01*
X180246Y129345D01*
X180248Y129336D01*
X180250Y129326D01*
X180251Y129316D01*
Y129315D01*
Y129315D01*
Y129313D01*
Y129312D01*
X180250Y129310D01*
Y129307D01*
X180249Y129302D01*
X180248Y129296D01*
X180247Y129289D01*
X180245Y129282D01*
X180242Y129276D01*
X180241Y129275D01*
X180240Y129273D01*
X180238Y129270D01*
X180236Y129267D01*
X180233Y129263D01*
X180229Y129258D01*
X180225Y129254D01*
X180220Y129251D01*
X180219Y129250D01*
X180218Y129249D01*
X180215Y129248D01*
X180212Y129246D01*
X180208Y129244D01*
X180203Y129242D01*
X180198Y129240D01*
X180193Y129238D01*
X180192D01*
X180191Y129238D01*
X180190D01*
X180188Y129238D01*
X180185Y129237D01*
X180183Y129237D01*
X180179D01*
X180176Y129237D01*
X180172Y129236D01*
X180168Y129236D01*
X180163Y129235D01*
X180158D01*
X180152Y129235D01*
X180106D01*
Y129138D01*
X180054D01*
Y129395D01*
X180149D01*
X180153Y129394D01*
D02*
G37*
G36*
X174654Y123824D02*
X174603D01*
Y124080D01*
X174654D01*
Y123824D01*
D02*
G37*
G36*
X174907D02*
X174856D01*
X174752Y123992D01*
Y123824D01*
X174704D01*
Y124080D01*
X174754D01*
X174860Y123907D01*
Y124080D01*
X174907D01*
Y123824D01*
D02*
G37*
G36*
X180987Y129328D02*
X180990Y129328D01*
X180994Y129327D01*
X180999Y129326D01*
X181003Y129325D01*
X181009Y129323D01*
X181014Y129322D01*
X181019Y129319D01*
X181025Y129316D01*
X181030Y129313D01*
X181035Y129310D01*
X181040Y129305D01*
X181045Y129301D01*
X181045Y129300D01*
X181046Y129299D01*
X181047Y129298D01*
X181049Y129295D01*
X181050Y129292D01*
X181052Y129289D01*
X181055Y129285D01*
X181057Y129280D01*
X181059Y129274D01*
X181061Y129268D01*
X181063Y129261D01*
X181065Y129254D01*
X181066Y129245D01*
X181067Y129237D01*
X181068Y129227D01*
Y129217D01*
X180945D01*
Y129217D01*
Y129216D01*
Y129215D01*
X180946Y129213D01*
X180946Y129210D01*
X180947Y129204D01*
X180948Y129199D01*
X180951Y129193D01*
X180953Y129188D01*
X180957Y129183D01*
X180957Y129183D01*
X180959Y129181D01*
X180961Y129179D01*
X180965Y129177D01*
X180969Y129175D01*
X180974Y129173D01*
X180979Y129171D01*
X180985Y129171D01*
X180987D01*
X180989Y129171D01*
X180992Y129172D01*
X180995Y129173D01*
X180998Y129174D01*
X181002Y129175D01*
X181005Y129177D01*
X181005Y129178D01*
X181006Y129178D01*
X181008Y129180D01*
X181009Y129182D01*
X181011Y129185D01*
X181013Y129188D01*
X181015Y129193D01*
X181017Y129198D01*
X181066Y129190D01*
Y129189D01*
X181065Y129188D01*
X181065Y129187D01*
X181064Y129185D01*
X181063Y129183D01*
X181062Y129180D01*
X181058Y129174D01*
X181054Y129168D01*
X181049Y129161D01*
X181043Y129154D01*
X181036Y129148D01*
X181035D01*
X181035Y129148D01*
X181033Y129147D01*
X181032Y129146D01*
X181030Y129145D01*
X181028Y129144D01*
X181025Y129143D01*
X181022Y129141D01*
X181014Y129139D01*
X181006Y129137D01*
X180996Y129135D01*
X180985Y129134D01*
X180983D01*
X180981Y129135D01*
X180977D01*
X180973Y129136D01*
X180968Y129136D01*
X180963Y129137D01*
X180958Y129138D01*
X180952Y129140D01*
X180946Y129142D01*
X180940Y129145D01*
X180934Y129148D01*
X180928Y129151D01*
X180923Y129156D01*
X180918Y129160D01*
X180913Y129166D01*
X180913Y129166D01*
X180912Y129167D01*
X180912Y129168D01*
X180910Y129170D01*
X180909Y129173D01*
X180908Y129176D01*
X180906Y129179D01*
X180904Y129183D01*
X180902Y129188D01*
X180901Y129192D01*
X180899Y129198D01*
X180898Y129204D01*
X180897Y129210D01*
X180896Y129216D01*
X180895Y129223D01*
X180895Y129230D01*
Y129230D01*
Y129232D01*
Y129234D01*
X180895Y129238D01*
X180896Y129241D01*
X180896Y129246D01*
X180897Y129251D01*
X180898Y129256D01*
X180901Y129268D01*
X180903Y129274D01*
X180905Y129280D01*
X180908Y129286D01*
X180911Y129291D01*
X180915Y129297D01*
X180919Y129302D01*
X180919Y129302D01*
X180920Y129303D01*
X180922Y129305D01*
X180924Y129306D01*
X180926Y129308D01*
X180929Y129310D01*
X180932Y129313D01*
X180936Y129315D01*
X180940Y129318D01*
X180945Y129320D01*
X180949Y129322D01*
X180955Y129324D01*
X180961Y129326D01*
X180967Y129327D01*
X180973Y129328D01*
X180980Y129328D01*
X180984D01*
X180987Y129328D01*
D02*
G37*
G36*
X177953Y126083D02*
X177854Y126280D01*
X178051D01*
X177953Y126083D01*
D02*
G37*
G36*
X180779Y124148D02*
X180782Y124148D01*
X180786Y124147D01*
X180791Y124147D01*
X180800Y124145D01*
X180809Y124143D01*
X180818Y124140D01*
X180822Y124138D01*
X180826Y124136D01*
X180826D01*
X180827Y124135D01*
X180829Y124134D01*
X180832Y124131D01*
X180836Y124127D01*
X180840Y124122D01*
X180844Y124115D01*
X180848Y124108D01*
X180851Y124100D01*
X180805Y124091D01*
Y124091D01*
X180804Y124093D01*
X180804Y124095D01*
X180803Y124097D01*
X180801Y124100D01*
X180799Y124103D01*
X180797Y124105D01*
X180794Y124107D01*
X180793Y124108D01*
X180792Y124108D01*
X180790Y124109D01*
X180788Y124110D01*
X180784Y124111D01*
X180780Y124113D01*
X180776Y124113D01*
X180770Y124113D01*
X180767D01*
X180763Y124113D01*
X180759Y124113D01*
X180754Y124112D01*
X180750Y124111D01*
X180746Y124110D01*
X180742Y124108D01*
X180742D01*
X180742Y124107D01*
X180740Y124105D01*
X180737Y124102D01*
X180737Y124100D01*
X180737Y124098D01*
Y124097D01*
Y124097D01*
X180737Y124095D01*
X180739Y124092D01*
X180740Y124090D01*
X180742Y124089D01*
X180742Y124088D01*
X180743Y124088D01*
X180744Y124087D01*
X180746Y124087D01*
X180747Y124086D01*
X180750Y124085D01*
X180753Y124084D01*
X180756Y124083D01*
X180759Y124082D01*
X180764Y124081D01*
X180769Y124080D01*
X180774Y124078D01*
X180780Y124077D01*
X180787Y124075D01*
X180788D01*
X180789Y124074D01*
X180791Y124074D01*
X180794Y124073D01*
X180797Y124072D01*
X180801Y124071D01*
X180809Y124069D01*
X180818Y124066D01*
X180827Y124062D01*
X180831Y124060D01*
X180835Y124058D01*
X180839Y124055D01*
X180842Y124053D01*
X180843Y124052D01*
X180845Y124051D01*
X180847Y124048D01*
X180850Y124044D01*
X180853Y124039D01*
X180855Y124032D01*
X180857Y124025D01*
X180858Y124017D01*
Y124016D01*
Y124016D01*
Y124014D01*
X180857Y124012D01*
X180857Y124010D01*
X180857Y124008D01*
X180855Y124002D01*
X180853Y123995D01*
X180851Y123991D01*
X180849Y123987D01*
X180846Y123984D01*
X180843Y123980D01*
X180840Y123976D01*
X180836Y123973D01*
X180836Y123972D01*
X180835Y123972D01*
X180834Y123971D01*
X180832Y123970D01*
X180830Y123969D01*
X180827Y123967D01*
X180824Y123965D01*
X180820Y123964D01*
X180816Y123962D01*
X180811Y123960D01*
X180806Y123959D01*
X180801Y123958D01*
X180794Y123956D01*
X180788Y123955D01*
X180781Y123955D01*
X180773Y123955D01*
X180770D01*
X180767Y123955D01*
X180764D01*
X180760Y123955D01*
X180756Y123956D01*
X180752Y123956D01*
X180742Y123958D01*
X180732Y123961D01*
X180722Y123965D01*
X180717Y123967D01*
X180713Y123970D01*
X180713Y123970D01*
X180712Y123970D01*
X180711Y123971D01*
X180710Y123973D01*
X180706Y123976D01*
X180701Y123981D01*
X180696Y123987D01*
X180692Y123994D01*
X180688Y124002D01*
X180685Y124012D01*
X180734Y124019D01*
Y124018D01*
X180734Y124017D01*
X180735Y124014D01*
X180736Y124011D01*
X180738Y124007D01*
X180740Y124004D01*
X180743Y124000D01*
X180746Y123997D01*
X180747Y123997D01*
X180748Y123996D01*
X180750Y123995D01*
X180753Y123994D01*
X180757Y123992D01*
X180762Y123991D01*
X180767Y123990D01*
X180773Y123990D01*
X180776D01*
X180780Y123990D01*
X180784Y123991D01*
X180789Y123992D01*
X180793Y123993D01*
X180798Y123995D01*
X180802Y123997D01*
X180802Y123997D01*
X180803Y123998D01*
X180804Y123999D01*
X180805Y124000D01*
X180806Y124002D01*
X180807Y124004D01*
X180808Y124007D01*
X180808Y124010D01*
Y124010D01*
Y124011D01*
X180808Y124013D01*
X180807Y124016D01*
X180805Y124019D01*
X180804Y124020D01*
X180803Y124020D01*
X180801Y124022D01*
X180799Y124022D01*
X180796Y124023D01*
X180793Y124024D01*
X180789Y124026D01*
X180788D01*
X180786Y124026D01*
X180783Y124027D01*
X180779Y124028D01*
X180774Y124029D01*
X180769Y124030D01*
X180763Y124032D01*
X180757Y124034D01*
X180744Y124037D01*
X180737Y124039D01*
X180732Y124042D01*
X180726Y124043D01*
X180721Y124046D01*
X180716Y124048D01*
X180713Y124050D01*
X180713Y124050D01*
X180712Y124050D01*
X180711Y124051D01*
X180710Y124053D01*
X180706Y124056D01*
X180702Y124061D01*
X180698Y124067D01*
X180695Y124074D01*
X180693Y124078D01*
X180692Y124082D01*
X180692Y124087D01*
X180691Y124091D01*
Y124092D01*
Y124093D01*
Y124094D01*
X180692Y124096D01*
X180692Y124097D01*
X180692Y124100D01*
X180693Y124106D01*
X180696Y124112D01*
X180699Y124118D01*
X180701Y124122D01*
X180704Y124125D01*
X180707Y124129D01*
X180710Y124132D01*
X180710Y124132D01*
X180711Y124133D01*
X180712Y124133D01*
X180714Y124134D01*
X180716Y124135D01*
X180718Y124137D01*
X180721Y124138D01*
X180725Y124140D01*
X180729Y124142D01*
X180733Y124143D01*
X180738Y124145D01*
X180743Y124146D01*
X180749Y124147D01*
X180755Y124148D01*
X180762Y124148D01*
X180776D01*
X180779Y124148D01*
D02*
G37*
G36*
X177195Y124232D02*
X176998D01*
X177096Y124429D01*
X177195Y124232D01*
D02*
G37*
G36*
X170049Y126555D02*
X169951Y126752D01*
X170148D01*
X170049Y126555D01*
D02*
G37*
G36*
X180583Y124148D02*
X180586D01*
X180594Y124147D01*
X180601Y124147D01*
X180609Y124145D01*
X180617Y124143D01*
X180621Y124142D01*
X180624Y124140D01*
X180624D01*
X180625Y124140D01*
X180626Y124139D01*
X180629Y124137D01*
X180633Y124135D01*
X180637Y124132D01*
X180641Y124129D01*
X180644Y124125D01*
X180647Y124121D01*
X180647Y124120D01*
X180648Y124118D01*
X180649Y124115D01*
X180649Y124113D01*
X180650Y124111D01*
X180651Y124108D01*
X180651Y124105D01*
X180652Y124101D01*
X180652Y124097D01*
X180653Y124093D01*
X180653Y124088D01*
X180653Y124083D01*
Y124077D01*
X180653Y124019D01*
Y124019D01*
Y124018D01*
Y124017D01*
Y124015D01*
Y124011D01*
X180653Y124006D01*
Y124000D01*
X180654Y123994D01*
X180654Y123988D01*
X180655Y123983D01*
Y123983D01*
X180655Y123981D01*
X180656Y123979D01*
X180657Y123976D01*
X180658Y123972D01*
X180660Y123968D01*
X180662Y123963D01*
X180664Y123959D01*
X180615D01*
Y123959D01*
X180615Y123959D01*
X180615Y123961D01*
X180614Y123962D01*
X180613Y123964D01*
X180612Y123967D01*
X180612Y123970D01*
X180611Y123973D01*
Y123973D01*
X180610Y123974D01*
X180610Y123975D01*
X180609Y123977D01*
X180609Y123979D01*
X180608Y123978D01*
X180606Y123977D01*
X180604Y123975D01*
X180601Y123972D01*
X180596Y123969D01*
X180592Y123966D01*
X180587Y123963D01*
X180582Y123960D01*
X180581Y123960D01*
X180579Y123960D01*
X180576Y123959D01*
X180572Y123958D01*
X180568Y123956D01*
X180563Y123956D01*
X180557Y123955D01*
X180551Y123955D01*
X180548D01*
X180546Y123955D01*
X180544D01*
X180541Y123955D01*
X180535Y123956D01*
X180527Y123958D01*
X180520Y123961D01*
X180512Y123965D01*
X180506Y123970D01*
Y123970D01*
X180505Y123970D01*
X180503Y123973D01*
X180501Y123976D01*
X180498Y123980D01*
X180495Y123986D01*
X180492Y123993D01*
X180490Y124000D01*
X180490Y124004D01*
X180490Y124009D01*
Y124010D01*
Y124012D01*
X180490Y124014D01*
X180491Y124018D01*
X180491Y124023D01*
X180493Y124027D01*
X180494Y124032D01*
X180497Y124037D01*
X180497Y124037D01*
X180498Y124039D01*
X180500Y124041D01*
X180502Y124044D01*
X180505Y124047D01*
X180509Y124050D01*
X180513Y124053D01*
X180518Y124056D01*
X180518Y124056D01*
X180520Y124057D01*
X180523Y124058D01*
X180528Y124060D01*
X180533Y124061D01*
X180540Y124063D01*
X180548Y124065D01*
X180557Y124067D01*
X180557D01*
X180558Y124067D01*
X180560Y124068D01*
X180562Y124068D01*
X180565Y124069D01*
X180569Y124069D01*
X180576Y124071D01*
X180584Y124073D01*
X180592Y124075D01*
X180599Y124077D01*
X180602Y124078D01*
X180605Y124079D01*
Y124084D01*
Y124085D01*
Y124086D01*
X180605Y124089D01*
X180604Y124092D01*
X180603Y124096D01*
X180602Y124099D01*
X180600Y124102D01*
X180598Y124104D01*
X180597Y124105D01*
X180596Y124106D01*
X180594Y124106D01*
X180592Y124108D01*
X180588Y124109D01*
X180584Y124110D01*
X180578Y124110D01*
X180571Y124111D01*
X180569D01*
X180567Y124110D01*
X180564Y124110D01*
X180561Y124109D01*
X180557Y124108D01*
X180554Y124107D01*
X180551Y124105D01*
X180550Y124105D01*
X180549Y124104D01*
X180548Y124103D01*
X180547Y124101D01*
X180544Y124098D01*
X180542Y124095D01*
X180541Y124091D01*
X180539Y124087D01*
X180495Y124095D01*
Y124096D01*
X180495Y124096D01*
X180495Y124098D01*
X180496Y124100D01*
X180497Y124102D01*
X180498Y124104D01*
X180501Y124110D01*
X180504Y124117D01*
X180509Y124123D01*
X180514Y124130D01*
X180520Y124135D01*
X180521D01*
X180521Y124136D01*
X180522Y124136D01*
X180524Y124137D01*
X180526Y124138D01*
X180528Y124139D01*
X180531Y124141D01*
X180534Y124142D01*
X180538Y124143D01*
X180542Y124144D01*
X180546Y124145D01*
X180551Y124146D01*
X180557Y124147D01*
X180562Y124148D01*
X180568Y124148D01*
X180581D01*
X180583Y124148D01*
D02*
G37*
G36*
X181430Y123959D02*
X181375D01*
X181352Y124017D01*
X181250D01*
X181228Y123959D01*
X181174D01*
X181273Y124215D01*
X181328D01*
X181430Y123959D01*
D02*
G37*
G36*
X170689Y129813D02*
X170492Y129911D01*
X170689Y130010D01*
Y129813D01*
D02*
G37*
G36*
X181326Y129399D02*
X181331Y129399D01*
X181335Y129398D01*
X181340Y129397D01*
X181346Y129396D01*
X181352Y129395D01*
X181358Y129393D01*
X181364Y129390D01*
X181371Y129387D01*
X181377Y129385D01*
X181383Y129381D01*
X181389Y129376D01*
X181395Y129372D01*
X181395D01*
X181396Y129371D01*
X181397Y129370D01*
X181398Y129369D01*
X181399Y129367D01*
X181401Y129365D01*
X181405Y129359D01*
X181409Y129353D01*
X181413Y129345D01*
X181418Y129335D01*
X181421Y129325D01*
X181370Y129312D01*
Y129313D01*
X181370Y129313D01*
Y129314D01*
X181369Y129316D01*
X181368Y129319D01*
X181366Y129323D01*
X181363Y129329D01*
X181360Y129334D01*
X181356Y129339D01*
X181351Y129343D01*
X181350Y129344D01*
X181348Y129345D01*
X181345Y129347D01*
X181341Y129349D01*
X181336Y129352D01*
X181330Y129353D01*
X181324Y129355D01*
X181316Y129355D01*
X181314D01*
X181311Y129355D01*
X181309Y129355D01*
X181306Y129354D01*
X181300Y129353D01*
X181292Y129350D01*
X181285Y129346D01*
X181281Y129344D01*
X181277Y129342D01*
X181273Y129338D01*
X181270Y129335D01*
Y129334D01*
X181269Y129333D01*
X181268Y129332D01*
X181267Y129331D01*
X181266Y129328D01*
X181264Y129326D01*
X181263Y129322D01*
X181261Y129319D01*
X181260Y129314D01*
X181258Y129309D01*
X181257Y129304D01*
X181255Y129298D01*
X181254Y129291D01*
X181253Y129284D01*
X181253Y129276D01*
X181252Y129268D01*
Y129268D01*
Y129266D01*
Y129263D01*
X181253Y129260D01*
Y129256D01*
X181254Y129251D01*
X181254Y129247D01*
X181255Y129241D01*
X181257Y129229D01*
X181260Y129218D01*
X181262Y129212D01*
X181264Y129207D01*
X181267Y129202D01*
X181270Y129198D01*
X181270Y129198D01*
X181271Y129198D01*
X181272Y129197D01*
X181273Y129195D01*
X181277Y129192D01*
X181282Y129188D01*
X181288Y129184D01*
X181296Y129181D01*
X181305Y129179D01*
X181310Y129178D01*
X181315Y129178D01*
X181317D01*
X181318Y129178D01*
X181322Y129179D01*
X181327Y129180D01*
X181332Y129181D01*
X181338Y129184D01*
X181344Y129187D01*
X181350Y129191D01*
X181351Y129192D01*
X181353Y129194D01*
X181355Y129197D01*
X181358Y129201D01*
X181362Y129207D01*
X181365Y129214D01*
X181369Y129222D01*
X181372Y129232D01*
X181422Y129217D01*
Y129217D01*
X181422Y129215D01*
X181421Y129213D01*
X181420Y129210D01*
X181418Y129207D01*
X181417Y129202D01*
X181415Y129198D01*
X181413Y129193D01*
X181408Y129183D01*
X181401Y129173D01*
X181393Y129163D01*
X181388Y129158D01*
X181383Y129154D01*
X181383Y129154D01*
X181382Y129154D01*
X181381Y129153D01*
X181379Y129151D01*
X181376Y129150D01*
X181373Y129148D01*
X181369Y129146D01*
X181365Y129144D01*
X181360Y129142D01*
X181355Y129140D01*
X181349Y129139D01*
X181344Y129137D01*
X181337Y129136D01*
X181330Y129135D01*
X181323Y129134D01*
X181315Y129134D01*
X181313D01*
X181311Y129134D01*
X181307Y129135D01*
X181303Y129135D01*
X181298Y129136D01*
X181292Y129137D01*
X181286Y129138D01*
X181280Y129140D01*
X181273Y129143D01*
X181266Y129146D01*
X181259Y129149D01*
X181252Y129153D01*
X181245Y129157D01*
X181238Y129163D01*
X181232Y129169D01*
X181231Y129169D01*
X181230Y129170D01*
X181229Y129173D01*
X181227Y129175D01*
X181224Y129179D01*
X181221Y129183D01*
X181218Y129188D01*
X181215Y129194D01*
X181213Y129200D01*
X181210Y129207D01*
X181207Y129215D01*
X181204Y129224D01*
X181202Y129233D01*
X181201Y129243D01*
X181200Y129253D01*
X181199Y129264D01*
Y129265D01*
Y129265D01*
Y129267D01*
X181200Y129271D01*
Y129275D01*
X181200Y129280D01*
X181201Y129286D01*
X181202Y129293D01*
X181203Y129301D01*
X181205Y129309D01*
X181207Y129317D01*
X181210Y129325D01*
X181213Y129333D01*
X181217Y129342D01*
X181221Y129349D01*
X181226Y129357D01*
X181232Y129364D01*
X181233Y129364D01*
X181234Y129365D01*
X181235Y129367D01*
X181238Y129369D01*
X181241Y129372D01*
X181245Y129375D01*
X181250Y129378D01*
X181255Y129382D01*
X181261Y129385D01*
X181268Y129388D01*
X181275Y129391D01*
X181282Y129394D01*
X181291Y129396D01*
X181299Y129398D01*
X181309Y129399D01*
X181319Y129399D01*
X181323D01*
X181326Y129399D01*
D02*
G37*
G36*
X173352Y124084D02*
X173355D01*
X173360Y124083D01*
X173366Y124083D01*
X173372Y124082D01*
X173379Y124080D01*
X173386Y124078D01*
X173393Y124076D01*
X173400Y124073D01*
X173408Y124070D01*
X173416Y124066D01*
X173423Y124061D01*
X173430Y124055D01*
X173437Y124049D01*
X173437Y124049D01*
X173438Y124048D01*
X173440Y124045D01*
X173442Y124043D01*
X173444Y124039D01*
X173447Y124035D01*
X173450Y124029D01*
X173454Y124024D01*
X173457Y124017D01*
X173460Y124010D01*
X173463Y124002D01*
X173465Y123993D01*
X173468Y123984D01*
X173469Y123974D01*
X173470Y123963D01*
X173471Y123951D01*
Y123951D01*
Y123949D01*
X173470Y123945D01*
Y123941D01*
X173470Y123936D01*
X173469Y123930D01*
X173468Y123923D01*
X173467Y123916D01*
X173465Y123908D01*
X173463Y123900D01*
X173460Y123892D01*
X173456Y123884D01*
X173453Y123876D01*
X173448Y123868D01*
X173443Y123861D01*
X173437Y123854D01*
X173436Y123853D01*
X173435Y123852D01*
X173433Y123850D01*
X173430Y123848D01*
X173427Y123846D01*
X173423Y123843D01*
X173418Y123840D01*
X173413Y123836D01*
X173407Y123833D01*
X173400Y123830D01*
X173393Y123827D01*
X173384Y123824D01*
X173376Y123822D01*
X173367Y123820D01*
X173357Y123819D01*
X173347Y123819D01*
X173344D01*
X173341Y123819D01*
X173337Y123820D01*
X173333Y123820D01*
X173327Y123821D01*
X173321Y123822D01*
X173314Y123823D01*
X173307Y123825D01*
X173300Y123827D01*
X173292Y123830D01*
X173285Y123834D01*
X173277Y123837D01*
X173270Y123842D01*
X173263Y123847D01*
X173256Y123854D01*
X173256Y123854D01*
X173255Y123855D01*
X173253Y123857D01*
X173251Y123860D01*
X173248Y123864D01*
X173245Y123868D01*
X173242Y123873D01*
X173239Y123879D01*
X173236Y123885D01*
X173233Y123893D01*
X173230Y123900D01*
X173228Y123909D01*
X173225Y123918D01*
X173224Y123928D01*
X173223Y123939D01*
X173222Y123950D01*
Y123950D01*
Y123952D01*
Y123954D01*
X173223Y123957D01*
Y123960D01*
X173223Y123964D01*
X173224Y123968D01*
X173224Y123973D01*
X173225Y123983D01*
X173227Y123994D01*
X173230Y124005D01*
X173234Y124016D01*
Y124016D01*
X173234Y124016D01*
X173235Y124018D01*
X173235Y124019D01*
X173238Y124023D01*
X173240Y124028D01*
X173243Y124033D01*
X173248Y124039D01*
X173252Y124045D01*
X173258Y124051D01*
X173258Y124051D01*
X173258Y124052D01*
X173260Y124053D01*
X173263Y124056D01*
X173268Y124060D01*
X173272Y124063D01*
X173278Y124068D01*
X173284Y124071D01*
X173291Y124074D01*
X173291D01*
X173292Y124075D01*
X173293Y124075D01*
X173295Y124076D01*
X173298Y124077D01*
X173300Y124078D01*
X173303Y124078D01*
X173307Y124079D01*
X173315Y124081D01*
X173324Y124083D01*
X173335Y124084D01*
X173346Y124085D01*
X173349D01*
X173352Y124084D01*
D02*
G37*
G36*
X180591Y126707D02*
X180594D01*
X180602Y126706D01*
X180609Y126706D01*
X180618Y126704D01*
X180625Y126702D01*
X180629Y126701D01*
X180632Y126699D01*
X180632D01*
X180633Y126699D01*
X180635Y126698D01*
X180638Y126696D01*
X180641Y126694D01*
X180645Y126691D01*
X180649Y126688D01*
X180652Y126684D01*
X180655Y126680D01*
X180655Y126679D01*
X180656Y126678D01*
X180657Y126674D01*
X180658Y126672D01*
X180658Y126670D01*
X180659Y126667D01*
X180659Y126664D01*
X180660Y126660D01*
X180660Y126656D01*
X180661Y126652D01*
X180661Y126647D01*
X180662Y126642D01*
Y126636D01*
X180661Y126578D01*
Y126578D01*
Y126577D01*
Y126576D01*
Y126574D01*
Y126570D01*
X180661Y126565D01*
Y126559D01*
X180662Y126553D01*
X180662Y126547D01*
X180663Y126542D01*
Y126542D01*
X180663Y126540D01*
X180664Y126538D01*
X180665Y126535D01*
X180666Y126531D01*
X180668Y126527D01*
X180670Y126522D01*
X180672Y126518D01*
X180623D01*
Y126518D01*
X180623Y126518D01*
X180623Y126520D01*
X180622Y126521D01*
X180621Y126523D01*
X180621Y126526D01*
X180620Y126529D01*
X180619Y126532D01*
Y126532D01*
X180618Y126533D01*
X180618Y126534D01*
X180617Y126536D01*
X180617Y126538D01*
X180616Y126537D01*
X180615Y126536D01*
X180612Y126534D01*
X180609Y126531D01*
X180605Y126528D01*
X180600Y126525D01*
X180595Y126522D01*
X180590Y126520D01*
X180589Y126519D01*
X180587Y126519D01*
X180584Y126518D01*
X180581Y126517D01*
X180576Y126515D01*
X180571Y126515D01*
X180565Y126514D01*
X180559Y126514D01*
X180557D01*
X180554Y126514D01*
X180552D01*
X180549Y126514D01*
X180543Y126515D01*
X180535Y126517D01*
X180528Y126520D01*
X180521Y126524D01*
X180514Y126529D01*
Y126529D01*
X180513Y126530D01*
X180511Y126532D01*
X180509Y126535D01*
X180506Y126539D01*
X180503Y126545D01*
X180500Y126552D01*
X180498Y126559D01*
X180498Y126564D01*
X180498Y126568D01*
Y126569D01*
Y126571D01*
X180498Y126574D01*
X180499Y126577D01*
X180500Y126582D01*
X180501Y126586D01*
X180502Y126591D01*
X180505Y126596D01*
X180505Y126596D01*
X180507Y126598D01*
X180508Y126600D01*
X180511Y126603D01*
X180513Y126606D01*
X180517Y126609D01*
X180521Y126612D01*
X180526Y126615D01*
X180527Y126615D01*
X180528Y126616D01*
X180531Y126617D01*
X180536Y126619D01*
X180541Y126621D01*
X180548Y126622D01*
X180556Y126624D01*
X180565Y126626D01*
X180565D01*
X180567Y126626D01*
X180568Y126627D01*
X180571Y126627D01*
X180574Y126628D01*
X180577Y126628D01*
X180584Y126630D01*
X180592Y126632D01*
X180600Y126634D01*
X180607Y126636D01*
X180611Y126637D01*
X180613Y126638D01*
Y126643D01*
Y126644D01*
Y126645D01*
X180613Y126648D01*
X180612Y126651D01*
X180611Y126655D01*
X180610Y126658D01*
X180608Y126661D01*
X180606Y126663D01*
X180605Y126664D01*
X180604Y126665D01*
X180602Y126665D01*
X180600Y126667D01*
X180596Y126668D01*
X180592Y126669D01*
X180586Y126669D01*
X180579Y126670D01*
X180577D01*
X180575Y126669D01*
X180572Y126669D01*
X180569Y126668D01*
X180565Y126668D01*
X180562Y126666D01*
X180559Y126664D01*
X180558Y126664D01*
X180558Y126663D01*
X180556Y126662D01*
X180555Y126660D01*
X180552Y126658D01*
X180551Y126654D01*
X180549Y126650D01*
X180547Y126646D01*
X180503Y126654D01*
Y126655D01*
X180503Y126655D01*
X180504Y126657D01*
X180504Y126659D01*
X180505Y126661D01*
X180506Y126663D01*
X180509Y126669D01*
X180512Y126676D01*
X180517Y126682D01*
X180522Y126689D01*
X180528Y126694D01*
X180529D01*
X180529Y126695D01*
X180530Y126695D01*
X180532Y126696D01*
X180534Y126697D01*
X180536Y126698D01*
X180539Y126700D01*
X180542Y126701D01*
X180546Y126702D01*
X180550Y126703D01*
X180554Y126705D01*
X180559Y126705D01*
X180565Y126706D01*
X180571Y126707D01*
X180576Y126707D01*
X180589D01*
X180591Y126707D01*
D02*
G37*
G36*
X172835Y124079D02*
X172844D01*
X172855Y124079D01*
X172865Y124078D01*
X172869Y124078D01*
X172874Y124077D01*
X172878Y124076D01*
X172881Y124076D01*
X172881D01*
X172882Y124075D01*
X172883Y124075D01*
X172884Y124075D01*
X172888Y124073D01*
X172893Y124071D01*
X172899Y124067D01*
X172905Y124063D01*
X172911Y124057D01*
X172917Y124051D01*
Y124050D01*
X172918Y124050D01*
X172919Y124049D01*
X172919Y124047D01*
X172921Y124045D01*
X172922Y124043D01*
X172923Y124040D01*
X172925Y124037D01*
X172928Y124030D01*
X172930Y124022D01*
X172932Y124012D01*
X172932Y124001D01*
Y124001D01*
Y124000D01*
Y123999D01*
Y123997D01*
X172932Y123995D01*
Y123992D01*
X172931Y123987D01*
X172930Y123981D01*
X172929Y123974D01*
X172926Y123967D01*
X172923Y123961D01*
X172923Y123960D01*
X172922Y123958D01*
X172920Y123955D01*
X172918Y123952D01*
X172915Y123948D01*
X172910Y123944D01*
X172906Y123940D01*
X172902Y123936D01*
X172901Y123935D01*
X172899Y123934D01*
X172897Y123933D01*
X172893Y123931D01*
X172889Y123929D01*
X172885Y123927D01*
X172880Y123925D01*
X172875Y123924D01*
X172874D01*
X172873Y123923D01*
X172872D01*
X172870Y123923D01*
X172867Y123923D01*
X172865Y123922D01*
X172861D01*
X172858Y123922D01*
X172854Y123921D01*
X172849Y123921D01*
X172845Y123921D01*
X172839D01*
X172834Y123920D01*
X172788D01*
Y123824D01*
X172736D01*
Y124080D01*
X172831D01*
X172835Y124079D01*
D02*
G37*
G36*
X182776Y124114D02*
X182579D01*
X182677Y124311D01*
X182776Y124114D01*
D02*
G37*
G36*
X180986Y126707D02*
X180990Y126707D01*
X180994Y126706D01*
X180998Y126705D01*
X181003Y126704D01*
X181008Y126703D01*
X181013Y126701D01*
X181019Y126699D01*
X181025Y126696D01*
X181030Y126693D01*
X181035Y126689D01*
X181040Y126685D01*
X181045Y126680D01*
X181045Y126679D01*
X181046Y126679D01*
X181047Y126677D01*
X181048Y126675D01*
X181050Y126672D01*
X181052Y126668D01*
X181054Y126664D01*
X181056Y126659D01*
X181059Y126653D01*
X181061Y126647D01*
X181063Y126641D01*
X181065Y126633D01*
X181066Y126625D01*
X181067Y126616D01*
X181068Y126606D01*
Y126596D01*
X180945D01*
Y126596D01*
Y126595D01*
Y126594D01*
X180945Y126592D01*
X180946Y126589D01*
X180947Y126584D01*
X180948Y126578D01*
X180950Y126572D01*
X180953Y126567D01*
X180956Y126562D01*
X180957Y126562D01*
X180959Y126560D01*
X180961Y126558D01*
X180964Y126556D01*
X180968Y126554D01*
X180974Y126552D01*
X180979Y126551D01*
X180985Y126550D01*
X180987D01*
X180989Y126551D01*
X180992Y126551D01*
X180995Y126552D01*
X180998Y126553D01*
X181001Y126554D01*
X181004Y126557D01*
X181005Y126557D01*
X181006Y126558D01*
X181007Y126559D01*
X181009Y126561D01*
X181011Y126564D01*
X181013Y126568D01*
X181015Y126572D01*
X181016Y126577D01*
X181065Y126569D01*
Y126568D01*
X181065Y126568D01*
X181064Y126566D01*
X181063Y126564D01*
X181062Y126562D01*
X181061Y126559D01*
X181058Y126554D01*
X181054Y126547D01*
X181049Y126540D01*
X181042Y126534D01*
X181035Y126528D01*
X181035D01*
X181035Y126527D01*
X181033Y126527D01*
X181032Y126525D01*
X181030Y126524D01*
X181027Y126523D01*
X181025Y126522D01*
X181021Y126521D01*
X181014Y126518D01*
X181005Y126516D01*
X180995Y126514D01*
X180985Y126514D01*
X180982D01*
X180980Y126514D01*
X180977D01*
X180973Y126515D01*
X180968Y126515D01*
X180963Y126516D01*
X180958Y126518D01*
X180952Y126519D01*
X180946Y126521D01*
X180940Y126524D01*
X180934Y126527D01*
X180928Y126531D01*
X180922Y126535D01*
X180918Y126539D01*
X180913Y126545D01*
X180912Y126545D01*
X180912Y126546D01*
X180911Y126548D01*
X180910Y126549D01*
X180909Y126552D01*
X180907Y126555D01*
X180905Y126558D01*
X180904Y126562D01*
X180902Y126567D01*
X180901Y126572D01*
X180899Y126577D01*
X180898Y126583D01*
X180897Y126589D01*
X180895Y126595D01*
X180895Y126602D01*
X180895Y126609D01*
Y126609D01*
Y126611D01*
Y126614D01*
X180895Y126617D01*
X180895Y126621D01*
X180896Y126625D01*
X180897Y126630D01*
X180898Y126635D01*
X180901Y126647D01*
X180902Y126653D01*
X180905Y126659D01*
X180908Y126665D01*
X180911Y126670D01*
X180915Y126676D01*
X180919Y126681D01*
X180919Y126682D01*
X180920Y126682D01*
X180921Y126684D01*
X180923Y126685D01*
X180925Y126687D01*
X180928Y126689D01*
X180932Y126692D01*
X180935Y126695D01*
X180939Y126697D01*
X180944Y126699D01*
X180949Y126702D01*
X180955Y126703D01*
X180960Y126705D01*
X180966Y126706D01*
X180973Y126707D01*
X180979Y126707D01*
X180984D01*
X180986Y126707D01*
D02*
G37*
G36*
X180152Y126773D02*
X180162D01*
X180172Y126773D01*
X180183Y126772D01*
X180187Y126771D01*
X180192Y126771D01*
X180195Y126770D01*
X180198Y126770D01*
X180199D01*
X180199Y126769D01*
X180201Y126769D01*
X180202Y126769D01*
X180206Y126767D01*
X180211Y126764D01*
X180217Y126761D01*
X180223Y126757D01*
X180229Y126751D01*
X180235Y126744D01*
Y126744D01*
X180236Y126744D01*
X180236Y126743D01*
X180237Y126741D01*
X180239Y126739D01*
X180240Y126737D01*
X180241Y126734D01*
X180243Y126731D01*
X180245Y126724D01*
X180248Y126716D01*
X180249Y126706D01*
X180250Y126695D01*
Y126695D01*
Y126694D01*
Y126693D01*
Y126691D01*
X180250Y126689D01*
Y126686D01*
X180249Y126681D01*
X180248Y126675D01*
X180246Y126668D01*
X180244Y126661D01*
X180241Y126655D01*
X180241Y126654D01*
X180240Y126652D01*
X180238Y126649D01*
X180235Y126646D01*
X180232Y126642D01*
X180228Y126638D01*
X180224Y126633D01*
X180219Y126630D01*
X180219Y126629D01*
X180217Y126628D01*
X180215Y126627D01*
X180211Y126625D01*
X180207Y126623D01*
X180203Y126621D01*
X180198Y126619D01*
X180193Y126618D01*
X180192D01*
X180191Y126617D01*
X180189D01*
X180188Y126617D01*
X180185Y126616D01*
X180182Y126616D01*
X180179D01*
X180176Y126616D01*
X180172Y126615D01*
X180167Y126615D01*
X180162Y126615D01*
X180157D01*
X180152Y126614D01*
X180106D01*
Y126518D01*
X180054D01*
Y126774D01*
X180148D01*
X180152Y126773D01*
D02*
G37*
G36*
X180341Y126679D02*
X180341Y126679D01*
X180342Y126680D01*
X180343Y126682D01*
X180345Y126683D01*
X180347Y126686D01*
X180350Y126688D01*
X180353Y126690D01*
X180357Y126693D01*
X180361Y126696D01*
X180365Y126699D01*
X180375Y126703D01*
X180380Y126705D01*
X180386Y126706D01*
X180392Y126707D01*
X180397Y126707D01*
X180400D01*
X180404Y126707D01*
X180408Y126707D01*
X180413Y126706D01*
X180417Y126705D01*
X180423Y126703D01*
X180428Y126701D01*
X180429Y126700D01*
X180430Y126700D01*
X180433Y126698D01*
X180436Y126696D01*
X180439Y126694D01*
X180443Y126692D01*
X180446Y126688D01*
X180449Y126685D01*
X180449Y126685D01*
X180450Y126683D01*
X180451Y126681D01*
X180453Y126679D01*
X180454Y126675D01*
X180456Y126672D01*
X180457Y126668D01*
X180458Y126663D01*
Y126663D01*
X180459Y126661D01*
X180459Y126658D01*
X180460Y126654D01*
X180460Y126649D01*
X180461Y126643D01*
X180461Y126635D01*
Y126626D01*
Y126518D01*
X180412D01*
Y126615D01*
Y126616D01*
Y126616D01*
Y126618D01*
Y126620D01*
Y126622D01*
Y126625D01*
X180411Y126631D01*
X180411Y126637D01*
X180411Y126643D01*
X180410Y126649D01*
X180409Y126650D01*
X180409Y126652D01*
Y126653D01*
X180408Y126654D01*
X180407Y126655D01*
X180407Y126657D01*
X180403Y126661D01*
X180401Y126663D01*
X180399Y126665D01*
X180399Y126665D01*
X180398Y126666D01*
X180396Y126666D01*
X180394Y126668D01*
X180392Y126668D01*
X180389Y126669D01*
X180385Y126669D01*
X180381Y126670D01*
X180379D01*
X180377Y126669D01*
X180374Y126669D01*
X180370Y126668D01*
X180367Y126667D01*
X180363Y126666D01*
X180359Y126663D01*
X180359Y126663D01*
X180358Y126662D01*
X180356Y126661D01*
X180354Y126659D01*
X180352Y126656D01*
X180349Y126653D01*
X180347Y126650D01*
X180345Y126646D01*
Y126645D01*
X180345Y126643D01*
X180344Y126641D01*
X180343Y126637D01*
X180342Y126632D01*
X180342Y126626D01*
X180341Y126619D01*
X180341Y126611D01*
Y126518D01*
X180292D01*
Y126774D01*
X180341D01*
Y126679D01*
D02*
G37*
%LPC*%
G36*
X180204Y127575D02*
X180170D01*
Y127405D01*
X180215D01*
X180220Y127406D01*
X180225D01*
X180231Y127407D01*
X180235Y127407D01*
X180239Y127408D01*
X180240D01*
X180242Y127408D01*
X180244Y127409D01*
X180247Y127410D01*
X180250Y127412D01*
X180254Y127414D01*
X180257Y127416D01*
X180260Y127418D01*
X180261Y127419D01*
X180262Y127420D01*
X180263Y127422D01*
X180265Y127424D01*
X180267Y127428D01*
X180269Y127432D01*
X180271Y127437D01*
X180274Y127443D01*
Y127443D01*
X180274Y127444D01*
Y127445D01*
X180274Y127446D01*
X180275Y127448D01*
X180275Y127450D01*
X180276Y127455D01*
X180277Y127462D01*
X180278Y127470D01*
X180279Y127479D01*
X180279Y127490D01*
Y127490D01*
Y127491D01*
Y127493D01*
Y127495D01*
Y127497D01*
X180279Y127500D01*
X180278Y127507D01*
X180278Y127514D01*
X180277Y127522D01*
X180275Y127529D01*
X180274Y127535D01*
Y127536D01*
X180273Y127536D01*
X180272Y127538D01*
X180271Y127541D01*
X180270Y127545D01*
X180268Y127548D01*
X180265Y127552D01*
X180262Y127556D01*
X180259Y127560D01*
X180258Y127561D01*
X180257Y127562D01*
X180255Y127563D01*
X180252Y127565D01*
X180249Y127567D01*
X180245Y127569D01*
X180240Y127571D01*
X180235Y127572D01*
X180235D01*
X180233Y127573D01*
X180230Y127573D01*
X180226Y127574D01*
X180223D01*
X180220Y127574D01*
X180217D01*
X180213Y127575D01*
X180208D01*
X180204Y127575D01*
D02*
G37*
G36*
X182219Y123993D02*
X182167D01*
Y123934D01*
X182217D01*
X182223Y123934D01*
X182234D01*
X182237Y123935D01*
X182239D01*
X182240Y123935D01*
X182243Y123935D01*
X182246Y123936D01*
X182249Y123938D01*
X182253Y123939D01*
X182256Y123941D01*
X182259Y123943D01*
X182259Y123944D01*
X182260Y123945D01*
X182261Y123946D01*
X182263Y123949D01*
X182264Y123952D01*
X182266Y123955D01*
X182266Y123959D01*
X182267Y123964D01*
Y123964D01*
Y123966D01*
X182266Y123968D01*
X182266Y123971D01*
X182265Y123974D01*
X182264Y123977D01*
X182262Y123980D01*
X182260Y123983D01*
X182260Y123983D01*
X182259Y123984D01*
X182257Y123986D01*
X182255Y123987D01*
X182252Y123989D01*
X182249Y123990D01*
X182245Y123991D01*
X182240Y123992D01*
X182240D01*
X182239Y123992D01*
X182234D01*
X182232Y123993D01*
X182223D01*
X182219Y123993D01*
D02*
G37*
G36*
X173901Y124036D02*
X173841D01*
Y123971D01*
X173892D01*
X173899Y123972D01*
X173907Y123972D01*
X173915Y123972D01*
X173918Y123973D01*
X173921Y123973D01*
X173924Y123974D01*
X173926Y123974D01*
X173926D01*
X173927Y123975D01*
X173929Y123976D01*
X173931Y123977D01*
X173936Y123980D01*
X173938Y123982D01*
X173940Y123985D01*
X173941Y123985D01*
X173941Y123987D01*
X173942Y123988D01*
X173943Y123990D01*
X173944Y123993D01*
X173945Y123996D01*
X173945Y124000D01*
X173946Y124004D01*
Y124005D01*
Y124006D01*
X173945Y124009D01*
X173945Y124012D01*
X173944Y124015D01*
X173943Y124018D01*
X173941Y124022D01*
X173939Y124025D01*
X173938Y124025D01*
X173938Y124026D01*
X173936Y124028D01*
X173934Y124029D01*
X173931Y124031D01*
X173928Y124033D01*
X173924Y124034D01*
X173919Y124035D01*
X173919D01*
X173918Y124036D01*
X173915D01*
X173912Y124036D01*
X173904D01*
X173901Y124036D01*
D02*
G37*
G36*
X182221Y123891D02*
X182167D01*
Y123823D01*
X182224D01*
X182230Y123823D01*
X182236D01*
X182241Y123824D01*
X182246Y123824D01*
X182249D01*
X182250Y123824D01*
X182250D01*
X182252Y123825D01*
X182254Y123825D01*
X182257Y123826D01*
X182260Y123828D01*
X182263Y123829D01*
X182266Y123832D01*
X182269Y123834D01*
X182269Y123835D01*
X182270Y123836D01*
X182271Y123838D01*
X182273Y123840D01*
X182274Y123843D01*
X182275Y123847D01*
X182276Y123851D01*
X182276Y123856D01*
Y123856D01*
Y123858D01*
X182276Y123860D01*
X182276Y123863D01*
X182275Y123866D01*
X182274Y123869D01*
X182272Y123872D01*
X182270Y123876D01*
X182270Y123876D01*
X182269Y123877D01*
X182268Y123879D01*
X182266Y123880D01*
X182264Y123882D01*
X182261Y123884D01*
X182258Y123886D01*
X182254Y123888D01*
X182254D01*
X182252Y123888D01*
X182249Y123889D01*
X182247Y123889D01*
X182244Y123889D01*
X182242Y123890D01*
X182239Y123890D01*
X182235Y123891D01*
X182230D01*
X182226Y123891D01*
X182221Y123891D01*
D02*
G37*
G36*
X182473Y123976D02*
X182439Y123881D01*
X182509D01*
X182473Y123976D01*
D02*
G37*
G36*
X173086Y124036D02*
X173027D01*
Y123971D01*
X173077D01*
X173084Y123972D01*
X173092Y123972D01*
X173100Y123972D01*
X173103Y123973D01*
X173106Y123973D01*
X173109Y123974D01*
X173111Y123974D01*
X173111D01*
X173113Y123975D01*
X173114Y123976D01*
X173116Y123977D01*
X173121Y123980D01*
X173123Y123982D01*
X173125Y123985D01*
X173126Y123985D01*
X173126Y123987D01*
X173127Y123988D01*
X173128Y123990D01*
X173129Y123993D01*
X173130Y123996D01*
X173131Y124000D01*
X173131Y124004D01*
Y124005D01*
Y124006D01*
X173131Y124009D01*
X173130Y124012D01*
X173129Y124015D01*
X173128Y124018D01*
X173126Y124022D01*
X173124Y124025D01*
X173124Y124025D01*
X173123Y124026D01*
X173121Y124028D01*
X173119Y124029D01*
X173116Y124031D01*
X173113Y124033D01*
X173109Y124034D01*
X173104Y124035D01*
X173104D01*
X173103Y124036D01*
X173101D01*
X173097Y124036D01*
X173089D01*
X173086Y124036D01*
D02*
G37*
G36*
X174148Y124020D02*
X174113Y123925D01*
X174184D01*
X174148Y124020D01*
D02*
G37*
G36*
X173347Y124041D02*
X173344D01*
X173342Y124040D01*
X173339Y124040D01*
X173336Y124039D01*
X173328Y124038D01*
X173320Y124035D01*
X173316Y124033D01*
X173311Y124031D01*
X173307Y124029D01*
X173303Y124026D01*
X173299Y124022D01*
X173295Y124018D01*
X173295Y124018D01*
X173294Y124017D01*
X173293Y124016D01*
X173292Y124014D01*
X173290Y124012D01*
X173289Y124009D01*
X173287Y124006D01*
X173285Y124002D01*
X173283Y123997D01*
X173282Y123992D01*
X173280Y123987D01*
X173279Y123981D01*
X173278Y123974D01*
X173276Y123967D01*
X173276Y123960D01*
X173276Y123952D01*
Y123951D01*
Y123950D01*
Y123948D01*
X173276Y123945D01*
X173276Y123941D01*
X173277Y123937D01*
X173278Y123932D01*
X173278Y123927D01*
X173280Y123916D01*
X173284Y123905D01*
X173286Y123900D01*
X173289Y123895D01*
X173292Y123890D01*
X173296Y123885D01*
X173296Y123885D01*
X173297Y123884D01*
X173298Y123883D01*
X173299Y123882D01*
X173301Y123880D01*
X173304Y123878D01*
X173306Y123876D01*
X173310Y123874D01*
X173317Y123870D01*
X173326Y123867D01*
X173330Y123865D01*
X173336Y123864D01*
X173341Y123863D01*
X173347Y123863D01*
X173350D01*
X173352Y123863D01*
X173354Y123864D01*
X173357Y123864D01*
X173364Y123866D01*
X173373Y123868D01*
X173377Y123870D01*
X173381Y123872D01*
X173385Y123875D01*
X173390Y123878D01*
X173394Y123881D01*
X173397Y123885D01*
X173398Y123885D01*
X173398Y123886D01*
X173399Y123887D01*
X173400Y123889D01*
X173402Y123892D01*
X173404Y123895D01*
X173406Y123898D01*
X173407Y123902D01*
X173409Y123907D01*
X173411Y123911D01*
X173413Y123917D01*
X173414Y123923D01*
X173416Y123930D01*
X173417Y123937D01*
X173417Y123944D01*
X173417Y123952D01*
Y123953D01*
Y123954D01*
Y123957D01*
X173417Y123960D01*
X173417Y123964D01*
X173416Y123968D01*
X173416Y123972D01*
X173415Y123977D01*
X173413Y123988D01*
X173409Y123999D01*
X173407Y124005D01*
X173404Y124009D01*
X173401Y124014D01*
X173398Y124019D01*
X173397Y124019D01*
X173397Y124020D01*
X173396Y124021D01*
X173394Y124022D01*
X173392Y124024D01*
X173390Y124026D01*
X173387Y124028D01*
X173384Y124030D01*
X173381Y124032D01*
X173377Y124033D01*
X173368Y124037D01*
X173363Y124039D01*
X173358Y124039D01*
X173353Y124040D01*
X173347Y124041D01*
D02*
G37*
G36*
X172826Y124036D02*
X172788D01*
Y123964D01*
X172824D01*
X172826Y123964D01*
X172833D01*
X172839Y123964D01*
X172846Y123965D01*
X172852Y123966D01*
X172855Y123967D01*
X172857Y123967D01*
X172857Y123968D01*
X172859Y123968D01*
X172861Y123969D01*
X172863Y123970D01*
X172865Y123972D01*
X172868Y123974D01*
X172871Y123977D01*
X172873Y123980D01*
X172873Y123980D01*
X172874Y123981D01*
X172875Y123983D01*
X172876Y123986D01*
X172877Y123989D01*
X172878Y123992D01*
X172879Y123996D01*
X172879Y124000D01*
Y124001D01*
Y124002D01*
X172879Y124005D01*
X172878Y124008D01*
X172877Y124012D01*
X172875Y124016D01*
X172873Y124019D01*
X172871Y124023D01*
X172870Y124024D01*
X172869Y124025D01*
X172867Y124026D01*
X172865Y124028D01*
X172862Y124030D01*
X172858Y124032D01*
X172854Y124033D01*
X172850Y124035D01*
X172849D01*
X172848Y124035D01*
X172845Y124035D01*
X172842Y124036D01*
X172837D01*
X172834Y124036D01*
X172830D01*
X172826Y124036D01*
D02*
G37*
G36*
X178190Y126591D02*
X178157D01*
Y126421D01*
X178202D01*
X178207Y126422D01*
X178212D01*
X178217Y126422D01*
X178222Y126423D01*
X178226Y126423D01*
X178227D01*
X178228Y126424D01*
X178231Y126425D01*
X178234Y126426D01*
X178237Y126428D01*
X178240Y126429D01*
X178244Y126432D01*
X178247Y126434D01*
X178247Y126435D01*
X178248Y126436D01*
X178250Y126438D01*
X178252Y126440D01*
X178254Y126443D01*
X178256Y126448D01*
X178258Y126453D01*
X178260Y126459D01*
Y126459D01*
X178261Y126459D01*
Y126460D01*
X178261Y126462D01*
X178262Y126463D01*
X178262Y126466D01*
X178263Y126471D01*
X178264Y126478D01*
X178265Y126486D01*
X178265Y126495D01*
X178266Y126506D01*
Y126506D01*
Y126507D01*
Y126509D01*
Y126510D01*
Y126513D01*
X178265Y126516D01*
X178265Y126522D01*
X178264Y126530D01*
X178264Y126537D01*
X178262Y126544D01*
X178260Y126551D01*
Y126551D01*
X178260Y126552D01*
X178259Y126554D01*
X178258Y126557D01*
X178256Y126560D01*
X178254Y126564D01*
X178252Y126568D01*
X178249Y126572D01*
X178245Y126576D01*
X178245Y126576D01*
X178244Y126577D01*
X178242Y126579D01*
X178239Y126581D01*
X178235Y126583D01*
X178231Y126585D01*
X178227Y126587D01*
X178222Y126588D01*
X178221D01*
X178220Y126588D01*
X178217Y126589D01*
X178212Y126590D01*
X178210D01*
X178207Y126590D01*
X178203D01*
X178200Y126590D01*
X178195D01*
X178190Y126591D01*
D02*
G37*
G36*
X180613Y126606D02*
X180613D01*
X180611Y126606D01*
X180609Y126605D01*
X180606Y126604D01*
X180602Y126603D01*
X180596Y126602D01*
X180590Y126600D01*
X180583Y126599D01*
X180582D01*
X180581Y126598D01*
X180579Y126598D01*
X180576Y126597D01*
X180572Y126596D01*
X180567Y126595D01*
X180563Y126594D01*
X180559Y126592D01*
X180556Y126590D01*
X180556Y126590D01*
X180555Y126589D01*
X180553Y126588D01*
X180552Y126586D01*
X180550Y126583D01*
X180548Y126580D01*
X180547Y126577D01*
X180547Y126573D01*
Y126573D01*
Y126571D01*
X180547Y126569D01*
X180548Y126567D01*
X180549Y126564D01*
X180550Y126561D01*
X180552Y126558D01*
X180554Y126555D01*
X180555Y126555D01*
X180556Y126554D01*
X180557Y126553D01*
X180560Y126552D01*
X180562Y126550D01*
X180566Y126549D01*
X180570Y126548D01*
X180574Y126548D01*
X180576D01*
X180579Y126548D01*
X180582Y126549D01*
X180586Y126550D01*
X180590Y126552D01*
X180595Y126554D01*
X180599Y126557D01*
X180600Y126557D01*
X180601Y126558D01*
X180602Y126559D01*
X180604Y126561D01*
X180606Y126564D01*
X180608Y126566D01*
X180610Y126569D01*
X180611Y126573D01*
Y126573D01*
X180611Y126574D01*
X180612Y126576D01*
X180612Y126578D01*
X180612Y126581D01*
X180613Y126585D01*
X180613Y126591D01*
Y126596D01*
Y126606D01*
D02*
G37*
G36*
X170058Y129580D02*
X170004D01*
Y129512D01*
X170061D01*
X170067Y129512D01*
X170072D01*
X170078Y129513D01*
X170083Y129513D01*
X170085D01*
X170087Y129513D01*
X170087D01*
X170089Y129514D01*
X170091Y129514D01*
X170094Y129515D01*
X170097Y129517D01*
X170100Y129518D01*
X170103Y129521D01*
X170106Y129523D01*
X170106Y129524D01*
X170107Y129525D01*
X170108Y129527D01*
X170109Y129529D01*
X170111Y129532D01*
X170112Y129536D01*
X170113Y129540D01*
X170113Y129545D01*
Y129545D01*
Y129547D01*
X170113Y129549D01*
X170112Y129552D01*
X170112Y129555D01*
X170111Y129558D01*
X170109Y129561D01*
X170107Y129565D01*
X170107Y129565D01*
X170106Y129566D01*
X170105Y129568D01*
X170103Y129569D01*
X170101Y129571D01*
X170098Y129573D01*
X170095Y129575D01*
X170091Y129577D01*
X170091D01*
X170089Y129577D01*
X170086Y129578D01*
X170084Y129578D01*
X170081Y129578D01*
X170079Y129579D01*
X170075Y129579D01*
X170072Y129579D01*
X170067D01*
X170063Y129580D01*
X170058Y129580D01*
D02*
G37*
G36*
X170310Y129665D02*
X170276Y129570D01*
X170346D01*
X170310Y129665D01*
D02*
G37*
G36*
X179000Y131473D02*
X178965Y131378D01*
X179036D01*
X179000Y131473D01*
D02*
G37*
G36*
X180982Y126670D02*
X180980D01*
X180977Y126669D01*
X180973Y126668D01*
X180969Y126667D01*
X180965Y126665D01*
X180960Y126662D01*
X180956Y126658D01*
X180956Y126658D01*
X180955Y126656D01*
X180953Y126653D01*
X180951Y126649D01*
X180949Y126645D01*
X180947Y126639D01*
X180946Y126633D01*
X180946Y126626D01*
X181019D01*
Y126626D01*
Y126627D01*
Y126628D01*
X181019Y126629D01*
X181018Y126633D01*
X181018Y126638D01*
X181016Y126643D01*
X181014Y126649D01*
X181011Y126654D01*
X181008Y126658D01*
X181008Y126659D01*
X181006Y126660D01*
X181004Y126662D01*
X181001Y126664D01*
X180997Y126666D01*
X180993Y126668D01*
X180988Y126669D01*
X180982Y126670D01*
D02*
G37*
G36*
X181314Y126629D02*
X181260D01*
Y126561D01*
X181317D01*
X181322Y126561D01*
X181328D01*
X181334Y126562D01*
X181339Y126562D01*
X181341D01*
X181343Y126562D01*
X181343D01*
X181345Y126563D01*
X181347Y126564D01*
X181349Y126564D01*
X181352Y126566D01*
X181356Y126568D01*
X181359Y126570D01*
X181362Y126572D01*
X181362Y126573D01*
X181363Y126574D01*
X181364Y126576D01*
X181365Y126578D01*
X181367Y126581D01*
X181368Y126585D01*
X181369Y126589D01*
X181369Y126594D01*
Y126595D01*
Y126596D01*
X181369Y126598D01*
X181368Y126601D01*
X181368Y126604D01*
X181366Y126607D01*
X181365Y126611D01*
X181363Y126614D01*
X181363Y126614D01*
X181362Y126615D01*
X181361Y126617D01*
X181359Y126618D01*
X181357Y126621D01*
X181354Y126622D01*
X181351Y126624D01*
X181347Y126626D01*
X181346D01*
X181345Y126626D01*
X181342Y126627D01*
X181340Y126627D01*
X181337Y126628D01*
X181335Y126628D01*
X181331Y126628D01*
X181328Y126629D01*
X181323D01*
X181319Y126629D01*
X181314Y126629D01*
D02*
G37*
G36*
X180974Y124111D02*
X180972D01*
X180969Y124110D01*
X180965Y124109D01*
X180961Y124108D01*
X180956Y124106D01*
X180952Y124103D01*
X180948Y124099D01*
X180948Y124098D01*
X180947Y124097D01*
X180945Y124094D01*
X180943Y124090D01*
X180941Y124086D01*
X180939Y124080D01*
X180938Y124074D01*
X180938Y124067D01*
X181011D01*
Y124067D01*
Y124068D01*
Y124069D01*
X181011Y124070D01*
X181010Y124074D01*
X181009Y124079D01*
X181008Y124084D01*
X181006Y124090D01*
X181003Y124095D01*
X181000Y124099D01*
X180999Y124100D01*
X180998Y124101D01*
X180996Y124103D01*
X180993Y124105D01*
X180989Y124107D01*
X180985Y124109D01*
X180980Y124110D01*
X180974Y124111D01*
D02*
G37*
G36*
X181300Y124155D02*
X181265Y124060D01*
X181336D01*
X181300Y124155D01*
D02*
G37*
G36*
X180605Y124047D02*
X180605D01*
X180603Y124047D01*
X180601Y124046D01*
X180598Y124045D01*
X180594Y124044D01*
X180588Y124043D01*
X180582Y124041D01*
X180575Y124040D01*
X180574D01*
X180573Y124039D01*
X180571Y124039D01*
X180568Y124038D01*
X180564Y124037D01*
X180559Y124036D01*
X180555Y124034D01*
X180551Y124033D01*
X180548Y124031D01*
X180548Y124031D01*
X180547Y124030D01*
X180545Y124029D01*
X180544Y124027D01*
X180542Y124024D01*
X180540Y124021D01*
X180539Y124018D01*
X180539Y124014D01*
Y124014D01*
Y124012D01*
X180539Y124010D01*
X180540Y124008D01*
X180541Y124005D01*
X180542Y124002D01*
X180544Y123999D01*
X180546Y123996D01*
X180547Y123996D01*
X180548Y123995D01*
X180549Y123994D01*
X180552Y123993D01*
X180554Y123991D01*
X180558Y123990D01*
X180562Y123989D01*
X180566Y123989D01*
X180568D01*
X180571Y123989D01*
X180574Y123990D01*
X180578Y123991D01*
X180582Y123993D01*
X180587Y123995D01*
X180591Y123997D01*
X180592Y123998D01*
X180593Y123999D01*
X180594Y124000D01*
X180596Y124002D01*
X180598Y124004D01*
X180600Y124007D01*
X180602Y124010D01*
X180603Y124014D01*
Y124014D01*
X180603Y124015D01*
X180604Y124017D01*
X180604Y124019D01*
X180604Y124022D01*
X180605Y124026D01*
X180605Y124032D01*
Y124037D01*
Y124047D01*
D02*
G37*
G36*
X170055Y129682D02*
X170004D01*
Y129623D01*
X170054D01*
X170060Y129623D01*
X170071D01*
X170074Y129624D01*
X170076D01*
X170077Y129624D01*
X170080Y129624D01*
X170083Y129625D01*
X170086Y129626D01*
X170090Y129628D01*
X170093Y129630D01*
X170096Y129632D01*
X170096Y129633D01*
X170097Y129634D01*
X170098Y129635D01*
X170100Y129638D01*
X170101Y129641D01*
X170102Y129644D01*
X170103Y129648D01*
X170104Y129653D01*
Y129653D01*
Y129655D01*
X170103Y129657D01*
X170103Y129660D01*
X170102Y129663D01*
X170101Y129666D01*
X170099Y129669D01*
X170097Y129672D01*
X170097Y129672D01*
X170096Y129673D01*
X170094Y129675D01*
X170092Y129676D01*
X170089Y129678D01*
X170086Y129679D01*
X170082Y129680D01*
X170077Y129681D01*
X170077D01*
X170075Y129681D01*
X170071D01*
X170069Y129682D01*
X170060D01*
X170055Y129682D01*
D02*
G37*
G36*
X180136Y124171D02*
X180098D01*
Y124098D01*
X180133D01*
X180136Y124099D01*
X180142D01*
X180149Y124099D01*
X180156Y124100D01*
X180162Y124101D01*
X180164Y124101D01*
X180167Y124102D01*
X180167Y124103D01*
X180168Y124103D01*
X180170Y124104D01*
X180172Y124105D01*
X180175Y124107D01*
X180178Y124109D01*
X180181Y124112D01*
X180183Y124115D01*
X180183Y124115D01*
X180184Y124116D01*
X180185Y124118D01*
X180186Y124121D01*
X180187Y124124D01*
X180188Y124127D01*
X180188Y124131D01*
X180189Y124135D01*
Y124135D01*
Y124137D01*
X180188Y124140D01*
X180188Y124143D01*
X180187Y124147D01*
X180185Y124151D01*
X180183Y124154D01*
X180180Y124158D01*
X180180Y124158D01*
X180179Y124160D01*
X180177Y124161D01*
X180175Y124163D01*
X180172Y124165D01*
X180168Y124167D01*
X180164Y124168D01*
X180160Y124170D01*
X180159D01*
X180158Y124170D01*
X180155Y124170D01*
X180151Y124171D01*
X180147D01*
X180143Y124171D01*
X180140D01*
X180136Y124171D01*
D02*
G37*
G36*
X170316Y127024D02*
X170283D01*
Y126854D01*
X170328D01*
X170333Y126855D01*
X170338D01*
X170343Y126855D01*
X170348Y126856D01*
X170352Y126857D01*
X170353D01*
X170354Y126857D01*
X170357Y126858D01*
X170360Y126859D01*
X170363Y126861D01*
X170366Y126862D01*
X170370Y126865D01*
X170373Y126867D01*
X170373Y126868D01*
X170374Y126869D01*
X170376Y126871D01*
X170378Y126873D01*
X170380Y126877D01*
X170382Y126881D01*
X170384Y126886D01*
X170386Y126892D01*
Y126892D01*
X170387Y126892D01*
Y126894D01*
X170387Y126895D01*
X170388Y126896D01*
X170388Y126899D01*
X170389Y126904D01*
X170390Y126911D01*
X170391Y126919D01*
X170391Y126928D01*
X170392Y126939D01*
Y126939D01*
Y126940D01*
Y126942D01*
Y126943D01*
Y126946D01*
X170391Y126949D01*
X170391Y126955D01*
X170390Y126963D01*
X170390Y126970D01*
X170388Y126978D01*
X170386Y126984D01*
Y126985D01*
X170386Y126985D01*
X170385Y126987D01*
X170384Y126990D01*
X170382Y126993D01*
X170380Y126997D01*
X170378Y127001D01*
X170375Y127005D01*
X170371Y127009D01*
X170371Y127009D01*
X170370Y127010D01*
X170368Y127012D01*
X170365Y127014D01*
X170361Y127016D01*
X170357Y127018D01*
X170353Y127020D01*
X170348Y127021D01*
X170347D01*
X170345Y127022D01*
X170343Y127022D01*
X170338Y127023D01*
X170336D01*
X170333Y127023D01*
X170329D01*
X170326Y127023D01*
X170321D01*
X170316Y127024D01*
D02*
G37*
G36*
X180144Y126730D02*
X180106D01*
Y126658D01*
X180141D01*
X180144Y126658D01*
X180151D01*
X180157Y126658D01*
X180164Y126659D01*
X180170Y126660D01*
X180172Y126660D01*
X180175Y126661D01*
X180175Y126662D01*
X180177Y126662D01*
X180178Y126663D01*
X180181Y126664D01*
X180183Y126666D01*
X180186Y126668D01*
X180189Y126671D01*
X180191Y126674D01*
X180191Y126674D01*
X180192Y126675D01*
X180193Y126677D01*
X180194Y126680D01*
X180195Y126683D01*
X180196Y126686D01*
X180197Y126690D01*
X180197Y126694D01*
Y126695D01*
Y126696D01*
X180197Y126699D01*
X180196Y126702D01*
X180195Y126706D01*
X180193Y126710D01*
X180191Y126713D01*
X180188Y126717D01*
X180188Y126717D01*
X180187Y126719D01*
X180185Y126720D01*
X180183Y126722D01*
X180180Y126724D01*
X180176Y126726D01*
X180172Y126727D01*
X180168Y126729D01*
X180167D01*
X180166Y126729D01*
X180163Y126729D01*
X180160Y126730D01*
X180155D01*
X180151Y126730D01*
X180148D01*
X180144Y126730D01*
D02*
G37*
G36*
X176228Y131492D02*
X175907D01*
Y131235D01*
X176228D01*
Y131492D01*
D02*
G37*
G36*
X180983Y129291D02*
X180980D01*
X180977Y129290D01*
X180974Y129289D01*
X180969Y129288D01*
X180965Y129286D01*
X180961Y129283D01*
X180956Y129279D01*
X180956Y129278D01*
X180955Y129276D01*
X180953Y129274D01*
X180951Y129270D01*
X180949Y129266D01*
X180948Y129260D01*
X180947Y129254D01*
X180946Y129247D01*
X181019D01*
Y129247D01*
Y129248D01*
Y129249D01*
X181019Y129250D01*
X181019Y129254D01*
X181018Y129259D01*
X181016Y129264D01*
X181015Y129269D01*
X181012Y129275D01*
X181008Y129279D01*
X181008Y129279D01*
X181006Y129281D01*
X181004Y129283D01*
X181001Y129285D01*
X180998Y129287D01*
X180993Y129289D01*
X180988Y129290D01*
X180983Y129291D01*
D02*
G37*
G36*
X172087Y131492D02*
X171804D01*
Y131376D01*
X172087D01*
Y131492D01*
D02*
G37*
G36*
X180145Y129351D02*
X180106D01*
Y129278D01*
X180142D01*
X180144Y129279D01*
X180151D01*
X180158Y129279D01*
X180164Y129280D01*
X180170Y129281D01*
X180173Y129281D01*
X180175Y129282D01*
X180175Y129282D01*
X180177Y129283D01*
X180179Y129284D01*
X180181Y129285D01*
X180184Y129287D01*
X180186Y129289D01*
X180189Y129292D01*
X180191Y129295D01*
X180192Y129295D01*
X180192Y129296D01*
X180193Y129298D01*
X180194Y129301D01*
X180195Y129304D01*
X180197Y129307D01*
X180197Y129311D01*
X180197Y129315D01*
Y129315D01*
Y129317D01*
X180197Y129319D01*
X180196Y129323D01*
X180195Y129326D01*
X180194Y129331D01*
X180192Y129334D01*
X180189Y129338D01*
X180188Y129338D01*
X180187Y129339D01*
X180185Y129341D01*
X180183Y129343D01*
X180180Y129345D01*
X180177Y129347D01*
X180172Y129348D01*
X180168Y129349D01*
X180168D01*
X180166Y129350D01*
X180164Y129350D01*
X180160Y129350D01*
X180155D01*
X180152Y129351D01*
X180148D01*
X180145Y129351D01*
D02*
G37*
G36*
X173558Y131492D02*
X173236D01*
Y131235D01*
X173558D01*
Y131492D01*
D02*
G37*
G36*
X174686Y131492D02*
X174453D01*
Y131235D01*
X174686D01*
X174760Y131363D01*
X174686Y131492D01*
D02*
G37*
G36*
X180394Y131365D02*
X180393D01*
X180392Y131364D01*
X180390Y131364D01*
X180386Y131363D01*
X180382Y131362D01*
X180377Y131360D01*
X180371Y131359D01*
X180363Y131357D01*
X180363D01*
X180362Y131357D01*
X180360Y131356D01*
X180357Y131356D01*
X180352Y131355D01*
X180348Y131354D01*
X180343Y131352D01*
X180340Y131350D01*
X180337Y131349D01*
X180336Y131348D01*
X180335Y131348D01*
X180334Y131346D01*
X180332Y131344D01*
X180331Y131342D01*
X180329Y131339D01*
X180328Y131335D01*
X180328Y131332D01*
Y131331D01*
Y131330D01*
X180328Y131328D01*
X180329Y131326D01*
X180329Y131323D01*
X180331Y131320D01*
X180332Y131317D01*
X180335Y131314D01*
X180335Y131314D01*
X180336Y131313D01*
X180338Y131312D01*
X180341Y131310D01*
X180343Y131309D01*
X180346Y131308D01*
X180351Y131307D01*
X180355Y131307D01*
X180357D01*
X180359Y131307D01*
X180363Y131308D01*
X180367Y131309D01*
X180371Y131310D01*
X180376Y131312D01*
X180380Y131315D01*
X180380Y131315D01*
X180382Y131316D01*
X180383Y131318D01*
X180385Y131319D01*
X180387Y131322D01*
X180389Y131325D01*
X180390Y131328D01*
X180392Y131331D01*
Y131332D01*
X180392Y131332D01*
X180392Y131334D01*
X180393Y131336D01*
X180393Y131340D01*
X180393Y131344D01*
X180394Y131349D01*
Y131355D01*
Y131365D01*
D02*
G37*
G36*
X178772Y131493D02*
X178771D01*
X178769Y131493D01*
X178767Y131492D01*
X178765Y131492D01*
X178762Y131490D01*
X178759Y131489D01*
X178757Y131487D01*
X178756Y131487D01*
X178755Y131486D01*
X178754Y131484D01*
X178753Y131483D01*
X178751Y131480D01*
X178750Y131476D01*
X178748Y131472D01*
X178746Y131467D01*
Y131466D01*
X178746Y131466D01*
Y131465D01*
X178745Y131463D01*
X178745Y131461D01*
X178745Y131458D01*
X178744Y131455D01*
X178744Y131452D01*
X178743Y131447D01*
X178743Y131443D01*
X178743Y131437D01*
X178742Y131432D01*
X178742Y131425D01*
Y131418D01*
X178741Y131410D01*
Y131402D01*
Y131402D01*
Y131400D01*
Y131398D01*
Y131395D01*
Y131391D01*
X178742Y131387D01*
Y131382D01*
X178742Y131378D01*
X178743Y131367D01*
X178743Y131357D01*
X178744Y131352D01*
X178744Y131348D01*
X178745Y131344D01*
X178746Y131340D01*
X178746Y131339D01*
X178747Y131337D01*
X178748Y131334D01*
X178749Y131331D01*
X178751Y131327D01*
X178752Y131324D01*
X178755Y131320D01*
X178757Y131318D01*
X178757Y131317D01*
X178758Y131317D01*
X178760Y131316D01*
X178761Y131315D01*
X178764Y131314D01*
X178766Y131313D01*
X178769Y131312D01*
X178772Y131312D01*
X178774D01*
X178776Y131312D01*
X178778Y131313D01*
X178780Y131314D01*
X178783Y131314D01*
X178785Y131316D01*
X178788Y131318D01*
X178788Y131318D01*
X178789Y131319D01*
X178791Y131320D01*
X178792Y131322D01*
X178794Y131325D01*
X178795Y131329D01*
X178797Y131333D01*
X178799Y131338D01*
Y131338D01*
X178799Y131339D01*
Y131340D01*
X178799Y131342D01*
X178800Y131344D01*
X178800Y131346D01*
X178801Y131349D01*
X178801Y131353D01*
X178802Y131357D01*
X178802Y131362D01*
X178803Y131367D01*
X178803Y131373D01*
X178804Y131379D01*
Y131386D01*
X178804Y131394D01*
Y131402D01*
Y131403D01*
Y131404D01*
Y131407D01*
Y131410D01*
Y131413D01*
X178804Y131418D01*
Y131422D01*
X178803Y131427D01*
X178803Y131438D01*
X178802Y131447D01*
X178801Y131452D01*
X178801Y131457D01*
X178800Y131461D01*
X178799Y131465D01*
Y131465D01*
X178799Y131465D01*
X178798Y131467D01*
X178797Y131470D01*
X178796Y131474D01*
X178794Y131477D01*
X178792Y131481D01*
X178790Y131484D01*
X178788Y131487D01*
X178788Y131487D01*
X178787Y131488D01*
X178785Y131489D01*
X178784Y131490D01*
X178781Y131491D01*
X178779Y131492D01*
X178776Y131493D01*
X178772Y131493D01*
D02*
G37*
G36*
X181311Y126731D02*
X181260D01*
Y126672D01*
X181309D01*
X181316Y126672D01*
X181327D01*
X181329Y126673D01*
X181332D01*
X181333Y126673D01*
X181335Y126673D01*
X181339Y126675D01*
X181342Y126676D01*
X181345Y126677D01*
X181349Y126679D01*
X181352Y126682D01*
X181352Y126682D01*
X181353Y126683D01*
X181354Y126685D01*
X181356Y126687D01*
X181357Y126690D01*
X181358Y126693D01*
X181359Y126697D01*
X181359Y126702D01*
Y126702D01*
Y126704D01*
X181359Y126706D01*
X181359Y126709D01*
X181358Y126712D01*
X181356Y126715D01*
X181355Y126718D01*
X181353Y126721D01*
X181352Y126722D01*
X181352Y126722D01*
X181350Y126724D01*
X181348Y126725D01*
X181345Y126727D01*
X181342Y126728D01*
X181338Y126729D01*
X181333Y126730D01*
X181333D01*
X181331Y126730D01*
X181327D01*
X181325Y126731D01*
X181315D01*
X181311Y126731D01*
D02*
G37*
G36*
X172780Y131492D02*
X172506D01*
Y131403D01*
X172779D01*
X172815Y131449D01*
X172780Y131492D01*
D02*
G37*
G36*
X175450D02*
X175177D01*
Y131403D01*
X175450D01*
X175485Y131449D01*
X175450Y131492D01*
D02*
G37*
G36*
X180613Y129227D02*
X180613D01*
X180612Y129227D01*
X180609Y129226D01*
X180606Y129225D01*
X180602Y129224D01*
X180596Y129222D01*
X180591Y129221D01*
X180583Y129220D01*
X180582D01*
X180581Y129219D01*
X180580Y129219D01*
X180576Y129218D01*
X180572Y129217D01*
X180568Y129216D01*
X180563Y129214D01*
X180559Y129212D01*
X180557Y129211D01*
X180556Y129211D01*
X180555Y129210D01*
X180554Y129208D01*
X180552Y129207D01*
X180550Y129204D01*
X180549Y129201D01*
X180548Y129198D01*
X180547Y129194D01*
Y129194D01*
Y129192D01*
X180548Y129190D01*
X180548Y129188D01*
X180549Y129185D01*
X180550Y129182D01*
X180552Y129179D01*
X180555Y129176D01*
X180555Y129176D01*
X180556Y129175D01*
X180558Y129174D01*
X180560Y129173D01*
X180563Y129171D01*
X180566Y129170D01*
X180570Y129169D01*
X180574Y129169D01*
X180576D01*
X180579Y129169D01*
X180582Y129170D01*
X180586Y129171D01*
X180591Y129173D01*
X180595Y129174D01*
X180600Y129177D01*
X180600Y129178D01*
X180601Y129178D01*
X180603Y129180D01*
X180605Y129182D01*
X180606Y129184D01*
X180608Y129187D01*
X180610Y129190D01*
X180611Y129194D01*
Y129194D01*
X180612Y129195D01*
X180612Y129197D01*
X180612Y129199D01*
X180613Y129202D01*
X180613Y129206D01*
X180613Y129211D01*
Y129217D01*
Y129227D01*
D02*
G37*
%LPD*%
D36*
X178765Y130733D02*
G03*
X178765Y130733I-49J0D01*
G01*
X181521Y125615D02*
G03*
X181521Y125615I-49J0D01*
G01*
X172785Y130010D02*
G03*
X172785Y130010I-49J0D01*
G01*
X181521Y128174D02*
G03*
X181521Y128174I-49J0D01*
G01*
Y130733D02*
G03*
X181521Y130733I-49J0D01*
G01*
X178765Y125615D02*
G03*
X178765Y125615I-49J0D01*
G01*
Y128174D02*
G03*
X178765Y128174I-49J0D01*
G01*
D37*
X173819Y129498D02*
G03*
X173819Y129498I-118J0D01*
G01*
D38*
X170512Y124528D02*
X171437D01*
X171299Y128002D02*
Y128514D01*
X173307Y126624D02*
X176575D01*
X173307Y129892D02*
X176575D01*
Y126624D02*
Y129892D01*
X173307Y126624D02*
Y129892D01*
X168465Y123526D02*
X171437D01*
Y124528D01*
X168465Y123526D02*
Y124365D01*
D39*
X170768Y130187D02*
X172028D01*
X170768Y129478D02*
X172028D01*
X170768D02*
Y130187D01*
X172028Y129478D02*
Y130187D01*
X170472Y128691D02*
X170472Y128691D01*
X170472Y127825D02*
Y128691D01*
Y127825D02*
X172126D01*
Y128691D01*
X170472D02*
X172126D01*
X170866Y127825D02*
X172126D01*
X170866Y127116D02*
X172126D01*
X170866D02*
Y127825D01*
X172126Y127116D02*
Y127825D01*
X176772Y125955D02*
X178032D01*
X176772Y125246D02*
X178032D01*
X176772D02*
Y125955D01*
X178032Y125246D02*
Y125955D01*
X170866Y126447D02*
X172126D01*
X170866Y125738D02*
X172126D01*
X170866D02*
Y126447D01*
X172126Y125738D02*
Y126447D01*
X175492Y125266D02*
X176752D01*
X175492Y124557D02*
X176752D01*
X175492D02*
Y125266D01*
X176752Y124557D02*
Y125266D01*
X177067Y130069D02*
X178327D01*
X177067Y130778D02*
X178327D01*
Y130069D02*
Y130778D01*
X177067Y130069D02*
Y130778D01*
X173307Y130167D02*
Y130876D01*
X172047Y130167D02*
Y130876D01*
Y130167D02*
X173307D01*
X172047Y130876D02*
X173307D01*
X172127Y130167D02*
Y130876D01*
X170866Y126427D02*
X172126D01*
X170866Y127136D02*
X172126D01*
Y126427D02*
Y127136D01*
X170866Y126427D02*
Y127136D01*
X170866Y125758D02*
X172126D01*
X170866Y125049D02*
X172126D01*
X170866D02*
Y125758D01*
X172126Y125049D02*
Y125758D01*
X176772Y125266D02*
X178032D01*
X176772Y124557D02*
X178032D01*
X176772D02*
Y125266D01*
X178032Y124557D02*
Y125266D01*
X170768Y130876D02*
X172028D01*
X170768Y130167D02*
X172028D01*
X170768D02*
Y130876D01*
X172028Y130167D02*
Y130876D01*
D40*
X168839Y129449D02*
X168957D01*
X168839Y126535D02*
Y129449D01*
X170999Y129005D02*
X170966Y129039D01*
X170899D01*
X170866Y129005D01*
Y128872D01*
X170899Y128839D01*
X170966D01*
X170999Y128872D01*
X171066Y128839D02*
X171133D01*
X171099D01*
Y129039D01*
X171066Y129005D01*
X171366Y129039D02*
X171299Y129005D01*
X171233Y128939D01*
Y128872D01*
X171266Y128839D01*
X171333D01*
X171366Y128872D01*
Y128905D01*
X171333Y128939D01*
X171233D01*
X170148Y128096D02*
X170115Y128063D01*
Y127996D01*
X170148Y127963D01*
X170282D01*
X170315Y127996D01*
Y128063D01*
X170282Y128096D01*
X170315Y128163D02*
Y128229D01*
Y128196D01*
X170115D01*
X170148Y128163D01*
X170282Y128329D02*
X170315Y128362D01*
Y128429D01*
X170282Y128462D01*
X170148D01*
X170115Y128429D01*
Y128362D01*
X170148Y128329D01*
X170182D01*
X170215Y128362D01*
Y128462D01*
X170542Y127308D02*
X170509Y127275D01*
Y127209D01*
X170542Y127175D01*
X170675D01*
X170709Y127209D01*
Y127275D01*
X170675Y127308D01*
X170709Y127508D02*
Y127375D01*
X170575Y127508D01*
X170542D01*
X170509Y127475D01*
Y127408D01*
X170542Y127375D01*
Y127575D02*
X170509Y127608D01*
Y127675D01*
X170542Y127708D01*
X170675D01*
X170709Y127675D01*
Y127608D01*
X170675Y127575D01*
X170542D01*
X177240Y126259D02*
X177206Y126292D01*
X177140D01*
X177106Y126259D01*
Y126126D01*
X177140Y126093D01*
X177206D01*
X177240Y126126D01*
X177440Y126093D02*
X177306D01*
X177440Y126226D01*
Y126259D01*
X177406Y126292D01*
X177340D01*
X177306Y126259D01*
X177506Y126093D02*
X177573D01*
X177539D01*
Y126292D01*
X177506Y126259D01*
X170542Y126029D02*
X170509Y125996D01*
Y125929D01*
X170542Y125896D01*
X170675D01*
X170709Y125929D01*
Y125996D01*
X170675Y126029D01*
X170709Y126229D02*
Y126096D01*
X170575Y126229D01*
X170542D01*
X170509Y126196D01*
Y126129D01*
X170542Y126096D01*
X170709Y126429D02*
Y126296D01*
X170575Y126429D01*
X170542D01*
X170509Y126396D01*
Y126329D01*
X170542Y126296D01*
X175960Y124389D02*
X175927Y124422D01*
X175860D01*
X175827Y124389D01*
Y124256D01*
X175860Y124222D01*
X175927D01*
X175960Y124256D01*
X176160Y124222D02*
X176027D01*
X176160Y124356D01*
Y124389D01*
X176127Y124422D01*
X176060D01*
X176027Y124389D01*
X176327Y124222D02*
Y124422D01*
X176227Y124322D01*
X176360D01*
X177889Y129891D02*
X177856Y129924D01*
X177789D01*
X177756Y129891D01*
Y129758D01*
X177789Y129724D01*
X177856D01*
X177889Y129758D01*
X178089Y129724D02*
X177956D01*
X178089Y129858D01*
Y129891D01*
X178056Y129924D01*
X177989D01*
X177956Y129891D01*
X178289Y129924D02*
X178222Y129891D01*
X178156Y129824D01*
Y129758D01*
X178189Y129724D01*
X178256D01*
X178289Y129758D01*
Y129791D01*
X178256Y129824D01*
X178156D01*
X171693Y129344D02*
Y129144D01*
X171793D01*
X171826Y129177D01*
Y129310D01*
X171793Y129344D01*
X171693D01*
X172026D02*
X171959Y129310D01*
X171893Y129244D01*
Y129177D01*
X171926Y129144D01*
X171993D01*
X172026Y129177D01*
Y129210D01*
X171993Y129244D01*
X171893D01*
X170509Y126683D02*
X170709D01*
Y126816D01*
Y127016D02*
Y126883D01*
X170575Y127016D01*
X170542D01*
X170509Y126983D01*
Y126916D01*
X170542Y126883D01*
X170509Y125305D02*
X170709D01*
Y125438D01*
X170542Y125505D02*
X170509Y125538D01*
Y125605D01*
X170542Y125638D01*
X170575D01*
X170609Y125605D01*
Y125572D01*
Y125605D01*
X170642Y125638D01*
X170675D01*
X170709Y125605D01*
Y125538D01*
X170675Y125505D01*
X179110Y130850D02*
Y130984D01*
X179076Y131017D01*
X179010D01*
X178976Y130984D01*
Y130850D01*
X179010Y130817D01*
X179076D01*
X179043Y130884D02*
X179110Y130817D01*
X179076D02*
X179110Y130850D01*
X179176Y131017D02*
X179310D01*
Y130984D01*
X179176Y130850D01*
Y130817D01*
X181866Y125732D02*
Y125865D01*
X181832Y125899D01*
X181766D01*
X181732Y125865D01*
Y125732D01*
X181766Y125699D01*
X181832D01*
X181799Y125765D02*
X181866Y125699D01*
X181832D02*
X181866Y125732D01*
X181932Y125699D02*
X181999D01*
X181966D01*
Y125899D01*
X181932Y125865D01*
X178150Y125157D02*
X178350D01*
Y125058D01*
X178316Y125024D01*
X178250D01*
X178216Y125058D01*
Y125157D01*
Y125091D02*
X178150Y125024D01*
Y124858D02*
X178350D01*
X178250Y124958D01*
Y124824D01*
X178316Y124758D02*
X178350Y124724D01*
Y124658D01*
X178316Y124624D01*
X178283D01*
X178250Y124658D01*
Y124691D01*
Y124658D01*
X178216Y124624D01*
X178183D01*
X178150Y124658D01*
Y124724D01*
X178183Y124758D01*
X170866Y129134D02*
Y129334D01*
X170966D01*
X170999Y129300D01*
Y129234D01*
X170966Y129200D01*
X170866D01*
X170933D02*
X170999Y129134D01*
X171166D02*
Y129334D01*
X171066Y129234D01*
X171199D01*
X171366Y129134D02*
Y129334D01*
X171266Y129234D01*
X171399D01*
X176614Y130820D02*
Y130653D01*
X176647Y130620D01*
X176714D01*
X176747Y130653D01*
Y130820D01*
X176947Y130620D02*
X176814D01*
X176947Y130753D01*
Y130787D01*
X176914Y130820D01*
X176847D01*
X176814Y130787D01*
X181866Y128291D02*
Y128424D01*
X181832Y128458D01*
X181766D01*
X181732Y128424D01*
Y128291D01*
X181766Y128258D01*
X181832D01*
X181799Y128325D02*
X181866Y128258D01*
X181832D02*
X181866Y128291D01*
X182066Y128258D02*
X181932D01*
X182066Y128391D01*
Y128424D01*
X182032Y128458D01*
X181966D01*
X181932Y128424D01*
X181866Y130850D02*
Y130984D01*
X181832Y131017D01*
X181766D01*
X181732Y130984D01*
Y130850D01*
X181766Y130817D01*
X181832D01*
X181799Y130884D02*
X181866Y130817D01*
X181832D02*
X181866Y130850D01*
X181932Y130984D02*
X181966Y131017D01*
X182032D01*
X182066Y130984D01*
Y130950D01*
X182032Y130917D01*
X181999D01*
X182032D01*
X182066Y130884D01*
Y130850D01*
X182032Y130817D01*
X181966D01*
X181932Y130850D01*
X179110Y125703D02*
Y125836D01*
X179076Y125869D01*
X179010D01*
X178976Y125836D01*
Y125703D01*
X179010Y125669D01*
X179076D01*
X179043Y125736D02*
X179110Y125669D01*
X179076D02*
X179110Y125703D01*
X179276Y125669D02*
Y125869D01*
X179176Y125769D01*
X179310D01*
X179110Y128339D02*
Y128473D01*
X179076Y128506D01*
X179010D01*
X178976Y128473D01*
Y128339D01*
X179010Y128306D01*
X179076D01*
X179043Y128373D02*
X179110Y128306D01*
X179076D02*
X179110Y128339D01*
X179310Y128506D02*
X179243Y128473D01*
X179176Y128406D01*
Y128339D01*
X179210Y128306D01*
X179276D01*
X179310Y128339D01*
Y128373D01*
X179276Y128406D01*
X179176D01*
X170074Y127700D02*
X170008D01*
X170041D01*
Y127533D01*
X170008Y127500D01*
X169974D01*
X169941Y127533D01*
X170274Y127700D02*
X170141D01*
Y127600D01*
X170208Y127633D01*
X170241D01*
X170274Y127600D01*
Y127533D01*
X170241Y127500D01*
X170174D01*
X170141Y127533D01*
M02*
