%FSLAX24Y24*%
%MOIN*%
G70*
G01*
G75*
G04 Layer_Physical_Order=2*
G04 Layer_Color=16711680*
%ADD10R,0.0512X0.0394*%
%ADD11R,0.0354X0.0315*%
%ADD12R,0.0315X0.0354*%
%ADD13R,0.0394X0.0512*%
%ADD14O,0.0827X0.0276*%
%ADD15R,0.0790X0.0980*%
%ADD16R,0.0200X0.0940*%
%ADD17R,0.1350X0.1850*%
%ADD18R,0.0532X0.0846*%
%ADD19R,0.0394X0.0945*%
%ADD20R,0.2185X0.2677*%
%ADD21O,0.0827X0.0118*%
%ADD22O,0.0118X0.0827*%
%ADD23R,0.1378X0.0787*%
%ADD24R,0.0571X0.0236*%
%ADD25R,0.1575X0.1181*%
%ADD26R,0.0453X0.0236*%
%ADD27R,0.0236X0.0453*%
%ADD28R,0.0551X0.0433*%
%ADD29R,0.0433X0.0551*%
%ADD30R,0.2200X0.0830*%
%ADD31R,0.0984X0.1575*%
%ADD32C,0.0400*%
%ADD33C,0.0200*%
%ADD34C,0.0500*%
%ADD35C,0.0080*%
%ADD36C,0.0120*%
%ADD37C,0.0800*%
%ADD38C,0.0250*%
%ADD39C,0.0591*%
%ADD40R,0.0591X0.0591*%
%ADD41R,0.0591X0.0591*%
%ADD42C,0.2000*%
%ADD43C,0.0984*%
%ADD44R,0.0394X0.0394*%
%ADD45C,0.0394*%
%ADD46C,0.0320*%
G36*
X48102Y48492D02*
X48266Y48442D01*
X48418Y48361D01*
X48552Y48252D01*
X48661Y48118D01*
X48742Y47966D01*
X48792Y47802D01*
X48809Y47635D01*
X48808Y47630D01*
Y41690D01*
Y39770D01*
Y32630D01*
X48809Y32625D01*
X48792Y32458D01*
X48742Y32294D01*
X48661Y32142D01*
X48552Y32008D01*
X48418Y31899D01*
X48266Y31818D01*
X48102Y31768D01*
X47935Y31751D01*
X47930Y31752D01*
X13880D01*
X13875Y31751D01*
X13708Y31768D01*
X13544Y31818D01*
X13392Y31899D01*
X13258Y32008D01*
X13149Y32142D01*
X13068Y32294D01*
X13018Y32458D01*
X13001Y32625D01*
X13002Y32630D01*
Y47630D01*
X13001Y47635D01*
X13018Y47802D01*
X13068Y47966D01*
X13149Y48118D01*
X13258Y48252D01*
X13392Y48361D01*
X13544Y48442D01*
X13708Y48492D01*
X13875Y48509D01*
X13880Y48508D01*
X46901D01*
X46910Y48428D01*
X46798Y48401D01*
X46643Y48336D01*
X46499Y48248D01*
X46371Y48139D01*
X46262Y48011D01*
X46174Y47867D01*
X46109Y47712D01*
X46070Y47548D01*
X46057Y47380D01*
X46070Y47212D01*
X46109Y47048D01*
X46174Y46893D01*
X46262Y46749D01*
X46371Y46621D01*
X46499Y46512D01*
X46643Y46424D01*
X46798Y46359D01*
X46962Y46320D01*
X47130Y46307D01*
X47298Y46320D01*
X47462Y46359D01*
X47617Y46424D01*
X47761Y46512D01*
X47889Y46621D01*
X47998Y46749D01*
X48086Y46893D01*
X48151Y47048D01*
X48190Y47212D01*
X48203Y47380D01*
X48190Y47548D01*
X48151Y47712D01*
X48086Y47867D01*
X47998Y48011D01*
X47889Y48139D01*
X47761Y48248D01*
X47617Y48336D01*
X47462Y48401D01*
X47350Y48428D01*
X47359Y48508D01*
X47930D01*
X47935Y48509D01*
X48102Y48492D01*
D02*
G37*
%LPC*%
G36*
X35530Y39748D02*
X35435Y39736D01*
X35346Y39699D01*
X35269Y39641D01*
X35211Y39564D01*
X35174Y39475D01*
X35162Y39380D01*
X35174Y39285D01*
X35211Y39196D01*
X35269Y39119D01*
X35346Y39061D01*
X35435Y39024D01*
X35530Y39012D01*
X35625Y39024D01*
X35714Y39061D01*
X35791Y39119D01*
X35849Y39196D01*
X35886Y39285D01*
X35898Y39380D01*
X35886Y39475D01*
X35849Y39564D01*
X35791Y39641D01*
X35714Y39699D01*
X35625Y39736D01*
X35530Y39748D01*
D02*
G37*
G36*
X13770Y39664D02*
X13704Y39658D01*
X13592Y39624D01*
X13490Y39569D01*
X13399Y39495D01*
X13325Y39405D01*
X13270Y39302D01*
X13237Y39190D01*
X13230Y39124D01*
X13770D01*
Y39664D01*
D02*
G37*
G36*
X21730Y41203D02*
X21562Y41190D01*
X21398Y41151D01*
X21243Y41086D01*
X21099Y40998D01*
X20971Y40889D01*
X20862Y40761D01*
X20774Y40617D01*
X20709Y40462D01*
X20670Y40298D01*
X20657Y40130D01*
X20670Y39962D01*
X20709Y39798D01*
X20774Y39643D01*
X20862Y39499D01*
X20971Y39371D01*
X21099Y39262D01*
X21243Y39174D01*
X21398Y39109D01*
X21562Y39070D01*
X21730Y39057D01*
X21898Y39070D01*
X22062Y39109D01*
X22217Y39174D01*
X22361Y39262D01*
X22489Y39371D01*
X22598Y39499D01*
X22686Y39643D01*
X22751Y39798D01*
X22790Y39962D01*
X22803Y40130D01*
X22790Y40298D01*
X22751Y40462D01*
X22686Y40617D01*
X22598Y40761D01*
X22489Y40889D01*
X22361Y40998D01*
X22217Y41086D01*
X22062Y41151D01*
X21898Y41190D01*
X21730Y41203D01*
D02*
G37*
G36*
X15739Y39024D02*
X15199D01*
X15205Y38958D01*
X15239Y38846D01*
X15294Y38744D01*
X15368Y38653D01*
X15458Y38579D01*
X15561Y38524D01*
X15673Y38491D01*
X15739Y38484D01*
Y39024D01*
D02*
G37*
G36*
X14410D02*
X13870D01*
Y38484D01*
X13936Y38491D01*
X14048Y38524D01*
X14151Y38579D01*
X14241Y38653D01*
X14315Y38744D01*
X14370Y38846D01*
X14404Y38958D01*
X14410Y39024D01*
D02*
G37*
G36*
X34530Y39748D02*
X34435Y39736D01*
X34346Y39699D01*
X34269Y39641D01*
X34211Y39564D01*
X34174Y39475D01*
X34162Y39380D01*
X34174Y39285D01*
X34211Y39196D01*
X34269Y39119D01*
X34346Y39061D01*
X34435Y39024D01*
X34530Y39012D01*
X34625Y39024D01*
X34714Y39061D01*
X34791Y39119D01*
X34849Y39196D01*
X34886Y39285D01*
X34898Y39380D01*
X34886Y39475D01*
X34849Y39564D01*
X34791Y39641D01*
X34714Y39699D01*
X34625Y39736D01*
X34530Y39748D01*
D02*
G37*
G36*
X16379Y39024D02*
X15839D01*
Y38484D01*
X15905Y38491D01*
X16016Y38524D01*
X16119Y38579D01*
X16209Y38653D01*
X16283Y38744D01*
X16338Y38846D01*
X16372Y38958D01*
X16379Y39024D01*
D02*
G37*
G36*
X24150Y40215D02*
X24060Y40197D01*
X23984Y40146D01*
X23980Y40140D01*
X23900D01*
X23896Y40146D01*
X23820Y40197D01*
X23730Y40215D01*
X23640Y40197D01*
X23564Y40146D01*
X23513Y40070D01*
X23495Y39980D01*
X23513Y39890D01*
X23564Y39814D01*
X23640Y39763D01*
X23682Y39755D01*
X23738Y39705D01*
X23746Y39663D01*
X23771Y39626D01*
X24076Y39321D01*
X24076Y39321D01*
X24113Y39296D01*
X24155Y39288D01*
X24689D01*
X24695Y39280D01*
X24713Y39190D01*
X24764Y39114D01*
X24840Y39063D01*
X24930Y39045D01*
X25020Y39063D01*
X25096Y39114D01*
X25147Y39190D01*
X25165Y39280D01*
X25147Y39370D01*
X25096Y39446D01*
X25090Y39450D01*
Y39530D01*
X25096Y39534D01*
X25147Y39610D01*
X25165Y39700D01*
X25147Y39790D01*
X25096Y39866D01*
X25020Y39917D01*
X24930Y39935D01*
X24840Y39917D01*
X24764Y39866D01*
X24713Y39790D01*
X24695Y39700D01*
X24689Y39692D01*
X24354D01*
X24324Y39727D01*
X24316Y39814D01*
X24367Y39890D01*
X24385Y39980D01*
X24367Y40070D01*
X24316Y40146D01*
X24240Y40197D01*
X24150Y40215D01*
D02*
G37*
G36*
X46161Y42103D02*
X46015Y42084D01*
X45878Y42027D01*
X45761Y41937D01*
X45670Y41819D01*
X45614Y41683D01*
X45595Y41536D01*
X45614Y41389D01*
X45670Y41252D01*
X45761Y41135D01*
X45878Y41045D01*
X46015Y40988D01*
X46161Y40969D01*
X46308Y40988D01*
X46445Y41045D01*
X46562Y41135D01*
X46653Y41252D01*
X46709Y41389D01*
X46728Y41536D01*
X46709Y41683D01*
X46653Y41819D01*
X46562Y41937D01*
X46445Y42027D01*
X46308Y42084D01*
X46161Y42103D01*
D02*
G37*
G36*
X48130D02*
X47983Y42084D01*
X47847Y42027D01*
X47729Y41937D01*
X47639Y41819D01*
X47582Y41683D01*
X47563Y41536D01*
X47582Y41389D01*
X47639Y41252D01*
X47729Y41135D01*
X47847Y41045D01*
X47983Y40988D01*
X48130Y40969D01*
X48277Y40988D01*
X48413Y41045D01*
X48531Y41135D01*
X48621Y41252D01*
X48678Y41389D01*
X48697Y41536D01*
X48678Y41683D01*
X48621Y41819D01*
X48531Y41937D01*
X48413Y42027D01*
X48277Y42084D01*
X48130Y42103D01*
D02*
G37*
G36*
X35530Y40748D02*
X35435Y40736D01*
X35346Y40699D01*
X35269Y40641D01*
X35211Y40564D01*
X35174Y40475D01*
X35162Y40380D01*
X35174Y40285D01*
X35211Y40196D01*
X35269Y40119D01*
X35346Y40061D01*
X35435Y40024D01*
X35530Y40012D01*
X35625Y40024D01*
X35714Y40061D01*
X35791Y40119D01*
X35849Y40196D01*
X35886Y40285D01*
X35898Y40380D01*
X35886Y40475D01*
X35849Y40564D01*
X35791Y40641D01*
X35714Y40699D01*
X35625Y40736D01*
X35530Y40748D01*
D02*
G37*
G36*
X13870Y39664D02*
Y39124D01*
X14410D01*
X14404Y39190D01*
X14370Y39302D01*
X14315Y39405D01*
X14241Y39495D01*
X14151Y39569D01*
X14048Y39624D01*
X13936Y39658D01*
X13870Y39664D01*
D02*
G37*
G36*
X15739D02*
X15673Y39658D01*
X15561Y39624D01*
X15458Y39569D01*
X15368Y39495D01*
X15294Y39405D01*
X15239Y39302D01*
X15205Y39190D01*
X15199Y39124D01*
X15739D01*
Y39664D01*
D02*
G37*
G36*
X15839D02*
Y39124D01*
X16379D01*
X16372Y39190D01*
X16338Y39302D01*
X16283Y39405D01*
X16209Y39495D01*
X16119Y39569D01*
X16016Y39624D01*
X15905Y39658D01*
X15839Y39664D01*
D02*
G37*
G36*
X13770Y39024D02*
X13230D01*
X13237Y38958D01*
X13270Y38846D01*
X13325Y38744D01*
X13399Y38653D01*
X13490Y38579D01*
X13592Y38524D01*
X13704Y38491D01*
X13770Y38484D01*
Y39024D01*
D02*
G37*
G36*
X27250Y35875D02*
X27160Y35857D01*
X27084Y35806D01*
X27033Y35730D01*
X27015Y35640D01*
X27033Y35550D01*
X27084Y35474D01*
X27160Y35423D01*
X27250Y35405D01*
X27289Y35413D01*
X28546Y34156D01*
X28589Y34128D01*
X28640Y34117D01*
X30412D01*
X30434Y34084D01*
X30510Y34033D01*
X30600Y34015D01*
X30690Y34033D01*
X30766Y34084D01*
X30817Y34160D01*
X30835Y34250D01*
X30817Y34340D01*
X30766Y34416D01*
X30690Y34467D01*
X30600Y34485D01*
X30510Y34467D01*
X30434Y34416D01*
X30412Y34383D01*
X28695D01*
X27477Y35601D01*
X27485Y35640D01*
X27467Y35730D01*
X27416Y35806D01*
X27340Y35857D01*
X27250Y35875D01*
D02*
G37*
G36*
X46161Y35347D02*
X46015Y35328D01*
X45878Y35271D01*
X45761Y35181D01*
X45670Y35063D01*
X45614Y34927D01*
X45595Y34780D01*
X45614Y34633D01*
X45670Y34497D01*
X45761Y34379D01*
X45878Y34289D01*
X46015Y34232D01*
X46161Y34213D01*
X46308Y34232D01*
X46445Y34289D01*
X46562Y34379D01*
X46653Y34497D01*
X46709Y34633D01*
X46728Y34780D01*
X46709Y34927D01*
X46653Y35063D01*
X46562Y35181D01*
X46445Y35271D01*
X46308Y35328D01*
X46161Y35347D01*
D02*
G37*
G36*
X48130D02*
X47983Y35328D01*
X47847Y35271D01*
X47729Y35181D01*
X47639Y35063D01*
X47582Y34927D01*
X47563Y34780D01*
X47582Y34633D01*
X47639Y34497D01*
X47729Y34379D01*
X47847Y34289D01*
X47983Y34232D01*
X48130Y34213D01*
X48277Y34232D01*
X48413Y34289D01*
X48531Y34379D01*
X48621Y34497D01*
X48678Y34633D01*
X48697Y34780D01*
X48678Y34927D01*
X48621Y35063D01*
X48531Y35181D01*
X48413Y35271D01*
X48277Y35328D01*
X48130Y35347D01*
D02*
G37*
G36*
X23690Y34473D02*
X23606Y34462D01*
X23529Y34430D01*
X23462Y34378D01*
X23410Y34311D01*
X23378Y34234D01*
X23367Y34150D01*
X23378Y34066D01*
X23410Y33989D01*
X23462Y33922D01*
X23529Y33870D01*
X23606Y33838D01*
X23690Y33827D01*
X23774Y33838D01*
X23851Y33870D01*
X23918Y33922D01*
X23970Y33989D01*
X24002Y34066D01*
X24013Y34150D01*
X24002Y34234D01*
X23970Y34311D01*
X23918Y34378D01*
X23851Y34430D01*
X23774Y34462D01*
X23690Y34473D01*
D02*
G37*
G36*
X47130Y34053D02*
X46962Y34040D01*
X46798Y34001D01*
X46643Y33936D01*
X46499Y33848D01*
X46371Y33739D01*
X46262Y33611D01*
X46174Y33467D01*
X46109Y33312D01*
X46070Y33148D01*
X46057Y32980D01*
X46070Y32812D01*
X46109Y32648D01*
X46174Y32493D01*
X46262Y32349D01*
X46371Y32221D01*
X46499Y32112D01*
X46643Y32024D01*
X46798Y31959D01*
X46962Y31920D01*
X47130Y31907D01*
X47298Y31920D01*
X47462Y31959D01*
X47617Y32024D01*
X47761Y32112D01*
X47889Y32221D01*
X47998Y32349D01*
X48086Y32493D01*
X48151Y32648D01*
X48190Y32812D01*
X48203Y32980D01*
X48190Y33148D01*
X48151Y33312D01*
X48086Y33467D01*
X47998Y33611D01*
X47889Y33739D01*
X47761Y33848D01*
X47617Y33936D01*
X47462Y34001D01*
X47298Y34040D01*
X47130Y34053D01*
D02*
G37*
G36*
X15789Y34041D02*
X15642Y34022D01*
X15505Y33965D01*
X15388Y33875D01*
X15298Y33758D01*
X15241Y33621D01*
X15236Y33586D01*
X14372D01*
X14368Y33621D01*
X14311Y33758D01*
X14221Y33875D01*
X14104Y33965D01*
X13967Y34022D01*
X13820Y34041D01*
X13673Y34022D01*
X13537Y33965D01*
X13419Y33875D01*
X13329Y33758D01*
X13272Y33621D01*
X13253Y33474D01*
X13272Y33327D01*
X13329Y33191D01*
X13419Y33073D01*
X13537Y32983D01*
X13673Y32926D01*
X13820Y32907D01*
X13967Y32926D01*
X14104Y32983D01*
X14221Y33073D01*
X14311Y33191D01*
X14368Y33327D01*
X14372Y33362D01*
X15236D01*
X15241Y33327D01*
X15298Y33191D01*
X15388Y33073D01*
X15505Y32983D01*
X15642Y32926D01*
X15789Y32907D01*
X15935Y32926D01*
X16072Y32983D01*
X16190Y33073D01*
X16280Y33191D01*
X16336Y33327D01*
X16356Y33474D01*
X16336Y33621D01*
X16280Y33758D01*
X16190Y33875D01*
X16072Y33965D01*
X15935Y34022D01*
X15789Y34041D01*
D02*
G37*
G36*
X21970Y34473D02*
X21886Y34462D01*
X21809Y34430D01*
X21742Y34378D01*
X21690Y34311D01*
X21658Y34234D01*
X21647Y34150D01*
X21658Y34066D01*
X21690Y33989D01*
X21742Y33922D01*
X21809Y33870D01*
X21886Y33838D01*
X21970Y33827D01*
X22054Y33838D01*
X22131Y33870D01*
X22198Y33922D01*
X22250Y33989D01*
X22282Y34066D01*
X22293Y34150D01*
X22282Y34234D01*
X22250Y34311D01*
X22198Y34378D01*
X22131Y34430D01*
X22054Y34462D01*
X21970Y34473D01*
D02*
G37*
G36*
X48130Y38103D02*
X47983Y38084D01*
X47847Y38027D01*
X47729Y37937D01*
X47639Y37819D01*
X47582Y37683D01*
X47563Y37536D01*
X47582Y37389D01*
X47639Y37252D01*
X47729Y37135D01*
X47847Y37045D01*
X47983Y36988D01*
X48130Y36969D01*
X48277Y36988D01*
X48413Y37045D01*
X48531Y37135D01*
X48621Y37252D01*
X48678Y37389D01*
X48697Y37536D01*
X48678Y37683D01*
X48621Y37819D01*
X48531Y37937D01*
X48413Y38027D01*
X48277Y38084D01*
X48130Y38103D01*
D02*
G37*
G36*
X46161Y39347D02*
X46015Y39328D01*
X45878Y39271D01*
X45761Y39181D01*
X45670Y39063D01*
X45614Y38927D01*
X45595Y38780D01*
X45614Y38633D01*
X45670Y38497D01*
X45761Y38379D01*
X45878Y38289D01*
X46015Y38232D01*
X46161Y38213D01*
X46308Y38232D01*
X46445Y38289D01*
X46562Y38379D01*
X46653Y38497D01*
X46709Y38633D01*
X46728Y38780D01*
X46709Y38927D01*
X46653Y39063D01*
X46562Y39181D01*
X46445Y39271D01*
X46308Y39328D01*
X46161Y39347D01*
D02*
G37*
G36*
X48130D02*
X47983Y39328D01*
X47847Y39271D01*
X47729Y39181D01*
X47639Y39063D01*
X47582Y38927D01*
X47563Y38780D01*
X47582Y38633D01*
X47639Y38497D01*
X47729Y38379D01*
X47847Y38289D01*
X47983Y38232D01*
X48130Y38213D01*
X48277Y38232D01*
X48413Y38289D01*
X48531Y38379D01*
X48621Y38497D01*
X48678Y38633D01*
X48697Y38780D01*
X48678Y38927D01*
X48621Y39063D01*
X48531Y39181D01*
X48413Y39271D01*
X48277Y39328D01*
X48130Y39347D01*
D02*
G37*
G36*
X46161Y38103D02*
X46015Y38084D01*
X45878Y38027D01*
X45761Y37937D01*
X45670Y37819D01*
X45614Y37683D01*
X45595Y37536D01*
X45614Y37389D01*
X45670Y37252D01*
X45761Y37135D01*
X45878Y37045D01*
X46015Y36988D01*
X46161Y36969D01*
X46308Y36988D01*
X46445Y37045D01*
X46562Y37135D01*
X46653Y37252D01*
X46709Y37389D01*
X46728Y37536D01*
X46709Y37683D01*
X46653Y37819D01*
X46562Y37937D01*
X46445Y38027D01*
X46308Y38084D01*
X46161Y38103D01*
D02*
G37*
G36*
X35530Y37048D02*
X35435Y37036D01*
X35346Y36999D01*
X35269Y36941D01*
X35211Y36864D01*
X35174Y36775D01*
X35162Y36680D01*
X35174Y36585D01*
X35211Y36496D01*
X35269Y36419D01*
X35346Y36361D01*
X35435Y36324D01*
X35530Y36312D01*
X35625Y36324D01*
X35714Y36361D01*
X35791Y36419D01*
X35849Y36496D01*
X35886Y36585D01*
X35898Y36680D01*
X35886Y36775D01*
X35849Y36864D01*
X35791Y36941D01*
X35714Y36999D01*
X35625Y37036D01*
X35530Y37048D01*
D02*
G37*
G36*
X15789Y36797D02*
X15642Y36778D01*
X15505Y36721D01*
X15388Y36631D01*
X15298Y36513D01*
X15241Y36377D01*
X15236Y36342D01*
X14372D01*
X14368Y36377D01*
X14311Y36513D01*
X14221Y36631D01*
X14104Y36721D01*
X13967Y36778D01*
X13820Y36797D01*
X13673Y36778D01*
X13537Y36721D01*
X13419Y36631D01*
X13329Y36513D01*
X13272Y36377D01*
X13253Y36230D01*
X13272Y36083D01*
X13329Y35947D01*
X13419Y35829D01*
X13537Y35739D01*
X13673Y35682D01*
X13820Y35663D01*
X13967Y35682D01*
X14104Y35739D01*
X14221Y35829D01*
X14311Y35947D01*
X14368Y36083D01*
X14372Y36118D01*
X15236D01*
X15241Y36083D01*
X15298Y35947D01*
X15388Y35829D01*
X15505Y35739D01*
X15642Y35682D01*
X15789Y35663D01*
X15935Y35682D01*
X16072Y35739D01*
X16190Y35829D01*
X16280Y35947D01*
X16336Y36083D01*
X16356Y36230D01*
X16336Y36377D01*
X16280Y36513D01*
X16190Y36631D01*
X16072Y36721D01*
X15935Y36778D01*
X15789Y36797D01*
D02*
G37*
G36*
X43472Y47712D02*
X42358D01*
X42235Y47696D01*
X42120Y47648D01*
X42022Y47573D01*
X41947Y47475D01*
X41900Y47361D01*
X41883Y47238D01*
X41900Y47115D01*
X41947Y47001D01*
X42022Y46903D01*
X42120Y46827D01*
X42235Y46780D01*
X42358Y46764D01*
X42456D01*
Y42780D01*
Y42691D01*
X42137Y42373D01*
X42094Y42316D01*
X42067Y42250D01*
X42058Y42180D01*
X42067Y42110D01*
X42094Y42044D01*
X42137Y41987D01*
X42456Y41669D01*
Y41580D01*
Y37976D01*
X41995Y37515D01*
X41919Y37417D01*
X41872Y37303D01*
X41856Y37180D01*
X41872Y37057D01*
X41919Y36943D01*
X41995Y36845D01*
X42093Y36769D01*
X42207Y36722D01*
X42330Y36706D01*
X43530D01*
X43653Y36722D01*
X43767Y36769D01*
X43865Y36845D01*
X43941Y36943D01*
X43988Y37057D01*
X44004Y37180D01*
X43988Y37303D01*
X43941Y37417D01*
X43865Y37515D01*
X43404Y37976D01*
Y41580D01*
Y41669D01*
X43723Y41987D01*
X43766Y42044D01*
X43793Y42110D01*
X43794Y42118D01*
X43802Y42180D01*
X43794Y42242D01*
X43793Y42250D01*
X43766Y42316D01*
X43723Y42373D01*
X43404Y42691D01*
Y42780D01*
Y46764D01*
X43472D01*
X43595Y46780D01*
X43709Y46827D01*
X43807Y46903D01*
X43883Y47001D01*
X43930Y47115D01*
X43946Y47238D01*
X43930Y47361D01*
X43883Y47475D01*
X43807Y47573D01*
X43709Y47648D01*
X43595Y47696D01*
X43472Y47712D01*
D02*
G37*
G36*
X35530Y41748D02*
X35435Y41736D01*
X35346Y41699D01*
X35269Y41641D01*
X35211Y41564D01*
X35174Y41475D01*
X35162Y41380D01*
X35174Y41285D01*
X35211Y41196D01*
X35269Y41119D01*
X35346Y41061D01*
X35435Y41024D01*
X35530Y41012D01*
X35625Y41024D01*
X35714Y41061D01*
X35791Y41119D01*
X35849Y41196D01*
X35886Y41285D01*
X35898Y41380D01*
X35886Y41475D01*
X35849Y41564D01*
X35791Y41641D01*
X35714Y41699D01*
X35625Y41736D01*
X35530Y41748D01*
D02*
G37*
G36*
X27222Y45766D02*
X26680D01*
Y44928D01*
X27222D01*
Y45766D01*
D02*
G37*
G36*
X40080D02*
X39538D01*
Y44928D01*
X40080D01*
Y45766D01*
D02*
G37*
G36*
X40722D02*
X40180D01*
Y44928D01*
X40722D01*
Y45766D01*
D02*
G37*
G36*
X20722D02*
X20180D01*
Y44928D01*
X20722D01*
Y45766D01*
D02*
G37*
G36*
X35530Y44748D02*
X35435Y44736D01*
X35346Y44699D01*
X35269Y44641D01*
X35211Y44564D01*
X35174Y44475D01*
X35162Y44380D01*
X35174Y44285D01*
X35211Y44196D01*
X35269Y44119D01*
X35346Y44061D01*
X35435Y44024D01*
X35530Y44012D01*
X35625Y44024D01*
X35714Y44061D01*
X35791Y44119D01*
X35849Y44196D01*
X35886Y44285D01*
X35898Y44380D01*
X35886Y44475D01*
X35849Y44564D01*
X35791Y44641D01*
X35714Y44699D01*
X35625Y44736D01*
X35530Y44748D01*
D02*
G37*
G36*
X31730Y47348D02*
X31635Y47336D01*
X31546Y47299D01*
X31469Y47241D01*
X31411Y47164D01*
X31374Y47075D01*
X31362Y46980D01*
X31374Y46885D01*
X31411Y46796D01*
X31469Y46719D01*
X31546Y46661D01*
X31618Y46631D01*
Y45156D01*
X31316Y44855D01*
X31237Y44860D01*
X31206Y44906D01*
X31130Y44957D01*
X31040Y44975D01*
X30950Y44957D01*
X30874Y44906D01*
X30823Y44830D01*
X30805Y44740D01*
X30823Y44650D01*
X30874Y44574D01*
X30950Y44523D01*
X31040Y44505D01*
X31130Y44523D01*
X31206Y44574D01*
X31242Y44628D01*
X31360D01*
X31360Y44628D01*
X31403Y44636D01*
X31439Y44661D01*
X31809Y45031D01*
X31834Y45067D01*
X31842Y45110D01*
X31842Y45110D01*
Y46631D01*
X31914Y46661D01*
X31991Y46719D01*
X32049Y46796D01*
X32086Y46885D01*
X32098Y46980D01*
X32086Y47075D01*
X32049Y47164D01*
X31991Y47241D01*
X31914Y47299D01*
X31825Y47336D01*
X31730Y47348D01*
D02*
G37*
G36*
X20080Y45766D02*
X19538D01*
Y44928D01*
X20080D01*
Y45766D01*
D02*
G37*
G36*
X28680Y47372D02*
X28627Y47365D01*
X28531Y47325D01*
X28448Y47262D01*
X28385Y47179D01*
X28345Y47083D01*
X28338Y47030D01*
X28680D01*
Y47372D01*
D02*
G37*
G36*
X27192Y48137D02*
X26068D01*
Y47065D01*
X25994Y47035D01*
X24949Y48079D01*
X24913Y48104D01*
X24870Y48112D01*
X24870Y48112D01*
X21900D01*
X21857Y48104D01*
X21821Y48079D01*
X21821Y48079D01*
X21501Y47759D01*
X21476Y47723D01*
X21468Y47680D01*
X21468Y47680D01*
Y47266D01*
X20772Y46571D01*
X20692Y46604D01*
Y48137D01*
X19568D01*
Y47603D01*
X18948D01*
X18907Y47635D01*
X18829Y47667D01*
X18745Y47678D01*
X18670D01*
X18587Y47667D01*
X18509Y47635D01*
X18442Y47583D01*
X18391Y47516D01*
X18358Y47439D01*
X18347Y47355D01*
X18358Y47271D01*
X18391Y47194D01*
X18442Y47127D01*
X18509Y47075D01*
X18587Y47043D01*
X18606Y47041D01*
X18659Y47000D01*
X18737Y46968D01*
X18820Y46957D01*
X19568D01*
Y46492D01*
X19200D01*
X19200Y46492D01*
X19157Y46484D01*
X19121Y46459D01*
X19121Y46459D01*
X18551Y45889D01*
X18526Y45853D01*
X18518Y45810D01*
X18518Y45810D01*
Y43552D01*
X18464Y43516D01*
X18413Y43440D01*
X18395Y43350D01*
X18413Y43260D01*
X18464Y43184D01*
X18540Y43133D01*
X18630Y43115D01*
X18720Y43133D01*
X18796Y43184D01*
X18847Y43260D01*
X18865Y43350D01*
X18847Y43440D01*
X18796Y43516D01*
X18742Y43552D01*
Y45764D01*
X19246Y46268D01*
X20740D01*
X20740Y46268D01*
X20783Y46276D01*
X20819Y46301D01*
X21659Y47141D01*
X21659Y47141D01*
X21684Y47177D01*
X21692Y47220D01*
Y47634D01*
X21944Y47886D01*
X22012Y47879D01*
X22041Y47806D01*
X22010Y47775D01*
X21981Y47732D01*
X21971Y47681D01*
Y46955D01*
X21970Y46955D01*
X21880Y46937D01*
X21804Y46886D01*
X21753Y46810D01*
X21735Y46720D01*
X21753Y46630D01*
X21804Y46554D01*
X21880Y46503D01*
X21970Y46485D01*
X22060Y46503D01*
X22136Y46554D01*
X22187Y46630D01*
X22205Y46720D01*
X22197Y46759D01*
X22197Y46760D01*
X22226Y46803D01*
X22236Y46853D01*
Y47626D01*
X22295Y47685D01*
X23977D01*
X24060Y47602D01*
X24049Y47548D01*
X24034Y47516D01*
X23970Y47489D01*
X23908Y47442D01*
X23832D01*
X23770Y47489D01*
X23698Y47519D01*
X23670Y47523D01*
Y47230D01*
X23570D01*
Y47523D01*
X23543Y47519D01*
X23470Y47489D01*
X23408Y47442D01*
X23402Y47433D01*
X23310Y47420D01*
X23255Y47463D01*
X23190Y47490D01*
X23120Y47499D01*
X23050Y47490D01*
X22986Y47463D01*
X22930Y47420D01*
X22919Y47406D01*
X22822D01*
X22810Y47420D01*
X22755Y47463D01*
X22690Y47490D01*
X22620Y47499D01*
X22550Y47490D01*
X22486Y47463D01*
X22430Y47420D01*
X22387Y47365D01*
X22360Y47300D01*
X22351Y47230D01*
X22360Y47160D01*
X22387Y47095D01*
X22430Y47040D01*
X22444Y47029D01*
Y46931D01*
X22430Y46920D01*
X22387Y46865D01*
X22360Y46800D01*
X22351Y46730D01*
X22360Y46660D01*
X22387Y46595D01*
X22430Y46540D01*
X22486Y46497D01*
X22508Y46488D01*
Y46372D01*
X22508Y46372D01*
X22517Y46329D01*
X22541Y46292D01*
X24944Y43889D01*
X24931Y43845D01*
X24908Y43812D01*
X24533D01*
X24465Y43880D01*
X24447Y43970D01*
X24396Y44046D01*
X24320Y44097D01*
X24230Y44115D01*
X24140Y44097D01*
X24064Y44046D01*
X24013Y43970D01*
X23995Y43880D01*
X24013Y43790D01*
X24064Y43714D01*
X24140Y43663D01*
X24230Y43645D01*
X24293Y43658D01*
X24331Y43621D01*
X24331Y43621D01*
X24367Y43596D01*
X24410Y43588D01*
X24557D01*
X24591Y43508D01*
X24575Y43430D01*
X24593Y43340D01*
X24644Y43264D01*
X24646Y43245D01*
X23801Y42399D01*
X23776Y42363D01*
X23768Y42320D01*
X23768Y42320D01*
Y41732D01*
X23714Y41696D01*
X23670Y41630D01*
X23589Y41597D01*
X22907Y42279D01*
X22871Y42304D01*
X22828Y42312D01*
X22828Y42312D01*
X18832D01*
X18796Y42366D01*
X18720Y42417D01*
X18630Y42435D01*
X18540Y42417D01*
X18464Y42366D01*
X18413Y42290D01*
X18395Y42200D01*
X18413Y42110D01*
X18464Y42034D01*
X18540Y41983D01*
X18630Y41965D01*
X18720Y41983D01*
X18796Y42034D01*
X18832Y42088D01*
X22782D01*
X23637Y41233D01*
X23604Y41153D01*
X23228D01*
X23206Y41186D01*
X23130Y41237D01*
X23040Y41255D01*
X22950Y41237D01*
X22874Y41186D01*
X22823Y41110D01*
X22805Y41020D01*
X22823Y40930D01*
X22874Y40854D01*
X22950Y40803D01*
X23040Y40785D01*
X23130Y40803D01*
X23206Y40854D01*
X23228Y40887D01*
X26802D01*
X26824Y40854D01*
X26900Y40803D01*
X26990Y40785D01*
X27080Y40803D01*
X27156Y40854D01*
X27207Y40930D01*
X27225Y41020D01*
X27207Y41110D01*
X27156Y41186D01*
X27080Y41237D01*
X26990Y41255D01*
X26900Y41237D01*
X26824Y41186D01*
X26802Y41153D01*
X24156D01*
X24123Y41233D01*
X24268Y41378D01*
X25318D01*
X25354Y41324D01*
X25430Y41273D01*
X25520Y41255D01*
X25610Y41273D01*
X25686Y41324D01*
X25737Y41400D01*
X25755Y41490D01*
X25737Y41580D01*
X25686Y41656D01*
X25610Y41707D01*
X25520Y41725D01*
X25430Y41707D01*
X25354Y41656D01*
X25318Y41602D01*
X24222D01*
X24222Y41602D01*
X24183Y41594D01*
X24177Y41594D01*
X24099Y41619D01*
X24091Y41628D01*
X24046Y41696D01*
X23992Y41732D01*
Y42274D01*
X24888Y43169D01*
X24894Y43169D01*
X24968Y43144D01*
Y43030D01*
X24968Y43030D01*
X24976Y42987D01*
X25001Y42951D01*
X26401Y41551D01*
X26437Y41526D01*
X26480Y41518D01*
X26480Y41518D01*
X26778D01*
X26814Y41464D01*
X26890Y41413D01*
X26980Y41395D01*
X27070Y41413D01*
X27146Y41464D01*
X27190Y41530D01*
X27271Y41563D01*
X27498Y41335D01*
Y39040D01*
X27498Y39040D01*
X27506Y38997D01*
X27531Y38961D01*
X28021Y38471D01*
X28021Y38471D01*
X28057Y38446D01*
X28100Y38438D01*
X28100Y38438D01*
X29771D01*
X29808Y38388D01*
X29772Y38312D01*
X27972D01*
X27936Y38366D01*
X27860Y38417D01*
X27770Y38435D01*
X27680Y38417D01*
X27604Y38366D01*
X27553Y38290D01*
X27535Y38200D01*
X27553Y38110D01*
X27604Y38034D01*
X27680Y37983D01*
X27770Y37965D01*
X27860Y37983D01*
X27936Y38034D01*
X27972Y38088D01*
X30038D01*
X30038Y38088D01*
X30042Y38089D01*
X30133Y38042D01*
X30133Y38040D01*
X30184Y37964D01*
X30238Y37928D01*
Y37095D01*
X30238Y37095D01*
X30246Y37052D01*
X30271Y37016D01*
X31528Y35759D01*
Y34240D01*
X31528Y34240D01*
X31536Y34197D01*
X31561Y34161D01*
X31915Y33806D01*
X31915Y33806D01*
X31920Y33803D01*
X31925Y33796D01*
X31942Y33717D01*
X31940Y33702D01*
X31911Y33664D01*
X31874Y33575D01*
X31862Y33480D01*
X31874Y33385D01*
X31911Y33296D01*
X31969Y33219D01*
X32046Y33161D01*
X32135Y33124D01*
X32230Y33112D01*
X32270Y33117D01*
X32350Y33053D01*
Y32971D01*
X32350Y32971D01*
X32358Y32928D01*
X32376Y32902D01*
X32363Y32873D01*
X32325Y32836D01*
X32325Y32836D01*
X32230Y32848D01*
X32135Y32836D01*
X32046Y32799D01*
X31969Y32741D01*
X31911Y32664D01*
X31874Y32575D01*
X31862Y32480D01*
X31874Y32385D01*
X31911Y32296D01*
X31969Y32219D01*
X32046Y32161D01*
X32135Y32124D01*
X32230Y32112D01*
X32325Y32124D01*
X32414Y32161D01*
X32491Y32219D01*
X32495Y32226D01*
X32541Y32232D01*
X32596Y32225D01*
X32831Y31991D01*
X32831Y31991D01*
X32867Y31966D01*
X32910Y31958D01*
X32910Y31958D01*
X36550D01*
X36550Y31958D01*
X36593Y31966D01*
X36629Y31991D01*
X36869Y32231D01*
X36869Y32231D01*
X36894Y32267D01*
X36902Y32310D01*
Y34560D01*
X36894Y34603D01*
X36869Y34639D01*
X36869Y34639D01*
X36249Y35259D01*
X36213Y35284D01*
X36170Y35292D01*
X36170Y35292D01*
X35750D01*
X35740Y35312D01*
X35729Y35372D01*
X35791Y35419D01*
X35849Y35496D01*
X35886Y35585D01*
X35898Y35680D01*
X35886Y35775D01*
X35849Y35864D01*
X35791Y35941D01*
X35714Y35999D01*
X35625Y36036D01*
X35530Y36048D01*
X35435Y36036D01*
X35346Y35999D01*
X35269Y35941D01*
X35211Y35864D01*
X35174Y35775D01*
X35162Y35680D01*
X35174Y35585D01*
X35211Y35496D01*
X35269Y35419D01*
X35331Y35372D01*
X35320Y35312D01*
X35310Y35292D01*
X34750D01*
X34740Y35312D01*
X34729Y35372D01*
X34791Y35419D01*
X34849Y35496D01*
X34886Y35585D01*
X34898Y35680D01*
X34886Y35775D01*
X34849Y35864D01*
X34791Y35941D01*
X34714Y35999D01*
X34625Y36036D01*
X34530Y36048D01*
X34435Y36036D01*
X34346Y35999D01*
X34269Y35941D01*
X34211Y35864D01*
X34181Y35792D01*
X33276D01*
X32575Y36494D01*
X32605Y36568D01*
X34165D01*
Y36315D01*
X34895D01*
Y37045D01*
X34165D01*
Y36792D01*
X32489D01*
X29277Y40004D01*
X29307Y40078D01*
X29440D01*
X29440Y40078D01*
X29483Y40086D01*
X29519Y40111D01*
X29869Y40461D01*
X29869Y40461D01*
X29894Y40497D01*
X29902Y40540D01*
X29902Y40540D01*
Y40594D01*
X30248Y40939D01*
X30328Y40906D01*
Y40004D01*
X30274Y39968D01*
X30223Y39892D01*
X30205Y39802D01*
X30223Y39712D01*
X30274Y39636D01*
X30350Y39585D01*
X30440Y39568D01*
X30530Y39585D01*
X30606Y39636D01*
X30657Y39712D01*
X30675Y39802D01*
X30657Y39892D01*
X30606Y39968D01*
X30552Y40004D01*
Y40917D01*
X31677Y42043D01*
X31764Y42016D01*
X31773Y41970D01*
X31824Y41894D01*
X31900Y41843D01*
X31990Y41825D01*
X32080Y41843D01*
X32156Y41894D01*
X32192Y41948D01*
X33804D01*
X34165Y41587D01*
Y41095D01*
Y41095D01*
Y41094D01*
X34165Y41077D01*
X34155Y41008D01*
X34151Y41005D01*
X34138Y40992D01*
X34107Y40962D01*
X33689Y41379D01*
X33653Y41404D01*
X33610Y41412D01*
X33610Y41412D01*
X33018D01*
X32975Y41404D01*
X32939Y41379D01*
X32939Y41379D01*
X32572Y41012D01*
X31342D01*
X31306Y41066D01*
X31230Y41117D01*
X31140Y41135D01*
X31050Y41117D01*
X30974Y41066D01*
X30923Y40990D01*
X30905Y40900D01*
X30923Y40810D01*
X30974Y40734D01*
X31050Y40683D01*
X31140Y40665D01*
X31230Y40683D01*
X31306Y40734D01*
X31342Y40788D01*
X32618D01*
X32618Y40788D01*
X32661Y40796D01*
X32697Y40821D01*
X33065Y41188D01*
X33564D01*
X34204Y40547D01*
X34174Y40475D01*
X34162Y40380D01*
X34174Y40285D01*
X34211Y40196D01*
X34269Y40119D01*
X34346Y40061D01*
X34435Y40024D01*
X34530Y40012D01*
X34625Y40024D01*
X34714Y40061D01*
X34791Y40119D01*
X34849Y40196D01*
X34886Y40285D01*
X34898Y40380D01*
X34886Y40475D01*
X34849Y40564D01*
X34791Y40641D01*
X34714Y40699D01*
X34625Y40736D01*
X34530Y40748D01*
X34435Y40736D01*
X34363Y40706D01*
X34112Y40957D01*
X34142Y40988D01*
X34155Y41002D01*
X34158Y41005D01*
X34227Y41015D01*
X34244Y41015D01*
X34245D01*
X34245D01*
X34895D01*
Y41745D01*
X34323D01*
X33929Y42139D01*
X33893Y42164D01*
X33850Y42172D01*
X33850Y42172D01*
X32192D01*
X32156Y42226D01*
X32080Y42277D01*
X32034Y42286D01*
X32007Y42373D01*
X33903Y44268D01*
X34181D01*
X34211Y44196D01*
X34269Y44119D01*
X34346Y44061D01*
X34435Y44024D01*
X34530Y44012D01*
X34625Y44024D01*
X34714Y44061D01*
X34791Y44119D01*
X34849Y44196D01*
X34886Y44285D01*
X34898Y44380D01*
X34886Y44475D01*
X34849Y44564D01*
X34791Y44641D01*
X34714Y44699D01*
X34625Y44736D01*
X34530Y44748D01*
X34435Y44736D01*
X34346Y44699D01*
X34269Y44641D01*
X34211Y44564D01*
X34181Y44492D01*
X33914D01*
X33881Y44572D01*
X34363Y45054D01*
X34435Y45024D01*
X34530Y45012D01*
X34625Y45024D01*
X34714Y45061D01*
X34791Y45119D01*
X34849Y45196D01*
X34886Y45285D01*
X34898Y45380D01*
X34886Y45475D01*
X34849Y45564D01*
X34791Y45641D01*
X34714Y45699D01*
X34625Y45736D01*
X34530Y45748D01*
X34435Y45736D01*
X34346Y45699D01*
X34269Y45641D01*
X34211Y45564D01*
X34174Y45475D01*
X34162Y45380D01*
X34174Y45285D01*
X34204Y45213D01*
X29711Y40719D01*
X29686Y40683D01*
X29678Y40640D01*
X29678Y40640D01*
Y40586D01*
X29597Y40506D01*
X29510Y40532D01*
X29507Y40550D01*
X29456Y40626D01*
X29402Y40662D01*
Y41094D01*
X34323Y46015D01*
X34895D01*
Y46745D01*
X34165D01*
Y46173D01*
X29211Y41219D01*
X29186Y41183D01*
X29178Y41140D01*
X29178Y41140D01*
Y40662D01*
X29124Y40626D01*
X29073Y40550D01*
X29071Y40540D01*
X28985Y40514D01*
X28949Y40549D01*
X28913Y40574D01*
X28870Y40582D01*
X28870Y40582D01*
X28462D01*
X28426Y40636D01*
X28350Y40687D01*
X28260Y40705D01*
X28180Y40689D01*
X28148Y40698D01*
X28100Y40724D01*
Y41428D01*
X28100Y41428D01*
X28092Y41471D01*
X28067Y41507D01*
X28067Y41507D01*
X27856Y41719D01*
X27882Y41806D01*
X27920Y41813D01*
X27996Y41864D01*
X28047Y41940D01*
X28065Y42030D01*
X28052Y42093D01*
X28226Y42268D01*
X29730D01*
X29730Y42268D01*
X29773Y42276D01*
X29809Y42301D01*
X32417Y44908D01*
X32480Y44895D01*
X32570Y44913D01*
X32646Y44964D01*
X32697Y45040D01*
X32715Y45130D01*
X32697Y45220D01*
X32646Y45296D01*
X32570Y45347D01*
X32480Y45365D01*
X32390Y45347D01*
X32314Y45296D01*
X32263Y45220D01*
X32245Y45130D01*
X32258Y45067D01*
X29684Y42492D01*
X28180D01*
X28180Y42492D01*
X28137Y42484D01*
X28101Y42459D01*
X28101Y42459D01*
X27893Y42252D01*
X27830Y42265D01*
X27740Y42247D01*
X27664Y42196D01*
X27613Y42120D01*
X27606Y42082D01*
X27519Y42056D01*
X27232Y42343D01*
X27254Y42428D01*
X27257Y42431D01*
X27330Y42480D01*
X27381Y42556D01*
X27399Y42646D01*
X27381Y42735D01*
X27330Y42811D01*
X27254Y42862D01*
X27164Y42880D01*
X27125Y42872D01*
X26086Y43911D01*
X26106Y43991D01*
X26580D01*
Y44878D01*
Y45766D01*
X26073D01*
Y45910D01*
X26062Y45961D01*
X26036Y46000D01*
X26044Y46035D01*
X26062Y46080D01*
X28065D01*
X28112Y46006D01*
X28112Y46000D01*
X28081Y45979D01*
X28081Y45979D01*
X27881Y45779D01*
X27856Y45743D01*
X27848Y45700D01*
X27848Y45700D01*
Y44616D01*
X27302Y44071D01*
X27222Y44104D01*
Y44828D01*
X26680D01*
Y43991D01*
X27109D01*
X27142Y43911D01*
X27063Y43832D01*
X27000Y43845D01*
X26910Y43827D01*
X26834Y43776D01*
X26783Y43700D01*
X26765Y43610D01*
X26783Y43520D01*
X26834Y43444D01*
X26910Y43393D01*
X27000Y43375D01*
X27090Y43393D01*
X27166Y43444D01*
X27217Y43520D01*
X27225Y43563D01*
X27307D01*
X27313Y43530D01*
X27364Y43454D01*
X27440Y43403D01*
X27530Y43385D01*
X27620Y43403D01*
X27696Y43454D01*
X27732Y43508D01*
X29490D01*
X29490Y43508D01*
X29533Y43516D01*
X29569Y43541D01*
X30579Y44551D01*
X30579Y44551D01*
X30604Y44587D01*
X30612Y44630D01*
X30612Y44630D01*
Y46552D01*
X30692Y46617D01*
X30730Y46612D01*
X30825Y46624D01*
X30914Y46661D01*
X30991Y46719D01*
X31049Y46796D01*
X31086Y46885D01*
X31098Y46980D01*
X31086Y47075D01*
X31049Y47164D01*
X30991Y47241D01*
X30914Y47299D01*
X30825Y47336D01*
X30730Y47348D01*
X30635Y47336D01*
X30546Y47299D01*
X30469Y47241D01*
X30413Y47166D01*
X30378Y47160D01*
X30325Y47166D01*
X30309Y47189D01*
X30309Y47189D01*
X30034Y47465D01*
X29998Y47489D01*
X29955Y47497D01*
X29955Y47497D01*
X29535D01*
X29492Y47489D01*
X29456Y47465D01*
X29456Y47465D01*
X29154Y47163D01*
X29108Y47172D01*
X29068Y47189D01*
X29012Y47262D01*
X28929Y47325D01*
X28833Y47365D01*
X28780Y47372D01*
Y46980D01*
X28730D01*
Y46930D01*
X28338D01*
X28345Y46877D01*
X28385Y46781D01*
X28448Y46698D01*
X28531Y46635D01*
X28622Y46597D01*
X28628Y46593D01*
X28660Y46510D01*
X28650Y46495D01*
X27192D01*
Y47798D01*
X31754D01*
X32365Y47187D01*
Y46615D01*
X33095D01*
Y47345D01*
X32523D01*
X31879Y47989D01*
X31843Y48014D01*
X31800Y48022D01*
X31800Y48022D01*
X27192D01*
Y48137D01*
D02*
G37*
G36*
X40692D02*
X39568D01*
Y48103D01*
X39530D01*
X39446Y48092D01*
X39369Y48060D01*
X39302Y48008D01*
X39250Y47941D01*
X39218Y47864D01*
X39207Y47780D01*
X39218Y47696D01*
X39250Y47619D01*
X39302Y47552D01*
X39369Y47500D01*
X39446Y47468D01*
X39530Y47457D01*
X39568D01*
Y46423D01*
X40692D01*
Y47378D01*
X40752Y47431D01*
X40760Y47430D01*
X40843Y47441D01*
X40921Y47473D01*
X40988Y47524D01*
X41039Y47591D01*
X41072Y47669D01*
X41083Y47752D01*
X41072Y47836D01*
X41039Y47914D01*
X40988Y47981D01*
X40961Y48008D01*
X40894Y48060D01*
X40816Y48092D01*
X40732Y48103D01*
X40692D01*
Y48137D01*
D02*
G37*
G36*
X35530Y46748D02*
X35435Y46736D01*
X35346Y46699D01*
X35269Y46641D01*
X35211Y46564D01*
X35174Y46475D01*
X35162Y46380D01*
X35174Y46285D01*
X35211Y46196D01*
X35269Y46119D01*
X35346Y46061D01*
X35435Y46024D01*
X35530Y46012D01*
X35625Y46024D01*
X35714Y46061D01*
X35791Y46119D01*
X35849Y46196D01*
X35886Y46285D01*
X35898Y46380D01*
X35886Y46475D01*
X35849Y46564D01*
X35791Y46641D01*
X35714Y46699D01*
X35625Y46736D01*
X35530Y46748D01*
D02*
G37*
G36*
X46161Y46103D02*
X46015Y46084D01*
X45878Y46027D01*
X45761Y45937D01*
X45670Y45819D01*
X45614Y45683D01*
X45595Y45536D01*
X45614Y45389D01*
X45670Y45252D01*
X45761Y45135D01*
X45878Y45045D01*
X46015Y44988D01*
X46161Y44969D01*
X46308Y44988D01*
X46445Y45045D01*
X46562Y45135D01*
X46653Y45252D01*
X46709Y45389D01*
X46728Y45536D01*
X46709Y45683D01*
X46653Y45819D01*
X46562Y45937D01*
X46445Y46027D01*
X46308Y46084D01*
X46161Y46103D01*
D02*
G37*
G36*
X48130D02*
X47983Y46084D01*
X47847Y46027D01*
X47729Y45937D01*
X47639Y45819D01*
X47582Y45683D01*
X47563Y45536D01*
X47582Y45389D01*
X47639Y45252D01*
X47729Y45135D01*
X47847Y45045D01*
X47983Y44988D01*
X48130Y44969D01*
X48277Y44988D01*
X48413Y45045D01*
X48531Y45135D01*
X48621Y45252D01*
X48678Y45389D01*
X48697Y45536D01*
X48678Y45683D01*
X48621Y45819D01*
X48531Y45937D01*
X48413Y46027D01*
X48277Y46084D01*
X48130Y46103D01*
D02*
G37*
G36*
X35530Y45748D02*
X35435Y45736D01*
X35346Y45699D01*
X35269Y45641D01*
X35211Y45564D01*
X35174Y45475D01*
X35162Y45380D01*
X35174Y45285D01*
X35211Y45196D01*
X35269Y45119D01*
X35346Y45061D01*
X35435Y45024D01*
X35530Y45012D01*
X35625Y45024D01*
X35714Y45061D01*
X35791Y45119D01*
X35849Y45196D01*
X35886Y45285D01*
X35898Y45380D01*
X35886Y45475D01*
X35849Y45564D01*
X35791Y45641D01*
X35714Y45699D01*
X35625Y45736D01*
X35530Y45748D01*
D02*
G37*
G36*
X13770Y42420D02*
X13704Y42414D01*
X13592Y42380D01*
X13490Y42325D01*
X13399Y42251D01*
X13325Y42161D01*
X13270Y42058D01*
X13237Y41946D01*
X13230Y41880D01*
X13770D01*
Y42420D01*
D02*
G37*
G36*
X13870D02*
Y41880D01*
X14410D01*
X14404Y41946D01*
X14370Y42058D01*
X14315Y42161D01*
X14241Y42251D01*
X14151Y42325D01*
X14048Y42380D01*
X13936Y42414D01*
X13870Y42420D01*
D02*
G37*
G36*
X15739D02*
X15673Y42414D01*
X15561Y42380D01*
X15458Y42325D01*
X15368Y42251D01*
X15294Y42161D01*
X15239Y42058D01*
X15205Y41946D01*
X15199Y41880D01*
X15739D01*
Y42420D01*
D02*
G37*
G36*
X16379Y41780D02*
X15839D01*
Y41240D01*
X15905Y41246D01*
X16016Y41280D01*
X16119Y41335D01*
X16209Y41409D01*
X16283Y41499D01*
X16338Y41602D01*
X16372Y41714D01*
X16379Y41780D01*
D02*
G37*
G36*
X13770D02*
X13230D01*
X13237Y41714D01*
X13270Y41602D01*
X13325Y41499D01*
X13399Y41409D01*
X13490Y41335D01*
X13592Y41280D01*
X13704Y41246D01*
X13770Y41240D01*
Y41780D01*
D02*
G37*
G36*
X14410D02*
X13870D01*
Y41240D01*
X13936Y41246D01*
X14048Y41280D01*
X14151Y41335D01*
X14241Y41409D01*
X14315Y41499D01*
X14370Y41602D01*
X14404Y41714D01*
X14410Y41780D01*
D02*
G37*
G36*
X15739D02*
X15199D01*
X15205Y41714D01*
X15239Y41602D01*
X15294Y41499D01*
X15368Y41409D01*
X15458Y41335D01*
X15561Y41280D01*
X15673Y41246D01*
X15739Y41240D01*
Y41780D01*
D02*
G37*
G36*
X20722Y44828D02*
X20180D01*
Y43991D01*
X20722D01*
Y44828D01*
D02*
G37*
G36*
X20080D02*
X19538D01*
Y43991D01*
X20080D01*
Y44828D01*
D02*
G37*
G36*
X40722D02*
X40180D01*
Y43991D01*
X40722D01*
Y44828D01*
D02*
G37*
G36*
X40080D02*
X39538D01*
Y43991D01*
X40080D01*
Y44828D01*
D02*
G37*
G36*
X46161Y43347D02*
X46015Y43328D01*
X45878Y43271D01*
X45761Y43181D01*
X45670Y43063D01*
X45614Y42927D01*
X45595Y42780D01*
X45614Y42633D01*
X45670Y42497D01*
X45761Y42379D01*
X45878Y42289D01*
X46015Y42232D01*
X46161Y42213D01*
X46308Y42232D01*
X46445Y42289D01*
X46562Y42379D01*
X46653Y42497D01*
X46709Y42633D01*
X46728Y42780D01*
X46709Y42927D01*
X46653Y43063D01*
X46562Y43181D01*
X46445Y43271D01*
X46308Y43328D01*
X46161Y43347D01*
D02*
G37*
G36*
X15839Y42420D02*
Y41880D01*
X16379D01*
X16372Y41946D01*
X16338Y42058D01*
X16283Y42161D01*
X16209Y42251D01*
X16119Y42325D01*
X16016Y42380D01*
X15905Y42414D01*
X15839Y42420D01*
D02*
G37*
G36*
X48130Y43347D02*
X47983Y43328D01*
X47847Y43271D01*
X47729Y43181D01*
X47639Y43063D01*
X47582Y42927D01*
X47563Y42780D01*
X47582Y42633D01*
X47639Y42497D01*
X47729Y42379D01*
X47847Y42289D01*
X47983Y42232D01*
X48130Y42213D01*
X48277Y42232D01*
X48413Y42289D01*
X48531Y42379D01*
X48621Y42497D01*
X48678Y42633D01*
X48697Y42780D01*
X48678Y42927D01*
X48621Y43063D01*
X48531Y43181D01*
X48413Y43271D01*
X48277Y43328D01*
X48130Y43347D01*
D02*
G37*
%LPD*%
G36*
X33151Y35601D02*
X33151Y35601D01*
X33187Y35576D01*
X33230Y35568D01*
X33230Y35568D01*
X33514D01*
X33521Y35548D01*
X33527Y35488D01*
X33464Y35446D01*
X33413Y35370D01*
X33395Y35280D01*
X33413Y35190D01*
X33464Y35114D01*
X33540Y35063D01*
X33630Y35045D01*
X33720Y35063D01*
X33796Y35114D01*
X33832Y35168D01*
X34134D01*
X34201Y35101D01*
X34201Y35101D01*
X34237Y35076D01*
X34280Y35068D01*
X34310D01*
X34320Y35048D01*
X34331Y34988D01*
X34269Y34941D01*
X34211Y34864D01*
X34174Y34775D01*
X34162Y34680D01*
X34174Y34585D01*
X34211Y34496D01*
X34147Y34448D01*
X34090Y34487D01*
X34000Y34505D01*
X33910Y34487D01*
X33834Y34436D01*
X33783Y34360D01*
X33765Y34270D01*
X33771Y34240D01*
X33698Y34201D01*
X32992Y34907D01*
X33005Y34970D01*
X32987Y35060D01*
X32936Y35136D01*
X32860Y35187D01*
X32770Y35204D01*
X32680Y35187D01*
X32604Y35136D01*
X32553Y35060D01*
X32535Y34970D01*
X32553Y34880D01*
X32604Y34804D01*
X32680Y34753D01*
X32770Y34735D01*
X32833Y34748D01*
X33661Y33921D01*
X33661Y33921D01*
X33697Y33896D01*
X33740Y33888D01*
X33740Y33888D01*
X34051D01*
X34067Y33808D01*
X34046Y33799D01*
X33969Y33741D01*
X33911Y33664D01*
X33874Y33575D01*
X33862Y33480D01*
X33874Y33385D01*
X33911Y33296D01*
X33937Y33262D01*
X33897Y33182D01*
X33563D01*
X33523Y33262D01*
X33549Y33296D01*
X33586Y33385D01*
X33598Y33480D01*
X33586Y33575D01*
X33549Y33664D01*
X33491Y33741D01*
X33414Y33799D01*
X33325Y33836D01*
X33230Y33848D01*
X33135Y33836D01*
X33046Y33799D01*
X32994Y33759D01*
X32914Y33793D01*
Y33951D01*
X32914Y33951D01*
X32906Y33994D01*
X32881Y34031D01*
X32593Y34319D01*
X32556Y34344D01*
X32513Y34352D01*
X32513Y34352D01*
X32272D01*
X32236Y34406D01*
X32160Y34457D01*
X32070Y34475D01*
X31980Y34457D01*
X31904Y34406D01*
X31877Y34365D01*
X31787Y34340D01*
X31774Y34342D01*
X31752Y34358D01*
Y35805D01*
X31744Y35848D01*
X31719Y35884D01*
X31719Y35884D01*
X30462Y37141D01*
Y37928D01*
X30516Y37964D01*
X30567Y38040D01*
X30572Y38066D01*
X30659Y38093D01*
X33151Y35601D01*
D02*
G37*
G36*
X25916Y46796D02*
Y46383D01*
X25885Y46345D01*
X25692D01*
X24887Y47151D01*
Y47497D01*
X24541D01*
X24224Y47814D01*
X24254Y47888D01*
X24824D01*
X25916Y46796D01*
D02*
G37*
D31*
X20130Y44878D02*
D03*
Y47280D02*
D03*
X26630Y44878D02*
D03*
Y47280D02*
D03*
X40130Y44878D02*
D03*
Y47280D02*
D03*
D32*
X42330Y42180D02*
X42930Y41580D01*
X42330Y42180D02*
X42930Y42780D01*
Y41580D02*
X43530Y42180D01*
X42930Y42780D02*
X43530Y42180D01*
X42930D02*
X43530D01*
X42330D02*
X42930D01*
D34*
X18820Y47280D02*
X19830D01*
X18745Y47355D02*
X18820Y47280D01*
X18670Y47355D02*
X18745D01*
X40732Y47780D02*
X40760Y47752D01*
X39530Y47780D02*
X40130D01*
X40732D01*
D35*
X29730Y42380D02*
X32480Y45130D01*
X28180Y42380D02*
X29730D01*
X27830Y42030D02*
X28180Y42380D01*
X31640Y34240D02*
Y35805D01*
X30350Y37095D02*
X31640Y35805D01*
X30350Y37095D02*
Y38130D01*
X27770Y38200D02*
X30038D01*
X30238Y38400D01*
X30510D01*
X33230Y35680D01*
X34530D01*
X28982Y40140D02*
X32442Y36680D01*
X28740Y40140D02*
X28982D01*
X32442Y36680D02*
X34530D01*
X31640Y34240D02*
X31995Y33885D01*
X32510D01*
X20130Y35580D02*
X20330D01*
X33850Y42060D02*
X34530Y41380D01*
X31990Y42060D02*
X33850D01*
X33018Y41300D02*
X33610D01*
X34530Y40380D01*
X32618Y40900D02*
X33018Y41300D01*
X31140Y40900D02*
X32618D01*
X27838Y39762D02*
X28040Y39560D01*
X27838Y39762D02*
Y41366D01*
X24222Y41490D02*
X25520D01*
X23992Y41260D02*
X24222Y41490D01*
X23768Y41260D02*
X23992D01*
X22828Y42200D02*
X23768Y41260D01*
X23880Y41530D02*
Y42320D01*
X24620Y44796D02*
X27988Y41428D01*
X24120Y45084D02*
X27838Y41366D01*
X27610Y39040D02*
Y41382D01*
X22620Y46372D02*
X27610Y41382D01*
X27988Y40246D02*
Y41428D01*
X27610Y39040D02*
X28100Y38550D01*
X27988Y40246D02*
X29119Y39115D01*
X24620Y44796D02*
Y46730D01*
X24120Y45084D02*
Y46730D01*
X22620Y46372D02*
Y46730D01*
X28260Y40470D02*
X28870D01*
X31360Y44740D02*
X31730Y45110D01*
X31040Y44740D02*
X31360D01*
X31730Y45110D02*
Y46980D01*
X27000Y43610D02*
X27960Y44570D01*
X27530Y43620D02*
X29490D01*
X25080Y43030D02*
X26480Y41630D01*
X30440Y40964D02*
X33856Y44380D01*
X30500Y44630D02*
Y46750D01*
X29490Y43620D02*
X30500Y44630D01*
X30230Y45056D02*
Y47110D01*
X28160Y45900D02*
X28400D01*
X28768Y46383D02*
X29140Y46755D01*
X26028Y46383D02*
X28768D01*
X26480Y41630D02*
X26980D01*
X25080Y43030D02*
Y43542D01*
X24922Y43700D02*
X25080Y43542D01*
X26630Y47280D02*
Y47603D01*
Y47910D01*
X24410Y43700D02*
X24922D01*
X24230Y43880D02*
X24410Y43700D01*
X33630Y35280D02*
X34180D01*
X34280Y35180D01*
X24030Y39780D02*
Y39860D01*
X24810Y39580D02*
X24930Y39700D01*
X24030Y39780D02*
X24230Y39580D01*
X24810D01*
X24030Y39860D02*
X24150Y39980D01*
X23850Y39705D02*
Y39860D01*
X24810Y39400D02*
X24930Y39280D01*
X23850Y39705D02*
X24155Y39400D01*
X24810D01*
X23730Y39980D02*
X23850Y39860D01*
X37768Y45243D02*
X37817D01*
X18380Y40030D02*
X18630Y40280D01*
X19130D01*
X18130Y40780D02*
X18630D01*
X19130D01*
X13820Y33474D02*
X15789D01*
X13820Y36230D02*
X15789D01*
X28100Y38550D02*
X30000D01*
X27960Y44570D02*
Y45700D01*
X28160Y45900D01*
X30500Y46750D02*
X30730Y46980D01*
X32770Y34970D02*
X33740Y34000D01*
X34710D01*
X35230Y33480D01*
X24810Y43250D02*
Y43430D01*
X28870Y40470D02*
X29150Y40190D01*
X29440D01*
X29790Y40540D01*
Y40640D01*
X34530Y45380D01*
X29290Y40460D02*
Y41140D01*
X34530Y46380D01*
X30440Y39802D02*
Y40964D01*
X33856Y44380D02*
X34530D01*
X32510Y33885D02*
X32635Y33760D01*
Y33075D02*
Y33760D01*
Y33075D02*
X33230Y32480D01*
X35820Y33070D02*
X36230Y33480D01*
X33030Y33070D02*
X35820D01*
X32802Y33298D02*
X33030Y33070D01*
X32802Y33298D02*
Y33951D01*
X32513Y34240D02*
X32802Y33951D01*
X32070Y34240D02*
X32513D01*
X32230Y33480D02*
X32462Y33248D01*
Y32971D02*
Y33248D01*
Y32971D02*
X32662Y32770D01*
Y32318D02*
Y32770D01*
Y32318D02*
X32910Y32070D01*
X36550D01*
X36790Y32310D01*
Y34560D01*
X36170Y35180D02*
X36790Y34560D01*
X34280Y35180D02*
X36170D01*
X34000Y34270D02*
X36450D01*
X36640Y34080D01*
Y32890D02*
Y34080D01*
X36230Y32480D02*
X36640Y32890D01*
X31800Y47910D02*
X32730Y46980D01*
X18630Y43350D02*
Y45810D01*
X19200Y46380D01*
X20740D01*
X21580Y47220D01*
Y47680D01*
X21900Y48000D01*
X24870D01*
X26028Y46842D01*
Y46383D02*
Y46842D01*
X29140Y46755D02*
Y46990D01*
X29535Y47385D01*
X29955D01*
X30230Y47110D01*
X22820Y36867D02*
X23533Y37580D01*
X23930D01*
X21617Y36867D02*
X22820D01*
X20330Y35580D02*
X21617Y36867D01*
X26333Y47900D02*
X26630Y47603D01*
X19830Y47280D02*
X20130D01*
X40130Y47780D02*
X40158Y47752D01*
X18630Y42200D02*
X22828D01*
X23880Y42320D02*
X24810Y43250D01*
X26630Y47910D02*
X31800D01*
X40158Y47752D02*
X40760D01*
D36*
X19220Y40870D02*
X20000D01*
X19130Y40780D02*
X19220Y40870D01*
X23040Y41020D02*
X26990D01*
X30120Y43320D02*
X30670Y43870D01*
X26830Y43320D02*
X30120D01*
X30670Y43870D02*
Y45060D01*
X26630Y43520D02*
X26830Y43320D01*
X25940Y43870D02*
X27164Y42646D01*
X26630Y43520D02*
Y44878D01*
X25638Y46213D02*
X28963D01*
X29730Y46980D01*
X25940Y43870D02*
Y45910D01*
X13820Y41830D02*
X15789D01*
X23620Y47230D02*
X24120D01*
X20300Y45930D02*
X21930D01*
X21970Y46720D02*
X22103Y46853D01*
Y47681D01*
X22240Y47818D01*
X24032D01*
X24620Y47230D01*
X19600Y41250D02*
X20430D01*
X39030Y37780D02*
Y38358D01*
Y37780D02*
X39722Y37088D01*
X38806Y45050D02*
X38976Y44880D01*
X29305Y47555D02*
X30965D01*
X31160Y47360D01*
Y45550D02*
Y47360D01*
X30670Y45060D02*
X31160Y45550D01*
X39004Y43306D02*
X39170Y43140D01*
X20130Y45760D02*
X20300Y45930D01*
X30950Y37130D02*
X31420Y36660D01*
X21110Y42930D02*
X24090D01*
X20130Y43910D02*
X21110Y42930D01*
X20130Y43910D02*
Y44878D01*
X22293Y46080D02*
Y47443D01*
X22410Y47560D01*
X23290D01*
X23620Y47230D01*
X28730Y46980D02*
X29305Y47555D01*
X31855D02*
X32160Y47250D01*
Y46710D02*
Y47250D01*
Y46710D02*
X32320Y46550D01*
X33780D01*
X34270Y47040D01*
X34810D01*
X35100Y46750D01*
Y46080D02*
Y46750D01*
Y46080D02*
X35300Y45880D01*
X35988D01*
X39170Y42698D01*
X27250Y35640D02*
X28640Y34250D01*
X30600D01*
X25638Y46213D02*
X25940Y45910D01*
X24620Y47230D02*
X25638Y46213D01*
X18630Y40280D02*
X19130Y40780D01*
X19600Y41250D01*
X20130Y44878D02*
Y45680D01*
Y45760D01*
X30965Y47555D02*
X31855D01*
X39170Y41600D02*
Y42698D01*
Y43140D01*
X40130Y44878D02*
Y44880D01*
Y45800D01*
X20130Y45680D02*
X21893D01*
X22293Y46080D01*
X38976Y44880D02*
X40130D01*
X42360Y48030D02*
X45360D01*
X40130Y45800D02*
X42360Y48030D01*
D37*
X42930Y42180D02*
Y42780D01*
Y41580D02*
Y42180D01*
Y37780D02*
Y41580D01*
Y37180D02*
Y37780D01*
Y37180D02*
X43530D01*
X42330D02*
X42930D01*
Y47238D02*
X43472D01*
X42358D02*
X42930D01*
Y37780D02*
X43530Y37180D01*
X42930Y42780D02*
Y47238D01*
X42330Y37180D02*
X42930Y37780D01*
D39*
X35530Y44380D02*
D03*
X34530D02*
D03*
X35530Y45380D02*
D03*
X34530D02*
D03*
X35530Y46380D02*
D03*
Y39380D02*
D03*
X34530D02*
D03*
X35530Y40380D02*
D03*
X34530D02*
D03*
X35530Y41380D02*
D03*
X36230Y32480D02*
D03*
X35230Y33480D02*
D03*
Y32480D02*
D03*
X34230Y33480D02*
D03*
Y32480D02*
D03*
X33230Y33480D02*
D03*
Y32480D02*
D03*
X32230Y33480D02*
D03*
Y32480D02*
D03*
X35530Y34680D02*
D03*
X34530D02*
D03*
X35530Y35680D02*
D03*
X34530D02*
D03*
X35530Y36680D02*
D03*
X31730Y46980D02*
D03*
X30730D02*
D03*
X29730D02*
D03*
X28730D02*
D03*
D40*
X34530Y46380D02*
D03*
Y41380D02*
D03*
Y36680D02*
D03*
D41*
X36230Y33480D02*
D03*
X32730Y46980D02*
D03*
D42*
X47130Y47380D02*
D03*
X21730Y40130D02*
D03*
X47130Y32980D02*
D03*
D43*
X46161Y37536D02*
D03*
Y34780D02*
D03*
X48130Y37536D02*
D03*
Y34780D02*
D03*
X46161Y41536D02*
D03*
Y38780D02*
D03*
X48130Y41536D02*
D03*
Y38780D02*
D03*
X46161Y45536D02*
D03*
Y42780D02*
D03*
X48130Y45536D02*
D03*
Y42780D02*
D03*
X15789Y39074D02*
D03*
Y41830D02*
D03*
X13820Y39074D02*
D03*
Y41830D02*
D03*
X15789Y33474D02*
D03*
Y36230D02*
D03*
X13820Y33474D02*
D03*
Y36230D02*
D03*
D44*
X24620Y47230D02*
D03*
D45*
Y46730D02*
D03*
X24120Y47230D02*
D03*
Y46730D02*
D03*
X23620Y47230D02*
D03*
Y46730D02*
D03*
X23120Y47230D02*
D03*
Y46730D02*
D03*
X22620Y47230D02*
D03*
Y46730D02*
D03*
D46*
X28380Y42030D02*
D03*
X29430Y42699D02*
D03*
X16380Y39780D02*
D03*
X26130Y32130D02*
D03*
X38930D02*
D03*
X27730D02*
D03*
X29330D02*
D03*
X30930D02*
D03*
X27980Y37630D02*
D03*
X31230Y35630D02*
D03*
X20130Y35580D02*
D03*
X31990Y42060D02*
D03*
X33130Y41030D02*
D03*
X31140Y40900D02*
D03*
X20000Y40870D02*
D03*
X48380Y44530D02*
D03*
Y43730D02*
D03*
X28040Y39560D02*
D03*
X26990Y41020D02*
D03*
X25520Y41490D02*
D03*
X23880Y41530D02*
D03*
X27830Y42030D02*
D03*
X28260Y40470D02*
D03*
X32480Y45130D02*
D03*
X27000Y43610D02*
D03*
X27530Y43620D02*
D03*
X33880Y48030D02*
D03*
X31040Y44740D02*
D03*
X30230Y45056D02*
D03*
X28400Y45900D02*
D03*
X26980Y41630D02*
D03*
X27164Y42646D02*
D03*
X23600Y40610D02*
D03*
X26630Y47603D02*
D03*
X24230Y43880D02*
D03*
X33630Y35280D02*
D03*
X24150Y39980D02*
D03*
X23730D02*
D03*
X24930Y39700D02*
D03*
Y39280D02*
D03*
X37814Y35414D02*
D03*
X37778Y40430D02*
D03*
X37768Y45243D02*
D03*
X42330Y37180D02*
D03*
X43530D02*
D03*
X42930D02*
D03*
X42330Y42180D02*
D03*
X43530D02*
D03*
X42930Y47238D02*
D03*
Y42180D02*
D03*
X42358Y47238D02*
D03*
X43472D02*
D03*
X19130Y40780D02*
D03*
X18630D02*
D03*
X18130D02*
D03*
X18630Y40280D02*
D03*
X18142D02*
D03*
X19130D02*
D03*
X18130Y39780D02*
D03*
X18630D02*
D03*
X19130D02*
D03*
X21970Y46720D02*
D03*
X20430Y41250D02*
D03*
X39030Y38358D02*
D03*
X39722Y37088D02*
D03*
X38806Y45050D02*
D03*
X30000Y38550D02*
D03*
X32770Y34970D02*
D03*
X39004Y43306D02*
D03*
X24810Y43430D02*
D03*
X23040Y41020D02*
D03*
X29290Y40460D02*
D03*
X29119Y39115D02*
D03*
X28740Y40140D02*
D03*
X30440Y39802D02*
D03*
X30350Y38130D02*
D03*
X21930Y45930D02*
D03*
X30950Y37130D02*
D03*
X31420Y36660D02*
D03*
X32070Y34240D02*
D03*
X34000Y34270D02*
D03*
X18630Y43350D02*
D03*
X27770Y38200D02*
D03*
X24090Y42930D02*
D03*
X39170Y41600D02*
D03*
X45360Y48030D02*
D03*
X27250Y35640D02*
D03*
X30600Y34250D02*
D03*
X18630Y42200D02*
D03*
X22820Y36867D02*
D03*
X23930Y37580D02*
D03*
X26333Y47900D02*
D03*
X26924Y47897D02*
D03*
X19830Y47280D02*
D03*
X18670Y47355D02*
D03*
X40130Y47280D02*
D03*
Y47780D02*
D03*
X39530D02*
D03*
X38937Y46323D02*
D03*
X39130Y45780D02*
D03*
X40880Y42030D02*
D03*
Y41280D02*
D03*
X40380Y42030D02*
D03*
Y41280D02*
D03*
Y36030D02*
D03*
Y36780D02*
D03*
X40880Y36030D02*
D03*
Y36780D02*
D03*
X34380Y37780D02*
D03*
Y38530D02*
D03*
X35380Y37530D02*
D03*
X34380Y43530D02*
D03*
Y42780D02*
D03*
X32630Y45780D02*
D03*
X35130Y48030D02*
D03*
X36380D02*
D03*
X37630D02*
D03*
X38880D02*
D03*
X41380D02*
D03*
X42630D02*
D03*
X45880Y35780D02*
D03*
Y36530D02*
D03*
X44130Y42030D02*
D03*
X45316Y41989D02*
D03*
X42130Y32130D02*
D03*
X40530D02*
D03*
X43730D02*
D03*
X45330D02*
D03*
X16130Y46030D02*
D03*
X13880D02*
D03*
X16130Y44530D02*
D03*
X13880D02*
D03*
Y42780D02*
D03*
X13530Y38130D02*
D03*
Y37130D02*
D03*
X16880Y36280D02*
D03*
X16380Y41030D02*
D03*
X16130Y47030D02*
D03*
X25630Y35280D02*
D03*
Y34280D02*
D03*
X14380Y32280D02*
D03*
X15380D02*
D03*
X16380D02*
D03*
X20130D02*
D03*
X22130Y33530D02*
D03*
X23630D02*
D03*
X20630Y39030D02*
D03*
X20130Y38129D02*
D03*
X40732Y47780D02*
D03*
X48380Y39780D02*
D03*
Y40530D02*
D03*
Y36530D02*
D03*
Y35780D02*
D03*
X17130Y43280D02*
D03*
X35380Y42780D02*
D03*
X25630Y46780D02*
D03*
X22130Y32530D02*
D03*
X23630D02*
D03*
X33130Y37780D02*
D03*
X40248Y46030D02*
D03*
X40880D02*
D03*
M02*
