%FSLAX24Y24*%
%MOIN*%
G70*
G01*
G75*
G04 Layer_Color=16711935*
%ADD10R,0.0512X0.0394*%
%ADD11R,0.0354X0.0315*%
%ADD12R,0.0315X0.0354*%
%ADD13R,0.0394X0.0512*%
%ADD14O,0.0827X0.0276*%
%ADD15R,0.0790X0.0980*%
%ADD16R,0.0200X0.0940*%
%ADD17R,0.1350X0.1850*%
%ADD18R,0.0532X0.0846*%
%ADD19R,0.0394X0.0945*%
%ADD20R,0.2185X0.2677*%
%ADD21O,0.0827X0.0118*%
%ADD22O,0.0118X0.0827*%
%ADD23R,0.1378X0.0787*%
%ADD24R,0.0571X0.0236*%
%ADD25R,0.1575X0.1181*%
%ADD26R,0.0453X0.0236*%
%ADD27R,0.0236X0.0453*%
%ADD28R,0.0551X0.0433*%
%ADD29R,0.0433X0.0551*%
%ADD30R,0.2200X0.0830*%
%ADD31R,0.0984X0.1575*%
%ADD32C,0.0400*%
%ADD33C,0.0200*%
%ADD34C,0.0500*%
%ADD35C,0.0080*%
%ADD36C,0.0120*%
%ADD37C,0.0800*%
%ADD38C,0.0250*%
%ADD39C,0.0591*%
%ADD40R,0.0591X0.0591*%
%ADD41R,0.0591X0.0591*%
%ADD42C,0.2000*%
%ADD43C,0.0984*%
%ADD44R,0.0394X0.0394*%
%ADD45C,0.0394*%
%ADD46C,0.0320*%
%ADD47C,0.0098*%
%ADD48C,0.0236*%
%ADD49C,0.0079*%
%ADD50C,0.0100*%
%ADD51R,0.0472X0.0354*%
%ADD52R,0.0314X0.0275*%
%ADD53R,0.0275X0.0314*%
%ADD54R,0.0354X0.0472*%
%ADD55O,0.0787X0.0236*%
%ADD56R,0.0750X0.0940*%
%ADD57R,0.0160X0.0900*%
%ADD58R,0.1310X0.1810*%
%ADD59R,0.0492X0.0806*%
%ADD60R,0.0354X0.0905*%
%ADD61R,0.2145X0.2637*%
%ADD62O,0.0787X0.0078*%
%ADD63O,0.0078X0.0787*%
%ADD64R,0.1338X0.0747*%
%ADD65R,0.0531X0.0196*%
%ADD66R,0.1535X0.1141*%
%ADD67R,0.0413X0.0196*%
%ADD68R,0.0196X0.0413*%
%ADD69R,0.0511X0.0393*%
%ADD70R,0.0393X0.0511*%
%ADD71R,0.2160X0.0790*%
%ADD72R,0.0944X0.1535*%
%ADD73R,0.0592X0.0474*%
%ADD74R,0.0434X0.0395*%
%ADD75R,0.0395X0.0434*%
%ADD76R,0.0474X0.0592*%
%ADD77O,0.0907X0.0356*%
%ADD78R,0.0910X0.1100*%
%ADD79R,0.0320X0.1060*%
%ADD80R,0.1430X0.1930*%
%ADD81R,0.0612X0.0926*%
%ADD82R,0.0474X0.1025*%
%ADD83R,0.2265X0.2757*%
%ADD84R,0.1458X0.0867*%
%ADD85R,0.0651X0.0316*%
%ADD86R,0.1655X0.1261*%
%ADD87R,0.0533X0.0316*%
%ADD88R,0.0316X0.0533*%
%ADD89R,0.0631X0.0513*%
%ADD90R,0.0513X0.0631*%
%ADD91R,0.2280X0.0910*%
%ADD92R,0.1064X0.1655*%
%ADD93C,0.0671*%
%ADD94R,0.0671X0.0671*%
%ADD95R,0.0671X0.0671*%
%ADD96C,0.0500*%
%ADD97C,0.2080*%
%ADD98C,0.1064*%
%ADD99R,0.0514X0.0514*%
%ADD100C,0.0514*%
%ADD101C,0.0400*%
D92*
X20130Y44878D02*
D03*
Y47280D02*
D03*
X26630Y44878D02*
D03*
Y47280D02*
D03*
X40130Y44878D02*
D03*
Y47280D02*
D03*
D93*
X35530Y44380D02*
D03*
X34530D02*
D03*
X35530Y45380D02*
D03*
X34530D02*
D03*
X35530Y46380D02*
D03*
Y39380D02*
D03*
X34530D02*
D03*
X35530Y40380D02*
D03*
X34530D02*
D03*
X35530Y41380D02*
D03*
X36230Y32480D02*
D03*
X35230Y33480D02*
D03*
Y32480D02*
D03*
X34230Y33480D02*
D03*
Y32480D02*
D03*
X33230Y33480D02*
D03*
Y32480D02*
D03*
X32230Y33480D02*
D03*
Y32480D02*
D03*
X35530Y34680D02*
D03*
X34530D02*
D03*
X35530Y35680D02*
D03*
X34530D02*
D03*
X35530Y36680D02*
D03*
X31730Y46980D02*
D03*
X30730D02*
D03*
X29730D02*
D03*
X28730D02*
D03*
D94*
X34530Y46380D02*
D03*
Y41380D02*
D03*
Y36680D02*
D03*
D95*
X36230Y33480D02*
D03*
X32730Y46980D02*
D03*
D96*
X23690Y34150D02*
D03*
X21970D02*
D03*
D97*
X47130Y47380D02*
D03*
X21730Y40130D02*
D03*
X47130Y32980D02*
D03*
D98*
X46161Y37536D02*
D03*
Y34780D02*
D03*
X48130Y37536D02*
D03*
Y34780D02*
D03*
X46161Y41536D02*
D03*
Y38780D02*
D03*
X48130Y41536D02*
D03*
Y38780D02*
D03*
X46161Y45536D02*
D03*
Y42780D02*
D03*
X48130Y45536D02*
D03*
Y42780D02*
D03*
X15789Y39074D02*
D03*
Y41830D02*
D03*
X13820Y39074D02*
D03*
Y41830D02*
D03*
X15789Y33474D02*
D03*
Y36230D02*
D03*
X13820Y33474D02*
D03*
Y36230D02*
D03*
D99*
X24620Y47230D02*
D03*
D100*
Y46730D02*
D03*
X24120Y47230D02*
D03*
Y46730D02*
D03*
X23620Y47230D02*
D03*
Y46730D02*
D03*
X23120Y47230D02*
D03*
Y46730D02*
D03*
X22620Y47230D02*
D03*
Y46730D02*
D03*
D101*
X19130Y40780D02*
D03*
X18630D02*
D03*
X18130D02*
D03*
X18630Y40280D02*
D03*
X18142D02*
D03*
X19130D02*
D03*
X18130Y39780D02*
D03*
X18630D02*
D03*
X19130D02*
D03*
M02*
