M48
;Layer_Color=9474304
;FILE_FORMAT=2:4
INCH,LZ
;TYPE=PLATED
T1F00S00C0.0140
T2F00S00C0.0236
T3F00S00C0.0400
T4F00S00C0.0728
T5F00S00C0.1300
;TYPE=NON_PLATED
T6F00S00C0.0500
%
T01
X01438Y03228
X01538
X01353Y03713
Y03813
X01388Y04278
Y04453
Y04603
X01613
Y04453
X01713Y04328
X01863Y04335
Y0422
Y04078
X01913
Y04028
X01863
X018142
X01813Y04078
Y03978
X01863
X01913
X02Y04087
X02043Y04125
X02063Y03903
X02013Y038129
Y03558
Y03228
X02213Y03253
Y03353
X02363
Y03253
X02613Y03213
X02773
X02933
X03093
X0306Y03425
X03123Y03563
X03095Y03713
X03035Y03813
X03Y03855
X029119Y039115
X02874Y04014
X02826Y04047
X02929Y04046
X03044Y039802
X03114Y0409
X02943Y042699
X02838Y04203
X02783
X02698Y04163
X02699Y04102
X027164Y042646
X027Y04361
X02753Y04362
X02481Y04343
X02423Y04388
X02409Y04293
X02388Y04153
X0236Y04061
X02373Y03998
X02415
X02493Y0397
Y03928
X02393Y03758
X02282Y036867
X02304Y04102
X02552Y04149
X02804Y03956
X02777Y0382
X02798Y03763
X02725Y03564
X02563Y03528
Y03428
X01688Y03628
X01638Y03978
Y04103
Y03228
X02193Y04593
X02197Y04672
X02563Y04678
X0284Y0459
X03023Y045056
X03104Y04474
X03248Y04513
X03263Y04578
X03438Y04353
Y04278
X03538
X03313Y04103
X03199Y04206
X03313Y03778
X03438
Y03853
X03538Y03753
X03363Y03528
X03277Y03497
X03207Y03424
X034Y03427
X037814Y035414
X04038Y03603
X04088
Y03678
X04038
X039722Y037088
X03903Y038358
X037778Y04043
X03917Y0416
X04038Y04128
X04088
Y04203
X04038
X04233Y04218
X04293
X04353
X04413Y04203
X045316Y041989
X04588Y03653
Y03578
X04353Y03718
X04293
X04233
X04213Y03213
X04053
X03893
X04373
X04533
X039004Y043306
X038806Y04505
X03913Y04578
X038937Y046323
X040248Y04603
X04088
X037768Y045243
X03142Y03666
X04838Y03653
Y03578
Y03978
Y04053
Y04373
Y04453
X04536Y04803
X043472Y047238
X04293
X042358
X04263Y04803
X04138
X040732Y04778
X04013
Y04728
X03953Y04778
X03888Y04803
X03763
X03638
X03513
X03388
X026924Y047897
X02663Y047603
X026333Y0479
X01983Y04728
X01867Y047355
X01613Y04703
T02
X02262Y04673
X02312
X02362
X02412
X02462
Y04723
X02412
X02362
X02312
X02262
T03
X03223Y03248
X03323
X03423
X03523
X03623
Y03348
X03523
X03423
X03323
X03223
X03453Y03468
X03553
Y03568
X03453
Y03668
X03553
Y03938
X03453
Y04038
X03553
Y04138
X03453
Y04438
X03553
Y04538
X03453
Y04638
X03553
X03273Y04698
X03173
X03073
X02973
X02873
T04
X01382Y033474
Y03623
Y039074
Y04183
X015789
Y039074
Y03623
Y033474
X046161Y03478
Y037536
Y03878
Y041536
Y04278
Y045536
X04813
Y04278
Y041536
Y03878
Y037536
Y03478
T05
X02173Y04013
X04713Y03298
Y04738
T06
X02197Y03415
X02369
M30
