%FSLAX24Y24*%
%MOIN*%
G70*
G01*
G75*
G04 Layer_Color=8388736*
%ADD10R,0.0512X0.0394*%
%ADD11R,0.0354X0.0315*%
%ADD12R,0.0315X0.0354*%
%ADD13R,0.0394X0.0512*%
%ADD14O,0.0827X0.0276*%
%ADD15R,0.0790X0.0980*%
%ADD16R,0.0200X0.0940*%
%ADD17R,0.1350X0.1850*%
%ADD18R,0.0532X0.0846*%
%ADD19R,0.0394X0.0945*%
%ADD20R,0.2185X0.2677*%
%ADD21O,0.0827X0.0118*%
%ADD22O,0.0118X0.0827*%
%ADD23R,0.1378X0.0787*%
%ADD24R,0.0571X0.0236*%
%ADD25R,0.1575X0.1181*%
%ADD26R,0.0453X0.0236*%
%ADD27R,0.0236X0.0453*%
%ADD28R,0.0551X0.0433*%
%ADD29R,0.0433X0.0551*%
%ADD30R,0.2200X0.0830*%
%ADD31R,0.0984X0.1575*%
%ADD32C,0.0400*%
%ADD33C,0.0200*%
%ADD34C,0.0500*%
%ADD35C,0.0080*%
%ADD36C,0.0120*%
%ADD37C,0.0800*%
%ADD38C,0.0250*%
%ADD39C,0.0591*%
%ADD40R,0.0591X0.0591*%
%ADD41R,0.0591X0.0591*%
%ADD42C,0.2000*%
%ADD43C,0.0984*%
%ADD44R,0.0394X0.0394*%
%ADD45C,0.0394*%
%ADD46C,0.0320*%
%ADD47C,0.0098*%
%ADD48C,0.0236*%
%ADD49C,0.0079*%
%ADD50C,0.0100*%
%ADD51R,0.0472X0.0354*%
%ADD52R,0.0314X0.0275*%
%ADD53R,0.0275X0.0314*%
%ADD54R,0.0354X0.0472*%
%ADD55O,0.0787X0.0236*%
%ADD56R,0.0750X0.0940*%
%ADD57R,0.0160X0.0900*%
%ADD58R,0.1310X0.1810*%
%ADD59R,0.0492X0.0806*%
%ADD60R,0.0354X0.0905*%
%ADD61R,0.2145X0.2637*%
%ADD62O,0.0787X0.0078*%
%ADD63O,0.0078X0.0787*%
%ADD64R,0.1338X0.0747*%
%ADD65R,0.0531X0.0196*%
%ADD66R,0.1535X0.1141*%
%ADD67R,0.0413X0.0196*%
%ADD68R,0.0196X0.0413*%
%ADD69R,0.0511X0.0393*%
%ADD70R,0.0393X0.0511*%
%ADD71R,0.2160X0.0790*%
%ADD72R,0.0944X0.1535*%
%ADD73R,0.0592X0.0474*%
%ADD74R,0.0434X0.0395*%
%ADD75R,0.0395X0.0434*%
%ADD76R,0.0474X0.0592*%
%ADD77O,0.0907X0.0356*%
%ADD78R,0.0910X0.1100*%
%ADD79R,0.0320X0.1060*%
%ADD80R,0.1430X0.1930*%
%ADD81R,0.0612X0.0926*%
%ADD82R,0.0474X0.1025*%
%ADD83R,0.2265X0.2757*%
%ADD84R,0.1458X0.0867*%
%ADD85R,0.0651X0.0316*%
%ADD86R,0.1655X0.1261*%
%ADD87R,0.0533X0.0316*%
%ADD88R,0.0316X0.0533*%
%ADD89R,0.0631X0.0513*%
%ADD90R,0.0513X0.0631*%
%ADD91R,0.2280X0.0910*%
%ADD92R,0.1064X0.1655*%
%ADD93C,0.0671*%
%ADD94R,0.0671X0.0671*%
%ADD95R,0.0671X0.0671*%
%ADD96C,0.0500*%
%ADD97C,0.2080*%
%ADD98C,0.1064*%
%ADD99R,0.0514X0.0514*%
%ADD100C,0.0514*%
%ADD101C,0.0400*%
D21*
X26815Y39522D02*
D03*
Y39719D02*
D03*
X31225Y40506D02*
D03*
Y40310D02*
D03*
Y40113D02*
D03*
Y39916D02*
D03*
Y39719D02*
D03*
Y39522D02*
D03*
Y39325D02*
D03*
Y39128D02*
D03*
Y38932D02*
D03*
Y38735D02*
D03*
Y38538D02*
D03*
Y38341D02*
D03*
Y38144D02*
D03*
Y37947D02*
D03*
Y37750D02*
D03*
Y37554D02*
D03*
X26815D02*
D03*
Y37750D02*
D03*
Y37947D02*
D03*
Y38144D02*
D03*
Y38341D02*
D03*
Y38538D02*
D03*
Y38735D02*
D03*
Y38932D02*
D03*
Y39128D02*
D03*
Y39325D02*
D03*
Y39916D02*
D03*
Y40113D02*
D03*
Y40310D02*
D03*
Y40506D02*
D03*
D22*
X27544Y41235D02*
D03*
X27741D02*
D03*
X27937D02*
D03*
X28134D02*
D03*
X28331D02*
D03*
X28528D02*
D03*
X28725D02*
D03*
X28922D02*
D03*
X29119D02*
D03*
X29315D02*
D03*
X29512D02*
D03*
X29709D02*
D03*
X29906D02*
D03*
X30103D02*
D03*
X30300D02*
D03*
X30497D02*
D03*
Y36825D02*
D03*
X30300D02*
D03*
X30103D02*
D03*
X29906D02*
D03*
X29709D02*
D03*
X29512D02*
D03*
X29315D02*
D03*
X29119D02*
D03*
X28922D02*
D03*
X28725D02*
D03*
X28528D02*
D03*
X28331D02*
D03*
X28134D02*
D03*
X27937D02*
D03*
X27741D02*
D03*
X27544D02*
D03*
D73*
X15730Y37215D02*
D03*
Y37845D02*
D03*
D74*
X15030Y37254D02*
D03*
Y37806D02*
D03*
X36380Y41556D02*
D03*
Y41004D02*
D03*
Y46306D02*
D03*
Y45754D02*
D03*
X42220Y36506D02*
D03*
Y35954D02*
D03*
Y41506D02*
D03*
Y40954D02*
D03*
Y46506D02*
D03*
Y45954D02*
D03*
X37217Y43306D02*
D03*
Y42754D02*
D03*
X37817Y42754D02*
D03*
Y43306D02*
D03*
X36017D02*
D03*
Y42754D02*
D03*
X36380Y39254D02*
D03*
Y39806D02*
D03*
Y44254D02*
D03*
Y44806D02*
D03*
X26476Y45954D02*
D03*
Y46506D02*
D03*
X26420Y43206D02*
D03*
Y42654D02*
D03*
X29020Y42699D02*
D03*
Y43250D02*
D03*
X22370Y44454D02*
D03*
Y45006D02*
D03*
X45530Y47056D02*
D03*
Y46504D02*
D03*
X22370Y42906D02*
D03*
Y42354D02*
D03*
X23220Y38506D02*
D03*
Y37954D02*
D03*
X26420Y43954D02*
D03*
Y44506D02*
D03*
X22420Y38506D02*
D03*
Y37954D02*
D03*
X32220Y40154D02*
D03*
Y40706D02*
D03*
X26630Y36956D02*
D03*
Y36404D02*
D03*
X25820Y38106D02*
D03*
Y37554D02*
D03*
X25220Y38106D02*
D03*
Y37554D02*
D03*
X25330Y40304D02*
D03*
Y40856D02*
D03*
X25930D02*
D03*
Y40304D02*
D03*
X38830Y33004D02*
D03*
Y33556D02*
D03*
X38417Y37807D02*
D03*
Y38358D02*
D03*
Y42754D02*
D03*
Y43306D02*
D03*
X36617Y42754D02*
D03*
Y43306D02*
D03*
X37217Y38358D02*
D03*
Y37807D02*
D03*
X37330Y33556D02*
D03*
Y33004D02*
D03*
X36414Y34902D02*
D03*
Y34351D02*
D03*
X36017Y38358D02*
D03*
Y37807D02*
D03*
X37817Y38358D02*
D03*
Y37807D02*
D03*
X38330Y33556D02*
D03*
Y33004D02*
D03*
X36617Y37807D02*
D03*
Y38358D02*
D03*
X37830Y33004D02*
D03*
Y33556D02*
D03*
X36414Y35951D02*
D03*
Y36502D02*
D03*
D75*
X32174Y41530D02*
D03*
X32726D02*
D03*
X25846Y45180D02*
D03*
X25295D02*
D03*
X22545Y46030D02*
D03*
X23096D02*
D03*
X28261Y34930D02*
D03*
X27710D02*
D03*
X44096Y36327D02*
D03*
X43545D02*
D03*
X44096Y41177D02*
D03*
X43545D02*
D03*
X44146Y46127D02*
D03*
X43595D02*
D03*
X24195Y45180D02*
D03*
X24746D02*
D03*
X22945Y42130D02*
D03*
X23496D02*
D03*
X23095Y45180D02*
D03*
X23646D02*
D03*
X32296Y44175D02*
D03*
X31745D02*
D03*
X25796Y42130D02*
D03*
X25245D02*
D03*
X24045D02*
D03*
X24596D02*
D03*
X31096Y44175D02*
D03*
X30545D02*
D03*
X24496Y36630D02*
D03*
X23945D02*
D03*
X21845Y43930D02*
D03*
X22396D02*
D03*
Y43430D02*
D03*
X21845D02*
D03*
X25896Y36430D02*
D03*
X25345D02*
D03*
X25896Y37030D02*
D03*
X25345D02*
D03*
X21696Y36430D02*
D03*
X21145D02*
D03*
X30110Y34930D02*
D03*
X30661D02*
D03*
X23745Y46030D02*
D03*
X24296D02*
D03*
X28910Y34930D02*
D03*
X29461D02*
D03*
X27061D02*
D03*
X26510D02*
D03*
X23945Y36030D02*
D03*
X24496D02*
D03*
X21696Y37030D02*
D03*
X21145D02*
D03*
X37856Y32430D02*
D03*
X37304D02*
D03*
D76*
X31625Y41540D02*
D03*
X30995D02*
D03*
X44215Y47580D02*
D03*
X44845D02*
D03*
D77*
X25413Y42930D02*
D03*
Y43430D02*
D03*
Y43930D02*
D03*
Y44430D02*
D03*
X23327Y42930D02*
D03*
Y43430D02*
D03*
Y43930D02*
D03*
Y44430D02*
D03*
D78*
X24580Y35140D02*
D03*
X21080Y32970D02*
D03*
X24580D02*
D03*
X21080Y35140D02*
D03*
D79*
X23450Y35160D02*
D03*
X23140D02*
D03*
X22210D02*
D03*
X22830D02*
D03*
X22520D02*
D03*
D80*
X20930Y46330D02*
D03*
D81*
X18620Y36221D02*
D03*
Y37363D02*
D03*
D82*
X17723Y37537D02*
D03*
X19518D02*
D03*
X41518Y36323D02*
D03*
X39722D02*
D03*
X41518Y41323D02*
D03*
X39722D02*
D03*
X41518Y46323D02*
D03*
X39722D02*
D03*
X44718Y36320D02*
D03*
X42923D02*
D03*
X44718Y41320D02*
D03*
X42923D02*
D03*
X19518Y36123D02*
D03*
X17723D02*
D03*
X17732Y42837D02*
D03*
X19528D02*
D03*
X44718Y46320D02*
D03*
X42923D02*
D03*
D83*
X18620Y40057D02*
D03*
X40620Y33803D02*
D03*
Y38803D02*
D03*
Y43803D02*
D03*
X43820Y33800D02*
D03*
Y38800D02*
D03*
X18620Y33603D02*
D03*
X18630Y45357D02*
D03*
X43820Y43800D02*
D03*
D84*
X20830Y44672D02*
D03*
Y42388D02*
D03*
D85*
X38280Y41227D02*
D03*
X37354Y40853D02*
D03*
Y41601D02*
D03*
X38280Y46030D02*
D03*
X37354Y45656D02*
D03*
Y46404D02*
D03*
X38280Y39627D02*
D03*
X37354Y39253D02*
D03*
Y40001D02*
D03*
X38280Y44430D02*
D03*
X37354Y44056D02*
D03*
Y44804D02*
D03*
X28158Y46210D02*
D03*
X27233Y45836D02*
D03*
Y46584D02*
D03*
X32883Y42975D02*
D03*
X31958Y42601D02*
D03*
Y43349D02*
D03*
X30883Y42975D02*
D03*
X29958Y42601D02*
D03*
Y43349D02*
D03*
X30758Y45804D02*
D03*
Y45056D02*
D03*
X31683Y45430D02*
D03*
X37351Y35001D02*
D03*
Y34253D02*
D03*
X38276Y34627D02*
D03*
X37351Y36601D02*
D03*
Y35853D02*
D03*
X38276Y36227D02*
D03*
D86*
X47146Y36158D02*
D03*
Y40158D02*
D03*
Y44158D02*
D03*
X14804Y40452D02*
D03*
Y34852D02*
D03*
D87*
X28263Y44575D02*
D03*
X27377Y44201D02*
D03*
Y44949D02*
D03*
X29863Y44575D02*
D03*
X28977Y44201D02*
D03*
Y44949D02*
D03*
D88*
X22820Y37273D02*
D03*
X23194Y36387D02*
D03*
X22446D02*
D03*
D89*
X24420Y38725D02*
D03*
Y38135D02*
D03*
X20220Y36535D02*
D03*
Y37125D02*
D03*
X16530Y37235D02*
D03*
Y37825D02*
D03*
X14330D02*
D03*
Y37235D02*
D03*
X28020Y43270D02*
D03*
Y42680D02*
D03*
D90*
X29325Y45775D02*
D03*
X29915D02*
D03*
X21035Y38180D02*
D03*
X21625D02*
D03*
D91*
X30170Y33230D02*
D03*
X26430D02*
D03*
D92*
X15020Y43830D02*
D03*
Y46232D02*
D03*
D93*
X35530Y44380D02*
D03*
X34530D02*
D03*
X35530Y45380D02*
D03*
X34530D02*
D03*
X35530Y46380D02*
D03*
Y39380D02*
D03*
X34530D02*
D03*
X35530Y40380D02*
D03*
X34530D02*
D03*
X35530Y41380D02*
D03*
X36230Y32480D02*
D03*
X35230Y33480D02*
D03*
Y32480D02*
D03*
X34230Y33480D02*
D03*
Y32480D02*
D03*
X33230Y33480D02*
D03*
Y32480D02*
D03*
X32230Y33480D02*
D03*
Y32480D02*
D03*
X35530Y34680D02*
D03*
X34530D02*
D03*
X35530Y35680D02*
D03*
X34530D02*
D03*
X35530Y36680D02*
D03*
X31730Y46980D02*
D03*
X30730D02*
D03*
X29730D02*
D03*
X28730D02*
D03*
D94*
X34530Y46380D02*
D03*
Y41380D02*
D03*
Y36680D02*
D03*
D95*
X36230Y33480D02*
D03*
X32730Y46980D02*
D03*
D96*
X23690Y34150D02*
D03*
X21970D02*
D03*
D97*
X47130Y47380D02*
D03*
X21730Y40130D02*
D03*
X47130Y32980D02*
D03*
D98*
X46161Y37536D02*
D03*
Y34780D02*
D03*
X48130Y37536D02*
D03*
Y34780D02*
D03*
X46161Y41536D02*
D03*
Y38780D02*
D03*
X48130Y41536D02*
D03*
Y38780D02*
D03*
X46161Y45536D02*
D03*
Y42780D02*
D03*
X48130Y45536D02*
D03*
Y42780D02*
D03*
X15789Y39074D02*
D03*
Y41830D02*
D03*
X13820Y39074D02*
D03*
Y41830D02*
D03*
X15789Y33474D02*
D03*
Y36230D02*
D03*
X13820Y33474D02*
D03*
Y36230D02*
D03*
D99*
X24620Y47230D02*
D03*
D100*
Y46730D02*
D03*
X24120Y47230D02*
D03*
Y46730D02*
D03*
X23620Y47230D02*
D03*
Y46730D02*
D03*
X23120Y47230D02*
D03*
Y46730D02*
D03*
X22620Y47230D02*
D03*
Y46730D02*
D03*
D101*
X19130Y40780D02*
D03*
X18630D02*
D03*
X18130D02*
D03*
X18630Y40280D02*
D03*
X18142D02*
D03*
X19130D02*
D03*
X18130Y39780D02*
D03*
X18630D02*
D03*
X19130D02*
D03*
M02*
