%FSLAX24Y24*%
%MOIN*%
G70*
G01*
G75*
G04 Layer_Physical_Order=1*
G04 Layer_Color=255*
%ADD10R,0.0512X0.0394*%
%ADD11R,0.0354X0.0315*%
%ADD12R,0.0315X0.0354*%
%ADD13R,0.0394X0.0512*%
%ADD14O,0.0827X0.0276*%
%ADD15R,0.0790X0.0980*%
%ADD16R,0.0200X0.0940*%
%ADD17R,0.1350X0.1850*%
%ADD18R,0.0532X0.0846*%
%ADD19R,0.0394X0.0945*%
%ADD20R,0.2185X0.2677*%
%ADD21O,0.0827X0.0118*%
%ADD22O,0.0118X0.0827*%
%ADD23R,0.1378X0.0787*%
%ADD24R,0.0571X0.0236*%
%ADD25R,0.1575X0.1181*%
%ADD26R,0.0453X0.0236*%
%ADD27R,0.0236X0.0453*%
%ADD28R,0.0551X0.0433*%
%ADD29R,0.0433X0.0551*%
%ADD30R,0.2200X0.0830*%
%ADD31R,0.0984X0.1575*%
%ADD32C,0.0400*%
%ADD33C,0.0200*%
%ADD34C,0.0500*%
%ADD35C,0.0080*%
%ADD36C,0.0120*%
%ADD37C,0.0800*%
%ADD38C,0.0250*%
%ADD39C,0.0591*%
%ADD40R,0.0591X0.0591*%
%ADD41R,0.0591X0.0591*%
%ADD42C,0.2000*%
%ADD43C,0.0984*%
%ADD44R,0.0394X0.0394*%
%ADD45C,0.0394*%
%ADD46C,0.0320*%
G36*
X48102Y48492D02*
X48266Y48442D01*
X48418Y48361D01*
X48552Y48252D01*
X48661Y48118D01*
X48742Y47966D01*
X48792Y47802D01*
X48809Y47635D01*
X48808Y47630D01*
Y41690D01*
Y39770D01*
Y32630D01*
X48809Y32625D01*
X48792Y32458D01*
X48742Y32294D01*
X48661Y32142D01*
X48552Y32008D01*
X48418Y31899D01*
X48266Y31818D01*
X48102Y31768D01*
X47935Y31751D01*
X47930Y31752D01*
X13880D01*
X13875Y31751D01*
X13708Y31768D01*
X13544Y31818D01*
X13392Y31899D01*
X13258Y32008D01*
X13149Y32142D01*
X13068Y32294D01*
X13018Y32458D01*
X13001Y32625D01*
X13002Y32630D01*
Y47630D01*
X13001Y47635D01*
X13018Y47802D01*
X13068Y47966D01*
X13149Y48118D01*
X13258Y48252D01*
X13392Y48361D01*
X13544Y48442D01*
X13708Y48492D01*
X13875Y48509D01*
X13880Y48508D01*
X46901D01*
X46910Y48428D01*
X46798Y48401D01*
X46643Y48336D01*
X46499Y48248D01*
X46371Y48139D01*
X46262Y48011D01*
X46174Y47867D01*
X46109Y47712D01*
X46070Y47548D01*
X46057Y47380D01*
X46070Y47212D01*
X46109Y47048D01*
X46174Y46893D01*
X46262Y46749D01*
X46371Y46621D01*
X46499Y46512D01*
X46643Y46424D01*
X46798Y46359D01*
X46962Y46320D01*
X47130Y46307D01*
X47298Y46320D01*
X47462Y46359D01*
X47617Y46424D01*
X47761Y46512D01*
X47889Y46621D01*
X47998Y46749D01*
X48086Y46893D01*
X48151Y47048D01*
X48190Y47212D01*
X48203Y47380D01*
X48190Y47548D01*
X48151Y47712D01*
X48086Y47867D01*
X47998Y48011D01*
X47889Y48139D01*
X47761Y48248D01*
X47617Y48336D01*
X47462Y48401D01*
X47350Y48428D01*
X47359Y48508D01*
X47930D01*
X47935Y48509D01*
X48102Y48492D01*
D02*
G37*
%LPC*%
G36*
X15080Y38063D02*
Y37856D01*
X15307D01*
Y38063D01*
X15080D01*
D02*
G37*
G36*
X24370Y38085D02*
X24045D01*
Y37818D01*
X24370D01*
Y38085D01*
D02*
G37*
G36*
X21942Y38130D02*
X21675D01*
Y37804D01*
X21942D01*
Y38130D01*
D02*
G37*
G36*
X14280Y38142D02*
X13954D01*
Y37875D01*
X14280D01*
Y38142D01*
D02*
G37*
G36*
X13770Y39024D02*
X13230D01*
X13237Y38958D01*
X13270Y38846D01*
X13325Y38744D01*
X13399Y38653D01*
X13490Y38579D01*
X13592Y38524D01*
X13704Y38491D01*
X13770Y38484D01*
Y39024D01*
D02*
G37*
G36*
X38694Y38615D02*
X38467D01*
Y38408D01*
X38694D01*
Y38615D01*
D02*
G37*
G36*
X21942Y38556D02*
X21675D01*
Y38230D01*
X21942D01*
Y38556D01*
D02*
G37*
G36*
X23895Y36907D02*
X23687D01*
Y36680D01*
X23895D01*
Y36907D01*
D02*
G37*
G36*
X18986Y36745D02*
X18670D01*
Y36271D01*
X18986D01*
Y36745D01*
D02*
G37*
G36*
X18570D02*
X18254D01*
Y36271D01*
X18570D01*
Y36745D01*
D02*
G37*
G36*
X16480Y37185D02*
X16154D01*
Y36918D01*
X16480D01*
Y37185D01*
D02*
G37*
G36*
X21746Y37307D02*
Y37080D01*
X21953D01*
Y37307D01*
X21746D01*
D02*
G37*
G36*
X14706Y38142D02*
X14380D01*
Y37825D01*
X14330D01*
Y37775D01*
X13954D01*
Y37509D01*
X13984D01*
Y36948D01*
X14218D01*
Y36786D01*
X14131Y36700D01*
X14104Y36721D01*
X13967Y36778D01*
X13820Y36797D01*
X13673Y36778D01*
X13537Y36721D01*
X13419Y36631D01*
X13329Y36513D01*
X13272Y36377D01*
X13253Y36230D01*
X13272Y36083D01*
X13329Y35947D01*
X13419Y35829D01*
X13537Y35739D01*
X13673Y35682D01*
X13820Y35663D01*
X13967Y35682D01*
X14104Y35739D01*
X14221Y35829D01*
X14311Y35947D01*
X14368Y36083D01*
X14387Y36230D01*
X14368Y36377D01*
X14311Y36513D01*
X14290Y36541D01*
X14409Y36661D01*
X14434Y36697D01*
X14442Y36740D01*
X14442Y36740D01*
Y36948D01*
X14676D01*
Y37434D01*
X14683Y37455D01*
X14719Y37468D01*
X14776Y37469D01*
X14783Y37462D01*
Y37027D01*
X15277D01*
Y37142D01*
X15404D01*
Y36948D01*
X16056D01*
Y37482D01*
X15404D01*
Y37390D01*
X15324Y37376D01*
X15277Y37423D01*
Y37468D01*
X15277Y37481D01*
X15307Y37548D01*
Y37548D01*
X15307Y37549D01*
Y37756D01*
X15030D01*
Y37806D01*
X14980D01*
Y38063D01*
X14786D01*
X14753Y38063D01*
X14706Y38123D01*
X14706Y38124D01*
Y38142D01*
D02*
G37*
G36*
X16906Y37185D02*
X16580D01*
Y36918D01*
X16906D01*
Y37185D01*
D02*
G37*
G36*
X14410Y39024D02*
X13870D01*
Y38484D01*
X13936Y38491D01*
X14048Y38524D01*
X14151Y38579D01*
X14241Y38653D01*
X14315Y38744D01*
X14370Y38846D01*
X14404Y38958D01*
X14410Y39024D01*
D02*
G37*
G36*
X13870Y39664D02*
Y39124D01*
X14410D01*
X14404Y39190D01*
X14370Y39302D01*
X14315Y39405D01*
X14241Y39495D01*
X14151Y39569D01*
X14048Y39624D01*
X13936Y39658D01*
X13870Y39664D01*
D02*
G37*
G36*
X13770D02*
X13704Y39658D01*
X13592Y39624D01*
X13490Y39569D01*
X13399Y39495D01*
X13325Y39405D01*
X13270Y39302D01*
X13237Y39190D01*
X13230Y39124D01*
X13770D01*
Y39664D01*
D02*
G37*
G36*
X21730Y41203D02*
X21562Y41190D01*
X21398Y41151D01*
X21243Y41086D01*
X21099Y40998D01*
X20971Y40889D01*
X20862Y40761D01*
X20774Y40617D01*
X20709Y40462D01*
X20670Y40298D01*
X20657Y40130D01*
X20670Y39962D01*
X20709Y39798D01*
X20774Y39643D01*
X20862Y39499D01*
X20971Y39371D01*
X21099Y39262D01*
X21243Y39174D01*
X21398Y39109D01*
X21562Y39070D01*
X21730Y39057D01*
X21898Y39070D01*
X22062Y39109D01*
X22217Y39174D01*
X22361Y39262D01*
X22489Y39371D01*
X22598Y39499D01*
X22686Y39643D01*
X22751Y39798D01*
X22790Y39962D01*
X22803Y40130D01*
X22790Y40298D01*
X22751Y40462D01*
X22686Y40617D01*
X22598Y40761D01*
X22489Y40889D01*
X22361Y40998D01*
X22217Y41086D01*
X22062Y41151D01*
X21898Y41190D01*
X21730Y41203D01*
D02*
G37*
G36*
X15739Y39664D02*
X15673Y39658D01*
X15561Y39624D01*
X15458Y39569D01*
X15368Y39495D01*
X15294Y39405D01*
X15239Y39302D01*
X15205Y39190D01*
X15199Y39124D01*
X15739D01*
Y39664D01*
D02*
G37*
G36*
X37740Y39471D02*
X37404D01*
Y39303D01*
X37740D01*
Y39471D01*
D02*
G37*
G36*
X37304D02*
X36969D01*
Y39303D01*
X37304D01*
Y39471D01*
D02*
G37*
G36*
X15839Y39664D02*
Y39124D01*
X16379D01*
X16372Y39190D01*
X16338Y39302D01*
X16283Y39405D01*
X16209Y39495D01*
X16119Y39569D01*
X16016Y39624D01*
X15905Y39658D01*
X15839Y39664D01*
D02*
G37*
G36*
X19813Y40007D02*
X18670D01*
Y38618D01*
X19813D01*
Y40007D01*
D02*
G37*
G36*
X16379Y39024D02*
X15839D01*
Y38484D01*
X15905Y38491D01*
X16016Y38524D01*
X16119Y38579D01*
X16209Y38653D01*
X16283Y38744D01*
X16338Y38846D01*
X16372Y38958D01*
X16379Y39024D01*
D02*
G37*
G36*
X15739D02*
X15199D01*
X15205Y38958D01*
X15239Y38846D01*
X15294Y38744D01*
X15368Y38653D01*
X15458Y38579D01*
X15561Y38524D01*
X15673Y38491D01*
X15739Y38484D01*
Y39024D01*
D02*
G37*
G36*
X36330Y39204D02*
X36103D01*
Y38997D01*
X36330D01*
Y39204D01*
D02*
G37*
G36*
X37740Y39203D02*
X37404D01*
Y39035D01*
X37740D01*
Y39203D01*
D02*
G37*
G36*
X37304D02*
X36969D01*
Y39035D01*
X37304D01*
Y39203D01*
D02*
G37*
G36*
X36657Y39204D02*
X36430D01*
Y38997D01*
X36657D01*
Y39204D01*
D02*
G37*
G36*
X20596Y36485D02*
X20270D01*
Y36218D01*
X20596D01*
Y36485D01*
D02*
G37*
G36*
X37301Y34471D02*
X36966D01*
Y34303D01*
X37301D01*
Y34471D01*
D02*
G37*
G36*
X37737Y34203D02*
X37401D01*
Y34035D01*
X37737D01*
Y34203D01*
D02*
G37*
G36*
X37301D02*
X36966D01*
Y34035D01*
X37301D01*
Y34203D01*
D02*
G37*
G36*
X37737Y34471D02*
X37401D01*
Y34303D01*
X37737D01*
Y34471D01*
D02*
G37*
G36*
X29719Y35207D02*
X29511D01*
Y34980D01*
X29719D01*
Y35207D01*
D02*
G37*
G36*
X26460D02*
X26252D01*
Y34980D01*
X26460D01*
Y35207D01*
D02*
G37*
G36*
X23650Y35110D02*
X23500D01*
Y34590D01*
X23650D01*
Y35110D01*
D02*
G37*
G36*
X24202Y36907D02*
X24202D01*
X24201Y36907D01*
X23995D01*
Y36630D01*
X23945D01*
Y36580D01*
X23687D01*
Y36387D01*
Y36386D01*
X23687Y36307D01*
X23687Y36273D01*
Y36080D01*
X23945D01*
Y36030D01*
X23995D01*
Y35753D01*
X24057D01*
X24115Y35700D01*
X24115Y35673D01*
Y34580D01*
X24468D01*
Y33530D01*
X24115D01*
Y33082D01*
X21545D01*
Y33530D01*
X21192D01*
Y34580D01*
X21545D01*
Y35700D01*
X20615D01*
Y34580D01*
X20968D01*
Y33530D01*
X20615D01*
Y32410D01*
X21545D01*
Y32858D01*
X24115D01*
Y32410D01*
X25045D01*
Y33530D01*
X24692D01*
Y34580D01*
X25045D01*
Y35700D01*
X24608D01*
Y35783D01*
X24723D01*
Y36277D01*
X24608D01*
Y36383D01*
X24723D01*
Y36877D01*
X24282D01*
X24270Y36877D01*
X24202Y36907D01*
D02*
G37*
G36*
X13820Y34041D02*
X13673Y34022D01*
X13537Y33965D01*
X13419Y33875D01*
X13329Y33758D01*
X13272Y33621D01*
X13253Y33474D01*
X13272Y33327D01*
X13329Y33191D01*
X13419Y33073D01*
X13537Y32983D01*
X13673Y32926D01*
X13820Y32907D01*
X13967Y32926D01*
X14104Y32983D01*
X14221Y33073D01*
X14311Y33191D01*
X14368Y33327D01*
X14387Y33474D01*
X14368Y33621D01*
X14311Y33758D01*
X14221Y33875D01*
X14104Y33965D01*
X13967Y34022D01*
X13820Y34041D01*
D02*
G37*
G36*
X47130Y34053D02*
X46962Y34040D01*
X46798Y34001D01*
X46643Y33936D01*
X46499Y33848D01*
X46371Y33739D01*
X46262Y33611D01*
X46174Y33467D01*
X46109Y33312D01*
X46070Y33148D01*
X46057Y32980D01*
X46070Y32812D01*
X46109Y32648D01*
X46174Y32493D01*
X46262Y32349D01*
X46371Y32221D01*
X46499Y32112D01*
X46643Y32024D01*
X46798Y31959D01*
X46962Y31920D01*
X47130Y31907D01*
X47298Y31920D01*
X47462Y31959D01*
X47617Y32024D01*
X47761Y32112D01*
X47889Y32221D01*
X47998Y32349D01*
X48086Y32493D01*
X48151Y32648D01*
X48190Y32812D01*
X48203Y32980D01*
X48190Y33148D01*
X48151Y33312D01*
X48086Y33467D01*
X47998Y33611D01*
X47889Y33739D01*
X47761Y33848D01*
X47617Y33936D01*
X47462Y34001D01*
X47298Y34040D01*
X47130Y34053D01*
D02*
G37*
G36*
X37280Y33813D02*
X37053D01*
Y33606D01*
X37280D01*
Y33813D01*
D02*
G37*
G36*
X23690Y34473D02*
X23606Y34462D01*
X23529Y34430D01*
X23462Y34378D01*
X23410Y34311D01*
X23378Y34234D01*
X23367Y34150D01*
X23378Y34066D01*
X23410Y33989D01*
X23462Y33922D01*
X23529Y33870D01*
X23606Y33838D01*
X23690Y33827D01*
X23774Y33838D01*
X23851Y33870D01*
X23918Y33922D01*
X23970Y33989D01*
X24002Y34066D01*
X24013Y34150D01*
X24002Y34234D01*
X23970Y34311D01*
X23918Y34378D01*
X23851Y34430D01*
X23774Y34462D01*
X23690Y34473D01*
D02*
G37*
G36*
X21970D02*
X21886Y34462D01*
X21809Y34430D01*
X21742Y34378D01*
X21690Y34311D01*
X21658Y34234D01*
X21647Y34150D01*
X21658Y34066D01*
X21690Y33989D01*
X21742Y33922D01*
X21809Y33870D01*
X21886Y33838D01*
X21970Y33827D01*
X22054Y33838D01*
X22131Y33870D01*
X22198Y33922D01*
X22250Y33989D01*
X22282Y34066D01*
X22293Y34150D01*
X22282Y34234D01*
X22250Y34311D01*
X22198Y34378D01*
X22131Y34430D01*
X22054Y34462D01*
X21970Y34473D01*
D02*
G37*
G36*
X39107Y33813D02*
X38880D01*
Y33606D01*
X39107D01*
Y33813D01*
D02*
G37*
G36*
X30711Y35207D02*
Y34980D01*
X30919D01*
Y35207D01*
X30711D01*
D02*
G37*
G36*
X37737Y36071D02*
X37401D01*
Y35903D01*
X37737D01*
Y36071D01*
D02*
G37*
G36*
X37301D02*
X36966D01*
Y35903D01*
X37301D01*
Y36071D01*
D02*
G37*
G36*
X18986Y36171D02*
X18670D01*
Y35698D01*
X18986D01*
Y36171D01*
D02*
G37*
G36*
X26580Y36354D02*
X26353D01*
Y36147D01*
X26580D01*
Y36354D01*
D02*
G37*
G36*
X19468Y36695D02*
X19221D01*
Y36173D01*
X19468D01*
Y36695D01*
D02*
G37*
G36*
X26153Y36380D02*
X25946D01*
Y36153D01*
X26153D01*
Y36380D01*
D02*
G37*
G36*
X26907Y36354D02*
X26680D01*
Y36147D01*
X26907D01*
Y36354D01*
D02*
G37*
G36*
X19815Y36073D02*
X19568D01*
Y35550D01*
X19815D01*
Y36073D01*
D02*
G37*
G36*
X19468D02*
X19221D01*
Y35550D01*
X19468D01*
Y36073D01*
D02*
G37*
G36*
X23895Y35980D02*
X23687D01*
Y35826D01*
Y35826D01*
X23687Y35814D01*
X23687Y35812D01*
X23684Y35790D01*
X23680Y35783D01*
X23675Y35773D01*
X23673Y35770D01*
X23673Y35770D01*
D01*
X23667Y35759D01*
X23665Y35757D01*
X23661Y35749D01*
X23658Y35743D01*
X23658Y35743D01*
X23656Y35743D01*
X23656Y35743D01*
X23656Y35743D01*
X23656D01*
X23653Y35742D01*
X23638Y35737D01*
X23638Y35737D01*
X23625Y35733D01*
X23609Y35731D01*
X23605Y35730D01*
X23604D01*
X23583Y35730D01*
X23582D01*
X23500D01*
Y35210D01*
X23650D01*
Y35657D01*
Y35657D01*
X23650Y35669D01*
X23650Y35671D01*
X23653Y35693D01*
X23657Y35700D01*
X23662Y35710D01*
X23664Y35712D01*
X23664Y35713D01*
D01*
X23670Y35723D01*
X23672Y35726D01*
X23676Y35734D01*
X23679Y35740D01*
X23680Y35740D01*
X23681Y35740D01*
X23681Y35740D01*
X23682Y35740D01*
X23682D01*
X23684Y35741D01*
X23699Y35746D01*
X23699Y35746D01*
X23712Y35750D01*
X23728Y35752D01*
X23733Y35753D01*
X23733D01*
X23754Y35753D01*
X23755D01*
X23895D01*
Y35980D01*
D02*
G37*
G36*
X37301Y35803D02*
X36966D01*
Y35635D01*
X37301D01*
Y35803D01*
D02*
G37*
G36*
X18570Y36171D02*
X18254D01*
Y35698D01*
X18570D01*
Y36171D01*
D02*
G37*
G36*
X15789Y36797D02*
X15642Y36778D01*
X15505Y36721D01*
X15388Y36631D01*
X15298Y36513D01*
X15241Y36377D01*
X15222Y36230D01*
X15241Y36083D01*
X15298Y35947D01*
X15388Y35829D01*
X15457Y35776D01*
X15467Y35673D01*
X15306Y35513D01*
X13947D01*
Y34191D01*
X14913D01*
X15319Y33785D01*
X15298Y33758D01*
X15241Y33621D01*
X15222Y33474D01*
X15241Y33327D01*
X15298Y33191D01*
X15388Y33073D01*
X15505Y32983D01*
X15642Y32926D01*
X15789Y32907D01*
X15935Y32926D01*
X16072Y32983D01*
X16190Y33073D01*
X16280Y33191D01*
X16336Y33327D01*
X16356Y33474D01*
X16336Y33621D01*
X16280Y33758D01*
X16190Y33875D01*
X16072Y33965D01*
X15935Y34022D01*
X15789Y34041D01*
X15642Y34022D01*
X15505Y33965D01*
X15477Y33944D01*
X15304Y34118D01*
X15334Y34191D01*
X15662D01*
Y34529D01*
X16064D01*
X17219Y33375D01*
X17286Y33324D01*
X17363Y33291D01*
X17447Y33280D01*
X17458D01*
Y32195D01*
X19783D01*
Y35012D01*
X17458D01*
Y34153D01*
X17384Y34123D01*
X16426Y35080D01*
X16359Y35132D01*
X16282Y35164D01*
X16198Y35175D01*
X15662D01*
Y35513D01*
X15662Y35513D01*
X15662D01*
X15692Y35581D01*
X15776Y35665D01*
X15789Y35663D01*
X15935Y35682D01*
X16072Y35739D01*
X16190Y35829D01*
X16280Y35947D01*
X16336Y36083D01*
X16356Y36230D01*
X16336Y36377D01*
X16280Y36513D01*
X16190Y36631D01*
X16072Y36721D01*
X15935Y36778D01*
X15789Y36797D01*
D02*
G37*
G36*
X37737Y35803D02*
X37401D01*
Y35635D01*
X37737D01*
Y35803D01*
D02*
G37*
G36*
X14754Y40402D02*
X13917D01*
Y39761D01*
X14754D01*
Y40402D01*
D02*
G37*
G36*
X14970Y47119D02*
X14428D01*
Y46282D01*
X14970D01*
Y47119D01*
D02*
G37*
G36*
X15612D02*
X15070D01*
Y46282D01*
X15612D01*
Y47119D01*
D02*
G37*
G36*
X30313Y43537D02*
X29602D01*
Y43469D01*
X29528Y43461D01*
X29485Y43453D01*
X29449Y43428D01*
X29449Y43428D01*
X29384Y43363D01*
X29267D01*
Y43478D01*
X28773D01*
Y43037D01*
X28773Y43024D01*
X28743Y42957D01*
Y42957D01*
X28743Y42955D01*
Y42749D01*
X29297D01*
Y42955D01*
X29297Y42957D01*
Y42957D01*
X29267Y43024D01*
X29267Y43037D01*
Y43138D01*
X29430D01*
X29430Y43138D01*
X29473Y43147D01*
X29509Y43171D01*
X29522Y43184D01*
X29602Y43161D01*
Y43161D01*
X30313D01*
Y43537D01*
D02*
G37*
G36*
X34530Y45748D02*
X34435Y45736D01*
X34346Y45699D01*
X34269Y45641D01*
X34211Y45564D01*
X34174Y45475D01*
X34162Y45380D01*
X34174Y45285D01*
X34211Y45196D01*
X34269Y45119D01*
X34346Y45061D01*
X34435Y45024D01*
X34530Y45012D01*
X34625Y45024D01*
X34714Y45061D01*
X34791Y45119D01*
X34849Y45196D01*
X34886Y45285D01*
X34898Y45380D01*
X34886Y45475D01*
X34849Y45564D01*
X34791Y45641D01*
X34714Y45699D01*
X34625Y45736D01*
X34530Y45748D01*
D02*
G37*
G36*
X24346Y46307D02*
Y46080D01*
X24553D01*
Y46307D01*
X24346D01*
D02*
G37*
G36*
X32163Y48371D02*
X19287D01*
X19164Y48355D01*
X19050Y48307D01*
X18952Y48232D01*
X18335Y47615D01*
X18318Y47593D01*
X18295Y47575D01*
X18219Y47477D01*
X18172Y47363D01*
X18156Y47240D01*
Y46765D01*
X17467D01*
Y43948D01*
X19793D01*
Y46765D01*
X19793Y46765D01*
X19793D01*
X19829Y46830D01*
X20081Y47082D01*
X20155Y47052D01*
Y46380D01*
X21705D01*
Y46559D01*
X21778Y46581D01*
X21798Y46564D01*
X21804Y46554D01*
X21828Y46538D01*
X21837Y46530D01*
Y46400D01*
X21848Y46349D01*
X21876Y46306D01*
X22246Y45936D01*
X22289Y45908D01*
X22317Y45902D01*
Y45783D01*
X22772D01*
Y46277D01*
X22317D01*
X22317Y46277D01*
Y46277D01*
X22249Y46308D01*
X22103Y46455D01*
Y46532D01*
X22136Y46554D01*
X22187Y46630D01*
X22205Y46720D01*
X22187Y46810D01*
X22136Y46886D01*
X22060Y46937D01*
X21970Y46955D01*
X21880Y46937D01*
X21804Y46886D01*
X21785Y46857D01*
X21705Y46881D01*
Y47355D01*
X21705Y47355D01*
X21705D01*
X21705Y47355D01*
X21734Y47423D01*
X22331D01*
X22350Y47403D01*
X22378Y47343D01*
X22360Y47300D01*
X22351Y47230D01*
X22360Y47160D01*
X22387Y47095D01*
X22430Y47040D01*
X22444Y47029D01*
Y46931D01*
X22430Y46920D01*
X22387Y46865D01*
X22360Y46800D01*
X22351Y46730D01*
X22360Y46660D01*
X22387Y46595D01*
X22430Y46540D01*
X22486Y46497D01*
X22550Y46470D01*
X22620Y46461D01*
X22690Y46470D01*
X22712Y46479D01*
X22842Y46349D01*
X22868Y46277D01*
X22868D01*
X22868Y46277D01*
Y45783D01*
X23323D01*
Y45918D01*
X23517D01*
Y45783D01*
X23958D01*
X23971Y45783D01*
X24038Y45753D01*
X24038D01*
X24040Y45753D01*
X24246D01*
Y46030D01*
Y46307D01*
X24040D01*
X24038Y46307D01*
X24038D01*
X23971Y46277D01*
X23958Y46277D01*
X23517D01*
Y46142D01*
X23323D01*
Y46277D01*
X23203D01*
X23199Y46297D01*
X23175Y46334D01*
X23126Y46383D01*
X23156Y46466D01*
X23190Y46470D01*
X23255Y46497D01*
X23310Y46540D01*
X23322Y46554D01*
X23419D01*
X23430Y46540D01*
X23486Y46497D01*
X23550Y46470D01*
X23620Y46461D01*
X23690Y46470D01*
X23755Y46497D01*
X23810Y46540D01*
X23822Y46554D01*
X23919D01*
X23930Y46540D01*
X23986Y46497D01*
X24050Y46470D01*
X24120Y46461D01*
X24190Y46470D01*
X24255Y46497D01*
X24310Y46540D01*
X24322Y46554D01*
X24419D01*
X24430Y46540D01*
X24486Y46497D01*
X24550Y46470D01*
X24620Y46461D01*
X24690Y46470D01*
X24755Y46497D01*
X24810Y46540D01*
X24853Y46595D01*
X24880Y46660D01*
X24889Y46730D01*
X24880Y46800D01*
X24853Y46865D01*
X24839Y46883D01*
X24878Y46963D01*
X24887D01*
Y47423D01*
X26486D01*
X26540Y47386D01*
X26630Y47369D01*
X26720Y47386D01*
X26774Y47423D01*
X28269D01*
X28300Y47349D01*
X27669Y46718D01*
X27589Y46749D01*
Y46772D01*
X26878D01*
Y46694D01*
X26846Y46688D01*
X26809Y46663D01*
X26809Y46663D01*
X26803Y46657D01*
X26723Y46690D01*
Y46733D01*
X26229D01*
Y46292D01*
X26229Y46279D01*
X26199Y46212D01*
Y46212D01*
X26199Y46211D01*
Y46004D01*
X26753D01*
Y46211D01*
X26753Y46212D01*
Y46212D01*
X26723Y46279D01*
X26723Y46292D01*
Y46318D01*
X26803Y46393D01*
X26810D01*
X26810D01*
X26886Y46396D01*
X27589D01*
Y46472D01*
X27693D01*
X27693Y46472D01*
X27736Y46480D01*
X27773Y46505D01*
X28257Y46989D01*
X28335Y46954D01*
X28345Y46877D01*
X28385Y46781D01*
X28448Y46698D01*
X28531Y46635D01*
X28627Y46595D01*
X28680Y46588D01*
Y46980D01*
X28780D01*
Y46588D01*
X28833Y46595D01*
X28929Y46635D01*
X29012Y46698D01*
X29075Y46781D01*
X29084Y46801D01*
X29162Y46816D01*
X29678Y46301D01*
X29714Y46276D01*
X29757Y46268D01*
X29757Y46268D01*
X31245D01*
X31821Y45692D01*
X31791Y45618D01*
X31462D01*
Y45890D01*
X31462Y45890D01*
X31454Y45933D01*
X31429Y45969D01*
X31279Y46119D01*
X31243Y46144D01*
X31200Y46152D01*
X31200Y46152D01*
X29915D01*
X29873Y46144D01*
X29838Y46120D01*
X29691D01*
X29629Y46120D01*
X29620D01*
X29611D01*
X29549Y46120D01*
X29038D01*
Y45429D01*
X29213D01*
Y45343D01*
X29007Y45137D01*
X28681D01*
Y44984D01*
X28459Y44763D01*
X27967D01*
Y44387D01*
X28559D01*
Y44546D01*
X28775Y44761D01*
X28865D01*
Y44389D01*
X28681D01*
Y44013D01*
X29274D01*
Y44389D01*
X29089D01*
Y44761D01*
X29274D01*
Y45087D01*
X29404Y45217D01*
X29404Y45217D01*
X29428Y45254D01*
X29437Y45297D01*
Y45373D01*
X29494Y45429D01*
X29549D01*
X29611Y45429D01*
X29620D01*
X29629D01*
X29691Y45429D01*
X30202D01*
Y45928D01*
X30402D01*
Y45616D01*
X31088D01*
Y45244D01*
X30402D01*
X30402Y45244D01*
Y45244D01*
X30402Y45244D01*
X30331Y45265D01*
X30320Y45273D01*
X30230Y45290D01*
X30140Y45273D01*
X30064Y45222D01*
X30013Y45146D01*
X29995Y45056D01*
X30013Y44966D01*
X30064Y44890D01*
X30118Y44854D01*
X30122Y44851D01*
X30134Y44844D01*
X30135Y44842D01*
X30135Y44840D01*
X30136Y44837D01*
X30134Y44835D01*
X30127Y44824D01*
X30106Y44791D01*
X30088Y44763D01*
X30088D01*
X30086Y44763D01*
X30086Y44763D01*
X30083Y44763D01*
X29567D01*
Y44387D01*
X30029D01*
X30317Y44099D01*
Y43928D01*
X30772D01*
Y44422D01*
X30738D01*
X30705Y44502D01*
X30791Y44588D01*
X30870Y44580D01*
X30874Y44574D01*
X30950Y44523D01*
X31040Y44505D01*
X31130Y44523D01*
X31168Y44549D01*
X31248Y44506D01*
Y44422D01*
X30868D01*
Y43928D01*
X30984D01*
Y43234D01*
X30912Y43163D01*
X30527D01*
Y42787D01*
X31238D01*
Y42864D01*
X31273Y42871D01*
X31309Y42896D01*
X31538Y43124D01*
X31602Y43161D01*
Y43161D01*
X31602Y43161D01*
X32313D01*
Y43537D01*
X31602D01*
Y43461D01*
X31561Y43453D01*
X31525Y43428D01*
X31525Y43428D01*
X31288Y43191D01*
X31208Y43225D01*
Y43928D01*
X31323D01*
Y44071D01*
X31359Y44096D01*
X31437Y44173D01*
X31447Y44173D01*
X31517Y44148D01*
Y43928D01*
X31972D01*
Y44422D01*
X31857D01*
Y44770D01*
X31857Y44770D01*
X31848Y44813D01*
X31824Y44849D01*
X31824Y44849D01*
X31795Y44878D01*
Y45242D01*
X32038D01*
Y45309D01*
X32112Y45339D01*
X32258Y45193D01*
X32245Y45130D01*
X32263Y45040D01*
X32314Y44964D01*
X32390Y44913D01*
X32480Y44895D01*
X32570Y44913D01*
X32646Y44964D01*
X32697Y45040D01*
X32715Y45130D01*
X32697Y45220D01*
X32646Y45296D01*
X32570Y45347D01*
X32480Y45365D01*
X32417Y45352D01*
X32190Y45578D01*
Y45594D01*
X32182Y45637D01*
X32157Y45673D01*
X32157Y45673D01*
X31371Y46459D01*
X31335Y46484D01*
X31292Y46492D01*
X31292Y46492D01*
X29821D01*
X29778Y46546D01*
X29806Y46622D01*
X29825Y46624D01*
X29914Y46661D01*
X29991Y46719D01*
X30049Y46796D01*
X30086Y46885D01*
X30098Y46980D01*
X30086Y47075D01*
X30049Y47164D01*
X29991Y47241D01*
X29914Y47299D01*
X29825Y47336D01*
X29773Y47343D01*
X29778Y47423D01*
X30682D01*
X30687Y47343D01*
X30635Y47336D01*
X30546Y47299D01*
X30469Y47241D01*
X30411Y47164D01*
X30374Y47075D01*
X30362Y46980D01*
X30374Y46885D01*
X30411Y46796D01*
X30469Y46719D01*
X30546Y46661D01*
X30635Y46624D01*
X30730Y46612D01*
X30825Y46624D01*
X30914Y46661D01*
X30991Y46719D01*
X31049Y46796D01*
X31086Y46885D01*
X31098Y46980D01*
X31086Y47075D01*
X31049Y47164D01*
X30991Y47241D01*
X30914Y47299D01*
X30825Y47336D01*
X30773Y47343D01*
X30778Y47423D01*
X31682D01*
X31687Y47343D01*
X31635Y47336D01*
X31546Y47299D01*
X31469Y47241D01*
X31411Y47164D01*
X31374Y47075D01*
X31362Y46980D01*
X31374Y46885D01*
X31411Y46796D01*
X31469Y46719D01*
X31546Y46661D01*
X31635Y46624D01*
X31730Y46612D01*
X31825Y46624D01*
X31914Y46661D01*
X31991Y46719D01*
X32049Y46796D01*
X32086Y46885D01*
X32098Y46980D01*
X32086Y47075D01*
X32049Y47164D01*
X31991Y47241D01*
X31914Y47299D01*
X31825Y47336D01*
X31773Y47343D01*
X31778Y47423D01*
X31967D01*
X32365Y47025D01*
Y46615D01*
X33095D01*
Y46756D01*
X34089D01*
X34165Y46745D01*
X34165Y46676D01*
Y46015D01*
X34895D01*
Y46676D01*
X34895Y46745D01*
X34971Y46756D01*
X35288D01*
X35316Y46676D01*
X35269Y46641D01*
X35211Y46564D01*
X35174Y46475D01*
X35162Y46380D01*
X35174Y46285D01*
X35211Y46196D01*
X35269Y46119D01*
X35346Y46061D01*
X35435Y46024D01*
X35530Y46012D01*
X35625Y46024D01*
X35714Y46061D01*
X35791Y46119D01*
X35838Y46181D01*
X35861Y46197D01*
X35939Y46204D01*
X35942Y46202D01*
X35984Y46193D01*
X35984Y46193D01*
X36033D01*
X36057Y46113D01*
X36051Y46109D01*
X36051Y46109D01*
X35941Y45999D01*
X35916Y45963D01*
X35908Y45920D01*
X35908Y45920D01*
Y45916D01*
X35697Y45706D01*
X35625Y45736D01*
X35530Y45748D01*
X35435Y45736D01*
X35346Y45699D01*
X35269Y45641D01*
X35211Y45564D01*
X35174Y45475D01*
X35162Y45380D01*
X35174Y45285D01*
X35211Y45196D01*
X35269Y45119D01*
X35344Y45063D01*
X35344Y45056D01*
X35326Y44983D01*
X35310D01*
X35259Y44972D01*
X35216Y44944D01*
X34936Y44664D01*
X34908Y44621D01*
X34907Y44620D01*
X34822Y44600D01*
X34791Y44641D01*
X34714Y44699D01*
X34625Y44736D01*
X34530Y44748D01*
X34435Y44736D01*
X34346Y44699D01*
X34269Y44641D01*
X34211Y44564D01*
X34174Y44475D01*
X34162Y44380D01*
X34174Y44285D01*
X34211Y44196D01*
X34269Y44119D01*
X34346Y44061D01*
X34435Y44024D01*
X34530Y44012D01*
X34625Y44024D01*
X34714Y44061D01*
X34791Y44119D01*
X34817Y44155D01*
X34897Y44127D01*
Y42415D01*
X34824Y42384D01*
X34774Y42434D01*
X34731Y42462D01*
X34680Y42473D01*
X32380D01*
X32343Y42480D01*
Y42551D01*
X31572D01*
Y42453D01*
X30343D01*
Y42551D01*
X29572D01*
Y42453D01*
X29354D01*
X29297Y42509D01*
Y42649D01*
X28743D01*
Y42453D01*
X28396D01*
Y42630D01*
X27645D01*
Y42453D01*
X27420D01*
X27406Y42450D01*
X27358Y42522D01*
X27381Y42556D01*
X27399Y42646D01*
X27381Y42735D01*
X27330Y42811D01*
X27254Y42862D01*
X27164Y42880D01*
X27075Y42862D01*
X26999Y42811D01*
X26948Y42735D01*
X26930Y42646D01*
X26948Y42556D01*
X26999Y42480D01*
X27032Y42458D01*
Y42373D01*
X26890D01*
X26839Y42362D01*
X26796Y42334D01*
X25836Y41374D01*
X25808Y41331D01*
X25797Y41280D01*
Y41083D01*
X25683D01*
Y40988D01*
X25577D01*
Y41083D01*
X25448D01*
X25424Y41119D01*
X24740Y41803D01*
X24757Y41883D01*
X24823D01*
Y42231D01*
X24897Y42262D01*
X24961Y42199D01*
X24968Y42194D01*
X24974Y42187D01*
X25017Y42156D01*
Y41883D01*
X25408D01*
Y41692D01*
X25354Y41656D01*
X25303Y41580D01*
X25285Y41490D01*
X25303Y41400D01*
X25354Y41324D01*
X25430Y41273D01*
X25520Y41255D01*
X25610Y41273D01*
X25686Y41324D01*
X25737Y41400D01*
X25755Y41490D01*
X25737Y41580D01*
X25686Y41656D01*
X25632Y41692D01*
Y41883D01*
X26023D01*
Y42155D01*
X26296Y42427D01*
X26667D01*
Y42771D01*
X26730Y42818D01*
X26773Y42826D01*
X26809Y42851D01*
X27079Y43121D01*
X27079Y43121D01*
X27104Y43157D01*
X27112Y43200D01*
X27112Y43200D01*
Y43408D01*
X27166Y43444D01*
X27217Y43520D01*
X27225Y43563D01*
X27307D01*
X27313Y43530D01*
X27364Y43454D01*
X27381Y43443D01*
X27386Y43417D01*
X27411Y43381D01*
X27601Y43191D01*
X27601Y43191D01*
X27637Y43167D01*
X27675Y43159D01*
Y42996D01*
X27645D01*
Y42730D01*
X28396D01*
Y42996D01*
X28366D01*
Y43557D01*
X27815D01*
X27764Y43619D01*
X27765Y43620D01*
X27747Y43710D01*
X27696Y43786D01*
X27620Y43837D01*
X27602Y43840D01*
Y44013D01*
X27674D01*
Y44389D01*
X27489D01*
Y44761D01*
X27674D01*
Y45137D01*
X27081D01*
X27081Y45137D01*
Y45137D01*
X27003Y45146D01*
X26889Y45259D01*
X26853Y45284D01*
X26810Y45292D01*
X26810Y45292D01*
X26073D01*
Y45427D01*
X25698D01*
X25618Y45427D01*
X25618Y45427D01*
X25618Y45427D01*
X25618Y45427D01*
X25552Y45457D01*
X25552Y45457D01*
Y45457D01*
X25551Y45457D01*
X25345D01*
Y45180D01*
X25245D01*
Y45457D01*
X25037D01*
Y45457D01*
X25003D01*
Y45457D01*
X24796D01*
Y45180D01*
X24696D01*
Y45457D01*
X24582D01*
Y45480D01*
X24574Y45523D01*
X24549Y45559D01*
X24513Y45584D01*
X24470Y45592D01*
X22205D01*
X22205Y45592D01*
X22162Y45584D01*
X22125Y45559D01*
X22125Y45559D01*
X21765Y45199D01*
X21741Y45163D01*
X21732Y45120D01*
X21732Y45120D01*
Y44239D01*
X21706Y44212D01*
X21653Y44180D01*
X21653Y44180D01*
X21650Y44180D01*
X21648Y44181D01*
X21647Y44181D01*
X21644Y44183D01*
X21643Y44183D01*
X21643Y44183D01*
X21643Y44183D01*
X21643D01*
X21636Y44186D01*
X21628Y44190D01*
X21627Y44190D01*
X21624Y44192D01*
X21624Y44192D01*
D01*
X21620Y44194D01*
X21615Y44196D01*
X21612Y44198D01*
X21609Y44199D01*
X21608Y44199D01*
X21608Y44199D01*
X21607Y44202D01*
X21606Y44205D01*
X21605Y44207D01*
X21604Y44209D01*
D01*
X21604Y44209D01*
X21602Y44214D01*
X21599Y44221D01*
X21598Y44223D01*
X21593Y44235D01*
X21593Y44235D01*
X21593Y44235D01*
X21593Y44236D01*
X21592Y44237D01*
X21592Y44238D01*
X21591Y44248D01*
X21589Y44260D01*
Y44261D01*
X21589Y44278D01*
D01*
Y45135D01*
X20071D01*
Y44208D01*
X20247D01*
X20278Y44134D01*
X19523Y43380D01*
X19261D01*
Y43106D01*
X19248Y43089D01*
X19216Y43011D01*
X19205Y42928D01*
Y42837D01*
X19216Y42754D01*
X19248Y42676D01*
X19261Y42659D01*
Y42367D01*
X19072D01*
Y43020D01*
X19064Y43063D01*
X19039Y43099D01*
X19039Y43099D01*
X18852Y43287D01*
X18865Y43350D01*
X18847Y43440D01*
X18796Y43516D01*
X18720Y43567D01*
X18630Y43585D01*
X18540Y43567D01*
X18464Y43516D01*
X18413Y43440D01*
X18395Y43350D01*
X18413Y43260D01*
X18464Y43184D01*
X18540Y43133D01*
X18630Y43115D01*
X18693Y43128D01*
X18848Y42974D01*
Y42421D01*
X18768Y42385D01*
X18720Y42417D01*
X18630Y42435D01*
X18540Y42417D01*
X18464Y42366D01*
X18428Y42312D01*
X17999D01*
Y43380D01*
X17466D01*
Y42295D01*
X17623D01*
X17629Y42265D01*
X17653Y42228D01*
X17761Y42121D01*
X17765Y42118D01*
X17740Y42038D01*
X17280D01*
X17270Y42037D01*
X15582Y43724D01*
Y44687D01*
X14458D01*
Y42973D01*
X15421D01*
X15899Y42494D01*
X15863Y42418D01*
X15839Y42420D01*
Y41880D01*
X16379D01*
X16376Y41904D01*
X16453Y41941D01*
X16885Y41509D01*
Y38586D01*
X16885Y38586D01*
X16885Y38586D01*
X16888Y38560D01*
X16896Y38502D01*
X16896Y38502D01*
X16896Y38502D01*
X16913Y38461D01*
X16928Y38424D01*
X16928Y38424D01*
X16928Y38424D01*
X16961Y38382D01*
X16979Y38357D01*
X16979Y38357D01*
X16979Y38357D01*
X17167Y38170D01*
X17206Y38140D01*
X17234Y38119D01*
X17234Y38119D01*
X17234Y38119D01*
X17271Y38103D01*
X17283Y38098D01*
X17267Y38018D01*
X16876D01*
Y38112D01*
X16184D01*
Y37957D01*
X16056D01*
Y38112D01*
X15404D01*
Y37578D01*
X16056D01*
Y37733D01*
X16184D01*
Y37551D01*
X16154D01*
Y37285D01*
X16906D01*
Y37551D01*
X16876D01*
Y37672D01*
X17343D01*
X17400Y37615D01*
Y37537D01*
Y36123D01*
X17411Y36039D01*
X17443Y35962D01*
X17456Y35945D01*
Y35580D01*
X17989D01*
Y35945D01*
X18002Y35962D01*
X18034Y36039D01*
X18045Y36123D01*
Y37537D01*
Y38398D01*
X18034Y38482D01*
X18011Y38538D01*
X18039Y38598D01*
X18058Y38618D01*
X18570D01*
Y40057D01*
X18620D01*
Y40107D01*
X19813D01*
Y41393D01*
X20306D01*
X20389Y41404D01*
X20467Y41436D01*
X20534Y41487D01*
X20948Y41902D01*
X20966Y41925D01*
X21589D01*
Y42852D01*
X21550D01*
X21519Y42926D01*
X21776Y43183D01*
X21996D01*
X22001D01*
X22002D01*
X22031Y43183D01*
X22031D01*
Y43183D01*
X22057Y43174D01*
X22086Y43164D01*
X22087Y43164D01*
X22090Y43161D01*
X22090Y43161D01*
X22094Y43157D01*
X22101Y43150D01*
X22113Y43119D01*
X22117Y43107D01*
D01*
X22123Y43088D01*
Y43061D01*
Y42692D01*
X22123Y42679D01*
X22093Y42612D01*
Y42612D01*
X22093Y42611D01*
Y42404D01*
X22370D01*
Y42354D01*
X22420D01*
Y42097D01*
X22607D01*
X22647Y42097D01*
X22687Y42033D01*
X22687Y42033D01*
Y41853D01*
X22895D01*
Y42130D01*
Y42407D01*
X22727D01*
X22687Y42407D01*
X22647Y42471D01*
Y42611D01*
X22647Y42612D01*
Y42612D01*
X22617Y42679D01*
X22617Y42692D01*
Y43133D01*
X22617Y43133D01*
D01*
X22623Y43183D01*
X22623D01*
X22623Y43211D01*
Y43318D01*
X22876D01*
X22901Y43280D01*
X22966Y43237D01*
X22968Y43219D01*
X22961Y43155D01*
X22958Y43154D01*
X22880Y43101D01*
X22827Y43023D01*
X22819Y42980D01*
X23835D01*
X23826Y43023D01*
X23774Y43101D01*
X23695Y43154D01*
X23693Y43155D01*
X23685Y43219D01*
X23688Y43237D01*
X23752Y43280D01*
X23798Y43349D01*
X23814Y43430D01*
X23798Y43511D01*
X23752Y43580D01*
X23684Y43626D01*
X23602Y43642D01*
Y43718D01*
X23684Y43734D01*
X23752Y43780D01*
X23768Y43804D01*
X23848Y43779D01*
Y43768D01*
X23848Y43768D01*
X23856Y43725D01*
X23881Y43689D01*
X24278Y43292D01*
Y42928D01*
X24278Y42928D01*
X24286Y42885D01*
X24311Y42849D01*
X24708Y42451D01*
X24678Y42377D01*
X24368D01*
Y41883D01*
X24463D01*
Y41760D01*
X24473Y41709D01*
X24502Y41666D01*
X25031Y41137D01*
X25083Y41083D01*
X25083D01*
X25083Y41083D01*
Y40642D01*
X25083Y40629D01*
X25053Y40562D01*
Y40562D01*
X25053Y40561D01*
Y40354D01*
X25330D01*
Y40304D01*
X25380D01*
Y40047D01*
X25573D01*
X25607Y40047D01*
X25686Y40047D01*
X25687D01*
X25880D01*
Y40304D01*
X25980D01*
Y40047D01*
X26207D01*
X26207Y40047D01*
Y40047D01*
X26279Y40023D01*
X26284Y40019D01*
X26322Y39994D01*
X26311Y39978D01*
X26309Y39966D01*
X26815D01*
Y39866D01*
X26265D01*
X26237Y39831D01*
X25119D01*
X25096Y39866D01*
X25020Y39917D01*
X24930Y39935D01*
X24840Y39917D01*
X24764Y39866D01*
X24713Y39790D01*
X24695Y39700D01*
X24713Y39610D01*
X24764Y39534D01*
X24770Y39530D01*
Y39450D01*
X24764Y39446D01*
X24713Y39370D01*
X24695Y39280D01*
X24713Y39190D01*
X24764Y39114D01*
X24840Y39063D01*
X24930Y39045D01*
X25020Y39063D01*
X25096Y39114D01*
X25147Y39190D01*
X25165Y39280D01*
X25153Y39340D01*
X25223Y39410D01*
X25663D01*
X25693Y39336D01*
X25215Y38858D01*
X24766D01*
Y39012D01*
X24075D01*
Y38451D01*
X24045D01*
Y38185D01*
X24420D01*
Y38135D01*
X24470D01*
Y37818D01*
X24796D01*
X24818Y37747D01*
Y37280D01*
X24818Y37280D01*
X24826Y37237D01*
X24851Y37201D01*
X25101Y36951D01*
X25101Y36951D01*
X25117Y36940D01*
Y36783D01*
X25508D01*
Y36677D01*
X25117D01*
Y36183D01*
X25571D01*
X25638Y36153D01*
X25638Y36153D01*
X25638Y36153D01*
X25638Y36153D01*
Y36153D01*
X25638Y36153D01*
Y36153D01*
X25846D01*
Y36430D01*
X25896D01*
Y36480D01*
X26153D01*
Y36707D01*
X26143D01*
X26123Y36783D01*
X26165Y36845D01*
X26193Y36858D01*
X26203Y36860D01*
X26244Y36833D01*
X26294Y36823D01*
X26326D01*
X26383Y36766D01*
Y36742D01*
X26383Y36729D01*
X26353Y36662D01*
Y36662D01*
X26353Y36661D01*
Y36454D01*
X26907D01*
Y36628D01*
X26987Y36661D01*
X27117Y36531D01*
Y36280D01*
Y35828D01*
X27084Y35806D01*
X27033Y35730D01*
X27015Y35640D01*
X27033Y35550D01*
X27084Y35474D01*
X27160Y35423D01*
X27250Y35405D01*
X27340Y35423D01*
X27416Y35474D01*
X27467Y35550D01*
X27485Y35640D01*
X27467Y35730D01*
X27416Y35806D01*
X27383Y35828D01*
Y36147D01*
X28039D01*
X28063Y36067D01*
X28051Y36059D01*
X28051Y36059D01*
X27631Y35639D01*
X27606Y35603D01*
X27598Y35560D01*
X27598Y35560D01*
Y35177D01*
X27482D01*
Y35042D01*
X27289D01*
Y35177D01*
X26835D01*
X26767Y35207D01*
X26767Y35207D01*
X26767Y35207D01*
X26767Y35207D01*
Y35207D01*
X26767Y35207D01*
Y35207D01*
X26560D01*
Y34930D01*
X26510D01*
Y34880D01*
X26252D01*
Y34653D01*
X26521D01*
X26551Y34579D01*
X26351Y34378D01*
X26326Y34342D01*
X26318Y34299D01*
X26318Y34299D01*
Y33715D01*
X25260D01*
Y32745D01*
X27600D01*
Y33715D01*
X26542D01*
Y34252D01*
X26973Y34683D01*
X27289D01*
Y34818D01*
X27482D01*
Y34683D01*
X27937D01*
Y35177D01*
X27822D01*
Y35513D01*
X28176Y35868D01*
X28346D01*
X28379Y35788D01*
X28182Y35590D01*
X28157Y35554D01*
X28149Y35511D01*
X28149Y35511D01*
Y35177D01*
X28034D01*
Y34683D01*
X28489D01*
Y34818D01*
X28682D01*
Y34683D01*
X28998D01*
X29892Y33789D01*
X29862Y33715D01*
X29000D01*
Y32745D01*
X31340D01*
Y33715D01*
X30272D01*
X30249Y33749D01*
X30249Y33749D01*
X29420Y34579D01*
X29450Y34653D01*
X29719D01*
Y34880D01*
X29461D01*
Y34930D01*
X29411D01*
Y35207D01*
X29204D01*
Y35207D01*
X29204Y35207D01*
X29204Y35207D01*
D01*
X29204Y35207D01*
X29204Y35207D01*
X29136Y35177D01*
X28682D01*
Y35042D01*
X28489D01*
Y35177D01*
X28373D01*
Y35465D01*
X28576Y35668D01*
X30158D01*
X30158Y35668D01*
X30201Y35676D01*
X30237Y35701D01*
X31304Y36768D01*
X31328Y36804D01*
X31337Y36847D01*
X31337Y36847D01*
Y37422D01*
X31579D01*
X31658Y37362D01*
Y34427D01*
X31584Y34396D01*
X31306Y34674D01*
X31263Y34703D01*
X31213Y34713D01*
X30919D01*
Y34880D01*
X30661D01*
Y34930D01*
X30611D01*
Y35207D01*
X30405D01*
X30405D01*
X30404Y35207D01*
Y35207D01*
X30404Y35207D01*
X30337Y35177D01*
X30337Y35177D01*
X30337Y35177D01*
X30337Y35177D01*
X30257Y35177D01*
X29882D01*
Y34683D01*
X29983D01*
X29983Y34683D01*
X29987Y34659D01*
X29989Y34658D01*
X29989Y34656D01*
X30003Y34636D01*
X30016Y34616D01*
X30146Y34486D01*
X30175Y34467D01*
X30372Y34282D01*
X30365Y34250D01*
X30383Y34160D01*
X30434Y34084D01*
X30510Y34033D01*
X30600Y34015D01*
X30690Y34033D01*
X30766Y34084D01*
X30817Y34160D01*
X30835Y34250D01*
X30817Y34340D01*
X30798Y34368D01*
X30841Y34448D01*
X31158D01*
X31457Y34148D01*
Y32460D01*
X31468Y32409D01*
X31496Y32366D01*
X31906Y31956D01*
X31949Y31928D01*
X32000Y31917D01*
X35550D01*
X35601Y31928D01*
X35644Y31956D01*
X35754Y32066D01*
X35782Y32109D01*
X35793Y32160D01*
Y32391D01*
X35873Y32397D01*
X35874Y32385D01*
X35911Y32296D01*
X35969Y32219D01*
X36046Y32161D01*
X36135Y32124D01*
X36230Y32112D01*
X36325Y32124D01*
X36414Y32161D01*
X36491Y32219D01*
X36549Y32296D01*
X36586Y32385D01*
X36598Y32480D01*
X36586Y32575D01*
X36549Y32664D01*
X36491Y32741D01*
X36414Y32799D01*
X36325Y32836D01*
X36230Y32848D01*
X36135Y32836D01*
X36046Y32799D01*
X35969Y32741D01*
X35911Y32664D01*
X35874Y32575D01*
X35873Y32563D01*
X35793Y32569D01*
Y32800D01*
X35782Y32851D01*
X35754Y32894D01*
X35644Y33004D01*
X35601Y33032D01*
X35550Y33043D01*
X35319D01*
X35313Y33123D01*
X35325Y33124D01*
X35414Y33161D01*
X35491Y33219D01*
X35549Y33296D01*
X35586Y33385D01*
X35598Y33480D01*
X35586Y33575D01*
X35549Y33664D01*
X35491Y33741D01*
X35414Y33799D01*
X35325Y33836D01*
X35230Y33848D01*
X35135Y33836D01*
X35046Y33799D01*
X35013Y33774D01*
X34933Y33813D01*
Y34035D01*
X35054Y34156D01*
X35082Y34199D01*
X35093Y34250D01*
Y34591D01*
X35173Y34597D01*
X35174Y34585D01*
X35211Y34496D01*
X35269Y34419D01*
X35346Y34361D01*
X35435Y34324D01*
X35530Y34312D01*
X35625Y34324D01*
X35697Y34354D01*
X36111Y33941D01*
X36134Y33925D01*
X36128Y33864D01*
X36120Y33845D01*
X35865D01*
Y33115D01*
X36548D01*
Y32890D01*
X36548Y32890D01*
X36556Y32847D01*
X36581Y32811D01*
X37041Y32351D01*
X37041Y32351D01*
X37077Y32326D01*
Y32183D01*
X37532D01*
Y32677D01*
X37077D01*
X37077Y32677D01*
Y32677D01*
X37006Y32703D01*
X36772Y32936D01*
Y33840D01*
X36764Y33883D01*
X36739Y33919D01*
X36739Y33919D01*
X36639Y34020D01*
X36669Y34094D01*
X36691D01*
Y34301D01*
X36414D01*
Y34401D01*
X36691D01*
Y34607D01*
X36691Y34609D01*
Y34609D01*
X36661Y34676D01*
X36661Y34689D01*
Y34790D01*
X36830D01*
X36830Y34790D01*
X36873Y34799D01*
X36909Y34823D01*
X36916Y34830D01*
X36996Y34813D01*
Y34813D01*
X37707D01*
Y35189D01*
X36996D01*
Y35153D01*
X36928Y35113D01*
X36885Y35104D01*
X36849Y35080D01*
X36849Y35080D01*
X36784Y35015D01*
X36661D01*
Y35130D01*
X36553D01*
X36526Y35200D01*
X36517Y35243D01*
X36493Y35279D01*
X36493Y35279D01*
X36034Y35739D01*
X36063Y35819D01*
X36167D01*
Y35724D01*
X36661D01*
Y36179D01*
X36167D01*
Y36084D01*
X36014D01*
X35894Y36204D01*
X35851Y36232D01*
X35800Y36243D01*
X35619D01*
X35613Y36323D01*
X35625Y36324D01*
X35714Y36361D01*
X35752Y36390D01*
X36167D01*
Y36275D01*
X36661D01*
Y36390D01*
X36830D01*
X36830Y36390D01*
X36873Y36399D01*
X36909Y36423D01*
X36916Y36430D01*
X36996Y36413D01*
Y36413D01*
X37707D01*
Y36789D01*
X36996D01*
Y36753D01*
X36928Y36713D01*
X36885Y36704D01*
X36849Y36680D01*
X36849Y36680D01*
X36784Y36615D01*
X36661D01*
Y36730D01*
X36167D01*
Y36615D01*
X35950D01*
X35898Y36675D01*
X35898Y36680D01*
X35886Y36775D01*
X35849Y36864D01*
X35791Y36941D01*
X35714Y36999D01*
X35625Y37036D01*
X35530Y37048D01*
X35435Y37036D01*
X35346Y36999D01*
X35269Y36941D01*
X35211Y36864D01*
X35174Y36775D01*
X35162Y36680D01*
X35174Y36585D01*
X35211Y36496D01*
X35269Y36419D01*
X35346Y36361D01*
X35435Y36324D01*
X35447Y36323D01*
X35441Y36243D01*
X35200D01*
X35149Y36232D01*
X35106Y36204D01*
X34872Y35970D01*
X34792Y35963D01*
X34791Y35964D01*
X34800Y36068D01*
X34843Y36076D01*
X34879Y36101D01*
X35019Y36241D01*
X35019Y36241D01*
X35044Y36277D01*
X35052Y36320D01*
X35052Y36320D01*
Y39790D01*
X35044Y39833D01*
X35019Y39869D01*
X35019Y39869D01*
X34929Y39959D01*
X34893Y39984D01*
X34850Y39992D01*
X34850Y39992D01*
X34750D01*
X34740Y40012D01*
X34729Y40072D01*
X34791Y40119D01*
X34849Y40196D01*
X34886Y40285D01*
X34898Y40380D01*
X34886Y40475D01*
X34849Y40564D01*
X34791Y40641D01*
X34714Y40699D01*
X34625Y40736D01*
X34530Y40748D01*
X34435Y40736D01*
X34346Y40699D01*
X34269Y40641D01*
X34211Y40564D01*
X34174Y40475D01*
X34162Y40380D01*
X34174Y40285D01*
X34211Y40196D01*
X34269Y40119D01*
X34331Y40072D01*
X34320Y40012D01*
X34310Y39992D01*
X32497D01*
Y40104D01*
X32220D01*
Y40204D01*
X32497D01*
Y40410D01*
X32497Y40412D01*
X32497Y40412D01*
X32467Y40478D01*
X32467Y40478D01*
X32467D01*
X32467Y40478D01*
Y40794D01*
X32521Y40848D01*
X32521Y40848D01*
X32546Y40884D01*
X32554Y40927D01*
Y41253D01*
X32676D01*
Y41530D01*
Y41807D01*
X32554D01*
Y42177D01*
X32562Y42189D01*
X32566Y42207D01*
X34625D01*
X34936Y41896D01*
X34967Y41865D01*
Y41764D01*
X34895Y41745D01*
X34887Y41745D01*
X34165D01*
Y41015D01*
X34895D01*
Y41073D01*
X34975Y41081D01*
X34978Y41069D01*
X35006Y41026D01*
X35176Y40856D01*
X35219Y40828D01*
X35270Y40817D01*
X35441D01*
X35447Y40737D01*
X35435Y40736D01*
X35346Y40699D01*
X35269Y40641D01*
X35211Y40564D01*
X35174Y40475D01*
X35162Y40380D01*
X35174Y40285D01*
X35211Y40196D01*
X35269Y40119D01*
X35346Y40061D01*
X35435Y40024D01*
X35530Y40012D01*
X35625Y40024D01*
X35697Y40054D01*
X36025Y39726D01*
X36025Y39726D01*
X36061Y39702D01*
X36104Y39693D01*
X36133Y39624D01*
Y39592D01*
X36133Y39579D01*
X36103Y39512D01*
Y39512D01*
X36103Y39511D01*
Y39304D01*
X36657D01*
Y39511D01*
X36657Y39512D01*
Y39512D01*
X36627Y39579D01*
X36627Y39592D01*
Y39669D01*
X36698Y39693D01*
X36741Y39702D01*
X36777Y39726D01*
X36919Y39868D01*
X36999Y39839D01*
Y39813D01*
X37710D01*
Y40189D01*
X36999D01*
Y40113D01*
X36893D01*
X36893Y40113D01*
X36850Y40104D01*
X36814Y40080D01*
X36814Y40080D01*
X36707Y39974D01*
X36627Y40007D01*
Y40033D01*
X36133D01*
X36133Y40033D01*
Y40033D01*
X36064Y40005D01*
X35856Y40213D01*
X35886Y40285D01*
X35898Y40380D01*
X35886Y40475D01*
X35849Y40564D01*
X35791Y40641D01*
X35714Y40699D01*
X35625Y40736D01*
X35613Y40737D01*
X35619Y40817D01*
X35676D01*
X35726Y40828D01*
X35769Y40856D01*
X35785Y40872D01*
X36133D01*
Y40777D01*
X36627D01*
Y41232D01*
X36133D01*
Y41137D01*
X35907D01*
X35869Y41206D01*
X35903Y41276D01*
X35903Y41276D01*
X35939Y41301D01*
X36053Y41414D01*
X36133Y41381D01*
Y41328D01*
X36627D01*
Y41443D01*
X36840D01*
X36840Y41443D01*
X36883Y41452D01*
X36919Y41476D01*
X36999Y41458D01*
Y41413D01*
X37710D01*
Y41789D01*
X36999D01*
Y41713D01*
X36885D01*
X36885Y41713D01*
X36842Y41704D01*
X36806Y41680D01*
X36806Y41680D01*
X36794Y41668D01*
X36627D01*
Y41783D01*
X36133D01*
Y41668D01*
X36036D01*
X36036Y41668D01*
X35993Y41659D01*
X35956Y41635D01*
X35956Y41635D01*
X35917Y41596D01*
X35816Y41608D01*
X35791Y41641D01*
X35714Y41699D01*
X35625Y41736D01*
X35530Y41748D01*
X35435Y41736D01*
X35346Y41699D01*
X35313Y41674D01*
X35233Y41713D01*
Y41920D01*
X35222Y41971D01*
X35194Y42014D01*
X35163Y42045D01*
Y44127D01*
X35243Y44155D01*
X35269Y44119D01*
X35346Y44061D01*
X35435Y44024D01*
X35530Y44012D01*
X35625Y44024D01*
X35697Y44054D01*
X35905Y43847D01*
Y43533D01*
X35770D01*
Y43078D01*
X36260D01*
X36264Y43078D01*
X36340Y43068D01*
Y43049D01*
X36340Y43048D01*
Y43048D01*
X36370Y42981D01*
X36370Y42968D01*
Y42867D01*
X36264D01*
Y42982D01*
X35770D01*
Y42527D01*
X36264D01*
Y42642D01*
X36370D01*
Y42527D01*
X36864D01*
Y42642D01*
X36970D01*
Y42527D01*
X37464D01*
Y42642D01*
X37570D01*
Y42527D01*
X38064D01*
Y42732D01*
X38144Y42772D01*
X38170Y42753D01*
Y42527D01*
X38664D01*
Y42642D01*
X39458D01*
Y42395D01*
X41783D01*
Y43684D01*
X42658D01*
Y42452D01*
X42330D01*
X42260Y42443D01*
X42194Y42416D01*
X42137Y42373D01*
X42094Y42316D01*
X42067Y42250D01*
X42058Y42180D01*
X42067Y42110D01*
X42094Y42044D01*
X42137Y41987D01*
X42194Y41944D01*
X42260Y41917D01*
X42330Y41908D01*
X42600D01*
Y41320D01*
X42611Y41236D01*
X42631Y41187D01*
X42547Y41103D01*
X42467Y41136D01*
Y41182D01*
X41973D01*
Y40727D01*
X42467D01*
Y40842D01*
X42557D01*
X42557Y40842D01*
X42576Y40846D01*
X42640Y40808D01*
X42656Y40792D01*
Y40777D01*
X43189D01*
Y41065D01*
X43317D01*
Y40930D01*
X43585D01*
X43616Y40856D01*
X43124Y40364D01*
X41555D01*
X41525Y40438D01*
X41597Y40510D01*
X41621Y40547D01*
X41630Y40590D01*
X41630Y40590D01*
Y40780D01*
X41785D01*
Y41393D01*
X41973D01*
Y41278D01*
X42467D01*
Y41733D01*
X41973D01*
Y41618D01*
X41785D01*
Y41865D01*
X41251D01*
Y40780D01*
X41406D01*
Y40636D01*
X41284Y40514D01*
X39555D01*
X38762Y41306D01*
X38726Y41330D01*
X38683Y41339D01*
X38635Y41396D01*
Y41415D01*
X37924D01*
Y41039D01*
X38635D01*
X38635Y41039D01*
Y41039D01*
X38714Y41037D01*
X39359Y40393D01*
X39355Y40283D01*
X38811Y39739D01*
X38635D01*
Y39815D01*
X37924D01*
Y39439D01*
X38635D01*
Y39515D01*
X38857D01*
X38857Y39515D01*
X38900Y39523D01*
X38936Y39548D01*
X39384Y39995D01*
X39458Y39964D01*
Y37919D01*
X38664D01*
Y38033D01*
X38694Y38100D01*
X38694Y38100D01*
X38694Y38100D01*
X38694Y38100D01*
X38694D01*
X38694Y38100D01*
X38694D01*
Y38308D01*
X38417D01*
Y38358D01*
X38367D01*
Y38615D01*
X38140D01*
Y38596D01*
X38064Y38585D01*
X38064Y38585D01*
X38064Y38585D01*
X37574D01*
X37570Y38585D01*
X37494Y38596D01*
Y38615D01*
X37267D01*
Y38358D01*
X37167D01*
Y38615D01*
X36974D01*
X36940Y38615D01*
X36917D01*
X36894D01*
X36860Y38615D01*
X36667D01*
Y38358D01*
X36567D01*
Y38615D01*
X36340D01*
Y38596D01*
X36264Y38585D01*
Y38585D01*
X35770D01*
Y38130D01*
X36054D01*
X36065Y38114D01*
X36022Y38034D01*
X35770D01*
Y37919D01*
X35690D01*
X35642Y37966D01*
Y39031D01*
X35714Y39061D01*
X35791Y39119D01*
X35849Y39196D01*
X35886Y39285D01*
X35898Y39380D01*
X35886Y39475D01*
X35849Y39564D01*
X35791Y39641D01*
X35714Y39699D01*
X35625Y39736D01*
X35530Y39748D01*
X35435Y39736D01*
X35346Y39699D01*
X35269Y39641D01*
X35211Y39564D01*
X35174Y39475D01*
X35162Y39380D01*
X35174Y39285D01*
X35211Y39196D01*
X35269Y39119D01*
X35346Y39061D01*
X35418Y39031D01*
Y37920D01*
X35418Y37920D01*
X35426Y37877D01*
X35451Y37841D01*
X35564Y37727D01*
X35564Y37727D01*
X35600Y37703D01*
X35643Y37695D01*
X35770D01*
Y37579D01*
X36264D01*
Y37807D01*
X36344Y37848D01*
X36370Y37828D01*
Y37579D01*
X36864D01*
Y37695D01*
X36970D01*
Y37579D01*
X37464D01*
Y37695D01*
X37570D01*
Y37579D01*
X38064D01*
Y37833D01*
X38144Y37873D01*
X38170Y37854D01*
Y37579D01*
X38664D01*
Y37695D01*
X39458D01*
Y37395D01*
X41783D01*
Y38326D01*
X42658D01*
Y37452D01*
X42330D01*
X42260Y37443D01*
X42194Y37416D01*
X42137Y37373D01*
X42094Y37316D01*
X42067Y37250D01*
X42058Y37180D01*
X42067Y37110D01*
X42094Y37044D01*
X42137Y36987D01*
X42194Y36944D01*
X42260Y36917D01*
X42330Y36908D01*
X42607D01*
Y36327D01*
X42618Y36243D01*
X42638Y36194D01*
X42547Y36103D01*
X42467Y36136D01*
Y36182D01*
X41973D01*
Y35727D01*
X42467D01*
Y35842D01*
X42557D01*
X42557Y35842D01*
X42576Y35846D01*
X42640Y35808D01*
X42656Y35792D01*
Y35777D01*
X43189D01*
Y36140D01*
X43209Y36165D01*
X43230Y36215D01*
X43317D01*
Y36080D01*
X43585D01*
X43616Y36006D01*
X42974Y35364D01*
X41377D01*
X41346Y35438D01*
X41597Y35688D01*
X41597Y35688D01*
X41621Y35725D01*
X41630Y35768D01*
X41708Y35780D01*
X41785D01*
Y36393D01*
X41973D01*
Y36278D01*
X42467D01*
Y36733D01*
X41973D01*
Y36618D01*
X41785D01*
Y36865D01*
X41251D01*
Y35780D01*
X41267D01*
X41298Y35707D01*
X41105Y35514D01*
X39583D01*
X38791Y36306D01*
X38755Y36330D01*
X38712Y36339D01*
X38712Y36339D01*
X38632D01*
Y36415D01*
X37921D01*
Y36039D01*
X38632D01*
Y36039D01*
X38712Y36068D01*
X39342Y35438D01*
X39312Y35364D01*
X38901D01*
X38901Y35364D01*
X38858Y35355D01*
X38822Y35331D01*
X38822Y35331D01*
X38306Y34815D01*
X37921D01*
Y34439D01*
X38632D01*
Y34815D01*
X38632Y34815D01*
X38632D01*
X38680Y34872D01*
X38948Y35140D01*
X39458D01*
Y33449D01*
X39191Y33182D01*
X39103Y33207D01*
X39088Y33255D01*
X39107Y33298D01*
X39107Y33298D01*
X39107Y33298D01*
X39107Y33298D01*
X39107D01*
X39107Y33298D01*
X39107D01*
Y33506D01*
X38830D01*
Y33556D01*
X38780D01*
Y33813D01*
X38553D01*
Y33783D01*
X38107D01*
Y33813D01*
X37880D01*
Y33556D01*
X37780D01*
Y33813D01*
X37380D01*
Y33556D01*
X37330D01*
Y33506D01*
X37053D01*
Y33298D01*
X37053D01*
X37053Y33298D01*
X37053Y33298D01*
D01*
X37053Y33298D01*
X37053Y33298D01*
X37083Y33231D01*
Y32777D01*
X37577D01*
Y32777D01*
X37583D01*
Y32777D01*
X37718D01*
Y32677D01*
X37628D01*
Y32183D01*
X38083D01*
Y32677D01*
X37942D01*
Y32777D01*
X38077D01*
Y32777D01*
X38083D01*
Y32777D01*
X38577D01*
X38577Y32777D01*
X38577D01*
X38583D01*
Y32777D01*
X38657Y32777D01*
X39077D01*
Y32892D01*
X39172D01*
X39172Y32892D01*
X39215Y32901D01*
X39251Y32925D01*
X39384Y33058D01*
X39458Y33027D01*
Y32395D01*
X41783D01*
Y33329D01*
X42658D01*
Y32392D01*
X44983D01*
Y33329D01*
X45185D01*
X45307Y33345D01*
X45422Y33393D01*
X45520Y33468D01*
X46281Y34229D01*
X46308Y34232D01*
X46445Y34289D01*
X46562Y34379D01*
X46622Y34457D01*
X47669D01*
X47729Y34379D01*
X47847Y34289D01*
X47983Y34232D01*
X48130Y34213D01*
X48277Y34232D01*
X48413Y34289D01*
X48531Y34379D01*
X48621Y34497D01*
X48678Y34633D01*
X48697Y34780D01*
X48678Y34927D01*
X48621Y35063D01*
X48531Y35181D01*
X48413Y35271D01*
X48277Y35328D01*
X48130Y35347D01*
X47983Y35328D01*
X47847Y35271D01*
X47729Y35181D01*
X47669Y35103D01*
X47453D01*
Y35497D01*
X48003D01*
Y36819D01*
X47453D01*
Y37213D01*
X47669D01*
X47729Y37135D01*
X47847Y37045D01*
X47983Y36988D01*
X48130Y36969D01*
X48277Y36988D01*
X48413Y37045D01*
X48531Y37135D01*
X48621Y37252D01*
X48678Y37389D01*
X48697Y37536D01*
X48678Y37683D01*
X48621Y37819D01*
X48531Y37937D01*
X48413Y38027D01*
X48277Y38084D01*
X48130Y38103D01*
X47983Y38084D01*
X47847Y38027D01*
X47729Y37937D01*
X47669Y37859D01*
X46622D01*
X46562Y37937D01*
X46445Y38027D01*
X46308Y38084D01*
X46161Y38103D01*
X46015Y38084D01*
X45878Y38027D01*
X45761Y37937D01*
X45670Y37819D01*
X45614Y37683D01*
X45595Y37536D01*
X45614Y37389D01*
X45670Y37252D01*
X45761Y37135D01*
X45878Y37045D01*
X46015Y36988D01*
X46161Y36969D01*
X46308Y36988D01*
X46445Y37045D01*
X46562Y37135D01*
X46622Y37213D01*
X46807D01*
Y36819D01*
X46288D01*
Y35497D01*
X46807D01*
Y35103D01*
X46622D01*
X46562Y35181D01*
X46445Y35271D01*
X46308Y35328D01*
X46161Y35347D01*
X46015Y35328D01*
X45878Y35271D01*
X45761Y35181D01*
X45670Y35063D01*
X45614Y34927D01*
X45610Y34899D01*
X45063Y34352D01*
X44983Y34385D01*
Y35209D01*
X43241D01*
X43210Y35283D01*
X44007Y36080D01*
X44323D01*
Y36208D01*
X44451D01*
Y35777D01*
X44985D01*
Y36862D01*
X44451D01*
Y36432D01*
X44323D01*
Y36574D01*
X43868D01*
Y36313D01*
X43852Y36302D01*
X43772Y36345D01*
Y36574D01*
X43317D01*
X43317Y36574D01*
Y36574D01*
X43317Y36574D01*
X43252Y36611D01*
Y36908D01*
X43530D01*
X43600Y36917D01*
X43666Y36944D01*
X43723Y36987D01*
X43766Y37044D01*
X43793Y37110D01*
X43802Y37180D01*
X43793Y37250D01*
X43766Y37316D01*
X43809Y37392D01*
X44983D01*
Y39292D01*
X45374Y39684D01*
X46288D01*
Y39497D01*
X46823D01*
Y39103D01*
X46622D01*
X46562Y39181D01*
X46445Y39271D01*
X46308Y39328D01*
X46161Y39347D01*
X46015Y39328D01*
X45878Y39271D01*
X45761Y39181D01*
X45670Y39063D01*
X45614Y38927D01*
X45595Y38780D01*
X45614Y38633D01*
X45670Y38497D01*
X45761Y38379D01*
X45878Y38289D01*
X46015Y38232D01*
X46161Y38213D01*
X46308Y38232D01*
X46445Y38289D01*
X46562Y38379D01*
X46622Y38457D01*
X47669D01*
X47729Y38379D01*
X47847Y38289D01*
X47983Y38232D01*
X48130Y38213D01*
X48277Y38232D01*
X48413Y38289D01*
X48531Y38379D01*
X48621Y38497D01*
X48678Y38633D01*
X48697Y38780D01*
X48678Y38927D01*
X48621Y39063D01*
X48531Y39181D01*
X48413Y39271D01*
X48277Y39328D01*
X48130Y39347D01*
X47983Y39328D01*
X47847Y39271D01*
X47729Y39181D01*
X47669Y39103D01*
X47469D01*
Y39497D01*
X48003D01*
Y40819D01*
X47469D01*
Y41213D01*
X47669D01*
X47729Y41135D01*
X47847Y41045D01*
X47983Y40988D01*
X48130Y40969D01*
X48277Y40988D01*
X48413Y41045D01*
X48531Y41135D01*
X48621Y41252D01*
X48678Y41389D01*
X48697Y41536D01*
X48678Y41683D01*
X48621Y41819D01*
X48531Y41937D01*
X48413Y42027D01*
X48277Y42084D01*
X48130Y42103D01*
X47983Y42084D01*
X47847Y42027D01*
X47729Y41937D01*
X47669Y41859D01*
X46622D01*
X46562Y41937D01*
X46445Y42027D01*
X46308Y42084D01*
X46161Y42103D01*
X46015Y42084D01*
X45878Y42027D01*
X45761Y41937D01*
X45670Y41819D01*
X45614Y41683D01*
X45595Y41536D01*
X45614Y41389D01*
X45670Y41252D01*
X45761Y41135D01*
X45878Y41045D01*
X46015Y40988D01*
X46161Y40969D01*
X46308Y40988D01*
X46445Y41045D01*
X46562Y41135D01*
X46622Y41213D01*
X46823D01*
Y40819D01*
X46288D01*
Y40632D01*
X45178D01*
X45055Y40616D01*
X44941Y40569D01*
X44843Y40493D01*
X44558Y40209D01*
X43391D01*
X43360Y40283D01*
X44007Y40930D01*
X44323D01*
Y41065D01*
X44451D01*
Y40777D01*
X44985D01*
Y41862D01*
X44451D01*
Y41289D01*
X44323D01*
Y41424D01*
X43868D01*
Y41163D01*
X43852Y41152D01*
X43772Y41195D01*
Y41424D01*
X43317D01*
X43317Y41424D01*
Y41424D01*
X43317Y41424D01*
X43245Y41444D01*
Y41908D01*
X43530D01*
X43600Y41917D01*
X43666Y41944D01*
X43723Y41987D01*
X43766Y42044D01*
X43793Y42110D01*
X43802Y42180D01*
X43793Y42250D01*
X43766Y42316D01*
X43809Y42392D01*
X44983D01*
Y43684D01*
X46288D01*
Y43497D01*
X46823D01*
Y43103D01*
X46622D01*
X46562Y43181D01*
X46445Y43271D01*
X46308Y43328D01*
X46161Y43347D01*
X46015Y43328D01*
X45878Y43271D01*
X45761Y43181D01*
X45670Y43063D01*
X45614Y42927D01*
X45595Y42780D01*
X45614Y42633D01*
X45670Y42497D01*
X45761Y42379D01*
X45878Y42289D01*
X46015Y42232D01*
X46161Y42213D01*
X46308Y42232D01*
X46445Y42289D01*
X46562Y42379D01*
X46622Y42457D01*
X47669D01*
X47729Y42379D01*
X47847Y42289D01*
X47983Y42232D01*
X48130Y42213D01*
X48277Y42232D01*
X48413Y42289D01*
X48531Y42379D01*
X48621Y42497D01*
X48678Y42633D01*
X48697Y42780D01*
X48678Y42927D01*
X48621Y43063D01*
X48531Y43181D01*
X48413Y43271D01*
X48277Y43328D01*
X48130Y43347D01*
X47983Y43328D01*
X47847Y43271D01*
X47729Y43181D01*
X47669Y43103D01*
X47469D01*
Y43497D01*
X48003D01*
Y44819D01*
X47469D01*
Y45213D01*
X47669D01*
X47729Y45135D01*
X47847Y45045D01*
X47983Y44988D01*
X48130Y44969D01*
X48277Y44988D01*
X48413Y45045D01*
X48531Y45135D01*
X48621Y45252D01*
X48678Y45389D01*
X48697Y45536D01*
X48678Y45683D01*
X48621Y45819D01*
X48531Y45937D01*
X48413Y46027D01*
X48277Y46084D01*
X48130Y46103D01*
X47983Y46084D01*
X47847Y46027D01*
X47729Y45937D01*
X47669Y45859D01*
X46622D01*
X46562Y45937D01*
X46445Y46027D01*
X46308Y46084D01*
X46161Y46103D01*
X46015Y46084D01*
X45878Y46027D01*
X45761Y45937D01*
X45670Y45819D01*
X45614Y45683D01*
X45595Y45536D01*
X45614Y45389D01*
X45670Y45252D01*
X45761Y45135D01*
X45878Y45045D01*
X46015Y44988D01*
X46161Y44969D01*
X46308Y44988D01*
X46445Y45045D01*
X46562Y45135D01*
X46622Y45213D01*
X46823D01*
Y44819D01*
X46288D01*
Y44632D01*
X44983D01*
Y45209D01*
X43491D01*
X43460Y45283D01*
X44057Y45880D01*
X44373D01*
X44373Y45880D01*
Y45880D01*
X44451Y45874D01*
Y45777D01*
X44985D01*
Y46784D01*
X45065Y46817D01*
X45283Y46599D01*
Y46277D01*
X45777D01*
Y46731D01*
X45807Y46798D01*
X45807Y46798D01*
X45807Y46798D01*
X45807Y46798D01*
X45807D01*
X45807Y46798D01*
X45807D01*
Y47006D01*
X45530D01*
Y47056D01*
X45480D01*
Y47313D01*
X45253D01*
Y47050D01*
X45179Y47020D01*
X45025Y47174D01*
X45058Y47254D01*
X45112D01*
Y47906D01*
X44578D01*
Y47254D01*
X44683D01*
X44733Y47195D01*
X44741Y47152D01*
X44766Y47116D01*
X44939Y46942D01*
X44906Y46862D01*
X44451D01*
Y46380D01*
X44373Y46374D01*
X44373Y46374D01*
X44373Y46374D01*
X43918D01*
Y46113D01*
X43902Y46102D01*
X43822Y46145D01*
Y46374D01*
X43707D01*
Y46826D01*
X43709Y46827D01*
X43807Y46903D01*
X43883Y47001D01*
X43930Y47115D01*
X43946Y47238D01*
X44025Y47254D01*
X44482D01*
Y47906D01*
X43948D01*
Y47632D01*
X43755D01*
X43755Y47632D01*
X43735Y47628D01*
X43709Y47648D01*
X43595Y47696D01*
X43472Y47712D01*
X42508D01*
X42480Y47723D01*
X42358Y47739D01*
X41091D01*
X41055Y47780D01*
X41044Y47864D01*
X41012Y47941D01*
X40961Y48008D01*
X40894Y48060D01*
X40816Y48092D01*
X40732Y48103D01*
X40630D01*
X40546Y48092D01*
X40530Y48085D01*
X40514Y48092D01*
X40430Y48103D01*
X39730D01*
X39646Y48092D01*
X39569Y48060D01*
X39503Y48009D01*
X39440Y47997D01*
X39364Y47946D01*
X39313Y47870D01*
X39295Y47780D01*
X39260Y47730D01*
X39208Y47723D01*
X39162Y47704D01*
X33026D01*
X32498Y48232D01*
X32400Y48307D01*
X32286Y48355D01*
X32163Y48371D01*
D02*
G37*
G36*
X23277Y42880D02*
X22819D01*
X22827Y42837D01*
X22880Y42759D01*
X22958Y42706D01*
X23051Y42688D01*
X23277D01*
Y42880D01*
D02*
G37*
G36*
X32343Y42819D02*
X32008D01*
Y42651D01*
X32343D01*
Y42819D01*
D02*
G37*
G36*
X31908D02*
X31572D01*
Y42651D01*
X31908D01*
Y42819D01*
D02*
G37*
G36*
X45807Y47313D02*
X45580D01*
Y47106D01*
X45807D01*
Y47313D01*
D02*
G37*
G36*
X32523Y44422D02*
X32068D01*
Y43928D01*
X32398D01*
Y42975D01*
X32406Y42932D01*
X32431Y42896D01*
X32467Y42871D01*
X32510Y42863D01*
X32527D01*
Y42787D01*
X33238D01*
Y43163D01*
X32622D01*
Y44175D01*
X32614Y44218D01*
X32589Y44254D01*
X32553Y44278D01*
X32523Y44284D01*
Y44422D01*
D02*
G37*
G36*
X23835Y42880D02*
X23377D01*
Y42688D01*
X23602D01*
X23695Y42706D01*
X23774Y42759D01*
X23826Y42837D01*
X23835Y42880D01*
D02*
G37*
G36*
X28514Y46398D02*
X27803D01*
Y46022D01*
X28128D01*
X28136Y46012D01*
X28151Y45991D01*
X28169Y45972D01*
X28178Y45962D01*
X28165Y45900D01*
X28183Y45810D01*
X28234Y45734D01*
X28310Y45683D01*
X28400Y45665D01*
X28490Y45683D01*
X28566Y45734D01*
X28617Y45810D01*
X28635Y45900D01*
X28617Y45990D01*
X28566Y46066D01*
X28514Y46101D01*
Y46398D01*
D02*
G37*
G36*
X27619Y45786D02*
X27283D01*
Y45618D01*
X27619D01*
Y45786D01*
D02*
G37*
G36*
X27183D02*
X26848D01*
Y45618D01*
X27183D01*
Y45786D01*
D02*
G37*
G36*
X24553Y45980D02*
X24346D01*
Y45753D01*
X24553D01*
Y45980D01*
D02*
G37*
G36*
X26753Y45904D02*
X26526D01*
Y45697D01*
X26753D01*
Y45904D01*
D02*
G37*
G36*
X26426D02*
X26199D01*
Y45697D01*
X26426D01*
Y45904D01*
D02*
G37*
G36*
X14970Y46182D02*
X14428D01*
Y45344D01*
X14970D01*
Y46182D01*
D02*
G37*
G36*
X21705Y46280D02*
X20980D01*
Y45305D01*
X21705D01*
Y46280D01*
D02*
G37*
G36*
X20880D02*
X20155D01*
Y45305D01*
X20880D01*
Y46280D01*
D02*
G37*
G36*
X27183Y46054D02*
X26848D01*
Y45886D01*
X27183D01*
Y46054D01*
D02*
G37*
G36*
X27619D02*
X27283D01*
Y45886D01*
X27619D01*
Y46054D01*
D02*
G37*
G36*
X15612Y46182D02*
X15070D01*
Y45344D01*
X15612D01*
Y46182D01*
D02*
G37*
G36*
X30343Y42819D02*
X30008D01*
Y42651D01*
X30343D01*
Y42819D01*
D02*
G37*
G36*
X37740Y41071D02*
X37404D01*
Y40903D01*
X37740D01*
Y41071D01*
D02*
G37*
G36*
X37304D02*
X36969D01*
Y40903D01*
X37304D01*
Y41071D01*
D02*
G37*
G36*
X22550Y41643D02*
X21190D01*
X21139Y41632D01*
X21096Y41604D01*
X20036Y40544D01*
X20008Y40501D01*
X19997Y40450D01*
Y38850D01*
X20008Y38799D01*
X20036Y38756D01*
X20706Y38086D01*
X20748Y38058D01*
Y37834D01*
X20902D01*
Y37660D01*
X20912Y37609D01*
X20941Y37566D01*
X21012Y37495D01*
Y37277D01*
X20917D01*
Y37163D01*
X20780D01*
X20724Y37219D01*
X20681Y37248D01*
X20630Y37258D01*
X20566D01*
Y37412D01*
X19875D01*
X19875Y37412D01*
Y37412D01*
X19804Y37438D01*
X19785Y37458D01*
Y38080D01*
X19251D01*
Y37670D01*
X19154D01*
X19103Y37660D01*
X19060Y37631D01*
X19030Y37600D01*
X18956Y37631D01*
Y37856D01*
X18284D01*
Y36870D01*
X18956D01*
Y37231D01*
X18980D01*
X19031Y37241D01*
X19074Y37269D01*
X19171Y37367D01*
X19251Y37333D01*
Y36995D01*
X19785D01*
X19785Y36995D01*
Y36995D01*
X19847Y36955D01*
X19875Y36933D01*
Y36851D01*
X19845D01*
Y36763D01*
X19815Y36695D01*
X19765Y36695D01*
X19568D01*
Y36173D01*
X19825D01*
X19845Y36218D01*
X19895Y36218D01*
X20170D01*
Y36535D01*
X20220D01*
Y36585D01*
X20596D01*
Y36851D01*
X20596Y36851D01*
X20600Y36862D01*
X20675Y36908D01*
X20725Y36897D01*
X20917D01*
Y36783D01*
X21012D01*
Y36677D01*
X20917D01*
Y36183D01*
X21372D01*
Y36677D01*
X21341D01*
X21308Y36757D01*
X21334Y36783D01*
X21358D01*
X21371Y36783D01*
X21438Y36753D01*
X21438D01*
X21440Y36753D01*
X21458D01*
X21468Y36677D01*
X21468Y36673D01*
Y36183D01*
X21923D01*
Y36184D01*
X21997Y36214D01*
X22098Y36114D01*
Y35700D01*
X22040D01*
Y34620D01*
X23250D01*
Y34590D01*
X23400D01*
Y35160D01*
Y35730D01*
X23250D01*
Y35700D01*
X23045D01*
X23012Y35780D01*
X23273Y36041D01*
X23298Y36078D01*
X23300Y36091D01*
X23382D01*
Y36683D01*
X23306D01*
Y37688D01*
X23324Y37714D01*
X23326Y37727D01*
X23467D01*
Y38182D01*
X22973D01*
Y37727D01*
X23048D01*
X23066Y37668D01*
X23015Y37599D01*
X23002D01*
X22870D01*
Y37273D01*
Y36947D01*
X23002D01*
X23038Y36947D01*
X23082Y36885D01*
X23082Y36885D01*
Y36683D01*
X23006D01*
Y36091D01*
X22751Y35836D01*
X22726Y35799D01*
X22641Y35778D01*
X22632Y35781D01*
Y35971D01*
X22632Y36012D01*
X22634Y36091D01*
X22634Y36091D01*
D01*
X22634D01*
X22634Y36122D01*
Y36683D01*
X22558D01*
Y36885D01*
X22602Y36947D01*
X22638Y36947D01*
X22770D01*
Y37273D01*
Y37599D01*
X22638D01*
X22625Y37599D01*
X22575Y37668D01*
X22593Y37727D01*
X22593Y37727D01*
X22667D01*
Y38182D01*
X22173D01*
Y37727D01*
X22314D01*
X22317Y37714D01*
X22334Y37688D01*
Y36683D01*
X22258D01*
Y36375D01*
X22184Y36345D01*
X22019Y36509D01*
X21983Y36534D01*
X21940Y36542D01*
X21923Y36620D01*
Y36673D01*
X21923Y36677D01*
X21934Y36753D01*
X21953D01*
Y36980D01*
X21696D01*
Y37030D01*
X21646D01*
Y37307D01*
X21440D01*
X21438Y37307D01*
X21438D01*
X21371Y37277D01*
X21358Y37277D01*
X21277D01*
Y37550D01*
X21267Y37601D01*
X21238Y37644D01*
X21167Y37715D01*
Y37834D01*
X21309D01*
Y37804D01*
X21575D01*
Y38180D01*
Y38556D01*
X21309D01*
Y38526D01*
X20748D01*
Y38524D01*
X20674Y38493D01*
X20263Y38905D01*
Y40395D01*
X21245Y41377D01*
X22495D01*
X22813Y41059D01*
X22805Y41020D01*
X22823Y40930D01*
X22874Y40854D01*
X22950Y40803D01*
X23040Y40785D01*
X23130Y40803D01*
X23206Y40854D01*
X23257Y40930D01*
X23275Y41020D01*
X23257Y41110D01*
X23206Y41186D01*
X23130Y41237D01*
X23040Y41255D01*
X23001Y41247D01*
X22644Y41604D01*
X22601Y41632D01*
X22550Y41643D01*
D02*
G37*
G36*
X15739Y41780D02*
X15199D01*
X15205Y41714D01*
X15239Y41602D01*
X15294Y41499D01*
X15368Y41409D01*
X15458Y41335D01*
X15561Y41280D01*
X15673Y41246D01*
X15739Y41240D01*
Y41780D01*
D02*
G37*
G36*
X14410D02*
X13870D01*
Y41240D01*
X13936Y41246D01*
X14048Y41280D01*
X14151Y41335D01*
X14241Y41409D01*
X14315Y41499D01*
X14370Y41602D01*
X14404Y41714D01*
X14410Y41780D01*
D02*
G37*
G36*
X13770D02*
X13230D01*
X13237Y41714D01*
X13270Y41602D01*
X13325Y41499D01*
X13399Y41409D01*
X13490Y41335D01*
X13592Y41280D01*
X13704Y41246D01*
X13770Y41240D01*
Y41780D01*
D02*
G37*
G36*
X37740Y40803D02*
X37404D01*
Y40635D01*
X37740D01*
Y40803D01*
D02*
G37*
G36*
X24150Y40215D02*
X24060Y40197D01*
X23984Y40146D01*
X23980Y40140D01*
X23900D01*
X23896Y40146D01*
X23820Y40197D01*
X23730Y40215D01*
X23640Y40197D01*
X23564Y40146D01*
X23513Y40070D01*
X23495Y39980D01*
X23503Y39944D01*
X23441Y39872D01*
X23236D01*
X23236Y39872D01*
X23193Y39864D01*
X23156Y39839D01*
X23156Y39839D01*
X22651Y39334D01*
X22627Y39297D01*
X22618Y39255D01*
X22618Y39255D01*
Y38862D01*
X22489Y38733D01*
X22173D01*
Y38278D01*
X22667D01*
Y38594D01*
X22765Y38692D01*
X22770Y38695D01*
X22871Y38695D01*
X22876Y38692D01*
X22973Y38594D01*
Y38278D01*
X23467D01*
Y38733D01*
X23151D01*
X23022Y38862D01*
Y39134D01*
X23357Y39468D01*
X23754D01*
X23754Y39468D01*
X23797Y39476D01*
X23834Y39501D01*
X24090Y39757D01*
X24150Y39745D01*
X24240Y39763D01*
X24316Y39814D01*
X24367Y39890D01*
X24385Y39980D01*
X24367Y40070D01*
X24316Y40146D01*
X24240Y40197D01*
X24150Y40215D01*
D02*
G37*
G36*
X25280Y40254D02*
X25053D01*
Y40047D01*
X25280D01*
Y40254D01*
D02*
G37*
G36*
X15692Y40402D02*
X14854D01*
Y39761D01*
X15692D01*
Y40402D01*
D02*
G37*
G36*
X37304Y40803D02*
X36969D01*
Y40635D01*
X37304D01*
Y40803D01*
D02*
G37*
G36*
X15692Y41143D02*
X14854D01*
Y40502D01*
X15692D01*
Y41143D01*
D02*
G37*
G36*
X14754D02*
X13917D01*
Y40502D01*
X14754D01*
Y41143D01*
D02*
G37*
G36*
X15739Y42420D02*
X15673Y42414D01*
X15561Y42380D01*
X15458Y42325D01*
X15368Y42251D01*
X15294Y42161D01*
X15239Y42058D01*
X15205Y41946D01*
X15199Y41880D01*
X15739D01*
Y42420D01*
D02*
G37*
G36*
X13870D02*
Y41880D01*
X14410D01*
X14404Y41946D01*
X14370Y42058D01*
X14315Y42161D01*
X14241Y42251D01*
X14151Y42325D01*
X14048Y42380D01*
X13936Y42414D01*
X13870Y42420D01*
D02*
G37*
G36*
X22320Y42304D02*
X22093D01*
Y42097D01*
X22320D01*
Y42304D01*
D02*
G37*
G36*
X29908Y42819D02*
X29572D01*
Y42651D01*
X29908D01*
Y42819D01*
D02*
G37*
G36*
X23202Y42407D02*
X23202D01*
X23201Y42407D01*
X22995D01*
Y42130D01*
Y41853D01*
X23201D01*
X23202Y41853D01*
X23202D01*
X23270Y41883D01*
X23282Y41883D01*
X23559D01*
X23717Y41724D01*
X23714Y41696D01*
X23663Y41620D01*
X23645Y41530D01*
X23663Y41440D01*
X23714Y41364D01*
X23790Y41313D01*
X23880Y41295D01*
X23970Y41313D01*
X24046Y41364D01*
X24097Y41440D01*
X24115Y41530D01*
X24097Y41620D01*
X24046Y41696D01*
X23989Y41733D01*
X23984Y41763D01*
X23959Y41799D01*
X23959Y41799D01*
X23950Y41809D01*
X23980Y41883D01*
X24272D01*
Y42377D01*
X23817D01*
Y42242D01*
X23723D01*
Y42377D01*
X23282D01*
X23270Y42377D01*
X23202Y42407D01*
D02*
G37*
G36*
X13770Y42420D02*
X13704Y42414D01*
X13592Y42380D01*
X13490Y42325D01*
X13399Y42251D01*
X13325Y42161D01*
X13270Y42058D01*
X13237Y41946D01*
X13230Y41880D01*
X13770D01*
Y42420D01*
D02*
G37*
G36*
X32983Y41807D02*
X32776D01*
Y41580D01*
X32983D01*
Y41807D01*
D02*
G37*
G36*
Y41480D02*
X32776D01*
Y41253D01*
X32983D01*
Y41480D01*
D02*
G37*
G36*
X16379Y41780D02*
X15839D01*
Y41240D01*
X15905Y41246D01*
X16016Y41280D01*
X16119Y41335D01*
X16209Y41409D01*
X16283Y41499D01*
X16338Y41602D01*
X16372Y41714D01*
X16379Y41780D01*
D02*
G37*
%LPD*%
G36*
X33288Y38066D02*
Y37715D01*
X33131Y37557D01*
X33106Y37521D01*
X33098Y37478D01*
X33098Y37478D01*
Y34504D01*
X33089Y34496D01*
X33023Y34465D01*
X32824Y34665D01*
X32850Y34751D01*
X32860Y34753D01*
X32936Y34804D01*
X32987Y34880D01*
X33005Y34970D01*
X32987Y35060D01*
X32936Y35136D01*
X32882Y35172D01*
Y38367D01*
X32956Y38397D01*
X33288Y38066D01*
D02*
G37*
G36*
X41251Y45780D02*
X41267D01*
X41298Y45707D01*
X41105Y45514D01*
X38755D01*
X38501Y45768D01*
X38531Y45842D01*
X38635D01*
Y46218D01*
X37924D01*
Y45842D01*
X38090D01*
X38167Y45830D01*
X38176Y45788D01*
X38200Y45751D01*
X38629Y45322D01*
X38629Y45322D01*
X38665Y45298D01*
X38708Y45290D01*
X39257D01*
X39275Y45271D01*
X39310Y45210D01*
X39305Y45187D01*
X39305Y45187D01*
Y45132D01*
X38715Y44542D01*
X38635D01*
Y44618D01*
X37924D01*
Y44242D01*
X38635D01*
Y44318D01*
X38762D01*
X38762Y44318D01*
X38805Y44326D01*
X38841Y44351D01*
X39384Y44893D01*
X39458Y44863D01*
Y42867D01*
X38664D01*
Y42981D01*
X38694Y43048D01*
X38694Y43048D01*
X38694Y43048D01*
X38694Y43048D01*
X38694D01*
X38694Y43048D01*
X38694D01*
Y43256D01*
X38417D01*
Y43306D01*
X38367D01*
Y43563D01*
X38140D01*
Y43544D01*
X38064Y43533D01*
X38064Y43533D01*
X38064Y43533D01*
X37574D01*
X37570Y43533D01*
X37494Y43543D01*
Y43563D01*
X37267D01*
Y43306D01*
X37167D01*
Y43563D01*
X36974D01*
X36940Y43563D01*
X36917D01*
X36894D01*
X36860Y43563D01*
X36667D01*
Y43306D01*
X36567D01*
Y43563D01*
X36340D01*
Y43543D01*
X36340D01*
X36264Y43533D01*
X36260Y43533D01*
X36129D01*
Y43893D01*
X36129Y43893D01*
X36124Y43917D01*
X36157Y43976D01*
X36176Y43997D01*
X36330D01*
Y44254D01*
X36380D01*
Y44304D01*
X36657D01*
Y44511D01*
X36657Y44512D01*
Y44512D01*
X36627Y44579D01*
X36627Y44592D01*
Y44692D01*
X36999D01*
Y44616D01*
X37710D01*
Y44992D01*
X36999D01*
Y44916D01*
X36782D01*
Y46030D01*
X36774Y46073D01*
X36749Y46109D01*
X36721Y46128D01*
X36716Y46143D01*
X36714Y46163D01*
X36717Y46214D01*
X36735Y46226D01*
X36800Y46292D01*
X36999D01*
Y46216D01*
X37710D01*
Y46592D01*
X36999D01*
Y46516D01*
X36754D01*
X36711Y46508D01*
X36707Y46505D01*
X36627Y46533D01*
Y46533D01*
X36627Y46533D01*
X36133D01*
Y46418D01*
X36031D01*
X35989Y46459D01*
X35953Y46484D01*
X35910Y46492D01*
X35910Y46492D01*
X35879D01*
X35849Y46564D01*
X35791Y46641D01*
X35744Y46676D01*
X35772Y46756D01*
X39296D01*
X39418Y46772D01*
X39465Y46791D01*
X41251D01*
Y45780D01*
D02*
G37*
G36*
X28945Y42107D02*
X28646Y41808D01*
X28624Y41776D01*
X28589Y41726D01*
X28551Y41722D01*
X28533Y41720D01*
X28533D01*
X28528Y41721D01*
X28478Y41711D01*
Y41711D01*
X28478Y41711D01*
D01*
X28430Y41702D01*
X28382Y41711D01*
D01*
X28382D01*
X28382D01*
X28331Y41721D01*
X28281Y41711D01*
Y41711D01*
X28281Y41711D01*
D01*
X28233Y41702D01*
X28185Y41711D01*
D01*
X28185D01*
X28185D01*
X28134Y41721D01*
X28084Y41711D01*
Y41711D01*
X28084Y41711D01*
D01*
X28036Y41702D01*
X27988Y41711D01*
D01*
X27988D01*
X27988D01*
X27937Y41721D01*
X27887Y41711D01*
Y41711D01*
X27887Y41711D01*
D01*
X27866Y41707D01*
X27830Y41757D01*
X27833Y41792D01*
X27841Y41798D01*
X27920Y41813D01*
X27996Y41864D01*
X28047Y41940D01*
X28065Y42030D01*
X28049Y42107D01*
X28085Y42187D01*
X28911D01*
X28945Y42107D01*
D02*
G37*
G36*
X28040Y39325D02*
X28103Y39338D01*
X28416Y39026D01*
Y37367D01*
X28352Y37322D01*
X28281Y37301D01*
D01*
X28233Y37293D01*
X28185Y37301D01*
D01*
X28185D01*
X28185D01*
X28134Y37311D01*
X28084Y37301D01*
Y37301D01*
X28084Y37301D01*
D01*
X28036Y37293D01*
X27988Y37301D01*
D01*
X27988D01*
X27988D01*
X27937Y37311D01*
X27887Y37301D01*
Y37301D01*
X27887Y37301D01*
D01*
X27839Y37293D01*
X27791Y37301D01*
D01*
X27791D01*
X27791D01*
X27741Y37311D01*
X27690Y37301D01*
Y37301D01*
X27690Y37301D01*
D01*
X27642Y37293D01*
X27597Y37301D01*
X27594Y37301D01*
X27594D01*
X27594Y37301D01*
X27544Y37311D01*
X27521Y37307D01*
X27520Y37306D01*
X27520D01*
D01*
X27510Y37304D01*
X27493Y37301D01*
X27453Y37274D01*
X27451Y37273D01*
X27422Y37230D01*
X27412Y37180D01*
Y36721D01*
X27378Y36700D01*
X27332Y36691D01*
X26974Y37049D01*
X26931Y37078D01*
X26880Y37088D01*
X26877D01*
Y37183D01*
X26383D01*
Y37168D01*
X26343Y37142D01*
X26303Y37131D01*
X26271Y37152D01*
X26220Y37163D01*
X26123D01*
Y37277D01*
X26123D01*
X26067Y37327D01*
Y37442D01*
X26307D01*
X26311Y37441D01*
X26397D01*
X26411Y37432D01*
X26461Y37422D01*
X27170D01*
X27220Y37432D01*
X27263Y37461D01*
X27264Y37463D01*
X27291Y37503D01*
X27295Y37519D01*
X27297Y37530D01*
X27298Y37536D01*
X27301Y37554D01*
X27291Y37604D01*
X27291Y37604D01*
D01*
X27291Y37607D01*
X27283Y37652D01*
X27291Y37700D01*
D01*
Y37700D01*
Y37700D01*
X27301Y37750D01*
X27291Y37801D01*
X27291D01*
X27291Y37801D01*
D01*
X27283Y37849D01*
X27291Y37897D01*
D01*
Y37897D01*
Y37897D01*
X27301Y37947D01*
X27291Y37998D01*
X27291D01*
X27291Y37998D01*
D01*
X27283Y38046D01*
X27291Y38094D01*
D01*
Y38094D01*
Y38094D01*
X27301Y38144D01*
X27291Y38195D01*
X27291D01*
X27291Y38195D01*
D01*
X27283Y38243D01*
X27291Y38291D01*
D01*
Y38291D01*
Y38291D01*
X27301Y38341D01*
X27291Y38391D01*
X27291D01*
X27291Y38391D01*
D01*
X27283Y38439D01*
X27291Y38488D01*
D01*
Y38488D01*
Y38488D01*
X27301Y38538D01*
X27291Y38588D01*
X27291D01*
X27291Y38588D01*
D01*
X27283Y38636D01*
X27291Y38684D01*
D01*
Y38684D01*
Y38684D01*
X27301Y38735D01*
X27291Y38785D01*
X27291D01*
X27291Y38785D01*
D01*
X27283Y38833D01*
X27291Y38881D01*
D01*
X27322Y38951D01*
X27370Y38996D01*
X27390D01*
X27441Y39006D01*
X27484Y39035D01*
X27578Y39129D01*
X27658Y39095D01*
Y38402D01*
X27604Y38366D01*
X27553Y38290D01*
X27535Y38200D01*
X27553Y38110D01*
X27604Y38034D01*
X27680Y37983D01*
X27770Y37965D01*
X27860Y37983D01*
X27936Y38034D01*
X27987Y38110D01*
X28005Y38200D01*
X27987Y38290D01*
X27936Y38366D01*
X27882Y38402D01*
Y39307D01*
X27962Y39341D01*
X28040Y39325D01*
D02*
G37*
G36*
X30330Y37638D02*
X30330Y37638D01*
X30683D01*
X30740Y37558D01*
X30739Y37554D01*
X30749Y37503D01*
X30777Y37461D01*
X30820Y37432D01*
X30871Y37422D01*
X31113D01*
Y36894D01*
X30708Y36489D01*
X30628Y36522D01*
Y37180D01*
X30618Y37230D01*
X30590Y37273D01*
X30547Y37301D01*
X30497Y37311D01*
X30446Y37301D01*
X30431Y37291D01*
X30414Y37294D01*
X30362Y37329D01*
X30300Y37342D01*
X30235Y37411D01*
Y37585D01*
X30249Y37601D01*
X30309Y37641D01*
X30313Y37642D01*
X30330Y37638D01*
D02*
G37*
G36*
X34204Y39547D02*
X34174Y39475D01*
X34162Y39380D01*
X34174Y39285D01*
X34211Y39196D01*
X34269Y39119D01*
X34346Y39061D01*
X34435Y39024D01*
X34530Y39012D01*
X34625Y39024D01*
X34714Y39061D01*
X34748Y39087D01*
X34828Y39047D01*
Y37045D01*
X34165D01*
Y36315D01*
X34165Y36315D01*
X34165D01*
X34196Y36235D01*
X34041Y36079D01*
X34016Y36043D01*
X34008Y36000D01*
X34008Y36000D01*
Y35090D01*
X34008Y35090D01*
X34016Y35047D01*
X34041Y35011D01*
X34204Y34847D01*
X34174Y34775D01*
X34162Y34680D01*
X34174Y34585D01*
X34211Y34496D01*
X34147Y34448D01*
X34090Y34487D01*
X34000Y34505D01*
X33937Y34492D01*
X33476Y34953D01*
X33484Y35032D01*
X33552Y35061D01*
X33630Y35045D01*
X33720Y35063D01*
X33796Y35114D01*
X33847Y35190D01*
X33865Y35280D01*
X33847Y35370D01*
X33812Y35421D01*
Y38324D01*
X33812Y38324D01*
X33804Y38367D01*
X33779Y38404D01*
X33779Y38404D01*
X32778Y39405D01*
X32742Y39429D01*
X32699Y39437D01*
X32699Y39437D01*
X31767D01*
X31710Y39517D01*
X31711Y39522D01*
X31710Y39527D01*
X31767Y39607D01*
X34145D01*
X34204Y39547D01*
D02*
G37*
%LPC*%
G36*
X37740Y45874D02*
X37404D01*
Y45706D01*
X37740D01*
Y45874D01*
D02*
G37*
G36*
Y44006D02*
X37404D01*
Y43838D01*
X37740D01*
Y44006D01*
D02*
G37*
G36*
X36657Y44204D02*
X36430D01*
Y43997D01*
X36657D01*
Y44204D01*
D02*
G37*
G36*
X38694Y43563D02*
X38467D01*
Y43356D01*
X38694D01*
Y43563D01*
D02*
G37*
G36*
X37304Y44006D02*
X36969D01*
Y43838D01*
X37304D01*
Y44006D01*
D02*
G37*
G36*
Y44274D02*
X36969D01*
Y44106D01*
X37304D01*
Y44274D01*
D02*
G37*
G36*
X37740Y45606D02*
X37404D01*
Y45438D01*
X37740D01*
Y45606D01*
D02*
G37*
G36*
X37304Y45874D02*
X36969D01*
Y45706D01*
X37304D01*
Y45874D01*
D02*
G37*
G36*
X37740Y44274D02*
X37404D01*
Y44106D01*
X37740D01*
Y44274D01*
D02*
G37*
G36*
X37304Y45606D02*
X36969D01*
Y45438D01*
X37304D01*
Y45606D01*
D02*
G37*
%LPD*%
D10*
X15730Y37215D02*
D03*
Y37845D02*
D03*
D11*
X15030Y37254D02*
D03*
Y37806D02*
D03*
X36380Y41556D02*
D03*
Y41004D02*
D03*
Y46306D02*
D03*
Y45754D02*
D03*
X42220Y36506D02*
D03*
Y35954D02*
D03*
Y41506D02*
D03*
Y40954D02*
D03*
Y46506D02*
D03*
Y45954D02*
D03*
X37217Y43306D02*
D03*
Y42754D02*
D03*
X37817Y42754D02*
D03*
Y43306D02*
D03*
X36017D02*
D03*
Y42754D02*
D03*
X36380Y39254D02*
D03*
Y39806D02*
D03*
Y44254D02*
D03*
Y44806D02*
D03*
X26476Y45954D02*
D03*
Y46506D02*
D03*
X26420Y43206D02*
D03*
Y42654D02*
D03*
X29020Y42699D02*
D03*
Y43250D02*
D03*
X22370Y44454D02*
D03*
Y45006D02*
D03*
X45530Y47056D02*
D03*
Y46504D02*
D03*
X22370Y42906D02*
D03*
Y42354D02*
D03*
X23220Y38506D02*
D03*
Y37954D02*
D03*
X26420Y43954D02*
D03*
Y44506D02*
D03*
X22420Y38506D02*
D03*
Y37954D02*
D03*
X32220Y40154D02*
D03*
Y40706D02*
D03*
X26630Y36956D02*
D03*
Y36404D02*
D03*
X25820Y38106D02*
D03*
Y37554D02*
D03*
X25220Y38106D02*
D03*
Y37554D02*
D03*
X25330Y40304D02*
D03*
Y40856D02*
D03*
X25930D02*
D03*
Y40304D02*
D03*
X38830Y33004D02*
D03*
Y33556D02*
D03*
X38417Y37807D02*
D03*
Y38358D02*
D03*
Y42754D02*
D03*
Y43306D02*
D03*
X36617Y42754D02*
D03*
Y43306D02*
D03*
X37217Y38358D02*
D03*
Y37807D02*
D03*
X37330Y33556D02*
D03*
Y33004D02*
D03*
X36414Y34902D02*
D03*
Y34351D02*
D03*
X36017Y38358D02*
D03*
Y37807D02*
D03*
X37817Y38358D02*
D03*
Y37807D02*
D03*
X38330Y33556D02*
D03*
Y33004D02*
D03*
X36617Y37807D02*
D03*
Y38358D02*
D03*
X37830Y33004D02*
D03*
Y33556D02*
D03*
X36414Y35951D02*
D03*
Y36502D02*
D03*
D12*
X32174Y41530D02*
D03*
X32726D02*
D03*
X25846Y45180D02*
D03*
X25295D02*
D03*
X22545Y46030D02*
D03*
X23096D02*
D03*
X28261Y34930D02*
D03*
X27710D02*
D03*
X44096Y36327D02*
D03*
X43545D02*
D03*
X44096Y41177D02*
D03*
X43545D02*
D03*
X44146Y46127D02*
D03*
X43595D02*
D03*
X24195Y45180D02*
D03*
X24746D02*
D03*
X22945Y42130D02*
D03*
X23496D02*
D03*
X23095Y45180D02*
D03*
X23646D02*
D03*
X32296Y44175D02*
D03*
X31745D02*
D03*
X25796Y42130D02*
D03*
X25245D02*
D03*
X24045D02*
D03*
X24596D02*
D03*
X31096Y44175D02*
D03*
X30545D02*
D03*
X24496Y36630D02*
D03*
X23945D02*
D03*
X21845Y43930D02*
D03*
X22396D02*
D03*
Y43430D02*
D03*
X21845D02*
D03*
X25896Y36430D02*
D03*
X25345D02*
D03*
X25896Y37030D02*
D03*
X25345D02*
D03*
X21696Y36430D02*
D03*
X21145D02*
D03*
X30110Y34930D02*
D03*
X30661D02*
D03*
X23745Y46030D02*
D03*
X24296D02*
D03*
X28910Y34930D02*
D03*
X29461D02*
D03*
X27061D02*
D03*
X26510D02*
D03*
X23945Y36030D02*
D03*
X24496D02*
D03*
X21696Y37030D02*
D03*
X21145D02*
D03*
X37856Y32430D02*
D03*
X37304D02*
D03*
D13*
X31625Y41540D02*
D03*
X30995D02*
D03*
X44215Y47580D02*
D03*
X44845D02*
D03*
D14*
X25413Y42930D02*
D03*
Y43430D02*
D03*
Y43930D02*
D03*
Y44430D02*
D03*
X23327Y42930D02*
D03*
Y43430D02*
D03*
Y43930D02*
D03*
Y44430D02*
D03*
D15*
X24580Y35140D02*
D03*
X21080Y32970D02*
D03*
X24580D02*
D03*
X21080Y35140D02*
D03*
D16*
X23450Y35160D02*
D03*
X23140D02*
D03*
X22210D02*
D03*
X22830D02*
D03*
X22520D02*
D03*
D17*
X20930Y46330D02*
D03*
D18*
X18620Y36221D02*
D03*
Y37363D02*
D03*
D19*
X17723Y37537D02*
D03*
X19518D02*
D03*
X41518Y36323D02*
D03*
X39722D02*
D03*
X41518Y41323D02*
D03*
X39722D02*
D03*
X41518Y46323D02*
D03*
X39722D02*
D03*
X44718Y36320D02*
D03*
X42923D02*
D03*
X44718Y41320D02*
D03*
X42923D02*
D03*
X19518Y36123D02*
D03*
X17723D02*
D03*
X17732Y42837D02*
D03*
X19528D02*
D03*
X44718Y46320D02*
D03*
X42923D02*
D03*
D20*
X18620Y40057D02*
D03*
X40620Y33803D02*
D03*
Y38803D02*
D03*
Y43803D02*
D03*
X43820Y33800D02*
D03*
Y38800D02*
D03*
X18620Y33603D02*
D03*
X18630Y45357D02*
D03*
X43820Y43800D02*
D03*
D21*
X26815Y39522D02*
D03*
Y39719D02*
D03*
X31225Y40506D02*
D03*
Y40310D02*
D03*
Y40113D02*
D03*
Y39916D02*
D03*
Y39719D02*
D03*
Y39522D02*
D03*
Y39325D02*
D03*
Y39128D02*
D03*
Y38932D02*
D03*
Y38735D02*
D03*
Y38538D02*
D03*
Y38341D02*
D03*
Y38144D02*
D03*
Y37947D02*
D03*
Y37750D02*
D03*
Y37554D02*
D03*
X26815D02*
D03*
Y37750D02*
D03*
Y37947D02*
D03*
Y38144D02*
D03*
Y38341D02*
D03*
Y38538D02*
D03*
Y38735D02*
D03*
Y38932D02*
D03*
Y39128D02*
D03*
Y39325D02*
D03*
Y39916D02*
D03*
Y40113D02*
D03*
Y40310D02*
D03*
Y40506D02*
D03*
D22*
X27544Y41235D02*
D03*
X27741D02*
D03*
X27937D02*
D03*
X28134D02*
D03*
X28331D02*
D03*
X28528D02*
D03*
X28725D02*
D03*
X28922D02*
D03*
X29119D02*
D03*
X29315D02*
D03*
X29512D02*
D03*
X29709D02*
D03*
X29906D02*
D03*
X30103D02*
D03*
X30300D02*
D03*
X30497D02*
D03*
Y36825D02*
D03*
X30300D02*
D03*
X30103D02*
D03*
X29906D02*
D03*
X29709D02*
D03*
X29512D02*
D03*
X29315D02*
D03*
X29119D02*
D03*
X28922D02*
D03*
X28725D02*
D03*
X28528D02*
D03*
X28331D02*
D03*
X28134D02*
D03*
X27937D02*
D03*
X27741D02*
D03*
X27544D02*
D03*
D23*
X20830Y44672D02*
D03*
Y42388D02*
D03*
D24*
X38280Y41227D02*
D03*
X37354Y40853D02*
D03*
Y41601D02*
D03*
X38280Y46030D02*
D03*
X37354Y45656D02*
D03*
Y46404D02*
D03*
X38280Y39627D02*
D03*
X37354Y39253D02*
D03*
Y40001D02*
D03*
X38280Y44430D02*
D03*
X37354Y44056D02*
D03*
Y44804D02*
D03*
X28158Y46210D02*
D03*
X27233Y45836D02*
D03*
Y46584D02*
D03*
X32883Y42975D02*
D03*
X31958Y42601D02*
D03*
Y43349D02*
D03*
X30883Y42975D02*
D03*
X29958Y42601D02*
D03*
Y43349D02*
D03*
X30758Y45804D02*
D03*
Y45056D02*
D03*
X31683Y45430D02*
D03*
X37351Y35001D02*
D03*
Y34253D02*
D03*
X38276Y34627D02*
D03*
X37351Y36601D02*
D03*
Y35853D02*
D03*
X38276Y36227D02*
D03*
D25*
X47146Y36158D02*
D03*
Y40158D02*
D03*
Y44158D02*
D03*
X14804Y40452D02*
D03*
Y34852D02*
D03*
D26*
X28263Y44575D02*
D03*
X27377Y44201D02*
D03*
Y44949D02*
D03*
X29863Y44575D02*
D03*
X28977Y44201D02*
D03*
Y44949D02*
D03*
D27*
X22820Y37273D02*
D03*
X23194Y36387D02*
D03*
X22446D02*
D03*
D28*
X24420Y38725D02*
D03*
Y38135D02*
D03*
X20220Y36535D02*
D03*
Y37125D02*
D03*
X16530Y37235D02*
D03*
Y37825D02*
D03*
X14330D02*
D03*
Y37235D02*
D03*
X28020Y43270D02*
D03*
Y42680D02*
D03*
D29*
X29325Y45775D02*
D03*
X29915D02*
D03*
X21035Y38180D02*
D03*
X21625D02*
D03*
D30*
X30170Y33230D02*
D03*
X26430D02*
D03*
D31*
X15020Y43830D02*
D03*
Y46232D02*
D03*
D32*
X14804Y41204D02*
X14930Y41330D01*
X14804Y40452D02*
Y41204D01*
Y39456D02*
Y40058D01*
Y39456D02*
X14930Y39330D01*
X13330Y40530D02*
X13408Y40452D01*
X14804D01*
X16052D02*
X16130Y40530D01*
X14804Y40452D02*
X16052D01*
X42330Y37180D02*
X42930D01*
X43530D01*
X42930Y42180D02*
X43530D01*
X42330D02*
X42930D01*
D33*
X17415Y37845D02*
X17723Y37537D01*
X16510Y37845D02*
X17415D01*
D34*
X17208Y38586D02*
Y41643D01*
X17723Y36123D02*
Y37537D01*
X47130Y37536D02*
X48130D01*
X46161D02*
X47130D01*
Y34780D02*
X48130D01*
X46161D02*
X47130D01*
Y36142D01*
Y41536D02*
X48130D01*
X46161D02*
X47130D01*
X47146Y38780D02*
X48130D01*
X46161D02*
X47146D01*
X47130Y41536D02*
X47146Y41520D01*
Y45536D02*
X48130D01*
X46161D02*
X47146D01*
Y42780D02*
X48130D01*
X46161D02*
X47146D01*
X42930Y37141D02*
X42930Y37141D01*
X42930Y36327D02*
Y37141D01*
X42923Y41320D02*
Y42134D01*
X15020Y43830D02*
X17208Y41643D01*
X20306Y41715D02*
X20720Y42130D01*
X17447Y33603D02*
X18620D01*
X16198Y34852D02*
X17447Y33603D01*
X14804Y34852D02*
X16198D01*
X17208Y41643D02*
X17280Y41715D01*
X20306D01*
X17395Y38398D02*
X17723D01*
X17208Y38586D02*
X17395Y38398D01*
X17723Y37537D02*
Y38398D01*
X19528Y42837D02*
Y42928D01*
X20665Y44065D01*
X20730Y44130D01*
X47146Y38780D02*
Y40158D01*
Y41520D01*
Y44158D02*
Y45536D01*
Y42780D02*
Y44158D01*
X39730Y47780D02*
X40130D01*
X40430D01*
X40530Y47680D02*
X40602Y47752D01*
X39730Y47780D02*
X39758Y47752D01*
X40458D02*
X40602D01*
X40430Y47780D02*
X40458Y47752D01*
X40530Y47680D01*
X40602Y47752D02*
X40630Y47780D01*
X40732D01*
X40130Y47280D02*
X40530Y47680D01*
X47130Y36158D02*
Y37536D01*
Y36142D02*
Y36158D01*
X20730Y44130D02*
Y44672D01*
Y44722D01*
Y44672D02*
Y44722D01*
Y44130D02*
Y44672D01*
X47130Y36142D02*
Y36158D01*
Y37536D01*
X42930Y46320D02*
Y47238D01*
X39758Y47752D02*
X40458D01*
X39758D02*
X40130Y47380D01*
D35*
X36660Y32890D02*
Y33840D01*
X37120Y32430D02*
X37304D01*
X36660Y32890D02*
X37120Y32430D01*
X14330Y36740D02*
Y37235D01*
X13820Y36230D02*
X14330Y36740D01*
X20130Y35580D02*
Y36445D01*
X21080Y32970D02*
Y35140D01*
X15730Y37845D02*
X16510D01*
X15691Y37254D02*
X15730Y37215D01*
X15030Y37254D02*
X15691D01*
X29056Y42060D02*
X31990D01*
X28725Y41729D02*
X29056Y42060D01*
X28725Y41235D02*
Y41729D01*
X32164Y41540D02*
X32174Y41530D01*
X31625Y41540D02*
X32164D01*
X30497Y41235D02*
X30802Y41540D01*
X30995D01*
X32220Y40706D02*
X32442Y40927D01*
Y42238D01*
X32440Y42240D02*
X32442Y42238D01*
X31906Y39880D02*
X34850D01*
X31225Y39719D02*
X34191D01*
X34530Y39380D01*
X34850Y39880D02*
X34940Y39790D01*
Y36320D02*
Y39790D01*
X34800Y36180D02*
X34940Y36320D01*
X34300Y36180D02*
X34800D01*
X31870Y39916D02*
X31906Y39880D01*
X30880Y40900D02*
X31140D01*
X30690Y40710D02*
X30880Y40900D01*
X29799Y40710D02*
X30690D01*
X29709Y40800D02*
X29799Y40710D01*
X20823Y42388D02*
X21845Y43410D01*
X20720Y42278D02*
X20830Y42388D01*
X20696Y42255D02*
X20720Y42278D01*
Y42286D02*
Y42388D01*
Y42278D02*
Y42286D01*
Y42130D02*
Y42278D01*
X20689Y42255D02*
X20720Y42286D01*
X20625Y42190D02*
X20689Y42255D01*
X20696D01*
X18975D02*
X20689D01*
X18960Y42270D02*
X18975Y42255D01*
X18520Y45110D02*
Y45680D01*
X18630Y47240D02*
X18670Y47280D01*
X18520Y47130D02*
X18630Y47240D01*
X18520Y45110D02*
X18630D01*
X20737Y47897D02*
X20740Y47900D01*
X18630Y45790D02*
X20737Y47897D01*
X18520Y45680D02*
X18630Y45790D01*
X21130Y43380D02*
X21795D01*
X20730Y42980D02*
X21130Y43380D01*
X20730Y42388D02*
Y42980D01*
X20799Y43930D02*
X21845D01*
X26980Y41412D02*
Y41630D01*
Y41412D02*
X27260Y41132D01*
Y40924D02*
Y41132D01*
Y40924D02*
X27473Y40711D01*
X27677D01*
X27741Y40774D01*
Y41235D01*
X27544Y41744D02*
X27830Y42030D01*
X27544Y41235D02*
Y41744D01*
X27770Y39680D02*
X28090Y40000D01*
X27770Y38200D02*
Y39680D01*
X28040Y39560D02*
X28528Y39072D01*
X28090Y40000D02*
X28270D01*
X28560Y39710D01*
X25520Y41490D02*
Y42400D01*
X23880Y41530D02*
Y41720D01*
X28331Y40541D02*
Y41235D01*
X29512Y40778D02*
Y41235D01*
Y40778D02*
X29560Y40730D01*
Y40194D02*
Y40730D01*
X30040Y39940D02*
X30213Y40113D01*
X30040Y39710D02*
Y39940D01*
X29709Y40800D02*
Y41235D01*
X28260Y40470D02*
X28331Y40541D01*
X28540Y40340D02*
Y40921D01*
X32078Y45532D02*
X32480Y45130D01*
X32078Y45532D02*
Y45594D01*
X31292Y46380D02*
X32078Y45594D01*
X29757Y46380D02*
X31292D01*
X29135Y47002D02*
X29757Y46380D01*
X29135Y47002D02*
Y47148D01*
X28898Y47385D02*
X29135Y47148D01*
X28495Y47385D02*
X28898D01*
X29325Y45297D02*
Y45775D01*
X28977Y44949D02*
X29325Y45297D01*
X27693Y46584D02*
X28495Y47385D01*
X27233Y46584D02*
X27693D01*
X26810Y45180D02*
X27041Y44949D01*
X25846Y45180D02*
X26810D01*
X27041Y44949D02*
X27377D01*
Y44201D02*
Y44949D01*
X26040Y44230D02*
X27241D01*
X27490Y43660D02*
Y44201D01*
Y43660D02*
Y44201D01*
X27000Y43200D02*
Y43610D01*
X27490Y43660D02*
X27530Y43620D01*
X24390Y42928D02*
X25040Y42278D01*
X25840Y44430D02*
X26040Y44230D01*
X25413Y44430D02*
X25840D01*
X32296Y44175D02*
X32510D01*
Y42975D02*
Y44175D01*
X26333Y47900D02*
X31810D01*
X32730Y46980D01*
X32510Y42975D02*
X32883D01*
X31360Y44255D02*
Y45010D01*
X31200Y45170D02*
X31360Y45010D01*
X31200Y45170D02*
Y45724D01*
X31350Y45430D02*
X31683D01*
X31350D02*
Y45890D01*
X31120Y45804D02*
X31200Y45724D01*
X30758Y45804D02*
X31120D01*
X31683Y44832D02*
Y45430D01*
Y44832D02*
X31745Y44770D01*
Y44175D02*
Y44770D01*
X29915Y46040D02*
X31200D01*
X29915D02*
X31200D01*
X30930Y44850D02*
X31040Y44740D01*
X30230Y45056D02*
X30758D01*
X28804Y44949D02*
X28977D01*
X28430Y44575D02*
X28804Y44949D01*
X28263Y44575D02*
X28430D01*
X28230Y46070D02*
X28400Y45900D01*
X26730Y42930D02*
X27000Y43200D01*
X26420Y42930D02*
X26730D01*
X27270Y44201D02*
X27370D01*
X27241Y44230D02*
X27270Y44201D01*
X26476Y46506D02*
X26810D01*
X24470Y44890D02*
X26240D01*
X26420Y44710D01*
X24470Y44890D02*
Y45480D01*
X22205D02*
X24470D01*
X21845Y45120D02*
X22205Y45480D01*
X21845Y43930D02*
Y45120D01*
X26630Y47603D02*
X26924Y47897D01*
X20740Y47900D02*
X26333D01*
X25840Y42130D02*
X26364Y42654D01*
X24540Y43170D02*
X25230Y42480D01*
X25440D01*
X25520Y42400D01*
X28922Y40668D02*
Y41235D01*
Y40668D02*
X29130Y40460D01*
X30000Y44575D02*
X30400Y44175D01*
X31604Y43349D02*
X31958D01*
X31230Y42975D02*
X31604Y43349D01*
X28977Y44201D02*
Y44949D01*
X27490Y43460D02*
Y43660D01*
Y43460D02*
Y43660D01*
X31200Y46040D02*
X31350Y45890D01*
X24195Y43915D02*
X24230Y43880D01*
X23960Y43768D02*
X24390Y43338D01*
X23960Y43768D02*
Y44324D01*
X24390Y42928D02*
Y43338D01*
X23854Y44430D02*
X23960Y44324D01*
X24195Y43915D02*
Y45180D01*
X23327Y44430D02*
X23854D01*
X24540Y43600D02*
X24870Y43930D01*
X24540Y43170D02*
Y43600D01*
X24870Y43930D02*
X25413D01*
Y42735D02*
X25796Y42353D01*
Y42130D02*
Y42353D01*
Y42130D02*
X25840D01*
X23754Y39580D02*
X24150Y39976D01*
X23310Y39580D02*
X23754D01*
X23090Y44430D02*
Y44950D01*
Y44430D02*
Y44950D01*
X22814Y45180D02*
X23095D01*
X22640Y45006D02*
X22814Y45180D01*
X26420Y44506D02*
Y44710D01*
X25924Y43954D02*
X26420D01*
X25900Y43930D02*
X25924Y43954D01*
X25413Y43930D02*
X25900D01*
X22396D02*
X23327D01*
X22370Y44196D02*
Y44454D01*
Y44196D02*
X22396Y44170D01*
Y43930D02*
Y44170D01*
X25413Y42735D02*
Y42930D01*
X33360Y34910D02*
Y35392D01*
Y34910D02*
X34000Y34270D01*
X32581Y38932D02*
X33400Y38112D01*
Y37668D02*
Y38112D01*
X33210Y37478D02*
X33400Y37668D01*
X33210Y34500D02*
Y37478D01*
Y34500D02*
X34230Y33480D01*
X31225Y38932D02*
X32581D01*
X32684Y39128D02*
X33550Y38262D01*
Y35582D02*
Y38262D01*
X33360Y35392D02*
X33550Y35582D01*
X31225Y39128D02*
X32684D01*
X31225Y39325D02*
X32699D01*
X33700Y38324D01*
Y35350D02*
Y38324D01*
X33630Y35280D02*
X33700Y35350D01*
X23236Y39760D02*
X23530D01*
X22730Y39255D02*
X23236Y39760D01*
X22730Y38816D02*
Y39255D01*
X22910Y39180D02*
X23310Y39580D01*
X22910Y38816D02*
Y39180D01*
X30170Y33230D02*
Y33670D01*
X28910Y34930D02*
X30170Y33670D01*
X28261Y34930D02*
X28910D01*
X28261D02*
Y35511D01*
X28530Y35780D01*
X30158D01*
X31225Y36847D01*
Y37554D01*
X26430Y33230D02*
Y34299D01*
X27061Y34930D01*
X27710D01*
Y35560D01*
X28130Y35980D01*
X30146D01*
X30469Y36303D01*
Y36797D01*
X30497Y36825D01*
X36698Y39806D02*
X36893Y40001D01*
X18620Y39890D02*
Y40057D01*
X21795Y43380D02*
X21845Y43430D01*
X37776Y35377D02*
X37814Y35339D01*
X37351Y35853D02*
X37657D01*
X37351Y34253D02*
X37803D01*
X24150Y39976D02*
Y39980D01*
X22910Y38816D02*
X23220Y38506D01*
X23730Y39960D02*
Y39980D01*
X23530Y39760D02*
X23730Y39960D01*
X22420Y38506D02*
X22730Y38816D01*
X24930Y39700D02*
X24949Y39719D01*
X26815D01*
X24934Y39280D02*
X25176Y39522D01*
X24930Y39280D02*
X24934D01*
X25176Y39522D02*
X26815D01*
X23220Y37757D02*
Y37954D01*
X23194Y37731D02*
X23220Y37757D01*
X23194Y36387D02*
Y37731D01*
X22420Y37757D02*
Y37954D01*
Y37757D02*
X22446Y37731D01*
Y36387D02*
Y37731D01*
X37803Y34253D02*
X37814Y34264D01*
X37657Y35853D02*
X37776Y35734D01*
X37353Y39254D02*
X37354Y39253D01*
X36380Y39254D02*
X37353D01*
X36380Y39806D02*
X36698D01*
X36893Y40001D02*
X37354D01*
X37866Y38358D02*
X38417Y37807D01*
X37817Y38358D02*
X37866D01*
X39624Y37807D02*
X40620Y38803D01*
X38417Y37807D02*
X39624D01*
X39571Y42754D02*
X40620Y43803D01*
X38417Y42754D02*
X39571D01*
X38368D02*
X38417D01*
X37817Y43306D02*
X38368Y42754D01*
X37817Y42754D02*
X37817Y42754D01*
X37217Y42754D02*
X37817D01*
X36754Y46404D02*
X37354D01*
X36656Y46306D02*
X36754Y46404D01*
X36380Y46306D02*
X36656D01*
X36380Y44254D02*
X36656D01*
X36854Y44056D01*
X37354D01*
X36380Y44806D02*
X36382Y44804D01*
X37354D01*
X37768Y44170D02*
Y45243D01*
X37354Y44056D02*
X37654D01*
X43021Y35252D02*
X44096Y36327D01*
X38901Y35252D02*
X43021D01*
X38276Y34627D02*
X38901Y35252D01*
X41152Y35402D02*
X41518Y35768D01*
X38712Y36227D02*
X39537Y35402D01*
X41152D01*
X38276Y36227D02*
X38712D01*
X41518Y35768D02*
Y36323D01*
X39508Y40402D02*
X41330D01*
X38683Y41227D02*
X39508Y40402D01*
X38280Y41227D02*
X38683D01*
X41518Y45768D02*
Y46323D01*
X41152Y45402D02*
X41518Y45768D01*
X38708Y45402D02*
X41152D01*
X41330Y40402D02*
X41518Y40590D01*
Y41323D01*
X38280Y39627D02*
X38857D01*
X39482Y40252D01*
X43171D01*
X44096Y41177D01*
X41518Y41323D02*
X41700Y41506D01*
X42220D01*
X42557Y40954D02*
X42923Y41320D01*
X42220Y40954D02*
X42557D01*
X42923Y41320D02*
X43065Y41177D01*
X43545D01*
X44575D02*
X44718Y41320D01*
X44096Y41177D02*
X44575D01*
X38280Y45830D02*
Y46030D01*
Y45830D02*
X38708Y45402D01*
X41518Y46323D02*
X41700Y46506D01*
X42220D01*
X43422Y45954D02*
X43595Y46127D01*
X38280Y44430D02*
X38762D01*
X39418Y45086D01*
Y45187D01*
X39482Y45252D01*
X43271D01*
X44146Y46127D01*
X44525D01*
X44718Y46320D01*
X38276Y34627D02*
Y34702D01*
X40295Y34128D02*
X40620Y33803D01*
X41518Y36323D02*
X41700Y36506D01*
X42220D01*
X42557Y35954D02*
X42923Y36320D01*
X42220Y35954D02*
X42557D01*
X42923Y36320D02*
X42930Y36327D01*
X43545D01*
X44096D02*
X44103Y36320D01*
X44718D01*
X18630Y40680D02*
Y40780D01*
X17963D02*
X18130D01*
X18893Y40030D02*
X19130Y40267D01*
X18142Y40280D02*
X18230D01*
X19130Y40267D02*
Y40280D01*
X20665Y44065D02*
X20799Y43930D01*
X22520Y35160D02*
Y36047D01*
X22446Y36121D02*
X22520Y36047D01*
X22446Y36121D02*
Y36387D01*
X22830Y35160D02*
Y35757D01*
X23194Y36121D01*
Y36387D01*
X36617Y42754D02*
X37217D01*
X36017D02*
X36617D01*
X26364Y42654D02*
X26420D01*
X29863Y44575D02*
X30000D01*
X30400Y44175D02*
X30545D01*
Y44500D01*
X30758Y44713D01*
Y45056D01*
X26810Y46506D02*
X26888Y46584D01*
X27233D01*
X22370Y45006D02*
X22640D01*
X23496Y42130D02*
X24045D01*
X22370Y42906D02*
Y43150D01*
X22396Y43176D01*
Y43430D01*
X23327D01*
X30883Y42975D02*
X31230D01*
X25220Y38106D02*
X25820D01*
X25220Y37554D02*
X25820D01*
X26310D01*
X26311Y37554D01*
X26815D01*
Y37750D01*
X38830Y33004D02*
Y33030D01*
X38330Y33530D02*
X38830Y33030D01*
X38330Y33530D02*
Y33556D01*
X37830Y33004D02*
X38330D01*
X37330D02*
X37830D01*
Y32576D02*
X37906Y32500D01*
X37830Y32576D02*
Y33004D01*
X37217Y37807D02*
X37817D01*
X36617D02*
X37217D01*
X36017Y38358D02*
X36040D01*
X36591Y37807D01*
X36617D01*
X21080Y32970D02*
X24580D01*
X24496Y36030D02*
Y36630D01*
X24580Y35140D02*
Y35540D01*
X24496Y35624D02*
X24580Y35540D01*
X24496Y35624D02*
Y36030D01*
X24580Y32970D02*
Y35140D01*
X29020Y43250D02*
X29430D01*
X29528Y43349D01*
X29958D01*
X23646Y45180D02*
X24195D01*
X36414Y36502D02*
X36830D01*
X36928Y36601D01*
X37351D01*
X36414Y34902D02*
X36830D01*
X36928Y35001D01*
X37351D01*
X36380Y41556D02*
X36840D01*
X36885Y41601D01*
X37354D01*
X35530Y41380D02*
X35860D01*
X36036Y41556D01*
X36380D01*
X35530Y46380D02*
X35910D01*
X35984Y46306D01*
X36380D01*
X40620Y43803D02*
X42210D01*
X42213Y43800D01*
X43820D01*
X26420Y43206D02*
Y43954D01*
X23096Y46030D02*
X23745D01*
X26810Y38144D02*
X26815D01*
X26810Y37947D02*
X26815D01*
X35530Y36680D02*
X35708Y36502D01*
X36414D01*
X21696Y36430D02*
X21940D01*
X22210Y36160D01*
Y35160D02*
Y36160D01*
X43595Y47360D02*
X43755Y47520D01*
X44215D02*
Y47580D01*
X20730Y44672D02*
X20830D01*
X44845Y47195D02*
Y47580D01*
Y47195D02*
X45500Y46540D01*
Y46504D02*
X45530D01*
X18630Y45110D02*
Y45357D01*
X36414Y34902D02*
Y35200D01*
X35934Y35680D02*
X36414Y35200D01*
X35530Y35680D02*
X35934D01*
X35530Y45380D02*
X36020Y45870D01*
Y45920D01*
X36130Y46030D01*
X36670D01*
Y44916D02*
Y46030D01*
X36560Y44806D02*
X36670Y44916D01*
X36380Y44806D02*
X36560D01*
X25036Y38106D02*
X25220D01*
X24930Y38000D02*
X25036Y38106D01*
X24930Y37280D02*
Y38000D01*
Y37280D02*
X25180Y37030D01*
X25345D01*
X25820Y37380D02*
Y37554D01*
X25620Y37280D02*
X25720Y37380D01*
X25620Y36530D02*
Y37280D01*
X25520Y36430D02*
X25620Y36530D01*
X25345Y36430D02*
X25520D01*
X29915Y45775D02*
Y46040D01*
X31280Y44175D02*
X31360Y44255D01*
X31096Y44175D02*
X31280D01*
X30330Y37750D02*
X31225D01*
X30000Y38080D02*
X30330Y37750D01*
X30000Y38080D02*
Y38550D01*
X26420Y42654D02*
Y42930D01*
X28158Y46210D02*
X28230D01*
X27370Y44201D02*
X27377D01*
X31225Y38735D02*
X32565D01*
X32770Y38530D01*
Y34970D02*
Y38530D01*
X36480Y34020D02*
X36660Y33840D01*
X36190Y34020D02*
X36480D01*
X35530Y34680D02*
X36190Y34020D01*
X24810Y43430D02*
X25413D01*
X23496Y42104D02*
Y42130D01*
X27680Y43270D02*
X28020D01*
X27490Y43460D02*
X27680Y43270D01*
X27377Y44201D02*
X27490D01*
X23090Y44430D02*
X23327D01*
X23090Y44950D02*
X23095Y44955D01*
Y45180D01*
X35530Y37920D02*
Y39380D01*
Y37920D02*
X35643Y37807D01*
X36017D01*
X35530Y40380D02*
X36104Y39806D01*
X36380D01*
X32220Y34490D02*
X33230Y33480D01*
X32220Y34490D02*
Y38121D01*
X32000Y38341D02*
X32220Y38121D01*
X31225Y38341D02*
X32000D01*
X29130Y40460D02*
X29290D01*
X28528Y36825D02*
Y39072D01*
X29119Y36825D02*
Y39115D01*
X28540Y40340D02*
X28740Y40140D01*
X28528Y40921D02*
Y41235D01*
X30720Y39522D02*
X31225D01*
X30440Y39802D02*
X30720Y39522D01*
X38830Y33004D02*
X39172D01*
X30213Y40113D02*
X31225D01*
X30040Y39710D02*
X30350Y39400D01*
Y38130D02*
Y39400D01*
X22620Y46730D02*
X23096Y46254D01*
Y46030D02*
Y46254D01*
X35530Y44380D02*
X36017Y43893D01*
Y43306D02*
Y43893D01*
X25820Y38106D02*
X26290D01*
X26329Y38144D01*
X14804Y34852D02*
X15789Y35836D01*
Y36230D01*
X14804Y34458D02*
X15789Y33474D01*
X14804Y34458D02*
Y34852D01*
X32070Y34240D02*
Y37980D01*
X31906Y38144D02*
X32070Y37980D01*
X31225Y38144D02*
X31906D01*
X34680Y33030D02*
X35230Y32480D01*
X34080Y33030D02*
X34680D01*
X33640Y33470D02*
X34080Y33030D01*
X33640Y33470D02*
Y33690D01*
X32500Y34830D02*
X33640Y33690D01*
X32500Y34830D02*
Y38080D01*
X32042Y38538D02*
X32500Y38080D01*
X31225Y38538D02*
X32042D01*
X33670Y33040D02*
X34230Y32480D01*
X32000Y33040D02*
X33670D01*
X31770Y33270D02*
X32000Y33040D01*
X31770Y33270D02*
Y37857D01*
X31680Y37947D02*
X31770Y37857D01*
X31225Y37947D02*
X31680D01*
X21845Y43410D02*
Y43430D01*
X18960Y42270D02*
Y43020D01*
X18630Y43350D02*
X18960Y43020D01*
X30758Y45056D02*
X30930D01*
X25040Y42278D02*
X25245Y42130D01*
X30883Y42975D02*
X31096Y43188D01*
Y44175D01*
X28560Y39710D02*
X29076D01*
X29560Y40194D01*
X31225Y39916D02*
X31870D01*
X34120Y36000D02*
X34300Y36180D01*
X34120Y35090D02*
Y36000D01*
Y35090D02*
X34530Y34680D01*
X17732Y42308D02*
Y42837D01*
Y42308D02*
X17840Y42200D01*
X18630D01*
X27370Y43780D02*
X27490Y43660D01*
X18520Y45680D02*
Y47130D01*
X42923Y46320D02*
X42930D01*
X17723Y35732D02*
Y36123D01*
X20730Y42388D02*
X20823D01*
X20720D02*
X20730D01*
X20823D02*
X20830D01*
X20720Y42286D02*
X20823Y42388D01*
X26329Y38144D02*
X26810D01*
X22820Y36867D02*
Y37273D01*
X23930Y37580D02*
X24420Y38070D01*
Y38135D01*
X20130Y36445D02*
X20220Y36535D01*
X18670Y47280D02*
Y47355D01*
X40130Y47280D02*
Y47380D01*
X23496Y42104D02*
X23880Y41720D01*
X28230Y46070D02*
Y46210D01*
X27370Y43780D02*
Y44201D01*
X42220Y45954D02*
X42696D01*
X43755Y47520D02*
X44215D01*
X45500Y46504D02*
Y46540D01*
X26810Y37947D02*
Y38144D01*
X25720Y37380D02*
X25820D01*
X39172Y33004D02*
X40295Y34128D01*
X28528Y40921D02*
X28540D01*
X18530Y39980D02*
Y40147D01*
X18330Y40180D02*
X18530Y39980D01*
X18330Y40180D02*
X18413Y40263D01*
X18013Y40663D02*
X18270Y40407D01*
X18620Y40057D02*
X18737Y40173D01*
X18743Y40180D02*
X18893Y40030D01*
X18413Y40263D02*
X18430Y40280D01*
X18630D01*
X18737Y40173D02*
X18743Y40180D01*
X37814Y34264D02*
Y35339D01*
X37778Y39676D02*
Y40430D01*
X20730Y44672D02*
Y44722D01*
Y44672D02*
Y44722D01*
X37776Y35377D02*
Y35734D01*
X18413Y40263D02*
X18513Y40163D01*
X18530Y40147D01*
X18313Y40363D02*
X18630Y40680D01*
X18270Y40407D02*
X18313Y40363D01*
X18230Y40280D02*
X18313Y40363D01*
X17930Y40747D02*
X17963Y40780D01*
X17930Y40747D02*
X18013Y40663D01*
X18313Y40363D02*
X18413Y40263D01*
X18530Y39980D02*
X18620Y39890D01*
X28528Y40921D02*
X28540D01*
X39172Y33004D02*
X40295Y34128D01*
X25720Y37380D02*
X25820D01*
X26810Y37947D02*
Y38144D01*
X45500Y46504D02*
Y46540D01*
X30930Y44850D02*
Y45056D01*
X43595Y46127D02*
Y47360D01*
X42220Y45954D02*
X43422D01*
X27370Y43780D02*
Y44201D01*
X28230Y46070D02*
Y46210D01*
D36*
X17340Y35520D02*
Y36955D01*
X16960Y37335D02*
X17340Y36955D01*
Y35520D02*
X17510Y35350D01*
X17960D01*
X18130Y35520D01*
Y39780D01*
X18220Y36880D02*
Y39870D01*
Y36880D02*
X18310Y36790D01*
X18600D01*
X20550Y32350D02*
Y36535D01*
X19154Y37537D02*
X19518D01*
X18980Y37363D02*
X19154Y37537D01*
X31870Y42350D02*
X32330D01*
X32340Y42340D01*
X31840Y42320D02*
X31870Y42350D01*
X27420Y42320D02*
X31840D01*
X32864Y40154D02*
X33530Y40820D01*
X32220Y40154D02*
X32864D01*
X33530Y40820D02*
X34850D01*
X35030Y40640D01*
Y39980D02*
Y40640D01*
X18620Y36221D02*
Y36770D01*
X18600Y36790D02*
X18620Y36770D01*
X26990Y40953D02*
X27550Y40393D01*
Y39288D02*
Y40393D01*
X26990Y40953D02*
Y41020D01*
X27390Y39128D02*
X27550Y39288D01*
X26815Y40113D02*
X27280D01*
X27360Y40033D01*
Y39405D02*
Y40033D01*
X27280Y39325D02*
X27360Y39405D01*
X26815Y39325D02*
X27280D01*
X26815Y39128D02*
X27390D01*
X27340Y42240D02*
X27420Y42320D01*
X27164Y42240D02*
X27340D01*
X30080Y40506D02*
X31225D01*
X29890Y40316D02*
X30080Y40506D01*
X29890Y40020D02*
Y40316D01*
X29528Y42601D02*
X29958D01*
X29430Y42699D02*
X29528Y42601D01*
X26476Y45836D02*
X27233D01*
X28530Y42699D02*
X28791D01*
X28510Y42680D02*
X28530Y42699D01*
X28020Y42680D02*
X28510D01*
X27740Y44360D02*
Y45616D01*
Y44360D02*
X28691Y43409D01*
X32340Y42340D02*
X34680D01*
X32340D02*
X32440Y42240D01*
X34680Y42340D02*
X35100Y41920D01*
X28730Y45650D02*
Y46980D01*
X27884Y45836D02*
X28110Y45610D01*
X27520Y45836D02*
X27884D01*
X28110Y45610D02*
X28690D01*
X28730Y45650D01*
X27520Y45836D02*
X27740Y45616D01*
X26890Y42240D02*
X27164D01*
X25930Y41280D02*
X26890Y42240D01*
X25930Y40856D02*
Y41280D01*
X27164Y42240D02*
Y42646D01*
X28691Y42800D02*
Y43409D01*
Y42800D02*
X28791Y42699D01*
X27250Y36280D02*
Y36586D01*
X26880Y36956D02*
X27250Y36586D01*
Y36280D02*
X30000D01*
X24660Y40304D02*
X25094D01*
X23264Y41700D02*
X24660Y40304D01*
X24010Y39220D02*
X25094Y40304D01*
X24010Y38240D02*
Y39220D01*
X24420Y38725D02*
X25270D01*
X22190Y45670D02*
X24136D01*
X24296Y45830D01*
X25295Y45180D02*
Y45576D01*
X24296Y45830D02*
X24472Y45654D01*
X24644D01*
X24746Y45552D01*
Y45180D02*
Y45552D01*
X21930Y45930D02*
X22190Y45670D01*
X25330Y40856D02*
X25930D01*
X18620Y37363D02*
X18980D01*
X21145Y36430D02*
Y37030D01*
X20220Y37125D02*
X20630D01*
X20725Y37030D01*
X21145D01*
Y37550D01*
X21035Y37660D02*
X21145Y37550D01*
X21035Y37660D02*
Y38180D01*
X21696Y37030D02*
Y37560D01*
X21625Y37630D02*
X21696Y37560D01*
X21625Y37630D02*
Y38180D01*
X23945Y36030D02*
Y36320D01*
X23945Y36320D01*
Y36630D01*
Y37140D02*
X24420Y37616D01*
X18620Y36221D02*
X19010D01*
X19108Y36123D01*
X19518D01*
X25896Y36430D02*
X26250D01*
X26276Y36404D01*
X26630D01*
X26510Y34930D02*
Y35600D01*
X26630Y35720D01*
Y36404D01*
X25330Y40304D02*
X25620D01*
X25620Y40304D01*
X25930D01*
X24746Y45180D02*
X25295D01*
X22370Y42354D02*
X22540D01*
X22764Y42130D01*
X22945D01*
Y42330D01*
X23327Y42712D01*
Y42930D01*
X29020Y42699D02*
X29430D01*
X29958Y42601D02*
X31958D01*
X36617Y43306D02*
X37217D01*
Y43610D01*
X37354Y43747D01*
Y44056D01*
X36617Y38358D02*
X37217D01*
Y38730D01*
X37354Y38867D01*
Y39253D01*
X37330Y33556D02*
X37830D01*
X36414Y34351D02*
X36830D01*
X36928Y34253D01*
X37351D01*
X25896Y37030D02*
X26220D01*
X26294Y36956D01*
X26630D01*
X15410Y38695D02*
X15789Y39074D01*
X37760Y35853D02*
X37860Y35953D01*
Y36400D01*
X37940Y36480D01*
X39722Y36323D02*
Y36480D01*
X25870Y39325D02*
X26815D01*
X25270Y38725D02*
X25870Y39325D01*
X37354Y45656D02*
X37716D01*
X37820Y45760D01*
Y46240D01*
X37910Y46330D01*
X39722Y46323D02*
Y46330D01*
X24115Y38135D02*
X24420D01*
X24010Y38240D02*
X24115Y38135D01*
X25930Y40000D02*
Y40304D01*
Y40000D02*
X26014Y39916D01*
X26815D01*
X23640Y36030D02*
X23945D01*
X23450Y35840D02*
X23640Y36030D01*
X23450Y35160D02*
Y35840D01*
X38417Y38358D02*
Y38916D01*
X38080Y39253D02*
X38417Y38916D01*
X37354Y39253D02*
X38080D01*
X21780Y46080D02*
X21930Y45930D01*
X20930Y46080D02*
Y46330D01*
X22340Y46030D02*
X22545D01*
X21970Y46400D02*
X22340Y46030D01*
X21970Y46400D02*
Y46720D01*
X22370Y42075D02*
Y42354D01*
X22080Y41785D02*
X22370Y42075D01*
X20965Y41785D02*
X22080D01*
X38417Y38358D02*
X39030D01*
X38200Y45656D02*
X38806Y45050D01*
X27233Y45836D02*
X27520D01*
X26476D02*
Y45954D01*
X18130Y40268D02*
X18142Y40280D01*
X24596Y41760D02*
Y42130D01*
Y41760D02*
X25330Y41026D01*
Y40856D02*
Y41026D01*
X38417Y43306D02*
X39004D01*
X39722Y41323D02*
Y41600D01*
X38417Y43306D02*
Y43890D01*
X38251Y44056D02*
X38417Y43890D01*
X24296Y45830D02*
Y46030D01*
X29461Y34930D02*
Y35200D01*
X29751Y35490D01*
X30070D01*
X26377Y40113D02*
X26815D01*
X26250Y40240D02*
X26377Y40113D01*
X26250Y40240D02*
Y40766D01*
X26160Y40856D02*
X26250Y40766D01*
X25930Y40856D02*
X26160D01*
X32220Y40154D02*
Y40310D01*
X20220Y36535D02*
X20550D01*
X31140Y32350D02*
X31400Y32610D01*
Y33780D01*
X30590D02*
X31400D01*
X29461Y34909D02*
Y34930D01*
X35959Y35951D02*
X36414D01*
X35800Y36110D02*
X35959Y35951D01*
X35200Y36110D02*
X35800D01*
X34960Y35870D02*
X35200Y36110D01*
X34960Y34250D02*
Y35870D01*
X34800Y34090D02*
X34960Y34250D01*
X34800Y33170D02*
Y34090D01*
Y33170D02*
X35060Y32910D01*
X35550D01*
X35660Y32800D01*
Y32160D02*
Y32800D01*
X35550Y32050D02*
X35660Y32160D01*
X32000Y32050D02*
X35550D01*
X31590Y32460D02*
X32000Y32050D01*
X31590Y32460D02*
Y34203D01*
X31213Y34580D02*
X31590Y34203D01*
X30110Y34710D02*
X30240Y34580D01*
X22550Y41510D02*
X23040Y41020D01*
X21190Y41510D02*
X22550D01*
X20800Y38180D02*
X21035D01*
X31870Y40706D02*
X32220D01*
X31671Y40506D02*
X31870Y40706D01*
X31225Y40506D02*
X31671D01*
X36160Y39254D02*
X36380D01*
X35840Y39810D02*
X36160Y39490D01*
X35200Y39810D02*
X35840D01*
X35030Y39980D02*
X35200Y39810D01*
X29710Y39840D02*
X29890Y40020D01*
X29710Y38023D02*
Y39840D01*
Y38023D02*
X30103Y37630D01*
Y36825D02*
Y37630D01*
X35730Y41004D02*
X36380D01*
X35676Y40950D02*
X35730Y41004D01*
X35100Y41120D02*
X35270Y40950D01*
X25295Y45576D02*
X25673Y45954D01*
X26476D01*
X30300Y36825D02*
Y37280D01*
X30390Y37370D01*
X30710D01*
X30950Y37130D01*
X30661Y35901D02*
X31420Y36660D01*
X30661Y34930D02*
Y35901D01*
X19518Y36123D02*
X19930Y36535D01*
X20220D01*
X14804Y40058D02*
Y40452D01*
X15789Y41436D02*
Y41830D01*
X19518Y37537D02*
X19930Y37125D01*
X20220D01*
X14709Y42910D02*
X15789Y41830D01*
X14390Y42910D02*
X14709D01*
X14390D02*
Y44810D01*
X15020Y45440D01*
Y46232D01*
X13820Y39074D02*
X14320Y38574D01*
X25896Y36160D02*
Y36430D01*
X25726Y35990D02*
X25896Y36160D01*
X25120Y35990D02*
X25726D01*
X24960Y36150D02*
X25120Y35990D01*
X24960Y36150D02*
Y36790D01*
X24510Y37240D02*
X24960Y36790D01*
X24320Y37240D02*
X24510D01*
X23945Y36865D02*
X24320Y37240D01*
X23945Y36630D02*
Y36865D01*
X23327Y42930D02*
X24090D01*
X37940Y41600D02*
X39170D01*
X37880Y41660D02*
X37940Y41600D01*
X37780Y41440D02*
X37820D01*
X38150Y41930D02*
X39722Y41840D01*
X37814Y34376D02*
X38080Y34110D01*
X38640D01*
X38830Y33920D01*
Y33556D02*
Y33920D01*
X45360Y48030D02*
X45530Y47860D01*
Y47056D02*
Y47860D01*
X18630Y39780D02*
Y39792D01*
X26630Y36956D02*
X26880D01*
X30110Y34710D02*
Y34930D01*
X30103Y36383D02*
Y36825D01*
X30000Y36280D02*
X30103Y36383D01*
X36380Y45390D02*
Y45754D01*
X35840Y44850D02*
X36380Y45390D01*
X35310Y44850D02*
X35840D01*
X35270Y40950D02*
X35676D01*
X18142Y40280D02*
X18386Y40036D01*
X18220Y39870D02*
X18386Y40036D01*
X18630Y40280D02*
X19130Y40780D01*
X23945Y36865D02*
Y37140D01*
X20430Y41250D02*
X20880Y41700D01*
X20965Y41785D01*
X20830Y41700D02*
X20880D01*
X25094Y40304D02*
X25330D01*
X37657Y35853D02*
X37760D01*
X37814Y33624D02*
Y34264D01*
Y34376D01*
Y35339D01*
Y35414D01*
X37780Y41278D02*
X37820Y41318D01*
X37780Y41278D02*
Y41440D01*
X37820Y41318D02*
Y41440D01*
Y41600D01*
X39722Y36480D02*
Y37088D01*
Y41600D02*
Y41840D01*
X28791Y42699D02*
X29020D01*
X37820Y41600D02*
X37880Y41660D01*
X38150Y41930D01*
X37654Y44056D02*
X38251D01*
X37716Y45656D02*
X38200D01*
X27250Y35640D02*
Y36280D01*
X30110Y34710D02*
X30248Y34580D01*
X30600Y34250D01*
X30240Y34580D02*
X30248D01*
X31213D01*
X35100Y41120D02*
Y41920D01*
X24420Y37616D02*
Y38070D01*
X37910Y46330D02*
X38930D01*
X38937Y46323D01*
X20130Y38850D02*
X20800Y38180D01*
X20130Y38850D02*
Y40450D01*
X21190Y41510D01*
X35030Y41990D02*
Y44570D01*
X35310Y44850D01*
X20880Y41700D02*
X23264D01*
X18130Y39780D02*
Y40268D01*
X18493Y39930D02*
X18630Y39792D01*
X18737Y40173D02*
X19130Y39780D01*
X18386Y40036D02*
X18493Y39930D01*
X18386Y40036D02*
X18513Y40163D01*
X20550Y32350D02*
X31140D01*
X18230Y40280D02*
X18430D01*
X18630D02*
X18737Y40173D01*
X20930Y46080D02*
X21780D01*
X31225Y40310D02*
X32220D01*
X36160Y39254D02*
Y39490D01*
X37353Y39254D02*
X37354D01*
X37940Y36480D02*
X39722D01*
X37780Y39680D02*
Y41278D01*
X35030Y41990D02*
X35100Y41920D01*
X39170Y41600D02*
X39722D01*
X19910Y40780D02*
X20830Y41700D01*
X18513Y40163D02*
X18630Y40280D01*
X18386Y40036D02*
X18630Y39792D01*
D37*
X18670Y47280D02*
X19287Y47897D01*
X18630Y46397D02*
X20130Y47897D01*
X18630Y46397D02*
Y47240D01*
X20737Y47897D02*
X26924D01*
X20130D02*
X20737D01*
X26924D02*
X32163D01*
X19287D02*
X20130D01*
X18630Y45790D02*
Y46397D01*
Y45357D02*
Y45790D01*
X32830Y47230D02*
X39296D01*
X32163Y47897D02*
X32830Y47230D01*
X39296D02*
X39331Y47265D01*
X47130Y36142D02*
X47146Y36158D01*
X45185Y33803D02*
X46161Y34780D01*
X40620Y38803D02*
X40623Y38800D01*
X43820D01*
X45178Y40158D01*
X47146D01*
X40620Y43803D02*
X40975Y44158D01*
X42930Y47238D02*
X43472D01*
X40620Y38803D02*
X40825Y39008D01*
X39331Y47265D02*
X42358D01*
Y47238D02*
X42930D01*
X40620Y33803D02*
X43820D01*
X45185D01*
X40975Y44158D02*
X43820D01*
X47146D01*
X43820D02*
X47146D01*
X40975D02*
X43820D01*
Y33803D02*
X45185D01*
X40620D02*
X43820D01*
D38*
X38937Y46323D02*
X39722D01*
X39180Y45780D02*
X39722Y46323D01*
X39130Y45780D02*
X39180D01*
D39*
X35530Y44380D02*
D03*
X34530D02*
D03*
X35530Y45380D02*
D03*
X34530D02*
D03*
X35530Y46380D02*
D03*
Y39380D02*
D03*
X34530D02*
D03*
X35530Y40380D02*
D03*
X34530D02*
D03*
X35530Y41380D02*
D03*
X36230Y32480D02*
D03*
X35230Y33480D02*
D03*
Y32480D02*
D03*
X34230Y33480D02*
D03*
Y32480D02*
D03*
X33230Y33480D02*
D03*
Y32480D02*
D03*
X32230Y33480D02*
D03*
Y32480D02*
D03*
X35530Y34680D02*
D03*
X34530D02*
D03*
X35530Y35680D02*
D03*
X34530D02*
D03*
X35530Y36680D02*
D03*
X31730Y46980D02*
D03*
X30730D02*
D03*
X29730D02*
D03*
X28730D02*
D03*
D40*
X34530Y46380D02*
D03*
Y41380D02*
D03*
Y36680D02*
D03*
D41*
X36230Y33480D02*
D03*
X32730Y46980D02*
D03*
D42*
X47130Y47380D02*
D03*
X21730Y40130D02*
D03*
X47130Y32980D02*
D03*
D43*
X46161Y37536D02*
D03*
Y34780D02*
D03*
X48130Y37536D02*
D03*
Y34780D02*
D03*
X46161Y41536D02*
D03*
Y38780D02*
D03*
X48130Y41536D02*
D03*
Y38780D02*
D03*
X46161Y45536D02*
D03*
Y42780D02*
D03*
X48130Y45536D02*
D03*
Y42780D02*
D03*
X15789Y39074D02*
D03*
Y41830D02*
D03*
X13820Y39074D02*
D03*
Y41830D02*
D03*
X15789Y33474D02*
D03*
Y36230D02*
D03*
X13820Y33474D02*
D03*
Y36230D02*
D03*
D44*
X24620Y47230D02*
D03*
D45*
Y46730D02*
D03*
X24120Y47230D02*
D03*
Y46730D02*
D03*
X23620Y47230D02*
D03*
Y46730D02*
D03*
X23120Y47230D02*
D03*
Y46730D02*
D03*
X22620Y47230D02*
D03*
Y46730D02*
D03*
D46*
X28380Y42030D02*
D03*
X29430Y42699D02*
D03*
X16380Y39780D02*
D03*
X26130Y32130D02*
D03*
X38930D02*
D03*
X27730D02*
D03*
X29330D02*
D03*
X30930D02*
D03*
X27980Y37630D02*
D03*
X31230Y35630D02*
D03*
X20130Y35580D02*
D03*
X31990Y42060D02*
D03*
X33130Y41030D02*
D03*
X31140Y40900D02*
D03*
X20000Y40870D02*
D03*
X48380Y44530D02*
D03*
Y43730D02*
D03*
X28040Y39560D02*
D03*
X26990Y41020D02*
D03*
X25520Y41490D02*
D03*
X23880Y41530D02*
D03*
X27830Y42030D02*
D03*
X28260Y40470D02*
D03*
X32480Y45130D02*
D03*
X27000Y43610D02*
D03*
X27530Y43620D02*
D03*
X33880Y48030D02*
D03*
X31040Y44740D02*
D03*
X30230Y45056D02*
D03*
X28400Y45900D02*
D03*
X26980Y41630D02*
D03*
X27164Y42646D02*
D03*
X23600Y40610D02*
D03*
X26630Y47603D02*
D03*
X24230Y43880D02*
D03*
X33630Y35280D02*
D03*
X24150Y39980D02*
D03*
X23730D02*
D03*
X24930Y39700D02*
D03*
Y39280D02*
D03*
X37814Y35414D02*
D03*
X37778Y40430D02*
D03*
X37768Y45243D02*
D03*
X42330Y37180D02*
D03*
X43530D02*
D03*
X42930D02*
D03*
X42330Y42180D02*
D03*
X43530D02*
D03*
X42930Y47238D02*
D03*
Y42180D02*
D03*
X42358Y47238D02*
D03*
X43472D02*
D03*
X19130Y40780D02*
D03*
X18630D02*
D03*
X18130D02*
D03*
X18630Y40280D02*
D03*
X18142D02*
D03*
X19130D02*
D03*
X18130Y39780D02*
D03*
X18630D02*
D03*
X19130D02*
D03*
X21970Y46720D02*
D03*
X20430Y41250D02*
D03*
X39030Y38358D02*
D03*
X39722Y37088D02*
D03*
X38806Y45050D02*
D03*
X30000Y38550D02*
D03*
X32770Y34970D02*
D03*
X39004Y43306D02*
D03*
X24810Y43430D02*
D03*
X23040Y41020D02*
D03*
X29290Y40460D02*
D03*
X29119Y39115D02*
D03*
X28740Y40140D02*
D03*
X30440Y39802D02*
D03*
X30350Y38130D02*
D03*
X21930Y45930D02*
D03*
X30950Y37130D02*
D03*
X31420Y36660D02*
D03*
X32070Y34240D02*
D03*
X34000Y34270D02*
D03*
X18630Y43350D02*
D03*
X27770Y38200D02*
D03*
X24090Y42930D02*
D03*
X39170Y41600D02*
D03*
X45360Y48030D02*
D03*
X27250Y35640D02*
D03*
X30600Y34250D02*
D03*
X18630Y42200D02*
D03*
X22820Y36867D02*
D03*
X23930Y37580D02*
D03*
X26333Y47900D02*
D03*
X26924Y47897D02*
D03*
X19830Y47280D02*
D03*
X18670Y47355D02*
D03*
X40130Y47280D02*
D03*
Y47780D02*
D03*
X39530D02*
D03*
X38937Y46323D02*
D03*
X39130Y45780D02*
D03*
X40880Y42030D02*
D03*
Y41280D02*
D03*
X40380Y42030D02*
D03*
Y41280D02*
D03*
Y36030D02*
D03*
Y36780D02*
D03*
X40880Y36030D02*
D03*
Y36780D02*
D03*
X34380Y37780D02*
D03*
Y38530D02*
D03*
X35380Y37530D02*
D03*
X34380Y43530D02*
D03*
Y42780D02*
D03*
X32630Y45780D02*
D03*
X35130Y48030D02*
D03*
X36380D02*
D03*
X37630D02*
D03*
X38880D02*
D03*
X41380D02*
D03*
X42630D02*
D03*
X45880Y35780D02*
D03*
Y36530D02*
D03*
X44130Y42030D02*
D03*
X45316Y41989D02*
D03*
X42130Y32130D02*
D03*
X40530D02*
D03*
X43730D02*
D03*
X45330D02*
D03*
X16130Y46030D02*
D03*
X13880D02*
D03*
X16130Y44530D02*
D03*
X13880D02*
D03*
Y42780D02*
D03*
X13530Y38130D02*
D03*
Y37130D02*
D03*
X16880Y36280D02*
D03*
X16380Y41030D02*
D03*
X16130Y47030D02*
D03*
X25630Y35280D02*
D03*
Y34280D02*
D03*
X14380Y32280D02*
D03*
X15380D02*
D03*
X16380D02*
D03*
X20130D02*
D03*
X22130Y33530D02*
D03*
X23630D02*
D03*
X20630Y39030D02*
D03*
X20130Y38129D02*
D03*
X40732Y47780D02*
D03*
X48380Y39780D02*
D03*
Y40530D02*
D03*
Y36530D02*
D03*
Y35780D02*
D03*
X17130Y43280D02*
D03*
X35380Y42780D02*
D03*
X25630Y46780D02*
D03*
X22130Y32530D02*
D03*
X23630D02*
D03*
X33130Y37780D02*
D03*
X40248Y46030D02*
D03*
X40880D02*
D03*
M02*
