G04 Layer_Physical_Order=1*
G04 Layer_Color=255*
%FSLAX24Y24*%
%MOIN*%
G70*
G01*
G75*
%ADD10R,0.0315X0.0354*%
%ADD11R,0.0551X0.0433*%
%ADD12R,0.0354X0.0315*%
%ADD13R,0.0236X0.0453*%
%ADD14R,0.0472X0.0551*%
%ADD15R,0.0394X0.0138*%
%ADD16R,0.0433X0.0551*%
%ADD17R,0.0236X0.0335*%
%ADD18R,0.0236X0.0571*%
%ADD19R,0.0591X0.0551*%
%ADD20R,0.0532X0.0846*%
%ADD21R,0.0256X0.0354*%
%ADD22O,0.0827X0.0118*%
%ADD23O,0.0118X0.0827*%
%ADD24R,0.0945X0.0945*%
%ADD25O,0.0354X0.0079*%
%ADD26O,0.0079X0.0354*%
%ADD27R,0.0200X0.0940*%
%ADD28R,0.0790X0.0980*%
%ADD29R,0.0551X0.0472*%
%ADD30C,0.0080*%
%ADD31C,0.0120*%
%ADD32C,0.0060*%
%ADD33C,0.0200*%
%ADD34C,0.0394*%
%ADD35R,0.0394X0.0394*%
%ADD36C,0.0394*%
%ADD37C,0.0591*%
%ADD38O,0.1181X0.0630*%
%ADD39C,0.0787*%
%ADD40C,0.0866*%
%ADD41C,0.1181*%
%ADD42C,0.1772*%
%ADD43C,0.0320*%
%ADD44C,0.0500*%
%ADD45C,0.0260*%
G36*
X22712Y-27165D02*
Y-27437D01*
X-40823D01*
Y1452D01*
X22712D01*
Y-27165D01*
D02*
G37*
%LPC*%
G36*
X-21379Y-23573D02*
X-21606D01*
Y-23781D01*
X-21379D01*
Y-23573D01*
D02*
G37*
G36*
X-21052D02*
X-21279D01*
Y-23781D01*
X-21052D01*
Y-23573D01*
D02*
G37*
G36*
X-19772D02*
X-19999D01*
Y-23781D01*
X-19772D01*
Y-23573D01*
D02*
G37*
G36*
X-13239Y-23624D02*
X-13292Y-23631D01*
X-13388Y-23671D01*
X-13471Y-23735D01*
X-13534Y-23817D01*
X-13574Y-23913D01*
X-13581Y-23967D01*
X-13239D01*
Y-23624D01*
D02*
G37*
G36*
X-13139Y-23624D02*
Y-23967D01*
X-12797D01*
X-12804Y-23913D01*
X-12844Y-23817D01*
X-12907Y-23735D01*
X-12990Y-23671D01*
X-13086Y-23631D01*
X-13139Y-23624D01*
D02*
G37*
G36*
X-20099Y-23573D02*
X-20326D01*
Y-23781D01*
X-20099D01*
Y-23573D01*
D02*
G37*
G36*
X-18944Y-23530D02*
X-19172D01*
Y-23737D01*
X-18944D01*
Y-23530D01*
D02*
G37*
G36*
X-14886Y-23648D02*
X-14917Y-23654D01*
X-14961Y-23648D01*
X-15056Y-23661D01*
X-15145Y-23698D01*
X-15221Y-23756D01*
X-15280Y-23832D01*
X-15316Y-23921D01*
X-15329Y-24017D01*
X-15316Y-24112D01*
X-15280Y-24201D01*
X-15221Y-24277D01*
X-15145Y-24336D01*
X-15056Y-24372D01*
X-14998Y-24380D01*
Y-26212D01*
X-15056Y-26220D01*
X-15145Y-26257D01*
X-15221Y-26315D01*
X-15280Y-26391D01*
X-15316Y-26480D01*
X-15329Y-26576D01*
X-15316Y-26671D01*
X-15280Y-26760D01*
X-15221Y-26836D01*
X-15145Y-26895D01*
X-15121Y-26905D01*
X-15131Y-26955D01*
X-25701D01*
X-25717Y-26907D01*
X-25702Y-26896D01*
X-25639Y-26814D01*
X-25599Y-26717D01*
X-25592Y-26664D01*
X-25984D01*
X-26376D01*
X-26369Y-26717D01*
X-26330Y-26814D01*
X-26266Y-26896D01*
X-26251Y-26907D01*
X-26267Y-26955D01*
X-27078D01*
X-27391Y-26641D01*
X-27387Y-26614D01*
X-27400Y-26519D01*
X-27437Y-26430D01*
X-27495Y-26354D01*
X-27572Y-26295D01*
X-27642Y-26266D01*
Y-24403D01*
X-27572Y-24374D01*
X-27495Y-24316D01*
X-27437Y-24239D01*
X-27400Y-24150D01*
X-27387Y-24055D01*
X-27400Y-23960D01*
X-27437Y-23871D01*
X-27495Y-23795D01*
X-27572Y-23736D01*
X-27661Y-23699D01*
X-27756Y-23687D01*
X-27851Y-23699D01*
X-27940Y-23736D01*
X-28016Y-23795D01*
X-28075Y-23871D01*
X-28112Y-23960D01*
X-28124Y-24055D01*
X-28112Y-24150D01*
X-28075Y-24239D01*
X-28016Y-24316D01*
X-27940Y-24374D01*
X-27866Y-24405D01*
Y-26264D01*
X-27940Y-26295D01*
X-28016Y-26354D01*
X-28075Y-26430D01*
X-28112Y-26519D01*
X-28124Y-26614D01*
X-28112Y-26710D01*
X-28075Y-26798D01*
X-28016Y-26875D01*
X-27940Y-26933D01*
X-27851Y-26970D01*
X-27756Y-26983D01*
X-27661Y-26970D01*
X-27572Y-26933D01*
X-27495Y-26875D01*
X-27476Y-26873D01*
X-27248Y-27102D01*
X-27269Y-27152D01*
X-28989D01*
X-29084Y-27057D01*
X-29060Y-27010D01*
X-29035Y-27013D01*
X-28932Y-26999D01*
X-28836Y-26959D01*
X-28754Y-26896D01*
X-28690Y-26814D01*
X-28650Y-26717D01*
X-28643Y-26664D01*
X-29035D01*
Y-26614D01*
X-29085D01*
Y-26222D01*
X-29139Y-26229D01*
X-29235Y-26269D01*
X-29317Y-26332D01*
X-29381Y-26415D01*
X-29421Y-26511D01*
X-29434Y-26614D01*
X-29431Y-26639D01*
X-29478Y-26662D01*
X-29783Y-26358D01*
X-29819Y-26333D01*
X-29862Y-26325D01*
X-29862Y-26325D01*
X-30584D01*
X-30623Y-26295D01*
X-30712Y-26258D01*
X-30807Y-26246D01*
X-30902Y-26258D01*
X-30991Y-26295D01*
X-31068Y-26354D01*
X-31126Y-26430D01*
X-31163Y-26519D01*
X-31176Y-26614D01*
X-31163Y-26710D01*
X-31126Y-26798D01*
X-31068Y-26875D01*
X-30991Y-26933D01*
X-30902Y-26970D01*
X-30807Y-26983D01*
X-30712Y-26970D01*
X-30623Y-26933D01*
X-30547Y-26875D01*
X-30488Y-26798D01*
X-30451Y-26710D01*
X-30439Y-26614D01*
X-30442Y-26587D01*
X-30409Y-26549D01*
X-29909D01*
X-29115Y-27343D01*
X-29115Y-27343D01*
X-29078Y-27367D01*
X-29035Y-27376D01*
X-12878D01*
X-12878Y-27376D01*
X-12836Y-27367D01*
X-12799Y-27343D01*
X-11986Y-26529D01*
X-11816D01*
X-11780Y-26583D01*
X-11704Y-26634D01*
X-11614Y-26652D01*
X-11524Y-26634D01*
X-11448Y-26583D01*
X-11398Y-26507D01*
X-11380Y-26417D01*
X-11398Y-26328D01*
X-11448Y-26251D01*
X-11524Y-26201D01*
X-11614Y-26183D01*
X-11704Y-26201D01*
X-11780Y-26251D01*
X-11816Y-26305D01*
X-11908D01*
X-11927Y-26259D01*
X-11717Y-26049D01*
X-11654Y-26061D01*
X-11564Y-26043D01*
X-11488Y-25993D01*
X-11437Y-25917D01*
X-11419Y-25827D01*
X-11437Y-25737D01*
X-11488Y-25661D01*
X-11564Y-25610D01*
X-11654Y-25592D01*
X-11743Y-25610D01*
X-11819Y-25661D01*
X-11870Y-25737D01*
X-11888Y-25827D01*
X-11875Y-25890D01*
X-12848Y-26862D01*
X-12885Y-26829D01*
X-12844Y-26775D01*
X-12804Y-26679D01*
X-12797Y-26626D01*
X-13189D01*
X-13581D01*
X-13574Y-26679D01*
X-13534Y-26775D01*
X-13471Y-26858D01*
X-13409Y-26905D01*
X-13426Y-26955D01*
X-14791D01*
X-14801Y-26905D01*
X-14776Y-26895D01*
X-14700Y-26836D01*
X-14642Y-26760D01*
X-14605Y-26671D01*
X-14592Y-26576D01*
X-14605Y-26480D01*
X-14642Y-26391D01*
X-14700Y-26315D01*
X-14774Y-26259D01*
Y-24334D01*
X-14700Y-24277D01*
X-14642Y-24201D01*
X-14605Y-24112D01*
X-14592Y-24017D01*
X-14605Y-23921D01*
X-14642Y-23832D01*
X-14700Y-23756D01*
X-14776Y-23698D01*
X-14802Y-23687D01*
X-14807Y-23681D01*
X-14843Y-23656D01*
X-14886Y-23648D01*
D02*
G37*
G36*
X-10306Y-22294D02*
X-10513D01*
Y-22521D01*
X-10306D01*
Y-22294D01*
D02*
G37*
G36*
X-9998D02*
X-10206D01*
Y-22521D01*
X-9998D01*
Y-22294D01*
D02*
G37*
G36*
X-18617Y-23530D02*
X-18844D01*
Y-23737D01*
X-18617D01*
Y-23530D01*
D02*
G37*
G36*
X-17737Y-23520D02*
X-17964D01*
Y-23728D01*
X-17737D01*
Y-23520D01*
D02*
G37*
G36*
X-17410D02*
X-17637D01*
Y-23728D01*
X-17410D01*
Y-23520D01*
D02*
G37*
G36*
X11270Y-23663D02*
Y-24005D01*
X11613D01*
X11606Y-23952D01*
X11566Y-23856D01*
X11502Y-23773D01*
X11420Y-23710D01*
X11324Y-23670D01*
X11270Y-23663D01*
D02*
G37*
G36*
X-17410Y-23828D02*
X-17637D01*
Y-24035D01*
X-17410D01*
Y-23828D01*
D02*
G37*
G36*
X-26034Y-23663D02*
X-26087Y-23670D01*
X-26184Y-23710D01*
X-26266Y-23773D01*
X-26330Y-23856D01*
X-26369Y-23952D01*
X-26376Y-24005D01*
X-26034D01*
Y-23663D01*
D02*
G37*
G36*
X-25934Y-23663D02*
Y-24005D01*
X-25592D01*
X-25599Y-23952D01*
X-25639Y-23856D01*
X-25702Y-23773D01*
X-25785Y-23710D01*
X-25881Y-23670D01*
X-25934Y-23663D01*
D02*
G37*
G36*
X-18944Y-23837D02*
X-19172D01*
Y-24045D01*
X-18944D01*
Y-23837D01*
D02*
G37*
G36*
X-18617D02*
X-18844D01*
Y-24045D01*
X-18617D01*
Y-23837D01*
D02*
G37*
G36*
X-17737Y-23828D02*
X-17964D01*
Y-24035D01*
X-17737D01*
Y-23828D01*
D02*
G37*
G36*
X14222Y-23663D02*
X14168Y-23670D01*
X14072Y-23710D01*
X13990Y-23773D01*
X13926Y-23856D01*
X13887Y-23952D01*
X13880Y-24005D01*
X14222D01*
Y-23663D01*
D02*
G37*
G36*
X-2707D02*
X-2761Y-23670D01*
X-2857Y-23710D01*
X-2939Y-23773D01*
X-3003Y-23856D01*
X-3043Y-23952D01*
X-3050Y-24005D01*
X-2707D01*
Y-23663D01*
D02*
G37*
G36*
X-2607Y-23663D02*
Y-24005D01*
X-2265D01*
X-2272Y-23952D01*
X-2312Y-23856D01*
X-2376Y-23773D01*
X-2458Y-23710D01*
X-2554Y-23670D01*
X-2607Y-23663D01*
D02*
G37*
G36*
X11170Y-23663D02*
X11117Y-23670D01*
X11021Y-23710D01*
X10939Y-23773D01*
X10875Y-23856D01*
X10835Y-23952D01*
X10828Y-24005D01*
X11170D01*
Y-23663D01*
D02*
G37*
G36*
X14322D02*
Y-24005D01*
X14664D01*
X14657Y-23952D01*
X14617Y-23856D01*
X14554Y-23773D01*
X14471Y-23710D01*
X14375Y-23670D01*
X14322Y-23663D01*
D02*
G37*
G36*
X-29085D02*
X-29139Y-23670D01*
X-29235Y-23710D01*
X-29317Y-23773D01*
X-29381Y-23856D01*
X-29421Y-23952D01*
X-29428Y-24005D01*
X-29085D01*
Y-23663D01*
D02*
G37*
G36*
X-28985D02*
Y-24005D01*
X-28643D01*
X-28650Y-23952D01*
X-28690Y-23856D01*
X-28754Y-23773D01*
X-28836Y-23710D01*
X-28932Y-23670D01*
X-28985Y-23663D01*
D02*
G37*
G36*
X-4562Y-17237D02*
X-5250D01*
X-5938D01*
X-5930Y-17295D01*
X-5888Y-17396D01*
X-5822Y-17483D01*
X-5735Y-17549D01*
X-5686Y-17570D01*
Y-17624D01*
X-5720Y-17638D01*
X-5800Y-17700D01*
X-5862Y-17780D01*
X-5901Y-17874D01*
X-5914Y-17974D01*
X-5901Y-18075D01*
X-5862Y-18169D01*
X-5800Y-18249D01*
X-5720Y-18311D01*
X-5646Y-18341D01*
Y-18395D01*
X-5720Y-18426D01*
X-5800Y-18487D01*
X-5862Y-18568D01*
X-5901Y-18661D01*
X-5914Y-18762D01*
X-5901Y-18862D01*
X-5862Y-18956D01*
X-5800Y-19036D01*
X-5720Y-19098D01*
X-5646Y-19128D01*
Y-19183D01*
X-5720Y-19213D01*
X-5800Y-19275D01*
X-5862Y-19355D01*
X-5901Y-19449D01*
X-5914Y-19549D01*
X-5901Y-19650D01*
X-5862Y-19743D01*
X-5800Y-19824D01*
X-5720Y-19885D01*
X-5646Y-19916D01*
Y-19970D01*
X-5720Y-20000D01*
X-5800Y-20062D01*
X-5862Y-20142D01*
X-5901Y-20236D01*
X-5914Y-20337D01*
X-5901Y-20437D01*
X-5862Y-20531D01*
X-5800Y-20611D01*
X-5720Y-20673D01*
X-5646Y-20703D01*
Y-20757D01*
X-5720Y-20788D01*
X-5800Y-20849D01*
X-5862Y-20930D01*
X-5901Y-21024D01*
X-5914Y-21124D01*
X-5901Y-21225D01*
X-5862Y-21318D01*
X-5800Y-21399D01*
X-5720Y-21460D01*
X-5646Y-21491D01*
Y-21545D01*
X-5720Y-21575D01*
X-5800Y-21637D01*
X-5862Y-21717D01*
X-5901Y-21811D01*
X-5914Y-21911D01*
X-5901Y-22012D01*
X-5862Y-22106D01*
X-5800Y-22186D01*
X-5720Y-22248D01*
X-5626Y-22286D01*
X-5526Y-22300D01*
X-4974D01*
X-4874Y-22286D01*
X-4780Y-22248D01*
X-4700Y-22186D01*
X-4638Y-22106D01*
X-4599Y-22012D01*
X-4586Y-21911D01*
X-4599Y-21811D01*
X-4638Y-21717D01*
X-4700Y-21637D01*
X-4780Y-21575D01*
X-4854Y-21545D01*
Y-21491D01*
X-4780Y-21460D01*
X-4700Y-21399D01*
X-4638Y-21318D01*
X-4599Y-21225D01*
X-4586Y-21124D01*
X-4599Y-21024D01*
X-4638Y-20930D01*
X-4700Y-20849D01*
X-4780Y-20788D01*
X-4854Y-20757D01*
Y-20703D01*
X-4780Y-20673D01*
X-4700Y-20611D01*
X-4638Y-20531D01*
X-4599Y-20437D01*
X-4586Y-20337D01*
X-4599Y-20236D01*
X-4638Y-20142D01*
X-4700Y-20062D01*
X-4780Y-20000D01*
X-4854Y-19970D01*
Y-19916D01*
X-4780Y-19885D01*
X-4700Y-19824D01*
X-4638Y-19743D01*
X-4599Y-19650D01*
X-4586Y-19549D01*
X-4599Y-19449D01*
X-4638Y-19355D01*
X-4700Y-19275D01*
X-4780Y-19213D01*
X-4854Y-19183D01*
Y-19128D01*
X-4780Y-19098D01*
X-4700Y-19036D01*
X-4638Y-18956D01*
X-4599Y-18862D01*
X-4586Y-18762D01*
X-4599Y-18661D01*
X-4638Y-18568D01*
X-4700Y-18487D01*
X-4780Y-18426D01*
X-4854Y-18395D01*
Y-18341D01*
X-4780Y-18311D01*
X-4700Y-18249D01*
X-4638Y-18169D01*
X-4599Y-18075D01*
X-4586Y-17974D01*
X-4599Y-17874D01*
X-4638Y-17780D01*
X-4700Y-17700D01*
X-4780Y-17638D01*
X-4814Y-17624D01*
Y-17570D01*
X-4765Y-17549D01*
X-4678Y-17483D01*
X-4612Y-17396D01*
X-4570Y-17295D01*
X-4562Y-17237D01*
D02*
G37*
G36*
X-19833Y-11093D02*
X-20149D01*
Y-11567D01*
X-19833D01*
Y-11093D01*
D02*
G37*
G36*
X-19418D02*
X-19733D01*
Y-11567D01*
X-19418D01*
Y-11093D01*
D02*
G37*
G36*
X-22135Y-10993D02*
X-22511D01*
Y-11191D01*
X-22564Y-11226D01*
X-22807Y-11469D01*
X-22853Y-11450D01*
Y-11180D01*
X-23080D01*
Y-11437D01*
X-23130D01*
Y-11487D01*
X-23407D01*
Y-11694D01*
X-23137D01*
X-23112Y-11744D01*
X-23124Y-11761D01*
X-23377D01*
Y-11831D01*
X-23430Y-11866D01*
X-23477Y-11913D01*
X-23680D01*
Y-11593D01*
X-24351D01*
Y-12580D01*
X-23680D01*
Y-12260D01*
X-23406D01*
X-23339Y-12247D01*
X-23293Y-12216D01*
X-23288D01*
X-23252Y-12268D01*
X-23106Y-12414D01*
Y-12598D01*
X-23093Y-12665D01*
X-23056Y-12721D01*
X-22999Y-12759D01*
X-22933Y-12772D01*
X-22539D01*
X-22473Y-12759D01*
X-22417Y-12721D01*
X-22379Y-12665D01*
X-22366Y-12598D01*
Y-12359D01*
X-22323Y-12294D01*
X-22305Y-12205D01*
X-22323Y-12115D01*
X-22374Y-12039D01*
X-22450Y-11988D01*
X-22539Y-11970D01*
X-22629Y-11988D01*
X-22705Y-12039D01*
X-22756Y-12115D01*
X-22771Y-12191D01*
X-22777Y-12195D01*
X-22812Y-12208D01*
X-22822Y-12209D01*
X-22883Y-12148D01*
Y-12035D01*
X-22539Y-11692D01*
X-22511Y-11704D01*
Y-11704D01*
X-22135D01*
Y-10993D01*
D02*
G37*
G36*
X-20392Y-11573D02*
X-20619D01*
Y-11781D01*
X-20392D01*
Y-11573D01*
D02*
G37*
G36*
X-21625Y-11398D02*
X-21793D01*
Y-11734D01*
X-21625D01*
Y-11398D01*
D02*
G37*
G36*
X-21357D02*
X-21525D01*
Y-11734D01*
X-21357D01*
Y-11398D01*
D02*
G37*
G36*
X-24066Y-10995D02*
X-24381D01*
Y-11468D01*
X-24066D01*
Y-10995D01*
D02*
G37*
G36*
X-21357Y-10963D02*
X-21525D01*
Y-11298D01*
X-21357D01*
Y-10963D01*
D02*
G37*
G36*
X-19833Y-10520D02*
X-20149D01*
Y-10993D01*
X-19833D01*
Y-10520D01*
D02*
G37*
G36*
X-19418D02*
X-19733D01*
Y-10993D01*
X-19418D01*
Y-10520D01*
D02*
G37*
G36*
X-23650Y-10995D02*
X-23966D01*
Y-11468D01*
X-23650D01*
Y-10995D01*
D02*
G37*
G36*
X-23180Y-11180D02*
X-23407D01*
Y-11387D01*
X-23180D01*
Y-11180D01*
D02*
G37*
G36*
X-21625Y-10963D02*
X-21793D01*
Y-11298D01*
X-21625D01*
Y-10963D01*
D02*
G37*
G36*
X-20719Y-11573D02*
X-20946D01*
Y-11781D01*
X-20719D01*
Y-11573D01*
D02*
G37*
G36*
X0Y-20299D02*
X-187Y-20318D01*
X-368Y-20373D01*
X-534Y-20461D01*
X-679Y-20581D01*
X-799Y-20726D01*
X-887Y-20892D01*
X-942Y-21072D01*
X-960Y-21260D01*
X-942Y-21447D01*
X-887Y-21627D01*
X-799Y-21793D01*
X-679Y-21939D01*
X-534Y-22058D01*
X-368Y-22147D01*
X-187Y-22202D01*
X0Y-22220D01*
X187Y-22202D01*
X368Y-22147D01*
X534Y-22058D01*
X679Y-21939D01*
X799Y-21793D01*
X887Y-21627D01*
X942Y-21447D01*
X960Y-21260D01*
X942Y-21072D01*
X887Y-20892D01*
X799Y-20726D01*
X679Y-20581D01*
X534Y-20461D01*
X368Y-20373D01*
X187Y-20318D01*
X0Y-20299D01*
D02*
G37*
G36*
X-10306Y-21967D02*
X-10513D01*
Y-22194D01*
X-10306D01*
Y-21967D01*
D02*
G37*
G36*
X-9998D02*
X-10206D01*
Y-22194D01*
X-9998D01*
Y-21967D01*
D02*
G37*
G36*
X-8416Y-21078D02*
X-8911D01*
Y-21533D01*
X-8795D01*
Y-22214D01*
X-8839Y-22229D01*
X-8845Y-22229D01*
X-9007D01*
Y-22555D01*
Y-22881D01*
X-8845D01*
X-8839Y-22882D01*
X-8795Y-22897D01*
Y-23145D01*
X-8871D01*
Y-23737D01*
X-8940Y-23805D01*
X-8964Y-23842D01*
X-8972Y-23884D01*
X-8970Y-23894D01*
Y-24044D01*
X-9056D01*
Y-23970D01*
X-9056Y-23970D01*
X-9065Y-23927D01*
X-9089Y-23891D01*
X-9089Y-23891D01*
X-9243Y-23737D01*
Y-23145D01*
X-9319D01*
Y-22897D01*
X-9275Y-22882D01*
X-9269Y-22881D01*
X-9107D01*
Y-22555D01*
Y-22229D01*
X-9269D01*
X-9275Y-22229D01*
X-9319Y-22214D01*
Y-21533D01*
X-9204D01*
Y-21078D01*
X-9698D01*
Y-21533D01*
X-9557D01*
X-9554Y-21546D01*
X-9543Y-21562D01*
Y-23145D01*
X-9619D01*
Y-23737D01*
X-9537D01*
X-9535Y-23750D01*
X-9510Y-23787D01*
X-9303Y-23994D01*
X-9324Y-24044D01*
X-9648D01*
Y-24104D01*
X-9694Y-24123D01*
X-10083Y-23735D01*
Y-23180D01*
X-10028D01*
Y-22686D01*
X-10483D01*
Y-23180D01*
X-10429D01*
Y-23807D01*
X-10416Y-23873D01*
X-10378Y-23929D01*
X-10340Y-23968D01*
X-10359Y-24014D01*
X-10558D01*
Y-24554D01*
X-10113D01*
Y-24260D01*
X-10067Y-24240D01*
X-9648Y-24659D01*
Y-25124D01*
X-8438D01*
Y-25154D01*
X-8288D01*
Y-24584D01*
Y-24014D01*
X-8438D01*
Y-24044D01*
X-8746D01*
Y-23929D01*
X-8604Y-23787D01*
X-8604Y-23787D01*
X-8579Y-23750D01*
X-8577Y-23737D01*
X-8495D01*
Y-23145D01*
X-8571D01*
Y-21562D01*
X-8560Y-21546D01*
X-8557Y-21533D01*
X-8416D01*
Y-21078D01*
D02*
G37*
G36*
X-39370Y-20299D02*
X-39557Y-20318D01*
X-39738Y-20373D01*
X-39904Y-20461D01*
X-40049Y-20581D01*
X-40169Y-20726D01*
X-40257Y-20892D01*
X-40312Y-21072D01*
X-40331Y-21260D01*
X-40312Y-21447D01*
X-40257Y-21627D01*
X-40169Y-21793D01*
X-40049Y-21939D01*
X-39904Y-22058D01*
X-39738Y-22147D01*
X-39557Y-22202D01*
X-39370Y-22220D01*
X-39183Y-22202D01*
X-39003Y-22147D01*
X-38836Y-22058D01*
X-38691Y-21939D01*
X-38571Y-21793D01*
X-38483Y-21627D01*
X-38428Y-21447D01*
X-38410Y-21260D01*
X-38428Y-21072D01*
X-38483Y-20892D01*
X-38571Y-20726D01*
X-38691Y-20581D01*
X-38836Y-20461D01*
X-39003Y-20373D01*
X-39183Y-20318D01*
X-39370Y-20299D01*
D02*
G37*
G36*
X-18110D02*
X-18298Y-20318D01*
X-18478Y-20373D01*
X-18644Y-20461D01*
X-18789Y-20581D01*
X-18909Y-20726D01*
X-18998Y-20892D01*
X-19052Y-21072D01*
X-19071Y-21260D01*
X-19052Y-21447D01*
X-18998Y-21627D01*
X-18909Y-21793D01*
X-18789Y-21939D01*
X-18644Y-22058D01*
X-18478Y-22147D01*
X-18298Y-22202D01*
X-18110Y-22220D01*
X-17923Y-22202D01*
X-17743Y-22147D01*
X-17577Y-22058D01*
X-17431Y-21939D01*
X-17312Y-21793D01*
X-17223Y-21627D01*
X-17168Y-21447D01*
X-17150Y-21260D01*
X-17168Y-21072D01*
X-17223Y-20892D01*
X-17312Y-20726D01*
X-17431Y-20581D01*
X-17577Y-20461D01*
X-17743Y-20373D01*
X-17923Y-20318D01*
X-18110Y-20299D01*
D02*
G37*
G36*
X-8847Y-19569D02*
X-8937Y-19586D01*
X-9013Y-19637D01*
X-9063Y-19713D01*
X-9068Y-19713D01*
X-9110D01*
X-9115Y-19713D01*
X-9165Y-19637D01*
X-9241Y-19586D01*
X-9331Y-19569D01*
X-9420Y-19586D01*
X-9497Y-19637D01*
X-9547Y-19713D01*
X-9565Y-19803D01*
X-9547Y-19893D01*
X-9497Y-19969D01*
X-9443Y-20005D01*
Y-20526D01*
X-9698D01*
Y-20981D01*
X-9204D01*
Y-20526D01*
X-9219D01*
Y-20005D01*
X-9165Y-19969D01*
X-9115Y-19894D01*
X-9110Y-19893D01*
X-9068D01*
X-9063Y-19894D01*
X-9013Y-19969D01*
X-8959Y-20005D01*
Y-20570D01*
X-8959Y-20570D01*
X-8951Y-20613D01*
X-8926Y-20650D01*
X-8911Y-20665D01*
Y-20981D01*
X-8416D01*
Y-20526D01*
X-8732D01*
X-8735Y-20524D01*
Y-20005D01*
X-8681Y-19969D01*
X-8630Y-19893D01*
X-8613Y-19803D01*
X-8630Y-19713D01*
X-8681Y-19637D01*
X-8757Y-19586D01*
X-8847Y-19569D01*
D02*
G37*
G36*
X-20719Y-11881D02*
X-20946D01*
Y-12088D01*
X-20719D01*
Y-11881D01*
D02*
G37*
G36*
X-20392D02*
X-20619D01*
Y-12088D01*
X-20392D01*
Y-11881D01*
D02*
G37*
G36*
X-15608Y-10635D02*
X-15738Y-10648D01*
X-15862Y-10686D01*
X-15977Y-10747D01*
X-16078Y-10830D01*
X-16160Y-10930D01*
X-16221Y-11045D01*
X-16259Y-11170D01*
X-16272Y-11299D01*
X-16259Y-11429D01*
X-16221Y-11553D01*
X-16160Y-11668D01*
X-16078Y-11769D01*
X-15977Y-11851D01*
X-15862Y-11912D01*
X-15738Y-11950D01*
X-15608Y-11963D01*
X-15479Y-11950D01*
X-15354Y-11912D01*
X-15240Y-11851D01*
X-15139Y-11769D01*
X-15056Y-11668D01*
X-14995Y-11553D01*
X-14957Y-11429D01*
X-14945Y-11299D01*
X-14957Y-11170D01*
X-14995Y-11045D01*
X-15056Y-10930D01*
X-15139Y-10830D01*
X-15240Y-10747D01*
X-15354Y-10686D01*
X-15479Y-10648D01*
X-15608Y-10635D01*
D02*
G37*
G36*
X-11811Y-10002D02*
X-11901Y-10020D01*
X-11977Y-10070D01*
X-12028Y-10146D01*
X-12046Y-10236D01*
X-12028Y-10326D01*
X-11977Y-10402D01*
X-11901Y-10453D01*
X-11815Y-10470D01*
Y-18032D01*
X-11807Y-18071D01*
X-11785Y-18104D01*
X-11660Y-18229D01*
X-12041Y-18609D01*
X-12088Y-18586D01*
X-12099Y-18500D01*
X-12138Y-18406D01*
X-12200Y-18326D01*
X-12280Y-18264D01*
X-12314Y-18250D01*
Y-18196D01*
X-12265Y-18175D01*
X-12178Y-18109D01*
X-12112Y-18022D01*
X-12070Y-17921D01*
X-12062Y-17863D01*
X-12750D01*
X-13438D01*
X-13430Y-17921D01*
X-13388Y-18022D01*
X-13322Y-18109D01*
X-13235Y-18175D01*
X-13186Y-18196D01*
Y-18250D01*
X-13220Y-18264D01*
X-13300Y-18326D01*
X-13362Y-18406D01*
X-13401Y-18500D01*
X-13414Y-18600D01*
X-13401Y-18701D01*
X-13362Y-18795D01*
X-13300Y-18875D01*
X-13220Y-18937D01*
X-13146Y-18967D01*
Y-19021D01*
X-13220Y-19052D01*
X-13300Y-19113D01*
X-13362Y-19194D01*
X-13396Y-19276D01*
X-13679D01*
X-13722Y-19284D01*
X-13758Y-19308D01*
X-13758Y-19308D01*
X-13760Y-19310D01*
X-13785Y-19347D01*
X-13793Y-19390D01*
X-13793Y-19390D01*
Y-21555D01*
X-13793Y-21555D01*
X-13785Y-21598D01*
X-13760Y-21634D01*
X-13566Y-21829D01*
X-13566Y-21829D01*
X-13529Y-21854D01*
X-13486Y-21862D01*
X-13486Y-21862D01*
X-13396D01*
X-13362Y-21944D01*
X-13300Y-22025D01*
X-13220Y-22086D01*
X-13126Y-22125D01*
X-13026Y-22138D01*
X-12474D01*
X-12374Y-22125D01*
X-12280Y-22086D01*
X-12200Y-22025D01*
X-12138Y-21944D01*
X-12099Y-21851D01*
X-12086Y-21750D01*
X-12099Y-21649D01*
X-12138Y-21556D01*
X-12200Y-21475D01*
X-12280Y-21414D01*
X-12354Y-21383D01*
Y-21329D01*
X-12280Y-21299D01*
X-12200Y-21237D01*
X-12138Y-21157D01*
X-12099Y-21063D01*
X-12086Y-20963D01*
X-12099Y-20862D01*
X-12138Y-20768D01*
X-12200Y-20688D01*
X-12280Y-20626D01*
X-12314Y-20612D01*
Y-20558D01*
X-12265Y-20538D01*
X-12178Y-20471D01*
X-12112Y-20384D01*
X-12070Y-20284D01*
X-12062Y-20225D01*
X-12750D01*
X-13438D01*
X-13430Y-20284D01*
X-13388Y-20384D01*
X-13322Y-20471D01*
X-13235Y-20538D01*
X-13186Y-20558D01*
Y-20612D01*
X-13220Y-20626D01*
X-13300Y-20688D01*
X-13362Y-20768D01*
X-13401Y-20862D01*
X-13414Y-20963D01*
X-13401Y-21063D01*
X-13362Y-21157D01*
X-13300Y-21237D01*
X-13220Y-21299D01*
X-13146Y-21329D01*
Y-21383D01*
X-13220Y-21414D01*
X-13300Y-21475D01*
X-13362Y-21556D01*
X-13393Y-21631D01*
X-13442Y-21636D01*
X-13569Y-21509D01*
Y-19500D01*
X-13396D01*
X-13362Y-19582D01*
X-13300Y-19662D01*
X-13220Y-19724D01*
X-13186Y-19738D01*
Y-19792D01*
X-13235Y-19813D01*
X-13322Y-19879D01*
X-13388Y-19966D01*
X-13430Y-20067D01*
X-13438Y-20125D01*
X-12750D01*
X-12062D01*
X-12070Y-20067D01*
X-12112Y-19966D01*
X-12178Y-19879D01*
X-12265Y-19813D01*
X-12314Y-19792D01*
Y-19738D01*
X-12280Y-19724D01*
X-12200Y-19662D01*
X-12138Y-19582D01*
X-12099Y-19488D01*
X-12086Y-19388D01*
X-12099Y-19287D01*
X-12138Y-19194D01*
X-12200Y-19113D01*
X-12202Y-19112D01*
X-12205Y-19062D01*
X-11444Y-18301D01*
X-11422Y-18268D01*
X-11414Y-18229D01*
X-11422Y-18190D01*
X-11444Y-18156D01*
X-11611Y-17989D01*
Y-10350D01*
X-11594Y-10326D01*
X-11577Y-10236D01*
X-11594Y-10146D01*
X-11645Y-10070D01*
X-11721Y-10020D01*
X-11811Y-10002D01*
D02*
G37*
G36*
X-12474Y-12700D02*
X-13026D01*
X-13126Y-12714D01*
X-13220Y-12752D01*
X-13300Y-12814D01*
X-13362Y-12894D01*
X-13401Y-12988D01*
X-13414Y-13089D01*
X-13401Y-13189D01*
X-13362Y-13283D01*
X-13300Y-13363D01*
X-13220Y-13425D01*
X-13146Y-13455D01*
Y-13509D01*
X-13220Y-13540D01*
X-13300Y-13601D01*
X-13362Y-13682D01*
X-13401Y-13775D01*
X-13414Y-13876D01*
X-13401Y-13976D01*
X-13362Y-14070D01*
X-13300Y-14151D01*
X-13220Y-14212D01*
X-13146Y-14243D01*
Y-14297D01*
X-13220Y-14327D01*
X-13300Y-14389D01*
X-13362Y-14469D01*
X-13401Y-14563D01*
X-13414Y-14663D01*
X-13401Y-14764D01*
X-13362Y-14858D01*
X-13300Y-14938D01*
X-13220Y-15000D01*
X-13146Y-15030D01*
Y-15084D01*
X-13220Y-15115D01*
X-13300Y-15176D01*
X-13362Y-15257D01*
X-13401Y-15350D01*
X-13414Y-15451D01*
X-13401Y-15551D01*
X-13362Y-15645D01*
X-13300Y-15725D01*
X-13220Y-15787D01*
X-13146Y-15817D01*
Y-15872D01*
X-13220Y-15902D01*
X-13300Y-15964D01*
X-13362Y-16044D01*
X-13401Y-16138D01*
X-13414Y-16238D01*
X-13401Y-16339D01*
X-13362Y-16432D01*
X-13300Y-16513D01*
X-13220Y-16574D01*
X-13146Y-16605D01*
Y-16659D01*
X-13220Y-16689D01*
X-13300Y-16751D01*
X-13362Y-16831D01*
X-13401Y-16925D01*
X-13414Y-17026D01*
X-13401Y-17126D01*
X-13362Y-17220D01*
X-13300Y-17300D01*
X-13220Y-17362D01*
X-13186Y-17376D01*
Y-17430D01*
X-13235Y-17451D01*
X-13322Y-17517D01*
X-13388Y-17604D01*
X-13430Y-17705D01*
X-13438Y-17763D01*
X-12750D01*
X-12062D01*
X-12070Y-17705D01*
X-12112Y-17604D01*
X-12178Y-17517D01*
X-12265Y-17451D01*
X-12314Y-17430D01*
Y-17376D01*
X-12280Y-17362D01*
X-12200Y-17300D01*
X-12138Y-17220D01*
X-12099Y-17126D01*
X-12086Y-17026D01*
X-12099Y-16925D01*
X-12138Y-16831D01*
X-12200Y-16751D01*
X-12280Y-16689D01*
X-12354Y-16659D01*
Y-16605D01*
X-12280Y-16574D01*
X-12200Y-16513D01*
X-12138Y-16432D01*
X-12099Y-16339D01*
X-12086Y-16238D01*
X-12099Y-16138D01*
X-12138Y-16044D01*
X-12200Y-15964D01*
X-12280Y-15902D01*
X-12354Y-15872D01*
Y-15817D01*
X-12280Y-15787D01*
X-12200Y-15725D01*
X-12138Y-15645D01*
X-12099Y-15551D01*
X-12086Y-15451D01*
X-12099Y-15350D01*
X-12138Y-15257D01*
X-12200Y-15176D01*
X-12280Y-15115D01*
X-12354Y-15084D01*
Y-15030D01*
X-12280Y-15000D01*
X-12200Y-14938D01*
X-12138Y-14858D01*
X-12099Y-14764D01*
X-12086Y-14663D01*
X-12099Y-14563D01*
X-12138Y-14469D01*
X-12200Y-14389D01*
X-12280Y-14327D01*
X-12354Y-14297D01*
Y-14243D01*
X-12280Y-14212D01*
X-12200Y-14151D01*
X-12138Y-14070D01*
X-12099Y-13976D01*
X-12086Y-13876D01*
X-12099Y-13775D01*
X-12138Y-13682D01*
X-12200Y-13601D01*
X-12280Y-13540D01*
X-12354Y-13509D01*
Y-13455D01*
X-12280Y-13425D01*
X-12200Y-13363D01*
X-12138Y-13283D01*
X-12099Y-13189D01*
X-12086Y-13089D01*
X-12099Y-12988D01*
X-12138Y-12894D01*
X-12200Y-12814D01*
X-12280Y-12752D01*
X-12374Y-12714D01*
X-12474Y-12700D01*
D02*
G37*
G36*
X-11273Y-11528D02*
X-11363Y-11546D01*
X-11439Y-11596D01*
X-11490Y-11672D01*
X-11508Y-11762D01*
X-11490Y-11852D01*
X-11439Y-11928D01*
X-11363Y-11979D01*
X-11273Y-11997D01*
X-11254Y-12012D01*
Y-12121D01*
X-11308Y-12157D01*
X-11358Y-12233D01*
X-11376Y-12323D01*
X-11358Y-12413D01*
X-11308Y-12489D01*
X-11231Y-12539D01*
X-11142Y-12557D01*
X-11052Y-12539D01*
X-10976Y-12489D01*
X-10925Y-12413D01*
X-10907Y-12323D01*
X-10925Y-12233D01*
X-10976Y-12157D01*
X-11030Y-12121D01*
Y-11894D01*
X-11030Y-11894D01*
X-11038Y-11851D01*
X-11052Y-11830D01*
X-11039Y-11762D01*
X-11056Y-11672D01*
X-11107Y-11596D01*
X-11183Y-11546D01*
X-11273Y-11528D01*
D02*
G37*
G36*
X-28985Y-26222D02*
Y-26564D01*
X-28643D01*
X-28650Y-26511D01*
X-28690Y-26415D01*
X-28754Y-26332D01*
X-28836Y-26269D01*
X-28932Y-26229D01*
X-28985Y-26222D01*
D02*
G37*
G36*
X-2707D02*
X-2761Y-26229D01*
X-2857Y-26269D01*
X-2939Y-26332D01*
X-3003Y-26415D01*
X-3043Y-26511D01*
X-3050Y-26564D01*
X-2707D01*
Y-26222D01*
D02*
G37*
G36*
X-2607Y-26222D02*
Y-26564D01*
X-2265D01*
X-2272Y-26511D01*
X-2312Y-26415D01*
X-2376Y-26332D01*
X-2458Y-26269D01*
X-2554Y-26229D01*
X-2607Y-26222D01*
D02*
G37*
G36*
X-25934Y-26222D02*
Y-26564D01*
X-25592D01*
X-25599Y-26511D01*
X-25639Y-26415D01*
X-25702Y-26332D01*
X-25785Y-26269D01*
X-25881Y-26229D01*
X-25934Y-26222D01*
D02*
G37*
G36*
X14222D02*
X14168Y-26229D01*
X14072Y-26269D01*
X13990Y-26332D01*
X13926Y-26415D01*
X13887Y-26511D01*
X13880Y-26564D01*
X14222D01*
Y-26222D01*
D02*
G37*
G36*
X14322D02*
Y-26564D01*
X14664D01*
X14657Y-26511D01*
X14617Y-26415D01*
X14554Y-26332D01*
X14471Y-26269D01*
X14375Y-26229D01*
X14322Y-26222D01*
D02*
G37*
G36*
X11170D02*
X11117Y-26229D01*
X11021Y-26269D01*
X10939Y-26332D01*
X10875Y-26415D01*
X10835Y-26511D01*
X10828Y-26564D01*
X11170D01*
Y-26222D01*
D02*
G37*
G36*
X-36300Y-25550D02*
X-36642D01*
X-36635Y-25603D01*
X-36595Y-25699D01*
X-36532Y-25782D01*
X-36449Y-25845D01*
X-36353Y-25885D01*
X-36300Y-25892D01*
Y-25550D01*
D02*
G37*
G36*
X-35858D02*
X-36200D01*
Y-25892D01*
X-36147Y-25885D01*
X-36051Y-25845D01*
X-35968Y-25782D01*
X-35905Y-25699D01*
X-35865Y-25603D01*
X-35858Y-25550D01*
D02*
G37*
G36*
X-17440Y-24101D02*
X-17934D01*
Y-24556D01*
X-17799D01*
Y-24987D01*
X-17804Y-24992D01*
X-17810Y-25001D01*
X-18090D01*
Y-25646D01*
X-18090Y-25647D01*
X-18090Y-25647D01*
X-18090Y-25668D01*
X-18138Y-25682D01*
X-18143Y-25679D01*
X-18181Y-25622D01*
X-18257Y-25571D01*
X-18346Y-25553D01*
X-18436Y-25571D01*
X-18512Y-25622D01*
X-18532Y-25650D01*
X-18582Y-25635D01*
Y-25011D01*
X-18782D01*
Y-24566D01*
X-18647D01*
Y-24111D01*
X-19142D01*
Y-24566D01*
X-19007D01*
Y-24982D01*
X-19026Y-25001D01*
X-19032Y-25011D01*
X-19312D01*
Y-25608D01*
X-19362Y-25634D01*
X-19398Y-25610D01*
X-19488Y-25592D01*
X-19578Y-25610D01*
X-19641Y-25653D01*
X-19691Y-25634D01*
Y-25054D01*
X-19937D01*
Y-24609D01*
X-19802D01*
Y-24154D01*
X-20296D01*
Y-24609D01*
X-20161D01*
Y-25054D01*
X-20422D01*
Y-25745D01*
X-19746D01*
X-19714Y-25784D01*
X-19723Y-25827D01*
X-19735Y-25841D01*
X-20395D01*
X-20419Y-25841D01*
X-20445Y-25816D01*
X-20455Y-25805D01*
X-20503Y-25733D01*
X-20580Y-25682D01*
X-20669Y-25664D01*
X-20759Y-25682D01*
X-20835Y-25733D01*
X-20837Y-25737D01*
X-20887Y-25721D01*
X-20887Y-25702D01*
Y-25054D01*
X-21141D01*
Y-24615D01*
X-21141Y-24615D01*
X-21136Y-24609D01*
X-21082D01*
Y-24154D01*
X-21576D01*
Y-24609D01*
X-21414D01*
X-21408Y-24619D01*
X-21365Y-24662D01*
Y-25054D01*
X-21618D01*
Y-25745D01*
X-20931D01*
X-20903Y-25745D01*
X-20873Y-25789D01*
X-20886Y-25809D01*
X-20892Y-25841D01*
X-21618D01*
Y-26533D01*
X-20887D01*
Y-26273D01*
X-20878Y-26266D01*
X-20733Y-26121D01*
X-20669Y-26133D01*
X-20580Y-26115D01*
X-20503Y-26065D01*
X-20472Y-26017D01*
X-20422Y-26033D01*
Y-26533D01*
X-19691D01*
Y-26273D01*
X-19682Y-26266D01*
X-19658Y-26230D01*
X-19649Y-26187D01*
Y-26146D01*
X-19551Y-26049D01*
X-19488Y-26061D01*
X-19398Y-26043D01*
X-19362Y-26019D01*
X-19312Y-26046D01*
Y-26489D01*
X-18582D01*
Y-26229D01*
X-18572Y-26223D01*
X-18548Y-26187D01*
X-18539Y-26144D01*
Y-26139D01*
X-18410Y-26009D01*
X-18346Y-26022D01*
X-18257Y-26004D01*
X-18181Y-25953D01*
X-18140Y-25892D01*
X-18090Y-25907D01*
Y-26479D01*
X-17810D01*
X-17804Y-26489D01*
X-17767Y-26513D01*
X-17724Y-26522D01*
X-17681Y-26513D01*
X-17645Y-26489D01*
X-17636Y-26479D01*
X-17359D01*
Y-26203D01*
X-17166Y-26009D01*
X-17102Y-26022D01*
X-17013Y-26004D01*
X-16937Y-25953D01*
X-16886Y-25877D01*
X-16868Y-25787D01*
X-16886Y-25698D01*
X-16937Y-25622D01*
X-17013Y-25571D01*
X-17102Y-25553D01*
X-17192Y-25571D01*
X-17268Y-25622D01*
X-17306Y-25679D01*
X-17311Y-25682D01*
X-17359Y-25668D01*
X-17359Y-25647D01*
X-17359Y-25647D01*
X-17359Y-25646D01*
Y-25001D01*
X-17575D01*
Y-24556D01*
X-17440D01*
Y-24101D01*
D02*
G37*
G36*
X11270Y-26222D02*
Y-26564D01*
X11613D01*
X11606Y-26511D01*
X11566Y-26415D01*
X11502Y-26332D01*
X11420Y-26269D01*
X11324Y-26229D01*
X11270Y-26222D01*
D02*
G37*
G36*
X-13239Y-26184D02*
X-13292Y-26191D01*
X-13388Y-26230D01*
X-13471Y-26294D01*
X-13534Y-26376D01*
X-13574Y-26472D01*
X-13581Y-26526D01*
X-13239D01*
Y-26184D01*
D02*
G37*
G36*
X-13139Y-26184D02*
Y-26526D01*
X-12797D01*
X-12804Y-26472D01*
X-12844Y-26376D01*
X-12907Y-26294D01*
X-12990Y-26230D01*
X-13086Y-26191D01*
X-13139Y-26184D01*
D02*
G37*
G36*
X-26034Y-26222D02*
X-26087Y-26229D01*
X-26184Y-26269D01*
X-26266Y-26332D01*
X-26330Y-26415D01*
X-26369Y-26511D01*
X-26376Y-26564D01*
X-26034D01*
Y-26222D01*
D02*
G37*
G36*
X-6613Y-26824D02*
X-7058D01*
Y-27364D01*
X-6613D01*
Y-26824D01*
D02*
G37*
G36*
X11613Y-26664D02*
X11270D01*
Y-27006D01*
X11324Y-26999D01*
X11420Y-26959D01*
X11502Y-26896D01*
X11566Y-26814D01*
X11606Y-26717D01*
X11613Y-26664D01*
D02*
G37*
G36*
X-2265Y-26664D02*
X-2607D01*
Y-27006D01*
X-2554Y-26999D01*
X-2458Y-26959D01*
X-2376Y-26896D01*
X-2312Y-26814D01*
X-2272Y-26717D01*
X-2265Y-26664D01*
D02*
G37*
G36*
X-10658Y-26824D02*
X-11103D01*
Y-27364D01*
X-10658D01*
Y-26824D01*
D02*
G37*
G36*
X-10113D02*
X-10558D01*
Y-27364D01*
X-10113D01*
Y-26824D01*
D02*
G37*
G36*
X-7158D02*
X-7603D01*
Y-27364D01*
X-7158D01*
Y-26824D01*
D02*
G37*
G36*
X14222Y-26664D02*
X13880D01*
X13887Y-26717D01*
X13926Y-26814D01*
X13990Y-26896D01*
X14072Y-26959D01*
X14168Y-26999D01*
X14222Y-27006D01*
Y-26664D01*
D02*
G37*
G36*
X-4429Y-26246D02*
X-4524Y-26258D01*
X-4613Y-26295D01*
X-4690Y-26354D01*
X-4748Y-26430D01*
X-4785Y-26519D01*
X-4798Y-26614D01*
X-4785Y-26710D01*
X-4748Y-26798D01*
X-4690Y-26875D01*
X-4613Y-26933D01*
X-4524Y-26970D01*
X-4429Y-26983D01*
X-4334Y-26970D01*
X-4245Y-26933D01*
X-4169Y-26875D01*
X-4110Y-26798D01*
X-4073Y-26710D01*
X-4061Y-26614D01*
X-4073Y-26519D01*
X-4110Y-26430D01*
X-4169Y-26354D01*
X-4245Y-26295D01*
X-4334Y-26258D01*
X-4429Y-26246D01*
D02*
G37*
G36*
X9449Y-23687D02*
X9353Y-23699D01*
X9265Y-23736D01*
X9188Y-23795D01*
X9130Y-23871D01*
X9093Y-23960D01*
X9080Y-24055D01*
X9093Y-24150D01*
X9130Y-24239D01*
X9188Y-24316D01*
X9265Y-24374D01*
X9333Y-24402D01*
Y-26267D01*
X9265Y-26295D01*
X9188Y-26354D01*
X9130Y-26430D01*
X9093Y-26519D01*
X9080Y-26614D01*
X9093Y-26710D01*
X9130Y-26798D01*
X9188Y-26875D01*
X9265Y-26933D01*
X9353Y-26970D01*
X9449Y-26983D01*
X9544Y-26970D01*
X9633Y-26933D01*
X9709Y-26875D01*
X9768Y-26798D01*
X9805Y-26710D01*
X9817Y-26614D01*
X9805Y-26519D01*
X9768Y-26430D01*
X9709Y-26354D01*
X9633Y-26295D01*
X9557Y-26264D01*
Y-24406D01*
X9633Y-24374D01*
X9709Y-24316D01*
X9768Y-24239D01*
X9805Y-24150D01*
X9817Y-24055D01*
X9805Y-23960D01*
X9768Y-23871D01*
X9709Y-23795D01*
X9633Y-23736D01*
X9544Y-23699D01*
X9449Y-23687D01*
D02*
G37*
G36*
X12500Y-26246D02*
X12405Y-26258D01*
X12316Y-26295D01*
X12239Y-26354D01*
X12181Y-26430D01*
X12144Y-26519D01*
X12132Y-26614D01*
X12144Y-26710D01*
X12181Y-26798D01*
X12239Y-26875D01*
X12316Y-26933D01*
X12405Y-26970D01*
X12500Y-26983D01*
X12595Y-26970D01*
X12684Y-26933D01*
X12761Y-26875D01*
X12819Y-26798D01*
X12856Y-26710D01*
X12868Y-26614D01*
X12856Y-26519D01*
X12819Y-26430D01*
X12761Y-26354D01*
X12684Y-26295D01*
X12595Y-26258D01*
X12500Y-26246D01*
D02*
G37*
G36*
X14664Y-26664D02*
X14322D01*
Y-27006D01*
X14375Y-26999D01*
X14471Y-26959D01*
X14554Y-26896D01*
X14617Y-26814D01*
X14657Y-26717D01*
X14664Y-26664D01*
D02*
G37*
G36*
X-2707Y-26664D02*
X-3050D01*
X-3043Y-26717D01*
X-3003Y-26814D01*
X-2939Y-26896D01*
X-2857Y-26959D01*
X-2761Y-26999D01*
X-2707Y-27006D01*
Y-26664D01*
D02*
G37*
G36*
X11170Y-26664D02*
X10828D01*
X10835Y-26717D01*
X10875Y-26814D01*
X10939Y-26896D01*
X11021Y-26959D01*
X11117Y-26999D01*
X11170Y-27006D01*
Y-26664D01*
D02*
G37*
G36*
X-36300Y-25108D02*
X-36353Y-25115D01*
X-36449Y-25155D01*
X-36532Y-25218D01*
X-36595Y-25301D01*
X-36635Y-25397D01*
X-36642Y-25450D01*
X-36300D01*
Y-25108D01*
D02*
G37*
G36*
X11170Y-24105D02*
X10828D01*
X10835Y-24158D01*
X10875Y-24254D01*
X10939Y-24337D01*
X11021Y-24400D01*
X11117Y-24440D01*
X11170Y-24447D01*
Y-24105D01*
D02*
G37*
G36*
X-30807Y-23687D02*
X-30902Y-23699D01*
X-30991Y-23736D01*
X-31068Y-23795D01*
X-31126Y-23871D01*
X-31163Y-23960D01*
X-31176Y-24055D01*
X-31163Y-24150D01*
X-31126Y-24239D01*
X-31068Y-24316D01*
X-30991Y-24374D01*
X-30902Y-24411D01*
X-30807Y-24424D01*
X-30712Y-24411D01*
X-30623Y-24374D01*
X-30547Y-24316D01*
X-30488Y-24239D01*
X-30451Y-24150D01*
X-30439Y-24055D01*
X-30451Y-23960D01*
X-30488Y-23871D01*
X-30547Y-23795D01*
X-30623Y-23736D01*
X-30712Y-23699D01*
X-30807Y-23687D01*
D02*
G37*
G36*
X-4429D02*
X-4524Y-23699D01*
X-4613Y-23736D01*
X-4690Y-23795D01*
X-4748Y-23871D01*
X-4785Y-23960D01*
X-4798Y-24055D01*
X-4785Y-24150D01*
X-4748Y-24239D01*
X-4690Y-24316D01*
X-4613Y-24374D01*
X-4524Y-24411D01*
X-4429Y-24424D01*
X-4334Y-24411D01*
X-4245Y-24374D01*
X-4169Y-24316D01*
X-4110Y-24239D01*
X-4073Y-24150D01*
X-4061Y-24055D01*
X-4073Y-23960D01*
X-4110Y-23871D01*
X-4169Y-23795D01*
X-4245Y-23736D01*
X-4334Y-23699D01*
X-4429Y-23687D01*
D02*
G37*
G36*
X-29085Y-24105D02*
X-29428D01*
X-29421Y-24158D01*
X-29381Y-24254D01*
X-29317Y-24337D01*
X-29235Y-24400D01*
X-29139Y-24440D01*
X-29085Y-24447D01*
Y-24105D01*
D02*
G37*
G36*
X-2707Y-24105D02*
X-3050D01*
X-3043Y-24158D01*
X-3003Y-24254D01*
X-2939Y-24337D01*
X-2857Y-24400D01*
X-2761Y-24440D01*
X-2707Y-24447D01*
Y-24105D01*
D02*
G37*
G36*
X-25592Y-24105D02*
X-25934D01*
Y-24447D01*
X-25881Y-24440D01*
X-25785Y-24400D01*
X-25702Y-24337D01*
X-25639Y-24254D01*
X-25599Y-24158D01*
X-25592Y-24105D01*
D02*
G37*
G36*
X12500Y-23687D02*
X12405Y-23699D01*
X12316Y-23736D01*
X12239Y-23795D01*
X12181Y-23871D01*
X12144Y-23960D01*
X12132Y-24055D01*
X12144Y-24150D01*
X12181Y-24239D01*
X12239Y-24316D01*
X12316Y-24374D01*
X12405Y-24411D01*
X12500Y-24424D01*
X12595Y-24411D01*
X12684Y-24374D01*
X12761Y-24316D01*
X12819Y-24239D01*
X12856Y-24150D01*
X12868Y-24055D01*
X12856Y-23960D01*
X12819Y-23871D01*
X12761Y-23795D01*
X12684Y-23736D01*
X12595Y-23699D01*
X12500Y-23687D01*
D02*
G37*
G36*
X-21052Y-23881D02*
X-21279D01*
Y-24088D01*
X-21052D01*
Y-23881D01*
D02*
G37*
G36*
X-20099D02*
X-20326D01*
Y-24088D01*
X-20099D01*
Y-23881D01*
D02*
G37*
G36*
X-19772D02*
X-19999D01*
Y-24088D01*
X-19772D01*
Y-23881D01*
D02*
G37*
G36*
X-12797Y-24067D02*
X-13139D01*
Y-24409D01*
X-13086Y-24402D01*
X-12990Y-24362D01*
X-12907Y-24299D01*
X-12844Y-24216D01*
X-12804Y-24120D01*
X-12797Y-24067D01*
D02*
G37*
G36*
X-13239D02*
X-13581D01*
X-13574Y-24120D01*
X-13534Y-24216D01*
X-13471Y-24299D01*
X-13388Y-24362D01*
X-13292Y-24402D01*
X-13239Y-24409D01*
Y-24067D01*
D02*
G37*
G36*
X-21379Y-23881D02*
X-21606D01*
Y-24088D01*
X-21379D01*
Y-23881D01*
D02*
G37*
G36*
X14664Y-24105D02*
X14322D01*
Y-24447D01*
X14375Y-24440D01*
X14471Y-24400D01*
X14554Y-24337D01*
X14617Y-24254D01*
X14657Y-24158D01*
X14664Y-24105D01*
D02*
G37*
G36*
X-6613Y-24654D02*
X-7058D01*
Y-25194D01*
X-6613D01*
Y-24654D01*
D02*
G37*
G36*
X-8038Y-24634D02*
X-8188D01*
Y-25154D01*
X-8038D01*
Y-24634D01*
D02*
G37*
G36*
X-7158Y-24014D02*
X-7603D01*
Y-24554D01*
X-7158D01*
Y-24014D01*
D02*
G37*
G36*
X-36200Y-25108D02*
Y-25450D01*
X-35858D01*
X-35865Y-25397D01*
X-35905Y-25301D01*
X-35968Y-25218D01*
X-36051Y-25155D01*
X-36147Y-25115D01*
X-36200Y-25108D01*
D02*
G37*
G36*
X-10113Y-24654D02*
X-10558D01*
Y-25194D01*
X-10113D01*
Y-24654D01*
D02*
G37*
G36*
X-7158D02*
X-7603D01*
Y-25194D01*
X-7158D01*
Y-24654D01*
D02*
G37*
G36*
X-6613Y-24014D02*
X-7058D01*
Y-24554D01*
X-6613D01*
Y-24014D01*
D02*
G37*
G36*
X-2265Y-24105D02*
X-2607D01*
Y-24447D01*
X-2554Y-24440D01*
X-2458Y-24400D01*
X-2376Y-24337D01*
X-2312Y-24254D01*
X-2272Y-24158D01*
X-2265Y-24105D01*
D02*
G37*
G36*
X-28643Y-24105D02*
X-28985D01*
Y-24447D01*
X-28932Y-24440D01*
X-28836Y-24400D01*
X-28754Y-24337D01*
X-28690Y-24254D01*
X-28650Y-24158D01*
X-28643Y-24105D01*
D02*
G37*
G36*
X14222Y-24105D02*
X13880D01*
X13887Y-24158D01*
X13926Y-24254D01*
X13990Y-24337D01*
X14072Y-24400D01*
X14168Y-24440D01*
X14222Y-24447D01*
Y-24105D01*
D02*
G37*
G36*
X-8038Y-24014D02*
X-8188D01*
Y-24534D01*
X-8038D01*
Y-24014D01*
D02*
G37*
G36*
X11613Y-24105D02*
X11270D01*
Y-24447D01*
X11324Y-24440D01*
X11420Y-24400D01*
X11502Y-24337D01*
X11566Y-24254D01*
X11606Y-24158D01*
X11613Y-24105D01*
D02*
G37*
G36*
X-26034Y-24105D02*
X-26376D01*
X-26369Y-24158D01*
X-26330Y-24254D01*
X-26266Y-24337D01*
X-26184Y-24400D01*
X-26087Y-24440D01*
X-26034Y-24447D01*
Y-24105D01*
D02*
G37*
G36*
X-6716Y-6172D02*
X-6943D01*
Y-6379D01*
X-6716D01*
Y-6172D01*
D02*
G37*
G36*
X-6388D02*
X-6616D01*
Y-6379D01*
X-6388D01*
Y-6172D01*
D02*
G37*
G36*
X-7524Y-6167D02*
X-7751D01*
Y-6374D01*
X-7524D01*
Y-6167D01*
D02*
G37*
G36*
X-7197Y-6474D02*
X-7424D01*
Y-6681D01*
X-7197D01*
Y-6474D01*
D02*
G37*
G36*
X-9794Y-6231D02*
X-10021D01*
Y-6439D01*
X-9794D01*
Y-6231D01*
D02*
G37*
G36*
X-9467D02*
X-9694D01*
Y-6439D01*
X-9467D01*
Y-6231D01*
D02*
G37*
G36*
X-7197Y-6167D02*
X-7424D01*
Y-6374D01*
X-7197D01*
Y-6167D01*
D02*
G37*
G36*
X-10582Y-6074D02*
X-10809D01*
Y-6281D01*
X-10582D01*
Y-6074D01*
D02*
G37*
G36*
X-10254D02*
X-10481D01*
Y-6281D01*
X-10254D01*
Y-6074D01*
D02*
G37*
G36*
X6938Y-6034D02*
X6711D01*
Y-6242D01*
X6938D01*
Y-6034D01*
D02*
G37*
G36*
X6616Y-5995D02*
X6290D01*
Y-6281D01*
X6616D01*
Y-5995D01*
D02*
G37*
G36*
X-11270Y-6074D02*
X-11498D01*
Y-6281D01*
X-11270D01*
Y-6074D01*
D02*
G37*
G36*
X-10943D02*
X-11170D01*
Y-6281D01*
X-10943D01*
Y-6074D01*
D02*
G37*
G36*
X-7524Y-6474D02*
X-7751D01*
Y-6681D01*
X-7524D01*
Y-6474D01*
D02*
G37*
G36*
X-4973Y-6946D02*
X-5180D01*
Y-7174D01*
X-4973D01*
Y-6946D01*
D02*
G37*
G36*
X1623Y-6750D02*
X1396D01*
Y-6958D01*
X1623D01*
Y-6750D01*
D02*
G37*
G36*
X1950D02*
X1723D01*
Y-6958D01*
X1950D01*
Y-6750D01*
D02*
G37*
G36*
X1623Y-7058D02*
X1396D01*
Y-7265D01*
X1623D01*
Y-7058D01*
D02*
G37*
G36*
X1950D02*
X1723D01*
Y-7265D01*
X1950D01*
Y-7058D01*
D02*
G37*
G36*
X-5280Y-6946D02*
X-5488D01*
Y-7174D01*
X-5280D01*
Y-6946D01*
D02*
G37*
G36*
X3985Y-6672D02*
X3660D01*
Y-6938D01*
X3985D01*
Y-6672D01*
D02*
G37*
G36*
X-20324Y-6662D02*
X-20779D01*
Y-6797D01*
X-23346D01*
X-23346Y-6797D01*
X-23389Y-6806D01*
X-23426Y-6830D01*
X-23426Y-6830D01*
X-25079Y-8484D01*
X-25104Y-8520D01*
X-25112Y-8563D01*
X-25112Y-8563D01*
Y-11204D01*
X-39083Y-25174D01*
X-39155Y-25144D01*
X-39250Y-25132D01*
X-39345Y-25144D01*
X-39434Y-25181D01*
X-39511Y-25239D01*
X-39569Y-25316D01*
X-39606Y-25405D01*
X-39618Y-25500D01*
X-39606Y-25595D01*
X-39569Y-25684D01*
X-39511Y-25761D01*
X-39434Y-25819D01*
X-39345Y-25856D01*
X-39250Y-25868D01*
X-39155Y-25856D01*
X-39066Y-25819D01*
X-38989Y-25761D01*
X-38931Y-25684D01*
X-38894Y-25595D01*
X-38882Y-25500D01*
X-38894Y-25405D01*
X-38924Y-25333D01*
X-24921Y-11329D01*
X-24921Y-11329D01*
X-24896Y-11293D01*
X-24888Y-11250D01*
Y-8609D01*
X-23300Y-7022D01*
X-20779D01*
Y-7157D01*
X-20324D01*
Y-6662D01*
D02*
G37*
G36*
X-6716Y-6479D02*
X-6943D01*
Y-6687D01*
X-6716D01*
Y-6479D01*
D02*
G37*
G36*
X-6388D02*
X-6616D01*
Y-6687D01*
X-6388D01*
Y-6479D01*
D02*
G37*
G36*
X4411Y-6672D02*
X4085D01*
Y-6938D01*
X4411D01*
Y-6672D01*
D02*
G37*
G36*
X-5280Y-6619D02*
X-5488D01*
Y-6846D01*
X-5280D01*
Y-6619D01*
D02*
G37*
G36*
X-4973D02*
X-5180D01*
Y-6846D01*
X-4973D01*
Y-6619D01*
D02*
G37*
G36*
X7265Y-6034D02*
X7038D01*
Y-6242D01*
X7265D01*
Y-6034D01*
D02*
G37*
G36*
X-8390Y-5153D02*
X-8637D01*
Y-5272D01*
X-8390D01*
Y-5153D01*
D02*
G37*
G36*
X-8044D02*
X-8290D01*
Y-5272D01*
X-8044D01*
Y-5153D01*
D02*
G37*
G36*
X5324Y-4939D02*
X4998D01*
Y-5226D01*
X5324D01*
Y-4939D01*
D02*
G37*
G36*
X-8808Y-3690D02*
X-9302D01*
Y-3915D01*
X-9315Y-3946D01*
X-9324Y-4016D01*
Y-5197D01*
X-9324Y-5197D01*
X-9316Y-5260D01*
Y-5465D01*
X-9416D01*
X-9416Y-5465D01*
X-9447Y-5472D01*
X-9484Y-5451D01*
X-9497Y-5439D01*
Y-5402D01*
X-9991D01*
Y-5857D01*
X-9497D01*
Y-5779D01*
X-9469Y-5742D01*
X-9426Y-5734D01*
X-9389Y-5709D01*
X-9370Y-5690D01*
X-9316D01*
Y-5972D01*
X-9143D01*
X-9134Y-5985D01*
X-9043Y-6076D01*
Y-6354D01*
X-9158D01*
Y-6848D01*
X-8866D01*
Y-7096D01*
X-8889Y-7114D01*
X-8916Y-7127D01*
X-8951Y-7120D01*
X-8993Y-7128D01*
X-9015Y-7143D01*
X-9049Y-7149D01*
X-9083Y-7143D01*
X-9105Y-7128D01*
X-9147Y-7120D01*
X-9190Y-7128D01*
X-9226Y-7152D01*
X-9250Y-7188D01*
X-9259Y-7231D01*
Y-7236D01*
X-9801D01*
X-10005Y-7032D01*
Y-6969D01*
X-10015Y-6918D01*
X-10044Y-6875D01*
X-10284Y-6635D01*
Y-6347D01*
X-10779D01*
Y-6469D01*
X-10973D01*
Y-6347D01*
X-11468D01*
Y-6802D01*
X-11249D01*
Y-8371D01*
X-11288Y-8397D01*
X-11339Y-8473D01*
X-11357Y-8563D01*
X-11339Y-8653D01*
X-11288Y-8729D01*
X-11212Y-8780D01*
X-11122Y-8798D01*
X-11032Y-8780D01*
X-10956Y-8729D01*
X-10934Y-8696D01*
X-10877D01*
Y-8810D01*
X-10383D01*
Y-8523D01*
X-10168Y-8309D01*
X-10046D01*
X-9995Y-8298D01*
X-9980Y-8288D01*
X-9865D01*
X-9843Y-8323D01*
X-9561D01*
Y-8423D01*
X-9831D01*
X-9830Y-8427D01*
X-9799Y-8473D01*
X-9802Y-8527D01*
X-9810Y-8570D01*
X-9802Y-8612D01*
X-9778Y-8649D01*
X-9741Y-8673D01*
X-9699Y-8681D01*
X-9690D01*
Y-10731D01*
X-9690Y-10731D01*
X-9682Y-10774D01*
X-9658Y-10811D01*
X-9160Y-11309D01*
X-9160Y-11309D01*
X-9123Y-11333D01*
X-9080Y-11341D01*
X-9080Y-11341D01*
X-6004D01*
X-6004Y-11341D01*
X-5961Y-11333D01*
X-5925Y-11309D01*
X-5487Y-10871D01*
X-5439Y-10885D01*
X-5433Y-10916D01*
X-5382Y-10993D01*
X-5306Y-11043D01*
X-5217Y-11061D01*
X-5127Y-11043D01*
X-5051Y-10993D01*
X-5015Y-10939D01*
X-5008D01*
X-5008Y-10939D01*
X-4965Y-10930D01*
X-4947Y-10918D01*
X-4915Y-10957D01*
X-5263Y-11305D01*
X-5500D01*
X-5500Y-11305D01*
X-5543Y-11314D01*
X-5579Y-11338D01*
X-5579Y-11338D01*
X-5985Y-11744D01*
X-6009Y-11780D01*
X-6018Y-11823D01*
X-6018Y-11823D01*
Y-13241D01*
X-6030Y-13253D01*
X-6054Y-13290D01*
X-6063Y-13332D01*
X-6063Y-13332D01*
Y-15605D01*
X-6063Y-15605D01*
X-6054Y-15647D01*
X-6030Y-15684D01*
X-6022Y-15692D01*
X-5986Y-15716D01*
X-5943Y-15724D01*
X-5943Y-15724D01*
X-5896D01*
X-5862Y-15806D01*
X-5800Y-15887D01*
X-5720Y-15948D01*
X-5646Y-15979D01*
Y-16033D01*
X-5720Y-16063D01*
X-5800Y-16125D01*
X-5862Y-16205D01*
X-5901Y-16299D01*
X-5914Y-16400D01*
X-5901Y-16500D01*
X-5862Y-16594D01*
X-5800Y-16674D01*
X-5720Y-16736D01*
X-5686Y-16750D01*
Y-16804D01*
X-5735Y-16825D01*
X-5822Y-16891D01*
X-5888Y-16978D01*
X-5930Y-17079D01*
X-5938Y-17137D01*
X-5250D01*
X-4562D01*
X-4570Y-17079D01*
X-4612Y-16978D01*
X-4678Y-16891D01*
X-4765Y-16825D01*
X-4814Y-16804D01*
Y-16750D01*
X-4780Y-16736D01*
X-4700Y-16674D01*
X-4638Y-16594D01*
X-4599Y-16500D01*
X-4586Y-16400D01*
X-4599Y-16299D01*
X-4638Y-16205D01*
X-4700Y-16125D01*
X-4780Y-16063D01*
X-4854Y-16033D01*
Y-15979D01*
X-4780Y-15948D01*
X-4700Y-15887D01*
X-4638Y-15806D01*
X-4599Y-15713D01*
X-4586Y-15612D01*
X-4599Y-15512D01*
X-4638Y-15418D01*
X-4700Y-15338D01*
X-4780Y-15276D01*
X-4814Y-15262D01*
Y-15208D01*
X-4765Y-15187D01*
X-4678Y-15121D01*
X-4612Y-15034D01*
X-4570Y-14933D01*
X-4562Y-14875D01*
X-5250D01*
Y-14775D01*
X-4562D01*
X-4570Y-14716D01*
X-4612Y-14616D01*
X-4678Y-14529D01*
X-4765Y-14462D01*
X-4814Y-14442D01*
Y-14388D01*
X-4780Y-14374D01*
X-4700Y-14312D01*
X-4638Y-14232D01*
X-4599Y-14138D01*
X-4586Y-14037D01*
X-4599Y-13937D01*
X-4638Y-13843D01*
X-4700Y-13763D01*
X-4780Y-13701D01*
X-4854Y-13671D01*
Y-13617D01*
X-4780Y-13586D01*
X-4700Y-13525D01*
X-4638Y-13444D01*
X-4599Y-13350D01*
X-4586Y-13250D01*
X-4599Y-13149D01*
X-4638Y-13056D01*
X-4700Y-12975D01*
X-4780Y-12914D01*
X-4874Y-12875D01*
X-4974Y-12862D01*
X-5526D01*
X-5626Y-12875D01*
X-5720Y-12914D01*
X-5749Y-12936D01*
X-5793Y-12914D01*
Y-11869D01*
X-5453Y-11529D01*
X-5217D01*
X-5217Y-11529D01*
X-5174Y-11521D01*
X-5137Y-11497D01*
X-4591Y-10950D01*
X-4528Y-10963D01*
X-4438Y-10945D01*
X-4362Y-10894D01*
X-4311Y-10818D01*
X-4293Y-10728D01*
X-4311Y-10639D01*
X-4338Y-10599D01*
X-4336Y-10538D01*
X-3852Y-10053D01*
X-2802D01*
X-1743Y-11112D01*
Y-13080D01*
X-1743Y-13080D01*
X-1735Y-13123D01*
X-1710Y-13159D01*
X522Y-15392D01*
X522Y-15392D01*
X558Y-15416D01*
X601Y-15424D01*
X8427D01*
X8427Y-15424D01*
X8470Y-15416D01*
X8506Y-15392D01*
X9768Y-14130D01*
X9768Y-14130D01*
X9793Y-14093D01*
X9801Y-14050D01*
X9801Y-14050D01*
Y-13730D01*
X9851Y-13715D01*
X9874Y-13749D01*
X9950Y-13799D01*
X9946Y-13850D01*
X9921Y-13887D01*
X9903Y-13976D01*
X9921Y-14066D01*
X9972Y-14142D01*
X10048Y-14193D01*
X10138Y-14211D01*
X10228Y-14193D01*
X10304Y-14142D01*
X10354Y-14066D01*
X10372Y-13976D01*
X10360Y-13913D01*
X10504Y-13769D01*
X10504Y-13769D01*
X10529Y-13732D01*
X10537Y-13689D01*
Y-12846D01*
X10936D01*
Y-12351D01*
X10821D01*
Y-11976D01*
X11562Y-11234D01*
X12056D01*
Y-11330D01*
X12550D01*
Y-11236D01*
X12600Y-11223D01*
X12775Y-11398D01*
X12775Y-11398D01*
X12784Y-11404D01*
Y-11664D01*
X13188D01*
X13192Y-11683D01*
X13216Y-11719D01*
X13457Y-11960D01*
X13464Y-11999D01*
X13515Y-12075D01*
X13591Y-12126D01*
X13681Y-12144D01*
X13771Y-12126D01*
X13844Y-12077D01*
X13871Y-12083D01*
X13894Y-12090D01*
Y-12632D01*
X9475Y-17051D01*
X4528D01*
X4461Y-17064D01*
X4405Y-17102D01*
X2240Y-19267D01*
X2202Y-19323D01*
X2189Y-19390D01*
Y-22861D01*
X519Y-24531D01*
X-5315D01*
X-5381Y-24545D01*
X-5438Y-24582D01*
X-6746Y-25891D01*
X-7699D01*
X-7721Y-25841D01*
X-7675Y-25781D01*
X-7638Y-25691D01*
X-7625Y-25594D01*
X-7638Y-25498D01*
X-7675Y-25408D01*
X-7734Y-25330D01*
X-7812Y-25271D01*
X-7902Y-25234D01*
X-7998Y-25221D01*
X-8095Y-25234D01*
X-8185Y-25271D01*
X-8262Y-25330D01*
X-8321Y-25408D01*
X-8359Y-25498D01*
X-8371Y-25594D01*
X-8359Y-25691D01*
X-8321Y-25781D01*
X-8275Y-25841D01*
X-8298Y-25891D01*
X-9419D01*
X-9441Y-25841D01*
X-9395Y-25781D01*
X-9358Y-25691D01*
X-9345Y-25594D01*
X-9358Y-25498D01*
X-9395Y-25408D01*
X-9454Y-25330D01*
X-9532Y-25271D01*
X-9622Y-25234D01*
X-9718Y-25221D01*
X-9815Y-25234D01*
X-9905Y-25271D01*
X-9982Y-25330D01*
X-10041Y-25408D01*
X-10079Y-25498D01*
X-10091Y-25594D01*
X-10079Y-25691D01*
X-10041Y-25781D01*
X-9995Y-25841D01*
X-10018Y-25891D01*
X-10478D01*
X-11000Y-25369D01*
Y-25194D01*
X-10658D01*
Y-24604D01*
Y-24014D01*
X-10833D01*
X-10852Y-23968D01*
X-10709Y-23825D01*
X-10672Y-23769D01*
X-10658Y-23702D01*
Y-23180D01*
X-10580D01*
Y-22686D01*
X-10634D01*
Y-22491D01*
X-10580D01*
Y-21997D01*
X-11035D01*
Y-22491D01*
X-10980D01*
Y-22686D01*
X-11035D01*
Y-22815D01*
X-13062D01*
X-17694Y-18183D01*
Y-12106D01*
X-17707Y-12040D01*
X-17745Y-11984D01*
X-18237Y-11491D01*
Y-10973D01*
X-18252D01*
Y-10820D01*
X-18111Y-10679D01*
X-18111Y-10679D01*
X-18074Y-10623D01*
X-18061Y-10557D01*
Y-9825D01*
X-18074Y-9759D01*
X-18111Y-9702D01*
X-18169Y-9645D01*
X-18185Y-9622D01*
X-18208Y-9606D01*
X-18232Y-9582D01*
Y-9341D01*
X-18237Y-9316D01*
Y-9084D01*
X-18613D01*
X-18613Y-9084D01*
Y-9084D01*
X-18657Y-9066D01*
X-18763Y-8961D01*
X-18763Y-8961D01*
X-18824Y-8900D01*
X-18803Y-8850D01*
X-18591D01*
Y-8673D01*
X-17865D01*
Y-8692D01*
X-17371D01*
Y-8673D01*
X-16160D01*
X-16135Y-8734D01*
X-16061Y-8831D01*
X-15964Y-8905D01*
X-15851Y-8952D01*
X-15730Y-8968D01*
X-15609Y-8952D01*
X-15496Y-8905D01*
X-15400Y-8831D01*
X-15325Y-8734D01*
X-15279Y-8621D01*
X-15263Y-8500D01*
X-15279Y-8379D01*
X-15325Y-8266D01*
X-15400Y-8169D01*
X-15496Y-8095D01*
X-15609Y-8048D01*
X-15730Y-8032D01*
X-15851Y-8048D01*
X-15964Y-8095D01*
X-16061Y-8169D01*
X-16135Y-8266D01*
X-16160Y-8327D01*
X-17371D01*
Y-8237D01*
X-17865D01*
Y-8327D01*
X-19288D01*
X-19354Y-8340D01*
X-19367Y-8349D01*
X-19370Y-8348D01*
X-19460Y-8366D01*
X-19536Y-8417D01*
X-19587Y-8493D01*
X-19605Y-8583D01*
X-19587Y-8672D01*
X-19536Y-8748D01*
X-19471Y-8792D01*
X-19464Y-8832D01*
X-19466Y-8849D01*
X-19484Y-8861D01*
X-19584Y-8961D01*
X-19621Y-9017D01*
X-19627Y-9043D01*
X-19658Y-9074D01*
X-19694Y-9103D01*
Y-9103D01*
X-19694Y-9103D01*
X-20070D01*
Y-9167D01*
X-20104D01*
X-20170Y-9180D01*
X-20227Y-9218D01*
X-20396Y-9387D01*
X-20442Y-9368D01*
Y-9230D01*
X-20133Y-8922D01*
X-20096Y-8866D01*
X-20093Y-8850D01*
X-20087D01*
Y-8824D01*
X-20083Y-8799D01*
Y-8780D01*
X-20087Y-8755D01*
Y-8375D01*
X-20464D01*
Y-8762D01*
X-20752Y-9051D01*
X-20788Y-9103D01*
X-20818D01*
Y-9147D01*
X-20868Y-9177D01*
X-20918Y-9167D01*
X-21110D01*
X-21160Y-9134D01*
Y-9044D01*
X-21504D01*
Y-9014D01*
X-21682D01*
Y-9291D01*
X-21782D01*
Y-9014D01*
X-21933D01*
Y-8731D01*
X-21780D01*
Y-8237D01*
X-21872D01*
X-21893Y-8187D01*
X-21522Y-7816D01*
X-20838D01*
Y-8003D01*
X-20520D01*
X-20297Y-8226D01*
X-20241Y-8263D01*
X-20174Y-8276D01*
X-19609D01*
X-19543Y-8263D01*
X-19486Y-8226D01*
X-19264Y-8003D01*
X-18965D01*
Y-7569D01*
X-18720Y-7323D01*
X-18720Y-7323D01*
X-18696Y-7287D01*
X-18687Y-7244D01*
X-18687Y-7244D01*
Y-7157D01*
X-18296D01*
Y-6662D01*
X-18751D01*
Y-6790D01*
X-18801Y-6796D01*
X-18847Y-6756D01*
Y-6662D01*
X-19302D01*
Y-7126D01*
X-19677Y-7500D01*
X-19713Y-7528D01*
Y-7528D01*
X-19713Y-7528D01*
X-19816D01*
X-19822Y-7519D01*
X-19888Y-7454D01*
Y-7157D01*
X-19773D01*
Y-6662D01*
X-20227D01*
Y-7157D01*
X-20112D01*
Y-7500D01*
X-20112Y-7500D01*
X-20104Y-7543D01*
X-20090Y-7564D01*
Y-7872D01*
X-20140Y-7893D01*
X-20461Y-7571D01*
Y-7528D01*
X-20504D01*
X-20513Y-7520D01*
X-20569Y-7482D01*
X-20635Y-7469D01*
X-21593D01*
X-21660Y-7482D01*
X-21716Y-7520D01*
X-22229Y-8033D01*
X-22266Y-8089D01*
X-22280Y-8155D01*
Y-9044D01*
X-22304D01*
Y-9118D01*
X-22350Y-9137D01*
X-22811Y-8677D01*
X-22863Y-8642D01*
Y-8572D01*
X-23357D01*
Y-9027D01*
X-22976D01*
X-22964Y-9043D01*
X-22989Y-9093D01*
X-23060D01*
Y-9300D01*
X-22833D01*
Y-9210D01*
X-22787Y-9191D01*
X-22578Y-9400D01*
Y-9539D01*
X-22564Y-9605D01*
X-22527Y-9661D01*
X-22280Y-9909D01*
Y-9989D01*
X-22304D01*
Y-10483D01*
X-21908D01*
Y-10016D01*
X-21732D01*
X-21666Y-10003D01*
X-21610Y-9965D01*
X-21236Y-9591D01*
X-21201Y-9538D01*
X-21160D01*
Y-9514D01*
X-21091D01*
Y-9578D01*
X-21078Y-9645D01*
X-21041Y-9701D01*
X-20941Y-9800D01*
X-20885Y-9838D01*
X-20818Y-9851D01*
X-20441D01*
X-20375Y-9838D01*
X-20319Y-9800D01*
X-20114Y-9596D01*
X-20070Y-9578D01*
Y-9578D01*
X-20070Y-9578D01*
X-19694D01*
Y-9514D01*
X-19679D01*
X-19613Y-9501D01*
X-19557Y-9463D01*
X-19408Y-9314D01*
X-19361Y-9333D01*
Y-9558D01*
X-19331D01*
X-19296Y-9611D01*
X-19014Y-9892D01*
X-18987Y-9930D01*
X-18987D01*
X-18987Y-9930D01*
Y-10014D01*
X-20068D01*
Y-9950D01*
X-20444D01*
Y-10424D01*
X-20068D01*
Y-10360D01*
X-18987D01*
Y-10405D01*
X-18774D01*
X-18755Y-10451D01*
X-18922Y-10618D01*
X-18959Y-10674D01*
X-18973Y-10740D01*
Y-10929D01*
X-18985Y-10973D01*
X-19023Y-10973D01*
X-19361D01*
Y-11566D01*
X-18985Y-11566D01*
X-18973Y-11611D01*
Y-11859D01*
X-18987D01*
Y-12031D01*
X-19380D01*
X-19398Y-12035D01*
X-19448Y-11994D01*
Y-11692D01*
X-20119D01*
Y-12027D01*
X-20172Y-12062D01*
X-20318Y-12209D01*
X-20422D01*
Y-12154D01*
X-20916D01*
Y-12209D01*
X-21651D01*
X-21683Y-12177D01*
X-21690Y-12138D01*
X-21728Y-12082D01*
X-21761Y-12060D01*
Y-11918D01*
X-22137D01*
Y-12629D01*
X-21761D01*
Y-12587D01*
X-21722Y-12555D01*
X-20916D01*
Y-12609D01*
X-20422D01*
Y-12555D01*
X-20246D01*
X-20180Y-12542D01*
X-20169Y-12535D01*
X-20119Y-12562D01*
Y-12678D01*
X-19710D01*
X-19685Y-12683D01*
X-19660Y-12678D01*
X-19448D01*
Y-12518D01*
X-19308Y-12378D01*
X-18987D01*
Y-12452D01*
X-18611D01*
Y-11859D01*
X-18626D01*
Y-11644D01*
X-18576Y-11629D01*
X-18548Y-11671D01*
X-18040Y-12178D01*
Y-18255D01*
X-18027Y-18321D01*
X-17990Y-18378D01*
X-13256Y-23111D01*
X-13200Y-23148D01*
X-13134Y-23162D01*
X-11035D01*
Y-23180D01*
X-11005D01*
Y-23630D01*
X-11296Y-23921D01*
X-11333Y-23977D01*
X-11347Y-24044D01*
Y-25441D01*
X-11333Y-25507D01*
X-11296Y-25563D01*
X-10721Y-26138D01*
X-10740Y-26184D01*
X-11103D01*
Y-26724D01*
X-10113D01*
Y-26237D01*
X-7603D01*
Y-26724D01*
X-6613D01*
Y-26225D01*
X-6608Y-26224D01*
X-6552Y-26187D01*
X-5243Y-24878D01*
X591D01*
X657Y-24865D01*
X713Y-24827D01*
X2485Y-23056D01*
X2522Y-22999D01*
X2536Y-22933D01*
Y-19462D01*
X4599Y-17398D01*
X9547D01*
X9614Y-17385D01*
X9670Y-17347D01*
X14190Y-12827D01*
X14228Y-12770D01*
X14241Y-12704D01*
Y-12073D01*
X14291Y-12058D01*
X14303Y-12075D01*
X14379Y-12126D01*
X14468Y-12144D01*
X14558Y-12126D01*
X14634Y-12075D01*
X14685Y-11999D01*
X14703Y-11909D01*
X14685Y-11820D01*
X14634Y-11744D01*
X14581Y-11708D01*
Y-9508D01*
X14581Y-9508D01*
X14572Y-9465D01*
X14548Y-9429D01*
X14548Y-9429D01*
X14206Y-9087D01*
X14227Y-9037D01*
X14399D01*
Y-8760D01*
X14449D01*
Y-8710D01*
X14706D01*
X14706Y-8483D01*
X14754Y-8478D01*
X15702D01*
X19573Y-12350D01*
Y-17572D01*
X19533Y-17612D01*
X19508Y-17648D01*
X19500Y-17691D01*
X19500Y-17691D01*
Y-25353D01*
X19500Y-25353D01*
X19508Y-25396D01*
X19533Y-25432D01*
X19713Y-25613D01*
Y-26054D01*
X20247D01*
Y-26046D01*
X20297Y-26021D01*
X20331Y-26047D01*
X20403Y-26077D01*
X20430Y-26080D01*
Y-25787D01*
X20530D01*
Y-26080D01*
X20558Y-26077D01*
X20630Y-26047D01*
X20692Y-25999D01*
X20705Y-25982D01*
X20755D01*
X20769Y-25999D01*
X20831Y-26047D01*
X20903Y-26077D01*
X20930Y-26080D01*
Y-25787D01*
X21030D01*
Y-26080D01*
X21058Y-26077D01*
X21130Y-26047D01*
X21192Y-25999D01*
X21218Y-25966D01*
X21280Y-25965D01*
X21290Y-25978D01*
X21346Y-26021D01*
X21411Y-26047D01*
X21480Y-26057D01*
X21550Y-26047D01*
X21615Y-26021D01*
X21671Y-25978D01*
X21700Y-25939D01*
X21710Y-25936D01*
X21750D01*
X21760Y-25939D01*
X21790Y-25978D01*
X21846Y-26021D01*
X21911Y-26047D01*
X21980Y-26057D01*
X22050Y-26047D01*
X22115Y-26021D01*
X22171Y-25978D01*
X22213Y-25922D01*
X22240Y-25857D01*
X22249Y-25787D01*
X22240Y-25718D01*
X22213Y-25653D01*
X22171Y-25597D01*
X22132Y-25568D01*
X22128Y-25557D01*
Y-25517D01*
X22132Y-25507D01*
X22171Y-25478D01*
X22213Y-25422D01*
X22240Y-25357D01*
X22249Y-25287D01*
X22240Y-25218D01*
X22213Y-25153D01*
X22171Y-25097D01*
X22115Y-25054D01*
X22050Y-25027D01*
X21980Y-25018D01*
X21911Y-25027D01*
X21846Y-25054D01*
X21790Y-25097D01*
X21760Y-25136D01*
X21750Y-25139D01*
X21710D01*
X21700Y-25136D01*
X21671Y-25097D01*
X21615Y-25054D01*
X21550Y-25027D01*
X21480Y-25018D01*
X21411Y-25027D01*
X21346Y-25054D01*
X21290Y-25097D01*
X21260Y-25136D01*
X21250Y-25139D01*
X21210D01*
X21200Y-25136D01*
X21171Y-25097D01*
X21115Y-25054D01*
X21050Y-25027D01*
X20980Y-25018D01*
X20911Y-25027D01*
X20846Y-25054D01*
X20836Y-25062D01*
X20786Y-25037D01*
Y-24213D01*
X20786Y-24213D01*
X20777Y-24170D01*
X20753Y-24134D01*
X20753Y-24134D01*
X20294Y-23675D01*
Y-21541D01*
X20344Y-21534D01*
X20373Y-21627D01*
X20461Y-21793D01*
X20581Y-21939D01*
X20726Y-22058D01*
X20892Y-22147D01*
X21072Y-22202D01*
X21260Y-22220D01*
X21447Y-22202D01*
X21627Y-22147D01*
X21793Y-22058D01*
X21939Y-21939D01*
X22058Y-21793D01*
X22147Y-21627D01*
X22202Y-21447D01*
X22220Y-21260D01*
X22202Y-21072D01*
X22147Y-20892D01*
X22058Y-20726D01*
X21939Y-20581D01*
X21793Y-20461D01*
X21627Y-20373D01*
X21447Y-20318D01*
X21260Y-20299D01*
X21072Y-20318D01*
X20892Y-20373D01*
X20726Y-20461D01*
X20581Y-20581D01*
X20461Y-20726D01*
X20373Y-20892D01*
X20344Y-20986D01*
X20294Y-20979D01*
Y-12164D01*
X20286Y-12121D01*
X20261Y-12084D01*
X20261Y-12084D01*
X14619Y-6443D01*
X14583Y-6418D01*
X14540Y-6410D01*
X14540Y-6410D01*
X9602D01*
X9559Y-6418D01*
X9523Y-6443D01*
X9523Y-6443D01*
X9413Y-6553D01*
X9412Y-6554D01*
X9346Y-6569D01*
X9295Y-6559D01*
X9245Y-6569D01*
X9236Y-6575D01*
X9197Y-6595D01*
X9157Y-6575D01*
X9149Y-6569D01*
X9098Y-6559D01*
X9048Y-6569D01*
X9005Y-6598D01*
X8995D01*
X8952Y-6569D01*
X8902Y-6559D01*
X8851Y-6569D01*
X8843Y-6575D01*
X8803Y-6595D01*
X8764Y-6575D01*
X8755Y-6569D01*
X8705Y-6559D01*
X8654Y-6569D01*
X8612Y-6598D01*
X8601D01*
X8558Y-6569D01*
X8508Y-6559D01*
X8458Y-6569D01*
X8449Y-6575D01*
X8447Y-6576D01*
X8428Y-6565D01*
X8419Y-6503D01*
X8583Y-6339D01*
X8608Y-6303D01*
X8616Y-6260D01*
X8616Y-6260D01*
Y-6113D01*
X8731D01*
Y-5619D01*
X8276D01*
Y-6113D01*
X8392D01*
Y-6213D01*
X8195Y-6410D01*
X8043D01*
X8043Y-6410D01*
X8000Y-6418D01*
X7963Y-6443D01*
X7963Y-6443D01*
X7838Y-6568D01*
X7833Y-6575D01*
X7783Y-6541D01*
X7770Y-6539D01*
Y-7045D01*
Y-7552D01*
X7783Y-7549D01*
X7817Y-7587D01*
X7838Y-7619D01*
X8069Y-7850D01*
X8079Y-7897D01*
X8129Y-7973D01*
X8206Y-8024D01*
X8282Y-8039D01*
X8881Y-8638D01*
X8938Y-8676D01*
X9004Y-8689D01*
X9370D01*
X9435Y-8732D01*
X9525Y-8750D01*
X9615Y-8732D01*
X9691Y-8682D01*
X9742Y-8605D01*
X9759Y-8516D01*
X9742Y-8426D01*
X9691Y-8350D01*
X9615Y-8299D01*
X9525Y-8281D01*
X9435Y-8299D01*
X9370Y-8342D01*
X9076D01*
X8527Y-7794D01*
X8512Y-7717D01*
X8461Y-7641D01*
X8385Y-7590D01*
X8327Y-7579D01*
X8327Y-7528D01*
X8361Y-7521D01*
X8370Y-7515D01*
X8409Y-7495D01*
X8449Y-7515D01*
X8458Y-7521D01*
X8508Y-7531D01*
X8558Y-7521D01*
X8601Y-7493D01*
X8612D01*
X8654Y-7521D01*
X8705Y-7531D01*
X8755Y-7521D01*
X8822Y-7537D01*
X8822Y-7538D01*
X8932Y-7648D01*
X8932Y-7648D01*
X8969Y-7672D01*
X9012Y-7681D01*
X10546D01*
X10546Y-7681D01*
X10589Y-7672D01*
X10626Y-7648D01*
X11442Y-6832D01*
X11488Y-6835D01*
X11509Y-6878D01*
X11496Y-6898D01*
X11478Y-6988D01*
X11496Y-7078D01*
X11547Y-7154D01*
X11623Y-7205D01*
X11713Y-7223D01*
X11802Y-7205D01*
X11878Y-7154D01*
X11914Y-7100D01*
X13366D01*
X13381Y-7150D01*
X13377Y-7153D01*
X13377Y-7153D01*
X13258Y-7273D01*
X12942D01*
Y-7388D01*
X12747D01*
Y-7273D01*
X12253D01*
Y-7368D01*
X11417D01*
X11417Y-7368D01*
X11374Y-7377D01*
X11338Y-7401D01*
X11125Y-7614D01*
X11106Y-7642D01*
X10850D01*
X10800Y-7652D01*
X10757Y-7681D01*
X10729Y-7723D01*
X10719Y-7774D01*
X10729Y-7824D01*
X10735Y-7833D01*
X10755Y-7872D01*
X10735Y-7912D01*
X10729Y-7920D01*
X10719Y-7970D01*
X10729Y-8021D01*
X10735Y-8029D01*
X10755Y-8069D01*
X10735Y-8108D01*
X10729Y-8117D01*
X10719Y-8167D01*
X10729Y-8218D01*
X10735Y-8226D01*
X10741Y-8239D01*
X10725Y-8271D01*
X10669Y-8280D01*
X10577Y-8188D01*
X10541Y-8164D01*
X10498Y-8156D01*
X10498Y-8156D01*
X10438D01*
X10402Y-8102D01*
X10326Y-8051D01*
X10236Y-8033D01*
X10146Y-8051D01*
X10070Y-8102D01*
X10020Y-8178D01*
X10002Y-8268D01*
X10020Y-8357D01*
X10070Y-8434D01*
X10146Y-8484D01*
X10166Y-8488D01*
Y-8539D01*
X10146Y-8543D01*
X10070Y-8594D01*
X10020Y-8670D01*
X10002Y-8760D01*
X10020Y-8850D01*
X10036Y-8874D01*
X10012Y-8918D01*
X8427D01*
X8385Y-8890D01*
X8295Y-8872D01*
X8206Y-8890D01*
X8129Y-8940D01*
X8079Y-9017D01*
X8061Y-9106D01*
X8079Y-9196D01*
X8129Y-9272D01*
X8206Y-9323D01*
X8295Y-9341D01*
X8385Y-9323D01*
X8461Y-9272D01*
X8512Y-9196D01*
X8523Y-9142D01*
X8626D01*
X8645Y-9188D01*
X8359Y-9475D01*
X8295Y-9462D01*
X8206Y-9480D01*
X8129Y-9531D01*
X8079Y-9607D01*
X8061Y-9697D01*
X8079Y-9787D01*
X8129Y-9863D01*
X8206Y-9914D01*
X8295Y-9931D01*
X8385Y-9914D01*
X8461Y-9863D01*
X8512Y-9787D01*
X8530Y-9697D01*
X8517Y-9634D01*
X8859Y-9292D01*
X10410D01*
X10410Y-9292D01*
X10453Y-9283D01*
X10483Y-9264D01*
X10696D01*
X10726Y-9314D01*
X10719Y-9348D01*
X10729Y-9399D01*
X10735Y-9407D01*
X10755Y-9447D01*
X10735Y-9486D01*
X10729Y-9495D01*
X10719Y-9545D01*
X10726Y-9580D01*
X10696Y-9630D01*
X10571D01*
X10557Y-9627D01*
X10557Y-9627D01*
X10143D01*
X10143Y-9627D01*
X10100Y-9636D01*
X10063Y-9660D01*
X10063Y-9660D01*
X10004Y-9719D01*
X9941Y-9706D01*
X9851Y-9724D01*
X9775Y-9775D01*
X9724Y-9851D01*
X9706Y-9941D01*
X9724Y-10031D01*
X9775Y-10107D01*
X9851Y-10158D01*
X9941Y-10175D01*
X10031Y-10158D01*
X10107Y-10107D01*
X10151Y-10040D01*
X10201Y-10050D01*
X10216Y-10129D01*
X10267Y-10205D01*
X10343Y-10256D01*
X10433Y-10274D01*
X10523Y-10256D01*
X10599Y-10205D01*
X10639Y-10145D01*
X10692Y-10154D01*
X10701Y-10198D01*
X10730Y-10242D01*
X10712Y-10253D01*
X10712Y-10253D01*
X10618Y-10347D01*
X9469D01*
X9469Y-10343D01*
X9418Y-10267D01*
X9342Y-10216D01*
X9252Y-10199D01*
X9162Y-10216D01*
X9097Y-10260D01*
X7776D01*
X7709Y-10273D01*
X7653Y-10311D01*
X7456Y-10507D01*
X7419Y-10564D01*
X7409Y-10614D01*
X7340D01*
X7316Y-10580D01*
X6795D01*
X6289D01*
X6291Y-10592D01*
X6309Y-10619D01*
X6288Y-10633D01*
X6100Y-10820D01*
X6054Y-10801D01*
Y-10776D01*
X5624D01*
Y-10710D01*
X5757D01*
Y-10453D01*
Y-10195D01*
X5624D01*
Y-9887D01*
X6254Y-9257D01*
X6315Y-9265D01*
X6327Y-9286D01*
X6325Y-9290D01*
X6319Y-9298D01*
X6309Y-9348D01*
X6319Y-9399D01*
X6325Y-9407D01*
X6345Y-9447D01*
X6325Y-9486D01*
X6319Y-9495D01*
X6309Y-9545D01*
X6319Y-9596D01*
X6325Y-9604D01*
X6345Y-9644D01*
X6325Y-9683D01*
X6319Y-9692D01*
X6309Y-9742D01*
X6319Y-9792D01*
X6325Y-9801D01*
X6345Y-9841D01*
X6325Y-9880D01*
X6319Y-9889D01*
X6309Y-9939D01*
X6319Y-9989D01*
X6325Y-9998D01*
X6345Y-10037D01*
X6325Y-10077D01*
X6319Y-10085D01*
X6309Y-10136D01*
X6319Y-10186D01*
X6325Y-10195D01*
X6345Y-10234D01*
X6325Y-10274D01*
X6319Y-10282D01*
X6309Y-10333D01*
X6319Y-10383D01*
X6330Y-10398D01*
X6326Y-10415D01*
X6291Y-10467D01*
X6289Y-10480D01*
X6795D01*
X7302D01*
X7299Y-10467D01*
X7264Y-10415D01*
X7261Y-10398D01*
X7271Y-10383D01*
X7281Y-10333D01*
X7271Y-10282D01*
X7265Y-10274D01*
X7245Y-10234D01*
X7265Y-10195D01*
X7271Y-10186D01*
X7281Y-10136D01*
X7271Y-10085D01*
X7265Y-10077D01*
X7245Y-10037D01*
X7265Y-9998D01*
X7271Y-9989D01*
X7281Y-9939D01*
X7271Y-9889D01*
X7265Y-9880D01*
X7245Y-9841D01*
X7265Y-9801D01*
X7271Y-9792D01*
X7281Y-9742D01*
X7271Y-9692D01*
X7265Y-9683D01*
X7245Y-9644D01*
X7265Y-9604D01*
X7271Y-9596D01*
X7281Y-9545D01*
X7271Y-9495D01*
X7265Y-9486D01*
X7245Y-9447D01*
X7265Y-9407D01*
X7271Y-9399D01*
X7281Y-9348D01*
X7271Y-9298D01*
X7265Y-9290D01*
X7245Y-9250D01*
X7265Y-9210D01*
X7271Y-9202D01*
X7281Y-9152D01*
X7271Y-9101D01*
X7265Y-9093D01*
X7245Y-9053D01*
X7265Y-9014D01*
X7271Y-9005D01*
X7281Y-8955D01*
X7271Y-8904D01*
X7265Y-8896D01*
X7245Y-8856D01*
X7265Y-8817D01*
X7271Y-8808D01*
X7281Y-8758D01*
X7271Y-8708D01*
X7265Y-8699D01*
X7245Y-8659D01*
X7265Y-8620D01*
X7271Y-8611D01*
X7281Y-8561D01*
X7271Y-8511D01*
X7243Y-8468D01*
Y-8457D01*
X7271Y-8415D01*
X7281Y-8364D01*
X7271Y-8314D01*
X7265Y-8305D01*
X7245Y-8266D01*
X7265Y-8226D01*
X7271Y-8218D01*
X7281Y-8167D01*
X7271Y-8117D01*
X7265Y-8108D01*
X7245Y-8069D01*
X7265Y-8029D01*
X7271Y-8021D01*
X7281Y-7970D01*
X7271Y-7920D01*
X7265Y-7912D01*
X7245Y-7872D01*
X7265Y-7833D01*
X7271Y-7824D01*
X7281Y-7774D01*
X7271Y-7723D01*
X7243Y-7681D01*
X7200Y-7652D01*
X7150Y-7642D01*
X6907D01*
Y-7579D01*
X6907Y-7579D01*
X6899Y-7536D01*
X6875Y-7499D01*
X6875Y-7499D01*
X5672Y-6297D01*
X5692Y-6251D01*
X5720D01*
Y-6030D01*
X5729Y-6024D01*
X5818Y-5935D01*
X5865Y-5954D01*
Y-6281D01*
X6190D01*
Y-5945D01*
X6240D01*
Y-5895D01*
X6616D01*
Y-5609D01*
X6616D01*
X6615Y-5608D01*
X6617Y-5580D01*
X6668Y-5544D01*
X6673Y-5545D01*
X6741D01*
Y-5661D01*
X7203D01*
X7214Y-5677D01*
X7188Y-5727D01*
X7038D01*
Y-5934D01*
X7265D01*
Y-5762D01*
X7315Y-5742D01*
X7411Y-5838D01*
Y-6627D01*
X7402Y-6641D01*
X7392Y-6691D01*
Y-7400D01*
X7402Y-7450D01*
X7431Y-7493D01*
X7473Y-7521D01*
X7524Y-7531D01*
X7574Y-7521D01*
X7589Y-7511D01*
X7606Y-7514D01*
X7658Y-7549D01*
X7670Y-7552D01*
Y-7045D01*
Y-6525D01*
X7636Y-6501D01*
Y-5791D01*
X7627Y-5748D01*
X7603Y-5712D01*
X7603Y-5712D01*
X7245Y-5354D01*
X7235Y-5348D01*
Y-5206D01*
X6741D01*
Y-5272D01*
X6691Y-5292D01*
X6595Y-5196D01*
X6586Y-5190D01*
Y-4969D01*
X6326D01*
X6319Y-4960D01*
X6319Y-4960D01*
X6195Y-4835D01*
Y-4775D01*
X6310D01*
Y-4280D01*
X5855D01*
Y-4775D01*
X5971D01*
Y-4882D01*
X5971Y-4882D01*
X5978Y-4919D01*
X5975Y-4930D01*
X5949Y-4969D01*
X5895D01*
X5859Y-4935D01*
X5741Y-4817D01*
X5759Y-4775D01*
X5759D01*
Y-4280D01*
X5304D01*
Y-4775D01*
X5421D01*
X5428Y-4809D01*
X5452Y-4845D01*
X5500Y-4893D01*
X5481Y-4939D01*
X5424D01*
Y-5276D01*
X5374D01*
Y-5326D01*
X4998D01*
Y-5612D01*
X4998D01*
X5028Y-5639D01*
Y-5833D01*
X4873D01*
Y-5757D01*
X4379D01*
Y-6212D01*
X4873D01*
Y-6070D01*
X4882Y-6064D01*
X4889Y-6057D01*
X5028D01*
Y-6251D01*
X5288D01*
X5295Y-6260D01*
X5411Y-6377D01*
X5411Y-6377D01*
X5447Y-6401D01*
X5462Y-6404D01*
X5758Y-6700D01*
X5744Y-6748D01*
X5715Y-6754D01*
X5651Y-6797D01*
X5365D01*
Y-6780D01*
X4871D01*
Y-6807D01*
X4853Y-6810D01*
X4797Y-6848D01*
X4457Y-7187D01*
X4411Y-7168D01*
Y-7038D01*
X4035D01*
X3660D01*
Y-7305D01*
X3690D01*
Y-7405D01*
X3456D01*
Y-7332D01*
X3001D01*
Y-7826D01*
X3456D01*
Y-7752D01*
X3690D01*
Y-7865D01*
X4381D01*
Y-7736D01*
X4434Y-7701D01*
X4805Y-7329D01*
X4823Y-7329D01*
X4871Y-7377D01*
X4871Y-7787D01*
X5014D01*
Y-8158D01*
X4871D01*
Y-8613D01*
X5365D01*
Y-8538D01*
X5382Y-8526D01*
X5773Y-8136D01*
X5935D01*
X5937Y-8138D01*
X6013Y-8189D01*
X6102Y-8207D01*
X6192Y-8189D01*
X6264Y-8141D01*
X6281Y-8147D01*
X6310Y-8166D01*
X6309Y-8167D01*
X6319Y-8218D01*
X6325Y-8226D01*
X6327Y-8231D01*
X6327Y-8241D01*
X6303Y-8284D01*
X6281Y-8288D01*
X6244Y-8313D01*
X6244Y-8313D01*
X5441Y-9115D01*
X5395Y-9096D01*
Y-8987D01*
X5168D01*
Y-9194D01*
X5297D01*
X5316Y-9241D01*
X4547Y-10010D01*
X4522Y-10047D01*
X4514Y-10090D01*
X4514Y-10090D01*
Y-13676D01*
X4460Y-13712D01*
X4409Y-13788D01*
X4391Y-13878D01*
X4409Y-13968D01*
X4460Y-14044D01*
X4536Y-14095D01*
X4626Y-14112D01*
X4716Y-14095D01*
X4792Y-14044D01*
X4843Y-13968D01*
X4860Y-13878D01*
X4843Y-13788D01*
X4813Y-13744D01*
X4814Y-13744D01*
X4846Y-13704D01*
X4921Y-13719D01*
X4996Y-13704D01*
X5029Y-13744D01*
X5029Y-13744D01*
X5000Y-13788D01*
X4982Y-13878D01*
X5000Y-13968D01*
X5051Y-14044D01*
X5127Y-14095D01*
X5217Y-14112D01*
X5306Y-14095D01*
X5382Y-14044D01*
X5433Y-13968D01*
X5451Y-13878D01*
X5433Y-13788D01*
X5404Y-13744D01*
X5404Y-13744D01*
X5437Y-13704D01*
X5512Y-13719D01*
X5587Y-13704D01*
X5620Y-13744D01*
X5620Y-13744D01*
X5590Y-13788D01*
X5573Y-13878D01*
X5590Y-13968D01*
X5641Y-14044D01*
X5717Y-14095D01*
X5807Y-14112D01*
X5897Y-14095D01*
X5973Y-14044D01*
X6024Y-13968D01*
X6042Y-13878D01*
X6024Y-13788D01*
X5994Y-13744D01*
X5995Y-13744D01*
X6028Y-13704D01*
X6102Y-13719D01*
X6192Y-13701D01*
X6268Y-13650D01*
X6319Y-13574D01*
X6337Y-13484D01*
X6322Y-13409D01*
X6854Y-12876D01*
X6893Y-12908D01*
X6885Y-12921D01*
X6876Y-12964D01*
X6876Y-12964D01*
Y-13283D01*
X6822Y-13318D01*
X6772Y-13395D01*
X6754Y-13484D01*
X6772Y-13574D01*
X6822Y-13650D01*
X6885Y-13692D01*
X6901Y-13739D01*
X6902Y-13753D01*
X6892Y-13766D01*
X6796D01*
X6760Y-13712D01*
X6684Y-13661D01*
X6594Y-13643D01*
X6505Y-13661D01*
X6429Y-13712D01*
X6378Y-13788D01*
X6360Y-13878D01*
X6378Y-13968D01*
X6429Y-14044D01*
X6505Y-14095D01*
X6594Y-14112D01*
X6684Y-14095D01*
X6760Y-14044D01*
X6796Y-13990D01*
X6976D01*
X6976Y-13990D01*
X7019Y-13982D01*
X7056Y-13957D01*
X7308Y-13705D01*
X7354Y-13729D01*
X7344Y-13780D01*
X7362Y-13869D01*
X7413Y-13945D01*
X7489Y-13996D01*
X7579Y-14014D01*
X7668Y-13996D01*
X7745Y-13945D01*
X7795Y-13869D01*
X7813Y-13780D01*
X7798Y-13705D01*
X7838Y-13672D01*
X7839Y-13672D01*
X7883Y-13701D01*
X7972Y-13719D01*
X8062Y-13701D01*
X8138Y-13650D01*
X8189Y-13574D01*
X8207Y-13484D01*
X8189Y-13395D01*
X8138Y-13318D01*
X8085Y-13283D01*
Y-12875D01*
X8784Y-12176D01*
X8784Y-12176D01*
X8808Y-12139D01*
X8817Y-12096D01*
X8817Y-12096D01*
Y-11963D01*
X8867Y-11934D01*
X8902Y-11941D01*
X8936Y-11934D01*
X8986Y-11963D01*
Y-12832D01*
X8957Y-12856D01*
X8867Y-12874D01*
X8791Y-12925D01*
X8740Y-13001D01*
X8722Y-13091D01*
X8740Y-13180D01*
X8772Y-13227D01*
X7569Y-14430D01*
X978D01*
X-748Y-12703D01*
Y-10776D01*
X-748Y-10776D01*
X-757Y-10733D01*
X-781Y-10696D01*
X-781Y-10696D01*
X-2366Y-9112D01*
X-2402Y-9087D01*
X-2445Y-9079D01*
X-2445Y-9079D01*
X-4433D01*
X-4433Y-9079D01*
X-4476Y-9087D01*
X-4512Y-9112D01*
X-4956Y-9556D01*
X-5003Y-9537D01*
Y-9208D01*
X-5059D01*
Y-8955D01*
X-4865D01*
Y-8263D01*
X-5467Y-8263D01*
X-5504Y-8233D01*
X-5515Y-8233D01*
X-5790D01*
Y-8609D01*
Y-8985D01*
X-5504Y-8985D01*
X-5467Y-8955D01*
X-5454Y-8955D01*
X-5283D01*
Y-9173D01*
X-5309Y-9199D01*
X-5316Y-9208D01*
X-5458D01*
Y-9439D01*
X-5474Y-9449D01*
X-5524Y-9421D01*
Y-9178D01*
X-5731D01*
Y-9456D01*
X-5781D01*
Y-9506D01*
X-6039D01*
Y-9566D01*
X-6089Y-9587D01*
X-6579Y-9097D01*
X-6563Y-9043D01*
X-6498Y-9030D01*
X-6422Y-8979D01*
X-6372Y-8903D01*
X-6354Y-8813D01*
X-6372Y-8724D01*
X-6422Y-8647D01*
X-6498Y-8597D01*
X-6588Y-8579D01*
X-6651Y-8591D01*
X-7167Y-8076D01*
X-7158Y-8035D01*
X-7152Y-8012D01*
X-7108Y-7986D01*
X-6147D01*
Y-8089D01*
X-5545Y-8089D01*
X-5507Y-8119D01*
X-5497Y-8119D01*
X-5221D01*
Y-7743D01*
Y-7367D01*
X-5507Y-7367D01*
X-5545Y-7397D01*
X-5557Y-7397D01*
X-5728D01*
Y-7179D01*
X-5702Y-7153D01*
X-5702Y-7153D01*
X-5696Y-7144D01*
X-5554D01*
Y-6649D01*
X-6009D01*
Y-7144D01*
X-5953D01*
Y-7397D01*
X-6147D01*
Y-7762D01*
X-7099D01*
X-7197Y-7664D01*
X-7234Y-7639D01*
X-7254Y-7635D01*
X-7277Y-7589D01*
X-7277Y-7581D01*
X-7244Y-7531D01*
X-7226Y-7441D01*
X-7244Y-7351D01*
X-7295Y-7275D01*
X-7328Y-7253D01*
X-7313Y-7203D01*
X-7227D01*
Y-7087D01*
X-6913D01*
Y-7208D01*
X-6418D01*
Y-6753D01*
X-6913D01*
Y-6863D01*
X-7227D01*
Y-6748D01*
X-7721D01*
Y-6890D01*
X-7731Y-6896D01*
X-7731Y-6896D01*
X-8092Y-7257D01*
X-8249D01*
Y-7231D01*
X-8257Y-7188D01*
X-8281Y-7152D01*
X-8317Y-7128D01*
X-8360Y-7120D01*
X-8395Y-7127D01*
X-8422Y-7114D01*
X-8445Y-7096D01*
Y-6848D01*
X-8152D01*
Y-6354D01*
X-8268D01*
Y-6064D01*
X-8261Y-6057D01*
X-8261Y-6057D01*
X-8237Y-6021D01*
X-8228Y-5978D01*
Y-5972D01*
X-8074D01*
Y-5746D01*
X-8044D01*
Y-5628D01*
X-8340D01*
X-8637D01*
Y-5746D01*
X-8607D01*
Y-5972D01*
X-8534D01*
X-8492Y-6018D01*
X-8492Y-6018D01*
Y-6354D01*
X-8607D01*
Y-6670D01*
X-8623Y-6686D01*
X-8655Y-6694D01*
X-8688Y-6686D01*
X-8703Y-6670D01*
Y-6354D01*
X-8819D01*
Y-6030D01*
X-8819Y-6030D01*
X-8820Y-6022D01*
X-8782Y-5972D01*
X-8782D01*
Y-5716D01*
Y-5461D01*
Y-5183D01*
X-8786D01*
Y-4923D01*
X-8761Y-4883D01*
X-8736Y-4883D01*
X-8554D01*
Y-4606D01*
Y-4329D01*
X-8736D01*
X-8761Y-4329D01*
X-8786Y-4289D01*
Y-4016D01*
X-8795Y-3946D01*
X-8808Y-3915D01*
Y-3690D01*
D02*
G37*
G36*
X4576Y-5176D02*
X4349D01*
Y-5383D01*
X4576D01*
Y-5176D01*
D02*
G37*
G36*
X4903D02*
X4676D01*
Y-5383D01*
X4903D01*
Y-5176D01*
D02*
G37*
G36*
X-8246Y-4656D02*
X-8454D01*
Y-4883D01*
X-8246D01*
Y-4656D01*
D02*
G37*
G36*
X-18110Y960D02*
X-18298Y942D01*
X-18478Y887D01*
X-18644Y799D01*
X-18789Y679D01*
X-18909Y534D01*
X-18998Y368D01*
X-19052Y187D01*
X-19071Y0D01*
X-19052Y-187D01*
X-18998Y-368D01*
X-18909Y-534D01*
X-18789Y-679D01*
X-18644Y-799D01*
X-18478Y-887D01*
X-18298Y-942D01*
X-18110Y-960D01*
X-17923Y-942D01*
X-17743Y-887D01*
X-17577Y-799D01*
X-17431Y-679D01*
X-17312Y-534D01*
X-17223Y-368D01*
X-17168Y-187D01*
X-17150Y0D01*
X-17168Y187D01*
X-17223Y368D01*
X-17312Y534D01*
X-17431Y679D01*
X-17577Y799D01*
X-17743Y887D01*
X-17923Y942D01*
X-18110Y960D01*
D02*
G37*
G36*
X0D02*
X-187Y942D01*
X-368Y887D01*
X-534Y799D01*
X-679Y679D01*
X-799Y534D01*
X-887Y368D01*
X-942Y187D01*
X-960Y0D01*
X-942Y-187D01*
X-887Y-368D01*
X-799Y-534D01*
X-679Y-679D01*
X-534Y-799D01*
X-368Y-887D01*
X-187Y-942D01*
X0Y-960D01*
X187Y-942D01*
X368Y-887D01*
X534Y-799D01*
X679Y-679D01*
X799Y-534D01*
X887Y-368D01*
X942Y-187D01*
X960Y0D01*
X942Y187D01*
X887Y368D01*
X799Y534D01*
X679Y679D01*
X534Y799D01*
X368Y887D01*
X187Y942D01*
X0Y960D01*
D02*
G37*
G36*
X21260D02*
X21072Y942D01*
X20892Y887D01*
X20726Y799D01*
X20581Y679D01*
X20461Y534D01*
X20373Y368D01*
X20318Y187D01*
X20299Y0D01*
X20318Y-187D01*
X20373Y-368D01*
X20461Y-534D01*
X20581Y-679D01*
X20726Y-799D01*
X20892Y-887D01*
X21072Y-942D01*
X21260Y-960D01*
X21447Y-942D01*
X21627Y-887D01*
X21793Y-799D01*
X21939Y-679D01*
X22058Y-534D01*
X22147Y-368D01*
X22202Y-187D01*
X22220Y0D01*
X22202Y187D01*
X22147Y368D01*
X22058Y534D01*
X21939Y679D01*
X21793Y799D01*
X21627Y887D01*
X21447Y942D01*
X21260Y960D01*
D02*
G37*
G36*
X-8454Y-4329D02*
Y-4556D01*
X-8246D01*
Y-4329D01*
X-8454D01*
D02*
G37*
G36*
X-9055Y468D02*
X-9176Y452D01*
X-9289Y405D01*
X-9386Y331D01*
X-9460Y234D01*
X-9507Y121D01*
X-9523Y0D01*
X-9507Y-121D01*
X-9460Y-234D01*
X-9386Y-331D01*
X-9324Y-378D01*
Y-2657D01*
Y-3189D01*
X-9315Y-3259D01*
X-9302Y-3290D01*
Y-3594D01*
X-8808D01*
Y-3290D01*
X-8795Y-3259D01*
X-8786Y-3189D01*
Y-2657D01*
Y-378D01*
X-8724Y-331D01*
X-8650Y-234D01*
X-8603Y-121D01*
X-8587Y0D01*
X-8603Y121D01*
X-8650Y234D01*
X-8724Y331D01*
X-8821Y405D01*
X-8934Y452D01*
X-9055Y468D01*
D02*
G37*
G36*
X-39370Y960D02*
X-39557Y942D01*
X-39738Y887D01*
X-39904Y799D01*
X-40049Y679D01*
X-40169Y534D01*
X-40257Y368D01*
X-40312Y187D01*
X-40331Y0D01*
X-40312Y-187D01*
X-40257Y-368D01*
X-40169Y-534D01*
X-40049Y-679D01*
X-39904Y-799D01*
X-39738Y-887D01*
X-39557Y-942D01*
X-39370Y-960D01*
X-39183Y-942D01*
X-39003Y-887D01*
X-38836Y-799D01*
X-38691Y-679D01*
X-38571Y-534D01*
X-38483Y-368D01*
X-38428Y-187D01*
X-38410Y0D01*
X-38428Y187D01*
X-38483Y368D01*
X-38571Y534D01*
X-38691Y679D01*
X-38836Y799D01*
X-39003Y887D01*
X-39183Y942D01*
X-39370Y960D01*
D02*
G37*
G36*
X-8044Y-5372D02*
X-8340D01*
X-8637D01*
Y-5491D01*
Y-5528D01*
X-8340D01*
X-8044D01*
Y-5491D01*
Y-5372D01*
D02*
G37*
G36*
X-9467Y-5924D02*
X-9694D01*
Y-6131D01*
X-9467D01*
Y-5924D01*
D02*
G37*
G36*
X-11270Y-5766D02*
X-11498D01*
Y-5974D01*
X-11270D01*
Y-5766D01*
D02*
G37*
G36*
X-10582D02*
X-10809D01*
Y-5974D01*
X-10582D01*
Y-5766D01*
D02*
G37*
G36*
X7903Y-5916D02*
X7695D01*
Y-6143D01*
X7903D01*
Y-5916D01*
D02*
G37*
G36*
X8210D02*
X8003D01*
Y-6143D01*
X8210D01*
Y-5916D01*
D02*
G37*
G36*
X-9794Y-5924D02*
X-10021D01*
Y-6131D01*
X-9794D01*
Y-5924D01*
D02*
G37*
G36*
X-10943Y-5766D02*
X-11170D01*
Y-5974D01*
X-10943D01*
Y-5766D01*
D02*
G37*
G36*
X8210Y-5589D02*
X8003D01*
Y-5816D01*
X8210D01*
Y-5589D01*
D02*
G37*
G36*
X4576Y-5483D02*
X4349D01*
Y-5691D01*
X4576D01*
Y-5483D01*
D02*
G37*
G36*
X4903D02*
X4676D01*
Y-5691D01*
X4903D01*
Y-5483D01*
D02*
G37*
G36*
X-10254Y-5766D02*
X-10481D01*
Y-5974D01*
X-10254D01*
Y-5766D01*
D02*
G37*
G36*
X6938Y-5727D02*
X6711D01*
Y-5934D01*
X6938D01*
Y-5727D01*
D02*
G37*
G36*
X7903Y-5589D02*
X7695D01*
Y-5816D01*
X7903D01*
Y-5589D01*
D02*
G37*
G36*
X5068Y-8987D02*
X4841D01*
Y-9194D01*
X5068D01*
Y-8987D01*
D02*
G37*
G36*
X-10680Y-8876D02*
X-10907D01*
Y-9084D01*
X-10680D01*
Y-8876D01*
D02*
G37*
G36*
X-23160Y-9093D02*
X-23387D01*
Y-9300D01*
X-23160D01*
Y-9093D01*
D02*
G37*
G36*
X-10680Y-9184D02*
X-10907D01*
Y-9391D01*
X-10680D01*
Y-9184D01*
D02*
G37*
G36*
X-10353D02*
X-10580D01*
Y-9391D01*
X-10353D01*
Y-9184D01*
D02*
G37*
G36*
Y-8876D02*
X-10580D01*
Y-9084D01*
X-10353D01*
Y-8876D01*
D02*
G37*
G36*
X5395Y-8680D02*
X5168D01*
Y-8887D01*
X5395D01*
Y-8680D01*
D02*
G37*
G36*
X-21507Y-8534D02*
X-21714D01*
Y-8761D01*
X-21507D01*
Y-8534D01*
D02*
G37*
G36*
X5068Y-8680D02*
X4841D01*
Y-8887D01*
X5068D01*
Y-8680D01*
D02*
G37*
G36*
X14706Y-8810D02*
X14499D01*
Y-9037D01*
X14706D01*
Y-8810D01*
D02*
G37*
G36*
X-5890Y-8659D02*
X-6177D01*
Y-8985D01*
X-5890D01*
Y-8659D01*
D02*
G37*
G36*
X-5831Y-9178D02*
X-6039D01*
Y-9406D01*
X-5831D01*
Y-9178D01*
D02*
G37*
G36*
X-21160Y-9989D02*
X-21556D01*
Y-10483D01*
X-21492D01*
X-21479Y-10533D01*
X-21517Y-10571D01*
X-22863D01*
Y-10501D01*
X-23357D01*
Y-10956D01*
X-22863D01*
Y-10814D01*
X-22854Y-10808D01*
X-22841Y-10795D01*
X-21470D01*
X-21470Y-10795D01*
X-21427Y-10787D01*
X-21391Y-10762D01*
X-21279Y-10650D01*
X-21279Y-10650D01*
X-21255Y-10614D01*
X-21246Y-10571D01*
X-21246Y-10571D01*
Y-10483D01*
X-21160D01*
Y-9989D01*
D02*
G37*
G36*
X-23160Y-10227D02*
X-23387D01*
Y-10435D01*
X-23160D01*
Y-10227D01*
D02*
G37*
G36*
X6084Y-10503D02*
X5857D01*
Y-10710D01*
X6084D01*
Y-10503D01*
D02*
G37*
G36*
X-24066Y-10422D02*
X-24381D01*
Y-10895D01*
X-24066D01*
Y-10422D01*
D02*
G37*
G36*
X-23650D02*
X-23966D01*
Y-10895D01*
X-23650D01*
Y-10422D01*
D02*
G37*
G36*
X-22833Y-10227D02*
X-23060D01*
Y-10435D01*
X-22833D01*
Y-10227D01*
D02*
G37*
G36*
X-23160Y-9400D02*
X-23387D01*
Y-9608D01*
X-23160D01*
Y-9400D01*
D02*
G37*
G36*
X-22833D02*
X-23060D01*
Y-9608D01*
X-22833D01*
Y-9400D01*
D02*
G37*
G36*
X-22833Y-9920D02*
X-23060D01*
Y-10127D01*
X-22833D01*
Y-9920D01*
D02*
G37*
G36*
X6084Y-10195D02*
X5857D01*
Y-10403D01*
X6084D01*
Y-10195D01*
D02*
G37*
G36*
X-23160Y-9920D02*
X-23387D01*
Y-10127D01*
X-23160D01*
Y-9920D01*
D02*
G37*
G36*
X-17668Y-7656D02*
X-17895D01*
Y-7863D01*
X-17668D01*
Y-7656D01*
D02*
G37*
G36*
X-17341D02*
X-17568D01*
Y-7863D01*
X-17341D01*
Y-7656D01*
D02*
G37*
G36*
X-18456Y-7816D02*
X-18624D01*
Y-8033D01*
X-18456D01*
Y-7816D01*
D02*
G37*
G36*
X-18187D02*
X-18356D01*
Y-8033D01*
X-18187D01*
Y-7816D01*
D02*
G37*
G36*
Y-7498D02*
X-18356D01*
Y-7716D01*
X-18187D01*
Y-7498D01*
D02*
G37*
G36*
X-5121Y-7367D02*
Y-7693D01*
X-4835D01*
Y-7367D01*
X-5121D01*
D02*
G37*
G36*
X1920Y-7332D02*
X1426D01*
Y-7386D01*
X1102D01*
X1036Y-7399D01*
X980Y-7436D01*
X971Y-7445D01*
X895Y-7461D01*
X818Y-7511D01*
X768Y-7587D01*
X750Y-7677D01*
X768Y-7767D01*
X818Y-7843D01*
X895Y-7894D01*
X984Y-7912D01*
X1074Y-7894D01*
X1150Y-7843D01*
X1201Y-7767D01*
X1208Y-7732D01*
X1426D01*
Y-7787D01*
X1920D01*
Y-7732D01*
X2444D01*
X2450Y-7736D01*
Y-7826D01*
X2905D01*
Y-7332D01*
X2450D01*
Y-7386D01*
X1920D01*
Y-7332D01*
D02*
G37*
G36*
X-18456Y-7498D02*
X-18624D01*
Y-7716D01*
X-18456D01*
Y-7498D01*
D02*
G37*
G36*
X-17668Y-7963D02*
X-17895D01*
Y-8171D01*
X-17668D01*
Y-7963D01*
D02*
G37*
G36*
X-5890Y-8233D02*
X-6177D01*
Y-8559D01*
X-5890D01*
Y-8233D01*
D02*
G37*
G36*
X-21199Y-8207D02*
X-21407D01*
Y-8434D01*
X-21199D01*
Y-8207D01*
D02*
G37*
G36*
X-21507D02*
X-21714D01*
Y-8434D01*
X-21507D01*
Y-8207D01*
D02*
G37*
G36*
X-4835Y-7793D02*
X-5121D01*
Y-8119D01*
X-4835D01*
Y-7793D01*
D02*
G37*
G36*
X-21199Y-8534D02*
X-21407D01*
Y-8761D01*
X-21199D01*
Y-8534D01*
D02*
G37*
G36*
X-17341Y-7963D02*
X-17568D01*
Y-8171D01*
X-17341D01*
Y-7963D01*
D02*
G37*
%LPD*%
G36*
X-10779Y-6802D02*
X-10491D01*
X-10270Y-7023D01*
Y-7087D01*
X-10260Y-7137D01*
X-10231Y-7180D01*
X-9949Y-7463D01*
X-9906Y-7491D01*
X-9855Y-7501D01*
X-9259D01*
Y-7507D01*
X-9250Y-7549D01*
X-9248Y-7554D01*
X-9274Y-7604D01*
X-9326D01*
Y-7628D01*
X-9376Y-7650D01*
X-9423Y-7640D01*
X-9511D01*
Y-7782D01*
X-9561D01*
Y-7832D01*
X-9843D01*
X-9865Y-7867D01*
X-10085D01*
X-10177Y-7775D01*
X-10213Y-7751D01*
X-10256Y-7742D01*
X-10256Y-7742D01*
X-10383D01*
Y-7627D01*
X-10877D01*
Y-8082D01*
X-10387D01*
X-10355Y-8120D01*
X-10590Y-8355D01*
X-10877D01*
Y-8430D01*
X-10934D01*
X-10956Y-8397D01*
X-10983Y-8379D01*
Y-6802D01*
X-10973D01*
Y-6694D01*
X-10779D01*
Y-6802D01*
D02*
G37*
G36*
X-8127Y-8673D02*
X-8084Y-8681D01*
X-8031D01*
X-8026Y-8688D01*
X-7161Y-9553D01*
X-7161Y-9553D01*
X-7136Y-9570D01*
X-6584Y-10122D01*
X-6584Y-10122D01*
X-6548Y-10146D01*
X-6505Y-10155D01*
X-6505Y-10155D01*
X-6331D01*
X-6312Y-10201D01*
X-6778Y-10667D01*
X-7400D01*
Y-10562D01*
X-7954D01*
Y-10667D01*
X-8089D01*
Y-10562D01*
X-8643D01*
Y-10667D01*
X-8847D01*
X-9016Y-10498D01*
Y-10165D01*
X-8972Y-10142D01*
X-8948Y-10158D01*
X-8858Y-10175D01*
X-8769Y-10158D01*
X-8692Y-10107D01*
X-8663Y-10063D01*
X-8613Y-10063D01*
Y-10188D01*
X-8119D01*
Y-9733D01*
X-8238D01*
X-8242Y-9716D01*
X-8270Y-9673D01*
X-8424Y-9519D01*
Y-9331D01*
X-8378Y-9311D01*
X-7924Y-9765D01*
Y-10188D01*
X-7430D01*
Y-9733D01*
X-7659D01*
X-7660Y-9724D01*
X-7685Y-9688D01*
X-7685Y-9688D01*
X-8249Y-9123D01*
X-8249Y-9121D01*
Y-8845D01*
X-8257Y-8803D01*
X-8260Y-8798D01*
X-8233Y-8748D01*
X-8181D01*
Y-8697D01*
X-8131Y-8670D01*
X-8127Y-8673D01*
D02*
G37*
G36*
X11819Y-9922D02*
X11856Y-9946D01*
X11899Y-9955D01*
X11899Y-9955D01*
X12022D01*
X12022Y-9955D01*
X12095D01*
Y-10090D01*
X12499D01*
X12503Y-10108D01*
X12527Y-10145D01*
X12592Y-10209D01*
X12592Y-10209D01*
X12628Y-10233D01*
X12671Y-10242D01*
X12671Y-10242D01*
X12684D01*
X12692Y-10279D01*
X12716Y-10316D01*
X12736Y-10335D01*
X12736Y-10335D01*
X12772Y-10360D01*
X12804Y-10366D01*
Y-10976D01*
X12942D01*
X12978Y-11004D01*
X12987Y-11047D01*
X13011Y-11083D01*
X13039Y-11111D01*
X13039Y-11111D01*
X13053Y-11120D01*
X13038Y-11170D01*
X12864D01*
X12717Y-11023D01*
X12681Y-10999D01*
X12638Y-10990D01*
X12638Y-10990D01*
X12550D01*
Y-10875D01*
X12100D01*
Y-10809D01*
X12253D01*
Y-10551D01*
Y-10294D01*
X12026D01*
Y-10532D01*
X11980Y-10551D01*
X11682Y-10253D01*
X11675Y-10249D01*
X11709Y-10198D01*
X11711Y-10186D01*
X11205D01*
Y-10086D01*
X11711D01*
X11709Y-10074D01*
X11674Y-10021D01*
X11670Y-10005D01*
X11681Y-9989D01*
X11691Y-9939D01*
X11681Y-9889D01*
X11675Y-9880D01*
X11674Y-9878D01*
X11685Y-9858D01*
X11746Y-9849D01*
X11819Y-9922D01*
D02*
G37*
G36*
X14320Y-7727D02*
X14814D01*
Y-7444D01*
X14860Y-7425D01*
X15643Y-8208D01*
X15624Y-8254D01*
X14844D01*
Y-8101D01*
X14567D01*
Y-8051D01*
X14517D01*
Y-7794D01*
X14290D01*
Y-7908D01*
X14252Y-7939D01*
X14125D01*
Y-7824D01*
X13822D01*
X13795Y-7774D01*
X13804Y-7759D01*
X13811Y-7727D01*
X14125D01*
Y-7345D01*
X14320D01*
Y-7727D01*
D02*
G37*
G36*
X13397Y-8972D02*
Y-9141D01*
X13410Y-9207D01*
X13448Y-9264D01*
X13894Y-9710D01*
Y-10254D01*
X13731D01*
Y-10630D01*
X13631D01*
Y-10254D01*
X13365D01*
Y-10284D01*
X13104D01*
Y-10256D01*
X13096Y-10213D01*
X13071Y-10177D01*
X13061Y-10170D01*
X13076Y-10120D01*
X13132D01*
Y-9893D01*
X12874D01*
Y-9843D01*
X12824D01*
Y-9565D01*
X12617D01*
Y-9714D01*
X12567Y-9740D01*
X12550Y-9729D01*
Y-9595D01*
X12095D01*
Y-9730D01*
X12022D01*
X12022Y-9730D01*
X12022Y-9730D01*
X11945D01*
X11725Y-9511D01*
X11726Y-9503D01*
X11736Y-9484D01*
X11754Y-9461D01*
X12187D01*
X12187Y-9461D01*
X12230Y-9452D01*
X12266Y-9428D01*
X12382Y-9312D01*
X12389Y-9302D01*
X12577D01*
Y-9332D01*
X12844D01*
Y-8957D01*
X12894D01*
Y-8907D01*
X13210D01*
Y-8851D01*
X13256Y-8832D01*
X13397Y-8972D01*
D02*
G37*
G36*
X7338Y-10889D02*
X7275Y-10951D01*
X7251Y-10987D01*
X7242Y-11030D01*
X7242Y-11030D01*
Y-11693D01*
X5728Y-13208D01*
X5703Y-13244D01*
X5702Y-13252D01*
X5652Y-13279D01*
X5644Y-13275D01*
X5624Y-13255D01*
Y-11231D01*
X6054D01*
Y-11136D01*
X6104D01*
X6155Y-11126D01*
X6198Y-11098D01*
X6437Y-10859D01*
X6795D01*
X6800Y-10858D01*
X7150D01*
X7200Y-10848D01*
X7214Y-10839D01*
X7317D01*
X7338Y-10889D01*
D02*
G37*
%LPC*%
G36*
X-10680Y-7046D02*
X-10907D01*
Y-7253D01*
X-10680D01*
Y-7046D01*
D02*
G37*
G36*
X12580Y-10294D02*
X12353D01*
Y-10501D01*
X12580D01*
Y-10294D01*
D02*
G37*
G36*
X-8416Y-10254D02*
X-8643D01*
Y-10462D01*
X-8416D01*
Y-10254D01*
D02*
G37*
G36*
X-10680Y-7353D02*
X-10907D01*
Y-7561D01*
X-10680D01*
Y-7353D01*
D02*
G37*
G36*
X12580Y-10601D02*
X12353D01*
Y-10809D01*
X12580D01*
Y-10601D01*
D02*
G37*
G36*
X-10353Y-7353D02*
X-10580D01*
Y-7561D01*
X-10353D01*
Y-7353D01*
D02*
G37*
G36*
X13132Y-9565D02*
X12924D01*
Y-9793D01*
X13132D01*
Y-9565D01*
D02*
G37*
G36*
X-9611Y-7640D02*
X-9699D01*
X-9753Y-7651D01*
X-9799Y-7682D01*
X-9830Y-7728D01*
X-9831Y-7732D01*
X-9611D01*
Y-7640D01*
D02*
G37*
G36*
X13210Y-9007D02*
X12944D01*
Y-9332D01*
X13210D01*
Y-9007D01*
D02*
G37*
G36*
X14844Y-7794D02*
X14617D01*
Y-8001D01*
X14844D01*
Y-7794D01*
D02*
G37*
G36*
X-7727Y-10254D02*
X-7954D01*
Y-10462D01*
X-7727D01*
Y-10254D01*
D02*
G37*
G36*
X-8089D02*
X-8316D01*
Y-10462D01*
X-8089D01*
Y-10254D01*
D02*
G37*
G36*
X-10353Y-7046D02*
X-10580D01*
Y-7253D01*
X-10353D01*
Y-7046D01*
D02*
G37*
G36*
X-7400Y-10254D02*
X-7627D01*
Y-10462D01*
X-7400D01*
Y-10254D01*
D02*
G37*
%LPD*%
D10*
X2677Y-7579D02*
D03*
X3228D02*
D03*
X13012Y-11417D02*
D03*
X13563D02*
D03*
X-9055Y-2657D02*
D03*
X-8504D02*
D03*
X-8380Y-6601D02*
D03*
X-8931D02*
D03*
X10709Y-12598D02*
D03*
X10157D02*
D03*
X-5781Y-6896D02*
D03*
X-5230D02*
D03*
X-5230Y-9456D02*
D03*
X-5781D02*
D03*
X-9055Y-4606D02*
D03*
X-8504D02*
D03*
X-22008Y-8484D02*
D03*
X-21457D02*
D03*
X-10807Y-22244D02*
D03*
X-10256D02*
D03*
X12323Y-9843D02*
D03*
X12874D02*
D03*
X7953Y-5866D02*
D03*
X8504D02*
D03*
X14449Y-8760D02*
D03*
X13898D02*
D03*
X-19075Y-6909D02*
D03*
X-18524D02*
D03*
X-20551D02*
D03*
X-20000D02*
D03*
X6083Y-4528D02*
D03*
X5531D02*
D03*
X-10807Y-22933D02*
D03*
X-10256D02*
D03*
D11*
X4035Y-6988D02*
D03*
Y-7579D02*
D03*
D12*
X1673Y-7008D02*
D03*
Y-7559D02*
D03*
X-10630Y-7303D02*
D03*
Y-7854D02*
D03*
X-9055Y-3917D02*
D03*
Y-3366D02*
D03*
X-10630Y-9134D02*
D03*
Y-8583D02*
D03*
X-7677Y-10512D02*
D03*
Y-9961D02*
D03*
X-8366Y-10512D02*
D03*
Y-9961D02*
D03*
X-6666Y-6429D02*
D03*
Y-6980D02*
D03*
X-7474Y-6424D02*
D03*
Y-6975D02*
D03*
X-10531Y-6024D02*
D03*
Y-6575D02*
D03*
X-11220Y-6024D02*
D03*
Y-6575D02*
D03*
X-9744Y-6181D02*
D03*
Y-5630D02*
D03*
X-23110Y-8799D02*
D03*
Y-9350D02*
D03*
X-20669Y-12382D02*
D03*
Y-11831D02*
D03*
X-23130Y-11988D02*
D03*
Y-11437D02*
D03*
X-17618Y-8465D02*
D03*
Y-7913D02*
D03*
X5118Y-8937D02*
D03*
Y-8386D02*
D03*
X12500Y-7500D02*
D03*
Y-8051D02*
D03*
X12303Y-10551D02*
D03*
Y-11102D02*
D03*
X6988Y-5984D02*
D03*
Y-5433D02*
D03*
X4626Y-5433D02*
D03*
Y-5984D02*
D03*
X13189Y-7500D02*
D03*
Y-8051D02*
D03*
X5807Y-11004D02*
D03*
Y-10453D02*
D03*
X13878Y-7500D02*
D03*
Y-8051D02*
D03*
X14567Y-7500D02*
D03*
Y-8051D02*
D03*
X-23110Y-10728D02*
D03*
Y-10177D02*
D03*
X-8663Y-21305D02*
D03*
Y-20754D02*
D03*
X-21329Y-24382D02*
D03*
Y-23831D02*
D03*
X-20049Y-24382D02*
D03*
Y-23831D02*
D03*
X-18894Y-24339D02*
D03*
Y-23787D02*
D03*
X-17687Y-24329D02*
D03*
Y-23778D02*
D03*
X-9451Y-21305D02*
D03*
Y-20754D02*
D03*
X5118Y-7559D02*
D03*
Y-7008D02*
D03*
D13*
X-18799Y-12156D02*
D03*
X-19173Y-11270D02*
D03*
X-18425D02*
D03*
X-9057Y-22555D02*
D03*
X-8683Y-23441D02*
D03*
X-9431D02*
D03*
D14*
X-5840Y-8609D02*
D03*
Y-7743D02*
D03*
X-5171D02*
D03*
Y-8609D02*
D03*
D15*
X-8340Y-5322D02*
D03*
Y-5578D02*
D03*
Y-5833D02*
D03*
X-9049D02*
D03*
Y-5578D02*
D03*
Y-5322D02*
D03*
D16*
X12303Y-8957D02*
D03*
X12894D02*
D03*
X13091Y-10630D02*
D03*
X13681D02*
D03*
D17*
X-18780Y-8612D02*
D03*
X-19154Y-7766D02*
D03*
X-18406D02*
D03*
X-20276Y-8612D02*
D03*
X-20650Y-7766D02*
D03*
X-19902D02*
D03*
X-20256Y-10187D02*
D03*
X-20630Y-9341D02*
D03*
X-19882D02*
D03*
X-18799Y-10167D02*
D03*
X-19173Y-9321D02*
D03*
X-18425D02*
D03*
D18*
X-21949Y-12274D02*
D03*
X-22323Y-11348D02*
D03*
X-21575D02*
D03*
D19*
X-21253Y-25400D02*
D03*
Y-26187D02*
D03*
X-20057Y-25400D02*
D03*
Y-26187D02*
D03*
X-18947Y-25356D02*
D03*
Y-26144D02*
D03*
X-17724Y-25346D02*
D03*
Y-26134D02*
D03*
D20*
X-19783Y-11043D02*
D03*
Y-12185D02*
D03*
X-24016Y-10945D02*
D03*
Y-12087D02*
D03*
D21*
X-21358Y-9291D02*
D03*
X-21732D02*
D03*
X-22106D02*
D03*
Y-10236D02*
D03*
X-21358D02*
D03*
D22*
X11205Y-10726D02*
D03*
Y-10530D02*
D03*
Y-10333D02*
D03*
Y-10136D02*
D03*
Y-9545D02*
D03*
Y-9348D02*
D03*
Y-9152D02*
D03*
Y-8955D02*
D03*
Y-8758D02*
D03*
Y-8561D02*
D03*
Y-8364D02*
D03*
Y-8167D02*
D03*
Y-7970D02*
D03*
Y-7774D02*
D03*
X6795D02*
D03*
Y-7970D02*
D03*
Y-8167D02*
D03*
Y-8364D02*
D03*
Y-8561D02*
D03*
Y-8758D02*
D03*
Y-8955D02*
D03*
Y-9152D02*
D03*
Y-9348D02*
D03*
Y-9545D02*
D03*
Y-9742D02*
D03*
Y-9939D02*
D03*
Y-10136D02*
D03*
Y-10333D02*
D03*
Y-10530D02*
D03*
Y-10726D02*
D03*
X11205Y-9939D02*
D03*
Y-9742D02*
D03*
D23*
X10476Y-7045D02*
D03*
X10280D02*
D03*
X10083D02*
D03*
X9886D02*
D03*
X9689D02*
D03*
X9492D02*
D03*
X9295D02*
D03*
X9098D02*
D03*
X8902D02*
D03*
X8705D02*
D03*
X8508D02*
D03*
X8311D02*
D03*
X8114D02*
D03*
X7917D02*
D03*
X7720D02*
D03*
X7524D02*
D03*
Y-11455D02*
D03*
X7720D02*
D03*
X7917D02*
D03*
X8114D02*
D03*
X8311D02*
D03*
X8508D02*
D03*
X8705D02*
D03*
X8902D02*
D03*
X9098D02*
D03*
X9295D02*
D03*
X9492D02*
D03*
X9689D02*
D03*
X9886D02*
D03*
X10083D02*
D03*
X10280D02*
D03*
X10476D02*
D03*
D24*
X-8754Y-8176D02*
D03*
D25*
X-9561Y-8570D02*
D03*
Y-8373D02*
D03*
Y-8176D02*
D03*
Y-7979D02*
D03*
Y-7782D02*
D03*
X-7947D02*
D03*
Y-7979D02*
D03*
Y-8176D02*
D03*
Y-8373D02*
D03*
Y-8570D02*
D03*
D26*
X-9147Y-7369D02*
D03*
X-8951D02*
D03*
X-8754D02*
D03*
X-8557D02*
D03*
X-8360D02*
D03*
Y-8983D02*
D03*
X-8557D02*
D03*
X-8754D02*
D03*
X-8951D02*
D03*
X-9147D02*
D03*
D27*
X-9478Y-24584D02*
D03*
X-9168D02*
D03*
X-8858D02*
D03*
X-8548D02*
D03*
X-8238D02*
D03*
D28*
X-10608Y-24604D02*
D03*
X-7108Y-26774D02*
D03*
X-10608D02*
D03*
X-7108Y-24604D02*
D03*
D29*
X6240Y-5945D02*
D03*
X5374D02*
D03*
Y-5276D02*
D03*
X6240D02*
D03*
D30*
X-9055Y-22553D02*
Y-21949D01*
X13502Y-11319D02*
X13563D01*
X13215Y-11032D02*
X13502Y-11319D01*
X13563Y-11417D02*
Y-11319D01*
X13296Y-11640D02*
Y-11445D01*
X13565Y-11909D02*
X13681D01*
X13296Y-11640D02*
X13565Y-11909D01*
X7291Y-13563D02*
Y-12873D01*
X6976Y-13878D02*
X7291Y-13563D01*
X6594Y-13878D02*
X6976D01*
X5807D02*
Y-13287D01*
X5217Y-13878D02*
Y-9923D01*
X6354Y-8786D01*
X4626Y-13878D02*
Y-10090D01*
X-8847Y-20570D02*
Y-19803D01*
Y-20570D02*
X-8663Y-20754D01*
X-9331Y-20634D02*
Y-19803D01*
X-9451Y-20754D02*
X-9331Y-20634D01*
X-11116Y-6581D02*
X-10525D01*
X-6732Y-10779D02*
X-6145Y-10193D01*
X-8894Y-10779D02*
X-6732D01*
X-9128Y-10545D02*
X-8894Y-10779D01*
X-6500Y-10929D02*
X-6102Y-10532D01*
X-8956Y-10929D02*
X-6500D01*
X-9278Y-10607D02*
X-8956Y-10929D01*
X-6066Y-11079D02*
X-5330Y-10343D01*
X-9018Y-11079D02*
X-6066D01*
X-9428Y-10669D02*
X-9018Y-11079D01*
X-6004Y-11229D02*
X-5268Y-10493D01*
X-9080Y-11229D02*
X-6004D01*
X-9578Y-10731D02*
X-9080Y-11229D01*
X7917Y-7540D02*
Y-7045D01*
X8185Y-7807D02*
X8295D01*
X7917Y-7540D02*
X8185Y-7807D01*
X-10608Y-24604D02*
X-10558Y-24554D01*
X-9168Y-24584D02*
Y-23970D01*
X-9431Y-23707D02*
X-9168Y-23970D01*
X-8860Y-23884D02*
X-8683Y-23707D01*
X-8860Y-23884D02*
X-8858Y-23886D01*
Y-24584D02*
Y-23886D01*
X-8683Y-23707D02*
Y-23441D01*
X-8240Y-24051D02*
X-7364Y-23175D01*
X-27754Y-26437D02*
X-27124Y-27067D01*
X-29035Y-27264D02*
X-12878D01*
X-29862Y-26437D02*
X-29035Y-27264D01*
X-12878D02*
X-12032Y-26417D01*
X-861Y-12750D02*
Y-10776D01*
X-2445Y-9191D02*
X-861Y-10776D01*
X-4433Y-9191D02*
X-2445D01*
X-1031Y-12791D02*
Y-10817D01*
X-4371Y-9341D02*
X-2507D01*
X-1181Y-12894D02*
Y-10879D01*
X-4308Y-9491D02*
X-2570D01*
X-1331Y-12956D02*
Y-10941D01*
X-4246Y-9641D02*
X-2632D01*
X-1481Y-13018D02*
Y-11004D01*
X-4184Y-9791D02*
X-2694D01*
X-2507Y-9341D02*
X-1031Y-10817D01*
X-2570Y-9491D02*
X-1181Y-10879D01*
X-2632Y-9641D02*
X-1331Y-10941D01*
X-2694Y-9791D02*
X-1481Y-11004D01*
X-1631Y-13080D02*
Y-11066D01*
X-2756Y-9941D02*
X-1631Y-11066D01*
X-3898Y-9941D02*
X-2756D01*
X-4886Y-10493D02*
X-4184Y-9791D01*
X-4948Y-10343D02*
X-4246Y-9641D01*
X-4860Y-10043D02*
X-4308Y-9491D01*
X-4922Y-9893D02*
X-4371Y-9341D01*
X-4984Y-9743D02*
X-4433Y-9191D01*
X-4416Y-10458D02*
X-3898Y-9941D01*
X-30805Y-26437D02*
X-29862D01*
X-7146Y-7874D02*
X-5971D01*
X-7277Y-7743D02*
X-7146Y-7874D01*
X-7500Y-7743D02*
X-7277D01*
X-7587Y-7829D02*
X-7500Y-7743D01*
X-7723Y-7829D02*
X-7587D01*
X-7770Y-7782D02*
X-7723Y-7829D01*
X-5971Y-7874D02*
X-5840Y-7743D01*
X-8767Y-9160D02*
X-8754D01*
X10083Y-12051D02*
Y-11455D01*
Y-12051D02*
X10138Y-12106D01*
X10156D01*
X10425Y-12376D01*
Y-13689D02*
Y-12376D01*
X10138Y-13976D02*
X10425Y-13689D01*
X725Y-15012D02*
X8303D01*
X9295Y-14020D01*
Y-11455D01*
X9492Y-14035D02*
Y-11455D01*
X8365Y-15162D02*
X9492Y-14035D01*
X663Y-15162D02*
X8365D01*
X9689Y-14050D02*
Y-11455D01*
X8427Y-15312D02*
X9689Y-14050D01*
X601Y-15312D02*
X8427D01*
X8071Y-14862D02*
X8957Y-13976D01*
X787Y-14862D02*
X8071D01*
X-1181Y-12894D02*
X787Y-14862D01*
X-1631Y-13080D02*
X601Y-15312D01*
X-1481Y-13018D02*
X663Y-15162D01*
X-1331Y-12956D02*
X725Y-15012D01*
X869Y-14692D02*
X7848D01*
X-1031Y-12791D02*
X869Y-14692D01*
X931Y-14542D02*
X7616D01*
X-861Y-12750D02*
X931Y-14542D01*
X-5057Y-10043D02*
X-4860D01*
X-5330Y-10343D02*
X-4948D01*
X-5268Y-10493D02*
X-4886D01*
X-5008Y-10827D02*
X-4639Y-10458D01*
X-5217Y-10827D02*
X-5008D01*
X-5304Y-9893D02*
X-4922D01*
X-5366Y-9743D02*
X-4984D01*
X-4639Y-10458D02*
X-4416D01*
X-5207Y-10193D02*
X-5057Y-10043D01*
X-6145Y-10193D02*
X-5207D01*
X-9128Y-10545D02*
Y-9534D01*
X-8848Y-9254D01*
Y-9242D01*
X-8767Y-9160D01*
X-5454Y-10043D02*
X-5304Y-9893D01*
X-5516D02*
X-5366Y-9743D01*
X-5578D02*
X-5415Y-9579D01*
X-5230D01*
X-5500Y-11417D02*
X-5217D01*
X-5906Y-11823D02*
X-5500Y-11417D01*
X-5906Y-13287D02*
Y-11823D01*
X-5217Y-11417D02*
X-4528Y-10728D01*
X-6505Y-10043D02*
X-5454D01*
X-6250Y-9893D02*
X-5516D01*
X-6092Y-9743D02*
X-5578D01*
X-5230Y-9579D02*
Y-9456D01*
X-6858Y-8976D02*
X-6092Y-9743D01*
X-7770Y-8373D02*
X-6250Y-9893D01*
X-9578Y-10731D02*
Y-8587D01*
X-9428Y-10669D02*
Y-9264D01*
X-9278Y-10607D02*
Y-9472D01*
X-8998Y-9192D02*
Y-9147D01*
X-9278Y-9472D02*
X-8998Y-9192D01*
X-9428Y-9264D02*
X-9147Y-8983D01*
X-9578Y-8587D02*
X-9561Y-8570D01*
X-8998Y-9147D02*
X-8965D01*
X-8951Y-9132D01*
Y-8983D01*
X-8754Y-9160D02*
Y-8983D01*
X7616Y-14542D02*
X8988Y-13169D01*
X7848Y-14692D02*
X8957Y-13583D01*
X9886Y-12358D02*
Y-11455D01*
X9868Y-12376D02*
X9886Y-12358D01*
X9868Y-13411D02*
Y-12376D01*
Y-13411D02*
X10039Y-13583D01*
X8988Y-13169D02*
X9035D01*
X-7073Y-9474D02*
X-6505Y-10043D01*
X-7082Y-9474D02*
X-7073D01*
X-7947Y-8609D02*
X-7082Y-9474D01*
X-7947Y-8609D02*
Y-8570D01*
X-8360Y-9171D02*
X-7764Y-9767D01*
X-6858Y-8976D02*
Y-8925D01*
X-10131Y-7979D02*
X-9561D01*
X-10256Y-7854D02*
X-10131Y-7979D01*
X-10630Y-7854D02*
X-10256D01*
X-10046Y-8176D02*
X-9561D01*
X-7607D02*
X-6858Y-8925D01*
X-7947Y-8373D02*
X-7770D01*
X-7947Y-8176D02*
X-7607D01*
X-8557Y-9252D02*
Y-9160D01*
X11516Y-11122D02*
X12461D01*
X12480Y-11102D02*
X12638D01*
X12461Y-11122D02*
X12480Y-11102D01*
X12303D02*
X12480D01*
X10709Y-11929D02*
X11516Y-11122D01*
X12126Y-11102D02*
X12303D01*
X11988Y-10965D02*
X12126Y-11102D01*
X11988Y-10965D02*
Y-10718D01*
X10709Y-12598D02*
Y-11929D01*
X9098Y-13091D02*
Y-11455D01*
X10138Y-13189D02*
Y-12795D01*
X10157Y-12776D01*
Y-12598D01*
X7972Y-12829D02*
X8705Y-12096D01*
Y-11455D01*
X8372Y-9030D02*
X10348D01*
X8295Y-9106D02*
X8372Y-9030D01*
X-5906Y-13287D02*
X-5868Y-13250D01*
X-5951Y-13332D02*
X-5906Y-13287D01*
X-9469Y-5630D02*
X-9416Y-5578D01*
X-9646Y-5630D02*
X-9469D01*
X-9416Y-5578D02*
X-9049D01*
X-8380Y-6601D02*
Y-6018D01*
X-8340Y-5978D02*
Y-5833D01*
X-8380Y-6018D02*
X-8340Y-5978D01*
X-8931Y-6601D02*
Y-6030D01*
X-9055Y-5906D02*
X-8931Y-6030D01*
X19853Y-25594D02*
X19980D01*
X19612Y-25353D02*
Y-17691D01*
Y-25353D02*
X19853Y-25594D01*
X19980Y-25787D02*
Y-25594D01*
X-12894Y-27067D02*
X-11654Y-25827D01*
X-27124Y-27067D02*
X-12894D01*
X7355Y-11740D02*
Y-11030D01*
X5807Y-13287D02*
X7355Y-11740D01*
X19612Y-17691D02*
X19685Y-17618D01*
Y-12303D01*
X15748Y-8366D02*
X19685Y-12303D01*
X19882Y-24016D02*
Y-12288D01*
X20032Y-23784D02*
Y-12226D01*
X20182Y-23722D02*
Y-12164D01*
X14582Y-6988D02*
X19882Y-12288D01*
X14524Y-6718D02*
X20032Y-12226D01*
X14540Y-6522D02*
X20182Y-12164D01*
Y-23722D02*
X20673Y-24213D01*
X20032Y-23784D02*
X20217Y-23969D01*
X20673Y-25190D02*
Y-24213D01*
X20576Y-25287D02*
X20673Y-25190D01*
X20217Y-25051D02*
Y-23969D01*
X9602Y-6522D02*
X14540D01*
X11397Y-6718D02*
X14524D01*
X11713Y-6988D02*
X14582D01*
X14392Y-8366D02*
X15748D01*
X14252Y-8226D02*
X14392Y-8366D01*
X14252Y-8226D02*
Y-8051D01*
X13878D02*
X14252D01*
X19980Y-25287D02*
X20217Y-25051D01*
X20980Y-26067D02*
Y-25787D01*
X20599Y-26448D02*
X20980Y-26067D01*
X14272Y-26448D02*
X20599D01*
X20480Y-25287D02*
X20576D01*
X-13681Y-21555D02*
Y-19390D01*
X-13679Y-19388D01*
X-12750D01*
X-13486Y-21750D02*
X-12750D01*
X-13681Y-21555D02*
X-13486Y-21750D01*
X-5951Y-15605D02*
Y-13332D01*
X-5868Y-13250D02*
X-5250D01*
X-5951Y-15605D02*
X-5943Y-15612D01*
X-5250D01*
X6795Y-10726D02*
X7482D01*
X7579Y-10630D01*
X7454Y-10931D02*
X8282D01*
X7355Y-11030D02*
X7454Y-10931D01*
X7209Y-10530D02*
X7720Y-10018D01*
X6795Y-10530D02*
X7209D01*
X5514Y-6297D02*
X6795Y-7579D01*
X5490Y-6297D02*
X5514D01*
X6795Y-7774D02*
Y-7579D01*
X5374Y-6181D02*
X5490Y-6297D01*
X6324Y-8392D02*
X6768D01*
X4626Y-10090D02*
X6324Y-8392D01*
X6367Y-8561D02*
X6795D01*
X4921Y-10006D02*
X6367Y-8561D01*
X6354Y-8786D02*
X6768D01*
X6051Y-8024D02*
X6102Y-7972D01*
X6793D01*
X5303Y-8447D02*
X5726Y-8024D01*
X5126Y-8270D02*
X5303Y-8447D01*
X5126Y-8270D02*
Y-7522D01*
X6768Y-8392D02*
X6795Y-8364D01*
X6768Y-8786D02*
X6795Y-8758D01*
X5726Y-8024D02*
X6051D01*
X5512Y-9840D02*
X6397Y-8955D01*
X-11142Y-12323D02*
X-11142Y-12323D01*
X-11273Y-11762D02*
X-11142Y-11894D01*
Y-12323D02*
Y-11894D01*
X-21470Y-10683D02*
X-21358Y-10571D01*
X-22888Y-10683D02*
X-21470D01*
X-21358Y-10571D02*
Y-10236D01*
X-22933Y-10728D02*
X-22888Y-10683D01*
X13898Y-8937D02*
X14468Y-9508D01*
Y-11909D02*
Y-9508D01*
X13898Y-8937D02*
Y-8760D01*
X13169Y-11319D02*
X13296Y-11445D01*
X12854Y-11319D02*
X13169D01*
X13118Y-11032D02*
X13215D01*
X13091Y-11004D02*
Y-10630D01*
Y-11004D02*
X13118Y-11032D01*
X12638Y-11102D02*
X12854Y-11319D01*
X9492Y-6632D02*
X9602Y-6522D01*
X10546Y-7569D02*
X11397Y-6718D01*
X13456Y-7233D02*
X14417D01*
X14567Y-7383D01*
X13189Y-7500D02*
X13456Y-7233D01*
X14567Y-7500D02*
Y-7383D01*
X7524Y-7045D02*
Y-5791D01*
X7953Y-6400D02*
Y-5866D01*
X7720Y-6632D02*
X7953Y-6400D01*
X7720Y-7045D02*
Y-6632D01*
X8043Y-6522D02*
X8242D01*
X7917Y-6647D02*
X8043Y-6522D01*
X7917Y-7045D02*
Y-6647D01*
X7720Y-10018D02*
Y-7045D01*
X13878Y-8209D02*
X13898Y-8228D01*
Y-8760D02*
Y-8228D01*
X13878Y-8209D02*
Y-8051D01*
X13287Y-9350D02*
Y-9134D01*
X13110Y-8957D02*
X13287Y-9134D01*
X12894Y-8957D02*
X13110D01*
X12815Y-10256D02*
X12992D01*
X12795Y-10236D02*
X12815Y-10256D01*
X12795Y-10236D02*
Y-10157D01*
X12767Y-10130D02*
X12795Y-10157D01*
X12671Y-10130D02*
X12767D01*
X12607Y-10065D02*
X12671Y-10130D01*
X12607Y-10065D02*
Y-9969D01*
X12480Y-9843D02*
X12607Y-9969D01*
X12992Y-10531D02*
Y-10256D01*
X12323Y-9843D02*
X12480D01*
X13032Y-9843D02*
X13583D01*
X13032Y-9843D02*
X13032Y-9843D01*
X12874Y-9843D02*
X13032D01*
X10236Y-8268D02*
X10498D01*
X10791Y-8561D01*
X11205D01*
X4626Y-4429D02*
Y-4331D01*
X12187Y-9348D02*
X12303Y-9232D01*
X11205Y-9348D02*
X12187D01*
X12303Y-9232D02*
Y-8957D01*
X11899Y-9843D02*
X12022D01*
X12022Y-9843D01*
X12323D01*
X11618Y-9573D02*
Y-9545D01*
X11629Y-9573D02*
X11899Y-9843D01*
X11618Y-9573D02*
X11629D01*
X11205Y-9545D02*
X11618D01*
X11711Y-10136D02*
X12126Y-10551D01*
X11603Y-10333D02*
X11988Y-10718D01*
X11205Y-10333D02*
X11603D01*
X11205Y-10136D02*
X11711D01*
X12126Y-10551D02*
X12303D01*
X9278Y-10459D02*
X10665D01*
X10791Y-10333D01*
X11205D01*
X10718Y-10136D02*
X11205D01*
X10545Y-10309D02*
X10718Y-10136D01*
X9757Y-10309D02*
X10545D01*
X10433Y-10039D02*
X10533Y-9939D01*
X10143Y-9739D02*
X10557D01*
X9584Y-10136D02*
X9757Y-10309D01*
X9252Y-10433D02*
X9278Y-10459D01*
X10236Y-8760D02*
X11205D01*
X7972Y-13484D02*
Y-12829D01*
X7579Y-13780D02*
Y-12797D01*
X8508Y-11868D01*
Y-11455D01*
X7291Y-12873D02*
X8114Y-12050D01*
X6988Y-12964D02*
X7917Y-12034D01*
X6988Y-13484D02*
Y-12964D01*
X7917Y-12034D02*
Y-11455D01*
X8114Y-12050D02*
Y-11455D01*
X6102Y-13484D02*
Y-13469D01*
X5512Y-13484D02*
Y-13287D01*
X5512Y-13287D02*
X5512Y-13287D01*
X4921Y-13484D02*
X4921Y-13484D01*
X4921Y-13484D02*
Y-10006D01*
X8812Y-9180D02*
X10410D01*
X8295Y-9697D02*
X8812Y-9180D01*
X10438Y-9152D02*
X11205D01*
X10410Y-9180D02*
X10438Y-9152D01*
X10423Y-8955D02*
X11205D01*
X10348Y-9030D02*
X10423Y-8955D01*
X11813Y-8364D02*
X11909Y-8268D01*
X11205Y-8364D02*
X11813D01*
X-25000Y-8563D02*
X-23346Y-6909D01*
X-20551D01*
X-25000Y-11250D02*
Y-8563D01*
X-39250Y-25500D02*
X-25000Y-11250D01*
X-27754Y-26437D02*
Y-23878D01*
X7693Y-11483D02*
X7720Y-11455D01*
X7693Y-11879D02*
Y-11483D01*
X8283Y-11041D02*
X8311D01*
X8282Y-10931D02*
X8283Y-10933D01*
Y-11041D02*
Y-10933D01*
X8311Y-11455D02*
Y-11041D01*
X-7016Y-21825D02*
X-6600D01*
X9012Y-7569D02*
X10546D01*
X8902Y-7459D02*
X9012Y-7569D01*
X8902Y-7459D02*
Y-7045D01*
X-7364Y-22112D02*
X-7080D01*
Y-21889D01*
X-7016Y-21825D01*
X7720Y-10018D02*
X7839Y-10136D01*
X-20957Y-26187D02*
X-20669Y-25899D01*
X-21253Y-26187D02*
X-20957D01*
X-19761D02*
Y-26100D01*
X-20057Y-26187D02*
X-19761D01*
X-18652Y-26144D02*
Y-26093D01*
X-18346Y-25787D01*
X-18947Y-26144D02*
X-18652D01*
X-17724Y-26409D02*
Y-26134D01*
X-7389Y-8013D02*
X-6588Y-8813D01*
X-8144Y-5578D02*
Y-5322D01*
X-8055Y-1395D02*
Y-1000D01*
X-7474Y-7427D02*
Y-6975D01*
Y-7427D02*
X-7461Y-7441D01*
X-7422Y-7979D02*
X-7389Y-8013D01*
X-7947Y-7979D02*
X-7422D01*
X14272Y-26448D02*
Y-23889D01*
X-7364Y-22821D02*
Y-22270D01*
X-9431Y-23707D02*
Y-23441D01*
X-8663Y-21503D02*
Y-21305D01*
X-8683Y-21522D02*
X-8663Y-21503D01*
X-8683Y-23441D02*
Y-21522D01*
X-9451Y-21503D02*
Y-21305D01*
Y-21503D02*
X-9431Y-21522D01*
Y-23441D02*
Y-21522D01*
X-21329Y-24539D02*
Y-24382D01*
Y-24539D02*
X-21253Y-24615D01*
Y-25124D02*
Y-24615D01*
X-20057Y-25400D02*
Y-25124D01*
X-20049Y-25117D01*
Y-24539D01*
X-18894Y-25028D02*
Y-24339D01*
X-18947Y-25081D02*
X-18894Y-25028D01*
X-17687Y-25033D02*
Y-24329D01*
X-17724Y-25071D02*
X-17687Y-25033D01*
X-10959Y-6030D02*
X-10506D01*
X-8931Y-6601D02*
X-8754Y-6778D01*
Y-7369D02*
Y-6778D01*
X-8557D02*
X-8380Y-6601D01*
X-8557Y-7369D02*
Y-6778D01*
X-5230Y-7074D02*
Y-6896D01*
Y-7074D02*
X-5171Y-7133D01*
Y-7741D02*
Y-7133D01*
X-5635Y-8129D02*
X-5559D01*
X-5840Y-8333D02*
X-5635Y-8129D01*
X-5559D02*
X-5171Y-7741D01*
X-5781Y-7074D02*
Y-6896D01*
X-5840Y-7133D02*
X-5781Y-7074D01*
X-5840Y-7467D02*
Y-7133D01*
X-8360Y-7369D02*
X-8045D01*
X-7651Y-6975D01*
X-6848D02*
X-6843Y-6980D01*
X-7651Y-6975D02*
X-7474D01*
X-6848D01*
X-7292Y-6429D02*
X-6666D01*
X-8144Y-5578D02*
X-8144D01*
X-6666Y-6429D02*
X-5520D01*
X-5230Y-6719D01*
X-7764Y-9924D02*
Y-9767D01*
X-8360Y-9171D02*
Y-9160D01*
X-8187Y-10476D02*
X-7764D01*
X-5171Y-9219D02*
Y-8609D01*
X-5230Y-9278D02*
X-5171Y-9219D01*
X-8144Y-5578D02*
X-7292Y-6429D01*
X-19154Y-7766D02*
Y-7598D01*
X-18799Y-7244D01*
Y-6909D01*
X-18524D01*
X-19075Y-7087D02*
Y-6909D01*
X-19783Y-7766D02*
X-19104Y-7087D01*
X-19902Y-7766D02*
X-19783D01*
X-19104Y-7087D02*
X-19075D01*
X-19902Y-7766D02*
Y-7598D01*
X-20000Y-7500D02*
X-19902Y-7598D01*
X-20000Y-7500D02*
Y-6909D01*
X-17724Y-26409D02*
X-17102Y-25787D01*
X-12032Y-26417D02*
X-11614D01*
X6061Y-10530D02*
X6795D01*
X5984Y-10453D02*
X6061Y-10530D01*
X5807Y-10453D02*
X5984D01*
X6102Y-13469D02*
X7693Y-11879D01*
X5512Y-13287D02*
Y-9840D01*
X-20256Y-8780D02*
Y-8612D01*
X-2614Y-26569D02*
X-2546Y-26501D01*
X-3474Y-23150D02*
X-2546Y-24078D01*
X-7587Y-22047D02*
X-7522Y-22112D01*
X-8268Y-22047D02*
X-7587D01*
X-9057Y-22555D02*
X-9055Y-22553D01*
X11217Y-26448D02*
Y-23889D01*
X9445Y-26448D02*
Y-23889D01*
X-19761Y-26100D02*
X-19488Y-25827D01*
X-14886Y-26319D02*
Y-23760D01*
X-7364Y-23175D02*
Y-22998D01*
X-5276Y-23150D02*
X-3474D01*
X9492Y-7045D02*
Y-6632D01*
X8504Y-6260D02*
Y-5866D01*
X8242Y-6522D02*
X8504Y-6260D01*
X7165Y-5433D02*
X7524Y-5791D01*
X6988Y-5433D02*
X7165D01*
X6673D02*
X6988D01*
X6516Y-5276D02*
X6673Y-5433D01*
X6240Y-5276D02*
X6516D01*
X6793Y-7972D02*
X6795Y-7970D01*
X5374Y-6181D02*
Y-5945D01*
X4843D02*
X5374D01*
X4803Y-5984D02*
X4843Y-5945D01*
X4626Y-5984D02*
X4803D01*
X6240Y-5276D02*
Y-5039D01*
X6083Y-4882D02*
X6240Y-5039D01*
X6083Y-4882D02*
Y-4528D01*
X4961Y-5276D02*
X5374D01*
X4803Y-5433D02*
X4961Y-5276D01*
X4626Y-5433D02*
X4803D01*
X6240Y-5945D02*
X6772D01*
X6811Y-5984D01*
X6988D01*
X5374Y-5945D02*
X5650D01*
X5531Y-4766D02*
Y-4528D01*
X6988Y-6693D02*
Y-5984D01*
X6988Y-6693D02*
X6988Y-6693D01*
X5531Y-4766D02*
X5807Y-5041D01*
X5650Y-5945D02*
X5807Y-5787D01*
Y-5041D01*
X6240Y-6634D02*
Y-5945D01*
X6398Y-6791D02*
Y-6693D01*
X6240Y-6634D02*
X6398Y-6791D01*
X-6600Y-21825D02*
X-5276Y-23150D01*
X11217Y-23889D02*
X11802Y-23303D01*
X13687D01*
X14272Y-23889D01*
X11205Y-7774D02*
Y-7693D01*
X11417Y-7480D01*
X12657D02*
X12677Y-7500D01*
X12500D02*
X12677D01*
X13189D01*
X11417Y-7480D02*
X12657D01*
X11205Y-7970D02*
X11618D01*
X11620Y-7972D01*
X11811D01*
X11205Y-7774D02*
X11809D01*
X11811Y-7776D01*
Y-7972D02*
Y-7776D01*
X11909Y-8268D02*
Y-8167D01*
X11205D02*
X11909D01*
X12207D02*
X12323Y-8051D01*
X12500D01*
X11909Y-8167D02*
X12207D01*
X12500Y-8051D02*
X13189D01*
X13366D01*
X13701Y-7717D01*
Y-7500D02*
X13878D01*
X13701Y-7717D02*
Y-7500D01*
X7839Y-10136D02*
X9584D01*
X10533Y-9939D02*
X11205D01*
X10560Y-9742D02*
X11205D01*
X10557Y-9739D02*
X10560Y-9742D01*
X9941Y-9941D02*
X10143Y-9739D01*
D31*
X-10525Y-6581D02*
X-10138Y-6969D01*
X-10531Y-6575D02*
X-10525Y-6581D01*
X-10138Y-7087D02*
X-9855Y-7369D01*
X-10138Y-7087D02*
Y-6969D01*
X-11116Y-8557D02*
Y-6581D01*
X-8858Y-9941D02*
Y-9646D01*
X-8858Y-9646D01*
X-8557Y-9574D02*
Y-9252D01*
Y-9574D02*
X-8364Y-9767D01*
Y-9924D02*
Y-9767D01*
X-11122Y-8563D02*
X-10610D01*
X-11122D02*
X-11116Y-8557D01*
X-10610Y-8563D02*
X-10223Y-8176D01*
X-9855Y-7369D02*
X-9147D01*
X-8951D01*
X-10223Y-8176D02*
X-10046D01*
X-8743Y-9924D02*
X-8364D01*
X4626Y-4429D02*
X4764D01*
X5374Y-5039D01*
Y-5276D02*
Y-5039D01*
X5807Y-11004D02*
X6104D01*
X6382Y-10726D01*
X6795D01*
D32*
X-10728Y-7047D02*
Y-6988D01*
X-11811Y-10236D02*
X-11713Y-10335D01*
Y-18032D02*
Y-10335D01*
Y-18032D02*
X-11516Y-18229D01*
X-12675Y-19388D02*
X-11516Y-18229D01*
X-12750Y-19388D02*
X-12675D01*
X-9974Y-7782D02*
X-9561D01*
X-10453Y-7303D02*
X-9974Y-7782D01*
X-10630Y-7303D02*
X-10453D01*
X-10728Y-7047D02*
X-10630Y-7146D01*
Y-7303D02*
Y-7146D01*
X-10460Y-9134D02*
X-9699Y-8373D01*
X-10630Y-9134D02*
X-10460D01*
X-9699Y-8373D02*
X-9561D01*
D33*
X-10256Y-23807D02*
Y-22933D01*
Y-23807D02*
X-9478Y-24584D01*
X-13134Y-22988D02*
X-10832D01*
X-17867Y-18255D02*
X-13134Y-22988D01*
X-9646Y-6693D02*
Y-6181D01*
X2362Y-19390D02*
X4528Y-17224D01*
X2362Y-22933D02*
Y-19390D01*
X591Y-24705D02*
X2362Y-22933D01*
X7579Y-10630D02*
X7776Y-10433D01*
X9252D01*
X9004Y-8516D02*
X9525D01*
X8295Y-7807D02*
X9004Y-8516D01*
X4919Y-6970D02*
X5805D01*
X4311Y-7579D02*
X4919Y-6970D01*
X4035Y-7579D02*
X4311D01*
X3760Y-7579D02*
X3760Y-7579D01*
X3228Y-7579D02*
X3760D01*
X3760Y-7579D02*
X4035D01*
X2500Y-7559D02*
X2520Y-7579D01*
X2677D01*
X1673Y-7559D02*
X2500D01*
X1102D02*
X1673D01*
X984Y-7677D02*
X1102Y-7559D01*
X-23130Y-12037D02*
X-22441Y-11348D01*
X-22933Y-12598D02*
X-22539D01*
Y-12205D01*
X-21575Y-11299D02*
Y-11063D01*
X-21964D02*
X-21575D01*
X-22134Y-10893D02*
X-21964Y-11063D01*
X-22511Y-10893D02*
X-22134D01*
X-22611Y-10993D02*
X-22511Y-10893D01*
X-21024Y-11319D02*
X-20669Y-11673D01*
X-21555Y-11319D02*
X-21024D01*
X-21575Y-11299D02*
X-21555Y-11319D01*
X-20441Y-9678D02*
X-20104Y-9341D01*
X-20818Y-9678D02*
X-20441D01*
X-18510Y-10451D02*
Y-9931D01*
X-18799Y-10740D02*
X-18510Y-10451D01*
X-18799Y-12156D02*
Y-10740D01*
X-23130Y-12037D02*
Y-11988D01*
Y-12146D02*
Y-12037D01*
X-22933Y-12598D02*
Y-12343D01*
X-23130Y-12146D02*
X-22933Y-12343D01*
X-19370Y-8583D02*
X-19288Y-8500D01*
X-19362Y-8984D02*
X-18985D01*
X-19461Y-9083D02*
X-19362Y-8984D01*
X-19461Y-9122D02*
Y-9083D01*
X14068Y-12704D02*
Y-9639D01*
X9547Y-17224D02*
X14068Y-12704D01*
X13570Y-9141D02*
X14068Y-9639D01*
X4528Y-17224D02*
X9547D01*
X-5315Y-24705D02*
X591D01*
X-6674Y-26064D02*
X-5315Y-24705D01*
X-10550Y-26064D02*
X-6674D01*
X13570Y-9141D02*
Y-8901D01*
X13181Y-8511D02*
X13570Y-8901D01*
X12473Y-8511D02*
X13181D01*
X12303Y-8681D02*
X12473Y-8511D01*
X12303Y-8957D02*
Y-8681D01*
X-23819Y-10138D02*
X-23150D01*
X-23750Y-10994D02*
X-23307Y-11437D01*
X-23750Y-10994D02*
Y-10945D01*
X-24016D02*
X-23750D01*
X-23307Y-11437D02*
X-23130D01*
X-23307Y-11988D02*
X-23130D01*
X-23406Y-12087D02*
X-23307Y-11988D01*
X-24016Y-12087D02*
X-23406D01*
X-19272Y-7766D02*
X-19154D01*
X-19609Y-8103D02*
X-19272Y-7766D01*
X-21457Y-8484D02*
X-20787D01*
X-20174Y-8103D02*
X-19609D01*
X-19288Y-8500D02*
X-15730D01*
X-18628Y-9341D02*
X-18406D01*
X-19882D02*
X-19679D01*
X-21457Y-8661D02*
Y-8484D01*
X-20918Y-9578D02*
X-20818Y-9678D01*
X-20918Y-9578D02*
Y-9341D01*
X-21181D02*
X-20918D01*
X-21230Y-9291D02*
X-21181Y-9341D01*
X-21358Y-9291D02*
X-21230D01*
X-20104Y-9341D02*
X-19882D01*
X-20630D02*
Y-9173D01*
X-20256Y-8799D01*
Y-8780D01*
X-21732Y-9291D02*
Y-8937D01*
X-21457Y-8661D01*
X-22933Y-8799D02*
X-22404Y-9328D01*
X-23110Y-8799D02*
X-22933D01*
X-22106Y-10236D02*
Y-9902D01*
X-19679Y-9341D02*
X-19461Y-9122D01*
X-18985Y-8984D02*
X-18885Y-9083D01*
Y-9083D02*
Y-9083D01*
Y-9083D02*
X-18628Y-9341D01*
X-19173Y-9488D02*
Y-9321D01*
X-18831Y-9830D02*
X-18611D01*
X-18511Y-9930D01*
Y-10074D02*
X-18510Y-10075D01*
Y-10132D02*
X-18504Y-10138D01*
X-19173Y-9488D02*
X-18831Y-9830D01*
X-18511Y-9930D02*
Y-9930D01*
X-20256Y-10187D02*
X-18780D01*
X-18406Y-9653D02*
Y-9341D01*
X-18511Y-10074D02*
Y-9930D01*
X-18510Y-9931D01*
X-18425Y-11548D02*
X-17867Y-12106D01*
X-18425Y-11548D02*
Y-11043D01*
X-17867Y-18255D02*
Y-12106D01*
X-18425Y-10974D02*
Y-10748D01*
X-18234Y-10557D01*
Y-9825D01*
X-18311Y-9748D02*
Y-9748D01*
X-18307Y-9744D01*
X-18311Y-9748D02*
X-18234Y-9825D01*
X-18406Y-9653D02*
X-18311Y-9748D01*
X-23130Y-11437D02*
X-22953D01*
X-22611Y-11095D01*
Y-10993D01*
X-20669Y-11673D02*
X-20669Y-11673D01*
X-20669Y-11811D02*
Y-11673D01*
X-20669Y-11831D02*
Y-11673D01*
X-20049Y-11053D01*
Y-11043D02*
X-20030Y-11024D01*
X-20049Y-11053D02*
Y-11043D01*
Y-12185D02*
X-19783D01*
X-20246Y-12382D02*
X-20049Y-12185D01*
X-20669Y-12382D02*
X-20246D01*
X-21850Y-12254D02*
X-21722Y-12382D01*
X-21850Y-12254D02*
Y-12205D01*
X-21722Y-12382D02*
X-20669D01*
X-22441Y-11348D02*
X-22323D01*
X-10832Y-23702D02*
Y-22988D01*
X-11173Y-24044D02*
X-10832Y-23702D01*
X-11173Y-25441D02*
Y-24044D01*
Y-25441D02*
X-10550Y-26064D01*
X-18799Y-12205D02*
Y-12156D01*
X-19685Y-12510D02*
Y-12205D01*
Y-12510D02*
X-19380Y-12205D01*
X-18799D01*
X-22106Y-9291D02*
Y-8155D01*
X-21593Y-7642D01*
X-20635D01*
X-20174Y-8103D01*
X-21457Y-8484D02*
Y-7972D01*
X-22404Y-9539D02*
Y-9328D01*
Y-9539D02*
X-22106Y-9837D01*
Y-9902D02*
Y-9837D01*
X-21358Y-9469D02*
Y-9291D01*
X-22106Y-9902D02*
X-22047Y-9843D01*
X-21732D01*
X-21358Y-9469D01*
X-23110Y-9350D02*
X-23110Y-9350D01*
X-23819Y-9350D02*
X-23110D01*
X-23150Y-10138D02*
X-23110Y-10177D01*
X-10807Y-22933D02*
Y-22421D01*
X-10807Y-22421D01*
Y-22362D01*
D34*
X-9055Y-5197D02*
X-9055Y-5197D01*
Y-4016D01*
X-9055Y-3189D02*
Y-2657D01*
Y0D01*
D35*
X19980Y-25787D02*
D03*
D36*
Y-25287D02*
D03*
X20480Y-25787D02*
D03*
Y-25287D02*
D03*
X20980Y-25787D02*
D03*
Y-25287D02*
D03*
X21480Y-25787D02*
D03*
Y-25287D02*
D03*
X21980Y-25787D02*
D03*
Y-25287D02*
D03*
D37*
X-30807Y-26614D02*
D03*
Y-24055D02*
D03*
X-29035Y-26614D02*
D03*
Y-24055D02*
D03*
X9449Y-26614D02*
D03*
Y-24055D02*
D03*
X11220Y-26614D02*
D03*
Y-24055D02*
D03*
X-14961Y-26576D02*
D03*
Y-24017D02*
D03*
X-13189Y-26576D02*
D03*
Y-24017D02*
D03*
X-27756Y-26614D02*
D03*
Y-24055D02*
D03*
X-25984Y-26614D02*
D03*
Y-24055D02*
D03*
X12500Y-26614D02*
D03*
Y-24055D02*
D03*
X14272Y-26614D02*
D03*
Y-24055D02*
D03*
X-4429Y-26614D02*
D03*
Y-24055D02*
D03*
X-2657Y-26614D02*
D03*
Y-24055D02*
D03*
X-39250Y-25500D02*
D03*
X-36250D02*
D03*
D38*
X-12750Y-13089D02*
D03*
Y-13876D02*
D03*
Y-14663D02*
D03*
Y-15451D02*
D03*
Y-16238D02*
D03*
Y-17026D02*
D03*
Y-17813D02*
D03*
Y-18600D02*
D03*
Y-19388D02*
D03*
Y-20175D02*
D03*
Y-20963D02*
D03*
Y-21750D02*
D03*
X-5250Y-21911D02*
D03*
Y-21124D02*
D03*
Y-20337D02*
D03*
Y-19549D02*
D03*
Y-18762D02*
D03*
Y-17974D02*
D03*
Y-17187D02*
D03*
Y-16400D02*
D03*
Y-15612D02*
D03*
Y-14825D02*
D03*
Y-14037D02*
D03*
Y-13250D02*
D03*
D39*
X-9055Y0D02*
D03*
X-15730Y-8500D02*
D03*
X-3250D02*
D03*
D40*
X-10055Y1000D02*
D03*
X-8055D02*
D03*
Y-1000D02*
D03*
X-10055D02*
D03*
D41*
X-15608Y-11299D02*
D03*
D42*
X-18110Y-21260D02*
D03*
X-39370D02*
D03*
X-18110Y0D02*
D03*
X-39370D02*
D03*
X0D02*
D03*
X21260D02*
D03*
X0Y-21260D02*
D03*
X21260D02*
D03*
D43*
X-9055Y-21949D02*
D03*
X6594Y-13878D02*
D03*
X5807D02*
D03*
X5217D02*
D03*
X4626D02*
D03*
X-9331Y-19803D02*
D03*
X-10728Y-6988D02*
D03*
X-3740Y-11122D02*
D03*
X-2953D02*
D03*
X-3346D02*
D03*
X-2953Y-10236D02*
D03*
X-3365D02*
D03*
X-3740D02*
D03*
X-9941Y-8957D02*
D03*
Y-9449D02*
D03*
Y-10433D02*
D03*
X-25591Y-13287D02*
D03*
X-4429Y-8563D02*
D03*
X-6594Y-7579D02*
D03*
X-6791Y-5413D02*
D03*
X-11024Y-5020D02*
D03*
X-10335D02*
D03*
X-7579Y-5413D02*
D03*
X10138Y-13976D02*
D03*
X8957D02*
D03*
X-5217Y-10827D02*
D03*
X-4528Y-10728D02*
D03*
X-8858Y-9646D02*
D03*
X10039Y-13583D02*
D03*
X8957D02*
D03*
X-8858Y-10433D02*
D03*
X-11122Y-8563D02*
D03*
X15059Y-8071D02*
D03*
Y-8760D02*
D03*
X1083Y-6988D02*
D03*
X3445D02*
D03*
X4035Y-5413D02*
D03*
X7972Y-5315D02*
D03*
X13780Y-3937D02*
D03*
X9843Y-3937D02*
D03*
X-1969Y-5906D02*
D03*
Y-3937D02*
D03*
X-11319Y-9843D02*
D03*
Y-10827D02*
D03*
X-11811Y-10236D02*
D03*
X-12205Y-12500D02*
D03*
X-9843Y-11122D02*
D03*
Y-12106D02*
D03*
X-14961Y-21850D02*
D03*
X-14272Y-21161D02*
D03*
X-12795Y-23425D02*
D03*
Y-22539D02*
D03*
X-11811D02*
D03*
X-6398Y-8169D02*
D03*
X-6201Y-9252D02*
D03*
X-7185Y-9744D02*
D03*
Y-10335D02*
D03*
X0Y-15256D02*
D03*
X1476Y-14272D02*
D03*
X492Y-13287D02*
D03*
X-6102Y-10532D02*
D03*
X-8858Y-9941D02*
D03*
X8957Y-13091D02*
D03*
X10138Y-13189D02*
D03*
X-5906Y-492D02*
D03*
X-11811D02*
D03*
Y-4921D02*
D03*
X-5906D02*
D03*
X-11811Y-3445D02*
D03*
X-5906D02*
D03*
X-9646Y-6693D02*
D03*
X-7874Y-4528D02*
D03*
X-8465Y-3937D02*
D03*
Y-3346D02*
D03*
X-7874Y-2953D02*
D03*
Y-2362D02*
D03*
Y-1772D02*
D03*
X-8465D02*
D03*
X-9646D02*
D03*
Y-2362D02*
D03*
Y-3150D02*
D03*
Y-3937D02*
D03*
Y-4528D02*
D03*
X3839Y-15650D02*
D03*
X2657D02*
D03*
X2657Y-14272D02*
D03*
X3839D02*
D03*
X3937Y-25591D02*
D03*
X-16535Y-24409D02*
D03*
X-13780D02*
D03*
X-23622Y-24803D02*
D03*
X-26772D02*
D03*
X-29921D02*
D03*
X-33465D02*
D03*
Y-26772D02*
D03*
X-37402D02*
D03*
X-40157D02*
D03*
Y-25197D02*
D03*
Y-22835D02*
D03*
X0Y-9449D02*
D03*
X-787Y-9055D02*
D03*
X-17717Y-10630D02*
D03*
Y-9843D02*
D03*
X-14173Y-10630D02*
D03*
Y-9843D02*
D03*
X-3150Y-7480D02*
D03*
X-1969Y-19685D02*
D03*
X-984Y-14272D02*
D03*
X-1969Y-15748D02*
D03*
X7087Y-17717D02*
D03*
X-1969Y-17717D02*
D03*
X8268Y-16142D02*
D03*
X4331D02*
D03*
X7087D02*
D03*
X7480Y-26378D02*
D03*
X4724Y-24409D02*
D03*
X4724Y-22047D02*
D03*
X7480Y-20079D02*
D03*
X4724D02*
D03*
X7480Y-24409D02*
D03*
Y-22047D02*
D03*
X13780Y-21654D02*
D03*
X9843Y-19685D02*
D03*
X17717Y-23622D02*
D03*
X19685Y-9843D02*
D03*
X15748D02*
D03*
X17717Y-7874D02*
D03*
X-7874Y-13780D02*
D03*
X-8268Y-12205D02*
D03*
X12992Y-12992D02*
D03*
X13780Y-13780D02*
D03*
Y-15748D02*
D03*
X8268Y-17717D02*
D03*
X9843Y-15748D02*
D03*
X2756Y-22441D02*
D03*
X1969D02*
D03*
X1969Y-20866D02*
D03*
X2756D02*
D03*
X3937Y-18504D02*
D03*
X3150Y-17717D02*
D03*
X0Y-24016D02*
D03*
Y-25492D02*
D03*
X-17323Y-13780D02*
D03*
X-18504D02*
D03*
X-16535Y-18898D02*
D03*
X-17323Y-19685D02*
D03*
X-15748D02*
D03*
X-16535Y-20472D02*
D03*
X-18504Y-17717D02*
D03*
Y-15748D02*
D03*
X-17323Y-17717D02*
D03*
Y-15748D02*
D03*
X-15748Y-13780D02*
D03*
X-11811Y-23425D02*
D03*
X-5906Y-23622D02*
D03*
X-7874Y-18898D02*
D03*
X-7480Y-20472D02*
D03*
X-9843Y-19685D02*
D03*
X-9882Y-17717D02*
D03*
X-7874D02*
D03*
X-9843Y-13780D02*
D03*
X-7874Y-15748D02*
D03*
X-9843D02*
D03*
X-25591Y-21654D02*
D03*
X-21654D02*
D03*
Y-19685D02*
D03*
Y-15748D02*
D03*
X-25591D02*
D03*
Y-19685D02*
D03*
X-33465Y-21654D02*
D03*
X-35433Y-19685D02*
D03*
X-37402Y-17717D02*
D03*
Y-13780D02*
D03*
X-33465D02*
D03*
X-31496Y-19685D02*
D03*
X-33465Y-17717D02*
D03*
X-29528D02*
D03*
X-31496Y-15748D02*
D03*
X-29528Y-13780D02*
D03*
X-27559Y-15748D02*
D03*
X-25591Y-9843D02*
D03*
X-37402D02*
D03*
X-29528Y-9843D02*
D03*
X-33465Y-9843D02*
D03*
X11811Y-21654D02*
D03*
Y-17717D02*
D03*
Y-13780D02*
D03*
X13780Y-17717D02*
D03*
X17717Y-19685D02*
D03*
Y-15748D02*
D03*
Y-11811D02*
D03*
X3150Y-9843D02*
D03*
Y-5906D02*
D03*
X11811D02*
D03*
X15748D02*
D03*
X19685D02*
D03*
X21654Y-26772D02*
D03*
Y-22835D02*
D03*
Y-19685D02*
D03*
Y-17717D02*
D03*
Y-15748D02*
D03*
Y-13780D02*
D03*
X21654Y-11811D02*
D03*
X21654Y-9843D02*
D03*
Y-7874D02*
D03*
Y-5906D02*
D03*
Y-3937D02*
D03*
Y-1969D02*
D03*
X17717D02*
D03*
X13780D02*
D03*
X9843D02*
D03*
X5906D02*
D03*
X0Y-5906D02*
D03*
X-3937D02*
D03*
X-13780D02*
D03*
X-17717D02*
D03*
X-21654D02*
D03*
X-25591D02*
D03*
X-37402D02*
D03*
X-29528D02*
D03*
X-33465Y-5906D02*
D03*
X1969Y-1969D02*
D03*
X-1969D02*
D03*
X-5906D02*
D03*
X-11811D02*
D03*
X-15748D02*
D03*
X-19685D02*
D03*
X-23622D02*
D03*
X-27559D02*
D03*
X-31496D02*
D03*
X-35433D02*
D03*
X-40157Y-19685D02*
D03*
Y-17717D02*
D03*
Y-15748D02*
D03*
Y-13780D02*
D03*
Y-11811D02*
D03*
Y-9843D02*
D03*
Y-7874D02*
D03*
Y-5906D02*
D03*
Y-3937D02*
D03*
Y-1969D02*
D03*
X-37402Y787D02*
D03*
X-35433D02*
D03*
X-33465D02*
D03*
X-31496D02*
D03*
X-29528D02*
D03*
X-27559D02*
D03*
X-25591D02*
D03*
X-23622D02*
D03*
X-21654D02*
D03*
X-19685D02*
D03*
X-16929D02*
D03*
X-15748D02*
D03*
X-13780D02*
D03*
X-11811D02*
D03*
X-11024D02*
D03*
X-7087D02*
D03*
X-5906D02*
D03*
X-3937D02*
D03*
X-1969D02*
D03*
X1969D02*
D03*
X19685D02*
D03*
X17717D02*
D03*
X15748D02*
D03*
X13780D02*
D03*
X11811D02*
D03*
X9843D02*
D03*
X7874D02*
D03*
X5906D02*
D03*
X3937D02*
D03*
X3031Y-11142D02*
D03*
X-591Y-11102D02*
D03*
X-5551Y-12677D02*
D03*
X-4921D02*
D03*
X-5610Y-11909D02*
D03*
X-6299D02*
D03*
X-1969Y-11890D02*
D03*
Y-12638D02*
D03*
X-591D02*
D03*
Y-11890D02*
D03*
X5827Y-12638D02*
D03*
X5807Y-11909D02*
D03*
X3051Y-12697D02*
D03*
X3051Y-11909D02*
D03*
X6102Y-7972D02*
D03*
X984Y-7677D02*
D03*
X-11142Y-12323D02*
D03*
X-11273Y-11762D02*
D03*
X-22539Y-12205D02*
D03*
X-19370Y-8583D02*
D03*
X14468Y-11909D02*
D03*
X13681D02*
D03*
X19882Y-24016D02*
D03*
X11713Y-6988D02*
D03*
X13287Y-9350D02*
D03*
X13583Y-9843D02*
D03*
X4626Y-4331D02*
D03*
X10433Y-10039D02*
D03*
X9252Y-10433D02*
D03*
X7972Y-13484D02*
D03*
X7579Y-13780D02*
D03*
X6988Y-13484D02*
D03*
X6102Y-13484D02*
D03*
X5512D02*
D03*
X10236Y-8760D02*
D03*
Y-8268D02*
D03*
X-20669Y-25899D02*
D03*
X-18346Y-25787D02*
D03*
X-17102D02*
D03*
X-6588Y-8813D02*
D03*
X-7461Y-7441D02*
D03*
X-7389Y-8013D02*
D03*
X8295Y-7807D02*
D03*
X5805Y-6970D02*
D03*
X9525Y-8516D02*
D03*
X8295Y-9697D02*
D03*
Y-9106D02*
D03*
X-11614Y-26417D02*
D03*
X-11654Y-25827D02*
D03*
X4921Y-13484D02*
D03*
X-20787Y-8484D02*
D03*
X-21457Y-7972D02*
D03*
X-23819Y-9350D02*
D03*
Y-10138D02*
D03*
X-9744Y-22047D02*
D03*
X-8268D02*
D03*
X-19488Y-25827D02*
D03*
X6988Y-6693D02*
D03*
X6398D02*
D03*
X9941Y-9941D02*
D03*
X-8847Y-19803D02*
D03*
D44*
X-10558Y-24554D02*
D03*
X-7108Y-24604D02*
D03*
D45*
X-8518Y-8412D02*
D03*
X-8990D02*
D03*
X-8510Y-7940D02*
D03*
X-8990D02*
D03*
M02*
